<svg xmlns="http://www.w3.org/2000/svg">


	<!-- Generic Icons -->

	<symbol id="search" viewBox="0 0 24 24" fill="none" stroke="currentColor" stroke-width="2" stroke-linecap="round" stroke-linejoin="round"><circle cx="11" cy="11" r="8"/><path d="m21 21-4.3-4.3"/>
	</symbol>
    
	<symbol id="share" viewBox="0 0 24 24" fill="none" stroke="currentColor" stroke-width="2" stroke-linecap="round" stroke-linejoin="round"><path d="M4 12v8a2 2 0 0 0 2 2h12a2 2 0 0 0 2-2v-8"/><polyline points="16 6 12 2 8 6"/><line x1="12" x2="12" y1="2" y2="15"/>
	</symbol>

   <symbol id="arrow-prev" viewBox="0 0 24 24" fill="none" stroke="currentColor" stroke-width="1" stroke-linecap="round" stroke-linejoin="round" class="lucide lucide-move-left"><path d="M6 8L2 12L6 16"/><path d="M2 12H22"/>
   </symbol>

   <symbol id="arrow-next" viewBox="0 0 24 24" fill="none" stroke="currentColor" stroke-width="1" stroke-linecap="round" stroke-linejoin="round" class="lucide lucide-move-right"><path d="M18 8L22 12L18 16"/><path d="M2 12H22 "/>
    </symbol>

   <symbol id="toparrow" viewBox="0 0 24 24" fill="none" stroke="currentColor" stroke-width="1" stroke-linecap="round" stroke-linejoin="round" class="lucide lucide-move-up"><path d="M8 6L12 2L16 6"/><path d="M12 2V22"/>
    </symbol>

	<symbol id="website" viewBox="0 0 24 24" fill="none" stroke="currentColor" stroke-width="2" stroke-linecap="round" stroke-linejoin="round"><path d="M21 13v6a2 2 0 0 1-2 2H5a2 2 0 0 1-2-2V5a2 2 0 0 1 2-2h6"/><path d="m21 3-9 9"/><path d="M15 3h6v6"/>
	</symbol>

	<!-- Social media icons -->

	<symbol id="facebook" viewBox="0 0 32 32">
		<path d="M32,16.1A16,16,0,1,0,13.5,32V20.75H9.44V16.1H13.5V12.55c0-4,2.39-6.26,6-6.26a24.77,24.77,0,0,1,3.58.31v4h-2a2.33,2.33,0,0,0-2.61,2.52v3h4.44l-.71,4.65H18.5V32A16.07,16.07,0,0,0,32,16.1Z"/>
	</symbol>

	<symbol id="twitter" viewBox="0 0 24 24">
		<path d="m14.093,10.315L22.283,1h-1.941l-7.111,8.089L7.551,1H1l8.589,12.231L1,23h1.941l7.51-8.542,5.998,8.542h6.551l-8.907-12.685h0Zm-2.658,3.024l-.87-1.218L3.64,2.43h2.981l5.588,7.821.87,1.218,7.264,10.166h-2.981l-5.927-8.296h0Z" />
	</symbol>
    
	<symbol id="instagram" viewBox="0 0 32 32">
		<path d="M16,2.883c4.272,0,4.778.016,6.465.093a8.853,8.853,0,0,1,2.971.551,4.957,4.957,0,0,1,1.84,1.2,4.957,4.957,0,0,1,1.2,1.84,8.853,8.853,0,0,1,.551,2.971c.077,1.687.093,2.193.093,6.465s-.016,4.778-.093,6.465a8.853,8.853,0,0,1-.551,2.971,5.3,5.3,0,0,1-3.037,3.037,8.853,8.853,0,0,1-2.971.551c-1.687.077-2.193.093-6.465.093s-4.778-.016-6.465-.093a8.853,8.853,0,0,1-2.971-.551,4.957,4.957,0,0,1-1.84-1.2,4.957,4.957,0,0,1-1.2-1.84,8.853,8.853,0,0,1-.551-2.971C2.9,20.778,2.883,20.272,2.883,16s.016-4.778.093-6.465a8.853,8.853,0,0,1,.551-2.971,4.957,4.957,0,0,1,1.2-1.84,4.957,4.957,0,0,1,1.84-1.2,8.853,8.853,0,0,1,2.971-.551C11.222,2.9,11.728,2.883,16,2.883M16,0c-4.345,0-4.89.018-6.6.1A11.744,11.744,0,0,0,5.519.84,7.843,7.843,0,0,0,2.685,2.685,7.843,7.843,0,0,0,.84,5.519,11.744,11.744,0,0,0,.1,9.4C.018,11.11,0,11.655,0,16s.018,4.89.1,6.6A11.744,11.744,0,0,0,.84,26.481a7.843,7.843,0,0,0,1.845,2.834A7.843,7.843,0,0,0,5.519,31.16,11.744,11.744,0,0,0,9.4,31.9c1.707.078,2.251.1,6.6.1s4.89-.018,6.6-.1a11.744,11.744,0,0,0,3.884-.744,8.181,8.181,0,0,0,4.679-4.679A11.744,11.744,0,0,0,31.9,22.6c.078-1.707.1-2.251.1-6.6s-.018-4.89-.1-6.6a11.744,11.744,0,0,0-.744-3.884,7.843,7.843,0,0,0-1.845-2.834A7.843,7.843,0,0,0,26.481.84,11.744,11.744,0,0,0,22.6.1C20.89.018,20.345,0,16,0Zm0,7.784A8.216,8.216,0,1,0,24.216,16,8.216,8.216,0,0,0,16,7.784Zm0,13.55A5.333,5.333,0,1,1,21.333,16,5.333,5.333,0,0,1,16,21.333ZM24.541,5.539a1.92,1.92,0,1,0,1.92,1.92A1.92,1.92,0,0,0,24.541,5.539Z"/>
	</symbol>

	<symbol id="linkedin" viewBox="0 0 34.48 32">
		<path d="M29.632,0H2.362A2.336,2.336,0,0,0,0,2.306V29.691A2.337,2.337,0,0,0,2.362,32h27.27A2.342,2.342,0,0,0,32,29.691V2.306A2.34,2.34,0,0,0,29.632,0ZM9.491,27.268H4.744V12H9.491ZM7.119,9.909a2.752,2.752,0,1,1,2.75-2.753A2.753,2.753,0,0,1,7.119,9.909ZM27.268,27.268H22.525V19.842c0-1.772-.033-4.05-2.466-4.05-2.47,0-2.848,1.929-2.848,3.921v7.555H12.468V12h4.553v2.086h.063a4.986,4.986,0,0,1,4.491-2.467c4.806,0,5.694,3.163,5.694,7.275Z"/>
	</symbol>
	
	<symbol id="vimeo" viewBox="0 0 24.999 20.159">
		<path d="M26.105,5.927q3.628,0.1,3.641,4.123c0,0.176-.006.36-0.016,0.548q-0.16,3.416-5.09,9.306-5.089,6.17-8.634,6.183-2.205,0-3.671-3.779l-1.029-3.454L10.29,15.4q-1.124-3.749-2.406-3.746a7.819,7.819,0,0,0-1.95,1.091l-1.187-1.4,1.842-1.53L8.4,8.3a8.908,8.908,0,0,1,3.7-2.107,3.207,3.207,0,0,1,.341-0.016q2.606,0,3.249,3.746,0.356,2.137.594,3.473t0.387,1.867q0.862,3.544,1.859,3.559,0.766,0,2.36-2.31A9.305,9.305,0,0,0,22.562,13a2.969,2.969,0,0,0,.031-0.434,1.439,1.439,0,0,0-1.7-1.547,5.46,5.46,0,0,0-1.843.359q1.763-5.434,6.775-5.449h0.281Z" transform="translate(-4.747 -5.927)" />
	</symbol>

	<symbol id="youtube" viewBox="0 0 32 22.507">
		<path d="M31.68,9.6a6.924,6.924,0,0,0-1.272-3.176A4.577,4.577,0,0,0,27.2,5.07c-4.478-.324-11.2-0.324-11.2-0.324H15.993s-6.717,0-11.2.324A4.577,4.577,0,0,0,1.592,6.426,6.921,6.921,0,0,0,.32,9.6,48.4,48.4,0,0,0,0,14.781v2.428a48.4,48.4,0,0,0,.32,5.179,6.921,6.921,0,0,0,1.272,3.176A5.426,5.426,0,0,0,5.12,26.932C7.68,27.177,16,27.253,16,27.253s6.724-.01,11.2-0.334a4.577,4.577,0,0,0,3.206-1.355,6.923,6.923,0,0,0,1.272-3.176A48.46,48.46,0,0,0,32,17.209V14.781A48.46,48.46,0,0,0,31.68,9.6ZM12.7,20.151l0-8.991,8.647,4.511Z" transform="translate(0 -4.747)" />
	</symbol>

	<symbol id="pinterest" viewBox="0 0 32 32">
		<path d="M16 0a16 16 0 0 0-5.83 30.9 15.34 15.34 0 0 1 .055-4.59c.29-1.25 1.876-7.953 1.876-7.953a5.776 5.776 0 0 1-.478-2.375c0-2.225 1.29-3.886 2.9-3.886a2.01 2.01 0 0 1 2.024 2.254c0 1.373-.874 3.425-1.325 5.327a2.323 2.323 0 0 0 2.37 2.89c2.844 0 5.03-3 5.03-7.326a6.316 6.316 0 0 0-6.683-6.508 6.926 6.926 0 0 0-7.225 6.944 6.224 6.224 0 0 0 1.188 3.65.478.478 0 0 1 .11.46c-.12.504-.39 1.59-.443 1.814-.07.293-.232.355-.535.214-2-.93-3.248-3.852-3.248-6.2 0-5.047 3.667-9.682 10.572-9.682 5.55 0 9.864 3.955 9.864 9.24 0 5.515-3.477 9.953-8.3 9.953a4.282 4.282 0 0 1-3.667-1.837s-.8 3.055-1 3.8a17.885 17.885 0 0 1-1.99 4.195A16 16 0 1 0 16 0z" />
	</symbol>
	
	<symbol id="mix" viewBox="0 0 32 32">
		<path d="M6.4,11.44v17.45C6.4,30.58,4.97,32,3.2,32S0,30.58,0,28.88V17.42C3.42,17.45,6.22,14.79,6.4,11.44z"/>
		<path d="M31.75,0C24.8,0,19.17,5.6,19.2,12.46v8.48c-0.03,1.69-1.46,3.12-3.2,3.12c-1.79,0-3.22-1.42-3.2-3.12
			V8.48c-0.02-1.78-1.45-3.2-3.2-3.24C7.9,5.27,6.52,6.57,6.4,8.23c-0.01,0.06-0.01,0.14,0,0.25v2.99c-0.19,3.31-2.98,5.97-6.4,5.98
			V0H31.75z"/>
		<path d="M32,0v17.95c0,1.69-1.43,3.12-3.2,3.12c-1.77,0-3.2-1.42-3.2-3.12v-1.62c0-1.81-1.43-3.23-3.2-3.24
			c-1.77,0.01-3.2,1.43-3.2,3.24v-3.99C19.2,6.07,23.9,0.86,29.98,0H32z"/>
	</symbol>
	
	<symbol id="buffer" viewBox="0 0 32 32">	
		<path d="M.556,15.342,3.338,14a.954.954,0,0,1,1.091.025c.458.225,10.229,4.942,10.229,4.942a3.506,3.506,0,0,0,2.682,0s10.038-4.85,10.4-5.017a.689.689,0,0,1,.791-.008c.342.167,2.916,1.408,2.916,1.408.741.358.741.942-.017,1.292L17.333,23.45a3.506,3.506,0,0,1-2.682,0L.556,16.642C-.185,16.283-.185,15.7.556,15.342ZM.573,8.375l14.094,6.808a3.506,3.506,0,0,0,2.682,0L31.444,8.375c.741-.358.741-.942,0-1.3L17.349.267a3.506,3.506,0,0,0-2.682,0L.573,7.075C-.169,7.433-.169,8.017.573,8.375Zm30.871,15.25s-2.574-1.242-2.916-1.408a.689.689,0,0,0-.791.008c-.358.167-10.388,5.025-10.388,5.025a3.506,3.506,0,0,1-2.682,0S4.9,22.533,4.438,22.308a.954.954,0,0,0-1.091-.025L.564,23.625c-.741.358-.741.942,0,1.3l14.094,6.808A3.109,3.109,0,0,0,16,32a3.237,3.237,0,0,0,1.341-.267l14.094-6.808C32.185,24.567,32.185,23.983,31.444,23.625Z" />
	</symbol>
    
   <symbol id="whatsapp" viewBox="0 0 32 32">
		<path d="M24.09,19.64c0.1,0.17,0.1,0.96-0.23,1.88c-0.33,0.93-1.92,1.77-2.69,1.88c-0.69,0.1-1.55,0.14-2.51-0.16
	c-0.58-0.18-1.32-0.43-2.27-0.83c-3.99-1.72-6.6-5.72-6.8-5.98c-0.2-0.26-1.63-2.15-1.63-4.1c0-1.95,1.03-2.91,1.39-3.31
	c0.36-0.4,0.8-0.5,1.06-0.5s0.53,0,0.76,0.01c0.24,0.01,0.57-0.09,0.9,0.68c0.33,0.79,1.13,2.74,1.23,2.94
	c0.1,0.2,0.17,0.43,0.03,0.69c-0.13,0.26-0.2,0.43-0.4,0.66s-0.42,0.52-0.6,0.69c-0.2,0.2-0.41,0.41-0.17,0.81
	c0.23,0.4,1.03,1.69,2.21,2.74c1.52,1.35,2.8,1.77,3.2,1.97c0.4,0.2,0.63,0.17,0.86-0.1c0.23-0.26,1-1.16,1.26-1.55
	c0.27-0.4,0.53-0.33,0.9-0.2c0.36,0.13,2.32,1.09,2.72,1.29C23.73,19.37,23.99,19.47,24.09,19.64z M32,15.87
	c0,8.74-7.15,15.86-15.93,15.86c0,0,0,0,0,0h-0.01c-2.67,0-5.29-0.67-7.61-1.93L0,32l2.26-8.22c-1.39-2.4-2.13-5.13-2.13-7.93
	C0.14,7.11,7.28,0,16.07,0c4.26,0,8.26,1.65,11.27,4.65C30.35,7.65,32,11.63,32,15.87z M29.31,15.87c0-3.52-1.37-6.83-3.88-9.32
	c-2.5-2.49-5.83-3.86-9.36-3.87c-7.3,0-13.25,5.91-13.25,13.18c0,2.49,0.7,4.92,2.02,7.01l0.31,0.5l-1.34,4.86l5.01-1.31l0.48,0.29
	c2.03,1.2,4.36,1.84,6.74,1.84h0.01C23.37,29.05,29.31,23.13,29.31,15.87z" />
    </symbol>
	
</svg>
