<!-- Publii Static CMS  v.1.0.0.0 -->
<svg xmlns="http://www.w3.org/2000/svg" xmlns:xlink="http://www.w3.org/1999/xlink" viewBox="0 0 508.25 199.534"><defs><style>.cls-1{fill:url(#linear-gradient);}</style><linearGradient id="linear-gradient" x1="35.764" y1="263.721" x2="372.288" y2="148.445" gradientUnits="userSpaceOnUse"><stop offset="0.387" stop-color="#0079f2"/><stop offset="0.471" stop-color="#0079f2"/><stop offset="0.634" stop-color="#0079f2"/><stop offset="0.86" stop-color="#1089ff"/><stop offset="1" stop-color="#1089ff"/></linearGradient></defs><title>logo</title><path class="cls-1" d="M44.649,139.249c-3.6,2.7-5.7-7.5-5.7-10.5.3-9,9-13.5,17.1-18,21-12,34.2-17.7,53.1-23.7.6-3.6.9-6.3,1.2-7.8,1.2-10.2,4.8-8.7,9.3-6.6,2.7,1.2,6,.3,3.3,10.5,26.7-7.8,39.3-10.2,68.4-9.6,31.2.6,68.7,23.1,63.3,48.3-15.3,70.2-119.1,85.5-146.7,82.8,0,23.4,1.5,51.6,1.5,54.3.3,3.6,3.3,9-6.6,5.7-10.2-3.3-7.8-18.6-7.8-19.5,0-1.8,1.2-24.3,2.1-43.8-9.6-5.1-8.7-9.6-8.7-9.9,0-2.1,1.2-4.2,3-2.4,1.2,1.2,2.7,2.4,6.3,3.3.6-9.9.9-19.5.9-26.7.3-16.8,5.1-47.1,8.7-67.2-26.4,9-54,24-60.9,33C43.75,135.049,47.35,137.449,44.649,139.249Zm198-20.4c6-30.9-34.5-35.1-51-35.7-29.1-1.2-47.7,3.3-72.3,11.4-3.6,16.2-6,47.1-9.6,73.2-.9,7.8-1.5,17.1-1.8,26.7C139.75,198.349,229.752,184.549,242.651,118.849Z" transform="translate(-38.95 -71.123)"/><path class="cls-1" d="M248.048,262.55c-19.8.3-23.1-22.5-23.1-22.5s-7.5,23.1-22.5,21.9c-12.3-1.2-17.4-18.3-15.6-30.6s5.7-23.7,6.6-26.7c.3-1.8,1.5-6.6,8.1-4.5,5.4,1.5,2.4,6.3.6,12.3-3,10.2-9,37.8,2.4,39.3,7.8.9,16.5-19.8,18.3-27,1.2-4.8,2.1-9.3,3.3-14.1,1.2-5.1,3.9-6.9,7.5-6,6.6,1.8,3.6,4.8,2.4,9.6-.6,3.3-.6,10.2-1.2,21,0,9,2.4,17.7,10.2,18.6,19.8,2.1,30.6-22.8,37.5-35.4,2.7-4.8,7.5,2.1.9,13.8C277.448,242.75,263.648,262.25,248.048,262.55Z" transform="translate(-38.95 -71.123)"/><path class="cls-1" d="M288.847,265.25c0,.3-6.6,8.1-11.1-3-4.8-11.7-.3-37.5-.3-37.5s6.6-40.2,13.5-113.4c5.1-10.5,16.2,0,14.4,6.6.3,0-15,55.8-17.7,117.3,0-.3,10.5-43.8,34.5-40.8,18.3,2.4,13.5,33.3,12.6,39-4.2,27.6-24.3,37.5-31.5,37.2S288.847,265.55,288.847,265.25Zm2.7-12.9c0,.3,2.1,8.7,10.8,8.4,21.9-1.2,35.4-57.3,16.5-56.1C301.146,205.549,291.547,252.35,291.547,252.35Z" transform="translate(-38.95 -71.123)"/><path class="cls-1" d="M427.742,218.149c3-4.8,6.9,2.1.6,13.8-2.1,4.2-18,37.2-47.1,35.7-35.4-1.8-36.3-41.1-36-74.1.3-29.1,17.7-88.5,40.8-87,14.7.9,20.1,18.9,15.6,48.3-5.7,39.9-29.1,79.2-38.7,90.3,5.4,8.4,12.9,13.5,21.6,13.5C406.441,258.65,420.842,230.75,427.742,218.149Zm-42-100.5c-11.4-.9-27.6,36-31.5,76.5-.9,12.3.9,33,4.8,43.8,15.6-22.5,20.4-34.2,31.2-76.8C392.342,153.349,397.142,118.249,385.741,117.648Z" transform="translate(-38.95 -71.123)"/><path class="cls-1" d="M446.338,267.65c-23.4.3-25.8-27.6-25.2-33,.6-6.6,3-20.1,3-20.1,2.1-5.4,11.4-4.8,11.4.6,0,1.5-11.4,43.8,12,42.6,15.9-.6,30.9-27.6,37.8-40.2,2.7-5.1,6.9,1.8.9,13.8C484.139,235.55,467.639,267.65,446.338,267.65Zm-9-75.3a7.877,7.877,0,0,1-9,6.6c-5.7-.9-6.9-5.7-6.6-8.7,0-2.7,3-10.2,9.3-9.3C437.638,181.849,437.938,188.149,437.338,192.349Z" transform="translate(-38.95 -71.123)"/><path class="cls-1" d="M504.235,267.65c-23.4.3-25.8-27.6-25.2-33,.6-6.6,3-20.1,3-20.1,2.1-5.4,11.4-4.8,11.4.6,0,1.5-11.4,43.8,12,42.6,15.9-.6,30.9-27.6,37.8-40.2,2.7-5.1,6.9,1.8.9,13.8C542.036,235.55,525.536,267.65,504.235,267.65Zm-9-75.3a7.877,7.877,0,0,1-9,6.6c-5.7-.9-6.9-5.7-6.6-8.7,0-2.7,3-10.2,9.3-9.3C495.535,181.849,495.836,188.149,495.235,192.349Z" transform="translate(-38.95 -71.123)"/></svg>
