<?xml version="1.0" encoding="UTF-8"?><svg id="a" xmlns="http://www.w3.org/2000/svg" viewBox="0 0 512 512"><defs><style>.e{fill:#fff;stroke:#fff;stroke-miterlimit:10;stroke-width:10px;}.f{fill:#0070f0;}</style></defs><rect class="f" width="512" height="512" rx="96" ry="96"/><path id="b" class="e" d="M225.283,388.856c-.029-1.389-.129-3.872-.315-8.602-.435-10.986-1.256-31.69-1.539-51.834-.004-.148-.127-.266-.275-.262h-.004c-26.472,1.223-34.79-5.802-37.211-9.085-.188-.247-.541-.296-.788-.107-.135.103-.216.261-.222.431-.443,9.719-.905,19.49-1.301,27.829-.707,14.848-.982,20.78-1.032,22.923l-.009.084c-2.615,28.896,12.065,37.089,18.395,39.235,3.188,1.231,6.561,1.916,9.976,2.027,3.827.109,7.546-1.282,10.365-3.877,6.358-5.936,4.817-14.171,4.157-17.684-.067-.37-.146-.738-.199-1.075"/><path id="c" class="e" d="M178.815,163.421c3.915-5.529,7.491-17.757,10.291-40.666-7.614,2.656-15.613,5.77-23.898,9.437-14.05,6.225-27.636,13.452-40.654,21.624l-1.107.643c-11.324,6.578-26.833,15.583-27.44,34.671,0,.141-.007.283-.007.425,0,.199.315,20.075,11.533,26.041,4.718,2.539,10.49,2.03,14.693-1.296,3.363-2.444,6.925-6.85,6.4-14.454,0,0,.133-.403.306-.883,2.376-6.554,37.386-17.886,49.883-35.544"/><path id="d" class="e" d="M404.529,141.881c-17.158-22.929-51.603-39.402-83.747-40.049-33.297-.726-50.996,1.608-78.14,9.247-1.675-3.91-4.905-7.358-10.741-9.298-.16-.054-.325-.104-.373-.116-4.041-1.973-11.368-5.431-18.806-1.035-7.278,4.306-9.204,13.171-9.975,19.67-.159.904-.306,1.904-.465,3.052l-6.96,44.773c-3.538,22.774-7.695,53.23-8.017,72.395v.233c0,5.489-.125,11.865-.356,18.584-1.368.13-2.705.48-3.962,1.037-5.432,2.394-8.857,8.195-9.024,15.221-.283,4.856,1.092,13.078,11.063,20.886,0,0,3.807,12.363,38.407,10.697,22.199-.506,58.592-5.804,94.312-20.462,54.215-22.249,87.856-57.976,97.295-103.362,2.882-14.092-.751-28.433-10.505-41.473M375.956,174.139c-8.155,43.489-43.395,66.595-71.527,78.323-25.599,10.458-52.971,15.872-80.617,15.946.431-8.528,1.033-16.398,1.776-23.187,1.797-13.669,3.356-28.182,4.867-42.216,2.032-18.907,3.972-36.935,6.186-50.015,28.953-9.627,51.029-14.192,83.856-12.771,26.007.992,45.139,7.183,52.492,16.984,2.101,2.801,4.695,7.604,2.966,16.929"/></svg>