<?xml version="1.0" encoding="UTF-8"?><svg id="a" xmlns="http://www.w3.org/2000/svg" viewBox="0 0 512 512"><defs><style>.e{fill:#fff;stroke:#fff;stroke-miterlimit:10;stroke-width:10px;}.f{fill:#0070f0;}</style></defs><rect class="f" width="512" height="512" rx="96" ry="96"/><path id="b" class="e" d="M222.211,403.113c-.032-1.527-.142-4.256-.346-9.454-.479-12.074-1.382-34.829-1.693-56.968-.004-.163-.14-.292-.303-.288h-.004c-29.119,1.344-38.269-6.377-40.932-9.985-.207-.272-.595-.325-.867-.118-.148.113-.238.287-.244.474-.487,10.682-.996,21.42-1.431,30.585-.778,16.318-1.08,22.838-1.135,25.193l-.01.092c-2.877,31.758,13.271,40.762,20.235,43.121,3.507,1.353,7.217,2.106,10.974,2.228,4.21.12,8.301-1.409,11.402-4.261,6.994-6.524,5.299-15.574,4.573-19.435-.074-.407-.161-.811-.219-1.182"/><path id="c" class="e" d="M171.097,155.351c4.307-6.077,8.24-19.516,11.32-44.694-8.375,2.919-17.174,6.342-26.288,10.372-15.455,6.841-30.4,14.784-44.719,23.766l-1.218.707c-12.456,7.229-29.516,17.126-30.184,38.105,0,.155-.008.311-.008.467,0,.219.346,22.063,12.686,28.62,5.19,2.79,11.539,2.231,16.162-1.424,3.699-2.686,7.617-7.528,7.04-15.885,0,0,.146-.443.337-.971,2.614-7.203,41.125-19.657,54.871-39.064"/><path id="d" class="e" d="M419.382,131.678c-18.874-25.2-56.763-43.304-92.122-44.015-36.627-.798-56.096,1.767-85.954,10.163-1.842-4.297-5.396-8.087-11.815-10.219-.176-.059-.358-.114-.41-.128-4.445-2.168-12.505-5.969-20.687-1.138-8.006,4.733-10.124,14.475-10.972,21.618-.175.994-.337,2.093-.511,3.354l-7.656,49.207c-3.892,25.03-8.464,58.502-8.819,79.565v.256c0,6.033-.138,13.04-.392,20.425-1.505.143-2.976.528-4.358,1.14-5.975,2.631-9.743,9.007-9.926,16.728-.311,5.337,1.201,14.373,12.169,22.955,0,0,4.188,13.587,42.248,11.756,24.419-.556,64.451-6.379,103.743-22.489,59.636-24.453,96.642-63.718,107.024-113.599,3.17-15.488-.826-31.249-11.555-45.58M387.952,167.131c-8.97,47.796-47.735,73.191-78.68,86.08-28.159,11.494-58.268,17.444-88.679,17.525.474-9.373,1.136-18.022,1.954-25.483,1.977-15.023,3.692-30.973,5.354-46.397,2.235-20.78,4.369-40.593,6.805-54.968,31.848-10.58,56.132-15.598,92.242-14.036,28.608,1.09,49.653,7.894,57.741,18.666,2.311,3.078,5.164,8.357,3.263,18.606"/></svg>