<?xml version="1.0" encoding="utf-8"?>
<!-- Publii Static CMS  v.1.0.0.0 -->
<svg version="1.1" xmlns="http://www.w3.org/2000/svg" xmlns:xlink="http://www.w3.org/1999/xlink" x="0px" y="0px" viewBox="0 0 662 572" style="enable-background:new 0 0 662 572;" xml:space="preserve">
    <style type="text/css">
        .st0 {
            fill-rule: evenodd;
            clip-rule: evenodd;
            fill: url(#background);
        }

        .st1 {
            fill: #0d8bf2;
            stroke: #0d8bf2;
            stroke-width: 3;
        }

        .st2 {
            fill: #fff;
            stroke: #d7d8dc;
            stroke-width: 3;
            stroke-linecap: round;
            stroke-miterlimit: 10;
        }

        .st3 {
            fill: #d7d8dc;
        }

        .st4 {
            fill: #0d8bf2;
        }

        .st5 {
            fill: #FFFFFF;
        }

    </style>
    <linearGradient id="background" gradientUnits="userSpaceOnUse" x1="9.6225" y1="224.2177" x2="640.5616" y2="224.2177">
        <stop offset="0" style="stop-color:#f6f6f9" />
        <stop offset="1" style="stop-color:#e7e8ea" />
    </linearGradient>
     <defs>
        <filter id="shadow" filterUnits="userSpaceOnUse">
            <feOffset result="offset" dy="10" in="SourceAlpha" />
            <feGaussianBlur result="blur" stdDeviation="6.557" />
            <feFlood result="flood" flood-color="#5ca4ef" flood-opacity="0.15" />
            <feComposite result="composite" operator="in" in2="blur" />
            <feBlend result="blend" in="SourceGraphic" />
        </filter>
    </defs>
    <path id="background" class="st0" d="M640.46,136.41c-0.07-0.87-0.16-1.72-0.29-2.56c-0.26-1.66-0.65-3.3-1.17-4.9
	c-1.07-3.23-2.6-6.29-4.56-9.08c-3.98-5.76-9.81-11.01-16.68-15.81c-4.86-3.4-10.23-6.6-15.87-9.59l-142.38,37.1L587.3,87.44
	c-4.54-1.99-9.14-3.85-13.69-5.55l-224.72,78.27l192.95-87.75c-3.09-0.66-6.15-1.24-9.16-1.72c-0.96-0.15-1.93-0.29-2.89-0.42
	s-1.92-0.26-2.87-0.37c-1.91-0.22-3.81-0.41-5.7-0.55c-30.04-3-61.91,4.95-99.5,12.14c-4.67,0.87-9.38,1.7-14.13,2.45
	s-9.55,1.45-14.36,2.04c-9.63,1.2-19.32,1.9-29.03,2.1c-19.37,0.36-38.72-1.7-57.58-6.13c-37.34-8.48-70.95-23.68-103.79-29.16
	c-15.11-2.96-30.53-4.09-45.91-3.38c-3.57,0.18-7.07,0.47-10.48,0.88s-6.75,0.92-9.99,1.55c-1.61,0.31-3.21,0.66-4.78,1.03
	s-3.11,0.79-4.63,1.22c-2.98,0.86-5.91,1.87-8.78,3.04c-23.2,9.04-43.27,24.7-64.29,49.53c-5.46,6.65-10.5,13.64-15.08,20.93
	c-2.44,3.88-4.81,7.97-7.1,12.26c-1.14,2.16-2.27,4.38-3.37,6.65c-0.55,1.14-1.09,2.29-1.63,3.46s-1.07,2.35-1.59,3.55
	c-8.46,19.44-15.16,43.2-15.55,69.08l0,0c-0.27,12.98,1.41,25.93,4.98,38.42c1.81,6.28,4.1,12.41,6.85,18.34
	c1.38,2.97,2.87,5.89,4.47,8.77c1.59,2.88,3.3,5.7,5.1,8.46c10.41,16.07,24.22,30.17,38.85,42.43l308.94-166.09l0.96,63.14
	L84.72,350.67c0.69,0.51,1.37,1.02,2.06,1.52c17.08,12.31,34.87,23.59,53.29,33.79c0.88,0.49,1.74,0.97,2.59,1.43
	s1.67,0.91,2.49,1.35c1.63,0.87,3.19,1.69,4.7,2.46c0.75,0.38,1.48,0.75,2.2,1.11s1.43,0.7,2.12,1.03c1.38,0.66,2.71,1.27,3.98,1.82
	c5.08,2.2,9.3,3.53,13.15,3.83c14.22,2.31,32.23-14.5,65.19-38.44c32.09-23.15,70.79-48.89,112.84-51.22
	c40.19-9.66,81.52,3.65,115.32,16.72c34.85,13.85,61.75,26.65,76.29,27.29c3.15,0.39,6.34-0.08,9.24-1.38
	c0.31-0.15,0.61-0.32,0.91-0.5c0.3-0.17,0.58-0.36,0.86-0.57c0.57-0.41,1.1-0.86,1.59-1.36c1.07-1.11,2-2.34,2.76-3.68
	c3.39-5.79,5.56-15.06,9.58-29.56c0.99-3.48,2.09-7.25,3.35-11.33c0.31-1.02,0.63-2.05,0.97-3.1s0.67-2.12,1.03-3.21
	c0.71-2.17,1.46-4.41,2.26-6.72c3.17-9.15,7.14-19.4,11.95-30.38c9.28-21.49,22.51-45.97,34.43-68.05
	c2.98-5.56,5.79-10.88,8.31-15.94c1.27-2.54,2.46-5,3.56-7.4s2.13-4.73,3.06-7c3.7-9.07,5.79-17.03,5.76-24.14
	c0-0.45-0.01-0.89-0.03-1.33S640.49,136.84,640.46,136.41z" />
    <g id="object">
        <circle class="st1" cx="90.5" cy="209.5" r="43.5" />
        <g id="_x33_">
            <path class="st2" d="M539,527H123c-5.52,0-10-4.48-10-10V367c0-5.52,4.48-10,10-10h416c5.52,0,10,4.48,10,10v150
			C549,522.52,544.52,527,539,527z" />
            <path class="st3" d="M449,445H179c-1.1,0-2-0.9-2-2l0,0c0-1.1,0.9-2,2-2h270c1.1,0,2,0.9,2,2l0,0C451,444.1,450.1,445,449,445z" />
            <path class="st3" d="M344,490H179c-1.1,0-2-0.9-2-2l0,0c0-1.1,0.9-2,2-2h165c1.1,0,2,0.9,2,2l0,0C346,489.1,345.1,490,344,490z" />
            <path class="st3" d="M285,467H179c-1.1,0-2-0.9-2-2l0,0c0-1.1,0.9-2,2-2h106c1.1,0,2,0.9,2,2l0,0C287,466.1,286.1,467,285,467z" />
        </g>
        <g id="_x32_" filter="url(#shadow)">
            <path class="st2" d="M539,410H123c-5.52,0-10-4.48-10-10V250c0-5.52,4.48-10,10-10h416c5.52,0,10,4.48,10,10v150
			C549,405.52,544.52,410,539,410z" />
            <path class="st3" d="M449,328H179c-1.1,0-2-0.9-2-2l0,0c0-1.1,0.9-2,2-2h270c1.1,0,2,0.9,2,2l0,0C451,327.1,450.1,328,449,328z" />
            <path class="st3" d="M344,373H179c-1.1,0-2-0.9-2-2l0,0c0-1.1,0.9-2,2-2h165c1.1,0,2,0.9,2,2l0,0C346,372.1,345.1,373,344,373z" />
            <path class="st3" d="M285,350H179c-1.1,0-2-0.9-2-2l0,0c0-1.1,0.9-2,2-2h106c1.1,0,2,0.9,2,2l0,0C287,349.1,286.1,350,285,350z" />
        </g>
        <g id="_x32__1_" filter="url(#shadow)">
            <path class="st2" d="M539,293H123c-5.52,0-10-4.48-10-10V133c0-5.52,4.48-10,10-10h416c5.52,0,10,4.48,10,10v150
			C549,288.52,544.52,293,539,293z" />
            <path class="st3" d="M449,207H179c-1.1,0-2-0.9-2-2l0,0c0-1.1,0.9-2,2-2h270c1.1,0,2,0.9,2,2l0,0C451,206.1,450.1,207,449,207z" />
            <path class="st3" d="M344,252H179c-1.1,0-2-0.9-2-2l0,0c0-1.1,0.9-2,2-2h165c1.1,0,2,0.9,2,2l0,0C346,251.1,345.1,252,344,252z" />
            <path class="st3" d="M285,229H179c-1.1,0-2-0.9-2-2l0,0c0-1.1,0.9-2,2-2h106c1.1,0,2,0.9,2,2l0,0C287,228.1,286.1,229,285,229z" />
            <g>
                <path class="st3" d="M164,152h-27c-1.1,0-2-0.9-2-2l0,0c0-1.1,0.9-2,2-2h27c1.1,0,2,0.9,2,2l0,0C166,151.1,165.1,152,164,152z" />
                <path class="st4" d="M190,152h-10c-1.1,0-2-0.9-2-2l0,0c0-1.1,0.9-2,2-2h10c1.1,0,2,0.9,2,2l0,0C192,151.1,191.1,152,190,152z" />
                <path class="st4" d="M209,152h-10c-1.1,0-2-0.9-2-2l0,0c0-1.1,0.9-2,2-2h10c1.1,0,2,0.9,2,2l0,0C211,151.1,210.1,152,209,152z" />
                <path class="st4" d="M228,152h-10c-1.1,0-2-0.9-2-2l0,0c0-1.1,0.9-2,2-2h10c1.1,0,2,0.9,2,2l0,0C230,151.1,229.1,152,228,152z" />
                <path class="st4" d="M445,152h-10c-1.1,0-2-0.9-2-2l0,0c0-1.1,0.9-2,2-2h10c1.1,0,2,0.9,2,2l0,0C447,151.1,446.1,152,445,152z" />
                <path class="st4" d="M464,152h-10c-1.1,0-2-0.9-2-2l0,0c0-1.1,0.9-2,2-2h10c1.1,0,2,0.9,2,2l0,0C466,151.1,465.1,152,464,152z" />
                <path class="st4" d="M483,152h-10c-1.1,0-2-0.9-2-2l0,0c0-1.1,0.9-2,2-2h10c1.1,0,2,0.9,2,2l0,0C485,151.1,484.1,152,483,152z" />
                <path class="st4" d="M502,152h-10c-1.1,0-2-0.9-2-2l0,0c0-1.1,0.9-2,2-2h10c1.1,0,2,0.9,2,2l0,0C504,151.1,503.1,152,502,152z" />
                <path class="st4" d="M521,152h-10c-1.1,0-2-0.9-2-2l0,0c0-1.1,0.9-2,2-2h10c1.1,0,2,0.9,2,2l0,0C523,151.1,522.1,152,521,152z" />
            </g>
        </g>
        <path class="st5" d="M104.58,207.58H89.42v-15.16c0-0.78-0.64-1.42-1.42-1.42s-1.42,0.64-1.42,1.42v15.16H71.42
		c-0.78,0-1.42,0.64-1.42,1.42c0,0.78,0.64,1.42,1.42,1.42h15.16v15.16c0,0.78,0.64,1.42,1.42,1.42s1.42-0.64,1.42-1.42v-15.16
		h15.16c0.78,0,1.42-0.64,1.42-1.42C106,208.22,105.36,207.58,104.58,207.58z" />
    </g>
</svg>
