<!-- Publii Static CMS  v.1.0.0.0 -->
<svg id="menu" xmlns="http://www.w3.org/2000/svg" viewBox="0 0 688 572" enable-background="new 0 0 688 572"><style>.st2{fill:#fff;stroke:#d7d8dc;stroke-width:3;stroke-linejoin:round}.st3{fill:#d7d8dc}</style><defs><filter id="shadow-1" filterUnits="userSpaceOnUse"><feOffset result="offset" dy="10" in="SourceAlpha"/><feGaussianBlur result="blur" stdDeviation="6.557"/><feFlood result="flood" flood-color="#0d8bf2" flood-opacity=".15"/><feComposite result="composite" operator="in" in2="blur"/><feBlend result="blend" in="SourceGraphic"/></filter><filter id="shadow-2" filterUnits="userSpaceOnUse"><feOffset result="offset" dy="5" in="SourceAlpha"/><feGaussianBlur result="blur" stdDeviation="4.796"/><feFlood result="flood" flood-color="#0d8bf2" flood-opacity=".15"/><feComposite result="composite" operator="in" in2="blur"/><feBlend result="blend" in="SourceGraphic"/></filter></defs><g id="background"><linearGradient id="SVGID_1_" gradientUnits="userSpaceOnUse" x1="44.584" y1="159.529" x2="284.775" y2="159.529"><stop offset="0" stop-color="#f6f6f9"/><stop offset="1" stop-color="#e7e8ea"/></linearGradient><path d="M284.8 121.1c-21.1-7.4-41.5-14.8-60.6-18.9-17-4.1-32.5-5.5-46.8-4.3-3.5.3-7 .8-10.5 1.5-3.4.7-6.7 1.5-10 2.6-1.6.5-3.2 1.1-4.8 1.7-1.6.6-3.1 1.3-4.7 2-3.1 1.5-6.1 3.1-8.9 5-23.7 14.7-46.5 41.4-71.1 74.8-6 8.4-11.9 17.2-17.4 26.4-1.9 3.2-3.7 6.4-5.5 9.7l240.3-100.5z" fill-rule="evenodd" clip-rule="evenodd" fill="url(#SVGID_1_)"/><linearGradient id="SVGID_2_" gradientUnits="userSpaceOnUse" x1="18" y1="296.041" x2="640" y2="296.041"><stop offset="0" stop-color="#f6f6f9"/><stop offset="1" stop-color="#e7e8ea"/></linearGradient><path d="M637.2 199c-.1-.6-.2-1.1-.3-1.7-.1-.6-.2-1.1-.4-1.7-.2-1.1-.5-2.3-.8-3.4-.5-2.2-1.1-4.4-1.7-6.6-1.2-4.2-2.6-8.4-4.3-12.5-3-7.7-6.9-15-11.6-21.7-9-13-20.3-22.6-32.8-28.5-6.2-2.9-12.8-5-19.5-6.1-3.4-.6-6.8-.9-10.3-1.1-.9 0-1.8-.1-2.6-.1h-2.6c-1.8 0-3.6.1-5.3.3-5.2.3-10.4.9-15.8 1.9l-25 5.7c-17.4 4.7-35.7 10.6-54.9 14.9-4.4 1-8.8 1.9-13.3 2.7-4.5.8-9 1.5-13.6 2.1-2.7.3-5.3.6-8 .9l-304.1 69.7L348.2 140c-4.1-.8-8.2-1.8-12.2-2.9-3.3-.8-6.6-1.7-10-2.6L44 222.6c-.6 1.2-1.3 2.3-1.9 3.5-1.3 2.4-2.5 4.9-3.7 7.4-.6 1.2-1.2 2.5-1.8 3.8s-1.2 2.5-1.7 3.8c-9.2 20.7-15.4 43.3-16.6 67.4-.7 12.1 0 24.3 2.1 36.3 1 6 2.3 12 3.9 17.8.8 2.9 1.6 5.8 2.6 8.7.9 2.9 1.9 5.7 3 8.6 7.9 21.5 19.5 41.4 34.3 58.9 13.7 16.2 27.8 27.2 41.7 33 .9.4 1.8.7 2.6 1s1.7.6 2.6.9c1.7.6 3.5 1 5.2 1.4.9.2 1.7.4 2.6.5.9.2 1.8.3 2.6.4 1.8.2 3.5.4 5.3.4 7.3.2 14.6-.9 21.5-3.2 28.8-8.7 64.7-38.3 105.3-66 40.6-27.6 84-52.8 124.1-55.4 40.8-9.4 75.6 3.4 104.3 15.1 29.4 12.6 53.7 23.6 75.8 23.3 5.3.1 10.6-.6 15.8-1.9.6-.2 1.3-.3 1.9-.5l1.8-.6c1.2-.4 2.4-.9 3.6-1.3 2.4-1 4.7-2.1 6.9-3.4 8.9-5.3 16.6-13.3 23.3-25 1.6-2.8 3.2-5.8 4.7-9.1.4-.8.8-1.6 1.1-2.5.4-.8.7-1.7 1.1-2.5.7-1.7 1.4-3.5 2.1-5.3 2.8-7.2 5.3-15.1 7.7-23.7 5.1-18.5 8.7-37.4 10.8-56.5.5-5.1.9-10.2 1.2-15.2.1-2.5.2-5 .2-7.5v-7.5c-.2-9.6-1.1-19.2-2.8-28.7zM75.3 412.5l376.8-189.9 14.4 52.4L75.3 412.5z" fill-rule="evenodd" clip-rule="evenodd" fill="url(#SVGID_2_)"/></g><g id="third_x5F_item" filter="url(#shadow-1)"><path id="Rounded_Rectangle_1" class="st2" d="M170 326h416c5.5 0 10 4.5 10 10v48c0 5.5-4.5 10-10 10H170c-5.5 0-10-4.5-10-10v-48c0-5.5 4.5-10 10-10z"/></g><g id="second_x5F_item"><path id="Rounded_Rectangle_1-2" class="st2" d="M170 264h416c5.5 0 10 4.5 10 10v48c0 5.5-4.5 10-10 10H170c-5.5 0-10-4.5-10-10v-48c0-5.5 4.5-10 10-10z"/><path id="Rounded_Rectangle_2_copy_8" class="st3" d="M216 296h150c1.1 0 2 .9 2 2s-.9 2-2 2H216c-1.1 0-2-.9-2-2s.9-2 2-2z"/></g><g id="lst_x5F_item"><path id="Rounded_Rectangle_1-3" class="st2" d="M170 444h416c5.5 0 10 4.5 10 10v48c0 5.5-4.5 10-10 10H170c-5.5 0-10-4.5-10-10v-48c0-5.5 4.5-10 10-10z"/><path id="Rounded_Rectangle_2_copy_8-2" class="st3" d="M215.5 476h201c1.1 0 2 .9 2 2s-.9 2-2 2h-201c-1.1 0-2-.9-2-2s.9-2 2-2z"/></g><g id="first_x5F_item" filter="url(#shadow-2)"><path id="Rounded_Rectangle_1-4" class="st2" d="M170 201h416c5.5 0 10 4.5 10 10v48c0 5.5-4.5 10-10 10H170c-5.5 0-10-4.5-10-10v-48c0-5.5 4.5-10 10-10z"/><path id="Rounded_Rectangle_2_copy_8-3" class="st3" d="M216 232h270c1.1 0 2 .9 2 2s-.9 2-2 2H216c-1.1 0-2-.9-2-2s.9-2 2-2z"/></g><g id="active_x5F_item"><g id="Rounded_Rectangle_1-5"><path d="M243 362.5h416c5.5 0 10 4.5 10 10v38.9c0 5.5-4.5 10-10 10H243c-5.5 0-10-4.5-10-10v-38.9c0-5.5 4.5-10 10-10z" opacity=".76" fill-rule="evenodd" clip-rule="evenodd" fill="#fff"/><path d="M243 362.5h416c5.5 0 10 4.5 10 10v38.9c0 5.5-4.5 10-10 10H243c-5.5 0-10-4.5-10-10v-38.9c0-5.5 4.5-10 10-10z" fill="none" stroke="#0d8bf2" stroke-width="4" stroke-linecap="round" stroke-dasharray="11.8633,11.8633"/></g><path id="Rounded_Rectangle_2_copy_8-4" class="st3" d="M288.4 391.6h324c1.1 0 2 .9 2 2s-.9 2-2 2h-324c-1.1 0-2-.9-2-2s.9-2 2-2z"/></g><path id="arrow-select" d="M545 231h20l-10 10-10-10z" fill-rule="evenodd" clip-rule="evenodd" fill="#0d8bf2"/></svg>
