<?xml version="1.0" encoding="UTF-8"?><svg id="a" xmlns="http://www.w3.org/2000/svg" xmlns:xlink="http://www.w3.org/1999/xlink" viewBox="0 0 688 572"><defs><style>.f{fill:#f6f6f9;}.g{fill:url(#d);}.g,.h{stroke:#d7d8dc;stroke-miterlimit:10;stroke-width:3px;}.i,.j{fill-rule:evenodd;}.i,.k{fill:#f7f7f7;}.l{fill:#ccccce;}.h,.m{fill:#fff;}.n,.j{fill:#d7d8dc;}.o{fill:#0f8bf2;}</style><linearGradient id="d" x1="145.215517" y1="251" x2="311.215517" y2="251" gradientUnits="userSpaceOnUse"><stop offset="0" stop-color="#f7f7f7"/><stop offset="1" stop-color="#d7d8dc"/></linearGradient><filter id="shadow" filterUnits="userSpaceOnUse"><feOffset result="offset" dx="-9.455" dy="3.256" in="SourceAlpha"/><feGaussianBlur result="blur" stdDeviation="4.796"/><feFlood result="flood" flood-color="#2d5075" flood-opacity=".06"/><feComposite result="composite" operator="in" in2="blur"/><feBlend result="blend" in="SourceGraphic"/></filter></defs><linearGradient id="bg_1_" gradientUnits="userSpaceOnUse" x1="7.5" y1="308" x2="612.5" y2="308"><stop offset="0" stop-color="#efeff2"/><stop offset="1" stop-color="#efeff2"/></linearGradient><path id="b" fill="url(#bg_1_)" d="M408.027689,305.153641c7.848689-5.668614,20.411576-10.828809,43.357824-22.451003,38.992448-19.285728,90.200025-44.534296,130.94154-64.677107,6.663749-3.284771,12.993415-6.422737,19.520819-9.642067,16.675395-8.82637,27.27381-11.476475,34.514133-23.205796,6.180084-12.561041-1.753518-26.938374-9.427966-38.19621-21.931637-31.72456-63.797751-42.995504-101.904795-46.458283-20.376312-1.693679-41.222768-2.83058-61.229039-.347391-13.556711,1.766144-26.209338,5.999045-39.511434,11.239644-42.673999,17.111617-94.853872,40.234321-137.184162,54.771769-12.16807,4.07509-8.61276,1.433029-3.098719-1.58812,26.955985-14.461835,63.844097-31.39166,92.971529-46.640239,4.760982-2.635561,8.834183-4.808088,12.760294-7.958286,11.405277-9.274756-8.722187-9.762374-19.916755-7.799245-9.946351,1.507076-19.467989,5.085462-28.878088,8.84678-77.011459,30.425094-200.195158,82.16806-257.083685,103.304184-1.434146.306218-1.675586.034247-.683481-.833012,1.033612-.904439,3.417806-2.460758,7.08088-4.610271,65.887721-36.259365,139.138638-67.130889,205.96575-101.800581,10.693518-5.95929,33.240195-15.651514,8.577934-23.76939-23.179906-7.209986-49.752011-8.787478-73.880674-4.527104-53.92769,10.380306-100.693188,43.503358-143.170413,77.547485-15.755065,13.196334-31.495951,27.206353-41.224486,45.452823-14.063711,26.002585-10.904037,56.248733-5.312514,85.125375,4.995598,25.817544,12.828263,51.208107,25.326284,74.462432,26.870294,48.626867,72.073262,95.914021,125.539277,112.303497,55.099391,17.530713,28.922259-142.703523,155.991413-34.769292,21.248994,18.049179,48.674343-26.207739,74.159551-37.113122,51.984469-22.289043,108.305916-37.440122,154.721975-71.192645,14.49924-10.503539,27.860612-22.80322,38.516882-37.126972,8.205979-10.986775,14.819175-23.185497,19.518401-35.990204,4.024463-11.636084,13.397914-38.986369-3.229074-38.433407-6.33164.29976-13.02619,3.112588-19.293792,5.503269-16.191876,6.546828-38.374645,15.796196-56.611596,23.332853-40.368841,16.712499-90.029978,37.385875-129.082864,51.672492-5.434593,1.95425-11.758263,4.216019-16.958982,5.530856-1.200455.268217-1.79662.284736-1.782853.046227l.000887-.009938Z"/><g id="c"><path fill="url(#bg_1_)" d="M251.91325,161.225694c33.699503-6.317002,50.23295-14.317632,72.988958-39.812159,25.190933-28.222478,32.705348-57.213095,78.629014-49.765199,51.730402,8.389632,180.719528,76.031019,212.663284,117.777638,30.933087,40.425798,18.019114,91.934145-18.910776,123.085925-67.78348,57.177967-323.283731,64.488101-386.84148,163.229853C157.677501,557.715764,7.173137,317.635829,56.170134,213.313269c36.780435-78.311517,127.692968-39.331514,195.743116-52.087575Z"/><path class="f" d="M288.075961,78.947231c5.335131.222083,29.51282,5.650724,33.176799,8.625968,4.373396,3.551308,1.432678,5.858241-1.990608,8.625968-5.543159,4.481645-97.186156,42.988717-107.49283,45.783983-13.93531,3.779386-35.651285,2.998521-47.111055,7.298896-1.867447.700775-14.706123,8.392903-9.289504,9.95304-11.827396-2.06001-24.206956,2.591527-33.508567-6.967128-3.029425-6.99899,7.205208-17.826927,12.275416-22.228456,7.981744-6.929081,58.453755-36.429499,68.344207-39.812159,12.985268-4.441127,71.408226-11.870705,85.596142-11.280112Z"/><path class="f" d="M324.902208,121.413535c-22.756008,25.494527-39.289455,33.495157-72.988958,39.812159.262719-1.645419-.371195-4.18079,0-5.640056,1.829451-7.192046,33.141046-18.080931,40.807463-21.56492,10.133727-4.605253,20.509166-13.794002,32.181495-12.607184Z"/><path class="m" d="M623.161634,171.84227c1.82227-.706782,9.147745-.277484,10.284808,1.65884,1.765567,3.006616-4.770209,4.627195-2.985912,8.957736-4.343403-2.929195-11.204248-1.984772-8.957736-8.957736.542295-.353532,1.211449-1.485316,1.65884-1.65884Z"/></g><path class="g" d="M228.215434,138h.000166c45.808901,0,82.999917,37.191016,82.999917,82.999917v135.000083c0,4.41532-3.58468,8-8,8h-150c-4.41532,0-8-3.58468-8-8v-135.000083c0-45.808901,37.191016-82.999917,82.999917-82.999917Z"/><rect class="n" x="115.470649" y="348.112518" width="191.053489" height="17" rx="6.499993" ry="6.499993"/><rect class="m" x="212.91737" y="234.92268" width="140.449111" height="96.516389" rx="8" ry="8"/><rect class="n" x="267.37156" y="293.845741" width="40.62844" height="6" rx="2.999997" ry="2.999997"/><rect class="n" x="280.37156" y="304.144414" width="33.314383" height="6" rx="2.999997" ry="2.999997"/><rect class="n" x="267.37156" y="282.845741" width="40.62844" height="6" rx="2.999997" ry="2.999997"/><g id="e"><path class="h" filter="url(#shadow)"  d="M451.000122,139h-57.987088l-29.818457-.106995-121.194577-.893005s61,18,61,83.999878v134.000122c0,4.418274,3.581726,8,8,8h215c4.418274,0,8-3.581726,8-8v-134.000122c0-45.8396-37.160339-82.999878-82.999878-82.999878Z"/><path class="o" d="M445.030939,215.985352c.270143.616009-.064938,1.120017-.744624,1.120017h-40.161813v-31h40.114697c.7056,0,1.053456.523224.773014,1.162719l-14.038191,12.394459c-1.168851,1.03199-1.169675,2.854585-.001757,3.887632l14.058674,12.435173Z"/></g><rect class="n" x="324.5" y="384.186897" width="30" height="95" rx="9.651379" ry="9.651379"/><path class="l" d="M324.5,365.006965h30v25.500015c0,8.278717-6.721268,14.999985-14.999985,14.999985h-.00003c-8.278717,0-14.999985-6.721268-14.999985-14.999985v-25.500015h0Z"/><path class="j" d="M393.421595,269.051619l8.929194-1.172303c1.048355,0,1.898214-.912326,1.898214-2.037737v-88.60369c0-1.125411-.849859-2.037737-1.898214-2.037737l-8.929194,1.172303c-1.048355,0-1.898214.912326-1.898214,2.037737v88.60369c0,1.125411.849859,2.037737,1.898214,2.037737Z"/><circle class="n" cx="523.703553" cy="353.612518" r="2.5"/><circle class="n" cx="314.904685" cy="353.612518" r="2.5"/><circle class="n" cx="280.063147" cy="149.368602" r="2.5"/><circle class="n" cx="457.331245" cy="149.368602" r="2.5"/><circle class="n" cx="523.703553" cy="213.130079" r="2.5"/><circle class="o" cx="220.032981" cy="239.721074" r="27.312069"/><path class="m" d="M217.906627,242.61589c-.196108-1.286239-.403752-2.616847-.621601-3.990492-.218292-1.374089-.397984-2.74241-.53952-4.105407-.141979-1.362997-.212525-2.687837-.212525-3.97452v-2.780567h7v2.780567c0,1.286683-.070989,2.611523-.212525,3.97452-.141979,1.362997-.322114,2.731318-.53952,4.105407-.218292,1.373645-.425493,2.704253-.621601,3.990492h-4.25271ZM220.065592,251.677245c-1.025353,0-1.820878-.283514-2.387906-.850542-.567472-.566584-.850542-1.373645-.850542-2.420739,0-.959244.299487-1.744565.899791-2.355074.599417-.610509,1.378969-.916207,2.338658-.916207,1.02491,0,1.820878.283958,2.387906.850542.567028.567472.850542,1.374089.850542,2.420739,0,.960132-.29993,1.745009-.899347,2.355518-.600304.610065-1.379413.915763-2.339101.915763Z"/></svg>