<?xml version="1.0" encoding="utf-8"?>
<!-- Publii Static CMS  v.1.0.0.0 -->
<svg version="1.1" xmlns="http://www.w3.org/2000/svg" xmlns:xlink="http://www.w3.org/1999/xlink" x="0px" y="0px" viewBox="0 0 662 572" style="enable-background:new 0 0 662 572;" xml:space="preserve">
    <style type="text/css">
        .st0 {
            fill: #fff;
            stroke: #d7d8dc;
            stroke-width: 3;
            stroke-linecap: round;
            stroke-miterlimit: 10;
        }

        .st1 {
            fill: #d7d8dc;
        }

        .st2 {
            fill: #0d8bf2;
        }

        .st3 {
            fill: #FFFFFF;
        }

    </style>
      <defs>
        <filter id="dropshadow" filterUnits="userSpaceOnUse">
            <feOffset result="offset" dx="1.15" dy="10.94" in="SourceAlpha" />
            <feGaussianBlur result="blur" stdDeviation="4.583" />
            <feFlood result="flood" flood-color="#3d6c9d" flood-opacity=".14" />
            <feComposite result="composite" operator="in" in2="blur" />
            <feBlend result="blend" in="SourceGraphic" />
        </filter>
    </defs>
    <path class="st0" d="M539,524H123c-5.52,0-10-4.48-10-10V133c0-5.52,4.48-10,10-10h416c5.52,0,10,4.48,10,10v381
	C549,519.52,544.52,524,539,524z" />
    <path class="st1" d="M451,163H181c-1.1,0-2-0.9-2-2l0,0c0-1.1,0.9-2,2-2h270c1.1,0,2,0.9,2,2l0,0C453,162.1,452.1,163,451,163z" />
    <path class="st1" d="M451,251H181c-1.1,0-2-0.9-2-2l0,0c0-1.1,0.9-2,2-2h270c1.1,0,2,0.9,2,2l0,0C453,250.1,452.1,251,451,251z" />
    <path class="st1" d="M345.5,208h-165c-1.1,0-2-0.9-2-2l0,0c0-1.1,0.9-2,2-2h165c1.1,0,2,0.9,2,2l0,0
	C347.5,207.1,346.6,208,345.5,208z" />
    <path class="st1" d="M345.5,274h-165c-1.1,0-2-0.9-2-2l0,0c0-1.1,0.9-2,2-2h165c1.1,0,2,0.9,2,2l0,0
	C347.5,273.1,346.6,274,345.5,274z" />
    <path class="st1" d="M492.5,336h-165c-1.1,0-2-0.9-2-2l0,0c0-1.1,0.9-2,2-2h165c1.1,0,2,0.9,2,2l0,0
	C494.5,335.1,493.6,336,492.5,336z" />
    <path class="st1" d="M493,359H367c-1.1,0-2-0.9-2-2l0,0c0-1.1,0.9-2,2-2h126c1.1,0,2,0.9,2,2l0,0C495,358.1,494.1,359,493,359z" />
    <path class="st1" d="M493,382H367c-1.1,0-2-0.9-2-2l0,0c0-1.1,0.9-2,2-2h126c1.1,0,2,0.9,2,2l0,0C495,381.1,494.1,382,493,382z" />
    <path class="st1" d="M287,185H181c-1.1,0-2-0.9-2-2l0,0c0-1.1,0.9-2,2-2h106c1.1,0,2,0.9,2,2l0,0C289,184.1,288.1,185,287,185z" />
    <path class="st1" d="M451,441H181c-1.1,0-2-0.9-2-2l0,0c0-1.1,0.9-2,2-2h270c1.1,0,2,0.9,2,2l0,0C453,440.1,452.1,441,451,441z" />
    <path class="st1" d="M345.5,486h-165c-1.1,0-2-0.9-2-2l0,0c0-1.1,0.9-2,2-2h165c1.1,0,2,0.9,2,2l0,0
	C347.5,485.1,346.6,486,345.5,486z" />
    <path class="st1" d="M287,463H181c-1.1,0-2-0.9-2-2l0,0c0-1.1,0.9-2,2-2h106c1.1,0,2,0.9,2,2l0,0C289,462.1,288.1,463,287,463z" />
    <path class="st1" d="M230.46,343.88c0-4.03,3.26-7.29,7.28-7.29s7.28,3.26,7.28,7.29s-3.26,7.29-7.28,7.29
	S230.46,347.9,230.46,343.88z M278.5,383.25c0,0.26-0.02,0.52-0.04,0.78l0.04,0.16l-0.07,0.09c-0.51,4.35-4.19,7.72-8.67,7.72
	h-81.53c-4.82,0-8.74-3.92-8.74-8.75v-52.5c0-4.83,3.91-8.75,8.74-8.75h81.53c4.82,0,8.74,3.92,8.74,8.75V383.25z M187.24,388.98
	c1.58-7.3,6.73-28.6,13.16-29.57c1.88-0.28,3.64,1.06,5.2,3.98c3.37,6.28,6.02,9.51,7.86,9.6c1.3,0.06,2.53-1.67,3.77-3.5
	c1.65-2.44,3.52-5.2,6.67-5.2c2.29,0,3.78,2.61,5.37,5.37c1.98,3.45,4.05,7.01,7.57,6.39c3.48-0.62,6.37-6.05,9.42-11.8
	c4.19-7.89,8.53-16.03,15.62-14.28c5.69,1.42,10.72,14.29,13.7,23.76v-43c0-3.22-2.61-5.83-5.82-5.83h-81.53
	c-3.21,0-5.82,2.62-5.82,5.83v52.5C182.41,386.12,184.5,388.5,187.24,388.98z" />
    <g>
        <path filter="url(#dropshadow)" class="st2" d="M294.62,202H67c-4.42,0-8,3.58-8,8v31.62c0,5.18,4.2,9.38,9.38,9.38h155.61H224l15,18l1.24-18h54.38
		c5.18,0,9.38-4.2,9.38-9.38v-30.25C304,206.2,299.8,202,294.62,202z" />
        <g>
            <path class="st3" d="M98.5,224.5h-10c-1.1,0-2,0.9-2,2v0c0,1.1,0.9,2,2,2h10c1.1,0,2-0.9,2-2v0C100.5,225.4,99.6,224.5,98.5,224.5
			z" />
            <path class="st3" d="M117.5,224.5h-10c-1.1,0-2,0.9-2,2v0c0,1.1,0.9,2,2,2h10c1.1,0,2-0.9,2-2v0
			C119.5,225.4,118.6,224.5,117.5,224.5z" />
            <path class="st3" d="M136.5,224.5h-10c-1.1,0-2,0.9-2,2v0c0,1.1,0.9,2,2,2h10c1.1,0,2-0.9,2-2v0
			C138.5,225.4,137.6,224.5,136.5,224.5z" />
            <path class="st3" d="M155.5,224.5h-10c-1.1,0-2,0.9-2,2v0c0,1.1,0.9,2,2,2h10c1.1,0,2-0.9,2-2v0
			C157.5,225.4,156.6,224.5,155.5,224.5z" />
            <path class="st3" d="M214.5,224.5h-50c-1.11,0-2,0.9-2,2v0c0,1.1,0.9,2,2,2h50c1.11,0,2-0.9,2-2v0
			C216.5,225.4,215.6,224.5,214.5,224.5z" />
            <path class="st3" d="M273.5,224.5h-50c-1.11,0-2,0.9-2,2v0c0,1.1,0.9,2,2,2h50c1.11,0,2-0.9,2-2v0
			C275.5,225.4,274.6,224.5,273.5,224.5z" />
        </g>
    </g>
</svg>
