<!-- Publii Static CMS  v.1.0.0.0 -->
<svg id="backups" xmlns="http://www.w3.org/2000/svg" viewBox="0 0 688 572" enable-background="new 0 0 688 572">
    <style>
        .st3 {
            fill: #3e3f4c
        }

        .st4 {
            fill: #1089ff
        }

        .st6 {
            fill: none;
            stroke: #1089ff;
            stroke-width: 4;
            stroke-linecap: round;
            stroke-linejoin: round
        }

        .st9 {
            fill: #3e3f4c
        }

    </style>   
    <linearGradient id="bg_1_" gradientUnits="userSpaceOnUse" x1="7.5" y1="308" x2="612.5" y2="308">
        <stop offset="0" stop-color="#191a1f" />
        <stop offset="1" stop-color="#202128" />
    </linearGradient>
    <path id="bg" d="M327.6 367l284.9-98.3v-2.3c-.1-3-.3-6.1-.6-9-2.4-23.8-12.4-44.6-32.2-59.7-9.8-7.5-21.9-13.6-35.5-18.7-3.4-1.3-6.9-2.5-10.5-3.6-1.8-.6-3.6-1.1-5.5-1.6-.9-.3-1.8-.5-2.8-.8-.9-.3-1.9-.5-2.8-.8-7.5-2-15.4-3.8-23.5-5.3-19.2-3.8-40-6.2-60.6-8.3l-222.9 58.6 181.6-62.6c-17-.7-31-2.9-43.1-6L21 236.3l295.1-101.9c-18.7-8.8-35.8-18.4-60.6-24-6.9-1.2-13.9-1.8-20.9-2H228.9c-1.9 0-3.9.1-5.9.2-4 .2-8.2.6-12.6 1.2-17.5 2.3-37.5 7.6-62.3 18-23.9 9.8-53.9 25.6-80.8 42.7-13.3 8.5-25.4 16.9-34.6 24.6-4.1 3.4-8 7.1-11.6 11.1-1.5 1.7-2.9 3.4-4.1 5.2-.6.9-1.2 1.7-1.7 2.6-.5.8-1 1.7-1.4 2.5-1 1.6-1.9 3.3-2.7 5-.7 1.6-1.3 3.2-1.8 4.9-.9 3.3-1.4 6.6-1.5 10 0 .9-.1 1.7-.1 2.6v2.7c0 1.8 0 3.7.1 5.7.1 3.9.2 8.1.3 12.6.6 18-.1 41.1 3.3 64.2 3.4 23.2 11.3 46.5 23.1 68.9 11.6 22.5 27.2 43 41.7 59.1 31.4 33.3 62.6 48.7 91.9 53.6 7.5 1.1 15 1.6 22.6 1.3 7.9-.3 15.8-1.3 23.5-2.9 8.6-1.8 17.1-4.1 25.4-6.9 4.4-1.5 9-3 13.6-4.8 2.3-.9 4.7-1.7 7-2.7s4.8-1.9 7.2-2.8c4.7-1.8 9.4-3.7 14.2-5.7 2.4-1 4.7-1.9 7.1-2.9 2.4-1 4.7-1.9 7.1-2.9 9.5-3.8 18.9-7.5 28-10.9 18.2-6.9 35.1-12.3 50.2-16.3 3.8-1 7.5-2 11.1-2.8 1.8-.4 3.6-.9 5.3-1.3 1.8-.4 3.5-.8 5.2-1.2 6.9-1.6 13.6-3 20.2-4.5 13.2-2.9 26.3-5.9 40.4-9.8 27.8-7.7 59.7-18.4 85.5-34.3 12.5-7.5 23.8-16.9 33.6-27.6 4.7-5.2 8.9-10.7 12.8-16.6 1.9-2.9 3.7-5.9 5.3-8.9 1.7-3 3.2-6.1 4.7-9.3 5.6-12.2 9.6-25 12.1-38.2.1-.6.2-1.3.3-1.9l-283 75.1z" fill-rule="evenodd" clip-rule="evenodd" fill="url(#bg_1_)" />
    <g id="disk">
        <path id="Rounded_Rectangle_1_copy_2" d="M576.5 317.5h95c5.5 0 10 4.5 10 10v141c0 5.5-4.5 10-10 10h-95c-5.5 0-10-4.5-10-10v-141c0-5.5 4.5-10 10-10z" fill="#191a1f" stroke="#3e3f4c" stroke-width="3" stroke-linejoin="round" />
        <circle class="st3" cx="585" cy="337" r="4.5" />
        <circle id="Ellipse_3_copy" class="st3" cx="664" cy="337" r="4.5" />
        <path class="st4" d="M625 368.5c-16.8 0-30.5 13.7-30.5 30.5 0 8.5 3.5 16.1 9 21.7l2.1-2c1.5-1.5 3.8-1.8 5.6-.6 1.6 1.4 2 3.7.9 5.5l-1.3 2.5c4.2 2.2 9.1 3.5 14.2 3.5 16.8 0 30.5-13.7 30.5-30.5 0-16.9-13.7-30.6-30.5-30.6z" />
        <circle id="Ellipse_3_copy_2" class="st3" cx="585" cy="462" r="4.5" />
        <circle id="Ellipse_3_copy_2-2" class="st3" cx="664" cy="462" r="4.5" />
        <circle id="Ellipse_4_copy" cx="625" cy="399" r="14.5" fill="none" stroke="#191a1f" stroke-width="4" />
        <circle cx="625" cy="399" r="2" fill="#191a1f" />
        <path id="Rounded_Rectangle_2_copy_19" class="st3" d="M606.5 446h35c1.1 0 2 .9 2 2s-.9 2-2 2h-35c-1.1 0-2-.9-2-2s.9-2 2-2z" />
    </g>
    <g id="transfer">
        <g id="dashed_line">
            <path class="st4" d="M611.6 514.5h-4.1c-1.1 0-2-.9-2-2s.9-2 2-2h4.1c1.1 0 2 .9 2 2s-.9 2-2 2zm-14.2 0h-4.1c-1.1 0-2-.9-2-2s.9-2 2-2h4.1c1.1 0 2 .9 2 2s-.9 2-2 2zm-14.2 0h-4.1c-1.1 0-2-.9-2-2s.9-2 2-2h4.1c1.1 0 2 .9 2 2s-.9 2-2 2zm-14.2 0h-4c-1.1 0-2-.9-2-2s.9-2 2-2h4.1c1.1 0 2 .9 2 2s-1 2-2.1 2zm-14.2 0h-4.1c-1.1 0-2-.9-2-2s.9-2 2-2h4.1c1.1 0 2 .9 2 2s-.9 2-2 2zm-14.2 0h-4.1c-1.1 0-2-.9-2-2s.9-2 2-2h4.1c1.1 0 2 .9 2 2s-.9 2-2 2zm-14.2 0h-4.1c-1.1 0-2-.9-2-2s.9-2 2-2h4.1c1.1 0 2 .9 2 2s-.9 2-2 2zm-14.2 0h-4.1c-1.1 0-2-.9-2-2s.9-2 2-2h4.1c1.1 0 2 .9 2 2s-.9 2-2 2zm-14.2 0h-4c-1.1 0-2-.9-2-2s.9-2 2-2h4.1c1.1 0 2 .9 2 2s-1 2-2.1 2zm-70.9 0H423c-1.1 0-2-.9-2-2s.9-2 2-2h4.1c1.1 0 2 .9 2 2s-.9 2-2 2zm-14.2 0h-4.1c-1.1 0-2-.9-2-2s.9-2 2-2h4.1c1.1 0 2 .9 2 2s-.9 2-2 2zm-14.2 0h-4.1c-1.1 0-2-.9-2-2s.9-2 2-2h4.1c1.1 0 2 .9 2 2s-.9 2-2 2zm-14.2 0h-4.1c-1.1 0-2-.9-2-2s.9-2 2-2h4.1c1.1 0 2 .9 2 2s-.9 2-2 2zm-14.2 0h-4.1c-1.1 0-2-.9-2-2s.9-2 2-2h4.1c1.1 0 2 .9 2 2s-.9 2-2 2zm-14.2 0H352c-1.1 0-2-.9-2-2s.9-2 2-2h4.1c1.1 0 2 .9 2 2s-.9 2-2 2zm-14.2 0h-4.1c-1.1 0-2-.9-2-2s.9-2 2-2h4.1c1.1 0 2 .9 2 2s-.9 2-2 2zm-14.2 0h-4.1c-1.1 0-2-.9-2-2s.9-2 2-2h4.1c1.1 0 2 .9 2 2s-.9 2-2 2zm-14.2 0h-4.1c-1.1 0-2-.9-2-2s.9-2 2-2h4.1c1.1 0 2 .9 2 2s-.9 2-2 2zm-14.2 0h-4.1c-1.1 0-2-.9-2-2s.9-2 2-2h4.1c1.1 0 2 .9 2 2s-.9 2-2 2zm-13.8-1.8c-.4 0-.8-.1-1.1-.4-1.3-.9-2.5-2.1-3.3-3.5-.6-.9-.3-2.2.6-2.8.9-.6 2.2-.3 2.8.6.6.9 1.3 1.7 2.2 2.3.9.6 1.1 1.9.5 2.8-.5.7-1.1 1-1.7 1zm335.3-1.6c-.5 0-.9-.2-1.3-.5-.8-.7-.9-2-.2-2.8.7-.8 1.3-1.8 1.6-2.8.3-1 1.5-1.6 2.5-1.3 1 .3 1.6 1.5 1.3 2.5-.5 1.6-1.3 3-2.4 4.2-.4.5-1 .7-1.5.7zm-339.6-11.2c-1.1 0-2-.9-2-2v-4.1c0-1.1.9-2 2-2s2 .9 2 2v4.1c0 1.1-.8 2-2 2zm0-14.2c-1.1 0-2-.9-2-2v-4.1c0-1.1.9-2 2-2s2 .9 2 2v4.1c0 1.1-.8 2-2 2z" />
            <path class="st6" d="M281.2 467.5v2M623.2 495.5v-2" />
        </g>
        <circle cx="460" cy="511" r="15.5" fill="#3e3f4c" />
        <circle id="Ellipse_6_copy" class="st4" cx="460" cy="511" r="6" />
    </g>
    <g id="browser">
        <path d="M482.5 454h-369c-5.5 0-10-4.5-10-10V220c0-5.5 4.5-10 10-10h369c5.5 0 10 4.5 10 10v224c0 5.5-4.5 10-10 10z" fill="#191a1f" stroke="#3e3f4c" stroke-width="3" stroke-linecap="round" stroke-miterlimit="10" />
        <path class="st9" d="M418 275H222c-1.1 0-2-.9-2-2s.9-2 2-2h196c1.1 0 2 .9 2 2s-.9 2-2 2zM322.5 320h-101c-1.1 0-2-.9-2-2s.9-2 2-2h101c1.1 0 2 .9 2 2s-.9 2-2 2zM167 405V274c0-1.1.9-2 2-2s2 .9 2 2v131c0 1.1-.9 2-2 2s-2-.9-2-2z" />
        <path d="M492.5 219h-389v-2c0-3.3 2.7-6 6-6h377c3.3 0 6 2.7 6 6v2z" fill="#1089ff" stroke="#1089ff" stroke-width="3" stroke-miterlimit="10" />
    </g>
</svg>
