<?xml version="1.0" encoding="utf-8"?>
<!-- Publii Static CMS  v.1.0.0.0 -->
<svg version="1.1" xmlns="http://www.w3.org/2000/svg" xmlns:xlink="http://www.w3.org/1999/xlink" x="0px" y="0px" viewBox="0 0 662 572" style="enable-background:new 0 0 662 572;" xml:space="preserve">
    <style type="text/css">
        .st0 {
            fill: #191a1f;
            stroke: #3E3F4C;
            stroke-width: 3;
            stroke-linecap: round;
            stroke-miterlimit: 10;
        }

        .st1 {
            fill: #1089FF;
        }

        .st2 {
            fill: #3E3F4C;
        }

    </style>
    <g id="Layer_2_1_">
        <path class="st0" d="M539,524H123c-5.52,0-10-4.48-10-10V133c0-5.52,4.48-10,10-10h416c5.52,0,10,4.48,10,10v381
		C549,519.52,544.52,524,539,524z" />
        <path class="st1" d="M445,171H217c-1.1,0-2-0.9-2-2l0,0c0-1.1,0.9-2,2-2h228c1.1,0,2,0.9,2,2l0,0C447,170.1,446.1,171,445,171z" />
        <path class="st1" d="M490,275H239c-1.1,0-2-0.9-2-2l0,0c0-1.1,0.9-2,2-2h251c1.1,0,2,0.9,2,2l0,0C492,274.1,491.1,275,490,275z" />
        <path class="st2" d="M490,202H181c-1.1,0-2-0.9-2-2l0,0c0-1.1,0.9-2,2-2h309c1.1,0,2,0.9,2,2l0,0C492,201.1,491.1,202,490,202z" />
        <path class="st2" d="M490,302H181c-1.1,0-2-0.9-2-2l0,0c0-1.1,0.9-2,2-2h309c1.1,0,2,0.9,2,2l0,0C492,301.1,491.1,302,490,302z" />
        <path class="st2" d="M490,328H181c-1.1,0-2-0.9-2-2l0,0c0-1.1,0.9-2,2-2h309c1.1,0,2,0.9,2,2l0,0C492,327.1,491.1,328,490,328z" />
        <path class="st2" d="M490,375H181c-1.1,0-2-0.9-2-2l0,0c0-1.1,0.9-2,2-2h309c1.1,0,2,0.9,2,2l0,0C492,374.1,491.1,375,490,375z" />
        <path class="st2" d="M340,352H181c-1.1,0-2-0.9-2-2l0,0c0-1.1,0.9-2,2-2h159c1.1,0,2,0.9,2,2l0,0C342,351.1,341.1,352,340,352z" />
        <path class="st2" d="M324,424H214c-1.1,0-2-0.9-2-2l0,0c0-1.1,0.9-2,2-2h110c1.1,0,2,0.9,2,2l0,0C326,423.1,325.1,424,324,424z" />
        <path class="st2" d="M324,447H214c-1.1,0-2-0.9-2-2l0,0c0-1.1,0.9-2,2-2h110c1.1,0,2,0.9,2,2l0,0C326,446.1,325.1,447,324,447z" />
        <path class="st2" d="M379,470H214c-1.1,0-2-0.9-2-2l0,0c0-1.1,0.9-2,2-2h165c1.1,0,2,0.9,2,2l0,0C381,469.1,380.1,470,379,470z" />
        <path class="st2" d="M376,225H181c-1.1,0-2-0.9-2-2l0,0c0-1.1,0.9-2,2-2h195c1.1,0,2,0.9,2,2l0,0C378,224.1,377.1,225,376,225z" />
    </g>
    <g id="Layer_4_1_">
        <polygon class="st1" points="194,419.37 193.13,417.57 187.48,420.39 187.48,414 185.52,414 185.52,420.27 180.17,417.13 
		179.19,418.87 184.41,421.93 179,424.63 179.87,426.43 185.52,423.61 185.52,430 187.48,430 187.48,423.73 192.83,426.87 
		193.81,425.13 188.59,422.07 	" />
        <polygon class="st1" points="194,442.37 193.13,440.57 187.48,443.39 187.48,437 185.52,437 185.52,443.27 180.17,440.13 
		179.19,441.87 184.41,444.93 179,447.63 179.87,449.43 185.52,446.61 185.52,453 187.48,453 187.48,446.73 192.83,449.87 
		193.81,448.13 188.59,445.07 	" />
        <polygon class="st1" points="194,465.37 193.13,463.57 187.48,466.39 187.48,460 185.52,460 185.52,466.27 180.17,463.13 
		179.19,464.87 184.41,467.93 179,470.63 179.87,472.43 185.52,469.61 185.52,476 187.48,476 187.48,469.73 192.83,472.87 
		193.81,471.13 188.59,468.07 	" />
        <path class="st1" d="M196,166v-2h-4v-4h-2v4h-5v-4h-2v4h-4v2h4v5h-4v2h4v4h2v-4h5v4h2v-4h4v-2h-4v-5H196z M190,171h-5v-5h5V171z" />
        <path class="st1" d="M196,271v-2h-4v-4h-2v4h-5v-4h-2v4h-4v2h4v5h-4v2h4v4h2v-4h5v4h2v-4h4v-2h-4v-5H196z M190,276h-5v-5h5V276z" />
        <path class="st1" d="M216,271v-2h-4v-4h-2v4h-5v-4h-2v4h-4v2h4v5h-4v2h4v4h2v-4h5v4h2v-4h4v-2h-4v-5H216z M210,276h-5v-5h5V276z" />
    </g>
    <g id="Layer_3_1_">
    </g>
</svg>
