<?xml version="1.0" encoding="utf-8"?>
<!-- Publii Static CMS  v.1.0.0.0 -->
<svg version="1.1" id="menu" xmlns="http://www.w3.org/2000/svg" xmlns:xlink="http://www.w3.org/1999/xlink" x="0px" y="0px"
	 viewBox="0 0 688 572" style="enable-background:new 0 0 688 572;" xml:space="preserve">
<style type="text/css">
	.st0{fill-rule:evenodd;clip-rule:evenodd;fill:url(#SVGID_1_);}
	.st1{fill-rule:evenodd;clip-rule:evenodd;fill:url(#SVGID_2_);}
	.st2{fill:#191a1f;stroke:#3e3f4c;stroke-width:3;stroke-linejoin:round;}
	.st3{fill:#3e3f4c;}
	.st4{opacity:0.76;fill-rule:evenodd;clip-rule:evenodd;fill:#191a1f;}
	.st5{fill:none;stroke:#1089ff;stroke-width:4;stroke-linecap:round;stroke-dasharray:11.8633,11.8633;}
	.st6{fill-rule:evenodd;clip-rule:evenodd;fill:#1089ff;}
</style>
<g id="background">
	<linearGradient id="SVGID_1_" gradientUnits="userSpaceOnUse" x1="44.5844" y1="159.5291" x2="284.7748" y2="159.5291">
		<stop  offset="0" style="stop-color:#191a1f"/>
		<stop  offset="1" style="stop-color:#202128"/>
	</linearGradient>
	<path class="st0" d="M284.8,121.1c-21.1-7.4-41.5-14.8-60.6-18.9c-17-4.1-32.5-5.5-46.8-4.3c-3.5,0.3-7,0.8-10.5,1.5
		c-3.4,0.7-6.7,1.5-10,2.6c-1.6,0.5-3.2,1.1-4.8,1.7c-1.6,0.6-3.1,1.3-4.7,2c-3.1,1.5-6.1,3.1-8.9,5c-23.7,14.7-46.5,41.4-71.1,74.8
		c-6,8.4-11.9,17.2-17.4,26.4c-1.9,3.2-3.7,6.4-5.5,9.7L284.8,121.1z"/>
	<linearGradient id="SVGID_2_" gradientUnits="userSpaceOnUse" x1="18" y1="296.0413" x2="640" y2="296.0413">
		<stop  offset="0" style="stop-color:#191a1f"/>
		<stop  offset="1" style="stop-color:#202128"/>
	</linearGradient>
	<path class="st1" d="M637.2,199c-0.1-0.6-0.2-1.1-0.3-1.7c-0.1-0.6-0.2-1.1-0.4-1.7c-0.2-1.1-0.5-2.3-0.8-3.4
		c-0.5-2.2-1.1-4.4-1.7-6.6c-1.2-4.2-2.6-8.4-4.3-12.5c-3-7.7-6.9-15-11.6-21.7c-9-13-20.3-22.6-32.8-28.5c-6.2-2.9-12.8-5-19.5-6.1
		c-3.4-0.6-6.8-0.9-10.3-1.1c-0.9,0-1.8-0.1-2.6-0.1c-0.9,0-1.8,0-2.6,0c-1.8,0-3.6,0.1-5.3,0.3c-5.2,0.3-10.4,0.9-15.8,1.9l-25,5.7
		c-17.4,4.7-35.7,10.6-54.9,14.9c-4.4,1-8.8,1.9-13.3,2.7c-4.5,0.8-9,1.5-13.6,2.1c-2.7,0.3-5.3,0.6-8,0.9l-304.1,69.7L348.2,140
		c-4.1-0.8-8.2-1.8-12.2-2.9c-3.3-0.8-6.6-1.7-10-2.6L44,222.6c-0.6,1.2-1.3,2.3-1.9,3.5c-1.3,2.4-2.5,4.9-3.7,7.4
		c-0.6,1.2-1.2,2.5-1.8,3.8s-1.2,2.5-1.7,3.8c-9.2,20.7-15.4,43.3-16.6,67.4l0,0c-0.7,12.1,0,24.3,2.1,36.3c1,6,2.3,12,3.9,17.8
		c0.8,2.9,1.6,5.8,2.6,8.7c0.9,2.9,1.9,5.7,3,8.6c7.9,21.5,19.5,41.4,34.3,58.9c13.7,16.2,27.8,27.2,41.7,33c0.9,0.4,1.8,0.7,2.6,1
		s1.7,0.6,2.6,0.9c1.7,0.6,3.5,1,5.2,1.4c0.9,0.2,1.7,0.4,2.6,0.5c0.9,0.2,1.8,0.3,2.6,0.4c1.8,0.2,3.5,0.4,5.3,0.4
		c7.3,0.2,14.6-0.9,21.5-3.2c28.8-8.7,64.7-38.3,105.3-66c40.6-27.6,84-52.8,124.1-55.4c40.8-9.4,75.6,3.4,104.3,15.1
		c29.4,12.6,53.7,23.6,75.8,23.3c5.3,0.1,10.6-0.6,15.8-1.9c0.6-0.2,1.3-0.3,1.9-0.5c0.6-0.2,1.2-0.4,1.8-0.6
		c1.2-0.4,2.4-0.9,3.6-1.3c2.4-1,4.7-2.1,6.9-3.4c8.9-5.3,16.6-13.3,23.3-25c1.6-2.8,3.2-5.8,4.7-9.1c0.4-0.8,0.8-1.6,1.1-2.5
		c0.4-0.8,0.7-1.7,1.1-2.5c0.7-1.7,1.4-3.5,2.1-5.3c2.8-7.2,5.3-15.1,7.7-23.7c5.1-18.5,8.7-37.4,10.8-56.5
		c0.5-5.1,0.9-10.2,1.2-15.2c0.1-2.5,0.2-5,0.2-7.5s0-5,0-7.5C639.8,218.1,638.9,208.5,637.2,199z M75.3,412.5l376.8-189.9
		l14.4,52.4L75.3,412.5z"/>
</g>
<g id="third_x5F_item">
	<path id="Rounded_Rectangle_1" class="st2" d="M170,326h416c5.5,0,10,4.5,10,10v48c0,5.5-4.5,10-10,10H170c-5.5,0-10-4.5-10-10v-48
		C160,330.5,164.5,326,170,326z"/>
</g>
<g id="second_x5F_item">
	<path id="Rounded_Rectangle_1-2" class="st2" d="M170,264h416c5.5,0,10,4.5,10,10v48c0,5.5-4.5,10-10,10H170c-5.5,0-10-4.5-10-10
		v-48C160,268.5,164.5,264,170,264z"/>
	<path id="Rounded_Rectangle_2_copy_8" class="st3" d="M216,296h150c1.1,0,2,0.9,2,2l0,0c0,1.1-0.9,2-2,2H216c-1.1,0-2-0.9-2-2l0,0
		C214,296.9,214.9,296,216,296z"/>
</g>
<g id="lst_x5F_item">
	<path id="Rounded_Rectangle_1-3" class="st2" d="M170,444h416c5.5,0,10,4.5,10,10v48c0,5.5-4.5,10-10,10H170c-5.5,0-10-4.5-10-10
		v-48C160,448.5,164.5,444,170,444z"/>
	<path id="Rounded_Rectangle_2_copy_8-2" class="st3" d="M215.5,476h201c1.1,0,2,0.9,2,2l0,0c0,1.1-0.9,2-2,2h-201c-1.1,0-2-0.9-2-2
		l0,0C213.5,476.9,214.4,476,215.5,476z"/>
</g>
<g id="first_x5F_item">
	<path id="Rounded_Rectangle_1-4" class="st2" d="M170,201h416c5.5,0,10,4.5,10,10v48c0,5.5-4.5,10-10,10H170c-5.5,0-10-4.5-10-10
		v-48C160,205.5,164.5,201,170,201z"/>
	<path id="Rounded_Rectangle_2_copy_8-3" class="st3" d="M216,232h270c1.1,0,2,0.9,2,2l0,0c0,1.1-0.9,2-2,2H216c-1.1,0-2-0.9-2-2
		l0,0C214,232.9,214.9,232,216,232z"/>
</g>
<g id="active_x5F_item">
	<g id="Rounded_Rectangle_1-5">
		<path class="st4" d="M243,362.5h416c5.5,0,10,4.5,10,10v38.9c0,5.5-4.5,10-10,10H243c-5.5,0-10-4.5-10-10v-38.9
			C233,367,237.5,362.5,243,362.5z"/>
		<path class="st5" d="M243,362.5h416c5.5,0,10,4.5,10,10v38.9c0,5.5-4.5,10-10,10H243c-5.5,0-10-4.5-10-10v-38.9
			C233,367,237.5,362.5,243,362.5z"/>
	</g>
	<path id="Rounded_Rectangle_2_copy_8-4" class="st3" d="M288.4,391.6h324c1.1,0,2,0.9,2,2l0,0c0,1.1-0.9,2-2,2h-324
		c-1.1,0-2-0.9-2-2l0,0C286.4,392.5,287.3,391.6,288.4,391.6z"/>
</g>
<path id="arrow-select" class="st6" d="M545,231h20l-10,10L545,231z"/>
</svg>
