<!-- Publii Static CMS  v.1.0.0.0 -->
<svg id="tags" xmlns="http://www.w3.org/2000/svg" viewBox="0 0 688 572" enable-background="new 0 0 688 572">
    <style>
        .st2 {
            fill: #191a1f
        }

        .st2,
        .st3,
        .st4,
        .st5 {
            fill-rule: evenodd;
            clip-rule: evenodd
        }

        .st3 {
            stroke: #3e3f4c;
            stroke-width: 3;
            stroke-miterlimit: 10;
            fill: #191a1f
        }

        .st4,
        .st5 {
            fill: #3e3f4c
        }

        .st5 {
            fill: #1089ff
        }

    </style>
    <defs>
        <filter id="shadow-3" filterUnits="userSpaceOnUse">
            <feOffset result="offset" dx="9.429" dy="-5.665" in="SourceAlpha" />
            <feGaussianBlur result="blur" stdDeviation="4.583" />
            <feFlood result="flood" flood-color="#191a1f" flood-opacity=".14" />
            <feComposite result="composite" operator="in" in2="blur" />
            <feBlend result="blend" in="SourceGraphic" />
        </filter>
        <filter id="shadow-2" filterUnits="userSpaceOnUse">
            <feOffset result="offset" dx="9.119" dy="6.151" in="SourceAlpha" />
            <feGaussianBlur result="blur" stdDeviation="4.583" />
            <feFlood result="flood" flood-color="#191a1f" flood-opacity=".14" />
            <feComposite result="composite" operator="in" in2="blur" />
            <feBlend result="blend" in="SourceGraphic" />
        </filter>
        <filter id="shadow-1" filterUnits="userSpaceOnUse">
            <feOffset result="offset" dx="12.496" dy="-3.583" in="SourceAlpha" />
            <feGaussianBlur result="blur" stdDeviation="4.796" />
            <feFlood result="flood" flood-color="#191a1f" flood-opacity=".14" />
            <feComposite result="composite" operator="in" in2="blur" />
            <feBlend result="blend" in="SourceGraphic" />
        </filter>
        <filter id="shadow-4" filterUnits="userSpaceOnUse">
            <feOffset result="offset" dx="9.119" dy="6.151" in="SourceAlpha" />
            <feGaussianBlur result="blur" stdDeviation="4.583" />
            <feFlood result="flood" flood-color="#191a1f" flood-opacity=".14" />
            <feComposite result="composite" operator="in" in2="blur" />
            <feBlend result="blend" in="SourceGraphic" />
        </filter>
    </defs>
    <g id="background_1_">
        <g id="bg">
            <linearGradient id="Ellipse_2_copy_1_" gradientUnits="userSpaceOnUse" x1="57.343" y1="349.937" x2="707.318" y2="493.979">
                <stop offset=".003" stop-color="#191a1f" />
                <stop offset=".483" stop-color="#202128" />
            </linearGradient>
            <path id="Ellipse_2_copy" d="M630.3 327.3c11.1 2.8 20.6 6.8 28 12.6 3.7 2.9 6.9 6.3 9.5 10.2 1.3 2 2.5 4 3.5 6.2 1.1 2.2 1.9 4.5 2.7 6.9 1.6 5.1 2.6 10.4 2.9 15.7.2 2.8.3 5.7.3 8.7 0 3-.2 6.1-.5 9.2-1.3 13.2-4.1 26.2-8.2 38.8-2 6.5-4.3 12.8-6.9 18.9-1.2 3-2.5 5.9-3.9 8.8-.7 1.4-1.3 2.8-2 4.2-.7 1.4-1.4 2.7-2.1 4.1-5 9.7-11.2 18.6-18.5 26.7-.8.9-1.7 1.8-2.5 2.6s-1.7 1.6-2.5 2.4c-1.7 1.5-3.4 2.9-5.2 4.3-.9.6-1.8 1.3-2.6 1.9s-1.8 1.2-2.7 1.7c-1.8 1-3.6 2-5.5 2.8-3.7 1.6-7.6 2.8-11.6 3.5-2 .4-4.1.6-6.1.7-1 .1-2.1.1-3.2.1H590c-33.5-.9-84.8-24.3-141.5-39-56.6-15.2-111.6-25.9-152-21.6-43.6-.7-73.5 13.2-104.3 27-30.7 14.3-62.8 29.4-92 32.9-6.7 1-13.5 1.2-20.2.6-.8-.1-1.5-.2-2.3-.3-.8-.1-1.5-.2-2.2-.3-1.5-.2-2.9-.5-4.3-.9-2.6-.6-5.2-1.5-7.6-2.6-9.3-4.2-14.8-11.7-15.4-21.2-.2-2.4-.1-4.8.2-7.1.1-.6.2-1.2.3-1.9.1-.6.2-1.2.4-1.9.3-1.2.6-2.5.9-3.8 1.6-5.2 3.6-10.3 6.1-15.2 4.7-9.9 10.2-19.2 11.8-29 .4-2.5.5-5 .4-7.6-.1-1.3-.2-2.6-.4-3.9-.2-1.3-.5-2.7-.9-4-1.9-6.3-4.6-12.4-8.1-18-.2-.4-.5-.8-.7-1.2-.2-.4-.5-.8-.8-1.3-.5-.8-1-1.7-1.6-2.5-1.1-1.7-2.2-3.5-3.4-5.2-1.2-1.8-2.4-3.6-3.7-5.4-.6-.9-1.3-1.8-1.9-2.8s-1.3-1.9-2-2.8c-5.3-7.5-10.9-15.3-15.9-22.8-4.7-6.9-9-14.1-12.6-21.6-.8-1.7-1.5-3.3-2-4.8s-1.1-3.1-1.5-4.5c-.8-2.5-1.1-5.2-1.1-7.9-.1-4.3 2.1-8.3 5.7-10.5 2.1-1.2 4.4-2.1 6.9-2.5.7-.1 1.4-.3 2.1-.4.7-.1 1.5-.2 2.3-.2 1.6-.1 3.2-.2 4.9-.2 27.8-.2 71.4 11.7 105 13.4 4.3.3 8.6.5 12.8.5 4.2 0 8.3 0 12.3-.2 7.7-.4 15.4-1.4 23-2.9 14.1-3 27.5-8.4 39.6-16.2 23.8-14.5 40.8-35.7 64.1-44.8 5.7-2.4 11.6-4.2 17.7-5.1 3.1-.5 6.3-.8 9.5-1 .8 0 1.6-.1 2.4-.1h2.4c1.6 0 3.3.1 5 .2 3.4.2 6.8.5 10.2 1 3.5.5 7 1.2 10.6 2 1.8.4 3.6.8 5.4 1.3 1.8.5 3.7 1 5.5 1.5 3.7 1.1 7.5 2.3 11.3 3.7 31.1 10.8 67.7 28.5 113.5 41.6 11.5 3.4 23.3 6.4 35.4 9.1 6.1 1.3 12.3 2.6 18.5 3.8 3.1.6 6.3 1.2 9.4 1.7 1.6.3 3.2.5 4.7.8l4.7.8c25.5 4.3 51.7 6.6 73.7 12.3z" fill-rule="evenodd" clip-rule="evenodd" fill="url(#Ellipse_2_copy_1_)" />
            <linearGradient id="SVGID_1_" gradientUnits="userSpaceOnUse" x1="57.782" y1="408.622" x2="481.97" y2="408.622">
                <stop offset="0" stop-color="#202128" />
                <stop offset=".512" stop-color="#202128" stop-opacity="0" />
            </linearGradient>
            <path d="M292.6 349c53.9 1.4 103.2 4.4 137.4 18.9 34.4 13.6 53.6 38.8 51.8 65.5v.6l-.1.6c0 .4-.1.7-.1 1.1-.1.7-.2 1.4-.4 2.1-.3 1.4-.7 2.7-1.1 4-.9 2.4-2.2 4.7-4 6.6-3.4 3.8-8.3 6.3-15 7.6-13.3 2.7-34.1.8-61.4-1.3-27.1-2.2-60.4-4.4-93.4-3.9-16.5.2-32.8 1-48.1 2.3-7.7.6-15.1 1.4-22.2 2.2-3.6.4-7.1.8-10.5 1.3-3.4.4-6.7.9-9.9 1.3-23.8 3-44.9 6.6-63.5 8.6-8.7 1-17.4 1.6-26.2 1.8-7.7.1-15.4-.4-22.9-1.8-13.7-2.7-25.8-8.3-34.3-15.7-4.3-3.6-7.6-7.6-9.5-11.7-.4-1-.8-2.1-1-3.2-.1-.5-.2-1.1-.2-1.7 0-.6-.1-1.1 0-1.7.2-2.6 1-5.2 2.3-7.5 10.6-21 49.7-44.6 90.3-57.5 41.8-13.7 86-17.5 142-18.5z" fill-rule="evenodd" clip-rule="evenodd" fill="url(#SVGID_1_)" />
        </g>
        <g id="lines">
            <path id="Rectangle_4_copy_3" class="st2" d="M99.1 435l150.2-34.8 5.9 12.5L99.1 435z" />
            <path id="Rectangle_4_copy_3-2" class="st2" d="M425.1 414.9l760.4 66.5 28.7 34.2-789.1-100.7z" />
            <path id="Rectangle_4_copy_5" class="st2" d="M519.5 438.5l760.9 52 26.7 66.5-787.6-118.5z" />
        </g>
    </g>
    <g id="tag3">
        <path id="bg_2_" class="st3" d="M489.9 404.5l-107.3-6.3c-5.9-.3-10.5-5.5-10.1-11.4l10.2-173.1c.3-6 5.4-10.5 11.4-10.2l107.3 6.3c5.9.3 10.5 5.5 10.1 11.4l-10.2 173.1c-.3 6-5.4 10.5-11.4 10.2z" />
        <path class="st4" d="M474.4 301l-69.2-4c-.8 0-1.4.5-1.5 1.3 0 .8.5 1.4 1.3 1.5l69.2 4c.8 0 1.4-.5 1.5-1.3.1-.8-.5-1.5-1.3-1.5zM457.8 319.3l-53.3-3.1c-.8 0-1.4.5-1.5 1.3 0 .8.5 1.4 1.3 1.5l53.3 3.1c.8 0 1.4-.5 1.5-1.3 0-.8-.6-1.4-1.3-1.5zM440.3 337.6l-37.4-2.2c-.8 0-1.4.5-1.5 1.3 0 .8.5 1.4 1.3 1.5l37.4 2.2c.8 0 1.4-.5 1.5-1.3 0-.8-.5-1.5-1.3-1.5z" />
        <ellipse transform="rotate(-45.025 444.023 242.009)" class="st5" cx="444" cy="242" rx="8.5" ry="8.5" />
        <ellipse transform="rotate(-45.025 444.023 242.009)" class="st2" cx="444" cy="242" rx="5" ry="5" />
        <path id="line_3_" class="st4" d="M444 242.5c.8 0 1.5-.7 1.5-1.5V37c0-.8-.7-1.5-1.5-1.5s-1.5.7-1.5 1.5v204c0 .8.7 1.5 1.5 1.5z" />
    </g>
    <g id="tag2_1_">
        <path filter="url(#shadow-2)" class="st5" d="M342.7 397.5L273 375.7c-5.7-1.8-8.8-7.8-7.1-13.5l35.9-116.6c1.8-5.7 7.8-8.9 13.4-7.1l69.7 21.8c5.7 1.8 8.8 7.8 7.1 13.5l-35.9 116.6c-1.7 5.7-7.7 8.9-13.4 7.1z" />
        <circle class="st2" cx="339" cy="282" r="7.5" />
        <path id="line_2_" class="st4" d="M339 281.5c.8 0 1.5-.7 1.5-1.5V76c0-.8-.7-1.5-1.5-1.5s-1.5.7-1.5 1.5v204c0 .8.7 1.5 1.5 1.5z" />
    </g>
    <g id="tag1_1_">
        <path id="bg_1_" class="st3" d="M305.8 425.6l-125.1 24.7c-5.9 1.2-11.5-2.6-12.7-8.5l-40.3-202.7c-1.2-5.8 2.6-11.5 8.5-12.7l125.1-24.7c5.9-1.2 11.5 2.6 12.7 8.5l40.3 202.7c1.2 5.9-2.7 11.5-8.5 12.7z" />
        <path class="st4" d="M257 314l-78.3 15.5c-.9.2-1.4 1-1.3 1.9.2.9 1 1.4 1.9 1.3l78.3-15.5c.9-.2 1.4-1 1.3-1.9-.2-.9-1.1-1.4-1.9-1.3zM243.9 339.7l-60.3 11.9c-.9.2-1.4 1-1.3 1.9.2.9 1 1.4 1.9 1.3l60.3-11.9c.9-.2 1.4-1 1.3-1.9-.2-.9-1-1.5-1.9-1.3zM229.8 365.5l-42.3 8.4c-.9.2-1.4 1-1.3 1.9.2.9 1 1.4 1.9 1.3l42.3-8.4c.9-.2 1.4-1 1.3-1.9-.2-.9-1-1.4-1.9-1.3z" />
        <circle class="st5" cx="207" cy="259" r="9" />
        <circle class="st2" cx="207" cy="259" r="5" />
        <path id="line_1_" class="st4" d="M207 259.5c.8 0 1.5-.7 1.5-1.5V54c0-.8-.7-1.5-1.5-1.5s-1.5.7-1.5 1.5v204c0 .8.7 1.5 1.5 1.5z" />
    </g>
    <g id="tag4">
        <path filter="url(#shadow-4)" class="st5" d="M609.3 376.6L526 394.3c-6 1.3-11.9-2.4-13.2-8.3l-30.5-137.7c-1.3-5.8 2.5-11.6 8.5-12.8l83.3-17.7c6-1.3 11.9 2.4 13.2 8.3l30.5 137.7c1.2 5.8-2.6 11.5-8.5 12.8z" />
        <circle class="st2" cx="541" cy="261" r="8.5" />
        <path class="st2" d="M577.2 291.6l-58.3 12.6c-.9.2-1.4 1.1-1.2 1.9.2.9 1.1 1.4 1.9 1.2l58.3-12.6c.9-.2 1.4-1.1 1.2-1.9-.1-.8-1-1.4-1.9-1.2zM564.6 317.6l-40.3 8.7c-.9.2-1.4 1.1-1.2 1.9.2.9 1.1 1.4 1.9 1.2l40.3-8.7c.9-.2 1.4-1.1 1.2-1.9-.2-.9-1.1-1.4-1.9-1.2z" />
        <path id="line_4_" class="st4" d="M541 261.5c.8 0 1.5-.7 1.5-1.5V56c0-.8-.7-1.5-1.5-1.5s-1.5.7-1.5 1.5v204c0 .8.7 1.5 1.5 1.5z" />
    </g>
</svg>
