<?xml version="1.0" encoding="utf-8"?>
<!-- Publii Static CMS  v.1.0.0.0 -->
<svg version="1.1" xmlns="http://www.w3.org/2000/svg" xmlns:xlink="http://www.w3.org/1999/xlink" x="0px" y="0px" viewBox="0 0 662 572" style="enable-background:new 0 0 662 572;" xml:space="preserve">
    <style type="text/css">
        .st0 {
            fill: #191a1f;
            stroke: #3E3F4C;
            stroke-width: 3;
            stroke-linecap: round;
            stroke-miterlimit: 10;
        }

        .st1 {
            fill: #3E3F4C;
        }

        .st2 {
            fill: #1089FF;
        }

        .st3 {
            fill: #202128;
        }

    </style>
     <defs>
        <filter id="dropshadow" filterUnits="userSpaceOnUse">
            <feOffset result="offset" dx="1.15" dy="10.94" in="SourceAlpha" />
            <feGaussianBlur result="blur" stdDeviation="4.583" />
            <feFlood result="flood" flood-color="#000000" flood-opacity=".14" />
            <feComposite result="composite" operator="in" in2="blur" />
            <feBlend result="blend" in="SourceGraphic" />
        </filter>
    </defs>
    <g>
        <path class="st0" d="M538.81,524.05h-416c-5.52,0-10-4.48-10-10v-381c0-5.52,4.48-10,10-10h416c5.52,0,10,4.48,10,10v381
		C548.81,519.57,544.33,524.05,538.81,524.05z" />
        <path class="st1" d="M450.81,163.05h-270c-1.1,0-2-0.9-2-2l0,0c0-1.1,0.9-2,2-2h270c1.1,0,2,0.9,2,2l0,0
		C452.81,162.15,451.91,163.05,450.81,163.05z" />
        <path class="st1" d="M450.81,251.05h-270c-1.1,0-2-0.9-2-2l0,0c0-1.1,0.9-2,2-2h270c1.1,0,2,0.9,2,2l0,0
		C452.81,250.15,451.91,251.05,450.81,251.05z" />
        <path class="st1" d="M345.31,208.05h-165c-1.1,0-2-0.9-2-2l0,0c0-1.1,0.9-2,2-2h165c1.1,0,2,0.9,2,2l0,0
		C347.31,207.15,346.41,208.05,345.31,208.05z" />
        <path class="st1" d="M345.31,274.05h-165c-1.1,0-2-0.9-2-2l0,0c0-1.1,0.9-2,2-2h165c1.1,0,2,0.9,2,2l0,0
		C347.31,273.15,346.41,274.05,345.31,274.05z" />
        <path class="st1" d="M492.31,336.05h-165c-1.1,0-2-0.9-2-2l0,0c0-1.1,0.9-2,2-2h165c1.1,0,2,0.9,2,2l0,0
		C494.31,335.15,493.41,336.05,492.31,336.05z" />
        <path class="st1" d="M492.81,359.05h-126c-1.1,0-2-0.9-2-2l0,0c0-1.1,0.9-2,2-2h126c1.1,0,2,0.9,2,2l0,0
		C494.81,358.15,493.91,359.05,492.81,359.05z" />
        <path class="st1" d="M492.81,382.05h-126c-1.1,0-2-0.9-2-2l0,0c0-1.1,0.9-2,2-2h126c1.1,0,2,0.9,2,2l0,0
		C494.81,381.15,493.91,382.05,492.81,382.05z" />
        <path class="st1" d="M286.81,185.05h-106c-1.1,0-2-0.9-2-2l0,0c0-1.1,0.9-2,2-2h106c1.1,0,2,0.9,2,2l0,0
		C288.81,184.15,287.91,185.05,286.81,185.05z" />
        <path class="st1" d="M450.81,441.05h-270c-1.1,0-2-0.9-2-2l0,0c0-1.1,0.9-2,2-2h270c1.1,0,2,0.9,2,2l0,0
		C452.81,440.15,451.91,441.05,450.81,441.05z" />
        <path class="st1" d="M345.31,486.05h-165c-1.1,0-2-0.9-2-2l0,0c0-1.1,0.9-2,2-2h165c1.1,0,2,0.9,2,2l0,0
		C347.31,485.15,346.41,486.05,345.31,486.05z" />
        <path class="st1" d="M286.81,463.05h-106c-1.1,0-2-0.9-2-2l0,0c0-1.1,0.9-2,2-2h106c1.1,0,2,0.9,2,2l0,0
		C288.81,462.15,287.91,463.05,286.81,463.05z" />
        <path class="st1" d="M230.27,343.93c0-4.03,3.26-7.29,7.28-7.29s7.28,3.26,7.28,7.29s-3.26,7.29-7.28,7.29
		S230.27,347.95,230.27,343.93z M278.31,383.3c0,0.26-0.02,0.52-0.04,0.78l0.04,0.16l-0.07,0.09c-0.51,4.35-4.19,7.72-8.67,7.72
		h-81.53c-4.82,0-8.74-3.92-8.74-8.75v-52.5c0-4.83,3.91-8.75,8.74-8.75h81.53c4.82,0,8.74,3.92,8.74,8.75V383.3z M187.05,389.03
		c1.58-7.3,6.73-28.6,13.16-29.57c1.88-0.28,3.64,1.06,5.2,3.98c3.37,6.28,6.02,9.51,7.86,9.6c1.3,0.06,2.53-1.67,3.77-3.5
		c1.65-2.44,3.52-5.2,6.67-5.2c2.29,0,3.78,2.61,5.37,5.37c1.98,3.45,4.05,7.01,7.57,6.39c3.48-0.62,6.37-6.05,9.42-11.8
		c4.19-7.89,8.53-16.03,15.62-14.28c5.69,1.42,10.72,14.29,13.7,23.76v-43c0-3.22-2.61-5.83-5.82-5.83h-81.53
		c-3.21,0-5.82,2.62-5.82,5.83v52.5C182.22,386.17,184.31,388.55,187.05,389.03z" />
        <g>
            <path filter="url(#dropshadow)" class="st2" d="M294.43,202.05H66.81c-4.42,0-8,3.58-8,8v31.62c0,5.18,4.2,9.38,9.38,9.38H223.8h0.01l15,18l1.24-18h54.38
			c5.18,0,9.38-4.2,9.38-9.38v-30.25C303.81,206.25,299.61,202.05,294.43,202.05z" />
            <g>
                <path class="st3" d="M98.31,224.55h-10c-1.1,0-2,0.9-2,2l0,0c0,1.1,0.9,2,2,2h10c1.1,0,2-0.9,2-2l0,0
				C100.31,225.45,99.41,224.55,98.31,224.55z" />
                <path class="st3" d="M117.31,224.55h-10c-1.1,0-2,0.9-2,2l0,0c0,1.1,0.9,2,2,2h10c1.1,0,2-0.9,2-2l0,0
				C119.31,225.45,118.41,224.55,117.31,224.55z" />
                <path class="st3" d="M136.31,224.55h-10c-1.1,0-2,0.9-2,2l0,0c0,1.1,0.9,2,2,2h10c1.1,0,2-0.9,2-2l0,0
				C138.31,225.45,137.41,224.55,136.31,224.55z" />
                <path class="st3" d="M155.31,224.55h-10c-1.1,0-2,0.9-2,2l0,0c0,1.1,0.9,2,2,2h10c1.1,0,2-0.9,2-2l0,0
				C157.31,225.45,156.41,224.55,155.31,224.55z" />
                <path class="st3" d="M214.31,224.55h-50c-1.11,0-2,0.9-2,2l0,0c0,1.1,0.9,2,2,2h50c1.11,0,2-0.9,2-2l0,0
				C216.31,225.45,215.41,224.55,214.31,224.55z" />
                <path class="st3" d="M273.31,224.55h-50c-1.11,0-2,0.9-2,2l0,0c0,1.1,0.9,2,2,2h50c1.11,0,2-0.9,2-2l0,0
				C275.31,225.45,274.41,224.55,273.31,224.55z" />
            </g>
        </g>
    </g>
</svg>
