<?xml version="1.0" encoding="utf-8"?>
<!-- Generator: Adobe Illustrator 21.1.0, SVG Export Plug-In . SVG Version: 6.00 Build 0)  -->
<svg version="1.1" id="Layer_1" xmlns="http://www.w3.org/2000/svg" xmlns:xlink="http://www.w3.org/1999/xlink" x="0px" y="0px"
	 viewBox="0 0 258 284" enable-background="new 0 0 258 284" xml:space="preserve">
<path fill="#42A5F5" d="M210,82.1c-17.6,0-32-14.4-32-32.1S192.4,18,210,18s32,14.4,32,32.1S227.6,82.1,210,82.1z M210,20
	c-16.5,0-30,13.5-30,30.1s13.5,30.1,30,30.1s30-13.5,30-30.1S226.5,20,210,20z M211,40h-2v22h2V40z M221,50.1h-22v2h22V50.1z"/>
<g>
	<polygon fill="#CBCDD4" points="121.5,82.6 121.5,148.7 121.5,148.7 169.4,181.8 170.5,180.2 123.5,147.6 123.5,82.6 	"/>
	<path fill="#CBCDD4" d="M96.3,35.7c23.5-8.2,48.4-8.5,71.7-0.9v-1.9c-53.4-17-112.6,7.5-137.6,59.6c-13.7,28.5-14.6,59.9-4.9,87.6
		l-14-6.4c-0.5-0.2-1.1,0-1.3,0.5c-0.2,0.5,0,1.1,0.5,1.3l15.9,7.3c0,0,0,0,0,0c0.1,0.1,0.3,0.1,0.4,0.1c0,0,0,0,0,0c0,0,0,0,0,0
		c0.1,0,0.3,0,0.4-0.1c0,0,0,0,0,0c0.1-0.1,0.2-0.2,0.3-0.3c0,0,0,0,0,0l10.1-14.1c0.3-0.4,0.2-1.1-0.2-1.4
		c-0.5-0.3-1.1-0.2-1.4,0.2l-8.9,12.4c0-0.1,0-0.1-0.1-0.2c-9.9-28.5-8.2-59.1,4.8-86.2C45.1,66.1,67.9,45.7,96.3,35.7z"/>
	<path fill="#CBCDD4" d="M235.5,90.2h-2.1c2.5,4.8,4.6,9.7,6.4,14.9c9.9,28.3,8.2,58.8-4.6,85.8c-27.3,56.2-95.1,79.9-151.4,52.7
		c-0.5-0.2-1,0-1.2,0.4c-0.2,0.5,0,1,0.4,1.2c0.3,0.1,0.6,0.3,0.8,0.4l0,0c57,27.5,125.4,3.5,152.8-53.6c0.1-0.1,0.1-0.3,0.2-0.4
		c0.1-0.1,0.1-0.3,0.2-0.4c0,0,0,0,0-0.1C252.7,157.8,251,120.7,235.5,90.2z"/>
</g>
</svg>
