<?xml version="1.0" encoding="utf-8"?>
<!-- Generator: Adobe Illustrator 21.1.0, SVG Export Plug-In . SVG Version: 6.00 Build 0)  -->
<svg version="1.1" id="Layer_1" xmlns="http://www.w3.org/2000/svg" xmlns:xlink="http://www.w3.org/1999/xlink" x="0px" y="0px"
	 viewBox="0 0 258 284" enable-background="new 0 0 258 284" xml:space="preserve">
<g>
	<path fill="#CBCDD4" d="M208,121V88h-88.4L95,53H3v177h201.1h3.5L254,121H208z M4.8,54.8h89.2l24,34.2l0.5,0.8h87.6V121H49.4
		L4.8,225.7V54.8z M206.4,228.1H5.9l44.7-105.2h200.5L206.4,228.1z"/>
	<g>
		<path fill="#42A5F5" d="M122.6,165.8c-5.2,3.1-6.9,9.9-3.8,15.1l4-4.3l-3.4,0c-0.5-3.5,1.1-7.2,4.3-9.1c4.3-2.5,9.8-1.2,12.3,3.1
			c2.5,4.3,1.2,9.8-3.1,12.4c-2.3,1.4-5.3,1.6-7.9,0.7c-0.5-0.2-1.1,0.1-1.3,0.6c-0.2,0.5,0.1,1.1,0.6,1.3c3.1,1.2,6.7,0.9,9.6-0.8
			c0,0,0,0,0,0c5.2-3.1,6.9-9.9,3.8-15.1C134.6,164.4,127.8,162.7,122.6,165.8"/>
		<path fill="#42A5F5" d="M127.3,169.3c-0.6,0-1,0.4-1,1v5c0,0,0,0.2,0,0.2c0,0.1,0.1,0.2,0.1,0.3c0,0,0,0,0,0
			c0.1,0.2,0.3,0.3,0.5,0.4l2.8,1.9c0.2,0.1,0.4,0.2,0.6,0.2c0.3,0,0.6-0.1,0.8-0.4c0.3-0.4,0.2-1.1-0.3-1.4l-2.6-1.7v-4.5
			C128.3,169.7,127.8,169.3,127.3,169.3z"/>
	</g>
</g>
</svg>
