<svg id="Layer_2" xmlns="http://www.w3.org/2000/svg" viewBox="0 0 572 572" enable-background="new 0 0 572 572"><style>.st2{fill:#fff;stroke:#deedfc;stroke-width:3;stroke-linecap:round;stroke-miterlimit:10}.st3{fill:#dfe8f7}.st4{fill:#42a5f5}.st5{fill:#ecf5fe;stroke:#fff;stroke-width:3;stroke-miterlimit:10}.st7{filter:url(#shadow)}</style><defs><filter id="shadow" filterUnits="userSpaceOnUse"><feOffset result="offset" dy="10" in="SourceAlpha"/><feGaussianBlur result="blur" stdDeviation="6.557"/><feFlood result="flood" flood-color="#42a5f5" flood-opacity=".15"/><feComposite result="composite" operator="in" in2="blur"/><feBlend result="blend" in="SourceGraphic"/></filter></defs><linearGradient id="SVGID_1_" gradientUnits="userSpaceOnUse" x1="31.937" y1="148.331" x2="406.843" y2="290.659" gradientTransform="rotate(25.217 211.496 216.467)"><stop offset=".002" stop-color="#f8fbff"/><stop offset="1" stop-color="#cee6ff"/></linearGradient><circle cx="211.5" cy="216.5" r="200.5" fill="url(#SVGID_1_)"/><circle cx="104.5" cy="209.5" r="43.5" fill="#42a5f5" stroke="#42a5f5" stroke-width="3"/><g id="_x33_"><path class="st2" d="M553 527H137c-5.5 0-10-4.5-10-10V367c0-5.5 4.5-10 10-10h416c5.5 0 10 4.5 10 10v150c0 5.5-4.5 10-10 10z"/><path class="st3" d="M463 445H193c-1.1 0-2-.9-2-2s.9-2 2-2h270c1.1 0 2 .9 2 2s-.9 2-2 2zM358 490H193c-1.1 0-2-.9-2-2s.9-2 2-2h165c1.1 0 2 .9 2 2s-.9 2-2 2zM299 467H193c-1.1 0-2-.9-2-2s.9-2 2-2h106c1.1 0 2 .9 2 2s-.9 2-2 2z"/></g><g id="_x32_" class="st7"><path class="st2" d="M553 410H137c-5.5 0-10-4.5-10-10V250c0-5.5 4.5-10 10-10h416c5.5 0 10 4.5 10 10v150c0 5.5-4.5 10-10 10z"/><path class="st3" d="M463 328H193c-1.1 0-2-.9-2-2s.9-2 2-2h270c1.1 0 2 .9 2 2s-.9 2-2 2zM358 373H193c-1.1 0-2-.9-2-2s.9-2 2-2h165c1.1 0 2 .9 2 2s-.9 2-2 2zM299 350H193c-1.1 0-2-.9-2-2s.9-2 2-2h106c1.1 0 2 .9 2 2s-.9 2-2 2z"/></g><g id="_x32__1_" class="st7"><path class="st2" d="M553 293H137c-5.5 0-10-4.5-10-10V133c0-5.5 4.5-10 10-10h416c5.5 0 10 4.5 10 10v150c0 5.5-4.5 10-10 10z"/><path class="st3" d="M463 207H193c-1.1 0-2-.9-2-2s.9-2 2-2h270c1.1 0 2 .9 2 2s-.9 2-2 2zM358 252H193c-1.1 0-2-.9-2-2s.9-2 2-2h165c1.1 0 2 .9 2 2s-.9 2-2 2zM299 229H193c-1.1 0-2-.9-2-2s.9-2 2-2h106c1.1 0 2 .9 2 2s-.9 2-2 2zM178 152h-27c-1.1 0-2-.9-2-2s.9-2 2-2h27c1.1 0 2 .9 2 2s-.9 2-2 2z"/><path class="st4" d="M204 152h-10c-1.1 0-2-.9-2-2s.9-2 2-2h10c1.1 0 2 .9 2 2s-.9 2-2 2zM223 152h-10c-1.1 0-2-.9-2-2s.9-2 2-2h10c1.1 0 2 .9 2 2s-.9 2-2 2zM242 152h-10c-1.1 0-2-.9-2-2s.9-2 2-2h10c1.1 0 2 .9 2 2s-.9 2-2 2zM459 152h-10c-1.1 0-2-.9-2-2s.9-2 2-2h10c1.1 0 2 .9 2 2s-.9 2-2 2zM478 152h-10c-1.1 0-2-.9-2-2s.9-2 2-2h10c1.1 0 2 .9 2 2s-.9 2-2 2zM497 152h-10c-1.1 0-2-.9-2-2s.9-2 2-2h10c1.1 0 2 .9 2 2s-.9 2-2 2zM516 152h-10c-1.1 0-2-.9-2-2s.9-2 2-2h10c1.1 0 2 .9 2 2s-.9 2-2 2zM535 152h-10c-1.1 0-2-.9-2-2s.9-2 2-2h10c1.1 0 2 .9 2 2s-.9 2-2 2z"/></g><path class="st5" d="M52.8 376h21.4c7.7-.3 13.8-6.5 13.8-14.2 0-5.9-2.4-10.8-7.5-13-.1-5.4-5.8-9.9-11.3-9.9-2.1 0-4 .6-5.6 1.7-3.2-6.8-10.2-11.6-18.3-11.6-11.1 0-20.1 8.9-20.1 19.8v.5c-7.6 2-11.2 8.3-9.9 15.7 1.2 6.5 7.3 11 14.1 11h23.4M348.5 103h27c7.8 0 14.8-5.2 16.2-12.7 1.6-8.4-2.6-15.7-11.3-18v-.6c0-12.6-10.4-22.7-23.2-22.7-9.4 0-17.4 5.5-21.1 13.3-1.8-1.2-4.1-1.9-6.5-1.9-6.3 0-13 5.1-13 11.4-6 2.5-8.7 8.2-8.7 14.9 0 8.8 7.1 15.9 15.9 16.3h24.7"/><path d="M118.6 207.6h-15.2v-15.2c0-.8-.6-1.4-1.4-1.4s-1.4.6-1.4 1.4v15.2H85.4c-.8 0-1.4.6-1.4 1.4 0 .8.6 1.4 1.4 1.4h15.2v15.2c0 .8.6 1.4 1.4 1.4s1.4-.6 1.4-1.4v-15.2h15.2c.8 0 1.4-.6 1.4-1.4 0-.8-.6-1.4-1.4-1.4z" fill="#fff"/></svg>