<?xml version="1.0" encoding="utf-8"?>
<!-- Publii Static CMS -->
<svg version="1.1" xmlns="http://www.w3.org/2000/svg" xmlns:xlink="http://www.w3.org/1999/xlink" x="0px" y="0px" viewBox="0 0 572 572" style="enable-background:new 0 0 572 572;" xml:space="preserve">
    <style type="text/css">
        .st0 {
            fill: #5CA4EF;
            stroke: #5CA4EF;
            stroke-width: 3;
        }

        .st1 {
            fill: #FFFFFF;
            stroke: #DEEDFC;
            stroke-width: 3;
            stroke-linecap: round;
            stroke-miterlimit: 10;
        }

        .st2 {
            fill: #DFE8F7;
        }

        .st3 {
            fill: #5CA4EF;
        }

        .st4 {
            fill: #FFFFFF;
        }

    </style>
     <defs>
        <filter id="shadow" filterUnits="userSpaceOnUse">
            <feOffset result="offset" dy="10" in="SourceAlpha" />
            <feGaussianBlur result="blur" stdDeviation="6.557" />
            <feFlood result="flood" flood-color="#5ca4ef" flood-opacity="0.15" />
            <feComposite result="composite" operator="in" in2="blur" />
            <feBlend result="blend" in="SourceGraphic" />
        </filter>
    </defs>
    <g>
        <circle class="st0" cx="46.5" cy="209.5" r="43.5" />
        <g id="_x33_">
            <path class="st1" d="M495,527H79c-5.52,0-10-4.48-10-10V367c0-5.52,4.48-10,10-10h416c5.52,0,10,4.48,10,10v150
			C505,522.52,500.52,527,495,527z" />
            <path class="st2" d="M405,445H135c-1.1,0-2-0.9-2-2l0,0c0-1.1,0.9-2,2-2h270c1.1,0,2,0.9,2,2l0,0C407,444.1,406.1,445,405,445z" />
            <path class="st2" d="M300,490H135c-1.1,0-2-0.9-2-2l0,0c0-1.1,0.9-2,2-2h165c1.1,0,2,0.9,2,2l0,0C302,489.1,301.1,490,300,490z" />
            <path class="st2" d="M241,467H135c-1.1,0-2-0.9-2-2l0,0c0-1.1,0.9-2,2-2h106c1.1,0,2,0.9,2,2l0,0C243,466.1,242.1,467,241,467z" />
        </g>
        <g id="_x32_" filter="url(#shadow)">
            <path class="st1" d="M495,410H79c-5.52,0-10-4.48-10-10V250c0-5.52,4.48-10,10-10h416c5.52,0,10,4.48,10,10v150
			C505,405.52,500.52,410,495,410z" />
            <path class="st2" d="M405,328H135c-1.1,0-2-0.9-2-2l0,0c0-1.1,0.9-2,2-2h270c1.1,0,2,0.9,2,2l0,0C407,327.1,406.1,328,405,328z" />
            <path class="st2" d="M300,373H135c-1.1,0-2-0.9-2-2l0,0c0-1.1,0.9-2,2-2h165c1.1,0,2,0.9,2,2l0,0C302,372.1,301.1,373,300,373z" />
            <path class="st2" d="M241,350H135c-1.1,0-2-0.9-2-2l0,0c0-1.1,0.9-2,2-2h106c1.1,0,2,0.9,2,2l0,0C243,349.1,242.1,350,241,350z" />
        </g>
        <g id="_x32__1_" filter="url(#shadow)">
            <path class="st1" d="M495,293H79c-5.52,0-10-4.48-10-10V133c0-5.52,4.48-10,10-10h416c5.52,0,10,4.48,10,10v150
			C505,288.52,500.52,293,495,293z" />
            <path class="st2" d="M405,207H135c-1.1,0-2-0.9-2-2l0,0c0-1.1,0.9-2,2-2h270c1.1,0,2,0.9,2,2l0,0C407,206.1,406.1,207,405,207z" />
            <path class="st2" d="M300,252H135c-1.1,0-2-0.9-2-2l0,0c0-1.1,0.9-2,2-2h165c1.1,0,2,0.9,2,2l0,0C302,251.1,301.1,252,300,252z" />
            <path class="st2" d="M241,229H135c-1.1,0-2-0.9-2-2l0,0c0-1.1,0.9-2,2-2h106c1.1,0,2,0.9,2,2l0,0C243,228.1,242.1,229,241,229z" />
            <g>
                <path class="st2" d="M120,152H93c-1.1,0-2-0.9-2-2l0,0c0-1.1,0.9-2,2-2h27c1.1,0,2,0.9,2,2l0,0C122,151.1,121.1,152,120,152z" />
                <path class="st3" d="M146,152h-10c-1.1,0-2-0.9-2-2l0,0c0-1.1,0.9-2,2-2h10c1.1,0,2,0.9,2,2l0,0C148,151.1,147.1,152,146,152z" />
                <path class="st3" d="M165,152h-10c-1.1,0-2-0.9-2-2l0,0c0-1.1,0.9-2,2-2h10c1.1,0,2,0.9,2,2l0,0C167,151.1,166.1,152,165,152z" />
                <path class="st3" d="M184,152h-10c-1.1,0-2-0.9-2-2l0,0c0-1.1,0.9-2,2-2h10c1.1,0,2,0.9,2,2l0,0C186,151.1,185.1,152,184,152z" />
                <path class="st3" d="M401,152h-10c-1.1,0-2-0.9-2-2l0,0c0-1.1,0.9-2,2-2h10c1.1,0,2,0.9,2,2l0,0C403,151.1,402.1,152,401,152z" />
                <path class="st3" d="M420,152h-10c-1.1,0-2-0.9-2-2l0,0c0-1.1,0.9-2,2-2h10c1.1,0,2,0.9,2,2l0,0C422,151.1,421.1,152,420,152z" />
                <path class="st3" d="M439,152h-10c-1.1,0-2-0.9-2-2l0,0c0-1.1,0.9-2,2-2h10c1.1,0,2,0.9,2,2l0,0C441,151.1,440.1,152,439,152z" />
                <path class="st3" d="M458,152h-10c-1.1,0-2-0.9-2-2l0,0c0-1.1,0.9-2,2-2h10c1.1,0,2,0.9,2,2l0,0C460,151.1,459.1,152,458,152z" />
                <path class="st3" d="M477,152h-10c-1.1,0-2-0.9-2-2l0,0c0-1.1,0.9-2,2-2h10c1.1,0,2,0.9,2,2l0,0C479,151.1,478.1,152,477,152z" />
            </g>
        </g>
        <path class="st4" d="M60.58,207.58H45.42v-15.16c0-0.78-0.64-1.42-1.42-1.42s-1.42,0.64-1.42,1.42v15.16H27.42
		c-0.78,0-1.42,0.64-1.42,1.42c0,0.78,0.64,1.42,1.42,1.42h15.16v15.16c0,0.78,0.64,1.42,1.42,1.42s1.42-0.64,1.42-1.42v-15.16
		h15.16c0.78,0,1.42-0.64,1.42-1.42C62,208.22,61.36,207.58,60.58,207.58z" />
    </g>
</svg>
