<?xml version="1.0" encoding="utf-8"?>
<!-- Generator: Adobe Illustrator 23.0.6, SVG Export Plug-In . SVG Version: 6.00 Build 0)  -->
<svg version="1.1" id="Layer_2" xmlns="http://www.w3.org/2000/svg" xmlns:xlink="http://www.w3.org/1999/xlink" x="0px" y="0px" viewBox="0 0 572 572" style="enable-background:new 0 0 572 572;" xml:space="preserve">
    <style type="text/css">
        .st0 {
            fill: url(#SVGID_1_);
        }

        .st1 {
            fill: #5CA4EF;
            stroke: #5CA4EF;
            stroke-width: 3;
        }

        .st2 {
            fill: #FFFFFF;
            stroke: #DEEDFC;
            stroke-width: 3;
            stroke-linecap: round;
            stroke-miterlimit: 10;
        }

        .st3 {
            fill: #DFE8F7;
        }

        .st4 {
            fill: #5CA4EF;
        }

        .st5 {
            fill: #ECF5FE;
            stroke: #FFFFFF;
            stroke-width: 3;
            stroke-miterlimit: 10;
        }

        .st6 {
            fill: #FFFFFF;
        }
        
        .st7 {
        filter: url(#shadow);
      }

    </style>
    <defs>
        <filter id="shadow" filterUnits="userSpaceOnUse">
            <feOffset result="offset" dy="10" in="SourceAlpha" />
            <feGaussianBlur result="blur" stdDeviation="6.557" />
            <feFlood result="flood" flood-color="#5ca4ef" flood-opacity="0.15" />
            <feComposite result="composite" operator="in" in2="blur" />
            <feBlend result="blend" in="SourceGraphic" />
        </filter>
    </defs>
    <linearGradient id="SVGID_1_" gradientUnits="userSpaceOnUse" x1="31.9367" y1="148.3312" x2="406.8429" y2="290.6593" gradientTransform="matrix(0.9047 0.426 -0.426 0.9047 112.3704 -69.4682)">
        <stop offset="1.890121e-03" style="stop-color:#F8FBFF" />
        <stop offset="1" style="stop-color:#CEE6FF" />
    </linearGradient>
    <circle class="st0" cx="211.5" cy="216.5" r="200.5" />
    <circle class="st1" cx="104.5" cy="209.5" r="43.5" />
    <g id="_x33_">
        <path class="st2" d="M553,527H137c-5.5,0-10-4.5-10-10V367c0-5.5,4.5-10,10-10h416c5.5,0,10,4.5,10,10v150
		C563,522.5,558.5,527,553,527z" />
        <path class="st3" d="M463,445H193c-1.1,0-2-0.9-2-2l0,0c0-1.1,0.9-2,2-2h270c1.1,0,2,0.9,2,2l0,0C465,444.1,464.1,445,463,445z" />
        <path class="st3" d="M358,490H193c-1.1,0-2-0.9-2-2l0,0c0-1.1,0.9-2,2-2h165c1.1,0,2,0.9,2,2l0,0C360,489.1,359.1,490,358,490z" />
        <path class="st3" d="M299,467H193c-1.1,0-2-0.9-2-2l0,0c0-1.1,0.9-2,2-2h106c1.1,0,2,0.9,2,2l0,0C301,466.1,300.1,467,299,467z" />
    </g>
    <g id="_x32_"  class="st7">
        <path class="st2" d="M553,410H137c-5.5,0-10-4.5-10-10V250c0-5.5,4.5-10,10-10h416c5.5,0,10,4.5,10,10v150
		C563,405.5,558.5,410,553,410z" />
        <path class="st3" d="M463,328H193c-1.1,0-2-0.9-2-2l0,0c0-1.1,0.9-2,2-2h270c1.1,0,2,0.9,2,2l0,0C465,327.1,464.1,328,463,328z" />
        <path class="st3" d="M358,373H193c-1.1,0-2-0.9-2-2l0,0c0-1.1,0.9-2,2-2h165c1.1,0,2,0.9,2,2l0,0C360,372.1,359.1,373,358,373z" />
        <path class="st3" d="M299,350H193c-1.1,0-2-0.9-2-2l0,0c0-1.1,0.9-2,2-2h106c1.1,0,2,0.9,2,2l0,0C301,349.1,300.1,350,299,350z" />
    </g>
    <g id="_x32__1_"  class="st7">
        <path class="st2" d="M553,293H137c-5.5,0-10-4.5-10-10V133c0-5.5,4.5-10,10-10h416c5.5,0,10,4.5,10,10v150
		C563,288.5,558.5,293,553,293z" />
        <path class="st3" d="M463,207H193c-1.1,0-2-0.9-2-2l0,0c0-1.1,0.9-2,2-2h270c1.1,0,2,0.9,2,2l0,0C465,206.1,464.1,207,463,207z" />
        <path class="st3" d="M358,252H193c-1.1,0-2-0.9-2-2l0,0c0-1.1,0.9-2,2-2h165c1.1,0,2,0.9,2,2l0,0C360,251.1,359.1,252,358,252z" />
        <path class="st3" d="M299,229H193c-1.1,0-2-0.9-2-2l0,0c0-1.1,0.9-2,2-2h106c1.1,0,2,0.9,2,2l0,0C301,228.1,300.1,229,299,229z" />
        <g>
            <path class="st3" d="M178,152h-27c-1.1,0-2-0.9-2-2l0,0c0-1.1,0.9-2,2-2h27c1.1,0,2,0.9,2,2l0,0C180,151.1,179.1,152,178,152z" />
            <path class="st4" d="M204,152h-10c-1.1,0-2-0.9-2-2l0,0c0-1.1,0.9-2,2-2h10c1.1,0,2,0.9,2,2l0,0C206,151.1,205.1,152,204,152z" />
            <path class="st4" d="M223,152h-10c-1.1,0-2-0.9-2-2l0,0c0-1.1,0.9-2,2-2h10c1.1,0,2,0.9,2,2l0,0C225,151.1,224.1,152,223,152z" />
            <path class="st4" d="M242,152h-10c-1.1,0-2-0.9-2-2l0,0c0-1.1,0.9-2,2-2h10c1.1,0,2,0.9,2,2l0,0C244,151.1,243.1,152,242,152z" />
            <path class="st4" d="M459,152h-10c-1.1,0-2-0.9-2-2l0,0c0-1.1,0.9-2,2-2h10c1.1,0,2,0.9,2,2l0,0C461,151.1,460.1,152,459,152z" />
            <path class="st4" d="M478,152h-10c-1.1,0-2-0.9-2-2l0,0c0-1.1,0.9-2,2-2h10c1.1,0,2,0.9,2,2l0,0C480,151.1,479.1,152,478,152z" />
            <path class="st4" d="M497,152h-10c-1.1,0-2-0.9-2-2l0,0c0-1.1,0.9-2,2-2h10c1.1,0,2,0.9,2,2l0,0C499,151.1,498.1,152,497,152z" />
            <path class="st4" d="M516,152h-10c-1.1,0-2-0.9-2-2l0,0c0-1.1,0.9-2,2-2h10c1.1,0,2,0.9,2,2l0,0C518,151.1,517.1,152,516,152z" />
            <path class="st4" d="M535,152h-10c-1.1,0-2-0.9-2-2l0,0c0-1.1,0.9-2,2-2h10c1.1,0,2,0.9,2,2l0,0C537,151.1,536.1,152,535,152z" />
        </g>
    </g>
    <path class="st5" d="M52.8,376h21.4v0c7.7-0.3,13.8-6.5,13.8-14.2c0-5.9-2.4-10.8-7.5-13c-0.1-5.4-5.8-9.9-11.3-9.9
	c-2.1,0-4,0.6-5.6,1.7c-3.2-6.8-10.2-11.6-18.3-11.6c-11.1,0-20.1,8.9-20.1,19.8c0,0.2,0,0.3,0,0.5c-7.6,2-11.2,8.3-9.9,15.7
	c1.2,6.5,7.3,11,14.1,11H52.8" />
    <path class="st5" d="M348.5,103h27c7.8,0,14.8-5.2,16.2-12.7c1.6-8.4-2.6-15.7-11.3-18c0-0.2,0-0.4,0-0.6
	c0-12.6-10.4-22.7-23.2-22.7c-9.4,0-17.4,5.5-21.1,13.3c-1.8-1.2-4.1-1.9-6.5-1.9c-6.3,0-13,5.1-13,11.4c-6,2.5-8.7,8.2-8.7,14.9
	c0,8.8,7.1,15.9,15.9,16.3v0H348.5" />
    <path class="st6" d="M118.6,207.6h-15.2v-15.2c0-0.8-0.6-1.4-1.4-1.4s-1.4,0.6-1.4,1.4v15.2H85.4c-0.8,0-1.4,0.6-1.4,1.4
	c0,0.8,0.6,1.4,1.4,1.4h15.2v15.2c0,0.8,0.6,1.4,1.4,1.4s1.4-0.6,1.4-1.4v-15.2h15.2c0.8,0,1.4-0.6,1.4-1.4
	C120,208.2,119.4,207.6,118.6,207.6z" />
</svg>
