<svg xmlns="http://www.w3.org/2000/svg">

    <symbol id="unknown" viewBox="0 0 18 24">
       <path d="M18,5V22a2,2,0,0,1-2,2H2a2,2,0,0,1-2-2V2A2,2,0,0,1,2,0H13V3a2.006,2.006,0,0,0,2,2Z"/>
     </symbol>

   <symbol id="txt" viewBox="0 0 18 24">
       <path d="M18,5V22a2,2,0,0,1-2,2H2a2,2,0,0,1-2-2V2A2,2,0,0,1,2,0H13V3a2.006,2.006,0,0,0,2,2Z"/>
       <path d="M4,16H14v1H4Zm6-6H4v1h6ZM4,15H14V14H4Zm0-3v1H14V12Z" fill="currentColor"/>
    </symbol>

    <symbol id="code" viewBox="0 0 18 24">
           <path d="M18,5V22a2,2,0,0,1-2,2H2a2,2,0,0,1-2-2V2A2,2,0,0,1,2,0H13V3a2.006,2.006,0,0,0,2,2Z"/>
           <path d="M8,9.738,5.4,12.5,8,15.262l-.7.738L4.358,12.869,4,12.5l.358-.369L7.305,9Zm5.642,2.393L10.7,9l-.7.738L12.6,12.5,10,15.262l.7.738,2.947-3.131L14,12.5Z" fill="currentColor"/>
    </symbol>

    <symbol id="img" viewBox="0 0 18 24">
        <path d="M18,5V22a2,2,0,0,1-2,2H2a2,2,0,0,1-2-2V2A2,2,0,0,1,2,0H13V3a2.006,2.006,0,0,0,2,2Z"/>
        <circle cx="6" cy="9" r="2" fill="#ffa000"/>
        <polygon points="13 10 8 15 6 13 2 17 16 17 13 10" fill="currentColor"/>
    </symbol>

    <symbol id="video" viewBox="0 0 18 24">
        <path d="M18,5V22a2,2,0,0,1-2,2H2a2,2,0,0,1-2-2V2A2,2,0,0,1,2,0H13V3a2.006,2.006,0,0,0,2,2Z"/>
        <path d="M11.57,11.723l-4.241-2.6A.88.88,0,0,0,6,9.9v5.189a.879.879,0,0,0,1.329.777l4.241-2.594A.917.917,0,0,0,11.57,11.723Z" fill="currentColor"/>
    </symbol>

    <symbol id="zip" viewBox="0 0 18 24">
        <path d="M18,5V22a2,2,0,0,1-2,2H2a2,2,0,0,1-2-2V2A2,2,0,0,1,2,0H13V3a2.006,2.006,0,0,0,2,2Z"/>
        <path d="M5,5V6H3V5ZM3,8H5V7H3Zm0,6H5V13H3Zm4-3V10H5v1ZM7,4H5V5H7ZM7,7V6H5V7ZM7,9V8H5V9ZM3,10H5V9H3Zm0,2H5V11H3Zm4,1V12H5v1Zm0,2V14H5v1ZM3,20a1,1,0,0,0,1,1H6a1,1,0,0,0,1-1V16H3ZM3,3V4H5V3Z" fill="currentColor"/>
    </symbol>

    <symbol id="music" viewBox="0 0 18 24">
        <path d="M18,5V22a2,2,0,0,1-2,2H2a2,2,0,0,1-2-2V2A2,2,0,0,1,2,0H13V3a2.006,2.006,0,0,0,2,2Z"/>
        <path d="M13,8v7.658c0,.748-.964,1.266-2,1.338a1.753,1.753,0,0,1-2-1.5c0-.828.895-1.434,2-1.434.366,0,1,.326,1,.143V9.757L7,11.242v6.415c0,.748-.964,1.266-2,1.338a1.753,1.753,0,0,1-2-1.5c0-.828.9-1.434,2-1.434.366,0,1,.326,1,.143V10.025Z" fill="currentColor" />
    </symbol>

    <symbol id="pdf" viewBox="0 0 18 24">
        <path d="M18,5V22a2,2,0,0,1-2,2H2a2,2,0,0,1-2-2V2A2,2,0,0,1,2,0H13V3a2.006,2.006,0,0,0,2,2Z"/>
        <path d="M7,12a2,2,0,0,0-2,2v4H6V15.723A2,2,0,1,0,7,12Zm0,3a1,1,0,1,1,1-1A1,1,0,0,1,7,15Zm5-2.723A1.994,1.994,0,1,0,13,14V10H12ZM11,15a1,1,0,1,1,1-1A1,1,0,0,1,11,15Zm4-3v1h1v1H15v2H14V12a2.006,2.006,0,0,1,2-2v1A1,1,0,0,0,15,12ZM4,15a1,1,0,1,1-1-1A1,1,0,0,1,4,15Z" fill="currentColor"/>
    </symbol>

</svg>
