<svg xmlns="http://www.w3.org/2000/svg" viewBox="0 0 572 572"><style>.st1{fill:#5ca4ef}.st2{fill:#dfe8f7}.st6{fill:#ecf5fe}</style><g id="Layer_2"><path d="M439 524.5H23c-5.5 0-10-4.5-10-10v-381c0-5.5 4.5-10 10-10h416c5.5 0 10 4.5 10 10v381c0 5.5-4.5 10-10 10z" fill="none" stroke="#deedfc" stroke-width="3" stroke-linecap="round" stroke-miterlimit="10"/><path class="st1" d="M345 172H117c-1.1 0-2-.9-2-2s.9-2 2-2h228c1.1 0 2 .9 2 2s-.9 2-2 2zM390.5 276h-251c-1.1 0-2-.9-2-2s.9-2 2-2h251c1.1 0 2 .9 2 2s-.9 2-2 2z"/><path class="st2" d="M390.5 202h-309c-1.1 0-2-.9-2-2s.9-2 2-2h309c1.1 0 2 .9 2 2s-.9 2-2 2zM390.5 303h-309c-1.1 0-2-.9-2-2s.9-2 2-2h309c1.1 0 2 .9 2 2s-.9 2-2 2zM390.5 329h-309c-1.1 0-2-.9-2-2s.9-2 2-2h309c1.1 0 2 .9 2 2s-.9 2-2 2zM390.5 376h-309c-1.1 0-2-.9-2-2s.9-2 2-2h309c1.1 0 2 .9 2 2s-.9 2-2 2zM240.5 353h-159c-1.1 0-2-.9-2-2s.9-2 2-2h159c1.1 0 2 .9 2 2s-.9 2-2 2zM224 425H114c-1.1 0-2-.9-2-2s.9-2 2-2h110c1.1 0 2 .9 2 2s-.9 2-2 2zM224 448H114c-1.1 0-2-.9-2-2s.9-2 2-2h110c1.1 0 2 .9 2 2s-.9 2-2 2zM278.5 471h-165c-1.1 0-2-.9-2-2s.9-2 2-2h165c1.1 0 2 .9 2 2s-.9 2-2 2zM276.5 225h-195c-1.1 0-2-.9-2-2s.9-2 2-2h195c1.1 0 2 .9 2 2s-.9 2-2 2z"/></g><g id="Layer_4"><path class="st1" d="M94.5 420.4l-.9-1.8-5.6 2.8V415h-2v6.3l-5.3-3.2-1 1.8 5.2 3-5.4 2.7.9 1.8 5.6-2.8v6.4h2v-6.3l5.3 3.2 1-1.8-5.2-3zM94.5 443.4l-.9-1.8-5.6 2.8V438h-2v6.3l-5.3-3.2-1 1.8 5.2 3-5.4 2.7.9 1.8 5.6-2.8v6.4h2v-6.3l5.3 3.2 1-1.8-5.2-3zM94.5 466.4l-.9-1.8-5.6 2.8V461h-2v6.3l-5.3-3.2-1 1.8 5.2 3-5.4 2.7.9 1.8 5.6-2.8v6.4h2v-6.3l5.3 3.2 1-1.8-5.2-3z"/><path class="st6" d="M502.5 140.4l-.9-1.8-5.6 2.8V135h-2v6.3l-5.3-3.2-1 1.8 5.2 3-5.4 2.7.9 1.8 5.6-2.8v6.4h2v-6.3l5.3 3.2 1-1.8-5.2-3zM400.5 76.4l-.9-1.8-5.6 2.8V71h-2v6.3l-5.3-3.2-1 1.8 5.2 3-5.4 2.7.9 1.8 5.6-2.8V87h2v-6.3l5.3 3.2 1-1.8-5.2-3zM435.5 30l-.6-1.3-4.2 2.1V26h-1.4v4.7l-3.9-2.3-.8 1.2 3.9 2.3-4 2.1.6 1.3 4.2-2.1V38h1.4v-4.7l3.9 2.3.8-1.2-3.9-2.3z"/><path class="st1" d="M96.5 166.5v-2h-4v-4h-2v4h-5v-4h-2v4h-4v2h4v5h-4v2h4v4h2v-4h5v4h2v-4h4v-2h-4v-5h4zm-6 5h-5v-5h5v5zM96.5 271.5v-2h-4v-4h-2v4h-5v-4h-2v4h-4v2h4v5h-4v2h4v4h2v-4h5v4h2v-4h4v-2h-4v-5h4zm-6 5h-5v-5h5v5zM116.5 271.5v-2h-4v-4h-2v4h-5v-4h-2v4h-4v2h4v5h-4v2h4v4h2v-4h5v4h2v-4h4v-2h-4v-5h4zm-6 5h-5v-5h5v5z"/></g><g id="Layer_3"><ellipse transform="rotate(-39.502 507.783 61.28)" class="st6" cx="507.8" cy="61.3" rx="36.1" ry="36.3"/><path class="st6" d="M464.5 96.2c-5.2 0-8.6-1.4-10.2-4.1-.9-1.7-1.1-3.7-.4-6.1 2.8-10.3 21-26.4 45.1-40 20.4-11.5 40.5-18.7 52.4-18.7 5.2 0 8.6 1.4 10.2 4.1.9 1.7 1.1 3.7.4 6.1-2.8 10.3-21 26.4-45.1 40-20.3 11.5-40.4 18.7-52.4 18.7zm-.2-14.8c-.3.6-.6 1.2-.7 1.7-.2.8-.2 1.5 0 1.9.5.9 2 1.3 4.4 1.3 1.8 0 3.9-.3 6.3-.8-.7 0-1.5.1-2.4.1-4.6 0-6.9-.7-7.6-2.4-.2-.5-.2-1.1 0-1.8zm8.3-3.7c.2 1.4.9 2.7 2 3.5l4.1 3.3c9.3-2.7 21.6-8 33.8-14.9 13.4-7.6 23.6-15.1 30.2-21.2l-.7-5.2c-.2-1.4-.9-2.7-2-3.5l-4.1-3.3c-9.3 2.7-21.6 8-33.8 14.9-13.4 7.6-23.6 15.1-30.2 21.2l.7 5.2zm74.9-43.3c.6.2 1.1.6 1.5 1 1.5 2-.6 6.2-3.1 9.7 2.8-3 4.5-5.6 5-7.5.2-.8.2-1.5 0-1.9-.4-.7-1.6-1.2-3.4-1.3z"/><path d="M551.5 28.8c4.5 0 7.6 1.1 8.9 3.4 4.5 8-15.2 27.7-44.1 44.1-20.7 11.7-40.4 18.5-51.7 18.5-4.5 0-7.6-1.1-8.9-3.4-4.5-8 15.2-27.7 44.1-44.1 20.7-11.7 40.4-18.5 51.7-18.5M468 87.9c8.9 0 26.5-6.4 45.2-17 24.8-14 42.3-30.1 39-35.9-.8-1.4-2.8-2.1-5.7-2.1-8.9 0-26.5 6.4-45.2 17-24.8 14-42.3 30.1-39 35.9.8 1.4 2.8 2.1 5.7 2.1m77.4-52.3c1.1 0 2 .2 2.4.7 1.4 1.9-4 9.2-4 9.2s-.3-2-.4-2.6c-.2-1.8-1.2-3.4-2.6-4.5-.5-.4-2.1-1.6-2.1-1.6s4-1.2 6.7-1.2m-74.7 39.7s.3 2 .4 2.6c.2 1.8 1.2 3.4 2.6 4.5.5.4 2.1 1.6 2.1 1.6s-1.7.2-3.8.2c-2.6 0-5.7-.3-6.2-1.5-.9-2.1 4.9-7.4 4.9-7.4m80.8-49.5c-12.2 0-32.6 7.2-53.2 18.9-24.5 13.8-42.9 30.3-45.9 41-.8 2.8-.6 5.2.6 7.2 1.8 3.2 5.7 4.9 11.5 4.9 12.2 0 32.6-7.2 53.2-18.9 24.5-13.8 42.9-30.3 45.9-41 .8-2.8.6-5.2-.6-7.2-1.9-3.3-5.7-4.9-11.5-4.9zM473.4 73c.1-.1.2-.2.4-.3 7.2-6.5 17.4-13.7 28.9-20.2 11.8-6.7 23.6-11.9 32.7-14.6l1.5 1.2 2.1 1.6c.8.6 1.3 1.6 1.5 2.6l.4 2.6.3 1.9c-.1.1-.2.2-.4.3-7.2 6.5-17.4 13.7-28.9 20.2-11.9 6.7-23.7 11.9-32.8 14.6l-1.5-1.2-2.1-1.6c-.8-.6-1.3-1.6-1.5-2.6l-.4-2.6-.2-1.9z" fill="#fff"/><path d="M475.7 80c-10.2-17.9-4-40.6 13.9-50.7 17.8-10.1 40.5-3.7 50.7 14.2" fill="#ecf5fe" stroke="#fff" stroke-width="2" stroke-miterlimit="10"/></g></svg>