<?xml version="1.0" encoding="utf-8"?>
<!-- Generator: Adobe Illustrator 23.0.6, SVG Export Plug-In . SVG Version: 6.00 Build 0)  -->
<svg version="1.1" xmlns="http://www.w3.org/2000/svg" xmlns:xlink="http://www.w3.org/1999/xlink" x="0px" y="0px"
	 viewBox="0 0 572 572" style="enable-background:new 0 0 572 572;" xml:space="preserve">
<style type="text/css">
	.st0{fill:none;stroke:#DEEDFC;stroke-width:3;stroke-linecap:round;stroke-miterlimit:10;}
	.st1{fill:#5CA4EF;}
	.st2{fill:#DFE8F7;}
	.st3{display:none;}
	.st4{display:inline;fill:#5CA4EF;}
	.st5{display:inline;}
	.st6{fill:#ECF5FE;}
	.st7{fill:#FFFFFF;}
	.st8{fill:#ECF5FE;stroke:#FFFFFF;stroke-width:2;stroke-miterlimit:10;}
</style>
<g id="Layer_2">
	<path class="st0" d="M439.5,524.5h-416c-5.5,0-10-4.5-10-10v-381c0-5.5,4.5-10,10-10h416c5.5,0,10,4.5,10,10v381
		C449.5,520,445,524.5,439.5,524.5z"/>
	<path class="st1" d="M345,172H117c-1.1,0-2-0.9-2-2l0,0c0-1.1,0.9-2,2-2h228c1.1,0,2,0.9,2,2l0,0C347,171.1,346.1,172,345,172z"/>
	<path class="st1" d="M391,276H140c-1.1,0-2-0.9-2-2l0,0c0-1.1,0.9-2,2-2h251c1.1,0,2,0.9,2,2l0,0C393,275.1,392.1,276,391,276z"/>
	<path class="st2" d="M391,202H82c-1.1,0-2-0.9-2-2l0,0c0-1.1,0.9-2,2-2h309c1.1,0,2,0.9,2,2l0,0C393,201.1,392.1,202,391,202z"/>
	<path class="st2" d="M391,303H82c-1.1,0-2-0.9-2-2l0,0c0-1.1,0.9-2,2-2h309c1.1,0,2,0.9,2,2l0,0C393,302.1,392.1,303,391,303z"/>
	<path class="st2" d="M391,329H82c-1.1,0-2-0.9-2-2l0,0c0-1.1,0.9-2,2-2h309c1.1,0,2,0.9,2,2l0,0C393,328.1,392.1,329,391,329z"/>
	<path class="st2" d="M391,376H82c-1.1,0-2-0.9-2-2l0,0c0-1.1,0.9-2,2-2h309c1.1,0,2,0.9,2,2l0,0C393,375.1,392.1,376,391,376z"/>
	<path class="st2" d="M241,353H82c-1.1,0-2-0.9-2-2l0,0c0-1.1,0.9-2,2-2h159c1.1,0,2,0.9,2,2l0,0C243,352.1,242.1,353,241,353z"/>
	<path class="st2" d="M224,425H114c-1.1,0-2-0.9-2-2l0,0c0-1.1,0.9-2,2-2h110c1.1,0,2,0.9,2,2l0,0C226,424.1,225.1,425,224,425z"/>
	<path class="st2" d="M224,448H114c-1.1,0-2-0.9-2-2l0,0c0-1.1,0.9-2,2-2h110c1.1,0,2,0.9,2,2l0,0C226,447.1,225.1,448,224,448z"/>
	<path class="st2" d="M279,471H114c-1.1,0-2-0.9-2-2l0,0c0-1.1,0.9-2,2-2h165c1.1,0,2,0.9,2,2l0,0C281,470.1,280.1,471,279,471z"/>
	<path class="st2" d="M277,225H82c-1.1,0-2-0.9-2-2l0,0c0-1.1,0.9-2,2-2h195c1.1,0,2,0.9,2,2l0,0C279,224.1,278.1,225,277,225z"/>
	<g class="st3">
		<path class="st4" d="M286.1,203H58.5c-4.4,0-8,3.6-8,8v31.6c0,5.2,4.2,9.4,9.4,9.4h155.6h0l15,18l1.2-18h54.4
			c5.2,0,9.4-4.2,9.4-9.4v-30.2C295.5,207.2,291.3,203,286.1,203z"/>
		<g class="st5">
			<path class="st2" d="M90.6,226h-10c-1.1,0-2,0.9-2,2v0c0,1.1,0.9,2,2,2h10c1.1,0,2-0.9,2-2v0C92.6,226.9,91.7,226,90.6,226z"/>
			<path class="st2" d="M109.6,226h-10c-1.1,0-2,0.9-2,2v0c0,1.1,0.9,2,2,2h10c1.1,0,2-0.9,2-2v0C111.6,226.9,110.7,226,109.6,226z"
				/>
			<path class="st2" d="M128.6,226h-10c-1.1,0-2,0.9-2,2v0c0,1.1,0.9,2,2,2h10c1.1,0,2-0.9,2-2v0C130.6,226.9,129.7,226,128.6,226z"
				/>
			<path class="st2" d="M147.6,226h-10c-1.1,0-2,0.9-2,2v0c0,1.1,0.9,2,2,2h10c1.1,0,2-0.9,2-2v0C149.6,226.9,148.7,226,147.6,226z"
				/>
			<path class="st2" d="M206.6,226h-50c-1.1,0-2,0.9-2,2v0c0,1.1,0.9,2,2,2h50c1.1,0,2-0.9,2-2v0C208.6,226.9,207.7,226,206.6,226z"
				/>
			<path class="st2" d="M265.4,226h-50c-1.1,0-2,0.9-2,2v0c0,1.1,0.9,2,2,2h50c1.1,0,2-0.9,2-2v0C267.4,226.9,266.5,226,265.4,226z"
				/>
		</g>
	</g>
</g>
<g id="Layer_4">
	<polygon class="st1" points="95,420.4 94.1,418.6 88.5,421.4 88.5,415 86.5,415 86.5,421.3 81.2,418.1 80.2,419.9 85.4,422.9 
		80,425.6 80.9,427.4 86.5,424.6 86.5,431 88.5,431 88.5,424.7 93.8,427.9 94.8,426.1 89.6,423.1 	"/>
	<polygon class="st1" points="95,443.4 94.1,441.6 88.5,444.4 88.5,438 86.5,438 86.5,444.3 81.2,441.1 80.2,442.9 85.4,445.9 
		80,448.6 80.9,450.4 86.5,447.6 86.5,454 88.5,454 88.5,447.7 93.8,450.9 94.8,449.1 89.6,446.1 	"/>
	<polygon class="st1" points="95,466.4 94.1,464.6 88.5,467.4 88.5,461 86.5,461 86.5,467.3 81.2,464.1 80.2,465.9 85.4,468.9 
		80,471.6 80.9,473.4 86.5,470.6 86.5,477 88.5,477 88.5,470.7 93.8,473.9 94.8,472.1 89.6,469.1 	"/>
	<polygon class="st6" points="503,140.4 502.1,138.6 496.5,141.4 496.5,135 494.5,135 494.5,141.3 489.2,138.1 488.2,139.9 
		493.4,142.9 488,145.6 488.9,147.4 494.5,144.6 494.5,151 496.5,151 496.5,144.7 501.8,147.9 502.8,146.1 497.6,143.1 	"/>
	<polygon class="st6" points="401,76.4 400.1,74.6 394.5,77.4 394.5,71 392.5,71 392.5,77.3 387.2,74.1 386.2,75.9 391.4,78.9 
		386,81.6 386.9,83.4 392.5,80.6 392.5,87 394.5,87 394.5,80.7 399.8,83.9 400.8,82.1 395.6,79.1 	"/>
	<polygon class="st6" points="436,30 435.4,28.7 431.2,30.8 431.2,26 429.8,26 429.8,30.7 425.9,28.4 425.1,29.6 429,31.9 425,34 
		425.6,35.3 429.8,33.2 429.8,38 431.2,38 431.2,33.3 435.1,35.6 435.9,34.4 432,32.1 	"/>
	<path class="st1" d="M97,167v-2h-4v-4h-2v4h-5v-4h-2v4h-4v2h4v5h-4v2h4v4h2v-4h5v4h2v-4h4v-2h-4v-5H97z M91,172h-5v-5h5V172z"/>
	<path class="st1" d="M97,272v-2h-4v-4h-2v4h-5v-4h-2v4h-4v2h4v5h-4v2h4v4h2v-4h5v4h2v-4h4v-2h-4v-5H97z M91,277h-5v-5h5V277z"/>
	<path class="st1" d="M117,272v-2h-4v-4h-2v4h-5v-4h-2v4h-4v2h4v5h-4v2h4v4h2v-4h5v4h2v-4h4v-2h-4v-5H117z M111,277h-5v-5h5V277z"/>
</g>
<g id="Layer_3">
	<g>
		
			<ellipse transform="matrix(0.8699 -0.4932 0.4932 0.8699 35.9849 258.6284)" class="st6" cx="508.3" cy="61.1" rx="36" ry="36.2"/>
	</g>
	<g>
		<path class="st6" d="M465.2,96c-5.2,0-8.6-1.4-10.2-4.1c-2.6-4.6,0.8-11.7,9.7-20.7c8.4-8.4,20.8-17.4,34.8-25.4
			c20.3-11.5,40.4-18.7,52.3-18.7c5.2,0,8.6,1.4,10.2,4.1c2.6,4.6-0.8,11.7-9.7,20.7c-8.4,8.4-20.8,17.4-34.8,25.4
			C497.1,88.8,477.1,96,465.2,96C465.2,96,465.2,96,465.2,96z M464.9,81.3c-0.9,1.7-1,3-0.6,3.6c0.5,0.9,2,1.3,4.4,1.3
			c1.8,0,3.9-0.3,6.3-0.8c-0.7,0-1.5,0.1-2.4,0.1c0,0,0,0,0,0c-4.5,0-6.9-0.7-7.6-2.4C464.8,82.5,464.8,81.9,464.9,81.3z
			 M473.2,77.5c0.2,1.4,0.9,2.7,2,3.5l4.1,3.3c9.3-2.7,21.5-8,33.7-14.9c13.5-7.6,23.6-15.1,30.1-21.2l-0.7-5.2
			c-0.2-1.4-0.9-2.7-2-3.5l-4.1-3.3c-9.3,2.7-21.5,8-33.7,14.9c-11.9,6.7-22.4,14.1-29.7,20.8c-0.1,0.1-0.3,0.3-0.4,0.4L473.2,77.5z
			 M547.9,34.3c0.6,0.2,1.1,0.6,1.5,1c1.5,2-0.6,6.1-3,9.7c4.1-4.5,5.8-7.8,4.9-9.4C550.9,34.8,549.7,34.4,547.9,34.3z"/>
		<path class="st7" d="M551.9,28.6c4.5,0,7.6,1.1,8.9,3.3c4.5,8-15.2,27.7-44,44c-20.6,11.7-40.3,18.5-51.5,18.5
			c-4.5,0-7.6-1.1-8.9-3.3c-4.5-8,15.2-27.7,44-44C521,35.4,540.7,28.6,551.9,28.6 M468.7,87.7c8.9,0,26.4-6.4,45.1-17
			c24.7-14,42.1-30.1,38.8-35.9c-0.8-1.4-2.8-2.1-5.7-2.1c-8.9,0-26.4,6.4-45.1,17c-24.7,14-42.1,30.1-38.8,35.9
			C463.8,87,465.8,87.7,468.7,87.7 M545.8,35.5c1.1,0,2,0.2,2.4,0.7c1.4,1.9-4,9.2-4,9.2s-0.3-2-0.4-2.6c-0.2-1.8-1.2-3.4-2.6-4.5
			c-0.5-0.4-2.1-1.6-2.1-1.6S543.1,35.5,545.8,35.5 M471.4,75.1c0,0,0.3,2,0.4,2.6c0.2,1.8,1.2,3.4,2.6,4.5c0.5,0.4,2.1,1.6,2.1,1.6
			s-1.7,0.2-3.8,0.2c-2.6,0-5.7-0.3-6.2-1.5C465.5,80.4,471.4,75.1,471.4,75.1 M551.9,25.6c-12.2,0-32.5,7.2-53,18.9
			c-14.2,8-26.7,17.1-35.2,25.6c-9.6,9.6-13,17.2-10,22.5c1.8,3.2,5.7,4.9,11.5,4.9c12.2,0,32.5-7.2,53-18.9
			c14.2-8,26.7-17.1,35.2-25.6c9.6-9.6,13-17.2,10-22.5C561.5,27.2,557.6,25.6,551.9,25.6L551.9,25.6z M474.1,72.8
			c0.1-0.1,0.2-0.2,0.4-0.3c7.2-6.5,17.4-13.7,28.8-20.1c11.8-6.7,23.5-11.9,32.6-14.6l1.5,1.2l2.1,1.6c0.8,0.6,1.3,1.6,1.5,2.6
			l0.4,2.6l0.3,1.9c-0.1,0.1-0.2,0.2-0.4,0.3c-7.2,6.5-17.4,13.7-28.8,20.1c-11.8,6.7-23.5,11.9-32.6,14.6l-1.5-1.2l-2.1-1.6
			c-0.8-0.6-1.3-1.6-1.5-2.6l-0.4-2.6L474.1,72.8L474.1,72.8z"/>
	</g>
	<path class="st8" d="M476.3,79.8c-10.1-17.9-4-40.6,13.8-50.7s40.4-3.7,50.6,14.2"/>
</g>
</svg>
