<svg xmlns="http://www.w3.org/2000/svg" viewBox="0 0 572 572"><style>.st1{fill:#5ca4ef}.st2{fill:#dfe8f7}.st6{fill:#ecf5fe}</style><g id="Layer_2"><path d="M439.5 524.5h-416c-5.5 0-10-4.5-10-10v-381c0-5.5 4.5-10 10-10h416c5.5 0 10 4.5 10 10v381c0 5.5-4.5 10-10 10z" fill="none" stroke="#deedfc" stroke-width="3" stroke-linecap="round" stroke-miterlimit="10"/><path class="st1" d="M345 172H117c-1.1 0-2-.9-2-2s.9-2 2-2h228c1.1 0 2 .9 2 2s-.9 2-2 2zM391 276H140c-1.1 0-2-.9-2-2s.9-2 2-2h251c1.1 0 2 .9 2 2s-.9 2-2 2z"/><path class="st2" d="M391 202H82c-1.1 0-2-.9-2-2s.9-2 2-2h309c1.1 0 2 .9 2 2s-.9 2-2 2zM391 303H82c-1.1 0-2-.9-2-2s.9-2 2-2h309c1.1 0 2 .9 2 2s-.9 2-2 2zM391 329H82c-1.1 0-2-.9-2-2s.9-2 2-2h309c1.1 0 2 .9 2 2s-.9 2-2 2zM391 376H82c-1.1 0-2-.9-2-2s.9-2 2-2h309c1.1 0 2 .9 2 2s-.9 2-2 2zM241 353H82c-1.1 0-2-.9-2-2s.9-2 2-2h159c1.1 0 2 .9 2 2s-.9 2-2 2zM224 425H114c-1.1 0-2-.9-2-2s.9-2 2-2h110c1.1 0 2 .9 2 2s-.9 2-2 2zM224 448H114c-1.1 0-2-.9-2-2s.9-2 2-2h110c1.1 0 2 .9 2 2s-.9 2-2 2zM279 471H114c-1.1 0-2-.9-2-2s.9-2 2-2h165c1.1 0 2 .9 2 2s-.9 2-2 2zM277 225H82c-1.1 0-2-.9-2-2s.9-2 2-2h195c1.1 0 2 .9 2 2s-.9 2-2 2z"/></g><g id="Layer_4"><path class="st1" d="M95 420.4l-.9-1.8-5.6 2.8V415h-2v6.3l-5.3-3.2-1 1.8 5.2 3-5.4 2.7.9 1.8 5.6-2.8v6.4h2v-6.3l5.3 3.2 1-1.8-5.2-3zM95 443.4l-.9-1.8-5.6 2.8V438h-2v6.3l-5.3-3.2-1 1.8 5.2 3-5.4 2.7.9 1.8 5.6-2.8v6.4h2v-6.3l5.3 3.2 1-1.8-5.2-3zM95 466.4l-.9-1.8-5.6 2.8V461h-2v6.3l-5.3-3.2-1 1.8 5.2 3-5.4 2.7.9 1.8 5.6-2.8v6.4h2v-6.3l5.3 3.2 1-1.8-5.2-3z"/><path class="st6" d="M503 140.4l-.9-1.8-5.6 2.8V135h-2v6.3l-5.3-3.2-1 1.8 5.2 3-5.4 2.7.9 1.8 5.6-2.8v6.4h2v-6.3l5.3 3.2 1-1.8-5.2-3zM401 76.4l-.9-1.8-5.6 2.8V71h-2v6.3l-5.3-3.2-1 1.8 5.2 3-5.4 2.7.9 1.8 5.6-2.8V87h2v-6.3l5.3 3.2 1-1.8-5.2-3zM436 30l-.6-1.3-4.2 2.1V26h-1.4v4.7l-3.9-2.3-.8 1.2 3.9 2.3-4 2.1.6 1.3 4.2-2.1V38h1.4v-4.7l3.9 2.3.8-1.2-3.9-2.3z"/><path class="st1" d="M97 167v-2h-4v-4h-2v4h-5v-4h-2v4h-4v2h4v5h-4v2h4v4h2v-4h5v4h2v-4h4v-2h-4v-5h4zm-6 5h-5v-5h5v5zM97 272v-2h-4v-4h-2v4h-5v-4h-2v4h-4v2h4v5h-4v2h4v4h2v-4h5v4h2v-4h4v-2h-4v-5h4zm-6 5h-5v-5h5v5zM117 272v-2h-4v-4h-2v4h-5v-4h-2v4h-4v2h4v5h-4v2h4v4h2v-4h5v4h2v-4h4v-2h-4v-5h4zm-6 5h-5v-5h5v5z"/></g><g id="Layer_3"><ellipse transform="rotate(-29.553 508.268 61.113)" class="st6" cx="508.3" cy="61.1" rx="36" ry="36.2"/><path class="st6" d="M465.2 96c-5.2 0-8.6-1.4-10.2-4.1-2.6-4.6.8-11.7 9.7-20.7 8.4-8.4 20.8-17.4 34.8-25.4 20.3-11.5 40.4-18.7 52.3-18.7 5.2 0 8.6 1.4 10.2 4.1 2.6 4.6-.8 11.7-9.7 20.7-8.4 8.4-20.8 17.4-34.8 25.4C497.1 88.8 477.1 96 465.2 96zm-.3-14.7c-.9 1.7-1 3-.6 3.6.5.9 2 1.3 4.4 1.3 1.8 0 3.9-.3 6.3-.8-.7 0-1.5.1-2.4.1-4.5 0-6.9-.7-7.6-2.4-.2-.6-.2-1.2-.1-1.8zm8.3-3.8c.2 1.4.9 2.7 2 3.5l4.1 3.3c9.3-2.7 21.5-8 33.7-14.9 13.5-7.6 23.6-15.1 30.1-21.2l-.7-5.2c-.2-1.4-.9-2.7-2-3.5l-4.1-3.3c-9.3 2.7-21.5 8-33.7 14.9-11.9 6.7-22.4 14.1-29.7 20.8l-.4.4.7 5.2zm74.7-43.2c.6.2 1.1.6 1.5 1 1.5 2-.6 6.1-3 9.7 4.1-4.5 5.8-7.8 4.9-9.4-.4-.8-1.6-1.2-3.4-1.3z"/><path d="M551.9 28.6c4.5 0 7.6 1.1 8.9 3.3 4.5 8-15.2 27.7-44 44-20.6 11.7-40.3 18.5-51.5 18.5-4.5 0-7.6-1.1-8.9-3.3-4.5-8 15.2-27.7 44-44 20.6-11.7 40.3-18.5 51.5-18.5m-83.2 59.1c8.9 0 26.4-6.4 45.1-17 24.7-14 42.1-30.1 38.8-35.9-.8-1.4-2.8-2.1-5.7-2.1-8.9 0-26.4 6.4-45.1 17-24.7 14-42.1 30.1-38.8 35.9.8 1.4 2.8 2.1 5.7 2.1m77.1-52.2c1.1 0 2 .2 2.4.7 1.4 1.9-4 9.2-4 9.2s-.3-2-.4-2.6c-.2-1.8-1.2-3.4-2.6-4.5-.5-.4-2.1-1.6-2.1-1.6s4-1.2 6.7-1.2m-74.4 39.6s.3 2 .4 2.6c.2 1.8 1.2 3.4 2.6 4.5.5.4 2.1 1.6 2.1 1.6s-1.7.2-3.8.2c-2.6 0-5.7-.3-6.2-1.5-1-2.1 4.9-7.4 4.9-7.4m80.5-49.5c-12.2 0-32.5 7.2-53 18.9-14.2 8-26.7 17.1-35.2 25.6-9.6 9.6-13 17.2-10 22.5 1.8 3.2 5.7 4.9 11.5 4.9 12.2 0 32.5-7.2 53-18.9 14.2-8 26.7-17.1 35.2-25.6 9.6-9.6 13-17.2 10-22.5-1.9-3.3-5.8-4.9-11.5-4.9zm-77.8 47.2c.1-.1.2-.2.4-.3 7.2-6.5 17.4-13.7 28.8-20.1 11.8-6.7 23.5-11.9 32.6-14.6l1.5 1.2 2.1 1.6c.8.6 1.3 1.6 1.5 2.6l.4 2.6.3 1.9c-.1.1-.2.2-.4.3-7.2 6.5-17.4 13.7-28.8 20.1-11.8 6.7-23.5 11.9-32.6 14.6l-1.5-1.2-2.1-1.6c-.8-.6-1.3-1.6-1.5-2.6l-.4-2.6-.3-1.9z" fill="#fff"/><path d="M476.3 79.8c-10.1-17.9-4-40.6 13.8-50.7s40.4-3.7 50.6 14.2" fill="#ecf5fe" stroke="#fff" stroke-width="2" stroke-miterlimit="10"/></g></svg>