<?xml version="1.0" encoding="utf-8"?>
<!-- Publii Static CMS -->
<svg version="1.1" xmlns="http://www.w3.org/2000/svg" xmlns:xlink="http://www.w3.org/1999/xlink" x="0px" y="0px"
	 viewBox="0 0 572 572" style="enable-background:new 0 0 572 572;" xml:space="preserve">
<style type="text/css">
	.st0{fill:#FFFFFF;stroke:#DEEDFC;stroke-width:3;stroke-linecap:round;stroke-miterlimit:10;}
	.st1{fill:#5CA4EF;}
	.st2{fill:#DFE8F7;}
	.st3{display:none;}
	.st4{display:inline;fill:#5CA4EF;}
	.st5{display:inline;}
</style>
<g id="Layer_2">
	<path class="st0" d="M492,524H76c-5.52,0-10-4.48-10-10V133c0-5.52,4.48-10,10-10h416c5.52,0,10,4.48,10,10v381
		C502,519.52,497.52,524,492,524z"/>
	<path class="st1" d="M398,171H170c-1.1,0-2-0.9-2-2l0,0c0-1.1,0.9-2,2-2h228c1.1,0,2,0.9,2,2l0,0C400,170.1,399.1,171,398,171z"/>
	<path class="st1" d="M443,275H192c-1.1,0-2-0.9-2-2l0,0c0-1.1,0.9-2,2-2h251c1.1,0,2,0.9,2,2l0,0C445,274.1,444.1,275,443,275z"/>
	<path class="st2" d="M443,202H134c-1.1,0-2-0.9-2-2l0,0c0-1.1,0.9-2,2-2h309c1.1,0,2,0.9,2,2l0,0C445,201.1,444.1,202,443,202z"/>
	<path class="st2" d="M443,302H134c-1.1,0-2-0.9-2-2l0,0c0-1.1,0.9-2,2-2h309c1.1,0,2,0.9,2,2l0,0C445,301.1,444.1,302,443,302z"/>
	<path class="st2" d="M443,328H134c-1.1,0-2-0.9-2-2l0,0c0-1.1,0.9-2,2-2h309c1.1,0,2,0.9,2,2l0,0C445,327.1,444.1,328,443,328z"/>
	<path class="st2" d="M443,375H134c-1.1,0-2-0.9-2-2l0,0c0-1.1,0.9-2,2-2h309c1.1,0,2,0.9,2,2l0,0C445,374.1,444.1,375,443,375z"/>
	<path class="st2" d="M293,352H134c-1.1,0-2-0.9-2-2l0,0c0-1.1,0.9-2,2-2h159c1.1,0,2,0.9,2,2l0,0C295,351.1,294.1,352,293,352z"/>
	<path class="st2" d="M277,424H167c-1.1,0-2-0.9-2-2l0,0c0-1.1,0.9-2,2-2h110c1.1,0,2,0.9,2,2l0,0C279,423.1,278.1,424,277,424z"/>
	<path class="st2" d="M277,447H167c-1.1,0-2-0.9-2-2l0,0c0-1.1,0.9-2,2-2h110c1.1,0,2,0.9,2,2l0,0C279,446.1,278.1,447,277,447z"/>
	<path class="st2" d="M332,470H167c-1.1,0-2-0.9-2-2l0,0c0-1.1,0.9-2,2-2h165c1.1,0,2,0.9,2,2l0,0C334,469.1,333.1,470,332,470z"/>
	<path class="st2" d="M329,225H134c-1.1,0-2-0.9-2-2l0,0c0-1.1,0.9-2,2-2h195c1.1,0,2,0.9,2,2l0,0C331,224.1,330.1,225,329,225z"/>
	<g class="st3">
		<path class="st4" d="M286.12,203H58.5c-4.42,0-8,3.58-8,8v31.62c0,5.18,4.2,9.38,9.38,9.38h155.61h0.02l15,18l1.24-18h54.38
			c5.18,0,9.38-4.2,9.38-9.38v-30.25C295.5,207.2,291.3,203,286.12,203z"/>
		<g class="st5">
			<path class="st2" d="M90.61,226h-10c-1.1,0-2,0.9-2,2v0c0,1.1,0.9,2,2,2h10c1.1,0,2-0.9,2-2v0C92.61,226.9,91.71,226,90.61,226z"
				/>
			<path class="st2" d="M109.61,226h-10c-1.1,0-2,0.9-2,2v0c0,1.1,0.9,2,2,2h10c1.1,0,2-0.9,2-2v0
				C111.61,226.9,110.71,226,109.61,226z"/>
			<path class="st2" d="M128.61,226h-10c-1.1,0-2,0.9-2,2v0c0,1.1,0.9,2,2,2h10c1.1,0,2-0.9,2-2v0
				C130.61,226.9,129.71,226,128.61,226z"/>
			<path class="st2" d="M147.61,226h-10c-1.1,0-2,0.9-2,2v0c0,1.1,0.9,2,2,2h10c1.1,0,2-0.9,2-2v0
				C149.61,226.9,148.71,226,147.61,226z"/>
			<path class="st2" d="M206.57,226h-49.95c-1.1,0-2,0.9-2,2v0c0,1.1,0.9,2,2,2h49.95c1.1,0,2-0.9,2-2v0
				C208.57,226.9,207.67,226,206.57,226z"/>
			<path class="st2" d="M265.39,226h-49.95c-1.1,0-2,0.9-2,2v0c0,1.1,0.9,2,2,2h49.95c1.1,0,2-0.9,2-2v0
				C267.39,226.9,266.49,226,265.39,226z"/>
		</g>
	</g>
</g>
<g id="Layer_4">
	<polygon class="st1" points="147,419.37 146.13,417.57 140.48,420.39 140.48,414 138.52,414 138.52,420.27 133.17,417.13 
		132.19,418.87 137.41,421.93 132,424.63 132.87,426.43 138.52,423.61 138.52,430 140.48,430 140.48,423.73 145.83,426.87 
		146.81,425.13 141.59,422.07 	"/>
	<polygon class="st1" points="147,442.37 146.13,440.57 140.48,443.39 140.48,437 138.52,437 138.52,443.27 133.17,440.13 
		132.19,441.87 137.41,444.93 132,447.63 132.87,449.43 138.52,446.61 138.52,453 140.48,453 140.48,446.73 145.83,449.87 
		146.81,448.13 141.59,445.07 	"/>
	<polygon class="st1" points="147,465.37 146.13,463.57 140.48,466.39 140.48,460 138.52,460 138.52,466.27 133.17,463.13 
		132.19,464.87 137.41,467.93 132,470.63 132.87,472.43 138.52,469.61 138.52,476 140.48,476 140.48,469.73 145.83,472.87 
		146.81,471.13 141.59,468.07 	"/>
	<path class="st1" d="M149,166v-2h-4v-4h-2v4h-5v-4h-2v4h-4v2h4v5h-4v2h4v4h2v-4h5v4h2v-4h4v-2h-4v-5H149z M143,171h-5v-5h5V171z"/>
	<path class="st1" d="M149,271v-2h-4v-4h-2v4h-5v-4h-2v4h-4v2h4v5h-4v2h4v4h2v-4h5v4h2v-4h4v-2h-4v-5H149z M143,276h-5v-5h5V276z"/>
	<path class="st1" d="M169,271v-2h-4v-4h-2v4h-5v-4h-2v4h-4v2h4v5h-4v2h4v4h2v-4h5v4h2v-4h4v-2h-4v-5H169z M163,276h-5v-5h5V276z"/>
</g>
<g id="Layer_3">
</g>
</svg>
