<?xml version="1.0" encoding="utf-8"?>
<!-- Generator: Adobe Illustrator 21.0.0, SVG Export Plug-In . SVG Version: 6.00 Build 0)  -->
<svg version="1.1" id="Layer_1" xmlns="http://www.w3.org/2000/svg" xmlns:xlink="http://www.w3.org/1999/xlink" x="0px" y="0px"
	 viewBox="0 0 258 284" enable-background="new 0 0 258 284" xml:space="preserve">
<g>
	<path fill="#CBCDD4" d="M11.5,214h200v-30h-200V214z M13.5,186h196v26h-196V186z M211,70H11v30h200V70z M209,98H13V72h196V98z
		 M246,152h2v5h-5v-2h3V152z M73.2,155h8.1v2h-8.1V155z M87.4,155h8.1v2h-8.1V155z M101.5,155h8.1v2h-8.1V155z M144,155h8.1v2H144
		V155z M129.8,157v-2h8.1v2H129.8z M186.4,155h8.1v2h-8.1V155z M200.6,155h8.1v2h-8.1V155z M172.3,155h8.1v2h-8.1V155z M158.1,155
		h8.1v2h-8.1V155z M123.7,157h-8.1v-2h8.1V157z M59.1,155h8.1v2h-8.1V155z M228.9,155h8.1v2h-8.1V155z M214.7,155h8.1v2h-8.1V155z
		 M48,152h2v3h3v2h-5V152z M50,146h-2v-8h2V146z M53,129h-3v3h-2v-5h5V129z M194.5,129h-8.1v-2h8.1V129z M95.4,127v2h-8.1v-2H95.4z
		 M180.3,129h-8.1v-2h8.1V129z M214.7,127h8.1v2h-8.1V127z M228.9,127h8.1v2h-8.1V127z M208.6,129h-8.1v-2h8.1V129z M123.7,129h-8.1
		v-2h8.1V129z M137.9,129h-8.1v-2h8.1V129z M67.1,127v2h-8.1v-2H67.1z M81.3,127v2h-8.1v-2H81.3z M166.2,129h-8.1v-2h8.1V129z
		 M152,129H144v-2h8.1V129z M109.6,127v2h-8.1v-2H109.6z M248,127v5h-2v-3h-3v-2H248z M246,138h2v8h-2V138z"/>
	<g>
		<line fill="none" stroke="#42A5F5" stroke-width="2.7634" stroke-miterlimit="10" x1="77.4" y1="152.4" x2="87.7" y2="162.7"/>
		<g>
			<polygon fill="#42A5F5" points="63.6,138.6 75.1,166 78.4,153.4 90.9,150.1 			"/>
		</g>
	</g>
</g>
</svg>
