<?xml version="1.0" encoding="utf-8"?>
<!-- Generator: Adobe Illustrator 21.0.0, SVG Export Plug-In . SVG Version: 6.00 Build 0)  -->
<svg version="1.1" id="Layer_1" xmlns="http://www.w3.org/2000/svg" xmlns:xlink="http://www.w3.org/1999/xlink" x="0px" y="0px"
	 viewBox="0 0 258 284" enable-background="new 0 0 258 284" xml:space="preserve">
<g>
	<g>
		<path fill="#42A5F5" d="M222,70.5c-17.6,0-32-14.4-32-32s14.4-32,32-32s32,14.4,32,32S239.6,70.5,222,70.5z M222,8.5
			c-16.5,0-30,13.5-30,30s13.5,30,30,30s30-13.5,30-30S238.5,8.5,222,8.5z M223,28.5h-2v22h2V28.5z M233,38.5h-22v2h22V38.5z"/>
		<path fill="#CBCDD4" d="M140,107.5H73v-2h67V107.5z M73,131.5h67v-2H73V131.5z M193,153.5H73v2h120V153.5z M193,176.5H73v2h120
			V176.5z M193,200.5H73v2h120V200.5z M73,226.5h37v-2H73V226.5z M226,85.3v190.2H32v-244h143.5c0.1-0.7,0.2-1.3,0.3-2H30v248h198
			V85.1C227.3,85.2,226.7,85.3,226,85.3z"/>
	</g>
	<rect x="4" y="274" fill="none" width="26" height="3"/>
</g>
</svg>
