<svg xmlns="http://www.w3.org/2000/svg">

    <!-- Main block editor -->

    <symbol id="add" viewBox="0 0 12 12">
        <path d="M11,5H7V1A1,1,0,0,0,5,1V5H1A1,1,0,0,0,1,7H5v4a1,1,0,0,0,2,0V7h4a1,1,0,0,0,0-2Z"/>
    </symbol>

    <symbol id="headings" viewBox="0 0 10 14">
        <path d="M9,0A1,1,0,0,0,8,1V6H2V1A1,1,0,0,0,0,1V13a1,1,0,0,0,2,0V8H8v5a1,1,0,0,0,2,0V1A1,1,0,0,0,9,0Z" />
    </symbol>

    <symbol id="image" viewBox="0 0 18 14">
        <path d="M15,0H3A3,3,0,0,0,0,3v8a3,3,0,0,0,3,3H15a3,3,0,0,0,3-3V3A3,3,0,0,0,15,0ZM2,11V3A1,1,0,0,1,3,2H15a1,1,0,0,1,1,1V7.38L13.45,6.1h0a1,1,0,0,0-.38-.1h-.24l-.14,0a1,1,0,0,0-.34.19L5.63,12H3A1,1,0,0,1,2,11Zm13,1H8.7l4.45-3.81L16,9.62V11A1,1,0,0,1,15,12ZM5.5,7A1.5,1.5,0,1,1,7,5.5,1.5,1.5,0,0,1,5.5,7Z" />
    </symbol>

    <symbol id="gallery" viewBox="0 0 26 14">
        <path d="M7,5.5A1.5,1.5,0,1,1,5.5,4,1.5,1.5,0,0,1,7,5.5ZM18,3v8a3,3,0,0,1-3,3H3a3,3,0,0,1-3-3V3A3,3,0,0,1,3,0H15A3,3,0,0,1,18,3ZM16,9.62,13.15,8.19,8.7,12H15a1,1,0,0,0,1-1ZM16,3a1,1,0,0,0-1-1H3A1,1,0,0,0,2,3v8a1,1,0,0,0,1,1H5.63l6.72-5.76a1,1,0,0,1,.34-.19l.14,0h.24a1,1,0,0,1,.38.1h0L16,7.38ZM21.3.82a2.53,2.53,0,0,0-.83-.7,1,1,0,1,0-.94,1.76.72.72,0,0,1,.21.19,1.1,1.1,0,0,1,.18.34,1.56,1.56,0,0,1,.08.48v8.22a1.51,1.51,0,0,1-.08.48,1.28,1.28,0,0,1-.18.35.84.84,0,0,1-.21.18,1,1,0,1,0,.94,1.76,2.53,2.53,0,0,0,.83-.7,3.24,3.24,0,0,0,.52-.95A3.55,3.55,0,0,0,22,11.11V2.89a3.55,3.55,0,0,0-.18-1.12A3.24,3.24,0,0,0,21.3.82Zm4.52,1A3.24,3.24,0,0,0,25.3.82a2.53,2.53,0,0,0-.83-.7,1,1,0,0,0-.94,1.76.72.72,0,0,1,.21.19,1.1,1.1,0,0,1,.18.34,1.56,1.56,0,0,1,.08.48v8.22a1.51,1.51,0,0,1-.08.48,1.28,1.28,0,0,1-.18.35.84.84,0,0,1-.21.18,1,1,0,1,0,.94,1.76,2.53,2.53,0,0,0,.83-.7,3.24,3.24,0,0,0,.52-.95A3.55,3.55,0,0,0,26,11.11V2.89A3.55,3.55,0,0,0,25.82,1.77Z" />
    </symbol>

    <symbol id="unordered-list" viewBox="0 0 16 12">
        <path d="M15,0H5A1,1,0,0,0,5,2H15a1,1,0,0,0,0-2ZM1,0A1,1,0,1,0,2,1,1,1,0,0,0,1,0ZM15,5H5A1,1,0,0,0,5,7H15a1,1,0,0,0,0-2ZM1,5A1,1,0,1,0,2,6,1,1,0,0,0,1,5Zm14,5H5a1,1,0,0,0,0,2H15a1,1,0,0,0,0-2ZM1,10a1,1,0,1,0,1,1,1,1,0,0,0-1-1Z" />
    </symbol>

    <symbol id="quote" viewBox="0 0 14 12">
        <path d="M0,2.74A3,3,0,0,1,2.53,0c1.72-.11,2.94,2.16,3.3,3.63C6.67,7,4,9.82,3.8,10.07c-1,1.08-2.56,2.23-3,1.86a.79.79,0,0,1,0-.92c.26-.34,1.57-1,1.83-2.49a4.12,4.12,0,0,0-.74-3C.94,4.15,0,4.39,0,2.74ZM9.92,5.51a4.12,4.12,0,0,1,.74,3C10.4,10,9.09,10.67,8.83,11a.79.79,0,0,0,0,.92c.41.37,1.94-.78,3-1.86.24-.25,2.88-3.11,2-6.44C13.47,2.16,12.25-.11,10.53,0A3,3,0,0,0,8,2.74C8,4.39,8.94,4.15,9.92,5.51Z" />
    </symbol>

    <symbol id="code" viewBox="0 0 14 12">
        <path d="M2.41,6l1.3,1.29a1,1,0,0,1,.21.33A1,1,0,0,1,4,8v2a1,1,0,0,1,0,2H3a1,1,0,0,1-1-1V8.41L.29,6.71a1,1,0,0,1,0-1.42L2,3.59V1A1,1,0,0,1,3,0H4A1,1,0,0,1,4,2V4a1,1,0,0,1-.08.38,1,1,0,0,1-.21.33Zm11.3-.71L12,3.59V1a1,1,0,0,0-1-1H10a1,1,0,0,0,0,2V4a1,1,0,0,0,.08.38,1,1,0,0,0,.21.33L11.59,6l-1.3,1.29a1,1,0,0,0-.21.33A1,1,0,0,0,10,8v2a1,1,0,0,0,0,2h1a1,1,0,0,0,1-1V8.41l1.71-1.7A1,1,0,0,0,13.71,5.29Z" />
    </symbol>


    <symbol id="table" viewBox="0 0 18 14">
        <path d="M15,0H3A3,3,0,0,0,0,3v8a3,3,0,0,0,3,3H15a3,3,0,0,0,3-3V3A3,3,0,0,0,15,0Zm0,2a1,1,0,0,1,1,1V6H10V2ZM2,3A1,1,0,0,1,3,2H8V6H2Zm1,9a1,1,0,0,1-1-1V8H8v4Zm12,0H10V8h6v3A1,1,0,0,1,15,12Z" />
    </symbol>

    <symbol id="html" viewBox="0 0 18 12">
        <path d="M6.71,1.71,2.41,6l4.3,4.31a1,1,0,0,1,0,1.41,1,1,0,0,1-1.42,0l-5-5A1,1,0,0,1,0,6a1,1,0,0,1,.29-.71l5-5A1,1,0,0,1,6.71,1.71Zm11,3.57-5-5a1,1,0,0,0-1.42,1.42L15.59,6l-4.3,4.3a1,1,0,0,0,0,1.42,1,1,0,0,0,1.42,0l5-5a1,1,0,0,0,0-1.42Z" />
    </symbol>

    <symbol id="separator" viewBox="0 0 16 2">
        <path d="M15,2H1A1,1,0,0,1,1,0H15a1,1,0,0,1,0,2Z" />
    </symbol>

    <symbol id="readmore" viewBox="0 0 16 12">
        <path d="M16,4V8a1,1,0,0,1-2,0V7H2V8A1,1,0,0,1,0,8V4A1,1,0,0,1,2,4V5H14V4a1,1,0,0,1,2,0ZM5,2h6a1,1,0,0,0,0-2H5A1,1,0,0,0,5,2Zm6,8H5a1,1,0,0,0,0,2h6a1,1,0,0,0,0-2Z" />
    </symbol>

    <symbol id="video" viewBox="0 0 18 14">
        <path d="M15,0H3A3,3,0,0,0,0,3v8a3,3,0,0,0,3,3H15a3,3,0,0,0,3-3V3A3,3,0,0,0,15,0Zm1,11a1,1,0,0,1-1,1H3a1,1,0,0,1-1-1V3A1,1,0,0,1,3,2H15a1,1,0,0,1,1,1ZM12,7a1,1,0,0,1-.55.89l-4,2A1,1,0,0,1,7,10a1,1,0,0,1-.53-.15A1,1,0,0,1,6,9V5a1,1,0,0,1,1.45-.89l4,2A1,1,0,0,1,12,7Z" />
    </symbol>

    <symbol id="toc" viewBox="0 0 16 12">
        <path d="M15,2H5A1,1,0,0,1,5,0H15a1,1,0,0,1,0,2ZM1,0A1,1,0,1,0,2,1,1,1,0,0,0,1,0ZM15,5H8A1,1,0,0,0,8,7h7a1,1,0,0,0,0-2ZM4,5A1,1,0,1,0,5,6,1,1,0,0,0,4,5Zm11,5H11a1,1,0,0,0,0,2h4a1,1,0,0,0,0-2ZM7,10a1,1,0,1,0,1,1A1,1,0,0,0,7,10Z" />
    </symbol>

    <symbol id="menu" viewBox="0 0 15 3">
        <path d="M13.5,0A1.5,1.5,0,1,0,15,1.5,1.5,1.5,0,0,0,13.5,0Zm-6,0A1.5,1.5,0,1,0,9,1.5,1.5,1.5,0,0,0,7.5,0Zm-6,0A1.5,1.5,0,1,0,3,1.5,1.5,1.5,0,0,0,1.5,0Z" />
    </symbol>

    <symbol id="tab" viewBox="0 0 9 5">
        <path d="M7.4,2.5a.29.29,0,0,1,0,.09.18.18,0,0,1,0,.1l0,.07-.06.09-2,2A.51.51,0,0,1,4.93,5a.52.52,0,0,1-.35-.14.5.5,0,0,1,0-.71L5.71,3H.5a.5.5,0,0,1,0-1H5.71L4.57.85a.5.5,0,0,1,.72-.7l2,2,.06.09a.43.43,0,0,0,0,.07.18.18,0,0,1,0,.1A.29.29,0,0,1,7.4,2.5ZM8.5,0A.5.5,0,0,0,8,.5v4a.5.5,0,0,0,1,0V.5A.5.5,0,0,0,8.5,0Z" />
    </symbol>


    <!-- Inline editor: paragraph -->

    <symbol id="bold" viewBox="0 0 11 13">
        <path d="M5.67,13h-4a1.66,1.66,0,0,1-1.25-.39A1.64,1.64,0,0,1,0,11.39V1.61A1.69,1.69,0,0,1,.38.38,1.75,1.75,0,0,1,1.63,0H5.92A9.74,9.74,0,0,1,7.56.12,3.45,3.45,0,0,1,8.81.56a3.06,3.06,0,0,1,.83.7,3.13,3.13,0,0,1,.55.93,3.17,3.17,0,0,1,.19,1.07,3,3,0,0,1-2,2.86A3.18,3.18,0,0,1,11,9.29a3.52,3.52,0,0,1-.57,2A3.44,3.44,0,0,1,8.9,12.55a6,6,0,0,1-1.4.35A14,14,0,0,1,5.67,13Zm-3-11V5.34H5.14a4.85,4.85,0,0,0,1.55-.19,1.45,1.45,0,0,0,.83-.71,1.57,1.57,0,0,0,.23-.83A1.3,1.3,0,0,0,7,2.3,5.72,5.72,0,0,0,4.86,2ZM5.47,7.23H2.68V11H5.56c1.82,0,2.72-.64,2.72-1.92a1.56,1.56,0,0,0-.7-1.43A4,4,0,0,0,5.47,7.23Z"/>
    </symbol>

    <symbol id="italic" viewBox="0 0 10 13">
        <path d="M10,1A1,1,0,0,1,9,2H8.11l-4,9H5a1,1,0,0,1,0,2H1a1,1,0,0,1,0-2h.89l4-9H5A1,1,0,0,1,5,0H9A1,1,0,0,1,10,1Z" />
    </symbol>

    <symbol id="underline" viewBox="0 0 10 14">
        <path d="M10,1V6.32A4.87,4.87,0,0,1,5,11H4.77A4.84,4.84,0,0,1,0,6.36V1A1,1,0,0,1,2,1V6.32A2.85,2.85,0,0,0,5,9,2.88,2.88,0,0,0,8,6.27V1a1,1,0,0,1,2,0ZM9,12H1a1,1,0,0,0,0,2H9a1,1,0,0,0,0-2Z" />
    </symbol>

    <symbol id="strikethrough" viewBox="0 0 12 14">
        <path d="M12,6.5a.5.5,0,0,1-.5.5H9.45l.14.09a3.52,3.52,0,0,1,.61.61A3.71,3.71,0,0,1,11,10.43,3.75,3.75,0,0,1,9.6,12.91,4.91,4.91,0,0,1,6.5,14a5,5,0,0,1-3.11-1.1A3.79,3.79,0,0,1,2,10a1,1,0,1,1,2,0,1.8,1.8,0,0,0,.66,1.36,2.92,2.92,0,0,0,3.68,0A1.69,1.69,0,0,0,9,10.2a1.72,1.72,0,0,0-.36-1.26,1.48,1.48,0,0,0-.28-.28A3.15,3.15,0,0,0,6.48,8h0A5.16,5.16,0,0,1,3.55,7H.5a.5.5,0,0,1,0-1H2.63A3.69,3.69,0,0,1,2,4,3.8,3.8,0,0,1,3.39,1.1a4.92,4.92,0,0,1,6.21,0A1,1,0,1,1,8.34,2.65a2.92,2.92,0,0,0-3.68,0A1.79,1.79,0,0,0,4,4a1.77,1.77,0,0,0,.66,1.33A3.21,3.21,0,0,0,6.52,6h5A.5.5,0,0,1,12,6.5Z" />
    </symbol>

    <symbol id="link" viewBox="0 0 13 13">
        <path d="M6.23,11.09a1,1,0,0,1-.36,1.37,3.71,3.71,0,0,1-1.42.5,3.31,3.31,0,0,1-.55,0,3.87,3.87,0,0,1-2.35-.8A4,4,0,0,1,.52,11,4,4,0,0,1,0,9.59,3.84,3.84,0,0,1,.12,8.08,4,4,0,0,1,.78,6.66L2.05,5a3.73,3.73,0,0,1,1.16-1,3.71,3.71,0,0,1,1.42-.5,3.63,3.63,0,0,1,1.5.08,3.88,3.88,0,0,1,1.4.68,1,1,0,0,1,.18,1.4,1,1,0,0,1-1.4.19,1.89,1.89,0,0,0-.68-.34,1.74,1.74,0,0,0-.72,0,1.73,1.73,0,0,0-.69.24,2,2,0,0,0-.57.51L2.39,7.85A2,2,0,0,0,2,9.31a2,2,0,0,0,.24.72,1.89,1.89,0,0,0,.51.58,1.72,1.72,0,0,0,.68.33,1.75,1.75,0,0,0,.72,0,1.73,1.73,0,0,0,.69-.24A1,1,0,0,1,6.23,11.09ZM13,3.41A4,4,0,0,0,12.48,2a4,4,0,0,0-1-1.18,3.88,3.88,0,0,0-1.4-.68A3.86,3.86,0,0,0,7.13.54a1,1,0,1,0,1,1.72A1.89,1.89,0,0,1,8.83,2a1.93,1.93,0,0,1,.72,0,1.72,1.72,0,0,1,.68.33,1.89,1.89,0,0,1,.51.58,2,2,0,0,1,.24.71,1.94,1.94,0,0,1,0,.76,1.85,1.85,0,0,1-.33.71L9.35,6.86a2,2,0,0,1-.57.51,1.67,1.67,0,0,1-.69.24,1.74,1.74,0,0,1-.72,0,1.89,1.89,0,0,1-.68-.34A1,1,0,0,0,5.47,8.83a3.88,3.88,0,0,0,1.4.68,3.81,3.81,0,0,0,1,.12,3.31,3.31,0,0,0,.55,0A3.87,3.87,0,0,0,9.79,9.1a3.76,3.76,0,0,0,1.16-1l1.27-1.71a4,4,0,0,0,.66-1.42A3.83,3.83,0,0,0,13,3.41Z" />
    </symbol>

    <symbol id="unlink" viewBox="0 0 15 15">
        <path d="M6.23,13.09a1,1,0,0,1-.36,1.37,3.71,3.71,0,0,1-1.42.5,3.31,3.31,0,0,1-.55,0,3.87,3.87,0,0,1-2.35-.8A4,4,0,0,1,.52,13,4,4,0,0,1,0,11.59a3.84,3.84,0,0,1,.08-1.51A4,4,0,0,1,.78,8.66L2.05,7a3.73,3.73,0,0,1,1.16-1,3.71,3.71,0,0,1,1.42-.5,3.63,3.63,0,0,1,1.5.08,3.88,3.88,0,0,1,1.4.68,1,1,0,0,1,.18,1.4,1,1,0,0,1-1.4.19,1.89,1.89,0,0,0-.68-.34,1.74,1.74,0,0,0-.72,0,1.73,1.73,0,0,0-.69.24,1.82,1.82,0,0,0-.56.51L2.39,9.85A2,2,0,0,0,2,11.31a2,2,0,0,0,.24.72,1.89,1.89,0,0,0,.51.58,1.72,1.72,0,0,0,.68.33,1.75,1.75,0,0,0,.72,0,1.73,1.73,0,0,0,.69-.24A1,1,0,0,1,6.23,13.09ZM14.6,6.33a3.77,3.77,0,0,0-.94-1.2,4.2,4.2,0,0,0-1.29-.75A6,6,0,0,0,9.76,4a1,1,0,0,0-.92,1.07A1,1,0,0,0,9.91,6a4,4,0,0,1,1.74.24,2.53,2.53,0,0,1,.71.39,1.93,1.93,0,0,1,.45.58,1.83,1.83,0,0,1,.19.72,1.86,1.86,0,0,1-.53,1.39,2,2,0,0,1-.64.47A2.21,2.21,0,0,1,11,10l-2.2.13A2.06,2.06,0,0,1,8,10a2,2,0,0,1-.66-.37,2,2,0,0,1-.46-.59,1,1,0,0,0-1.78.9A3.88,3.88,0,0,0,6,11.17a4,4,0,0,0,1.33.76,4.24,4.24,0,0,0,1.32.21H9l2.2-.14a4.07,4.07,0,0,0,1.54-.39,4.14,4.14,0,0,0,1.24-.91A3.88,3.88,0,0,0,15,7.85,3.77,3.77,0,0,0,14.6,6.33ZM4.11,3.45A1,1,0,0,0,5,4a1,1,0,0,0,.45-.1,1,1,0,0,0,.44-1.35l-1-2a1,1,0,1,0-1.78.9Zm3.44.45A1,1,0,0,0,8,4a1,1,0,0,0,.89-.55l1-2A1,1,0,1,0,8.11.55l-1,2A1,1,0,0,0,7.55,3.9Z" />
    </symbol>

    <symbol id="marker" viewBox="0 0 16 13">
        <path d="M15.75,2.36,11,9.59,8.5,7.92,13.21.69a1.52,1.52,0,1,1,2.54,1.67ZM7.39,9.62,7,13l2.93-1.72-1.27-.83ZM4,11H1a1,1,0,0,0,0,2H4a1,1,0,0,0,0-2Z" />
    </symbol>

    <symbol id="align-left" viewBox="0 0 14 12">
        <path d="M0,1A1,1,0,0,1,1,0H13a1,1,0,0,1,0,2H1A1,1,0,0,1,0,1ZM1,7H9A1,1,0,0,0,9,5H1A1,1,0,0,0,1,7Zm12,3H1a1,1,0,0,0,0,2H13a1,1,0,0,0,0-2Z" />
    </symbol>

    <symbol id="align-right" viewBox="0 0 14 12">
        <path d="M14,11a1,1,0,0,1-1,1H1a1,1,0,0,1,0-2H13A1,1,0,0,1,14,11ZM13,5H5A1,1,0,0,0,5,7h8a1,1,0,0,0,0-2ZM1,2H13a1,1,0,0,0,0-2H1A1,1,0,0,0,1,2Z" />
    </symbol>

    <symbol id="align-center" viewBox="0 0 14 12">
        <path d="M0,1A1,1,0,0,1,1,0H13a1,1,0,0,1,0,2H1A1,1,0,0,1,0,1ZM4,5A1,1,0,0,0,4,7h6a1,1,0,0,0,0-2Zm9,5H1a1,1,0,0,0,0,2H13a1,1,0,0,0,0-2Z" />
    </symbol>
    
    <!-- Inline editor: paragraph -->

    <symbol id="paragraph" viewBox="0 0 14 14">
        <path d="M13,0H4.85C1.88.44-.29,2.92,0,5.54A5.35,5.35,0,0,0,4.86,10H5v3a1,1,0,1,0,2,0V2H9V13a1,1,0,0,0,2,0V2h2a1,1,0,0,0,0-2ZM2,5.3C1.82,3.78,3.17,2.33,5,2V8A3.38,3.38,0,0,1,2,5.3Z"/>
    </symbol>


    <!-- Inline editor: headings H1-H6 -->

    <symbol id="h1" viewBox="0 0 16 12">
        <path d="M9,1V11a1,1,0,0,1-2,0V7H2v4a1,1,0,0,1-2,0V1A1,1,0,0,1,2,1V5H7V1A1,1,0,0,1,9,1Zm7-.09a.71.71,0,0,0,0-.2,1.34,1.34,0,0,0-.07-.18s0-.06,0-.08a.23.23,0,0,0-.07-.07,1,1,0,0,0-.14-.15l-.16-.1L15.29.06l-.2,0L15,0l-.09,0a.71.71,0,0,0-.2,0l-.18.07-.08,0-3,2A1,1,0,0,0,12,4a.94.94,0,0,0,.55-.17l1.45-1V11a1,1,0,0,0,2,0V1A.29.29,0,0,0,16,.91Z" />
    </symbol>

    <symbol id="h2" viewBox="0 0 19 12">
        <path d="M9,1V11a1,1,0,0,1-2,0V7H2v4a1,1,0,0,1-2,0V1A1,1,0,0,1,2,1V5H7V1A1,1,0,0,1,9,1Zm9,9H14.12c.39-.43.77-.81,1.13-1.18s.86-.87,1.29-1.36l.29-.33c.91-1,2.16-2.39,1.64-4.34A3.75,3.75,0,0,0,15.71.07,4.19,4.19,0,0,0,11,3.29,1,1,0,1,0,13,3.82,2.22,2.22,0,0,1,15.29,2a1.78,1.78,0,0,1,1.24,1.28c.23.85-.3,1.5-1.18,2.48L15,6.14c-.41.46-.8.86-1.21,1.27a27.69,27.69,0,0,0-2.63,3A1,1,0,0,0,12,12h6a1,1,0,0,0,0-2Z" />
    </symbol>

    <symbol id="h3" viewBox="0 0 20 12">
        <path d="M9,1V11a1,1,0,0,1-2,0V7H2v4a1,1,0,0,1-2,0V1A1,1,0,0,1,2,1V5H7V1A1,1,0,0,1,9,1Zm9,5a3.2,3.2,0,0,0,1-2.06A3.88,3.88,0,0,0,15.32,0,4.11,4.11,0,0,0,11,3.14,1,1,0,0,0,13,3.62,2.1,2.1,0,0,1,15.14,2c.92.08,1.93.87,1.86,1.76A1.51,1.51,0,0,1,15.56,5L15.5,5a.85.85,0,0,0-.17.06,1.24,1.24,0,0,0-.2.1L15,5.26a.86.86,0,0,0-.18.2.2.2,0,0,0,0,.08.91.91,0,0,0-.1.29v.08a1.48,1.48,0,0,0,0,.21.45.45,0,0,0,0,.11.14.14,0,0,1,0,.06,1,1,0,0,0,.14.28l0,0a1.37,1.37,0,0,0,.22.2l.08,0a1.14,1.14,0,0,0,.26.09l.07,0a2,2,0,0,1,.84.31,1.31,1.31,0,0,1,.6.94,1.44,1.44,0,0,1-.5,1.13,2.35,2.35,0,0,1-1.36.63,2,2,0,0,1-1.35-.38A2.22,2.22,0,0,1,13,8.38,1,1,0,0,0,11,8.86a4.2,4.2,0,0,0,1.58,2.36A4,4,0,0,0,15,12a2.11,2.11,0,0,0,.35,0,4.3,4.3,0,0,0,2.55-1.17A3.34,3.34,0,0,0,19,8.06,3.2,3.2,0,0,0,18,6Z" />
    </symbol>

    <symbol id="h4" viewBox="0 0 20 12">
        <path d="M9,1V11a1,1,0,0,1-2,0V7H2v4a1,1,0,0,1-2,0V1A1,1,0,0,1,2,1V5H7V1A1,1,0,0,1,9,1ZM19,8H18V7a1,1,0,0,0-2,0V8H13.8l4.05-6.47A1,1,0,0,0,16.15.47l-5,8s0,0,0,.07a.64.64,0,0,0-.08.19,1.48,1.48,0,0,0,0,.19A.24.24,0,0,0,11,9s0,.07,0,.11a1.42,1.42,0,0,0,0,.2,1.24,1.24,0,0,0,.18.32,1,1,0,0,0,.15.14.6.6,0,0,0,.08.08l.09,0,.1,0A1,1,0,0,0,12,10h4v1a1,1,0,0,0,2,0V10h1a1,1,0,0,0,0-2Z" />
    </symbol>

    <symbol id="h5" viewBox="0 0 18 12">
        <path d="M9,1V11a1,1,0,0,1-2,0V7H2v4a1,1,0,0,1-2,0V1A1,1,0,0,1,2,1V5H7V1A1,1,0,0,1,9,1Zm8.69,5.45a3.93,3.93,0,0,0-.83-1.27,3.85,3.85,0,0,0-3.86-1V2h3a1,1,0,0,0,0-2H12a1,1,0,0,0-1,1V5.88h0a1,1,0,0,0,.3.71h0l.1.07a1,1,0,0,0,.22.14.88.88,0,0,0,.27.06l.11,0h0a1.07,1.07,0,0,0,.7-.3h0a1.88,1.88,0,0,1,.61-.43,1.9,1.9,0,0,1,1.48,0,2,2,0,0,1,1,1.06A2.13,2.13,0,0,1,16,8a2,2,0,0,1-.16.79,1.85,1.85,0,0,1-.41.63,2,2,0,0,1-.62.43,1.9,1.9,0,0,1-1.48,0,1.88,1.88,0,0,1-.61-.43,1,1,0,0,0-1.44,1.4,3.83,3.83,0,0,0,1.25.86,3.87,3.87,0,0,0,3.08,0,3.83,3.83,0,0,0,1.25-.86A4.09,4.09,0,0,0,18,8,3.9,3.9,0,0,0,17.69,6.45Z" />
    </symbol>

    <symbol id="h6" viewBox="0 0 18 12">
        <path d="M9,1V11a1,1,0,0,1-2,0V7H2v4a1,1,0,0,1-2,0V1A1,1,0,0,1,2,1V5H7V1A1,1,0,0,1,9,1Zm9,7a4,4,0,1,1-8,0,4,4,0,0,1,.62-2.12v0l3-5.35a1,1,0,0,1,1.75,1L13.93,4A3.93,3.93,0,0,1,18,8ZM16,8a2,2,0,1,0-3.41,1.41,2,2,0,0,0,2.82,0A2,2,0,0,0,16,8Z" />
    </symbol>


    <!-- Inline editor: lists -->

    <symbol id="ordered-list" viewBox="0 0 17 14">
        <path d="M5,2A1,1,0,0,1,6,1H16a1,1,0,0,1,0,2H6A1,1,0,0,1,5,2ZM16,6H6A1,1,0,0,0,6,8H16a1,1,0,0,0,0-2Zm0,5H6a1,1,0,0,0,0,2H16a1,1,0,0,0,0-2ZM2,3.2H1.33V0H0V.8H.67V3.2H0V4H2ZM0,9H3V8.2H.75V7.4H0ZM2.25,6.6H3V5.8H2.25Zm-1.5.8h1.5V6.6H.75ZM0,5v.8H2.25V5Zm0,9H2.25v-.8H0Zm3-.8v-.8H2.25v.8ZM.75,12.4h1.5v-.8H.75ZM0,10v.8H2.25V10Zm2.25,1.6H3v-.8H2.25Z" />
    </symbol>

    <symbol id="nesting" viewBox="0 0 17 12">
        <path d="M4,1A1,1,0,0,1,5,0H9A1,1,0,0,1,9,2H5A1,1,0,0,1,4,1Zm5,9H5a1,1,0,0,0,0,2H9a1,1,0,0,0,0-2ZM1,0A1,1,0,1,0,2,1,1,1,0,0,0,1,0ZM1,5A1,1,0,1,0,2,6,1,1,0,0,0,1,5Zm0,5a1,1,0,1,0,1,1A1,1,0,0,0,1,10ZM16.71,5.29l-3-3a1,1,0,0,0-1.42,1.42L13.59,5H5A1,1,0,0,0,5,7h8.59l-1.3,1.29a1,1,0,0,0,0,1.42,1,1,0,0,0,1.42,0l3-3A1,1,0,0,0,16.71,5.29Z" />
    </symbol>

    <symbol id="flattening" viewBox="0 0 17 12">
        <path d="M12,2H8A1,1,0,0,1,8,0h4a1,1,0,0,1,0,2ZM7,11a1,1,0,0,0,1,1h4a1,1,0,0,0,0-2H8A1,1,0,0,0,7,11ZM15,1a1,1,0,1,0,1-1A1,1,0,0,0,15,1Zm0,5a1,1,0,1,0,1-1A1,1,0,0,0,15,6Zm0,5a1,1,0,1,0,1-1A1,1,0,0,0,15,11ZM.29,6.71l3,3a1,1,0,0,0,1.42,0,1,1,0,0,0,0-1.42L3.41,7H12a1,1,0,0,0,0-2H3.41l1.3-1.29A1,1,0,0,0,3.29,2.29l-3,3A1,1,0,0,0,.29,6.71Z" />
    </symbol>


    <!-- Inline editor: separators -->

    <symbol id="long-line" viewBox="0 0 20 2">
        <path d="M23,0H1A1,1,0,0,0,1,2H23a1,1,0,0,0,0-2Z" />
    </symbol>

    <symbol id="shorter-line" viewBox="0 0 16 2">
        <path d="M15,0H1A1,1,0,0,0,1,2H15a1,1,0,0,0,0-2Z" />
    </symbol>

    <symbol id="short-line" viewBox="0 0 8 2">
        <path d="M7,0H1A1,1,0,0,0,1,2H7A1,1,0,0,0,7,0Z" />
    </symbol>

    <symbol id="dotted-line" viewBox="0 0 15 3">
        <path d="M13.5,0A1.5,1.5,0,1,0,15,1.5,1.5,1.5,0,0,0,13.5,0Zm-6,0A1.5,1.5,0,1,0,9,1.5,1.5,1.5,0,0,0,7.5,0Zm-6,0A1.5,1.5,0,1,0,3,1.5,1.5,1.5,0,0,0,1.5,0Z" />
    </symbol>

    <symbol id="dot" viewBox="0 0 3 3">
        <path d="M1.5,0A1.5,1.5,0,1,0,3,1.5,1.5,1.5,0,0,0,1.5,0Z" />
    </symbol>


    <!-- Inline editor: image, video, embed -->
    
    <symbol id="preview" viewBox="0 0 19 12">
        <path d="M19,6l-.3.5A14.93,14.93,0,0,1,15,10.3L12.7,8a4.55,4.55,0,0,0,.5-2A3.88,3.88,0,0,0,9.4,2.1,3.82,3.82,0,0,0,5.6,6,3.82,3.82,0,0,0,9.4,9.9,3.41,3.41,0,0,0,11.8,9l1.9,1.9A8.77,8.77,0,0,1,9.5,12C6,12,2.8,10,.3,6.5L0,6l.3-.5C2.8,2,6,0,9.5,0s6.7,2,9.2,5.5ZM7.5,6a2,2,0,1,0,2-2A2,2,0,0,0,7.5,6Z"/>
    </symbol>

    <symbol id="left" viewBox="0 0 14 13">
        <path d="M0,1A1,1,0,0,1,1,0H13a1,1,0,0,1,0,2H1A1,1,0,0,1,0,1ZM1,9H6A1,1,0,0,0,7,8V5A1,1,0,0,0,6,4H1A1,1,0,0,0,0,5V8A1,1,0,0,0,1,9ZM13,4H12a1,1,0,0,0,0,2h1a1,1,0,0,0,0-2Zm0,3H12a1,1,0,0,0,0,2h1a1,1,0,0,0,0-2Zm0,4H1a1,1,0,0,0,0,2H13a1,1,0,0,0,0-2Z" />
    </symbol>

    <symbol id="center" viewBox="0 0 14 13">
        <path d="M0,1A1,1,0,0,1,1,0H13a1,1,0,0,1,0,2H1A1,1,0,0,1,0,1ZM3,4A1,1,0,0,0,2,5V8A1,1,0,0,0,3,9h8a1,1,0,0,0,1-1V5a1,1,0,0,0-1-1Zm10,7H1a1,1,0,0,0,0,2H13a1,1,0,0,0,0-2Z" />
    </symbol>

    <symbol id="right" viewBox="0 0 14 13">
        <path d="M13,2H1A1,1,0,0,1,1,0H13a1,1,0,0,1,0,2Zm1,6V5a1,1,0,0,0-1-1H8A1,1,0,0,0,7,5V8A1,1,0,0,0,8,9h5A1,1,0,0,0,14,8ZM0,5A1,1,0,0,0,1,6H2A1,1,0,0,0,2,4H1A1,1,0,0,0,0,5ZM0,8A1,1,0,0,0,1,9H2A1,1,0,0,0,2,7H1A1,1,0,0,0,0,8Zm0,4a1,1,0,0,0,1,1H13a1,1,0,0,0,0-2H1A1,1,0,0,0,0,12Z" />
    </symbol>

    <symbol id="wide" viewBox="0 0 14 13">
        <path d="M2,1A1,1,0,0,1,3,0h8a1,1,0,0,1,0,2H3A1,1,0,0,1,2,1ZM13,4H1A1,1,0,0,0,0,5V8A1,1,0,0,0,1,9H13a1,1,0,0,0,1-1V5A1,1,0,0,0,13,4Zm-2,7H3a1,1,0,0,0,0,2h8a1,1,0,0,0,0-2Z" />
    </symbol>

    <symbol id="full" viewBox="0 0 14 13">
        <path d="M14,1V8a1,1,0,0,1-1,1H1A1,1,0,0,1,0,8V1A1,1,0,0,1,1,0H13A1,1,0,0,1,14,1ZM11,11H3a1,1,0,0,0,0,2h8a1,1,0,0,0,0-2Z" />
    </symbol>
    
    <symbol id="blank-image" viewBox="0 0 68 48">
        <path d="M35,15c0-2.76,2.24-5,5-5s5,2.24,5,5s-2.24,5-5,5S35,17.76,35,15z M68,42c0,0.18-0.01,0.36-0.03,0.53L68,42.64l-0.04,0.06
	C67.61,45.69,65.08,48,62,48H6c-3.31,0-6-2.69-6-6V6c0-3.31,2.69-6,6-6h56c3.31,0,6,2.69,6,6V42z M5.31,45.93
	c1.09-5.01,4.63-19.61,9.04-20.28c1.29-0.19,2.5,0.72,3.57,2.73c2.32,4.31,4.13,6.52,5.4,6.59c0.89,0.04,1.73-1.14,2.59-2.4
	C27.05,30.89,28.34,29,30.5,29c1.57,0,2.6,1.79,3.69,3.69c1.36,2.37,2.78,4.81,5.2,4.38c2.39-0.42,4.37-4.15,6.47-8.09
	c2.88-5.41,5.86-10.99,10.73-9.79c3.91,0.97,7.37,9.8,9.41,16.29V6c0-2.21-1.79-4-4-4H6C3.79,2,2,3.79,2,6v36
	C2,43.97,3.44,45.6,5.31,45.93z"/>
    </symbol>
    
    <symbol id="blank-gallery" viewBox="0 0 66 50">
        <path d="M36,23a4,4,0,1,1-4-4A4,4,0,0,1,36,23ZM66,6V34a6,6,0,0,1-5.08,5.92,6,6,0,0,1-5,5A6,6,0,0,1,50,50H6a6,6,0,0,1-6-6V16a6,6,0,0,1,5.09-5.92,6,6,0,0,1,5-5A6,6,0,0,1,16,0H60A6,6,0,0,1,66,6ZM54,16a4,4,0,0,0-4-4H6a4,4,0,0,0-4,4V44a4,4,0,0,0,1.33,3c1.07-4.64,3.87-15.1,7.33-15.61,1.11-.16,2.13.6,3,2.25,1.9,3.45,3.37,5.22,4.38,5.27.71.05,1.37-.9,2.06-1.9.94-1.37,2-2.92,3.85-2.92,1.34,0,2.2,1.47,3.11,3,1.11,1.89,2.25,3.84,4.2,3.5s3.63-3.46,5.27-6.49c2.28-4.19,4.85-8.94,8.94-7.95,3.77.92,7,10.07,8.49,15.32Zm5-5a4,4,0,0,0-4-4H11a4,4,0,0,0-3.86,3H50a6,6,0,0,1,6,6V42.86A4,4,0,0,0,59,39Zm5-5a4,4,0,0,0-4-4H16a4,4,0,0,0-3.86,3H55a6,6,0,0,1,6,6V37.85A4,4,0,0,0,64,34Z"/>
    </symbol>
    
     <symbol id="eraser" viewBox="0 0 14 14">
         <path d="M13.43,3.94l-3.37-3.37c-0.76-0.76-2-0.76-2.76,0L0.57,7.3c-0.76,0.76-0.76,2,0,2.76l3.37,3.37c0,0,0,0,0,0
	C4.32,13.81,4.82,14,5.32,14c0.5,0,1-0.19,1.38-0.57l6.73-6.73C14.19,5.94,14.19,4.7,13.43,3.94z M6.64,11.73
	c-0.37,0.36-0.96,0.36-1.32,0L2.27,8.69c-0.37-0.37-0.37-0.96,0-1.32L3.64,6L8,10.36L6.64,11.73z"/>
    </symbol>
    
    
    <!-- Inline editor: advanced options menu -->

    <symbol id="enter" viewBox="0 0 11 13">
        <path d="M11,1V8a1,1,0,0,1-1,1H3.41l2.3,2.29a1,1,0,0,1,0,1.42,1,1,0,0,1-1.42,0l-4-4a1,1,0,0,1,0-1.42l4-4A1,1,0,0,1,5.71,4.71L3.41,7H9V1a1,1,0,0,1,2,0Z"/>
    </symbol>

    <symbol id="down" viewBox="0 0 10 6">
         <path d="M.29,1.71l4,4a1,1,0,0,0,1.42,0l4-4a1,1,0,0,0,0-1.42,1,1,0,0,0-1.42,0L5,3.59,1.71.29A1,1,0,0,0,.29.29,1,1,0,0,0,.29,1.71Z" />       
    </symbol>

    <symbol id="up" viewBox="0 0 10 6">
        <path d="M9.71,4.29l-4-4a1,1,0,0,0-1.42,0l-4,4a1,1,0,0,0,0,1.42,1,1,0,0,0,1.42,0L5,2.41l3.29,3.3a1,1,0,0,0,1.42,0A1,1,0,0,0,9.71,4.29Z" />
    </symbol>

    <symbol id="trash" viewBox="0 0 11 12">
       <path d="M10,4.73v5.88A1.59,1.59,0,0,1,8.28,12H2.72A1.59,1.59,0,0,1,1,10.61V4.73A.83.83,0,0,1,1.9,4H9.1A.84.84,0,0,1,10,4.73ZM10,1H8A1,1,0,0,0,7,0H4A1,1,0,0,0,3,1H1A1,1,0,0,0,1,3h9a1,1,0,0,0,0-2Z"/>
    </symbol>
    
    <symbol id="open-trash" viewBox="0 0 11 14">
     <path d="M11,6.73v5.88A1.59,1.59,0,0,1,9.28,14H3.72A1.59,1.59,0,0,1,2,12.61V6.73A.83.83,0,0,1,2.9,6h7.2A.84.84,0,0,1,11,6.73ZM10.93.62A1.09,1.09,0,0,0,9.57.06l-2,.69A1.29,1.29,0,0,0,6.11.06l-3,1a1,1,0,0,0-.49,1.37l-2,.69A.93.93,0,0,0,.07,4.38a1.09,1.09,0,0,0,1.36.56l8.89-3.08A.93.93,0,0,0,10.93.62Z" transform="translate(-1 0)"  />
    </symbol>

    <symbol id="gear" viewBox="0 0 13 13">
       <path d="M11.92,6.5A1.68,1.68,0,0,1,13,4.94,6.31,6.31,0,0,0,12.19,3a1.76,1.76,0,0,1-.68.14,1.65,1.65,0,0,1-1.18-.49A1.68,1.68,0,0,1,10,.8,6.66,6.66,0,0,0,8.06,0,1.67,1.67,0,0,1,6.5,1.07,1.67,1.67,0,0,1,4.94,0,6.73,6.73,0,0,0,3,.8a1.68,1.68,0,0,1-.35,1.86,1.65,1.65,0,0,1-1.18.49A1.76,1.76,0,0,1,.8,3,6.84,6.84,0,0,0,0,4.94,1.67,1.67,0,0,1,1.07,6.5,1.67,1.67,0,0,1,0,8.06,6.31,6.31,0,0,0,.81,10a1.71,1.71,0,0,1,.67-.14,1.69,1.69,0,0,1,1.18.49A1.66,1.66,0,0,1,3,12.2a6.84,6.84,0,0,0,1.93.8,1.67,1.67,0,0,1,3.12,0A6.73,6.73,0,0,0,10,12.2a1.68,1.68,0,0,1,1.53-2.35,1.76,1.76,0,0,1,.68.14A6.84,6.84,0,0,0,13,8.06,1.67,1.67,0,0,1,11.92,6.5ZM6.53,9.2A2.71,2.71,0,1,1,9.24,6.49,2.71,2.71,0,0,1,6.53,9.2Z"/>
    </symbol>
    
    <symbol id="duplicate" viewBox="0 0 14 14">
       <path d="M10,6v6c0,1.1-0.9,2-2,2H2c-1.1,0-2-0.9-2-2V6c0-1.1,0.9-2,2-2h6C9.1,4,10,4.9,10,6z M12,0H6C4.9,0,4,0.9,4,2h2
	h6v6v2c1.1,0,2-0.9,2-2V2C14,0.9,13.1,0,12,0z"/>
    </symbol>
    
    <symbol id="cancel" viewBox="0 0 13 13">
       <path d="M7.91,6.5l4.8-4.79A1,1,0,1,0,11.29.29L6.5,5.09,1.71.29A1,1,0,0,0,.29,1.71L5.09,6.5.29,11.29a1,1,0,0,0,0,1.42,1,1,0,0,0,1.42,0L6.5,7.91l4.79,4.8a1,1,0,0,0,1.42,0,1,1,0,0,0,0-1.42Z"/>
    </symbol>
    
    <symbol id="save" viewBox="0 0 19 15">
       <path d="M18.65,1.24a1,1,0,0,0-1.41.11L6.74,13.66,1.57,10a1,1,0,0,0-1.39.25,1,1,0,0,0,.25,1.39l5.91,4.14.14.08.12,0a.81.81,0,0,0,.27.05h0a1.13,1.13,0,0,0,.44-.1l.13-.08a1,1,0,0,0,.19-.17l11.09-13A1,1,0,0,0,18.65,1.24Z" transform="translate(0 -1)"/>
    </symbol>   
    
    <symbol id="undo" viewBox="0 0 13 16">
       <path d="M12.86,8A6.61,6.61,0,0,0,6,3V0L0,5.49,6,11V8c1.14-.36,4.27.57,4.9,2,.83,1.89-.59,5.12-3.93,6A6.87,6.87,0,0,0,12.86,8Z"/>
    </symbol> 
</svg>
