<svg xmlns="http://www.w3.org/2000/svg">

    <symbol id="unknown" viewBox="0 0 22 24">
       <path d="M15,0H3A3,3,0,0,0,0,3V21a3,3,0,0,0,3,3H19a3,3,0,0,0,3-3V7Z" fill="#c4c3c3"/><polyline points="15 0 15 7 22 7" fill="#525353" fill-opacity="0.39"/>
     </symbol>    

     <symbol id="catalog" viewBox="0 0 22 17">
       <path d="M2,3h9.49L9.84.79A1.94,1.94,0,0,0,8.29,0H2a2,2,0,0,0-.43.05,1.85,1.85,0,0,0-.39.14A1.94,1.94,0,0,0,.82.4,1.82,1.82,0,0,0,.53.67,2.18,2.18,0,0,0,.31,1a1.63,1.63,0,0,0-.17.35,1.64,1.64,0,0,0-.1.38,1.75,1.75,0,0,0,0,.4V5A2,2,0,0,1,2,3Z" fill="#979797"/><rect y="3" width="22" height="14" rx="2" fill="#c5c3c4"/>
     </symbol>        
    
    <symbol id="txt" viewBox="0 0 22 24">
      <path d="M15,0H3A3,3,0,0,0,0,3V21a3,3,0,0,0,3,3H19a3,3,0,0,0,3-3V7Z" fill="#c4c4c4"/><polyline points="15 0 15 7 22 7" fill="#515251" fill-opacity="0.39"/><path d="M7.36,14.07H6.07v4.21a.79.79,0,0,1-.16.54.55.55,0,0,1-.43.18.58.58,0,0,1-.43-.18.77.77,0,0,1-.16-.54V14.07H3.6a.71.71,0,0,1-.45-.13A.45.45,0,0,1,3,13.59a.46.46,0,0,1,.15-.36.67.67,0,0,1,.45-.13H7.36a.67.67,0,0,1,.46.13.46.46,0,0,1,.15.36.45.45,0,0,1-.15.35A.76.76,0,0,1,7.36,14.07Z" fill="#585a5b"/><path d="M8.45,17.77l1.31-1.89-1.1-1.69a3.08,3.08,0,0,1-.23-.42.88.88,0,0,1-.08-.34.4.4,0,0,1,.15-.3A.52.52,0,0,1,8.86,13a.53.53,0,0,1,.39.14,4,4,0,0,1,.38.54l.88,1.41.93-1.41.2-.3a1,1,0,0,1,.16-.21A.43.43,0,0,1,12,13a.46.46,0,0,1,.21,0,.52.52,0,0,1,.37.13.45.45,0,0,1,.14.32,1.46,1.46,0,0,1-.31.72l-1.15,1.71,1.24,1.89a3.44,3.44,0,0,1,.24.42.62.62,0,0,1,.08.31.45.45,0,0,1-.07.25.41.41,0,0,1-.19.18.59.59,0,0,1-.56,0,.52.52,0,0,1-.19-.17l-.27-.4-1-1.61-1.1,1.66-.18.27a.65.65,0,0,1-.13.16A.57.57,0,0,1,8.9,19a.61.61,0,0,1-.24,0,.52.52,0,0,1-.36-.13.51.51,0,0,1-.14-.38A1.4,1.4,0,0,1,8.45,17.77Z" fill="#585a5b"/><path d="M17.39,14.07H16.1v4.21a.74.74,0,0,1-.16.54.54.54,0,0,1-.42.18.55.55,0,0,1-.43-.18.78.78,0,0,1-.17-.54V14.07H13.63a.71.71,0,0,1-.45-.13.45.45,0,0,1-.15-.35.44.44,0,0,1,.16-.36.64.64,0,0,1,.44-.13h3.76a.67.67,0,0,1,.46.13.46.46,0,0,1,.15.36.45.45,0,0,1-.15.35A.72.72,0,0,1,17.39,14.07Z" fill="#585a5b"/>
    </symbol>
    
    <symbol id="doc" viewBox="0 0 22 24">    
       <path d="M15,0H3A3,3,0,0,0,0,3V21a3,3,0,0,0,3,3H19a3,3,0,0,0,3-3V7Z" fill="#5480bd"/><polyline points="15 0 15 7 22 7" fill="#7babd9"/><path d="M3.71,13.1h1.5a4.21,4.21,0,0,1,1,.11,1.74,1.74,0,0,1,.76.42A3,3,0,0,1,7.87,16a4.75,4.75,0,0,1-.09,1,2.9,2.9,0,0,1-.28.78,2.35,2.35,0,0,1-.48.62,1.81,1.81,0,0,1-.5.33,1.87,1.87,0,0,1-.58.18,4.93,4.93,0,0,1-.71,0H3.73a.84.84,0,0,1-.47-.1.41.41,0,0,1-.21-.27,1.89,1.89,0,0,1,0-.46V13.82a.77.77,0,0,1,.17-.55A.74.74,0,0,1,3.71,13.1Zm.44.93V18H5l.45,0a1.51,1.51,0,0,0,.34-.08.92.92,0,0,0,.3-.18A2.14,2.14,0,0,0,6.7,16a2.54,2.54,0,0,0-.26-1.29,1.1,1.1,0,0,0-.62-.54,3,3,0,0,0-.9-.12Z" fill="#fff"/><path d="M10.87,13a2.93,2.93,0,0,1,1.52.37,2.31,2.31,0,0,1,1,1A3.57,3.57,0,0,1,13.68,16a4,4,0,0,1-.18,1.23,2.7,2.7,0,0,1-.54,1,2.38,2.38,0,0,1-.87.62,3.21,3.21,0,0,1-1.2.21,3,3,0,0,1-1.19-.22,2.38,2.38,0,0,1-.89-.62,2.8,2.8,0,0,1-.53-1A4,4,0,0,1,8.1,16a3.67,3.67,0,0,1,.19-1.22,2.68,2.68,0,0,1,.54-.95,2.42,2.42,0,0,1,.87-.6A3.13,3.13,0,0,1,10.87,13Zm1.64,3a2.84,2.84,0,0,0-.2-1.1,1.59,1.59,0,0,0-.58-.71,1.57,1.57,0,0,0-.86-.24,1.53,1.53,0,0,0-.64.14,1.42,1.42,0,0,0-.5.38,1.74,1.74,0,0,0-.34.65,3,3,0,0,0-.12.88,3.16,3.16,0,0,0,.12.9,1.73,1.73,0,0,0,.35.66,1.48,1.48,0,0,0,.51.4,1.62,1.62,0,0,0,.64.13,1.55,1.55,0,0,0,.81-.23,1.53,1.53,0,0,0,.59-.7A2.67,2.67,0,0,0,12.51,16Z" fill="#fff"/><path d="M19,17.07a1.59,1.59,0,0,1-.13.6,2.14,2.14,0,0,1-.43.63,2.08,2.08,0,0,1-.73.51,2.76,2.76,0,0,1-1,.19,3.49,3.49,0,0,1-.82-.09,2.09,2.09,0,0,1-.67-.27,2.07,2.07,0,0,1-.55-.48,3.51,3.51,0,0,1-.39-.61A3.62,3.62,0,0,1,13.92,16a3.78,3.78,0,0,1,.2-1.26,2.71,2.71,0,0,1,.58-.94,2.27,2.27,0,0,1,.87-.6A2.72,2.72,0,0,1,16.64,13a2.59,2.59,0,0,1,1.23.28,2.23,2.23,0,0,1,.83.7,1.36,1.36,0,0,1,.28.78.47.47,0,0,1-.14.35.41.41,0,0,1-.33.16.5.5,0,0,1-.34-.11,1.47,1.47,0,0,1-.24-.37,1.82,1.82,0,0,0-.53-.64,1.33,1.33,0,0,0-.75-.22,1.38,1.38,0,0,0-1.14.55,2.55,2.55,0,0,0-.42,1.57,2.82,2.82,0,0,0,.19,1.12,1.34,1.34,0,0,0,.53.67,1.42,1.42,0,0,0,.8.23,1.38,1.38,0,0,0,.84-.26,1.5,1.5,0,0,0,.52-.73,1.35,1.35,0,0,1,.18-.38.42.42,0,0,1,.35-.14.5.5,0,0,1,.5.51Z" fill="#fff"/>
    </symbol>
    
    <symbol id="docx" viewBox="0 0 22 24">   
        <path d="M15,0H3A3,3,0,0,0,0,3V21a3,3,0,0,0,3,3H19a3,3,0,0,0,3-3V7Z" fill="#5380bd"/><polyline points="15 0 15 7 22 7" fill="#7aaad8"/><path d="M2.62,14.08H3.94a3.28,3.28,0,0,1,.88.1,1.64,1.64,0,0,1,.67.34,2.41,2.41,0,0,1,.78,2,3.84,3.84,0,0,1-.08.79,2.19,2.19,0,0,1-.24.65,2.28,2.28,0,0,1-.42.52,2,2,0,0,1-.44.28,1.75,1.75,0,0,1-.51.14,3.89,3.89,0,0,1-.62.05H2.64a1,1,0,0,1-.42-.08A.41.41,0,0,1,2,18.61a1.38,1.38,0,0,1,0-.38V14.68a.62.62,0,0,1,.15-.46A.66.66,0,0,1,2.62,14.08Zm.39.78v3.28H4.17a1.63,1.63,0,0,0,.3-.07.93.93,0,0,0,.26-.15,1.75,1.75,0,0,0,.51-1.43A2,2,0,0,0,5,15.41,1,1,0,0,0,4.47,15a2.62,2.62,0,0,0-.79-.1Z" fill="#fff"/><path d="M8.9,14a2.64,2.64,0,0,1,1.33.31,2,2,0,0,1,.84.86,2.92,2.92,0,0,1,.29,1.32,3,3,0,0,1-.16,1,2.15,2.15,0,0,1-.47.8,2.08,2.08,0,0,1-.77.51,2.8,2.8,0,0,1-1,.18,2.89,2.89,0,0,1-1-.18,2.14,2.14,0,0,1-.77-.52,2.07,2.07,0,0,1-.47-.8,3,3,0,0,1-.16-1,3.13,3.13,0,0,1,.17-1,2.24,2.24,0,0,1,.47-.79,2.28,2.28,0,0,1,.77-.5A3,3,0,0,1,8.9,14Zm1.43,2.49a2.16,2.16,0,0,0-.17-.92A1.29,1.29,0,0,0,9.65,15a1.45,1.45,0,0,0-.75-.2,1.47,1.47,0,0,0-.56.11,1.16,1.16,0,0,0-.44.32,1.41,1.41,0,0,0-.3.54,2.41,2.41,0,0,0-.1.74,2.45,2.45,0,0,0,.1.74,1.45,1.45,0,0,0,.3.55,1.37,1.37,0,0,0,.45.33,1.3,1.3,0,0,0,.56.11A1.33,1.33,0,0,0,9.62,18a1.29,1.29,0,0,0,.52-.58A2.13,2.13,0,0,0,10.33,16.49Z" fill="#fff"/><path d="M16,17.39a1.42,1.42,0,0,1-.11.5,1.76,1.76,0,0,1-.37.53,2,2,0,0,1-.65.42A2.31,2.31,0,0,1,14,19a3.26,3.26,0,0,1-.72-.07,2.34,2.34,0,0,1-.59-.23,2.22,2.22,0,0,1-.48-.4,2.66,2.66,0,0,1-.34-.51,3,3,0,0,1-.21-.6,3.73,3.73,0,0,1-.07-.68,2.89,2.89,0,0,1,.18-1.05A2.17,2.17,0,0,1,13,14.17,2.6,2.6,0,0,1,14,14a2.45,2.45,0,0,1,1.08.23,2,2,0,0,1,.73.58,1.11,1.11,0,0,1,.25.65.41.41,0,0,1-.12.3.38.38,0,0,1-.3.13.4.4,0,0,1-.29-.09,1.32,1.32,0,0,1-.22-.31,1.43,1.43,0,0,0-.46-.53,1.16,1.16,0,0,0-.66-.18,1.19,1.19,0,0,0-1,.46,2,2,0,0,0-.37,1.3,2.33,2.33,0,0,0,.16.94,1.23,1.23,0,0,0,.46.56,1.36,1.36,0,0,0,.71.18,1.23,1.23,0,0,0,.73-.21,1.26,1.26,0,0,0,.46-.61.82.82,0,0,1,.16-.31.36.36,0,0,1,.3-.13.42.42,0,0,1,.31.13A.38.38,0,0,1,16,17.39Z" fill="#fff"/><path d="M16.3,18l1.11-1.58L16.47,15a2.71,2.71,0,0,1-.2-.35.74.74,0,0,1-.06-.28.33.33,0,0,1,.12-.25.5.5,0,0,1,.32-.11.41.41,0,0,1,.32.12,2.9,2.9,0,0,1,.33.45l.75,1.17.8-1.17.17-.26a.84.84,0,0,1,.13-.17A.53.53,0,0,1,19.3,14a.48.48,0,0,1,.18,0,.45.45,0,0,1,.31.11.35.35,0,0,1,.13.26,1.16,1.16,0,0,1-.27.6l-1,1.43L19.73,18a2.88,2.88,0,0,1,.2.34.54.54,0,0,1,.07.26.37.37,0,0,1-.06.21.33.33,0,0,1-.16.15.48.48,0,0,1-.24.06.43.43,0,0,1-.24-.06.44.44,0,0,1-.16-.14l-.23-.33L18,17.13l-.93,1.38-.16.23a.6.6,0,0,1-.11.12.31.31,0,0,1-.15.1.46.46,0,0,1-.21,0,.44.44,0,0,1-.3-.11.41.41,0,0,1-.12-.32A1.06,1.06,0,0,1,16.3,18Z" fill="#fff"/>      
    </symbol>
    
    <symbol id="xls" viewBox="0 0 22 24">   
       <path d="M15,0H3A3,3,0,0,0,0,3V21a3,3,0,0,0,3,3H19a3,3,0,0,0,3-3V7Z" fill="#1da758"/><polyline points="15 0 15 7 22 7" fill="#79be94"/><path d="M4.28,17.77l1.27-1.89L4.48,14.19a2.89,2.89,0,0,1-.22-.42.88.88,0,0,1-.08-.34.4.4,0,0,1,.15-.3A.48.48,0,0,1,4.68,13a.5.5,0,0,1,.37.14,4.21,4.21,0,0,1,.37.54l.85,1.41.9-1.41.19-.3a1.41,1.41,0,0,1,.16-.21A.48.48,0,0,1,7.68,13a.55.55,0,0,1,.56.09.41.41,0,0,1,.14.32,1.52,1.52,0,0,1-.3.72L7,15.88l1.2,1.89a2.31,2.31,0,0,1,.23.42.75.75,0,0,1,.08.31.45.45,0,0,1-.07.25.39.39,0,0,1-.18.18A.5.5,0,0,1,8,19a.51.51,0,0,1-.28-.07.58.58,0,0,1-.18-.17l-.26-.4-1-1.61L5.19,18.41,5,18.68a1,1,0,0,1-.13.16.66.66,0,0,1-.17.12.61.61,0,0,1-.24,0,.45.45,0,0,1-.34-.13A.51.51,0,0,1,4,18.49,1.38,1.38,0,0,1,4.28,17.77Z" fill="#fff"/><path d="M9.87,13.71v4.23h2.32a.61.61,0,0,1,.43.13.47.47,0,0,1,.15.35.45.45,0,0,1-.15.35.61.61,0,0,1-.43.13H9.43a.74.74,0,0,1-.54-.17.77.77,0,0,1-.17-.55V13.71a.8.8,0,0,1,.16-.53A.51.51,0,0,1,9.29,13a.54.54,0,0,1,.42.18A.73.73,0,0,1,9.87,13.71Z" fill="#fff"/><path d="M17,17.16a1.81,1.81,0,0,1-.26.95,1.87,1.87,0,0,1-.78.65,2.79,2.79,0,0,1-1.2.24,2.77,2.77,0,0,1-1.39-.32,2,2,0,0,1-.62-.63,1.44,1.44,0,0,1-.24-.76.52.52,0,0,1,.14-.36.5.5,0,0,1,.37-.15.49.49,0,0,1,.31.11,1,1,0,0,1,.21.36,2.46,2.46,0,0,0,.23.46,1.1,1.1,0,0,0,.36.31,1.26,1.26,0,0,0,.59.12,1.28,1.28,0,0,0,.83-.25.73.73,0,0,0,.32-.6.66.66,0,0,0-.17-.47,1.19,1.19,0,0,0-.45-.28c-.18-.06-.42-.13-.72-.2a5.27,5.27,0,0,1-1-.34,1.58,1.58,0,0,1-.65-.54,1.33,1.33,0,0,1-.25-.84,1.47,1.47,0,0,1,.26-.85,1.59,1.59,0,0,1,.74-.57,3,3,0,0,1,1.13-.2,2.67,2.67,0,0,1,.9.13,2.11,2.11,0,0,1,.63.35,1.56,1.56,0,0,1,.37.47,1.15,1.15,0,0,1,.11.47.57.57,0,0,1-.14.37.44.44,0,0,1-.36.17.4.4,0,0,1-.3-.1,1.43,1.43,0,0,1-.22-.33,1.6,1.6,0,0,0-.37-.51,1.11,1.11,0,0,0-.7-.18A1.19,1.19,0,0,0,14,14a.61.61,0,0,0-.27.49.53.53,0,0,0,.09.3A.75.75,0,0,0,14,15a1.61,1.61,0,0,0,.33.15l.55.15a6.89,6.89,0,0,1,.86.25,2.28,2.28,0,0,1,.66.34,1.38,1.38,0,0,1,.43.5A1.65,1.65,0,0,1,17,17.16Z" fill="#fff"/>
    </symbol>
    
    <symbol id="xlsx" viewBox="0 0 22 24">   
       <path d="M15,0H3A3,3,0,0,0,0,3V21a3,3,0,0,0,3,3H19a3,3,0,0,0,3-3V7Z" fill="#1e9253"/><polyline points="15 0 15 7 22 7" fill="#72ae86"/><path d="M7,18.32a.68.68,0,0,1,.07.26.37.37,0,0,1-.06.21.35.35,0,0,1-.17.15.54.54,0,0,1-.25.06.49.49,0,0,1-.25-.06.47.47,0,0,1-.17-.14L6,18.47l-.91-1.34-1,1.38-.16.23-.11.13a.62.62,0,0,1-.38.13.45.45,0,0,1-.31-.11A.37.37,0,0,1,3,18.58a1.08,1.08,0,0,1,.26-.6L4.42,16.4,3.44,15a2.93,2.93,0,0,1-.21-.35.74.74,0,0,1-.06-.28.31.31,0,0,1,.13-.25A.52.52,0,0,1,3.62,14a.45.45,0,0,1,.34.12,2.8,2.8,0,0,1,.34.45l.78,1.17.83-1.17.18-.26a.61.61,0,0,1,.14-.17A.42.42,0,0,1,6.38,14a.54.54,0,0,1,.19,0,.48.48,0,0,1,.32.11.32.32,0,0,1,.13.26,1.16,1.16,0,0,1-.27.6l-1,1.43L6.82,18A3.63,3.63,0,0,1,7,18.32Zm3.47-.21H8.38V14.59a.61.61,0,0,0-.14-.44A.53.53,0,0,0,7.85,14a.48.48,0,0,0-.37.15.6.6,0,0,0-.15.44v3.73a.62.62,0,0,0,.15.46.75.75,0,0,0,.5.14h2.53a.66.66,0,0,0,.4-.11.39.39,0,0,0,.13-.29.37.37,0,0,0-.14-.29A.57.57,0,0,0,10.51,18.11Zm4.27-1.26a1.12,1.12,0,0,0-.39-.42,2.4,2.4,0,0,0-.6-.28,6.59,6.59,0,0,0-.8-.21l-.5-.13a1.21,1.21,0,0,1-.3-.11.63.63,0,0,1-.23-.19.37.37,0,0,1-.09-.25.5.5,0,0,1,.25-.4,1.2,1.2,0,0,1,.66-.16,1.1,1.1,0,0,1,.64.15,1.14,1.14,0,0,1,.33.43,1.41,1.41,0,0,0,.21.27.37.37,0,0,0,.27.09.45.45,0,0,0,.33-.14.47.47,0,0,0,.14-.32.82.82,0,0,0-.11-.39,1.21,1.21,0,0,0-.34-.39,1.7,1.7,0,0,0-.57-.29,3.23,3.23,0,0,0-1.87.06,1.51,1.51,0,0,0-.68.47,1.2,1.2,0,0,0-.23.71,1.07,1.07,0,0,0,.22.7,1.53,1.53,0,0,0,.6.45,4.84,4.84,0,0,0,.94.28l.66.17a1.16,1.16,0,0,1,.41.23.53.53,0,0,1,.16.39.61.61,0,0,1-.3.51,1.3,1.3,0,0,1-.75.2,1.23,1.23,0,0,1-.55-.1,1,1,0,0,1-.33-.25,3.44,3.44,0,0,1-.21-.39.65.65,0,0,0-.2-.29.39.39,0,0,0-.28-.1.5.5,0,0,0-.34.12.46.46,0,0,0-.13.31,1.12,1.12,0,0,0,.22.63,1.62,1.62,0,0,0,.58.52,2.61,2.61,0,0,0,1.26.27A2.86,2.86,0,0,0,14,18.8a1.58,1.58,0,0,0,.71-.54,1.39,1.39,0,0,0,.24-.79A1.19,1.19,0,0,0,14.78,16.85Zm4.15,1.47a2.11,2.11,0,0,0-.21-.34l-1.1-1.58,1-1.43a1.16,1.16,0,0,0,.27-.6.34.34,0,0,0-.12-.26.52.52,0,0,0-.33-.11.54.54,0,0,0-.19,0,.42.42,0,0,0-.15.11.85.85,0,0,0-.14.17l-.18.26L17,15.74l-.77-1.17a3.56,3.56,0,0,0-.34-.45.47.47,0,0,0-.34-.12.52.52,0,0,0-.33.11.31.31,0,0,0-.13.25.61.61,0,0,0,.07.28,1.53,1.53,0,0,0,.21.35l1,1.41L15.15,18a1.08,1.08,0,0,0-.26.6.41.41,0,0,0,.13.31.48.48,0,0,0,.32.11.46.46,0,0,0,.21,0,.42.42,0,0,0,.16-.09l.12-.13.16-.23,1-1.38.91,1.34.24.33a.44.44,0,0,0,.16.14.49.49,0,0,0,.25.06.51.51,0,0,0,.25-.06.35.35,0,0,0,.17-.15.37.37,0,0,0,.06-.21A.54.54,0,0,0,18.93,18.32Z" fill="#fff"/>
    </symbol>
    
    <symbol id="pdf" viewBox="0 0 22 24"> 
        <path d="M15,0H3A3,3,0,0,0,0,3V21a3,3,0,0,0,3,3H19a3,3,0,0,0,3-3V7Z" fill="#ca3631"/><polyline points="15 0 15 7 22 7" fill="#e3767b"/><path d="M7.8,13.44a1.49,1.49,0,0,0-.6-.34,3.78,3.78,0,0,0-1-.1H4.72a.79.79,0,0,0-.55.17.78.78,0,0,0-.17.56v4.55a.79.79,0,0,0,.16.54.51.51,0,0,0,.41.18A.49.49,0,0,0,5,18.81a.77.77,0,0,0,.16-.54V16.6H6.19a2.36,2.36,0,0,0,1.59-.46,1.74,1.74,0,0,0,.53-1.37A2.06,2.06,0,0,0,8.18,14,1.54,1.54,0,0,0,7.8,13.44ZM7,15.32a.8.8,0,0,1-.42.29,2.13,2.13,0,0,1-.67.09H5.14V13.9h.78a1.39,1.39,0,0,1,1,.26.88.88,0,0,1,.22.63A.92.92,0,0,1,7,15.32ZM12,13.11A4.07,4.07,0,0,0,11,13H9.46a.73.73,0,0,0-.53.17.8.8,0,0,0-.17.56v4.33a1.89,1.89,0,0,0,.05.46A.45.45,0,0,0,9,18.8a.84.84,0,0,0,.47.1H11a4.9,4.9,0,0,0,.7,0,2.79,2.79,0,0,0,.58-.18,1.84,1.84,0,0,0,.49-.35,2.11,2.11,0,0,0,.48-.63,2.94,2.94,0,0,0,.27-.79,4.78,4.78,0,0,0,.09-1,3,3,0,0,0-.88-2.39A1.87,1.87,0,0,0,12,13.11Zm-.09,4.56a.92.92,0,0,1-.3.18,1.11,1.11,0,0,1-.34.08l-.45,0H9.91V14h.75a3.35,3.35,0,0,1,.9.11,1.18,1.18,0,0,1,.62.56,2.64,2.64,0,0,1,.25,1.31A2.25,2.25,0,0,1,11.86,17.67Zm3.35-3.75v1.51h1.88a.55.55,0,0,1,.39.12.43.43,0,0,1,.13.33.42.42,0,0,1-.13.33.57.57,0,0,1-.39.12H15.21v1.94a.84.84,0,0,1-.16.55.54.54,0,0,1-.42.18.54.54,0,0,1-.41-.18.79.79,0,0,1-.16-.55V13.73a1,1,0,0,1,.07-.42.49.49,0,0,1,.23-.24,1,1,0,0,1,.4-.07h2.7a.56.56,0,0,1,.41.13.48.48,0,0,1,0,.66.56.56,0,0,1-.41.13Z" fill="#fff"/>
    </symbol>
    
    <symbol id="jpg" viewBox="0 0 22 24"> 
        <path d="M15,0H3A3,3,0,0,0,0,3V21a3,3,0,0,0,3,3H19a3,3,0,0,0,3-3V7Z" fill="#e48c3d"/><polyline points="15 0 15 7 22 7" fill="#fff" fill-opacity="0.39"/><path d="M6.5,13.18a.8.8,0,0,1,.15.53v3a6.19,6.19,0,0,1,0,.67,2.4,2.4,0,0,1-.15.57,1.45,1.45,0,0,1-.62.74,1.91,1.91,0,0,1-1,.27,2,2,0,0,1-.93-.19,1.34,1.34,0,0,1-.6-.6,2.36,2.36,0,0,1-.2-.51A2.67,2.67,0,0,1,3,17.15a.57.57,0,0,1,.15-.42.48.48,0,0,1,.37-.15.39.39,0,0,1,.33.14.91.91,0,0,1,.18.42,4.15,4.15,0,0,0,.12.48.87.87,0,0,0,.22.32.67.67,0,0,0,.43.13c.49,0,.73-.39.73-1.15V13.71a.8.8,0,0,1,.15-.53.56.56,0,0,1,.82,0Zm4.92.91a2,2,0,0,1,.13.75A1.67,1.67,0,0,1,11,16.18a2.23,2.23,0,0,1-1.54.46h-1v1.64a.77.77,0,0,1-.16.54.48.48,0,0,1-.39.18.51.51,0,0,1-.41-.18.82.82,0,0,1-.15-.53V13.82a.71.71,0,0,1,.17-.55.69.69,0,0,1,.53-.17H9.49a3.59,3.59,0,0,1,1,.1,1.59,1.59,0,0,1,.58.33A1.45,1.45,0,0,1,11.42,14.09Zm-1,.77a.91.91,0,0,0-.21-.62,1.38,1.38,0,0,0-1-.26H8.47v1.77h.75a2.13,2.13,0,0,0,.66-.08.8.8,0,0,0,.4-.29A.89.89,0,0,0,10.42,14.86Zm6.48,1.23a.45.45,0,0,0-.26-.19,1.48,1.48,0,0,0-.39-.05H15a.53.53,0,0,0-.36.13.41.41,0,0,0-.13.32.37.37,0,0,0,.16.34.94.94,0,0,0,.47.1H16v.94a3.44,3.44,0,0,1-.69.3,2.41,2.41,0,0,1-.72.11,1.49,1.49,0,0,1-1.24-.55A2.43,2.43,0,0,1,12.88,16a2.88,2.88,0,0,1,.12-.86,1.71,1.71,0,0,1,.33-.66,1.37,1.37,0,0,1,.52-.4,1.52,1.52,0,0,1,.69-.14,1.35,1.35,0,0,1,.61.12,1.05,1.05,0,0,1,.39.29,6,6,0,0,1,.35.51.58.58,0,0,0,.18.17.49.49,0,0,0,.23.06.51.51,0,0,0,.38-.16.52.52,0,0,0,.15-.38,1.08,1.08,0,0,0-.13-.47,2,2,0,0,0-.4-.5,2,2,0,0,0-.7-.39,2.69,2.69,0,0,0-1-.16,3.3,3.3,0,0,0-1.21.21,2.54,2.54,0,0,0-.9.6,2.45,2.45,0,0,0-.56.95,4,4,0,0,0,0,2.49,2.59,2.59,0,0,0,.57.95,2.32,2.32,0,0,0,.88.59,3.11,3.11,0,0,0,1.16.21,3.51,3.51,0,0,0,1-.13,4.39,4.39,0,0,0,1-.42,1.34,1.34,0,0,0,.29-.2A.61.61,0,0,0,17,18a1.19,1.19,0,0,0,0-.36V16.54A.79.79,0,0,0,16.9,16.09Z" fill="#fff"/>
    </symbol>
    
    <symbol id="jpeg" viewBox="0 0 22 24"> 
        <path d="M15,0H3A3,3,0,0,0,0,3V21a3,3,0,0,0,3,3H19a3,3,0,0,0,3-3V7Z" fill="#cc7f40"/><polyline points="15 0 15 7 22 7" fill="#fff" fill-opacity="0.39"/><path d="M5.33,14.59v2.54a4.5,4.5,0,0,1,0,.56,1.75,1.75,0,0,1-.13.47,1.29,1.29,0,0,1-.56.62,2,2,0,0,1-1,.22,1.92,1.92,0,0,1-.85-.16,1.2,1.2,0,0,1-.55-.5,1.33,1.33,0,0,1-.18-.42A1.56,1.56,0,0,1,2,17.46a.45.45,0,0,1,.13-.35A.52.52,0,0,1,2.48,17a.38.38,0,0,1,.3.12.76.76,0,0,1,.16.35c0,.17.08.3.11.4a.63.63,0,0,0,.2.26.57.57,0,0,0,.39.11c.45,0,.67-.32.67-.95V14.59a.64.64,0,0,1,.14-.44A.47.47,0,0,1,4.82,14a.48.48,0,0,1,.37.15A.64.64,0,0,1,5.33,14.59Z" fill="#fff"/><path d="M7.93,17H7V18.4a.61.61,0,0,1-.14.45.49.49,0,0,1-.36.15.47.47,0,0,1-.37-.15A.6.6,0,0,1,6,18.41V14.68a.61.61,0,0,1,.15-.46.73.73,0,0,1,.49-.14H7.93a3.42,3.42,0,0,1,.89.09,1.27,1.27,0,0,1,.53.27,1.32,1.32,0,0,1,.34.47,1.52,1.52,0,0,1,.11.62,1.32,1.32,0,0,1-.47,1.12A2.15,2.15,0,0,1,7.93,17Zm-.25-2.21H7V16.3h.69a2,2,0,0,0,.6-.08.61.61,0,0,0,.49-.67A.73.73,0,0,0,8.58,15,1.37,1.37,0,0,0,7.68,14.82Z" fill="#fff"/><path d="M13.5,14.84H11.21V16h2.11a.5.5,0,0,1,.35.1.3.3,0,0,1,.11.26.33.33,0,0,1-.11.27.49.49,0,0,1-.35.1H11.21v1.38h2.37a.49.49,0,0,1,.36.11.37.37,0,0,1,0,.56.53.53,0,0,1-.36.11H10.82a.71.71,0,0,1-.48-.14.67.67,0,0,1-.14-.46V14.68a.83.83,0,0,1,.06-.34.41.41,0,0,1,.21-.2.88.88,0,0,1,.35-.06H13.5a.5.5,0,0,1,.36.11.36.36,0,0,1,0,.54A.5.5,0,0,1,13.5,14.84Z" fill="#fff"/><path d="M19,17v.93a.78.78,0,0,1,0,.29.39.39,0,0,1-.14.2,1,1,0,0,1-.25.17,4.13,4.13,0,0,1-.88.35,3.8,3.8,0,0,1-.92.11,3.17,3.17,0,0,1-1-.17,2.22,2.22,0,0,1-.81-.5,2.14,2.14,0,0,1-.52-.79,2.87,2.87,0,0,1-.18-1,2.82,2.82,0,0,1,.18-1,2,2,0,0,1,.51-.8,2.51,2.51,0,0,1,.82-.5A3.5,3.5,0,0,1,16.83,14a2.73,2.73,0,0,1,.89.13,2.13,2.13,0,0,1,.64.33,1.39,1.39,0,0,1,.36.42.75.75,0,0,1,.13.39.39.39,0,0,1-.15.31.46.46,0,0,1-.34.14.54.54,0,0,1-.21-.05.75.75,0,0,1-.17-.14,3.52,3.52,0,0,0-.31-.43,1.1,1.1,0,0,0-.36-.25,1.46,1.46,0,0,0-.56-.09,1.61,1.61,0,0,0-.63.11,1.32,1.32,0,0,0-.47.34,1.53,1.53,0,0,0-.3.55,2.25,2.25,0,0,0-.11.71,1.9,1.9,0,0,0,.41,1.31,1.41,1.41,0,0,0,1.13.46,2.39,2.39,0,0,0,.66-.09,3.3,3.3,0,0,0,.63-.25v-.79h-.79a.84.84,0,0,1-.43-.08.3.3,0,0,1-.14-.28.34.34,0,0,1,.12-.27.48.48,0,0,1,.33-.1h1.15a1.86,1.86,0,0,1,.36,0,.41.41,0,0,1,.24.17A.61.61,0,0,1,19,17Z" fill="#fff"/>
    </symbol>
    
    <symbol id="png" viewBox="0 0 22 24"> 
        <path d="M15,0H3A3,3,0,0,0,0,3V21a3,3,0,0,0,3,3H19a3,3,0,0,0,3-3V7Z" fill="#c94791"/><polyline points="15 0 15 7 22 7" fill="#fff" fill-opacity="0.39"/><path d="M5.28,16.64H4.19v1.64a.78.78,0,0,1-.17.54A.54.54,0,0,1,3.6,19a.57.57,0,0,1-.44-.18A.82.82,0,0,1,3,18.29V13.82a.71.71,0,0,1,.18-.55.78.78,0,0,1,.57-.17H5.28a4,4,0,0,1,1,.1,1.61,1.61,0,0,1,.62.33,1.41,1.41,0,0,1,.4.56,2,2,0,0,1,.14.75,1.65,1.65,0,0,1-.55,1.34A2.52,2.52,0,0,1,5.28,16.64ZM5,14h-.8v1.77H5a2.32,2.32,0,0,0,.7-.08.85.85,0,0,0,.43-.29.82.82,0,0,0,.15-.52A.84.84,0,0,0,6,14.24,1.53,1.53,0,0,0,5,14Z" fill="#fff"/><path d="M9.49,13.7l2.29,3.42V13.67a.73.73,0,0,1,.14-.5.56.56,0,0,1,.8,0,.73.73,0,0,1,.15.5v4.57c0,.51-.21.76-.64.76a.84.84,0,0,1-.29-.05.58.58,0,0,1-.24-.14,1.55,1.55,0,0,1-.21-.23l-.19-.27L9.07,14.93v3.4a.68.68,0,0,1-.16.5.53.53,0,0,1-.4.17.51.51,0,0,1-.4-.17.75.75,0,0,1-.16-.5V13.85A1.32,1.32,0,0,1,8,13.4a.63.63,0,0,1,.25-.29A.76.76,0,0,1,8.65,13a.78.78,0,0,1,.28.05.9.9,0,0,1,.2.14,1.72,1.72,0,0,1,.17.23Z" fill="#fff"/><path d="M19,16.54v1.11A1.63,1.63,0,0,1,19,18a.56.56,0,0,1-.17.24,1.42,1.42,0,0,1-.3.2,5,5,0,0,1-1,.42,4.1,4.1,0,0,1-1.08.13,3.45,3.45,0,0,1-1.23-.21,2.51,2.51,0,0,1-.95-.59,2.66,2.66,0,0,1-.6-.95,3.88,3.88,0,0,1,0-2.49,2.66,2.66,0,0,1,.6-.95,2.74,2.74,0,0,1,1-.6A3.71,3.71,0,0,1,16.46,13a3.13,3.13,0,0,1,1.05.16,2.25,2.25,0,0,1,.74.39,2,2,0,0,1,.43.5,1.11,1.11,0,0,1,.14.47.5.5,0,0,1-.17.38.53.53,0,0,1-.39.16A.54.54,0,0,1,18,15a.55.55,0,0,1-.2-.17,5.38,5.38,0,0,0-.37-.51A1,1,0,0,0,17,14a1.56,1.56,0,0,0-.66-.12,1.75,1.75,0,0,0-.74.14,1.56,1.56,0,0,0-.55.4,1.9,1.9,0,0,0-.36.66,2.88,2.88,0,0,0-.12.86,2.32,2.32,0,0,0,.48,1.57,1.62,1.62,0,0,0,1.32.55,2.83,2.83,0,0,0,.78-.11,4,4,0,0,0,.73-.3v-.94H17a1.07,1.07,0,0,1-.5-.1.35.35,0,0,1-.17-.34.39.39,0,0,1,.14-.32.57.57,0,0,1,.39-.13h1.34a1.75,1.75,0,0,1,.43.05.47.47,0,0,1,.27.19A.78.78,0,0,1,19,16.54Z" fill="#fff"/>
    </symbol>
    
    <symbol id="svg" viewBox="0 0 22 24"> 
        <path d="M15,0H3A3,3,0,0,0,0,3V21a3,3,0,0,0,3,3H19a3,3,0,0,0,3-3V7Z" fill="#e4c148"/><polyline points="15 0 15 7 22 7" fill="#fff" fill-opacity="0.39"/><path d="M7.65,16.42a1.53,1.53,0,0,1,.16.74,1.66,1.66,0,0,1-.28.95,1.84,1.84,0,0,1-.83.65A3.16,3.16,0,0,1,5.41,19a3.09,3.09,0,0,1-1.48-.32,1.93,1.93,0,0,1-.67-.63A1.39,1.39,0,0,1,3,17.29a.49.49,0,0,1,.15-.36.57.57,0,0,1,.4-.15.52.52,0,0,1,.33.11,1,1,0,0,1,.23.36,2,2,0,0,0,.25.46,1,1,0,0,0,.38.31,1.43,1.43,0,0,0,.64.12,1.41,1.41,0,0,0,.88-.25.71.71,0,0,0,.34-.6.63.63,0,0,0-.18-.47,1.24,1.24,0,0,0-.48-.28c-.19-.06-.45-.13-.77-.2A6.28,6.28,0,0,1,4.07,16a1.81,1.81,0,0,1-.7-.54,1.33,1.33,0,0,1-.25-.84,1.41,1.41,0,0,1,.27-.85,1.64,1.64,0,0,1,.79-.57A3.41,3.41,0,0,1,5.39,13a3.12,3.12,0,0,1,1,.13,2.22,2.22,0,0,1,.67.35,1.7,1.7,0,0,1,.4.47,1,1,0,0,1,.12.47.5.5,0,0,1-.16.37A.47.47,0,0,1,7,15a.44.44,0,0,1-.32-.1,1.41,1.41,0,0,1-.24-.33,1.4,1.4,0,0,0-.4-.51,1.2,1.2,0,0,0-.74-.18,1.37,1.37,0,0,0-.77.19.6.6,0,0,0-.29.49.54.54,0,0,0,.1.3,1,1,0,0,0,.27.21,1.84,1.84,0,0,0,.36.15l.58.15a8.85,8.85,0,0,1,.93.25,2.6,2.6,0,0,1,.71.34A1.44,1.44,0,0,1,7.65,16.42Zm5.27-3.34a.6.6,0,0,0-.29-.08.51.51,0,0,0-.34.1.6.6,0,0,0-.18.21c0,.09-.09.23-.16.43l-1.38,3.92L9.2,13.77a2.87,2.87,0,0,0-.26-.59A.53.53,0,0,0,8.49,13a.57.57,0,0,0-.42.17.47.47,0,0,0-.17.36,1.68,1.68,0,0,0,0,.2,1.29,1.29,0,0,0,.07.21c0,.07,0,.14.08.2L9.51,17.9a4.09,4.09,0,0,0,.16.42,1.83,1.83,0,0,0,.18.34.85.85,0,0,0,.28.25.87.87,0,0,0,.42.09.82.82,0,0,0,.42-.1.78.78,0,0,0,.27-.24,1.56,1.56,0,0,0,.18-.34c.05-.13.11-.27.16-.42l1.47-3.79c0-.07,0-.13.07-.2a.66.66,0,0,0,.06-.2.62.62,0,0,0,0-.18.46.46,0,0,0-.08-.25A.51.51,0,0,0,12.92,13.08Zm6,3a.48.48,0,0,0-.29-.19,1.75,1.75,0,0,0-.43-.05H16.78a.62.62,0,0,0-.4.13.39.39,0,0,0-.15.32.36.36,0,0,0,.18.34,1.14,1.14,0,0,0,.52.1h.95v.94a4.27,4.27,0,0,1-.76.3,3,3,0,0,1-.8.11A1.73,1.73,0,0,1,15,17.54,2.32,2.32,0,0,1,14.46,16a2.59,2.59,0,0,1,.13-.86,1.75,1.75,0,0,1,.36-.66,1.64,1.64,0,0,1,.57-.4,1.87,1.87,0,0,1,.76-.14A1.63,1.63,0,0,1,17,14a1.13,1.13,0,0,1,.43.29,5.16,5.16,0,0,1,.38.51A.68.68,0,0,0,18,15a.54.54,0,0,0,.25.06.56.56,0,0,0,.41-.16.47.47,0,0,0,.17-.38,1.11,1.11,0,0,0-.14-.47,1.87,1.87,0,0,0-.45-.5,2.26,2.26,0,0,0-.76-.39A3.31,3.31,0,0,0,16.38,13a3.91,3.91,0,0,0-1.33.21,2.7,2.7,0,0,0-1,.6,2.57,2.57,0,0,0-.62.95A3.55,3.55,0,0,0,13.22,16a3.35,3.35,0,0,0,.22,1.25A2.55,2.55,0,0,0,15,18.79a3.64,3.64,0,0,0,1.27.21,4.33,4.33,0,0,0,1.11-.13,5.3,5.3,0,0,0,1.06-.42,1.51,1.51,0,0,0,.31-.2A.54.54,0,0,0,19,18a1.15,1.15,0,0,0,.05-.36V16.54A.78.78,0,0,0,18.89,16.09Z" fill="#fff"/>
    </symbol>
    
    <symbol id="gif" viewBox="0 0 22 24"> 
        <path d="M15,0H3A3,3,0,0,0,0,3V21a3,3,0,0,0,3,3H19a3,3,0,0,0,3-3V7Z" fill="#8c5a9e"/><polyline points="15 0 15 7 22 7" fill="#fff" fill-opacity="0.39"/><path d="M9.46,16.54v1.11a1.19,1.19,0,0,1,0,.36.54.54,0,0,1-.16.24,1.13,1.13,0,0,1-.29.2,4.87,4.87,0,0,1-1,.42,3.87,3.87,0,0,1-1,.13,3.29,3.29,0,0,1-1.2-.21,2.51,2.51,0,0,1-.93-.59,2.61,2.61,0,0,1-.58-.95A3.56,3.56,0,0,1,4,16a3.79,3.79,0,0,1,.2-1.24,2.61,2.61,0,0,1,.58-.95,2.66,2.66,0,0,1,1-.6A3.52,3.52,0,0,1,7,13a3,3,0,0,1,1,.16,2.24,2.24,0,0,1,.72.39,2.11,2.11,0,0,1,.42.5,1.11,1.11,0,0,1,.14.47.55.55,0,0,1-.55.54A.48.48,0,0,1,8.5,15a.65.65,0,0,1-.2-.17,4.15,4.15,0,0,0-.36-.51,1,1,0,0,0-.4-.29,1.49,1.49,0,0,0-.64-.12,1.65,1.65,0,0,0-.72.14,1.52,1.52,0,0,0-.54.4,1.89,1.89,0,0,0-.35.66,3.26,3.26,0,0,0-.11.86,2.37,2.37,0,0,0,.46,1.57,1.59,1.59,0,0,0,1.29.55A2.56,2.56,0,0,0,7.68,18a3.67,3.67,0,0,0,.72-.3v-.94H7.5a1.06,1.06,0,0,1-.49-.1.37.37,0,0,1-.16-.34A.39.39,0,0,1,7,16a.54.54,0,0,1,.37-.13H8.68a1.58,1.58,0,0,1,.41.05.47.47,0,0,1,.27.19A.79.79,0,0,1,9.46,16.54Z" fill="#fff"/><path d="M10.1,18.28V13.71a.75.75,0,0,1,.16-.53.51.51,0,0,1,.41-.18.52.52,0,0,1,.42.18.73.73,0,0,1,.17.53v4.57a.78.78,0,0,1-.17.54.52.52,0,0,1-.42.18.52.52,0,0,1-.41-.18A.77.77,0,0,1,10.1,18.28Z" fill="#fff"/><path d="M15.45,14H13.17v1.48h1.91a.54.54,0,0,1,.39.12.42.42,0,0,1,.14.32.4.4,0,0,1-.14.32.57.57,0,0,1-.39.12H13.17v1.91a.79.79,0,0,1-.16.54.58.58,0,0,1-.84,0,.77.77,0,0,1-.16-.54V13.82a.94.94,0,0,1,.07-.41.47.47,0,0,1,.24-.24.93.93,0,0,1,.4-.07h2.73a.62.62,0,0,1,.42.12.44.44,0,0,1,.13.33.42.42,0,0,1-.13.33A.62.62,0,0,1,15.45,14Z" fill="#fff"/>
    </symbol>

    <symbol id="tiff" viewBox="0 0 22 24"> 
        <path d="M15,0H3A3,3,0,0,0,0,3V21a3,3,0,0,0,3,3H19a3,3,0,0,0,3-3V7Z" fill="#7d86be"/><polyline points="15 0 15 7 22 7" fill="#fff" fill-opacity="0.39"/><path d="M7.27,14.89H6V18.4a.55.55,0,0,1-.16.45.56.56,0,0,1-.41.15A.6.6,0,0,1,5,18.85a.58.58,0,0,1-.16-.45V14.89H3.58a.77.77,0,0,1-.44-.11A.36.36,0,0,1,3,14.49a.34.34,0,0,1,.15-.3.74.74,0,0,1,.43-.11H7.27a.75.75,0,0,1,.44.11.37.37,0,0,1,.15.3.34.34,0,0,1-.15.29A.77.77,0,0,1,7.27,14.89ZM8.33,18.4V14.59a.6.6,0,0,1,1-.44.54.54,0,0,1,.16.44V18.4a.58.58,0,0,1-.16.45.66.66,0,0,1-.84,0A.61.61,0,0,1,8.33,18.4Zm5.61-3.56H11.66v1.23h1.91a.67.67,0,0,1,.39.1.32.32,0,0,1,.13.27.31.31,0,0,1-.13.27.63.63,0,0,1-.39.1H11.66V18.4a.55.55,0,0,1-.16.45.66.66,0,0,1-.84,0,.61.61,0,0,1-.16-.45V14.68a.68.68,0,0,1,.08-.34.42.42,0,0,1,.23-.2,1.12,1.12,0,0,1,.4-.06h2.73a.65.65,0,0,1,.41.11.33.33,0,0,1,0,.54A.65.65,0,0,1,13.94,14.84Zm4.52,0H16.17v1.23h1.91a.65.65,0,0,1,.39.1.33.33,0,0,1,.14.27.32.32,0,0,1-.14.27.63.63,0,0,1-.39.1H16.17V18.4a.55.55,0,0,1-.16.45.59.59,0,0,1-.41.15.57.57,0,0,1-.42-.15A.58.58,0,0,1,15,18.4V14.68a.68.68,0,0,1,.08-.34.45.45,0,0,1,.23-.2,1.16,1.16,0,0,1,.4-.06h2.74a.62.62,0,0,1,.4.11.33.33,0,0,1,0,.54A.62.62,0,0,1,18.46,14.84Z" fill="#fff"/>
    </symbol>

    <symbol id="webp" viewBox="0 0 22 24"> 
        <polyline points="15 0 15 7 22 7" fill="#fff" fill-opacity="0.39"/><path d="M6.87,18.61,6.61,18H4.4l-.26.66a2.29,2.29,0,0,1-.26.51.42.42,0,0,1-.35.14.53.53,0,0,1-.37-.15A.4.4,0,0,1,3,18.81a.6.6,0,0,1,0-.22,3,3,0,0,1,.12-.31L4.55,15l.14-.34a1.63,1.63,0,0,1,.18-.33.76.76,0,0,1,.25-.22.94.94,0,0,1,.76,0,.75.75,0,0,1,.25.21,1.56,1.56,0,0,1,.16.28l.17.39,1.42,3.3A1.54,1.54,0,0,1,8,18.8a.46.46,0,0,1-.15.33.55.55,0,0,1-.38.15.52.52,0,0,1-.23-.05.44.44,0,0,1-.15-.12A.76.76,0,0,1,7,18.88,2.86,2.86,0,0,1,6.87,18.61ZM4.69,17.2H6.31l-.82-2.11ZM9,14.68l1.23,3.42,1.23-3.45a2.24,2.24,0,0,1,.15-.37.55.55,0,0,1,.15-.2.57.57,0,0,1,.31-.08.48.48,0,0,1,.26.07.52.52,0,0,1,.19.17.38.38,0,0,1,.07.22,1.11,1.11,0,0,1,0,.17l-.06.17-.07.18-1.31,3.33c-.05.13-.1.25-.14.37a2.14,2.14,0,0,1-.17.3.61.61,0,0,1-.24.21.85.85,0,0,1-.76,0A.72.72,0,0,1,9.59,19a1.79,1.79,0,0,1-.16-.31c0-.11-.09-.23-.14-.36L8,15a1.34,1.34,0,0,1-.07-.18,1.42,1.42,0,0,1-.09-.36A.4.4,0,0,1,8,14.15.5.5,0,0,1,8.38,14a.46.46,0,0,1,.4.16A2.94,2.94,0,0,1,9,14.68Zm4.13,4v-4a.65.65,0,0,1,.15-.47.54.54,0,0,1,.4-.16.55.55,0,0,1,.4.15.69.69,0,0,1,.15.48v4a.65.65,0,0,1-.15.47.56.56,0,0,1-.4.16.58.58,0,0,1-.4-.16A.66.66,0,0,1,13.15,18.65Zm5.33-3.77H16.31v1.31h1.81a.58.58,0,0,1,.38.1.39.39,0,0,1,.13.29.36.36,0,0,1-.13.28.59.59,0,0,1-.38.1H16.31v1.69a.65.65,0,0,1-.15.47.56.56,0,0,1-.4.16.53.53,0,0,1-.39-.16.61.61,0,0,1-.16-.47V14.72a.74.74,0,0,1,.07-.36.41.41,0,0,1,.22-.21,1,1,0,0,1,.38-.06h2.6a.54.54,0,0,1,.39.11.34.34,0,0,1,.13.28.35.35,0,0,1-.13.29A.54.54,0,0,1,18.48,14.88Z" fill="#fff"/><path d="M15,0H3A3,3,0,0,0,0,3V21a3,3,0,0,0,3,3H19a3,3,0,0,0,3-3V7Z" fill="#96bc2e"/><polyline points="15 0 15 7 22 7" fill="#fff" fill-opacity="0.39"/><path d="M5.8,18.16,5,15.26l-.78,2.9a4.5,4.5,0,0,1-.15.47.61.61,0,0,1-.18.26.57.57,0,0,1-.36.11.52.52,0,0,1-.48-.26A1.1,1.1,0,0,1,3,18.45c0-.12-.06-.22-.08-.32l-.8-3.25A1.84,1.84,0,0,1,2,14.45a.41.41,0,0,1,.13-.32A.42.42,0,0,1,2.45,14a.37.37,0,0,1,.36.17,2.26,2.26,0,0,1,.16.5l.63,2.82.7-2.64a4.55,4.55,0,0,1,.14-.46.6.6,0,0,1,.2-.27A.56.56,0,0,1,5,14a.54.54,0,0,1,.38.12.64.64,0,0,1,.19.26c0,.1.08.25.14.47l.71,2.64.63-2.82c0-.15.06-.26.08-.35a.74.74,0,0,1,.14-.22.39.39,0,0,1,.29-.1.41.41,0,0,1,.32.13.42.42,0,0,1,.14.32,2.11,2.11,0,0,1-.08.43l-.79,3.25c-.06.22-.1.38-.14.49a.58.58,0,0,1-.18.26.52.52,0,0,1-.36.12.57.57,0,0,1-.36-.11.67.67,0,0,1-.19-.26C5.91,18.54,5.86,18.38,5.8,18.16Zm5.52-3.32H9.13V16h2a.45.45,0,0,1,.33.1.3.3,0,0,1,.11.26.36.36,0,0,1-.1.27.49.49,0,0,1-.34.1h-2v1.38h2.26a.48.48,0,0,1,.35.11.41.41,0,0,1,0,.56.52.52,0,0,1-.35.11H8.76a.65.65,0,0,1-.46-.14.67.67,0,0,1-.14-.46V14.68a.83.83,0,0,1,.06-.34.43.43,0,0,1,.2-.2.83.83,0,0,1,.34-.06h2.56a.48.48,0,0,1,.34.11.39.39,0,0,1,0,.54A.48.48,0,0,1,11.32,14.84Zm2.79,4.08H12.65a.57.57,0,0,1-.45-.15.58.58,0,0,1-.14-.45V14.68a.67.67,0,0,1,.14-.46.62.62,0,0,1,.45-.14H14.2a3.33,3.33,0,0,1,.59.05,1.1,1.1,0,0,1,.45.16,1.19,1.19,0,0,1,.5.61,1.05,1.05,0,0,1,.07.4,1.12,1.12,0,0,1-.72,1.06A1.18,1.18,0,0,1,16,17.54a1.32,1.32,0,0,1-.21.73,1.19,1.19,0,0,1-.56.48,2.14,2.14,0,0,1-.5.13A6.15,6.15,0,0,1,14.11,18.92ZM13,14.82v1.25h.89a2,2,0,0,0,.56-.07.53.53,0,0,0,.3-.27.61.61,0,0,0,.08-.3.49.49,0,0,0-.26-.49,1.92,1.92,0,0,0-.78-.12Zm1,1.95H13v1.41h1c.65,0,1-.24,1-.71a.57.57,0,0,0-.25-.53A1.43,1.43,0,0,0,14,16.77Zm4.17.26h-.89V18.4a.65.65,0,0,1-.14.45.43.43,0,0,1-.34.15.46.46,0,0,1-.36-.15.64.64,0,0,1-.13-.44V14.68a.61.61,0,0,1,.15-.46.67.67,0,0,1,.46-.14h1.25a3.09,3.09,0,0,1,.85.09,1.16,1.16,0,0,1,.5.27,1.29,1.29,0,0,1,.33.47,1.75,1.75,0,0,1,.11.62,1.37,1.37,0,0,1-.45,1.12A2,2,0,0,1,18.21,17ZM18,14.82h-.65V16.3H18a1.93,1.93,0,0,0,.58-.08A.68.68,0,0,0,18.9,16a.74.74,0,0,0,.12-.44.73.73,0,0,0-.19-.52A1.24,1.24,0,0,0,18,14.82Z" fill="#fff"/>
    </symbol>

    <symbol id="avif" viewBox="0 0 22 24"> 
        <path d="M15,0H3A3,3,0,0,0,0,3V21a3,3,0,0,0,3,3H19a3,3,0,0,0,3-3V7Z" fill="#e53c89"/><polyline points="15 0 15 7 22 7" fill="#fff" fill-opacity="0.39"/><path d="M6.87,18.37l-.26-.61H4.4l-.26.62a1.84,1.84,0,0,1-.26.49.42.42,0,0,1-.35.13.57.57,0,0,1-.37-.14.37.37,0,0,1-.16-.3.52.52,0,0,1,0-.21,2.28,2.28,0,0,1,.12-.29l1.39-3.14.14-.32a1.82,1.82,0,0,1,.18-.32.71.71,0,0,1,.25-.2.94.94,0,0,1,.76,0,.63.63,0,0,1,.25.2,1.4,1.4,0,0,1,.16.26l.17.37L7.88,18a1.42,1.42,0,0,1,.16.52.42.42,0,0,1-.15.31.59.59,0,0,1-.38.14.53.53,0,0,1-.23,0,.58.58,0,0,1-.15-.11A.84.84,0,0,1,7,18.63ZM4.69,17H6.31l-.82-2ZM9,14.64l1.23,3.24,1.23-3.26a2.45,2.45,0,0,1,.15-.36.5.5,0,0,1,.15-.18.57.57,0,0,1,.31-.08.58.58,0,0,1,.26.06.52.52,0,0,1,.19.17.35.35,0,0,1,.07.21,1,1,0,0,1,0,.16l-.06.16c0,.05,0,.11-.07.17l-1.31,3.16c-.05.12-.1.23-.14.34a1.58,1.58,0,0,1-.17.29.68.68,0,0,1-.24.2.94.94,0,0,1-.76,0,.82.82,0,0,1-.25-.2,2,2,0,0,1-.16-.29c0-.11-.09-.22-.14-.34L8,15a.87.87,0,0,1-.07-.17.49.49,0,0,1-.06-.17.61.61,0,0,1,0-.16A.38.38,0,0,1,8,14.14.54.54,0,0,1,8.38,14a.48.48,0,0,1,.4.15A3.2,3.2,0,0,1,9,14.64Zm4.13,3.76V14.59a.6.6,0,0,1,.15-.44.57.57,0,0,1,.4-.15.55.55,0,0,1,.4.15.57.57,0,0,1,.15.44V18.4a.61.61,0,0,1-.15.45.55.55,0,0,1-.4.15.57.57,0,0,1-.4-.15A.61.61,0,0,1,13.15,18.4Zm5.33-3.56H16.31v1.23h1.81a.64.64,0,0,1,.38.1.35.35,0,0,1,.13.27.34.34,0,0,1-.13.27.59.59,0,0,1-.38.1H16.31V18.4a.58.58,0,0,1-.15.45.55.55,0,0,1-.4.15.53.53,0,0,1-.39-.15.58.58,0,0,1-.16-.45V14.68a.69.69,0,0,1,.07-.34.43.43,0,0,1,.22-.2,1,1,0,0,1,.38-.06h2.6a.59.59,0,0,1,.39.11.35.35,0,0,1,0,.54A.59.59,0,0,1,18.48,14.84Z" fill="#fff"/>
    </symbol>
    
    <symbol id="js" viewBox="0 0 22 24"> 
        <path d="M15,0H3A3,3,0,0,0,0,3V21a3,3,0,0,0,3,3H19a3,3,0,0,0,3-3V7Z" fill="#eea741"/><polyline points="15 0 15 7 22 7" fill="#fff" fill-opacity="0.39"/><path d="M9.85,13.71v3a4.22,4.22,0,0,1,0,.67,2,2,0,0,1-.15.57,1.51,1.51,0,0,1-.65.74A2.12,2.12,0,0,1,7.9,19a2.2,2.2,0,0,1-1-.19,1.47,1.47,0,0,1-.64-.6,2.36,2.36,0,0,1-.2-.51A2.15,2.15,0,0,1,6,17.15a.52.52,0,0,1,.55-.57.45.45,0,0,1,.35.14.91.91,0,0,1,.18.42,3.68,3.68,0,0,0,.14.48.77.77,0,0,0,.22.32.75.75,0,0,0,.45.13c.52,0,.78-.39.78-1.15V13.71a.8.8,0,0,1,.16-.53A.53.53,0,0,1,9.25,13a.56.56,0,0,1,.44.18A.8.8,0,0,1,9.85,13.71Z" fill="#fff"/><path d="M15,17.16a1.73,1.73,0,0,1-.27.95,1.9,1.9,0,0,1-.79.65A3,3,0,0,1,12.7,19a2.87,2.87,0,0,1-1.42-.32,2,2,0,0,1-.64-.63,1.46,1.46,0,0,1-.25-.76.49.49,0,0,1,.15-.36.52.52,0,0,1,.38-.15.47.47,0,0,1,.31.11.89.89,0,0,1,.22.36,3.22,3.22,0,0,0,.24.46,1.1,1.1,0,0,0,.36.31,1.61,1.61,0,0,0,1.47-.13.73.73,0,0,0,.32-.6.66.66,0,0,0-.17-.47,1.23,1.23,0,0,0-.46-.28c-.19-.06-.43-.13-.74-.2A5.64,5.64,0,0,1,11.42,16a1.71,1.71,0,0,1-.67-.54,1.4,1.4,0,0,1-.25-.84,1.47,1.47,0,0,1,.26-.85,1.65,1.65,0,0,1,.76-.57,3.16,3.16,0,0,1,1.16-.2,2.86,2.86,0,0,1,.93.13,2,2,0,0,1,.64.35,1.6,1.6,0,0,1,.38.47,1,1,0,0,1,.12.47.53.53,0,0,1-.15.37.45.45,0,0,1-.37.17.41.41,0,0,1-.31-.1,1.43,1.43,0,0,1-.22-.33,1.62,1.62,0,0,0-.38-.51,1.15,1.15,0,0,0-.72-.18,1.26,1.26,0,0,0-.73.19.59.59,0,0,0-.28.49.47.47,0,0,0,.1.3A.8.8,0,0,0,12,15a1.61,1.61,0,0,0,.33.15l.56.15a7.45,7.45,0,0,1,.89.25,2.4,2.4,0,0,1,.68.34,1.38,1.38,0,0,1,.43.5A1.53,1.53,0,0,1,15,17.16Z" fill="#fff"/>
    </symbol>
    
    <symbol id="css" viewBox="0 0 22 24"> 
        <path d="M15,0H3A3,3,0,0,0,0,3V21a3,3,0,0,0,3,3H19a3,3,0,0,0,3-3V7Z" fill="#1975b8"/><polyline points="15 0 15 7 22 7" fill="#fff" fill-opacity="0.39"/><path d="M8.18,17.07a1.62,1.62,0,0,1-.14.6,2.36,2.36,0,0,1-.43.63,2.16,2.16,0,0,1-.75.51A2.68,2.68,0,0,1,5.8,19,3.61,3.61,0,0,1,5,18.91a2.23,2.23,0,0,1-1.24-.75,3.06,3.06,0,0,1-.4-.61,4.16,4.16,0,0,1-.24-.73A4.12,4.12,0,0,1,3,16a3.78,3.78,0,0,1,.2-1.26,2.59,2.59,0,0,1,.59-.94,2.34,2.34,0,0,1,.89-.6A2.82,2.82,0,0,1,5.77,13,2.65,2.65,0,0,1,7,13.28a2.3,2.3,0,0,1,.85.7,1.37,1.37,0,0,1,.29.78.52.52,0,0,1-.14.35.44.44,0,0,1-.35.16.5.5,0,0,1-.34-.11,1.44,1.44,0,0,1-.25-.37,1.74,1.74,0,0,0-.54-.64,1.31,1.31,0,0,0-.76-.22,1.41,1.41,0,0,0-1.16.55,2.55,2.55,0,0,0-.43,1.57,3,3,0,0,0,.19,1.12,1.41,1.41,0,0,0,.54.67,1.46,1.46,0,0,0,.82.23,1.41,1.41,0,0,0,.85-.26,1.45,1.45,0,0,0,.53-.73,1.13,1.13,0,0,1,.19-.38.43.43,0,0,1,.36-.14A.54.54,0,0,1,8,16.7.5.5,0,0,1,8.18,17.07Z" fill="#fff"/><path d="M13.12,17.16a1.73,1.73,0,0,1-.27.95,1.8,1.8,0,0,1-.8.65,3,3,0,0,1-1.24.24,2.83,2.83,0,0,1-1.41-.32,2,2,0,0,1-.65-.63,1.46,1.46,0,0,1-.25-.76.49.49,0,0,1,.15-.36A.52.52,0,0,1,9,16.78a.5.5,0,0,1,.32.11,1,1,0,0,1,.22.36,2,2,0,0,0,.24.46.92.92,0,0,0,.36.31,1.32,1.32,0,0,0,.61.12,1.34,1.34,0,0,0,.85-.25.72.72,0,0,0,.33-.6.63.63,0,0,0-.18-.47,1.28,1.28,0,0,0-.45-.28c-.19-.06-.44-.13-.75-.2A5.64,5.64,0,0,1,9.53,16a1.71,1.71,0,0,1-.67-.54,1.55,1.55,0,0,1,0-1.69,1.57,1.57,0,0,1,.75-.57A3.18,3.18,0,0,1,10.8,13a2.84,2.84,0,0,1,.92.13,2.11,2.11,0,0,1,.65.35,1.6,1.6,0,0,1,.38.47,1,1,0,0,1,.11.47.52.52,0,0,1-.14.37.46.46,0,0,1-.37.17.41.41,0,0,1-.31-.1,1.42,1.42,0,0,1-.23-.33,1.36,1.36,0,0,0-.38-.51,1.12,1.12,0,0,0-.71-.18A1.27,1.27,0,0,0,10,14a.62.62,0,0,0-.28.49.54.54,0,0,0,.1.3.8.8,0,0,0,.26.21,1.47,1.47,0,0,0,.34.15l.56.15a8,8,0,0,1,.89.25,2.54,2.54,0,0,1,.68.34,1.38,1.38,0,0,1,.43.5A1.53,1.53,0,0,1,13.12,17.16Z" fill="#fff"/><path d="M18,17.16a1.73,1.73,0,0,1-.27.95,1.8,1.8,0,0,1-.8.65A2.9,2.9,0,0,1,15.7,19a2.84,2.84,0,0,1-1.42-.32,2,2,0,0,1-.65-.63,1.44,1.44,0,0,1-.24-.76.5.5,0,0,1,.52-.51.5.5,0,0,1,.32.11,1,1,0,0,1,.22.36,2,2,0,0,0,.24.46.92.92,0,0,0,.36.31,1.35,1.35,0,0,0,.61.12,1.32,1.32,0,0,0,.85-.25.72.72,0,0,0,.33-.6.63.63,0,0,0-.18-.47,1.19,1.19,0,0,0-.45-.28c-.19-.06-.44-.13-.75-.2A5.9,5.9,0,0,1,14.41,16a1.71,1.71,0,0,1-.67-.54,1.55,1.55,0,0,1,0-1.69,1.6,1.6,0,0,1,.76-.57,3.09,3.09,0,0,1,1.16-.2,2.8,2.8,0,0,1,.92.13,2.11,2.11,0,0,1,.65.35,1.6,1.6,0,0,1,.38.47,1,1,0,0,1,.12.47.53.53,0,0,1-.15.37.45.45,0,0,1-.37.17.41.41,0,0,1-.31-.1,1.81,1.81,0,0,1-.23-.33,1.36,1.36,0,0,0-.38-.51,1.1,1.1,0,0,0-.71-.18,1.24,1.24,0,0,0-.73.19.59.59,0,0,0-.28.49.53.53,0,0,0,.09.3.8.8,0,0,0,.26.21,1.68,1.68,0,0,0,.34.15l.56.15a7.45,7.45,0,0,1,.89.25,2.4,2.4,0,0,1,.68.34,1.38,1.38,0,0,1,.43.5A1.53,1.53,0,0,1,18,17.16Z" fill="#fff"/>
    </symbol>
    
    <symbol id="htm" viewBox="0 0 22 24"> 
        <path d="M15,0H3A3,3,0,0,0,0,3V21a3,3,0,0,0,3,3H19a3,3,0,0,0,3-3V7Z" fill="#de4f34"/><polyline points="15 0 15 7 22 7" fill="#fff" fill-opacity="0.39"/><path d="M4.2,13.71v1.66H6.78V13.71a.8.8,0,0,1,.16-.53A.57.57,0,0,1,7.37,13a.57.57,0,0,1,.44.18.73.73,0,0,1,.17.53v4.57a.78.78,0,0,1-.17.54.57.57,0,0,1-.44.18.55.55,0,0,1-.43-.18.77.77,0,0,1-.16-.54v-2H4.2v2a.78.78,0,0,1-.17.54.57.57,0,0,1-.44.18.55.55,0,0,1-.43-.18A.77.77,0,0,1,3,18.28V13.71a.75.75,0,0,1,.16-.53A.55.55,0,0,1,3.59,13a.57.57,0,0,1,.44.18A.73.73,0,0,1,4.2,13.71Z" fill="#fff"/><path d="M12.57,14.07H11.26v4.21a.74.74,0,0,1-.16.54.57.57,0,0,1-.43.18.59.59,0,0,1-.44-.18.77.77,0,0,1-.16-.54V14.07H8.76a.71.71,0,0,1-.45-.13.45.45,0,0,1-.15-.35.46.46,0,0,1,.15-.36.67.67,0,0,1,.45-.13h3.81a.68.68,0,0,1,.46.13.46.46,0,0,1,.15.36.45.45,0,0,1-.15.35A.76.76,0,0,1,12.57,14.07Z" fill="#fff"/><path d="M15.35,18l-.95-3.7v4a.7.7,0,0,1-.15.49.53.53,0,0,1-.4.17.52.52,0,0,1-.4-.16.73.73,0,0,1-.15-.5v-4.6a.58.58,0,0,1,.2-.51,1,1,0,0,1,.55-.13h.37a1.4,1.4,0,0,1,.48.06.43.43,0,0,1,.23.21,4.32,4.32,0,0,1,.16.5l.86,3.18L17,13.87a4.32,4.32,0,0,1,.16-.5.43.43,0,0,1,.23-.21,1.4,1.4,0,0,1,.48-.06h.37a1,1,0,0,1,.55.13.58.58,0,0,1,.2.51v4.6a.7.7,0,0,1-.15.49.53.53,0,0,1-.41.17.52.52,0,0,1-.39-.17.7.7,0,0,1-.15-.49v-4L17,18c-.06.24-.11.41-.15.52a.72.72,0,0,1-.21.31.66.66,0,0,1-.44.14.69.69,0,0,1-.36-.09.61.61,0,0,1-.22-.23,1.36,1.36,0,0,1-.13-.3Z" fill="#fff"/>
    </symbol>
    
    <symbol id="html" viewBox="0 0 22 24"> 
        <path d="M15,0H3A3,3,0,0,0,0,3V21a3,3,0,0,0,3,3H19a3,3,0,0,0,3-3V7Z" fill="#de4f34"/><polyline points="15 0 15 7 22 7" fill="#fff" fill-opacity="0.39"/><path d="M3,14.59V16H5.26V14.59a.6.6,0,0,1,.14-.44.53.53,0,0,1,.74,0,.57.57,0,0,1,.15.44V18.4a.61.61,0,0,1-.15.45.48.48,0,0,1-.37.15.47.47,0,0,1-.37-.15.61.61,0,0,1-.14-.45V16.78H3V18.4a.65.65,0,0,1-.14.45.52.52,0,0,1-.38.15.48.48,0,0,1-.37-.15A.65.65,0,0,1,2,18.4V14.59a.64.64,0,0,1,.14-.44A.47.47,0,0,1,2.51,14a.5.5,0,0,1,.38.15A.61.61,0,0,1,3,14.59Z" fill="#fff"/><path d="M10.24,14.89H9.12V18.4a.58.58,0,0,1-.15.45.46.46,0,0,1-.36.15.5.5,0,0,1-.38-.15.65.65,0,0,1-.14-.45V14.89H7a.62.62,0,0,1-.39-.11.35.35,0,0,1-.13-.29.36.36,0,0,1,.14-.3A.57.57,0,0,1,7,14.08h3.28a.64.64,0,0,1,.4.11.38.38,0,0,1,.13.3.35.35,0,0,1-.13.29A.64.64,0,0,1,10.24,14.89Z" fill="#fff"/><path d="M12.64,18.19l-.82-3.08v3.34a.56.56,0,0,1-.13.41.47.47,0,0,1-.35.14.44.44,0,0,1-.33-.14.56.56,0,0,1-.14-.41V14.62a.47.47,0,0,1,.18-.43.88.88,0,0,1,.47-.11h.32a1.28,1.28,0,0,1,.41.05.35.35,0,0,1,.2.18,2.87,2.87,0,0,1,.14.42l.74,2.65.74-2.65a2.87,2.87,0,0,1,.14-.42.33.33,0,0,1,.19-.18,1.4,1.4,0,0,1,.42-.05h.32a.91.91,0,0,1,.47.11.47.47,0,0,1,.17.43v3.83a.56.56,0,0,1-.13.41.48.48,0,0,1-.68,0,.56.56,0,0,1-.13-.41V15.11L14,18.19c0,.2-.1.35-.13.44a.56.56,0,0,1-.19.25.53.53,0,0,1-.37.12.74.74,0,0,1-.31-.07.69.69,0,0,1-.19-.19,1.19,1.19,0,0,1-.11-.26A2.45,2.45,0,0,1,12.64,18.19Z" fill="#fff"/><path d="M17.39,14.59v3.52h2.09a.57.57,0,0,1,.39.12.35.35,0,0,1,.13.29.36.36,0,0,1-.13.29.62.62,0,0,1-.39.11H17a.66.66,0,0,1-.48-.15.58.58,0,0,1-.15-.45V14.59a.64.64,0,0,1,.14-.44.48.48,0,0,1,.37-.15.5.5,0,0,1,.38.15A.61.61,0,0,1,17.39,14.59Z" fill="#fff"/>
    </symbol>
    
    <symbol id="xml" viewBox="0 0 22 24"> 
        <path d="M15,0H3A3,3,0,0,0,0,3V21a3,3,0,0,0,3,3H19a3,3,0,0,0,3-3V7Z" fill="#eea741"/><polyline points="15 0 15 7 22 7" fill="#fff" fill-opacity="0.39"/><path d="M3.3,17.77l1.37-1.89L3.52,14.19a2.4,2.4,0,0,1-.24-.42.73.73,0,0,1-.08-.34.4.4,0,0,1,.15-.3A.57.57,0,0,1,3.73,13a.56.56,0,0,1,.4.14,3.73,3.73,0,0,1,.4.54l.92,1.41,1-1.41.21-.3a1.41,1.41,0,0,1,.16-.21A.68.68,0,0,1,7,13a.56.56,0,0,1,.23,0,.55.55,0,0,1,.38.13.42.42,0,0,1,.15.32,1.5,1.5,0,0,1-.32.72L6.2,15.88l1.3,1.89a3.76,3.76,0,0,1,.25.42.75.75,0,0,1,.08.31.45.45,0,0,1-.07.25.44.44,0,0,1-.2.18.57.57,0,0,1-.29.07.56.56,0,0,1-.3-.07.63.63,0,0,1-.19-.17l-.28-.4L5.43,16.75,4.29,18.41l-.19.27a1.07,1.07,0,0,1-.14.16.52.52,0,0,1-.19.12.62.62,0,0,1-.25,0,.52.52,0,0,1-.37-.13A.48.48,0,0,1,3,18.49,1.35,1.35,0,0,1,3.3,17.77Z" fill="#fff"/><path d="M10.18,18l-1-3.7v4a.7.7,0,0,1-.15.49.57.57,0,0,1-.42.17.52.52,0,0,1-.4-.16.68.68,0,0,1-.16-.5v-4.6a.56.56,0,0,1,.21-.51,1,1,0,0,1,.56-.13h.38a1.49,1.49,0,0,1,.5.06.4.4,0,0,1,.23.21,2.79,2.79,0,0,1,.17.5L11,17.05l.89-3.18a2.79,2.79,0,0,1,.17-.5.4.4,0,0,1,.23-.21,1.49,1.49,0,0,1,.5-.06h.38a1,1,0,0,1,.56.13.56.56,0,0,1,.21.51v4.6a.66.66,0,0,1-.16.49.53.53,0,0,1-.41.17.55.55,0,0,1-.41-.17.7.7,0,0,1-.16-.49v-4l-1,3.7c-.07.24-.12.41-.16.52a.66.66,0,0,1-.22.31A.69.69,0,0,1,11,19a.7.7,0,0,1-.37-.09.57.57,0,0,1-.23-.23,1,1,0,0,1-.13-.3C10.25,18.26,10.21,18.15,10.18,18Z" fill="#fff"/><path d="M15.88,13.71v4.23h2.5a.7.7,0,0,1,.46.13.44.44,0,0,1,.16.35.43.43,0,0,1-.16.35.68.68,0,0,1-.46.13h-3a.82.82,0,0,1-.58-.17.73.73,0,0,1-.18-.55V13.71a.75.75,0,0,1,.17-.53.57.57,0,0,1,.44-.18.58.58,0,0,1,.45.18A.69.69,0,0,1,15.88,13.71Z" fill="#fff"/>
    </symbol>
    
    <symbol id="avi" viewBox="0 0 22 24"> 
        <path d="M15,0H3A3,3,0,0,0,0,3V21a3,3,0,0,0,3,3H19a3,3,0,0,0,3-3V7Z" fill="#47bbe0"/><polyline points="15 0 15 7 22 7" fill="#fff" fill-opacity="0.39"/><path d="M8.28,18.24,8,17.52H5.55l-.29.74a2.43,2.43,0,0,1-.29.59.47.47,0,0,1-.39.15.55.55,0,0,1-.4-.16A.49.49,0,0,1,4,18.47a.77.77,0,0,1,0-.25c0-.08.07-.2.14-.35L5.71,14.1c0-.1.1-.23.16-.39a1.81,1.81,0,0,1,.2-.37.81.81,0,0,1,.27-.25A.93.93,0,0,1,6.76,13a.91.91,0,0,1,.43.09.78.78,0,0,1,.27.24,1.65,1.65,0,0,1,.18.32q.08.16.18.45l1.57,3.74a1.74,1.74,0,0,1,.19.62.49.49,0,0,1-.18.37A.57.57,0,0,1,9,19,.6.6,0,0,1,8.74,19a.59.59,0,0,1-.18-.13,1.62,1.62,0,0,1-.14-.27C8.36,18.44,8.32,18.33,8.28,18.24ZM5.87,16.63H7.66l-.9-2.39Z" fill="#fff"/><path d="M10.39,13.77l1.36,3.89,1.37-3.92c.07-.2.12-.34.16-.43a.48.48,0,0,1,.17-.21.53.53,0,0,1,.34-.1.6.6,0,0,1,.29.08.51.51,0,0,1,.21.2.45.45,0,0,1,.07.25.58.58,0,0,1,0,.18l-.06.2-.08.2L12.75,17.9c-.05.15-.11.29-.16.42a1.56,1.56,0,0,1-.18.34.93.93,0,0,1-.27.25.87.87,0,0,1-.42.09.86.86,0,0,1-.41-.09.76.76,0,0,1-.28-.25,1.83,1.83,0,0,1-.18-.34l-.16-.42L9.26,14.14c0-.06,0-.13-.07-.2a1.29,1.29,0,0,1-.07-.21.81.81,0,0,1,0-.2.51.51,0,0,1,.17-.36A.59.59,0,0,1,9.68,13a.53.53,0,0,1,.45.18A2.87,2.87,0,0,1,10.39,13.77Z" fill="#fff"/><path d="M14.78,18.28V13.71a.75.75,0,0,1,.17-.53.57.57,0,0,1,.43-.18.58.58,0,0,1,.45.18.73.73,0,0,1,.17.53v4.57a.78.78,0,0,1-.17.54.63.63,0,0,1-.88,0A.78.78,0,0,1,14.78,18.28Z" fill="#fff"/>
    </symbol>
    
    <symbol id="mov" viewBox="0 0 22 24"> 
        <path d="M15,0H3A3,3,0,0,0,0,3V21a3,3,0,0,0,3,3H19a3,3,0,0,0,3-3V7Z" fill="#df5940"/><polyline points="15 0 15 7 22 7" fill="#fff" fill-opacity="0.39"/><path d="M4.93,18,4,14.33v4a.75.75,0,0,1-.14.49.5.5,0,0,1-.38.17.49.49,0,0,1-.38-.16.78.78,0,0,1-.14-.5v-4.6a.58.58,0,0,1,.19-.51.88.88,0,0,1,.51-.13h.35a1.27,1.27,0,0,1,.46.06.36.36,0,0,1,.21.21,3,3,0,0,1,.16.5l.81,3.18.81-3.18a4.82,4.82,0,0,1,.15-.5.41.41,0,0,1,.22-.21,1.21,1.21,0,0,1,.45-.06h.35a.89.89,0,0,1,.52.13.61.61,0,0,1,.19.51v4.6a.7.7,0,0,1-.15.49.47.47,0,0,1-.38.17.48.48,0,0,1-.37-.17.75.75,0,0,1-.14-.49v-4L6.45,18c-.06.24-.11.41-.15.52a.62.62,0,0,1-.2.31.6.6,0,0,1-.41.14.64.64,0,0,1-.34-.09.58.58,0,0,1-.21-.23,1.34,1.34,0,0,1-.12-.3Z" fill="#fff"/><path d="M11.48,13a2.82,2.82,0,0,1,1.49.37,2.26,2.26,0,0,1,.94,1A3.57,3.57,0,0,1,14.23,16a4.3,4.3,0,0,1-.17,1.23,2.68,2.68,0,0,1-.53,1,2.35,2.35,0,0,1-.86.62,3,3,0,0,1-1.16.21,2.87,2.87,0,0,1-1.17-.22,2.3,2.3,0,0,1-.87-.62,2.78,2.78,0,0,1-.52-1A4,4,0,0,1,8.77,16,3.67,3.67,0,0,1,9,14.76a2.66,2.66,0,0,1,.53-.95,2.35,2.35,0,0,1,.85-.6A3,3,0,0,1,11.48,13Zm1.61,3a2.84,2.84,0,0,0-.2-1.1,1.55,1.55,0,0,0-.56-.71,1.53,1.53,0,0,0-.85-.24,1.44,1.44,0,0,0-.62.14,1.42,1.42,0,0,0-.5.38,2.08,2.08,0,0,0-.32.65,3,3,0,0,0-.12.88,3.16,3.16,0,0,0,.12.9,1.94,1.94,0,0,0,.33.66,1.48,1.48,0,0,0,.51.4,1.56,1.56,0,0,0,.62.13,1.52,1.52,0,0,0,.8-.23,1.5,1.5,0,0,0,.57-.7A2.67,2.67,0,0,0,13.09,16Z" fill="#fff"/><path d="M15.32,13.77l1.26,3.89,1.26-3.92.15-.43a.56.56,0,0,1,.17-.21.43.43,0,0,1,.31-.1.56.56,0,0,1,.27.08.52.52,0,0,1,.19.2.45.45,0,0,1,.07.25,1.24,1.24,0,0,1,0,.18l-.06.2c0,.07-.05.13-.07.2L17.5,17.9c-.05.15-.09.29-.14.42a2.15,2.15,0,0,1-.17.34.85.85,0,0,1-.25.25.8.8,0,0,1-.39.09.74.74,0,0,1-.38-.09.89.89,0,0,1-.26-.25,2.69,2.69,0,0,1-.17-.34c-.05-.13-.09-.27-.14-.42l-1.33-3.76c0-.06,0-.13-.07-.2a1.29,1.29,0,0,1-.06-.21.81.81,0,0,1,0-.2.54.54,0,0,1,.16-.36.51.51,0,0,1,.39-.17.46.46,0,0,1,.41.18A3,3,0,0,1,15.32,13.77Z" fill="#fff"/>
    </symbol>
    
    <symbol id="mp4" viewBox="0 0 22 24"> 
        <path d="M15,0H3A3,3,0,0,0,0,3V21a3,3,0,0,0,3,3H19a3,3,0,0,0,3-3V7Z" fill="#4564a9"/><polyline points="15 0 15 7 22 7" fill="#fff" fill-opacity="0.39"/><path d="M5.12,18l-1-3.71v4a.68.68,0,0,1-.16.5.53.53,0,0,1-.41.17.53.53,0,0,1-.41-.16A.71.71,0,0,1,3,18.33V13.72a.56.56,0,0,1,.21-.51,1,1,0,0,1,.56-.13h.38a1.6,1.6,0,0,1,.51.06.39.39,0,0,1,.23.21,2.79,2.79,0,0,1,.17.5L6,17.05l.88-3.2a3.61,3.61,0,0,1,.18-.5.37.37,0,0,1,.23-.21,1.49,1.49,0,0,1,.5-.06h.38a1,1,0,0,1,.57.13.58.58,0,0,1,.2.51v4.61a.73.73,0,0,1-.15.5.57.57,0,0,1-.42.17.55.55,0,0,1-.41-.17.73.73,0,0,1-.15-.5v-4L6.78,18c-.07.24-.12.42-.16.53a.66.66,0,0,1-.22.31A.69.69,0,0,1,6,19a.7.7,0,0,1-.37-.09.63.63,0,0,1-.23-.23,1,1,0,0,1-.13-.31A3.57,3.57,0,0,1,5.12,18Z" fill="#fff"/><path d="M12,16.63H10.85v1.65a.73.73,0,0,1-.18.54.57.57,0,0,1-.44.18.6.6,0,0,1-.45-.18.77.77,0,0,1-.17-.53V13.8a.7.7,0,0,1,.19-.56.87.87,0,0,1,.59-.16H12a4.42,4.42,0,0,1,1.09.1,1.56,1.56,0,0,1,.64.33,1.45,1.45,0,0,1,.42.56,2,2,0,0,1,.14.75,1.62,1.62,0,0,1-.57,1.35A2.71,2.71,0,0,1,12,16.63ZM11.68,14h-.83v1.78h.83a2.5,2.5,0,0,0,.73-.09.8.8,0,0,0,.45-.28.94.94,0,0,0-.08-1.15A1.66,1.66,0,0,0,11.68,14Z" fill="#fff"/><path d="M17.07,18.4v-.74H15a.93.93,0,0,1-.6-.17.6.6,0,0,1-.19-.47.63.63,0,0,1,.11-.31l.12-.17.16-.19,2.21-2.82a2.64,2.64,0,0,1,.35-.4.48.48,0,0,1,.34-.13q.63,0,.63.69v3.08h.18a1.26,1.26,0,0,1,.52.08.44.44,0,0,1,0,.7.83.83,0,0,1-.47.11h-.26v.74a.61.61,0,0,1-.14.45.49.49,0,0,1-.38.15.52.52,0,0,1-.38-.15A.69.69,0,0,1,17.07,18.4Zm-1.79-1.63h1.79V14.46Z" fill="#fff"/>
    </symbol>
    
    <symbol id="video" viewBox="0 0 22 24"> 
        <path d="M15,0H3A3,3,0,0,0,0,3V21a3,3,0,0,0,3,3H19a3,3,0,0,0,3-3V7Z" fill="#db3832"/><polyline points="15 0 15 7 22 7" fill="#fff" fill-opacity="0.39"/><path d="M13.57,14l-4.24-2.6A.88.88,0,0,0,8,12.19v5.19a.88.88,0,0,0,1.33.78l4.24-2.6A.92.92,0,0,0,13.57,14Z" fill="#fff"/>
    </symbol>
    
    <symbol id="code" viewBox="0 0 22 24"> 
        <path d="M15,0H3A3,3,0,0,0,0,3V21a3,3,0,0,0,3,3H19a3,3,0,0,0,3-3V7Z" fill="#eea741"/><polyline points="15 0 15 7 22 7" fill="#fff" fill-opacity="0.39"/><path d="M7.65,13.21,5,14.51l2.63,1.3A.62.62,0,0,1,7.38,17a.58.58,0,0,1-.28-.07L3.32,15A.6.6,0,0,1,3,14.51.58.58,0,0,1,3.24,14,.29.29,0,0,1,3.35,14L7.1,12.1a.63.63,0,0,1,.84.28A.62.62,0,0,1,7.65,13.21ZM17.76,14a.29.29,0,0,0-.11-.08L13.9,12.1a.63.63,0,0,0-.84.28.62.62,0,0,0,.29.83L16,14.51l-2.63,1.3A.62.62,0,0,0,13.62,17a.58.58,0,0,0,.28-.07L17.68,15a.6.6,0,0,0,.32-.53A.58.58,0,0,0,17.76,14Zm-5.64-4a.63.63,0,0,0-.79.39L8.68,18.18a.62.62,0,0,0,.4.79.6.6,0,0,0,.26,0,.64.64,0,0,0,.53-.42l2.64-7.76A.62.62,0,0,0,12.12,10Z" fill="#fff"/>
    </symbol>
    
    <symbol id="img" viewBox="0 0 22 24"> 
       <path d="M15,0H3A3,3,0,0,0,0,3V21a3,3,0,0,0,3,3H19a3,3,0,0,0,3-3V7Z" fill="#6eb657"/><polyline points="15 0 15 7 22 7" fill="#fff" fill-opacity="0.39"/><path d="M6,10.5A1.5,1.5,0,1,1,7.5,12,1.5,1.5,0,0,1,6,10.5ZM15,12l-5,5L8,15,4,19H18Z" fill="#fff"/>
    </symbol>
    
    <symbol id="7z" viewBox="0 0 22 24"> 
        <path d="M15,0H3A3,3,0,0,0,0,3V21a3,3,0,0,0,3,3H19a3,3,0,0,0,3-3V7Z" fill="gray"/><polyline points="15 0 15 7 22 7" fill="#fff" fill-opacity="0.39"/><path d="M7.67,13h2.69a1.05,1.05,0,0,1,.57.12.47.47,0,0,1,.17.4.85.85,0,0,1-.2.45l-.47.62a8,8,0,0,0-.54.85,6.65,6.65,0,0,0-.5,1.23,4.77,4.77,0,0,0-.14.53c0,.14-.06.32-.09.55s-.06.4-.08.51a1.27,1.27,0,0,1-.24.58.57.57,0,0,1-.42.16A.51.51,0,0,1,8,18.83a.78.78,0,0,1-.15-.51A2.79,2.79,0,0,1,8,17.61a8.69,8.69,0,0,1,.35-1.07A10.66,10.66,0,0,1,9,15.26,11,11,0,0,1,9.83,14H7.67a.86.86,0,0,1-.5-.12A.45.45,0,0,1,7,13.44a.36.36,0,0,1,.18-.36A1.28,1.28,0,0,1,7.67,13Z" fill="#fff"/><path d="M14.33,15.76l-2,2.27h2.16a.54.54,0,0,1,.4.13.41.41,0,0,1,.13.32.38.38,0,0,1-.13.3.58.58,0,0,1-.4.12h-3a.71.71,0,0,1-.47-.14.49.49,0,0,1-.15-.38A.42.42,0,0,1,11,18.1a6.12,6.12,0,0,1,.45-.53l.66-.74.55-.61.42-.49.27-.34H11.68a1.6,1.6,0,0,1-.51-.06c-.12,0-.18-.15-.18-.32a.4.4,0,0,1,.14-.31.56.56,0,0,1,.37-.11H14a1.13,1.13,0,0,1,.54.1.38.38,0,0,1,.19.37.43.43,0,0,1,0,.19.53.53,0,0,1-.08.15,1.31,1.31,0,0,1-.12.15Z" fill="#fff"/>
    </symbol>
    
    <symbol id="rar" viewBox="0 0 22 24"> 
        <path d="M15,0H3A3,3,0,0,0,0,3V21a3,3,0,0,0,3,3H19a3,3,0,0,0,3-3V7Z" fill="#a9589b"/><polyline points="15 0 15 7 22 7" fill="#fff" fill-opacity="0.39"/><path d="M4.65,16.42H4.22v1.86a.79.79,0,0,1-.17.55.6.6,0,0,1-.44.17.58.58,0,0,1-.45-.18A.77.77,0,0,1,3,18.28V13.82a.73.73,0,0,1,.18-.55.79.79,0,0,1,.57-.17h2a7,7,0,0,1,.7,0,1.77,1.77,0,0,1,1,.47,1.63,1.63,0,0,1,.33.49,1.73,1.73,0,0,1,.11.6,1.43,1.43,0,0,1-.38,1,2.21,2.21,0,0,1-1.15.55,2.47,2.47,0,0,1,.62.49,7,7,0,0,1,.53.69q.23.38.36.66a1.56,1.56,0,0,1,.13.41.43.43,0,0,1-.08.23.51.51,0,0,1-.21.17.58.58,0,0,1-.3.07.65.65,0,0,1-.35-.09.91.91,0,0,1-.24-.24l-.27-.42-.49-.78a3.81,3.81,0,0,0-.47-.66,1.17,1.17,0,0,0-.42-.31A1.6,1.6,0,0,0,4.65,16.42ZM5.34,14H4.22v1.6H5.31a3.1,3.1,0,0,0,.74-.08.89.89,0,0,0,.46-.25.71.71,0,0,0,.15-.48.8.8,0,0,0-.12-.43.82.82,0,0,0-.36-.27A2.52,2.52,0,0,0,5.34,14Z" fill="#fff"/><path d="M12.35,18.24l-.28-.72H9.62l-.29.74a2.51,2.51,0,0,1-.28.59.47.47,0,0,1-.39.15.57.57,0,0,1-.41-.16.48.48,0,0,1-.17-.37.77.77,0,0,1,0-.25,3.45,3.45,0,0,1,.13-.35L9.79,14.1c0-.1.1-.23.16-.39a1.81,1.81,0,0,1,.2-.37.72.72,0,0,1,.27-.25.87.87,0,0,1,.42-.09.94.94,0,0,1,.43.09.78.78,0,0,1,.27.24,1.65,1.65,0,0,1,.18.32c0,.11.11.26.18.45l1.57,3.74a2,2,0,0,1,.19.62.49.49,0,0,1-.18.37.61.61,0,0,1-.42.17.62.62,0,0,1-.25-.05.7.7,0,0,1-.17-.13,2.67,2.67,0,0,1-.15-.27ZM9.94,16.63h1.8l-.91-2.39Z" fill="#fff"/><path d="M15.64,16.42h-.43v1.86a.74.74,0,0,1-.17.55.58.58,0,0,1-.43.17.59.59,0,0,1-.46-.18.83.83,0,0,1-.16-.54V13.82a.73.73,0,0,1,.18-.55.83.83,0,0,1,.57-.17h2a6.81,6.81,0,0,1,.7,0,1.72,1.72,0,0,1,.53.14,1.56,1.56,0,0,1,.5.33,1.46,1.46,0,0,1,.33.49,1.52,1.52,0,0,1,.11.6,1.39,1.39,0,0,1-.38,1,2.18,2.18,0,0,1-1.15.55,2.16,2.16,0,0,1,.62.49,5.76,5.76,0,0,1,.53.69q.22.38.36.66a1.24,1.24,0,0,1,.13.41.43.43,0,0,1-.08.23.55.55,0,0,1-.2.17.7.7,0,0,1-.65,0,.91.91,0,0,1-.24-.24,4,4,0,0,1-.27-.42l-.49-.78a4.44,4.44,0,0,0-.47-.66,1.26,1.26,0,0,0-.42-.31A1.66,1.66,0,0,0,15.64,16.42Zm.7-2.44H15.21v1.6H16.3A3,3,0,0,0,17,15.5a.89.89,0,0,0,.46-.25.66.66,0,0,0,.16-.48.73.73,0,0,0-.13-.43.74.74,0,0,0-.35-.27A2.52,2.52,0,0,0,16.34,14Z" fill="#fff"/>
    </symbol>
    
    <symbol id="zip" viewBox="0 0 22 24"> 
        <path d="M15,0H3A3,3,0,0,0,0,3V21a3,3,0,0,0,3,3H19a3,3,0,0,0,3-3V7Z" fill="#f8cc46"/><polyline points="15 0 15 7 22 7" fill="#fff" fill-opacity="0.39"/><path d="M6,5V6H4V5ZM4,8H6V7H4Zm0,6H6V13H4Zm4-3V10H6v1ZM8,4H6V5H8ZM8,7V6H6V7ZM8,9V8H6V9ZM4,10H6V9H4Zm0,2H6V11H4Zm4,1V12H6v1Zm0,2V14H6v1ZM4,20a1,1,0,0,0,1,1H7a1,1,0,0,0,1-1V16H4ZM4,3V4H6V3Z" fill="#3e474f"/>
    </symbol>
    
    <symbol id="music" viewBox="0 0 22 24"> 
        <path d="M15,0H3A3,3,0,0,0,0,3V21a3,3,0,0,0,3,3H19a3,3,0,0,0,3-3V7Z" fill="#5dbed3"/><polyline points="15 0 15 7 22 7" fill="#fff" fill-opacity="0.39"/><path d="M8,11V17.2c0,.19-.63-.14-1-.14-1.1,0-2,.61-2,1.44A1.75,1.75,0,0,0,7,20c1-.07,2-.58,2-1.33V12.24l5-1.48v4.45c0,.18-.63-.15-1-.15-1.1,0-2,.61-2,1.44A1.76,1.76,0,0,0,13,18c1-.08,2-.59,2-1.34V9Z" fill="#fff"/>
    </symbol>    
</svg>
