<svg xmlns="http://www.w3.org/2000/svg"> 
	
    <symbol id="markdown" viewBox="0 0 20 20">
        <path d="M6,10l4-4M2,6v8m8-8v8m6-8v8M2,6l4,4m8,2,2,2m0,0,2-2" fill="none" stroke="currentColor" stroke-linecap="round" stroke-linejoin="round" stroke-width="1.5"/>
    </symbol> 

    <symbol id="wysiwyg" viewBox="0 0 20 20">
        <path d="M4,6V4H16V6M7,16h6M10,4V16M8,10h4" fill="none" stroke="currentColor" stroke-linecap="round" stroke-linejoin="round" stroke-width="1.5"/>
    </symbol> 

    <symbol id="block" viewBox="0 0 20 20">
        <path d="M3,3H8V8H3Zm8,0V8h5V3Zm0,13h5V11H11ZM3,16H8V11H3Z" fill="none" stroke="currentColor" stroke-linecap="round" stroke-linejoin="round" stroke-width="1.5"/>
    </symbol>

    <symbol id="quick-preview" viewBox="0 0 20 20">
       <polygon points="14 8.58 9.56 9.53 12.89 1 4 12.37 8.44 11.42 5.11 19 14 8.58" fill="currentColor" />
    </symbol>

    <symbol id="full-preview-browser" viewBox="0 0 20 20">
      <path d="M3.44,7H13.56A1.35,1.35,0,0,1,15,8.22v8.56A1.35,1.35,0,0,1,13.56,18H3.44A1.35,1.35,0,0,1,2,16.78V8.22A1.35,1.35,0,0,1,3.44,7ZM6,4.22a1.12,1.12,0,0,1,.42-.86,1.6,1.6,0,0,1,1-.36H17.56a1.6,1.6,0,0,1,1,.36,1.12,1.12,0,0,1,.42.86v8.56a1.12,1.12,0,0,1-.42.86,1.6,1.6,0,0,1-1,.36" fill="none" stroke="currentColor" stroke-linecap="round" stroke-linejoin="round" stroke-width="1.5"/>
    </symbol>

    <symbol id="full-preview-monitor" viewBox="0 0 20 20">
       <path d="M3.56,3H16.44A1.56,1.56,0,0,1,18,4.56v7.88A1.56,1.56,0,0,1,16.44,14H3.56A1.56,1.56,0,0,1,2,12.44V4.56A1.56,1.56,0,0,1,3.56,3ZM7,17h6m-3-3v3" fill="none" stroke="currentColor" stroke-linecap="round" stroke-linejoin="round" stroke-width="1.5"/>
    </symbol>

    <symbol id="full-render-monitor" viewBox="0 0 20 20">
       <path d="M3.56,3H16.44A1.56,1.56,0,0,1,18,4.56v7.88A1.56,1.56,0,0,1,16.44,14H3.56A1.56,1.56,0,0,1,2,12.44V4.56A1.56,1.56,0,0,1,3.56,3ZM7,17h6m-3-3v3" fill="none" stroke="currentColor" stroke-linecap="round" stroke-linejoin="round" stroke-width="1.5"/>
       <line x1="19" y1="17" x2="1" y2="1" fill="none" stroke="currentColor" stroke-linecap="round" stroke-linejoin="round" stroke-width="1.5"/>
    </symbol>

    <symbol id="quick-render" viewBox="0 0 20 20">
       <polygon points="14 8.58 9.56 9.53 12.89 1 4 12.37 8.44 11.42 5.11 19 14 8.58" fill="currentColor" />
       <line x1="19" y1="18" x2="1" y2="1" fill="none" stroke="currentColor" stroke-linecap="round" stroke-linejoin="round" stroke-width="1.5"/>
    </symbol>
    
    <!-- Menu icons -->
    
    <symbol id="posts" viewBox="0 0 24 24" fill="none" stroke="currentColor" stroke-width="2" stroke-linecap="round" stroke-linejoin="round"><path d="M12 20h9"></path><path d="M16.5 3.5a2.121 2.121 0 0 1 3 3L7 19l-4 1 1-4L16.5 3.5z"></path>
    
    </symbol>

    <symbol id="tags" viewBox="0 0 24 24" fill="none" stroke="currentColor" stroke-width="2" stroke-linecap="round" stroke-linejoin="round"><path d="M20.59 13.41l-7.17 7.17a2 2 0 0 1-2.83 0L2 12V2h10l8.59 8.59a2 2 0 0 1 0 2.82z"></path><line x1="7" y1="7" x2="7.01" y2="7"></line>
    </symbol>

    <symbol id="menus" viewBox="0 0 24 24" fill="none" stroke="currentColor" stroke-width="2" stroke-linecap="round" stroke-linejoin="round"><line x1="3" y1="12" x2="21" y2="12"></line><line x1="3" y1="6" x2="21" y2="6"></line><line x1="3" y1="18" x2="21" y2="18"></line>
    </symbol>

    <symbol id="authors" viewBox="0 0 24 24" fill="none" stroke="currentColor" stroke-width="2" stroke-linecap="round" stroke-linejoin="round"><path d="M17 21v-2a4 4 0 0 0-4-4H5a4 4 0 0 0-4 4v2"></path><circle cx="9" cy="7" r="4"></circle><path d="M23 21v-2a4 4 0 0 0-3-3.87"></path><path d="M16 3.13a4 4 0 0 1 0 7.75"></path>
    </symbol>

    <symbol id="server" viewBox="0 0 24 24" fill="none" stroke="currentColor" stroke-width="2" stroke-linecap="round" stroke-linejoin="round"><rect x="2" y="2" width="20" height="8" rx="2" ry="2"></rect><rect x="2" y="14" width="20" height="8" rx="2" ry="2"></rect><line x1="6" y1="6" x2="6.01" y2="6"></line><line x1="6" y1="18" x2="6.01" y2="18"></line>
    </symbol>

    <symbol id="themes" viewBox="0 0 24 24" fill="none" stroke="currentColor" stroke-width="2" stroke-linecap="round" stroke-linejoin="round"><line x1="4" y1="21" x2="4" y2="14"></line><line x1="4" y1="10" x2="4" y2="3"></line><line x1="12" y1="21" x2="12" y2="12"></line><line x1="12" y1="8" x2="12" y2="3"></line><line x1="20" y1="21" x2="20" y2="16"></line><line x1="20" y1="12" x2="20" y2="3"></line><line x1="1" y1="14" x2="7" y2="14"></line><line x1="9" y1="8" x2="15" y2="8"></line><line x1="17" y1="16" x2="23" y2="16"></line>
    </symbol>

    <symbol id="settings" viewBox="0 0 24 24" fill="none" stroke="currentColor" stroke-width="2" stroke-linecap="round" stroke-linejoin="round"><circle cx="12" cy="12" r="3"></circle><path d="M19.4 15a1.65 1.65 0 0 0 .33 1.82l.06.06a2 2 0 0 1 0 2.83 2 2 0 0 1-2.83 0l-.06-.06a1.65 1.65 0 0 0-1.82-.33 1.65 1.65 0 0 0-1 1.51V21a2 2 0 0 1-2 2 2 2 0 0 1-2-2v-.09A1.65 1.65 0 0 0 9 19.4a1.65 1.65 0 0 0-1.82.33l-.06.06a2 2 0 0 1-2.83 0 2 2 0 0 1 0-2.83l.06-.06a1.65 1.65 0 0 0 .33-1.82 1.65 1.65 0 0 0-1.51-1H3a2 2 0 0 1-2-2 2 2 0 0 1 2-2h.09A1.65 1.65 0 0 0 4.6 9a1.65 1.65 0 0 0-.33-1.82l-.06-.06a2 2 0 0 1 0-2.83 2 2 0 0 1 2.83 0l.06.06a1.65 1.65 0 0 0 1.82.33H9a1.65 1.65 0 0 0 1-1.51V3a2 2 0 0 1 2-2 2 2 0 0 1 2 2v.09a1.65 1.65 0 0 0 1 1.51 1.65 1.65 0 0 0 1.82-.33l.06-.06a2 2 0 0 1 2.83 0 2 2 0 0 1 0 2.83l-.06.06a1.65 1.65 0 0 0-.33 1.82V9a1.65 1.65 0 0 0 1.51 1H21a2 2 0 0 1 2 2 2 2 0 0 1-2 2h-.09a1.65 1.65 0 0 0-1.51 1z"></path>
    </symbol>

    <symbol id="tools" viewBox="0 0 24 24" fill="none" stroke="currentColor" stroke-width="2" stroke-linecap="round" stroke-linejoin="round"><path d="M14.7 6.3a1 1 0 0 0 0 1.4l1.6 1.6a1 1 0 0 0 1.4 0l3.77-3.77a6 6 0 0 1-7.94 7.94l-6.91 6.91a2.12 2.12 0 0 1-3-3l6.91-6.91a6 6 0 0 1 7.94-7.94l-3.76 3.76z"></path>
    </symbol>

    <symbol id="bell" viewBox="0 0 23 24">
        <path d="M22.735,18.321a11.9,11.9,0,0,1-2.885-7.13C19.851,1.941,15.309,0,11.5,0S3.15,1.964,3.15,11.323A11.324,11.324,0,0,1,.28,18.306,1,1,0,0,0,1,20H22a1,1,0,0,0,.734-1.679ZM3.024,18A12.444,12.444,0,0,0,5.15,11.323C5.15,2,9.93,2,11.5,2c4.273,0,6.35,3.006,6.35,9.191A12.9,12.9,0,0,0,20.008,18ZM9,22h4a2,2,0,0,1-4,0Z" />
    </symbol>

    <symbol id="add-site" viewBox="0 0 24 24">
        <path fill="#47AA6F" d="M13.1,10.9h3.3v2.2h-3.3v3.3h-2.2v-3.3H7.6v-2.2h3.3V7.6h2.2V10.9z M23,12c0,6.1-4.9,11-11,11S1,18.1,1,12
    S5.9,1,12,1S23,5.9,23,12z M21,12c0-5-4-9-9-9s-9,4-9,9c0,5,4,9,9,9S21,17,21,12z"/>
    </symbol>

    <symbol id="add-site-mono" viewBox="0 0 24 24">
        <path d="M13.1,10.9h3.3v2.2h-3.3v3.3h-2.2v-3.3H7.6v-2.2h3.3V7.6h2.2V10.9z M23,12c0,6.1-4.9,11-11,11S1,18.1,1,12
    S5.9,1,12,1S23,5.9,23,12z M21,12c0-5-4-9-9-9s-9,4-9,9c0,5,4,9,9,9S21,17,21,12z"/>
    </symbol>

     <symbol id="upload-file" viewBox="0 0 24 24">
        <path d="M11,19h2v2h-2V19z M12,4l-7,6.6L6.5,12L11,7.7V16h2V7.7l4.5,4.3l1.5-1.4L12,4z"/>
     </symbol>

    <symbol id="move-up" viewBox="0 0 24 24" fill="none" stroke="currentColor" stroke-width="2" stroke-linecap="round" stroke-linejoin="round">
       <line x1="12" y1="19" x2="12" y2="5"></line>
       <polyline points="5 12 12 5 19 12"></polyline>
    </symbol>

    <symbol id="move-down" viewBox="0 0 24 24" fill="none" stroke="currentColor" stroke-width="2" stroke-linecap="round" stroke-linejoin="round">
       <line x1="12" y1="5" x2="12" y2="19"></line>
       <polyline points="19 12 12 19 5 12"></polyline>
    </symbol>

    <!-- Buttons icons -->

    <symbol id="sync" viewBox="0 0 19 16">
        <path d="M19,8A8,8,0,0,1,3,8H0L4,2.67,8,8H5a6,6,0,1,0,6-6,5.934,5.934,0,0,0-2.56.58L7.21.95A8.007,8.007,0,0,1,19,8Z" />
    </symbol>

    <symbol id="plus" viewBox="0 0 20 20">
        <path d="M11,9h3v2H11v3H9V11H6V9H9V6h2Zm9,1A10,10,0,1,1,10,0,10,10,0,0,1,20,10Zm-2,0a8,8,0,1,0-8,8A8.009,8.009,0,0,0,18,10Z" />
    </symbol>

    <symbol id="trash" viewBox="0 0 16 16">
        <path d="M14.3,2.91H11.5V2.18A2.14,2.14,0,0,0,9.4,0H6.6A2.14,2.14,0,0,0,4.5,2.18v.73H1.7a.73.73,0,0,0,0,1.45h.7v9.46A2.14,2.14,0,0,0,4.5,16h7a2.14,2.14,0,0,0,2.1-2.18V4.36h.7a.73.73,0,0,0,0-1.45ZM5.9,2.18a.72.72,0,0,1,.7-.73H9.4a.72.72,0,0,1,.7.73v.73H5.9Zm6.3,11.64a.71.71,0,0,1-.7.72h-7a.71.71,0,0,1-.7-.72V4.36h8.4ZM7.3,7.27v4.37a.7.7,0,1,1-1.4,0V7.27a.7.7,0,1,1,1.4,0Zm2.8,0v4.37a.7.7,0,1,1-1.4,0V7.27a.7.7,0,1,1,1.4,0Z"/>
    </symbol>
    
    <symbol id="duplicate" viewBox="0 0 16 16">
        <path d="M13.88,16H7.27a2.12,2.12,0,0,1-2.13-2.12V7.27A2.13,2.13,0,0,1,7.27,5.14h6.61A2.12,2.12,0,0,1,16,7.27v6.61A2.12,2.12,0,0,1,13.88,16ZM7.27,6.45a.81.81,0,0,0-.82.82v6.61a.81.81,0,0,0,.82.81h6.61a.81.81,0,0,0,.81-.81V7.27a.81.81,0,0,0-.81-.82ZM3.51,10.2a.65.65,0,0,0-.65-.65H2.12a.81.81,0,0,1-.81-.82V2.12a.81.81,0,0,1,.81-.81H8.73a.82.82,0,0,1,.82.81v.74a.65.65,0,0,0,.65.65.66.66,0,0,0,.66-.65V2.12A2.13,2.13,0,0,0,8.73,0H2.12A2.12,2.12,0,0,0,0,2.12V8.73a2.13,2.13,0,0,0,2.12,2.13h.74A.66.66,0,0,0,3.51,10.2Z"/>
    </symbol>
    
    <symbol id="more" viewBox="0 0 3 16">
       <path d="M0,3.5C0,2.67,0.67,2,1.5,2S3,2.67,3,3.5S2.33,5,1.5,5S0,4.33,0,3.5z M1.5,12C0.67,12,0,12.67,0,13.5
	C0,14.33,0.67,15,1.5,15S3,14.33,3,13.5C3,12.67,2.33,12,1.5,12z M1.5,7C0.67,7,0,7.67,0,8.5S0.67,10,1.5,10S3,9.33,3,8.5
	S2.33,7,1.5,7z"/>
    </symbol>

    <symbol id="edit" viewBox="0 0 20 20">
       <path d="M14.83,19H3.44A2.44,2.44,0,0,1,1,16.56V5.17A2.45,2.45,0,0,1,3.44,2.72h5.7a.82.82,0,0,1,.81.82.81.81,0,0,1-.81.81H3.44a.82.82,0,0,0-.81.82V16.56a.81.81,0,0,0,.81.81H14.83a.82.82,0,0,0,.82-.81v-5.7a.81.81,0,1,1,1.62,0v5.7A2.44,2.44,0,0,1,14.83,19Z"/><path d="M6.7,14.12a.84.84,0,0,1-.58-.24.81.81,0,0,1-.21-.77l.81-3.26a1,1,0,0,1,.21-.38l7.74-7.73a2.54,2.54,0,0,1,3.59,3.59l-7.73,7.74a1,1,0,0,1-.38.21l-3.26.81A.63.63,0,0,1,6.7,14.12Zm1.54-3.66-.43,1.73,1.73-.44,7.57-7.57a.91.91,0,0,0-1.29-1.29h0Zm7-8.14h0Z"/>
    </symbol>

    <symbol id="delete" viewBox="0 0 16 16">
        <path d="M14.73,13.42c0.36,0.36,0.36,0.95,0,1.31s-0.95,0.36-1.31,0L9.5,10.81l-3.92,3.92c-0.36,0.36-0.95,0.36-1.31,0
	c-0.36-0.36-0.36-0.95,0-1.31L8.19,9.5L4.27,5.58c-0.36-0.36-0.36-0.95,0-1.31c0.36-0.36,0.95-0.36,1.31,0L9.5,8.19l3.92-3.92
	c0.36-0.36,0.95-0.36,1.31,0c0.36,0.36,0.36,0.95,0,1.31L10.81,9.5L14.73,13.42z"/>
    </symbol> 
    
    <symbol id="restore" viewBox="0 0 16 16">
        <path d="M8,3.14c-2.9,0.64-5.13,3.52-5,6.86H0l5.5,6l5.5-6H8c-0.36-2.23,0.56-4.27,2-4.9c1.89-0.83,5.12,0.58,6,3.92C15.42,4.93,11.49,2.36,8,3.14z"/>
    </symbol> 
    
    <symbol id="alert" viewBox="0 0 48 48">
         <path d="M26,34c0,1.1-0.9,2-2,2s-2-0.9-2-2c0-1.1,0.9-2,2-2S26,32.9,26,34z M47,24c0,12.7-10.3,23-23,23S1,36.7,1,24
	C1,11.3,11.3,1,24,1S47,11.3,47,24z M44,24c0-11.03-8.97-20-20-20S4,12.97,4,24c0,11.03,8.97,20,20,20S44,35.03,44,24z M24,10
	c-1.1,0-2,0.9-2,2v14c0,1.1,0.9,2,2,2s2-0.9,2-2V12C26,10.9,25.1,10,24,10z"/>
    </symbol>

    <symbol id="source-code"  viewBox="0 0 31 20">
       <path d="M23,15a1,1,0,0,1-.55-1.83L27.2,10,22.45,6.83a1,1,0,0,1,1.1-1.66l6,4a1,1,0,0,1,0,1.66l-6,4A.94.94,0,0,1,23,15ZM9.87,14.5a1,1,0,0,0-.37-1.37L4,10,9.5,6.87a1,1,0,0,0-1-1.74l-7,4a1,1,0,0,0,0,1.74l7,4a1,1,0,0,0,1.37-.37Zm3,2.95,7-14a1,1,0,0,0-1.78-.9l-7,14a1,1,0,0,0,.44,1.34A.93.93,0,0,0,12,18,1,1,0,0,0,12.89,17.45Z"/>
    </symbol>
    <symbol id="refresh" viewBox="0 0 24 24" fill="none" stroke="currentColor" stroke-width="2" stroke-linecap="round" stroke-linejoin="round"><path d="M3 2v6h6"></path><path d="M21 12A9 9 0 0 0 6 5.3L3 8"></path><path d="M21 22v-6h-6"></path><path d="M3 12a9 9 0 0 0 15 6.7l3-2.7"></path></symbol>

    <!-- Other icons  -->

    <symbol id="blank-image"  viewBox="0 0 180 148"><path d="M141,123.74a1,1,0,0,1-.21-2,5,5,0,0,0,3.85-5.94,1,1,0,0,1,2-.42,7,7,0,0,1-5.4,8.32A.69.69,0,0,1,141,123.74ZM44.63,144.28l12.07-2.57a1,1,0,1,0-.41-2l-12.08,2.57a1,1,0,0,0,.21,2Zm24.15-5.14,12.07-2.57a1,1,0,0,0-.42-2l-12.07,2.57a1,1,0,0,0,.21,2ZM92.92,134,105,131.42a1,1,0,1,0-.42-2L92.51,132a1,1,0,0,0,.2,2Zm24.15-5.14,12.07-2.57a1,1,0,0,0-.41-2l-12.08,2.57a1,1,0,0,0,.21,2A.76.76,0,0,0,117.07,128.85Zm-84.51,18a1,1,0,0,0-.42-2A5,5,0,0,1,26.21,141l-2,.42A7,7,0,0,0,31.1,147,7.31,7.31,0,0,0,32.56,146.85Zm-9.69-16.73a1,1,0,0,0,.77-1.19l-2.57-12.09a1,1,0,0,0-1.18-.77,1,1,0,0,0-.77,1.19l2.56,12.09a1,1,0,0,0,1,.79A.75.75,0,0,0,22.87,130.12Zm-5.13-24.18a1,1,0,0,0,.77-1.19l-2.57-12.1a1,1,0,0,0-1.18-.77A1,1,0,0,0,14,93.07l2.57,12.09a1,1,0,0,0,1,.8ZM12.61,81.75a1,1,0,0,0,.77-1.19L10.81,68.47a1,1,0,1,0-2,.42L11.42,81a1,1,0,0,0,1,.79A.75.75,0,0,0,12.61,81.75ZM7.47,57.57a1,1,0,0,0,.77-1.19L5.68,44.28a1,1,0,1,0-2,.42L6.29,56.79a1,1,0,0,0,1,.8ZM2.34,33.38a1,1,0,0,0,.77-1.19A5,5,0,0,1,7,26.25a1,1,0,0,0-.42-2,7,7,0,0,0-5.4,8.32,1,1,0,0,0,1,.79A.75.75,0,0,0,2.34,33.38ZM19,23.68l12.07-2.57a1,1,0,0,0,.77-1.19,1,1,0,0,0-1.18-.77L18.62,21.72a1,1,0,0,0,.21,2Zm24.14-5.14L55.26,16a1,1,0,0,0-.42-2L42.77,16.58a1,1,0,0,0,.21,2ZM67.33,13.4,79.4,10.83a1,1,0,0,0,.77-1.19A1,1,0,0,0,79,8.87L66.91,11.44a1,1,0,0,0,.21,2ZM91.48,8.26l12.07-2.57a1,1,0,1,0-.42-2L91.06,6.3a1,1,0,0,0-.77,1.18,1,1,0,0,0,1,.8Zm31.26-.51a1,1,0,0,0,.78-1.19,7,7,0,0,0-8.31-5.41,1,1,0,0,0,.41,2A5,5,0,0,1,121.56,7a1,1,0,0,0,1,.79Zm20.53,96.74a1,1,0,0,0,.78-1.19l-2.57-12.09a1,1,0,1,0-2,.41l2.57,12.09a1,1,0,0,0,1,.8ZM138.14,80.3a1,1,0,0,0,.77-1.19L136.35,67a1,1,0,1,0-2,.42L137,79.53a1,1,0,0,0,1,.79A.75.75,0,0,0,138.14,80.3ZM133,56.12a1,1,0,0,0,.77-1.19l-2.57-12.09a1,1,0,1,0-2,.41l2.56,12.1a1,1,0,0,0,1,.79Zm-5.13-24.19a1,1,0,0,0,.77-1.19l-2.57-12.09a1,1,0,0,0-2,.42l2.57,12.09a1,1,0,0,0,1,.79A.75.75,0,0,0,127.88,31.93ZM55.79,111.67,105.71,101a7.52,7.52,0,0,0,5.78-8.91l-10.61-50A7.5,7.5,0,0,0,92,36.33L42.05,47a7.53,7.53,0,0,0-5.78,8.92l10.61,50a7.54,7.54,0,0,0,7.33,6A7.79,7.79,0,0,0,55.79,111.67ZM96,39.9a4.49,4.49,0,0,1,2,2.85l10.62,50a4.52,4.52,0,0,1-3.47,5.35L55.16,108.73a4.5,4.5,0,0,1-5.34-3.48l-10.61-50a4.52,4.52,0,0,1,3.47-5.35L92.6,39.27a4.38,4.38,0,0,1,1-.1A4.47,4.47,0,0,1,96,39.9Zm3.7,46.25c-1.94-4.9-8.2-11.82-11.82-11.79-2,0-5,4.39-7.11,8.83-4.87-6-11.72-12.45-15.69-12.4-4.32.06-11.72,14.79-10.66,23.42.27,2.23,1.56,4.11,3.8,3.62l25.34-5.39h0l14.77-3.15C99.76,89,100.23,87.5,99.69,86.15Zm-13.15-31a7,7,0,1,0,8.31,5.39A7,7,0,0,0,86.54,55.15Zm74.13,54.7a7.06,7.06,0,0,0,3.05-4.6,1,1,0,0,0-.79-1.13,1,1,0,0,0-1.18.82,5.09,5.09,0,0,1-6,4,1,1,0,0,0-.41,2,7.21,7.21,0,0,0,1.45.15A7,7,0,0,0,160.67,109.85Zm5.21-15.35L168,84.06a1,1,0,1,0-2-.39l-2.1,10.44a1,1,0,0,0,.78,1.18l.2,0A1,1,0,0,0,165.88,94.5Zm4.2-20.88,2.09-10.44a1,1,0,1,0-2-.39l-2.1,10.44a1,1,0,0,0,.79,1.18l.2,0A1,1,0,0,0,170.08,73.62Zm4.19-20.88,2.1-10.44a1,1,0,0,0-.79-1.18,1,1,0,0,0-1.18.79l-2.09,10.44a1,1,0,0,0,.78,1.18l.2,0A1,1,0,0,0,174.27,52.74Zm4.59-22.86a7.17,7.17,0,0,0-5.56-8.41,1,1,0,0,0-1.18.78,1,1,0,0,0,.78,1.18,5.17,5.17,0,0,1,4,6.06l0,.08a1,1,0,0,0,.8,1.14l.18,0A1.05,1.05,0,0,0,178.86,29.88Zm-15.37-9.42a1,1,0,0,0-.78-1.19L152.3,17.12a1,1,0,0,0-1.19.78,1,1,0,0,0,.78,1.18l10.41,2.16.21,0A1,1,0,0,0,163.49,20.46Zm-20.83-4.31a1,1,0,0,0-.78-1.18l-10.41-2.16a1,1,0,0,0-.4,2l10.41,2.15.2,0A1,1,0,0,0,142.66,16.15Z"/>
    </symbol>

     <symbol id="gallery" viewBox="0 0 280 148"><path d="M87.81,74.36c-2,0-5,4.39-7.11,8.83C75.84,77.24,69,70.74,65,70.79c-4.33.06-11.71,14.79-10.66,23.42.28,2.23,1.57,4.11,3.8,3.62l25.32-5.39h0l14.76-3.15c1.44-.3,1.91-1.79,1.37-3.14C97.68,81.25,91.43,74.33,87.81,74.36Zm1.26-5.66a7,7,0,1,0-8.31-5.4A7,7,0,0,0,89.07,68.7ZM176,73.64a7,7,0,1,0-5.38-8.31A7,7,0,0,0,176,73.64Zm-3.44,4.65c-1.8-.78-6.38,2-10.1,5.18-2-7.41-5.62-16.13-9.27-17.69-1.19-.52-3.19.09-5.45,1.39.35.3,3.35,24.3,3.75,23.76,0,0,9.76,2.12,9.76,2.12h0L176,96.18a2.17,2.17,0,0,0,2.52-2.31C178.77,88.6,175.87,79.73,172.56,78.29ZM274.87,64.82A5.16,5.16,0,0,1,276.05,72l-.05.06a1,1,0,0,0,.27,1.36.51.51,0,0,0,.16.09,1,1,0,0,0,1.25-.36,7.17,7.17,0,0,0-1.64-10,1,1,0,1,0-1.17,1.63Zm-29.41,52a1,1,0,0,0-1.4.24l-6.16,8.68a1,1,0,0,0,.23,1.4l.18.1a1,1,0,0,0,1.22-.34l6.16-8.68A1,1,0,0,0,245.46,116.82Zm24.89-33.35a1,1,0,0,0-.24-1.4,1,1,0,0,0-1.39.24L262.56,91a1,1,0,0,0,.23,1.39.75.75,0,0,0,.17.1,1,1,0,0,0,1.23-.33ZM111.41,92.13a7.52,7.52,0,0,1-5.77,8.91L55.75,111.67a7.72,7.72,0,0,1-1.58.17,7.52,7.52,0,0,1-7.32-6l-10.6-50A7.52,7.52,0,0,1,42,47L91.91,36.33a7.5,7.5,0,0,1,8.9,5.79Zm-2.93.62-10.6-50a4.5,4.5,0,0,0-2-2.85,4.44,4.44,0,0,0-2.44-.73,4.29,4.29,0,0,0-.94.1L42.65,49.9a4.52,4.52,0,0,0-3.47,5.35l10.61,50a4.49,4.49,0,0,0,2,2.85,4.44,4.44,0,0,0,3.38.63L105,98.1A4.52,4.52,0,0,0,108.48,92.75Zm124.43,41.73a1,1,0,0,0-1.41.28,5.08,5.08,0,0,1-7.1,1.19,1,1,0,1,0-1.17,1.63,6.6,6.6,0,0,0,1.26.72,7,7,0,0,0,4,.51,7.14,7.14,0,0,0,4.66-3A1,1,0,0,0,232.91,134.48Zm17.09-90-8.63-6.19a1,1,0,0,0-1.17,1.63l8.63,6.19.18.11a1,1,0,0,0,1-1.74Zm16.27,14.13a1,1,0,0,0,1-1.73l-8.63-6.2a1,1,0,1,0-1.17,1.63l8.63,6.2Zm-8.48,40.83a1,1,0,0,0-1.4.23l-6.16,8.69a1,1,0,0,0,.23,1.4l.17.1a1,1,0,0,0,1.23-.34l6.16-8.69A1,1,0,0,0,257.79,99.45Zm-61.27-51a7.45,7.45,0,0,0-4.73-3.25L141.88,34.66l-.56-.09a15.37,15.37,0,0,0,.93,3.24l48.91,10.35a4.51,4.51,0,0,1,.9.29,4.49,4.49,0,0,1,2.56,5l-10.67,50a4.52,4.52,0,0,1-5.34,3.48l-22.85-4.83c.07.29.16.57.26.86.28.81.61,1.62.86,2.45l21.1,4.46a7.52,7.52,0,0,0,8.9-5.8l10.67-50A7.45,7.45,0,0,0,196.52,48.47ZM80.38,134.6l-12.07,2.57a1,1,0,0,0,.21,2l.21,0,12.06-2.57a1,1,0,0,0-.41-2ZM31.09,21.11,19,23.68l-.21,0a1,1,0,0,1-.21-2l12.06-2.57a1,1,0,1,1,.42,2Zm-10,95.73a1,1,0,0,0-1.19-.77,1,1,0,0,0-.77,1.19l2.57,12.09a1,1,0,0,0,1,.79.78.78,0,0,0,.21,0,1,1,0,0,0,.77-1.19Zm11.06,28A5,5,0,0,1,26.19,141l-2,.42A7,7,0,0,0,31.08,147a7.31,7.31,0,0,0,1.46-.15,1,1,0,0,0-.42-2ZM15.93,92.65a1,1,0,1,0-1.95.42l2.56,12.09a1,1,0,0,0,1,.8l.21,0a1,1,0,0,0,.77-1.19ZM10.8,68.47a1,1,0,0,0-1.18-.77,1,1,0,0,0-.77,1.19L11.41,81a1,1,0,0,0,1,.79.75.75,0,0,0,.21,0,1,1,0,0,0,.77-1.19Zm93.71,61L92.44,132a1,1,0,0,0,.21,2l.21,0,12.06-2.57a1,1,0,0,0-.41-2ZM5.67,44.28a1,1,0,0,0-1.18-.77,1,1,0,0,0-.77,1.19L6.28,56.79a1,1,0,0,0,1,.8l.21,0a1,1,0,0,0,.77-1.19Zm50.58,95.46-12.07,2.57a1,1,0,0,0,.21,2l.21,0,12.07-2.57a1,1,0,0,0-.42-2ZM7,26.25a1,1,0,0,0,.77-1.19,1,1,0,0,0-1.18-.77,7,7,0,0,0-5.4,8.32,1,1,0,0,0,1,.79.75.75,0,0,0,.21,0,1,1,0,0,0,.77-1.19A5,5,0,0,1,7,26.25ZM67.08,13.42l.2,0,12.07-2.57a1,1,0,1,0-.42-2L66.87,11.44a1,1,0,0,0,.21,2ZM43,18.56l.2,0L55.22,16a1,1,0,1,0-.42-2L42.74,16.58a1,1,0,0,0,.21,2ZM91.2,8.28l.21,0,12.07-2.57a1,1,0,0,0,.77-1.19,1,1,0,0,0-1.19-.77L91,6.3a1,1,0,0,0,.2,2Zm39.92,34.56a1,1,0,1,0-2,.41l2.56,12.1a1,1,0,0,0,1,.79l.21,0a1,1,0,0,0,.77-1.19Zm5,24.23a1,1,0,1,0-2,.42l2.56,12.09a1,1,0,0,0,1,.8.76.76,0,0,0,.21,0,1,1,0,0,0,.77-1.19ZM126.6,31.16a1,1,0,0,0,1,.79.75.75,0,0,0,.21,0,1,1,0,0,0,.77-1.19L126,18.65a1,1,0,1,0-1.95.42Zm2,93.16-12.07,2.57a1,1,0,0,0,.21,2,.76.76,0,0,0,.21,0l12.06-2.57a1,1,0,0,0-.41-2Zm17.87-8.93a1,1,0,1,0-2,.42,5,5,0,0,1-3.85,5.94,1,1,0,0,0,.21,2,.76.76,0,0,0,.21,0A7,7,0,0,0,146.51,115.39Zm-31-112.27A5,5,0,0,1,121.47,7a1,1,0,0,0,1,.79l.21,0a1,1,0,0,0,.77-1.19,7,7,0,0,0-8.3-5.41,1,1,0,0,0,.41,2Zm25.73,88.6a1,1,0,0,0-2,.41l2.56,12.1a1,1,0,0,0,1,.79l.21,0a1,1,0,0,0,.77-1.19Zm1.34-87.06a1,1,0,1,1-.42,2S136,5.35,136,5.32a1,1,0,0,1,.61-1.9M165.24,135.5l-12.07-2.56a1,1,0,0,0-.62,1.89l.2.07,12.07,2.56a1,1,0,1,0,.42-2ZM178.19,14.25a.66.66,0,0,0,.2.06l12.07,2.57a1,1,0,0,0,1.18-.78,1,1,0,0,0-.77-1.18l-12.06-2.57a1,1,0,0,0-.62,1.9ZM154.06,9.12a.66.66,0,0,0,.2.06l12.07,2.57a1,1,0,0,0,.41-2L154.68,7.22a1,1,0,0,0-.62,1.9Zm48.26,10.26a1.52,1.52,0,0,0,.2.06L214.59,22a1,1,0,0,0,1.19-.77A1,1,0,0,0,215,20l-12.07-2.56a1,1,0,0,0-.62,1.9ZM224.75,67.2a1,1,0,0,0-2-.42l-2.57,12.09a1,1,0,0,0,.57,1.13.66.66,0,0,0,.2.06,1,1,0,0,0,1.19-.77Zm-5.29,24.17a1,1,0,1,0-2-.41l-2.57,12.09a1,1,0,0,0,.57,1.12l.2.07a1,1,0,0,0,1.18-.78Zm5.9-36.68a1,1,0,0,0,.57,1.13,1.52,1.52,0,0,0,.2.06,1,1,0,0,0,1.19-.77L229.89,43a1,1,0,0,0-2-.42Zm-36,85.94-12.07-2.57a1,1,0,0,0-1.18.78,1,1,0,0,0,.57,1.12l.2.07L189,142.59a1,1,0,0,0,.42-2Zm20-.88a1,1,0,0,0-.77-1.19,1,1,0,0,0-1.19.77,5,5,0,0,1-5.94,3.86,1,1,0,0,0-1.18.77,1,1,0,0,0,.57,1.13.66.66,0,0,0,.2.06A7,7,0,0,0,209.33,139.75ZM226.66,24.57a5,5,0,0,1,3.84,5.94,1,1,0,0,0,.58,1.12l.19.07a1,1,0,0,0,1.19-.77,7,7,0,0,0-5.39-8.32,1,1,0,0,0-.41,2ZM214.16,116a1,1,0,0,0-2-.42l-2.57,12.09a1,1,0,0,0,.57,1.13,1.52,1.52,0,0,0,.2.06,1,1,0,0,0,1.19-.77Z"/>
    </symbol>

    <symbol id="magnifier" viewBox="0 0 24 23">
        <path d="M23.6,20.5l-6.8-6.8a9,9,0,1,0-1.9,2.3l6.7,6.7a1.5,1.5,0,0,0,2.1-2.1ZM9,16a7,7,0,1,1,7-7A7,7,0,0,1,9,16Z"/>
    </symbol>

    <symbol id="magnifier-small" viewBox="0 0 16 16">
        <path d="M14.81,13.14l-2.96-2.96c0,0-0.01,0-0.01,0C12.57,9.14,13,7.87,13,6.5C13,2.92,10.08,0,6.5,0S0,2.92,0,6.5S2.92,13,6.5,13
    c1.37,0,2.64-0.43,3.68-1.15c0,0,0,0.01,0,0.01l2.96,2.96c0.33,0.33,0.97,0.22,1.43-0.24C15.03,14.11,15.14,13.47,14.81,13.14z
     M6.5,11C4.02,11,2,8.98,2,6.5S4.02,2,6.5,2S11,4.02,11,6.5S8.98,11,6.5,11z"/>
    </symbol>

    <symbol id="switcher" viewBox="0 0 34 20">
       <rect fill="currentColor" y="2" width="30" height="16" rx="8" ry="8"/><circle cx="24" cy="10" r="10"/>
    </symbol>

    <symbol id="minimize" viewBox="0 0 24 24" fill="none" stroke="currentColor" stroke-width="2" stroke-linecap="round" stroke-linejoin="round">
       <path d="M8 3v3a2 2 0 0 1-2 2H3m18 0h-3a2 2 0 0 1-2-2V3m0 18v-3a2 2 0 0 1 2-2h3M3 16h3a2 2 0 0 1 2 2v3" />
    </symbol>

    <symbol id="external-link" viewBox="0 0 24 24" fill="none" stroke="currentColor" stroke-width="2" stroke-linecap="round" stroke-linejoin="round">
        <path d="M18 13v6a2 2 0 0 1-2 2H5a2 2 0 0 1-2-2V8a2 2 0 0 1 2-2h6"></path>
        <polyline points="15 3 21 3 21 9"></polyline>
        <line x1="10" y1="14" x2="21" y2="3"></line>
    </symbol>

    <!-- Window icons  -->

    <symbol id="win-minimize" viewBox="0 0 10 1">
        <rect width="10" height="1"/>
    </symbol>

    <symbol id="win-expand" viewBox="0 0 10 10">
        <path d="M0,10H7V3H0ZM1,4H6V9H1Zm9-4V7H9V1H3V0Z"/>
    </symbol>

    <symbol id="win-maximize" viewBox="0 0 10 10">
        <path d="M9,1V9H1V1H9m1-1H0V10H10V0Z"/>
    </symbol>

    <symbol id="win-close" viewBox="0 0 10 10">
        <polygon points="10 0.66 9.34 0 5 4.34 0.66 0 0 0.66 4.34 5 0 9.34 0.66 10 5 5.66 9.34 10 10 9.34 5.66 5 10 0.66"/>
    </symbol>

    <symbol id="stats" viewBox="0 0 19 19">
        <path d="M3,7v10c0,0.5-0.5,1-1,1s-1-0.5-1-1V7c0-0.5,0.5-1,1-1S3,6.5,3,7z M7,1C6.5,1,6,1.5,6,2v15c0,0.5,0.5,1,1,1s1-0.5,1-1V2
    C8,1.5,7.5,1,7,1z M12,10c-0.5,0-1,0.5-1,1v6c0,0.5,0.5,1,1,1s1-0.5,1-1v-6C13,10.5,12.5,10,12,10z M17,6c-0.5,0-1,0.5-1,1v10
    c0,0.5,0.5,1,1,1s1-0.5,1-1V7C18,6.5,17.5,6,17,6z"/>
    </symbol>
    
    <symbol id="help" viewBox="0 0 20 20">
        <path d="M10,0A10,10,0,1,0,20,10,10,10,0,0,0,10,0Zm0,18a8,8,0,1,1,8-8A8,8,0,0,1,10,18Zm.75-4a1.15,1.15,0,0,1,.35.84,1.1,1.1,0,0,1-.36.87A1.24,1.24,0,0,1,9.9,16a1.31,1.31,0,0,1-.85-.31,1.1,1.1,0,0,1-.36-.88A1.15,1.15,0,0,1,9,14a1.17,1.17,0,0,1,.86-.34A1.15,1.15,0,0,1,10.75,14Zm2.77-8.39A2.8,2.8,0,0,1,14,7.16a2.34,2.34,0,0,1-.28,1.18,3.65,3.65,0,0,1-.65.88c-.26.24-.71.66-1.37,1.24a5.76,5.76,0,0,0-.43.43,2.62,2.62,0,0,0-.25.34,2,2,0,0,0-.12.31c0,.1-.07.29-.13.54a.89.89,0,0,1-.95.83,1,1,0,0,1-.7-.27,1.06,1.06,0,0,1-.29-.8A2.85,2.85,0,0,1,9,10.69a2.94,2.94,0,0,1,.55-.86A12.13,12.13,0,0,1,10.52,9c.34-.29.59-.52.74-.67a2.07,2.07,0,0,0,.38-.5,1.12,1.12,0,0,0,.16-.6,1.39,1.39,0,0,0-.48-1.07,1.72,1.72,0,0,0-1.22-.44,1.73,1.73,0,0,0-1.3.44,3.51,3.51,0,0,0-.7,1.3c-.19.6-.53.89-1,.89A1,1,0,0,1,6.31,8,.93.93,0,0,1,6,7.31a2.78,2.78,0,0,1,.49-1.52A3.7,3.7,0,0,1,7.91,4.51,4.51,4.51,0,0,1,10.1,4a4.71,4.71,0,0,1,2,.42A3.37,3.37,0,0,1,13.52,5.58Z"/>
    </symbol>

    <symbol id="on-live-preview" viewBox="0 0 19 19">
        <polygon class="st0" points="14,8 10,9 13,0 5,12 9,11 6,19 "/>
    </symbol>


    <symbol id="off-live-preview" viewBox="0 0 19 19">
       <polygon class="st0" points="14,8 10,9 13,0 5,12 9,11 6,19 "/>
    </symbol>

    <!-- Folder icons  -->

    <symbol id="folder-opened" viewBox="0 0 22 16">
        <path d="M19.83,6H18V5.044a1.857,1.857,0,0,0-1.636-2.018H9.818L7.364,0H1.636A1.857,1.857,0,0,0,0,2.018V14l.016-.013A1.968,1.968,0,0,0,2.17,16h14.9a2.185,2.185,0,0,0,2.038-1.2l2.76-6.364C22.382,7.254,21.335,6,19.83,6ZM1.636.913h5.3L9.118,3.6l.271.335h6.974c.346,0,.732.454.732,1.105V6H4.93A2.185,2.185,0,0,0,2.892,7.2L.9,11.78V2.018C.9,1.366,1.29.913,1.636.913ZM20.95,8.042l-2.76,6.364A1.208,1.208,0,0,1,17.07,15H2.17A1.251,1.251,0,0,1,1.1,14.508a.545.545,0,0,1-.055-.549L3.81,7.595A1.208,1.208,0,0,1,4.93,7h14.9a1.251,1.251,0,0,1,1.065.492A.544.544,0,0,1,20.95,8.042Z"/>
    </symbol>

    <symbol id="folder-opened" viewBox="0 0 22 16">
        <path d="M19.83,6H18V5.044a1.857,1.857,0,0,0-1.636-2.018H9.818L7.364,0H1.636A1.857,1.857,0,0,0,0,2.018V14l.016-.013A1.968,1.968,0,0,0,2.17,16h14.9a2.185,2.185,0,0,0,2.038-1.2l2.76-6.364C22.382,7.254,21.335,6,19.83,6ZM1.636.913h5.3L9.118,3.6l.271.335h6.974c.346,0,.732.454.732,1.105V6H4.93A2.185,2.185,0,0,0,2.892,7.2L.9,11.78V2.018C.9,1.366,1.29.913,1.636.913ZM20.95,8.042l-2.76,6.364A1.208,1.208,0,0,1,17.07,15H2.17A1.251,1.251,0,0,1,1.1,14.508a.545.545,0,0,1-.055-.549L3.81,7.595A1.208,1.208,0,0,1,4.93,7h14.9a1.251,1.251,0,0,1,1.065.492A.544.544,0,0,1,20.95,8.042Z"/>
    </symbol>

    <symbol id="folder" viewBox="0 0 22 16">
        <path d="M7.93,1a1,1,0,0,1,.832.445l1.406,2.109.3.445H20a1,1,0,0,1,1,1v9a1,1,0,0,1-1,1H2a1,1,0,0,1-1-1V2A1,1,0,0,1,2,1H7.93m0-1H2A2,2,0,0,0,0,2V14a2,2,0,0,0,2,2H20a2,2,0,0,0,2-2V5a2,2,0,0,0-2-2H11L9.594.891A2,2,0,0,0,7.93,0Z"/>
    </symbol>

    <!-- Preview window icons  -->

    <symbol id="preview-prev" viewBox="0 0 10 20">
        <path d="M9.664.254A1,1,0,0,0,8.251.337l-8.008,9a.936.936,0,0,0-.07.12.974.974,0,0,0-.1.173.966.966,0,0,0-.047.183.712.712,0,0,0,0,.376.966.966,0,0,0,.047.183.974.974,0,0,0,.1.173.936.936,0,0,0,.07.12l8.008,9a1,1,0,0,0,1.5-1.328L2.33,10,9.747,1.665A1,1,0,0,0,9.664.254Z"/>
    </symbol>

    <symbol id="preview-next" viewBox="0 0 10 20">
        <path d="M.336.254A1,1,0,0,1,1.749.337l8.008,9a.936.936,0,0,1,.07.12.912.912,0,0,1,0,1.088.936.936,0,0,1-.07.12l-8.008,9a1,1,0,0,1-1.5-1.328L7.67,10,.253,1.665A1,1,0,0,1,.336.254Z"/>
    </symbol>

    <symbol id="preview-dev" viewBox="0 0 20 20">
        <path d="M1.472,2.9a14.459,14.459,0,0,0,.151,1.742,16.6,16.6,0,0,1,.225,1.844c0,.759.258,1.54-1.848,1.592v1.945c2.105.05,1.848,1.01,1.848,1.718a18.384,18.384,0,0,1-.188,1.971c-.075.683-.169,1.792-.169,2.423A3.536,3.536,0,0,0,5.313,20H6V18H5.767c-1.162,0-1.541-1.2-1.541-2.307a13.18,13.18,0,0,1,.126-1.66,15.879,15.879,0,0,0,.474-1.89C4.851,10.223,4,9.368,3,9.065v-.05C4,8.711,4.851,8,4.826,6.083c0-.632-.533-2.269-.533-2.724C4.293,2.247,4.63,2,5.767,2H6V0H5.337C2.963,0,1.472.528,1.472,2.9Z"/><path d="M20,10.025V8.08c-2.105-.051-1.848-.9-1.848-1.657a17.723,17.723,0,0,1,.225-1.909A12.442,12.442,0,0,0,18.528,2.9c0-2.375-1.491-2.9-3.865-2.9H14V2h.233c1.137,0,1.474.247,1.474,1.36,0,.454-.533,2.157-.533,2.79C15.149,8.069,16,8.711,17,9.014v.05c-1,.3-1.851,1.093-1.826,3.013a14.689,14.689,0,0,0,.474,1.824,15.241,15.241,0,0,1,.126,1.791c0,1.111-.379,2.307-1.541,2.307H14v2h.688a3.536,3.536,0,0,0,3.822-3.864c0-.631-.094-1.609-.169-2.292a19.573,19.573,0,0,1-.188-2.036C18.152,11.1,17.895,10.075,20,10.025Z"/>
    </symbol>

    <symbol id="preview-reload" viewBox="0 0 20 16">
        <path d="M0,9.86C0,5.367,3.768,2,8.421,2a8.346,8.346,0,0,1,8.421,8.4H20l-4.211,5.418L11.579,10.4h3.158A6.176,6.176,0,0,0,8.421,4.033,6.1,6.1,0,0,0,2.105,10a6.159,6.159,0,0,0,6.316,6.031,6.454,6.454,0,0,0,2.695-.624l1.295,1.64A8.724,8.724,0,0,1,8.421,18,8.285,8.285,0,0,1,0,9.86Z" transform="translate(0 -2)"/>
    </symbol>


    <!-- Message icons  -->

    <symbol id="success" viewBox="0 0 48 48">
        <path d="M24,1C11.3,1,1,11.3,1,24c0,12.7,10.3,23,23,23s23-10.3,23-23C47,11.3,36.7,1,24,1z M24,44
	C12.97,44,4,35.03,4,24C4,12.97,12.97,4,24,4s20,8.97,20,20C44,35.03,35.03,44,24,44z M34.91,15.59c0.78,0.8,0.79,2.1,0.01,2.91
	L21.59,32.39c-0.78,0.81-2.04,0.81-2.82,0.02l-5.67-5.79c-0.78-0.8-0.79-2.1-0.01-2.91c0.78-0.81,2.04-0.81,2.82-0.02l4.26,4.34
	l11.93-12.43C32.86,14.8,34.12,14.8,34.91,15.59z"/>
    </symbol>

    <symbol id="warning" viewBox="0 0 48 48">
        <path d="M26,34c0,1.1-0.9,2-2,2s-2-0.9-2-2c0-1.1,0.9-2,2-2S26,32.9,26,34z M47,24c0,12.7-10.3,23-23,23S1,36.7,1,24
	C1,11.3,11.3,1,24,1S47,11.3,47,24z M44,24c0-11.03-8.97-20-20-20S4,12.97,4,24c0,11.03,8.97,20,20,20S44,35.03,44,24z M24,10
	c-1.1,0-2,0.9-2,2v14c0,1.1,0.9,2,2,2s2-0.9,2-2V12C26,10.9,25.1,10,24,10z"/>
    </symbol>

    <symbol id="info" viewBox="0 0 48 48">
        <path d="M24,47c-1.56,0-3.12-.16-4.63-.47-1.48-.3-2.93-.75-4.32-1.34-1.36-.58-2.68-1.29-3.91-2.12-1.22-.82-2.36-1.77-3.4-2.81-1.04-1.04-1.99-2.19-2.81-3.4-.83-1.23-1.54-2.54-2.12-3.91-.59-1.39-1.04-2.84-1.34-4.32-.31-1.51-.47-3.07-.47-4.63s.16-3.12,.47-4.63c.3-1.48,.75-2.93,1.34-4.32,.58-1.36,1.29-2.68,2.12-3.91,.82-1.22,1.77-2.36,2.81-3.4s2.19-1.99,3.4-2.81c1.23-.83,2.54-1.54,3.91-2.12,1.39-.59,2.84-1.04,4.32-1.34,3.03-.62,6.24-.62,9.27,0,1.48,.3,2.93,.75,4.32,1.34,1.36,.58,2.68,1.29,3.91,2.12,1.22,.82,2.36,1.77,3.4,2.81,1.04,1.04,1.99,2.19,2.81,3.4,.83,1.23,1.54,2.55,2.12,3.91,.59,1.39,1.04,2.84,1.34,4.32h0c.31,1.52,.47,3.08,.47,4.63,0,.98-.06,1.97-.18,2.93-.12,.95-.3,1.9-.54,2.82-.23,.91-.53,1.81-.87,2.69-.34,.86-.74,1.71-1.18,2.53-.15,.29-.31,.57-.48,.84l2.33,7.85c.16,.52,.02,1.09-.37,1.48-.38,.39-.95,.54-1.47,.4l-7.86-2.15-.29,.19c-1.18,.8-1.77,1.04-2.93,1.54l-.21,.09c-1.38,.59-2.84,1.04-4.32,1.34-1.52,.31-3.08,.47-4.63,.47Zm0-43c-1.36,0-2.71,.14-4.03,.41-1.28,.26-2.55,.65-3.75,1.16-1.19,.5-2.33,1.12-3.4,1.84-1.06,.71-2.05,1.54-2.96,2.44-.91,.91-1.73,1.9-2.44,2.96-.72,1.07-1.34,2.21-1.84,3.4-.51,1.21-.9,2.47-1.16,3.75-.27,1.32-.41,2.67-.41,4.03s.14,2.71,.41,4.03c.26,1.28,.65,2.55,1.16,3.75,.5,1.18,1.12,2.33,1.84,3.4,.71,1.06,1.54,2.05,2.44,2.96,.91,.91,1.9,1.73,2.96,2.44,1.07,.72,2.21,1.34,3.4,1.84,1.2,.51,2.47,.9,3.75,1.17,2.64,.54,5.43,.54,8.06,0,1.29-.26,2.55-.66,3.75-1.17l.21-.09c1.11-.47,1.49-.63,2.44-1.28l.88-.57c.36-.23,.8-.3,1.21-.19l5.9,1.62-1.75-5.91c-.12-.42-.06-.87,.18-1.24,.26-.41,.51-.82,.74-1.25,.39-.71,.73-1.45,1.03-2.2,.3-.76,.55-1.55,.76-2.33,.21-.8,.36-1.63,.47-2.45,.11-.84,.16-1.7,.16-2.55,0-1.36-.14-2.71-.41-4.03h0c-.26-1.29-.66-2.55-1.17-3.75-.5-1.18-1.12-2.33-1.84-3.4-.71-1.06-1.54-2.05-2.44-2.96-.91-.91-1.9-1.73-2.96-2.44-1.07-.72-2.21-1.34-3.4-1.84-1.21-.51-2.47-.9-3.75-1.16-1.32-.27-2.67-.41-4.03-.41Zm0,11c1.1,0,2-.9,2-2s-.9-2-2-2-2,.9-2,2,.9,2,2,2Zm0,4c-1.1,0-2,.9-2,2v14c0,1.1,.9,2,2,2s2-.9,2-2v-14c0-1.1-.9-2-2-2Z"/>
    </symbol>

    <!-- Post listing icons  -->

    <symbol id="featured-post" viewBox="0 0 19 19">
        <g>
            <path d="M9.5,5l0.8,1.8c0.4,0.8,1.1,1.3,2,1.5l2.1,0.3l-1.6,1.7c-0.6,0.6-0.8,1.4-0.7,2.2l0.4,2.2l-1.7-0.9
        c-0.4-0.2-0.8-0.3-1.3-0.3c-0.4,0-0.9,0.1-1.3,0.3l-1.7,0.9l0.4-2.2c0.1-0.8-0.1-1.7-0.7-2.2L4.6,8.6l2.1-0.3
        c0.9-0.1,1.6-0.7,2-1.5L9.5,5 M9.5,1C9.3,1,9.1,1.1,9,1.3L6.8,5.9C6.7,6.1,6.6,6.2,6.4,6.3L1.5,7C1,7.1,0.8,7.7,1.2,8l3.6,3.7
        c0.1,0.1,0.2,0.3,0.2,0.5l-0.8,5.1C4,17.7,4.3,18,4.6,18c0.1,0,0.2,0,0.3-0.1l4.3-2.4c0.1,0,0.2-0.1,0.3-0.1s0.2,0,0.3,0.1l4.3,2.4
        c0.1,0.1,0.2,0.1,0.3,0.1c0.3,0,0.6-0.3,0.6-0.7l-0.8-5.1c0-0.2,0-0.4,0.2-0.5L17.8,8c0.3-0.3,0.1-0.9-0.3-1l-4.9-0.7
        c-0.2,0-0.4-0.2-0.4-0.3L10,1.3C9.9,1.1,9.7,1,9.5,1L9.5,1z"/>
        </g>
    </symbol>

    <symbol id="hidden-post" viewBox="0 0 19 19">
        <path d="M18.7,10L19,9.5L18.7,9C16.2,5.5,13,3.5,9.5,3.5c-1.5,0-2.9,0.4-4.3,1L1.8,1.1C1.6,1,1.3,1,1.2,1.1C1,1.3,1,1.6,1.2,1.8
    L4.4,5C2.9,6,1.5,7.3,0.3,9L0,9.5L0.3,10c2.4,3.5,5.7,5.5,9.2,5.5c1.5,0,2.9-0.4,4.3-1l3.4,3.5c0.1,0.1,0.2,0.1,0.3,0.1
    s0.2,0,0.3-0.1c0.2-0.2,0.2-0.5,0-0.6L14.6,14C16.1,13,17.5,11.7,18.7,10z M9.5,13.3c-2.1,0-3.8-1.7-3.8-3.8c0-0.9,0.3-1.7,0.8-2.4
    l1,1C7.2,8.5,7.1,9,7.1,9.5c0,1.3,1.1,2.4,2.4,2.4c0.5,0,1-0.2,1.4-0.4l1,1C11.2,13,10.4,13.3,9.5,13.3z M12.5,11.9l-1-1
    c0.3-0.4,0.4-0.9,0.4-1.4c0-0.3-0.1-0.5-0.1-0.8C11.7,9,11.3,9.3,11,9.3c-0.5,0-0.9-0.4-0.9-0.9c0-0.5,0.4-0.9,0.9-0.9
    C10.5,7.2,10,7.1,9.5,7.1c-0.5,0-1,0.2-1.4,0.4l-1-1C7.8,6,8.6,5.7,9.5,5.7c2.1,0,3.8,1.7,3.8,3.8C13.3,10.4,13,11.2,12.5,11.9z"/>
    </symbol>

    <symbol id="draft-post" viewBox="0 0 19 19">
        <path d="M8,13.9L3,15l1.1-5L11,3.2l0.8,0.8l-6.9,6.9l1.5,1.5l6.9-6.9L14.8,7L8,13.9z M14.1,1.6l1.5,1.5l-1.5,1.5l1.5,1.5l0.8-0.8
    c0.8-0.8,0.8-2.2,0-3.1l-0.8-0.8c-0.8-0.8-2.2-0.8-3.1,0l-0.8,0.8l0.8,0.8L14.1,1.6z M17.5,17H1.5C1.2,17,1,17.2,1,17.5
    S1.2,18,1.5,18h16.1c0.3,0,0.5-0.2,0.5-0.5S17.8,17,17.5,17z"/>
    </symbol>
        
    <symbol id="excluded-post" viewBox="0 0 19 19">
        <path d="M10,2a8,8,0,1,0,8,8A8,8,0,0,0,10,2Zm0,14a6,6,0,1,1,6-6A6,6,0,0,1,10,16Zm4-6a1,1,0,0,1-1,1H7A1,1,0,0,1,7,9h6A1,1,0,0,1,14,10Z" />
    </symbol>

    <symbol id="padlock" viewBox="0 0 24 24" fill="none" stroke="currentColor" stroke-width="2" stroke-linecap="round" stroke-linejoin="round">
       <rect x="3" y="11" width="18" height="11" rx="2" ry="2"></rect>
       <path d="M7 11V7a5 5 0 0 1 10 0v4"></path>
    </symbol>

    <!-- Post editor Sidebar icons  -->

    <symbol id="sidebar-seo" viewBox="0 0 24 24">
        <path d="M20.7,19.3l-5.5-5.5c0.9-1.2,1.5-2.8,1.5-4.5c0-4.1-3.3-7.4-7.4-7.4S2,5.3,2,9.4s3.3,7.4,7.4,7.4c1.7,0,3.2-0.6,4.5-1.5
    l5.5,5.5c0.2,0.2,0.4,0.3,0.7,0.3c0.3,0,0.5-0.1,0.7-0.3C21.1,20.3,21.1,19.7,20.7,19.3z M9.4,14.8c-3,0-5.4-2.4-5.4-5.4
    S6.4,4,9.4,4s5.4,2.4,5.4,5.4S12.4,14.8,9.4,14.8z"/>
    </symbol>

    <symbol id="sidebar-options" viewBox="0 0 24 24">
        <path d="M14,12c0,1.1-0.9,2-2,2s-2-0.9-2-2c0-1.1,0.9-2,2-2S14,10.9,14,12z M12,7c1.1,0,2-0.9,2-2c0-1.1-0.9-2-2-2
    s-2,0.9-2,2C10,6.1,10.9,7,12,7z M12,17c-1.1,0-2,0.9-2,2c0,1.1,0.9,2,2,2s2-0.9,2-2C14,17.9,13.1,17,12,17z"/>
    </symbol>

    <symbol id="sidebar-tags" viewBox="0 0 24 24">
        <path d="M17.5,8.4c0,1-0.8,1.8-1.8,1.8s-1.8-0.8-1.8-1.8s0.8-1.8,1.8-1.8S17.5,7.4,17.5,8.4z M22,10.8
    c0,0.7-0.3,1.4-0.8,1.9l-8.6,8.6c-0.5,0.5-1.2,0.8-1.9,0.8c-0.7,0-1.4-0.3-1.9-0.8l-6.1-6.1c-1-1-1-2.7,0-3.7l8.6-8.6
    C11.9,2.3,12.5,2,13.2,2c0,0,0,0,0,0l6.1,0C20.8,2,22,3.2,22,4.7L22,10.8z M20.2,10.8l0-6.1c0-0.5-0.4-0.8-0.8-0.8l-6.1,0
    c0,0,0,0,0,0c-0.2,0-0.4,0.1-0.6,0.2l-8.6,8.6c-0.3,0.3-0.3,0.8,0,1.2l6.1,6.1c0.3,0.3,0.8,0.3,1.2,0l8.6-8.6
    C20.1,11.2,20.2,11,20.2,10.8z"/>
    </symbol>

    <symbol id="sidebar-status" viewBox="0 0 24 24">
        <path d="M13.9,16.4h0.6V17h-5v-0.6h0.6c0.3,0,0.5-0.1,0.6-0.2c0.1-0.1,0.2-0.3,0.2-0.6v-3.8c0-0.2-0.1-0.4-0.3-0.6
    c-0.2-0.1-0.4-0.2-0.7-0.2H9.5v-0.6l3.7-0.1v5.5c0,0.1,0.1,0.3,0.2,0.3C13.5,16.3,13.7,16.4,13.9,16.4z M12,9.2
    c0.3,0,0.6-0.1,0.9-0.3c0.2-0.2,0.4-0.5,0.4-0.8c0-0.3-0.1-0.6-0.4-0.8C12.6,7.1,12.3,7,12,7c-0.3,0-0.6,0.1-0.9,0.3
    c-0.2,0.2-0.4,0.5-0.4,0.8c0,0.3,0.1,0.6,0.4,0.8C11.4,9.1,11.7,9.2,12,9.2z M22,12c0,5.5-4.5,10-10,10S2,17.5,2,12
    C2,6.5,6.5,2,12,2S22,6.5,22,12z M20,12c0-4.4-3.6-8-8-8s-8,3.6-8,8c0,4.4,3.6,8,8,8S20,16.4,20,12z"/>
    </symbol>

    <symbol id="sidebar-image" viewBox="0 0 24 24">
        <path d="M20,10.8v5.6c0,0.3-0.3,0.6-0.6,0.6H4.6C4.3,17,4,16.7,4,16.4v-1.3c0-0.3,0.2-0.8,0.4-1.1l4.1-5.8
    C8.6,8.1,8.8,8,8.9,8c0.1,0,0.3,0,0.4,0.1l4.9,4.4c0.2,0.1,0.4,0.2,0.6,0.2c0.1,0,0.3,0,0.4-0.1l4.3-2.2c0.1,0,0.2-0.1,0.2-0.1
    C19.9,10.4,20,10.5,20,10.8z M24,6.6v10.9c0,2-1.7,3.6-3.7,3.6H3.7C1.7,21,0,19.4,0,17.4V6.6C0,4.6,1.7,3,3.7,3h16.6
    C22.3,3,24,4.6,24,6.6z M22,6.6C22,5.7,21.2,5,20.3,5H3.7C2.8,5,2,5.7,2,6.6v10.8C2,18.3,2.8,19,3.7,19h16.6c0.9,0,1.7-0.7,1.7-1.6
    V6.6z"/>
    </symbol>

    <symbol id="sidebar-close" viewBox="0 0 24 24">
        <polygon points="24,7.7 23.3,7 19,11.3 14.7,7 14,7.7 18.3,12 14,16.3 14.7,17 19,12.7 23.3,17 24,16.3 19.7,12 "/>
    </symbol>

    <symbol id="sidebar-arrow" viewBox="0 0 24 24">
        <path d="M23.9,8.1c-0.2-0.2-0.5-0.2-0.7,0l-6.6,6.7L9.9,8.1C9.7,8,9.3,8,9.1,8.1C9,8.3,9,8.7,9.1,8.9l7,7c0.1,0.1,0.2,0.1,0.4,0.1
    c0,0,0,0,0,0c0,0,0,0,0,0c0.1,0,0.3,0,0.4-0.1l7-7C24,8.7,24,8.3,23.9,8.1z"/>
    </symbol>

    <symbol id="sidebar-analysis" viewBox="0 0 24 24">
        <path d="M6,10.2v10.9C6,21.6,5.5,22,5,22s-1-0.4-1-0.9V10.2c0-0.5,0.5-0.9,1-0.9S6,9.7,6,10.2z M20,6c-0.5,0-1,0.4-1,0.9v3.8v6.6
    v3.8c0,0.5,0.5,0.9,1,0.9s1-0.4,1-0.9v-3.8v-6.6V6.9C21,6.4,20.5,6,20,6z M10,2C9.5,2,9,2.4,9,2.9v18.2c0,0.5,0.5,0.9,1,0.9
    s1-0.4,1-0.9V2.9C11,2.4,10.5,2,10,2z M15,14c-0.5,0-1,0.4-1,0.9v6.1c0,0.5,0.5,0.9,1,0.9s1-0.4,1-0.9v-6.1C16,14.4,15.5,14,15,14z"/>
    </symbol>

    <!-- Tools icons  -->

    <symbol id="backup" viewBox="0 0 62 44">
        <path d="M46.5,14.6c-1-2.3-2.3-4.3-4.1-6c-1.7-1.7-3.8-3.1-6-4.1c-4.7-2-10.1-2-14.8,0c-2.3,1-4.3,2.3-6,4.1
		c-1.7,1.7-3.1,3.8-4.1,6c-1,2.3-1.5,4.8-1.5,7.4c0,2.6,0.5,5.1,1.5,7.4l0.6,1.3l6.6-6.1c0.4-0.4,0.4-1,0-1.4c-0.4-0.4-1-0.4-1.4,0
		l-4.4,4.1C12.3,25.6,12,23.8,12,22c0-2.3,0.4-4.5,1.3-6.6c0.9-2,2.1-3.8,3.6-5.4c1.6-1.6,3.4-2.8,5.4-3.6c4.2-1.8,9-1.8,13.2,0
		c2,0.9,3.8,2.1,5.4,3.6c1.6,1.6,2.8,3.4,3.6,5.4c0.9,2.1,1.3,4.3,1.3,6.6c0,2.3-0.4,4.5-1.3,6.6c-0.9,2-2.1,3.8-3.6,5.4
		c-1.6,1.6-3.4,2.8-5.4,3.6c-4.2,1.8-9,1.8-13.2,0c-0.5-0.2-1.1,0-1.3,0.5c-0.2,0.5,0,1.1,0.5,1.3c2.3,1,4.8,1.5,7.4,1.5
		c2.6,0,5.1-0.5,7.4-1.5c2.3-1,4.3-2.3,6-4.1c1.7-1.7,3.1-3.8,4.1-6c1-2.3,1.5-4.8,1.5-7.4C48,19.4,47.5,16.9,46.5,14.6z"/>
        <path d="M29,14c-0.6,0-1,0.4-1,1v7c0,0.1,0,0.1,0,0.1c0,0.1,0,0.1,0,0.2c0,0.1,0.1,0.1,0.1,0.2c0,0.1,0.1,0.1,0.1,0.2
		c0,0.1,0.1,0.1,0.2,0.1c0,0,0.1,0.1,0.1,0.1l4.1,2.1c0.5,0.3,1.1,0.1,1.3-0.4c0.3-0.5,0.1-1.1-0.4-1.3L30,21.4V15
		C30,14.4,29.6,14,29,14z"/>
    </symbol>
        
    <symbol id="regenerate-thumbnails" viewBox="0 0 62 44">
        <path d="M35.5,20c1.93,0,3.5-1.57,3.5-3.5c0-1.93-1.57-3.5-3.5-3.5S32,14.57,32,16.5C32,18.43,33.57,20,35.5,20z M35.5,15
	c0.83,0,1.5,0.67,1.5,1.5S36.33,18,35.5,18S34,17.33,34,16.5S34.67,15,35.5,15z M49,6H13c-3.31,0-6,2.69-6,6v21c0,3.31,2.69,6,6,6
	h36c3.31,0,6-2.69,6-6V12C55,8.69,52.31,6,49,6z M9,12c0-2.21,1.79-4,4-4h36c2.21,0,4,1.79,4,4v15.45
	c-1.47-3.71-3.64-7.76-6.26-8.33c-3.83-0.83-6.13,2.93-8.15,6.26c-1.32,2.16-2.68,4.39-4.05,4.61c-1.21,0.18-1.98-0.82-3-2.37
	c-0.82-1.25-1.67-2.54-3.1-2.54c-1.81,0-2.86,1.34-3.69,2.42c-0.45,0.57-0.95,1.27-1.28,1.21c-0.23-0.01-1.16-0.32-3.24-3.69
	c-1.15-1.86-2.37-2.09-3.2-1.95c-3.41,0.57-5.86,9.07-6.78,12.84C9.48,35.15,9,34.13,9,33V12z M49,37H13
	c-0.33,0-0.64-0.05-0.94-0.12c1.32-5.59,3.71-11.6,5.28-11.86c0.44-0.06,0.96,0.7,1.17,1.03c1.96,3.17,3.4,4.56,4.84,4.63
	c1.38,0.09,2.22-1.02,2.97-1.98c0.77-1,1.34-1.65,2.11-1.65c0.35,0,0.98,0.95,1.43,1.64c1.01,1.54,2.4,3.64,4.98,3.25
	c2.29-0.35,3.83-2.87,5.46-5.54c1.76-2.89,3.57-5.88,6.02-5.34c2.37,0.51,5.25,7.52,6.62,12.54C52.64,35.52,51,37,49,37z"/>  
    </symbol>

    <symbol id="code" viewBox="0 0 62 44">      
        <path d="M56,20.8c0-0.1,0-0.1-0.1-0.2c0,0,0,0,0-0.1c0,0,0-0.1-0.1-0.1c0-0.1-0.1-0.1-0.1-0.2c0,0-0.1-0.1-0.2-0.1
		c0,0-0.1-0.1-0.1-0.1l-14-7c-0.5-0.2-1.1,0-1.3,0.4c-0.2,0.5,0,1.1,0.4,1.3L52.8,21l-12.2,6.1c-0.5,0.2-0.7,0.8-0.4,1.3
		c0.2,0.4,0.5,0.6,0.9,0.6c0.2,0,0.3,0,0.4-0.1l14-7c0,0,0,0,0,0c0.1-0.1,0.2-0.1,0.3-0.2c0,0,0,0,0-0.1c0,0,0.1-0.1,0.1-0.2
		c0,0,0,0,0-0.1c0-0.1,0-0.1,0.1-0.2c0-0.1,0-0.1,0-0.2C56,20.9,56,20.9,56,20.8z"/>
        <path d="M20.9,13.6c-0.2-0.5-0.8-0.7-1.3-0.4l-14,7c0,0-0.1,0-0.1,0.1c-0.1,0-0.1,0.1-0.2,0.1c0,0-0.1,0.1-0.1,0.2
		c0,0-0.1,0.1-0.1,0.1c0,0,0,0,0,0.1c0,0.1,0,0.1-0.1,0.2c0,0.1,0,0.1,0,0.2c0,0.1,0,0.1,0,0.2c0,0.1,0,0.1,0.1,0.2c0,0,0,0,0,0.1
		c0,0.1,0.1,0.1,0.1,0.2c0,0,0,0,0,0.1c0.1,0.1,0.2,0.2,0.3,0.2c0,0,0,0,0,0l14,7C19.7,29,19.8,29,20,29c0.4,0,0.7-0.2,0.9-0.6
		c0.2-0.5,0-1.1-0.4-1.3L8.2,21l12.2-6.1C20.9,14.6,21.1,14,20.9,13.6z"/>
        <path d="M35.4,6.1c-0.5-0.2-1.1,0.1-1.3,0.6l-11,29c-0.2,0.5,0.1,1.1,0.6,1.3c0.1,0,0.2,0.1,0.4,0.1c0.4,0,0.8-0.2,0.9-0.6l11-29
		C36.1,6.8,35.9,6.3,35.4,6.1z"/>
    </symbol>

    <symbol id="css" viewBox="0 0 62 44">
       <path d="M52,21.2v1.7c-2.8,0-4.2,1.4-4.2,4.2v3.5c0,2-0.5,3.6-1.6,4.8c-1,1.2-2.6,2.1-4.7,2.6L41,36.7c3-0.9,4.5-2.9,4.5-6v-3.6
	c0-2.7,1.2-4.4,3.5-5.1c-2.4-0.7-3.5-2.4-3.5-5.1v-3.4c0-3.4-1.5-5.5-4.5-6.3L41.5,6c2.1,0.5,3.7,1.4,4.7,2.6c1,1.2,1.5,2.8,1.5,4.8
	V17C47.8,19.8,49.2,21.2,52,21.2z M24.5,29c-0.8,0-1.5,0.7-1.5,1.5s0.7,1.5,1.5,1.5s1.5-0.7,1.5-1.5S25.3,29,24.5,29z M30.5,29
	c-0.8,0-1.5,0.7-1.5,1.5s0.7,1.5,1.5,1.5s1.5-0.7,1.5-1.5S31.3,29,30.5,29z M36.5,29c-0.8,0-1.5,0.7-1.5,1.5s0.7,1.5,1.5,1.5
	s1.5-0.7,1.5-1.5S37.3,29,36.5,29z M15.5,30.8v-3.6c0-2.7-1.2-4.4-3.5-5.1c2.4-0.7,3.5-2.4,3.5-5.1v-3.4c0-3.4,1.5-5.5,4.5-6.3
	L19.5,6c-2.1,0.5-3.7,1.4-4.7,2.6c-1,1.2-1.5,2.8-1.5,4.8V17c0,2.8-1.4,4.2-4.2,4.2v1.7c2.8,0,4.2,1.4,4.2,4.2v3.5
	c0,2,0.5,3.6,1.6,4.8c1,1.2,2.6,2.1,4.7,2.6l0.5-1.3C17,35.9,15.5,33.9,15.5,30.8z"/>
    </symbol>

    <symbol id="robots" viewBox="0 0 24 24">
        <path class="st0" d="M22,11v4c0,0.5-0.5,1-1,1s-1-0.5-1-1v-4c0-0.5,0.5-1,1-1S22,10.5,22,11z M3,10c-0.5,0-1,0.5-1,1v4
    c0,0.5,0.5,1,1,1s1-0.5,1-1v-4C4,10.5,3.5,10,3,10z M8,17.7v2.8C8,21.3,8.7,22,9.5,22s1.5-0.7,1.5-1.5v-1.6c0.3,0,0.7,0.1,1,0.1
    s0.7,0,1-0.1v1.6c0,0.8,0.7,1.5,1.5,1.5s1.5-0.7,1.5-1.5v-2.8c1.8-1.3,3-3.4,3-5.7c-5,0-9,0-14,0C5,14.4,6.2,16.5,8,17.7z M19,10
    c-5,0-9,0-14,0c0-3.9,3.1-7,7-7S19,6.1,19,10z M12,7c0-1.1-0.9-2-2-2S8,5.9,8,7c0,1.1,0.9,2,2,2S12,8.1,12,7z M16,7.5
    C16,6.7,15.3,6,14.5,6S13,6.7,13,7.5S13.7,9,14.5,9S16,8.3,16,7.5z"/>
    </symbol>

    <symbol id="importer" viewBox="0 0 62 44">
        <path d="M47,22.5V36c0,0.4-0.1,0.8-0.2,1.2c-0.2,0.4-0.4,0.7-0.6,1s-0.6,0.5-1,0.6C44.8,38.9,44.4,39,44,39H17
	c-0.4,0-0.8-0.1-1.2-0.2c-0.4-0.2-0.7-0.4-1-0.6c-0.3-0.3-0.5-0.6-0.6-1C14.1,36.8,14,36.4,14,36V9c0-0.4,0.1-0.8,0.2-1.2
	c0.2-0.4,0.4-0.7,0.6-1c0.3-0.3,0.6-0.5,1-0.6C16.2,6.1,16.6,6,17,6h13.5c0.6,0,1,0.4,1,1s-0.4,1-1,1H17c-0.1,0-0.3,0-0.4,0.1
	c-0.1,0-0.2,0.1-0.3,0.2c-0.1,0.1-0.2,0.2-0.2,0.3C16,8.7,16,8.9,16,9v27c0,0.1,0,0.3,0.1,0.4c0,0.1,0.1,0.2,0.2,0.3
	c0.1,0.1,0.2,0.2,0.3,0.2C16.7,37,16.9,37,17,37h27c0.1,0,0.3,0,0.4-0.1c0.1-0.1,0.2-0.1,0.3-0.2s0.2-0.2,0.2-0.3
	C45,36.3,45,36.1,45,36V22.5c0-0.6,0.4-1,1-1S47,21.9,47,22.5z M35.6,17.9C35.7,18,35.9,18,36,18h7c0.6,0,1-0.4,1-1s-0.4-1-1-1h-4.6
	l8.3-8.3c0.4-0.4,0.4-1,0-1.4s-1-0.4-1.4,0L37,14.6V10c0-0.6-0.4-1-1-1s-1,0.4-1,1v7c0,0.1,0,0.3,0.1,0.4
	C35.2,17.6,35.4,17.8,35.6,17.9z"/>
    </symbol>

    <symbol id="htaccess" viewBox="0 0 24 24">
        <path class="st0" d="M14,20c0,1.1-0.9,2-2,2s-2-0.9-2-2s0.9-2,2-2S14,18.9,14,20z M12,15c1.1,0,1.3-0.8,1.3-1.8L14,3.8
    c0-1-0.9-1.8-2-1.8s-2,0.8-2,1.8l0.7,9.5C10.7,14.2,10.9,15,12,15z"/>
    </symbol>

    <symbol id="log" viewBox="0 0 62 44">
        <path d="M38,8H19c-1.7,0-3,1.3-3,3v27c0,1.7,1.3,3,3,3h19c1.7,0,3-1.3,3-3V11C41,9.3,39.7,8,38,8z M39,38c0,0.6-0.4,1-1,1H19
	c-0.6,0-1-0.4-1-1V11c0-0.6,0.4-1,1-1h19c0.6,0,1,0.4,1,1V38z M46,5.9V33c0,0.6-0.4,1-1,1s-1-0.4-1-1V5.9C44,5.4,43.6,5,43.2,5H25
	c-0.6,0-1-0.4-1-1s0.4-1,1-1h18.2C44.7,3,46,4.3,46,5.9z M21,17c0-0.6,0.4-1,1-1h8.3c0.6,0,1,0.4,1,1c0,0.6-0.4,1-1,1H22
	C21.4,18,21,17.6,21,17z M35,23c0,0.6-0.4,1-1,1H22c-0.6,0-1-0.4-1-1c0-0.6,0.4-1,1-1h12C34.6,22,35,22.4,35,23z M35,29
	c0,0.6-0.4,1-1,1H22c-0.6,0-1-0.4-1-1c0-0.6,0.4-1,1-1h12C34.6,28,35,28.4,35,29z"/>
    </symbol>

    <symbol id="file-manager" viewBox="0 0 62 44">
        <path d="M49,37H12c-0.2,0-0.4,0-0.6-0.1c-0.2,0-0.4-0.1-0.6-0.2c-0.2-0.1-0.4-0.2-0.5-0.3c-0.2-0.1-0.3-0.2-0.4-0.4
		c-0.1-0.1-0.3-0.3-0.4-0.4c-0.1-0.2-0.2-0.3-0.3-0.5c-0.1-0.2-0.1-0.4-0.2-0.6C9,34.4,9,34.2,9,34V11c0-0.2,0-0.4,0.1-0.6
		c0-0.2,0.1-0.4,0.2-0.6c0.1-0.2,0.2-0.4,0.3-0.5C9.6,9.2,9.7,9,9.9,8.9c0.1-0.1,0.3-0.3,0.4-0.4c0.2-0.1,0.3-0.2,0.5-0.3
		c0.2-0.1,0.4-0.1,0.6-0.2C11.6,8,11.8,8,12,8h13c0.9,0,1.7,0.4,2.3,1.1l3.9,4.6c0.2,0.2,0.5,0.4,0.8,0.4H49c0.2,0,0.4,0,0.6,0.1
		c0.2,0,0.4,0.1,0.6,0.2c0.2,0.1,0.3,0.2,0.5,0.3c0.2,0.1,0.3,0.2,0.4,0.4c0.1,0.1,0.3,0.3,0.4,0.4c0.1,0.2,0.2,0.3,0.3,0.5
		c0.1,0.2,0.1,0.4,0.2,0.6c0,0.2,0.1,0.4,0.1,0.6v17c0,0.2,0,0.4-0.1,0.6c0,0.2-0.1,0.4-0.2,0.6c-0.1,0.2-0.2,0.3-0.3,0.5
		c-0.1,0.2-0.2,0.3-0.4,0.4c-0.1,0.1-0.3,0.3-0.4,0.4c-0.2,0.1-0.3,0.2-0.5,0.3c-0.2,0.1-0.4,0.1-0.6,0.2C49.4,37,49.2,37,49,37z
		 M11,27.2V34c0,0.1,0,0.1,0,0.2c0,0.1,0,0.1,0.1,0.2c0,0.1,0.1,0.1,0.1,0.2c0,0.1,0.1,0.1,0.1,0.1c0,0,0.1,0.1,0.1,0.1
		c0.1,0,0.1,0.1,0.2,0.1c0.1,0,0.1,0,0.2,0.1c0.1,0,0.1,0,0.2,0h37c0.1,0,0.1,0,0.2,0c0.1,0,0.1,0,0.2-0.1c0.1,0,0.1-0.1,0.2-0.1
		c0.1,0,0.1-0.1,0.1-0.1c0.1-0.1,0.1-0.1,0.1-0.1c0-0.1,0.1-0.1,0.1-0.2s0-0.1,0.1-0.2c0-0.1,0-0.1,0-0.2V17c0-0.1,0-0.1,0-0.2
		c0-0.1,0-0.1-0.1-0.2c0-0.1-0.1-0.1-0.1-0.2c0-0.1-0.1-0.1-0.1-0.1c0,0-0.1-0.1-0.2-0.1c-0.1,0-0.1-0.1-0.2-0.1
		c-0.1,0-0.1,0-0.2-0.1c-0.1,0-0.1,0-0.2,0H31.9c-0.9,0-1.7-0.4-2.3-1.1l-3.9-4.6C25.5,10.1,25.2,10,25,10H12c-0.1,0-0.1,0-0.2,0
		c-0.1,0-0.1,0-0.2,0.1c-0.1,0-0.1,0.1-0.2,0.1c-0.1,0-0.1,0.1-0.1,0.1c0,0-0.1,0.1-0.1,0.1c0,0.1-0.1,0.1-0.1,0.2
		c0,0.1,0,0.1-0.1,0.2c0,0.1,0,0.1,0,0.2V27.2z"/>
    </symbol>
        
    <symbol id="add" viewBox="0 0 62 44">
        <path d="M31,3c-10.49,0-19,8.51-19,19s8.51,19,19,19s19-8.51,19-19S41.49,3,31,3z M31,39c-9.37,0-17-7.63-17-17S21.63,5,31,5
	s17,7.63,17,17S40.37,39,31,39z M36.5,22c0,0.55-0.45,1-1,1H32v3.5c0,0.55-0.45,1-1,1s-1-0.45-1-1V23h-3.5c-0.55,0-1-0.45-1-1
	c0-0.55,0.45-1,1-1H30v-3.5c0-0.55,0.45-1,1-1s1,0.45,1,1V21h3.5C36.05,21,36.5,21.45,36.5,22z"/>
    </symbol>   
    
    <!-- Search icons  (rememebr to add stroke color via CSS e.g. stroke: #000;-->

    <symbol id="close" viewBox="0 0 24 24"> 
         <line fill="none" stroke-linecap="round" stroke-miterlimit="10" x1="8" y1="16" x2="16" y2="8"/>
         <line fill="none" stroke-linecap="round" stroke-miterlimit="10" x1="16" y1="16" x2="8" y2="8"/>
    </symbol>
        
    <symbol id="arrow-down" viewBox="0 0 24 24"> 
         <line fill="none" stroke-linecap="round" stroke-miterlimit="10" x1="6" y1="9" x2="12" y2="15"/>
         <line fill="none" stroke-linecap="round" stroke-miterlimit="10" x1="18" y1="9" x2="12" y2="15"/>
    </symbol>
        
    <symbol id="arrow-up" viewBox="0 0 24 24"> 
         <line fill="none" stroke-linecap="round" stroke-miterlimit="10" x1="6" y1="15" x2="12" y2="9"/>
         <line fill="none" stroke-linecap="round" stroke-miterlimit="10" x1="18" y1="15" x2="12" y2="9"/>
    </symbol>

    <symbol id="arrow-left" viewBox="0 0 24 24">
       <path d="M10.21,12l4.64-4.65a.49.49,0,0,0-.7-.7l-5,5a.48.48,0,0,0,0,.7l5,5a.48.48,0,0,0,.7,0,.48.48,0,0,0,0-.7Z"/>
    </symbol>
        
</svg>
