<svg xmlns="http://www.w3.org/2000/svg">

    <!-- Menu icons -->

    <symbol id="posts" viewBox="0 0 20 20">
        <path class="st0" d="M16,7v10c0,1.1-0.9,2-2,2H3c-1.1,0-2-0.9-2-2V6c0-1.1,0.9-2,2-2h9c-1,0-2,2-3,2H3v11h11v-7C14,8,16,9,16,7z
     M8.3,9.4c-0.4,0.3-0.4,0.9-0.1,1.3c0.3,0.4,0.9,0.4,1.3,0.1l7-6.2C16,3.8,16,3.8,15.3,3.1L8.3,9.4z M18.8,1.3
    c-0.3-0.4-0.9-0.4-1.3-0.1l-0.7,0.6c0.6,0.7,0.6,0.7,1.2,1.4l0.7-0.6C19.1,2.3,19.1,1.7,18.8,1.3z"/>
    </symbol>

    <symbol id="tags" viewBox="0 0 22 22">
        <path d="M21.975,2.926a2.92,2.92,0,0,0-2.9-2.9L12.366,0h-.011a2.9,2.9,0,0,0-2.04.844L.842,10.316a2.9,2.9,0,0,0,.01,4.1l6.734,6.735A2.9,2.9,0,0,0,9.644,22a2.874,2.874,0,0,0,2.04-.842l9.472-9.473A2.9,2.9,0,0,0,22,9.635Zm-2.233,7.346L10.27,19.744A.9.9,0,0,1,9,19.734L2.267,13a.9.9,0,0,1-.01-1.27l9.472-9.473A.879.879,0,0,1,12.355,2h0l6.708.025a.914.914,0,0,1,.908.908L20,9.642A.879.879,0,0,1,19.742,10.271ZM17,7a2,2,0,1,1-2-2A2,2,0,0,1,17,7Z" />
    </symbol>

    <symbol id="menus" viewBox="0 0 20 20">
        <path d="M1,3c0-0.6,0.4-1,1-1h10c0.6,0,1,0.4,1,1c0,0.6-0.4,1-1,1H2C1.4,4,1,3.6,1,3z M18,16H2c-0.5,0-1,0.5-1,1
    s0.5,1,1,1h16c0.5,0,1-0.5,1-1S18.5,16,18,16z M2,11h6c0.5,0,1-0.5,1-1S8.5,9,8,9H2c-0.5,0-1,0.5-1,1S1.5,11,2,11z"/>
    </symbol>


    <symbol id="authors" viewBox="0 0 20 20">
     <path d="M17.2,7.4C17.7,7,18,6.3,18,5.5C18,4.1,16.9,3,15.5,3S13,4.1,13,5.5c0,0.7,0.3,1.3,0.7,1.8c-1,0.4-1.8,1.1-2.4,1.9
    c-0.2-0.2-0.5-0.3-0.8-0.4c0.9-0.8,1.4-2,1.4-3.3C12,3,10,1,7.5,1S3,3,3,5.5c0,1.3,0.5,2.4,1.4,3.3C1.8,10.1,0,12.8,0,15
    c0,3,3.4,4,7.5,4s7.5-1,7.5-4c0-0.3,0-0.7-0.1-1c0.1,0,0.3,0,0.4,0c2.6,0,4.7-0.6,4.7-2.6C20,10,18.8,8.2,17.2,7.4z M15.5,3.9
    c0.9,0,1.6,0.7,1.6,1.6s-0.7,1.6-1.6,1.6s-1.6-0.7-1.6-1.6S14.6,3.9,15.5,3.9z M5,5.5C5,4.1,6.1,3,7.5,3S10,4.1,10,5.5
    C10,6.9,8.9,8,7.5,8S5,6.9,5,5.5z M7.5,17C5.4,17,2,16.7,2,15c0-2,2.5-5,5.5-5s5.5,3,5.5,5C13,16.7,9.6,17,7.5,17z M15.3,13
    c-0.2,0-0.5,0-0.7,0c-0.5-1.2-1.3-2.3-2.4-3.2c0.7-1,1.8-1.8,3.1-1.8c2.1,0,3.8,2.1,3.8,3.5C19.1,12.7,17,13,15.3,13z"/>
    </symbol>

    <symbol id="server" viewBox="0 0 20 20">
        <path d="M17,1H3C1.9,1,1,1.9,1,3v5c0,1.1,0.9,2,2,2h14c1.1,0,2-0.9,2-2V3C19,1.9,18.1,1,17,1z M17,8H3V3h14V8z M17,12
    c0.7,0,1.3,0,2,0v5c0,1.1-0.9,2-2,2H3c-1.1,0-2-0.9-2-2v-5c0.7,0,1.3,0,2,0v5h14V12z M7.5,15C6.7,15,6,14.3,6,13.5S6.7,12,7.5,12
    S9,12.7,9,13.5S8.3,15,7.5,15z"/>
    </symbol>


    <symbol id="themes" viewBox="0 0 20 20">
        <path d="M4,10.2V2c0-0.5-0.5-1-1-1S2,1.5,2,2v8.2c-1.2,0.4-2,1.5-2,2.8s0.8,2.4,2,2.8V18c0,0.5,0.5,1,1,1s1-0.5,1-1v-2.2
    c1.2-0.4,2-1.5,2-2.8S5.2,10.6,4,10.2z M3,15c-1.1,0-2-0.9-2-2c0-1.1,0.9-2,2-2s2,0.9,2,2C5,14.1,4.1,15,3,15z M11,4.2V2
    c0-0.5-0.5-1-1-1S9,1.5,9,2v2.2C7.8,4.6,7,5.7,7,7s0.8,2.4,2,2.8V18c0,0.5,0.5,1,1,1s1-0.5,1-1V9.8c1.2-0.4,2-1.5,2-2.8
    S12.2,4.6,11,4.2z M10,9C8.9,9,8,8.1,8,7c0-1.1,0.9-2,2-2s2,0.9,2,2C12,8.1,11.1,9,10,9z M20,11c0-1.3-0.8-2.4-2-2.8V2
    c0-0.5-0.5-1-1-1s-1,0.5-1,1v6.2c-1.2,0.4-2,1.5-2,2.8s0.8,2.4,2,2.8V18c0,0.5,0.5,1,1,1s1-0.5,1-1v-4.2C19.2,13.4,20,12.3,20,11z
     M17,13c-0.3,0-0.7-0.1-0.9-0.2c0,0,0-0.1-0.1-0.1c0,0,0,0,0,0v0.1c-0.6-0.3-1-1-1-1.7c0-1.1,0.9-2,2-2s2,0.9,2,2
    C19,12.1,18.1,13,17,13z"/>
    </symbol>

    <symbol id="settings" viewBox="0 0 24 24">
        <path d="M24,13.942V10.058l-2.526-.634a9.738,9.738,0,0,0-.952-2.3l1.34-2.231L19.125,2.137,16.877,3.479a9.713,9.713,0,0,0-2.3-.953L13.942,0H10.058L9.424,2.525a9.686,9.686,0,0,0-2.3.953L4.874,2.137,2.139,4.893,3.478,7.124a9.688,9.688,0,0,0-.952,2.3L0,10.058v3.884l2.526.634a9.689,9.689,0,0,0,.953,2.3L2.138,19.125l2.756,2.737,2.231-1.34a9.738,9.738,0,0,0,2.3.952L10.058,24h3.884l.634-2.526a9.7,9.7,0,0,0,2.3-.952l2.233,1.34,2.755-2.737-1.342-2.248a9.735,9.735,0,0,0,.953-2.3ZM19.717,12.79l-.179.68a7.6,7.6,0,0,1-1.176,2.786l-.4.574,1.156,1.943-.346.34-1.939-1.162-.576.388a7.56,7.56,0,0,1-2.786,1.154l-.68.224L12.24,22h-.48l-.55-2.283-.68-.179a7.6,7.6,0,0,1-2.785-1.176l-.576-.4L5.231,19.119l-.343-.343,1.16-1.945-.387-.575a7.558,7.558,0,0,1-1.154-2.786l-.225-.68L2,12.24v-.48l2.282-.55.179-.68A7.6,7.6,0,0,1,5.638,7.744l.4-.576L4.881,5.231l.343-.343,1.945,1.16.575-.387a7.551,7.551,0,0,1,2.786-1.154l.68-.225L11.76,2h.48l.55,2.282.68.179a7.61,7.61,0,0,1,2.786,1.176l.574.4,1.943-1.154.34.346L17.95,7.167l.389.577a7.56,7.56,0,0,1,1.154,2.786l.224.68L22,11.76v.48ZM12,7.636A4.364,4.364,0,1,0,16.364,12,4.369,4.369,0,0,0,12,7.636Zm0,6.545A2.182,2.182,0,1,1,14.182,12,2.184,2.184,0,0,1,12,14.182Z" />
    </symbol>
    <symbol id="tools" viewBox="0 0 22 22">
        <path d="M8.028,10.524a4.864,4.864,0,0,1-6.6-.634A6,6,0,0,1,.117,4.813a.6.6,0,0,1,1-.294L5.238,8.381c1.689,1.7,4.19-3.143,3.377-4.19L4.5,1.128A.6.6,0,0,1,4.8.116a5.937,5.937,0,0,1,5.388,1.635C12.917,4.493,11.294,8.066,8.028,10.524ZM22,19.878a2.114,2.114,0,0,1-3.609,1.5l-8.666-8.7a3.051,3.051,0,0,0-2.392-.836,10.057,10.057,0,0,0,4.488-4.507,2.988,2.988,0,0,0,.9,2.338l8.666,8.7A2.123,2.123,0,0,1,22,19.878Zm-1.365-.751a1.054,1.054,0,0,0-1.5,0,1.066,1.066,0,0,0,0,1.5,1.055,1.055,0,0,0,1.5,0A1.066,1.066,0,0,0,20.635,19.127Z"/>
    </symbol>

    <symbol id="bell" viewBox="0 0 23 24">
        <path d="M22.735,18.321a11.9,11.9,0,0,1-2.885-7.13C19.851,1.941,15.309,0,11.5,0S3.15,1.964,3.15,11.323A11.324,11.324,0,0,1,.28,18.306,1,1,0,0,0,1,20H22a1,1,0,0,0,.734-1.679ZM3.024,18A12.444,12.444,0,0,0,5.15,11.323C5.15,2,9.93,2,11.5,2c4.273,0,6.35,3.006,6.35,9.191A12.9,12.9,0,0,0,20.008,18ZM9,22h4a2,2,0,0,1-4,0Z" />
    </symbol>

    <symbol id="add-site" viewBox="0 0 24 24">
        <path fill="#47AA6F" d="M13.1,10.9h3.3v2.2h-3.3v3.3h-2.2v-3.3H7.6v-2.2h3.3V7.6h2.2V10.9z M23,12c0,6.1-4.9,11-11,11S1,18.1,1,12
    S5.9,1,12,1S23,5.9,23,12z M21,12c0-5-4-9-9-9s-9,4-9,9c0,5,4,9,9,9S21,17,21,12z"/>
    </symbol>

    <symbol id="add-site-mono" viewBox="0 0 24 24">
        <path d="M13.1,10.9h3.3v2.2h-3.3v3.3h-2.2v-3.3H7.6v-2.2h3.3V7.6h2.2V10.9z M23,12c0,6.1-4.9,11-11,11S1,18.1,1,12
    S5.9,1,12,1S23,5.9,23,12z M21,12c0-5-4-9-9-9s-9,4-9,9c0,5,4,9,9,9S21,17,21,12z"/>
    </symbol>

     <symbol id="upload-file" viewBox="0 0 24 24">
        <path d="M11,19h2v2h-2V19z M12,4l-7,6.6L6.5,12L11,7.7V16h2V7.7l4.5,4.3l1.5-1.4L12,4z"/>
      </symbol>

    <!-- Buttons icons -->

    <symbol id="sync" viewBox="0 0 19 16">
        <path d="M19,8A8,8,0,0,1,3,8H0L4,2.67,8,8H5a6,6,0,1,0,6-6,5.934,5.934,0,0,0-2.56.58L7.21.95A8.007,8.007,0,0,1,19,8Z" />
    </symbol>

    <symbol id="plus" viewBox="0 0 20 20">
        <path d="M11,9h3v2H11v3H9V11H6V9H9V6h2Zm9,1A10,10,0,1,1,10,0,10,10,0,0,1,20,10Zm-2,0a8,8,0,1,0-8,8A8.009,8.009,0,0,0,18,10Z" />
    </symbol>

    <symbol id="trash" viewBox="0 0 16 16">
    <path d="M14,3c0,0.5-0.5,1-1,1H3C2.5,4,2,3.5,2,3s0.5-1,1-1h3c0-0.5,0.4-1,1-1h2c0.5,0,1,0.5,1,1h3C13.5,2,14,2.5,14,3z
     M12,5H4C3.4,5,3,5.4,3,6v8.1C3,15.1,3.9,16,4.9,16h6.2c1.1,0,1.9-0.9,1.9-1.9V6C13,5.5,12.5,5,12,5z"/>
    </symbol>

    <symbol id="alert" viewBox="0 0 22 19">
        <path d="M22.6,19.4,13.5,4c-.8-1.4-2.2-1.4-3,0L1.4,19.4C.5,20.8,1.2,22,2.9,22H21.1C22.8,22,23.5,20.8,22.6,19.4ZM12,20a1.5,1.5,0,1,1,1.5-1.5A1.5,1.5,0,0,1,12,20Zm1.5-9.8-.9,5c-.3,1.6-.8,1.6-1.1,0l-.9-5c-.3-1.6.4-2.9,1.5-2.9S13.8,8.6,13.5,10.2Z" transform="translate(-1 -3)"/>
    </symbol>


    <!-- Other icons  -->

    <symbol id="blank-image" viewBox="0 0 68 48">
        <path d="M35,15c0-2.76,2.24-5,5-5s5,2.24,5,5s-2.24,5-5,5S35,17.76,35,15z M68,42c0,0.18-0.01,0.36-0.03,0.53L68,42.64l-0.04,0.06C67.61,45.69,65.08,48,62,48H6c-3.31,0-6-2.69-6-6V6c0-3.31,2.69-6,6-6h56c3.31,0,6,2.69,6,6V42z M5.31,45.93c1.09-5.01,4.63-19.61,9.04-20.28c1.29-0.19,2.5,0.72,3.57,2.73c2.32,4.31,4.13,6.52,5.4,6.59c0.89,0.04,1.73-1.14,2.59-2.4C27.05,30.89,28.34,29,30.5,29c1.57,0,2.6,1.79,3.69,3.69c1.36,2.37,2.78,4.81,5.2,4.38c2.39-0.42,4.37-4.15,6.47-8.09c2.88-5.41,5.86-10.99,10.73-9.79c3.91,0.97,7.37,9.8,9.41,16.29V6c0-2.21-1.79-4-4-4H6C3.79,2,2,3.79,2,6v36C2,43.97,3.44,45.6,5.31,45.93z"/>
    </symbol>

     <symbol id="gallery" viewBox="0 0 82 62">
       <path d="M45,29c0,2.76-2.24,5-5,5s-5-2.24-5-5s2.24-5,5-5S45,26.24,45,29z M78,10v36c0,3-2.2,5.48-5.08,5.92
	c-0.4,2.58-2.43,4.61-5.01,5C67.46,59.8,65,62,62,62H6c-3.31,0-6-2.69-6-6V20c0-3,2.21-5.48,5.08-5.92c0.4-2.57,2.42-4.6,5-5
	C10.52,6.2,13,4,16,4h56C75.31,4,78,6.69,78,10z M66,20c0-2.21-1.79-4-4-4H6c-2.21,0-4,1.79-4,4v36c0,1.97,1.44,3.6,3.31,3.93
	c1.09-5.01,4.63-19.61,9.04-20.28c1.29-0.19,2.5,0.72,3.57,2.73c2.32,4.31,4.13,6.52,5.4,6.59c0.89,0.04,1.73-1.14,2.59-2.4
	C27.05,44.89,28.34,43,30.5,43c1.57,0,2.6,1.79,3.69,3.69c1.36,2.37,2.78,4.81,5.2,4.38c2.39-0.42,4.37-4.15,6.47-8.09
	c2.88-5.41,5.86-10.99,10.73-9.79c3.91,0.97,7.37,9.8,9.41,16.29V20z M71,15c0-2.21-1.79-4-4-4H11c-1.86,0-3.4,1.28-3.85,3H62
	c3.31,0,6,2.69,6,6v34.86c1.72-0.45,3-2,3-3.86V15z M76,10c0-2.21-1.79-4-4-4H16c-1.86,0-3.4,1.28-3.85,3H67c3.31,0,6,2.69,6,6
	v34.86c1.72-0.45,3-2,3-3.86V10z"/>
    </symbol>

    <symbol id="magnifier" viewBox="0 0 24 23">
        <path d="M23.6,20.5l-6.8-6.8a9,9,0,1,0-1.9,2.3l6.7,6.7a1.5,1.5,0,0,0,2.1-2.1ZM9,16a7,7,0,1,1,7-7A7,7,0,0,1,9,16Z"/>
    </symbol>

    <symbol id="magnifier-small" viewBox="0 0 16 16">
        <path d="M14.81,13.14l-2.96-2.96c0,0-0.01,0-0.01,0C12.57,9.14,13,7.87,13,6.5C13,2.92,10.08,0,6.5,0S0,2.92,0,6.5S2.92,13,6.5,13
    c1.37,0,2.64-0.43,3.68-1.15c0,0,0,0.01,0,0.01l2.96,2.96c0.33,0.33,0.97,0.22,1.43-0.24C15.03,14.11,15.14,13.47,14.81,13.14z
     M6.5,11C4.02,11,2,8.98,2,6.5S4.02,2,6.5,2S11,4.02,11,6.5S8.98,11,6.5,11z"/>
    </symbol>


    <symbol id="switcher" viewBox="0 0 34 20"><rect fill="currentColor" y="2" width="30" height="16" rx="8" ry="8"/><circle cx="24" cy="10" r="10"/></symbol>


    <!-- Window icons  -->

    <symbol id="win-minimize" viewBox="0 0 10 1">
        <rect width="10" height="1"/>
    </symbol>

    <symbol id="win-expand" viewBox="0 0 10 10">
        <path d="M0,10H7V3H0ZM1,4H6V9H1Zm9-4V7H9V1H3V0Z"/>
    </symbol>

    <symbol id="win-maximize" viewBox="0 0 10 10">
        <path d="M9,1V9H1V1H9m1-1H0V10H10V0Z"/>
    </symbol>

    <symbol id="win-close" viewBox="0 0 10 10">
        <polygon points="10 0.66 9.34 0 5 4.34 0.66 0 0 0.66 4.34 5 0 9.34 0.66 10 5 5.66 9.34 10 10 9.34 5.66 5 10 0.66"/>
    </symbol>

    <symbol id="stats" viewBox="0 0 19 19">
        <path d="M3,7v10c0,0.5-0.5,1-1,1s-1-0.5-1-1V7c0-0.5,0.5-1,1-1S3,6.5,3,7z M7,1C6.5,1,6,1.5,6,2v15c0,0.5,0.5,1,1,1s1-0.5,1-1V2
    C8,1.5,7.5,1,7,1z M12,10c-0.5,0-1,0.5-1,1v6c0,0.5,0.5,1,1,1s1-0.5,1-1v-6C13,10.5,12.5,10,12,10z M17,6c-0.5,0-1,0.5-1,1v10
    c0,0.5,0.5,1,1,1s1-0.5,1-1V7C18,6.5,17.5,6,17,6z"/>
    </symbol>

    <symbol id="on-live-preview" viewBox="0 0 19 19">
        <path d="M19,9l-0.3,0.5c-1.1,1.6-2.4,2.9-3.7,3.8L12.7,11c0.3-0.6,0.5-1.3,0.5-2c0-2.1-1.7-3.9-3.8-3.9c-2.1,0-3.8,1.7-3.8,3.9
    s1.7,3.9,3.8,3.9c0.9,0,1.8-0.3,2.4-0.9l1.9,1.9C12.4,14.6,11,15,9.5,15C6,15,2.8,13,0.3,9.5L0,9l0.3-0.5C2.8,5,6,3,9.5,3
    s6.7,2,9.2,5.5L19,9z M7,9.1c0,1.4,1.1,2.5,2.4,2.5c1.3,0,2.4-1.1,2.4-2.5c0-1.4-1.1-2.5-2.4-2.5C8.1,6.6,7,7.7,7,9.1z"/>
    </symbol>


    <symbol id="off-live-preview" viewBox="0 0 19 19">
        <path d="M18.7,9.5c-1.2-1.8-2.7-3.2-4.3-4.2l3.5-3.5c0.2-0.2,0.2-0.5,0-0.7s-0.5-0.2-0.7,0l-3.7,3.7C12.2,4.3,10.9,4,9.5,4
    C6,4,2.8,6,0.3,9.5L0,10l0.3,0.5c1.1,1.6,2.3,2.8,3.7,3.8l-2.9,2.9c-0.2,0.2-0.2,0.5,0,0.7C1.2,18,1.4,18,1.5,18s0.3,0,0.3-0.1
    l3.1-3.1c1.4,0.8,3,1.2,4.6,1.2c1.5,0,2.9-0.4,4.3-1.1L11.9,13c-0.7,0.6-1.5,0.9-2.4,0.9c-1,0-1.9-0.4-2.6-1.1l1-1
    c0.4,0.4,1,0.6,1.6,0.6c1.3,0,2.4-1.1,2.4-2.5c0-0.6-0.2-1.2-0.6-1.6l1-1c0.6,0.7,1,1.6,1,2.6c0,0.7-0.2,1.4-0.5,2l2.2,2.2
    c1.4-0.9,2.6-2.2,3.7-3.8L19,10L18.7,9.5z M5.6,10.1c0-2.1,1.7-3.9,3.8-3.9c0.8,0,1.5,0.2,2,0.6l-1,1c-0.3-0.1-0.7-0.2-1-0.2
    C8.1,7.6,7,8.7,7,10.1c0,0.4,0.1,0.7,0.2,1l-1,1C5.9,11.5,5.6,10.8,5.6,10.1z"/>
    </symbol>



    <!-- Website icons  -->

    <symbol id="web-pizza" viewBox="0 0 24 24">
        <path d="M20.616 14.594l-6.65-1.08 2.362 6.376a9.02 9.02 0 0 0 4.288-5.296zM18 15a1 1 0 1 1-1 1 1 1 0 0 1 1-1z"/><path d="M20.97 12.617c.013-.2.03-.41.03-.617a9.01 9.01 0 1 0-6.435 8.624L11 11zM16 6.5A1.5 1.5 0 1 1 14.5 8 1.5 1.5 0 0 1 16 6.5zM11 5a1 1 0 1 1-1 1 1 1 0 0 1 1-1zm-7 6a1 1 0 1 1 1 1 1 1 0 0 1-1-1zm3 6a2 2 0 1 1 2-2 2 2 0 0 1-2 2zm.5-7A1.5 1.5 0 1 1 9 11.5 1.5 1.5 0 0 1 7.5 10zm4.5 8a1 1 0 1 1-1-1 1 1 0 0 1 1 1z"/><path d="M12 0a12 12 0 1 0 3.61 23.445l-.7-1.88A10 10 0 1 1 22 12c0 .262-.02.52-.04.778l1.985.322c.033-.363.055-.728.055-1.1A12 12 0 0 0 12 0z"/><path d="M16.677 20.832l.7 1.885a12.008 12.008 0 0 0 6.21-7.64l-1.98-.323a10.037 10.037 0 0 1-4.93 6.078z"/>
    </symbol>

    <symbol id="web-glass" viewBox="0 0 14 24">
        <path d="M12.387 22.877L8 22v-8.1c3.39-.625 6-4.365 6-8.9a10.85 10.85 0 0 0-1.18-5H1.18A10.85 10.85 0 0 0 0 5c0 4.533 2.61 8.272 6 8.9V22l-4.387.877c-.364.073-.613.3-.613.55 0 .316.385.572.86.572h10.28c.475 0 .86-.258.86-.574 0-.253-.25-.476-.613-.55zm-5.48-9.89a4.924 4.924 0 0 1-3.99-2.287A9.033 9.033 0 0 1 1.37 5.495 10.02 10.02 0 0 1 1.6 3.34a8.878 8.878 0 0 1 .65-1.917.72.72 0 0 1 1.3.618 7.47 7.47 0 0 0-.544 1.61 8.6 8.6 0 0 0-.2 1.845 7.59 7.59 0 0 0 1.277 4.373 3.535 3.535 0 0 0 2.82 1.68.72.72 0 0 1 0 1.44z"/>
    </symbol>

    <symbol id="web-apple" viewBox="0 0 24 24">
        <path d="M11 5.26a.64.64 0 0 1 .02-.1l.016-.054a6.467 6.467 0 0 1 .686-1.46 7.546 7.546 0 0 1 2.423-2.5 7.3 7.3 0 0 1 3.292-1.1A6.985 6.985 0 0 1 18.57.01l.43.004-.424.052a6.788 6.788 0 0 0-1.1.187 6.69 6.69 0 0 0-2.893 1.42 6.444 6.444 0 0 0-1.778 2.463A5.045 5.045 0 0 0 12.43 5.4a.706.706 0 0 1-.787.6.684.684 0 0 1-.643-.74zM24 15c0 4.97-3.244 9-7.245 9-1.822 0-2.763-1.237-4.755-1.237S9.067 24 7.245 24C3.245 24 0 19.97 0 15s3.244-9 7.245-9c1.822 0 2.763.9 4.755.9s2.933-.9 4.755-.9c4 0 7.245 4.03 7.245 9zM5.812 19.522c-3.2-4.147-.61-9.086-.568-9.166a.9.9 0 0 0-.527-1.265 1.18 1.18 0 0 0-1.465.456c-.132.24-3.178 5.962.727 11.03A1.155 1.155 0 0 0 4.9 21a1.227 1.227 0 0 0 .61-.16.875.875 0 0 0 .302-1.318z"/>
    </symbol>

    <symbol id="web-shoe" viewBox="0 0 24 24">
        <path d="M2.412 24s-.2-8.265-.34-9.42C1.904 13.172.624 8.38.124 6.34a3.6 3.6 0 0 1 0-1.937C1.02.5 1.734.1 2.044.018c.98-.262 4.48 2.465 6.034 5.812s3.287 10.407 6.127 12.47a5 5 0 0 0 5.58.222c1.165-.2 4.318 2.083 4.212 3.3s-1.743 1.2-2.44 1.28c-2.582.3-8.5 1.394-10.18.625S8.26 15.38 4.79 12.283C3.03 10.71 3.66 24 3.66 24z"/>
    </symbol>

    <symbol id="web-bag" viewBox="0 0 24 24">
        <path d="M2 24h20a2 2 0 0 0 2-2H0a2 2 0 0 0 2 2zM19 6V1.548A1.63 1.63 0 0 0 17.3 0H6.7A1.63 1.63 0 0 0 5 1.548V6H0v15h24V6zM7 2.457C7 2.1 7.315 2 7.7 2h8.6c.388 0 .7.1.7.457V6H7zM6 12a1.994 1.994 0 0 1-1-3.723v.813A.958.958 0 0 0 6 10a.958.958 0 0 0 1-.91v-.813A1.994 1.994 0 0 1 6 12zm12 0a1.994 1.994 0 0 1-1-3.723v.813a1 1 0 0 0 2 0v-.813A1.994 1.994 0 0 1 18 12z"/>
    </symbol>

    <symbol id="web-shirt" viewBox="0 0 20 24">
        <path d="M10 4.863L4 2V0l6 1 6-1v2zM20 2v22H0V2h4l2.6 6L10 4.863 13.4 8 16 2zm-9 5H9v15h2z"/>
    </symbol>

    <symbol id="web-note" viewBox="0 0 16 24">
        <path d="M15.85 5.758A7.42 7.42 0 0 0 9.045 0H9a1 1 0 0 0-1 1v16.2a6.788 6.788 0 0 0-4.036.288c-2.7.98-4.426 3.125-3.854 4.79s3.226 2.222 5.927 1.24c2.37-.86 3.987-2.617 3.96-4.16V2.188A5.36 5.36 0 0 1 13.93 6.18a5.955 5.955 0 0 1-1.692 5.08 1.014 1.014 0 0 0-.06 1.412.968.968 0 0 0 1.386.062 7.92 7.92 0 0 0 2.286-6.976z"/>
    </symbol>

    <symbol id="web-mic" viewBox="0 0 18 24">
        <path d="M9.99 19.943c0 .02.01.037.01.057v2h3a1 1 0 0 1 0 2H5a1 1 0 0 1 0-2h3v-2c0-.02.01-.037.01-.057A9 9 0 0 1 0 11h2a7 7 0 0 0 14 0h2a9 9 0 0 1-8.01 8.943zM9 16a5.015 5.015 0 0 0 5-5h-4V9h4V7h-4V5h4A5 5 0 0 0 4 5v6a5.015 5.015 0 0 0 5 5z"/>
    </symbol>

    <symbol id="web-headphone" viewBox="0 0 24 24">
        <path d="M24 12a12 12 0 1 0-21.545 7.246c.554.747 3.1 3.74 3.837 4.685a.17.17 0 0 0 .247.025l1.885-1.666a2.006 2.006 0 0 0 .416-2.8l-1.193-1.602a2.006 2.006 0 0 0-2.8-.416l-.777.576A9.9 9.9 0 0 1 2 12a10 10 0 0 1 20 0 9.9 9.9 0 0 1-2.072 6.048l-.777-.576a2.006 2.006 0 0 0-2.8.416l-1.19 1.607a2.006 2.006 0 0 0 .416 2.8l1.886 1.666a.17.17 0 0 0 .247-.023c.737-.945 3.282-3.938 3.836-4.685A11.91 11.91 0 0 0 24 12z"/>
    </symbol>

    <symbol id="web-billard" viewBox="0 0 24 24">
        <path d="M12 0a12 12 0 1 0 12 12A12 12 0 0 0 12 0zm0 17.5a5.5 5.5 0 1 1 5.5-5.5 5.5 5.5 0 0 1-5.5 5.5zm1.68-8.982A2.1 2.1 0 0 0 12.217 8a2.3 2.3 0 0 0-1.905.9 5.362 5.362 0 0 0-.81 3.3 4.58 4.58 0 0 0 .733 2.915 2.35 2.35 0 0 0 1.9.885 2.247 2.247 0 0 0 1.22-.337 2.293 2.293 0 0 0 .843-.97 3.1 3.1 0 0 0 .308-1.37 2.593 2.593 0 0 0-.654-1.83 2.077 2.077 0 0 0-1.583-.71 2.15 2.15 0 0 0-1.018.257 2.19 2.19 0 0 0-.822.786 5.223 5.223 0 0 1 .263-1.812 2.184 2.184 0 0 1 .694-.967 1.247 1.247 0 0 1 .78-.256 1.212 1.212 0 0 1 .93.412 1.845 1.845 0 0 1 .35.823l.924-.075a2.225 2.225 0 0 0-.687-1.432zM11.01 12.1a1.412 1.412 0 0 1 1.07-.467 1.354 1.354 0 0 1 1.053.467 1.85 1.85 0 0 1 .42 1.28 1.98 1.98 0 0 1-.424 1.337 1.294 1.294 0 0 1-1.012.492 1.392 1.392 0 0 1-.77-.24 1.562 1.562 0 0 1-.57-.692 2.3 2.3 0 0 1-.2-.95 1.72 1.72 0 0 1 .434-1.228z"/>
    </symbol>

    <symbol id="web-racket" viewBox="0 0 21 24">
        <path d="M2.813 14.38L9.4 19.3a8.37 8.37 0 0 1-2.92-.91l-2.646 5.164a1.135 1.135 0 0 1-1.58.22l-1.8-1.348a1.114 1.114 0 0 1-.223-1.568L4.5 16.91a8.248 8.248 0 0 1-1.687-2.53zm15.944.7a10.854 10.854 0 0 1-5.924 3.983L2.1 11.043A10.7 10.7 0 0 1 4.33 4.3c3.377-4.448 9.344-5.638 13.328-2.66s4.476 8.993 1.1 13.438zM17 10a2 2 0 1 0-2 2 2 2 0 0 0 2-2z"/>
    </symbol>

    <symbol id="web-car" viewBox="0 0 24 22">
        <path d="M24 14a5 5 0 0 0-3.04-4.6A2.954 2.954 0 0 0 21 9V3a3 3 0 0 0-3-3H6a3 3 0 0 0-3 3v6a2.954 2.954 0 0 0 .04.4A4.98 4.98 0 0 0 2 17.98V20a2 2 0 0 0 4 0v-1h12v1a2 2 0 0 0 4 0v-2.02A4.976 4.976 0 0 0 24 14zM5 3a1 1 0 0 1 1-1h12a1 1 0 0 1 1 1v6H5zm0 13a2 2 0 1 1 2-2 2 2 0 0 1-2 2zm12-2a2 2 0 1 1 2 2 2 2 0 0 1-2-2z"/>
    </symbol>

    <symbol id="web-camera" viewBox="0 0 24 21">
        <path d="M16 12a4 4 0 1 1-4-4 4 4 0 0 1 4 4zm8-7v14a2.006 2.006 0 0 1-2 2H2a2.006 2.006 0 0 1-2-2V5a2.006 2.006 0 0 1 2-2h5l2-3h6l2 3h5a2.006 2.006 0 0 1 2 2zm-6 7a6 6 0 1 0-6 6 6.007 6.007 0 0 0 6-6zm4.5-6A1.5 1.5 0 1 0 21 7.5 1.5 1.5 0 0 0 22.5 6z"/>
    </symbol>

    <symbol id="web-doc" viewBox="0 0 18 24">
        <path d="M13 3.75V0l5 5h-3.75A1.25 1.25 0 0 1 13 3.75zM14.667 6H18v16a2 2 0 0 1-2 2H2a2 2 0 0 1-2-2V2a2 2 0 0 1 2-2h10v3.333A2.667 2.667 0 0 0 14.667 6zM3 16h6v-2H3zm9 2H3v2h9zm3-8H3v2h12z"/>
    </symbol>

    <symbol id="web-money" viewBox="0 0 24 24">
        <path d="M12 0a12 12 0 1 0 12 12A12 12 0 0 0 12 0zm0 22a10 10 0 1 1 10-10 10.01 10.01 0 0 1-10 10zm4.546-7.628C16.546 16.117 15 17.607 13 18v2h-2v-1.863a10.224 10.224 0 0 1-3.466-.843L8.1 15a7.288 7.288 0 0 0 3.35.864c1.15 0 1.934-.432 1.934-1.217 0-.744-.65-1.216-2.143-1.706-2.158-.704-3.64-1.685-3.64-3.587.005-1.725 1.4-3.078 3.4-3.49V4h2v1.725a9.39 9.39 0 0 1 2.93.648l-.58 2.215a6.84 6.84 0 0 0-2.906-.667c-1.31 0-1.735.55-1.735 1.1 0 .648.705 1.06 2.42 1.687 2.4.822 3.416 1.9 3.416 3.665z"/>
    </symbol>

    <symbol id="web-gear" viewBox="0 0 24 24">
        <path d="M21.443 14.504a9.625 9.625 0 0 1-1 2.378l1.32 2.233-2.663 2.63-2.215-1.327A9.684 9.684 0 0 1 14.5 21.44L13.874 24h-3.748l-.63-2.557a9.635 9.635 0 0 1-2.376-1L4.9 21.758l-2.647-2.646 1.33-2.23A9.7 9.7 0 0 1 2.56 14.5L0 13.874v-3.75l2.557-.63a9.655 9.655 0 0 1 1-2.375L2.243 4.9l2.645-2.647 2.23 1.33A9.7 9.7 0 0 1 9.495 2.56l.63-2.56h3.75l.63 2.557a9.658 9.658 0 0 1 2.377 1.005l2.233-1.32 2.63 2.664-1.327 2.213a9.7 9.7 0 0 1 1.023 2.374l2.56.632v3.748zm.557-2.2v-.615l-2.25-.556-.122-.625a7.74 7.74 0 0 0-1.213-2.82l-.355-.528 1.17-1.952-.446-.452-1.954 1.158-.524-.354a7.675 7.675 0 0 0-2.818-1.19l-.626-.123L12.307 2h-.615l-.555 2.25-.625.122a7.714 7.714 0 0 0-2.82 1.213l-.526.355-1.958-1.168-.448.45 1.157 1.946-.354.525a7.676 7.676 0 0 0-1.19 2.818l-.123.627-2.25.556v.615l2.25.555.123.626a7.73 7.73 0 0 0 1.213 2.82l.355.524-1.168 1.958.45.448 1.946-1.157.525.354a7.684 7.684 0 0 0 2.82 1.19l.624.123.555 2.25h.615l.555-2.25.625-.122a7.74 7.74 0 0 0 2.82-1.213l.528-.355 1.95 1.17.453-.446-1.154-1.954.354-.524a7.678 7.678 0 0 0 1.19-2.818l.123-.626zM16 12a4 4 0 1 1-4-4 4 4 0 0 1 4 4zm-2 0a2 2 0 1 0-2 2 2 2 0 0 0 2-2z"/>
    </symbol>

    <!-- Folder icons  -->

    <symbol id="folder-opened" viewBox="0 0 22 16">
        <path d="M19.83,6H18V5.044a1.857,1.857,0,0,0-1.636-2.018H9.818L7.364,0H1.636A1.857,1.857,0,0,0,0,2.018V14l.016-.013A1.968,1.968,0,0,0,2.17,16h14.9a2.185,2.185,0,0,0,2.038-1.2l2.76-6.364C22.382,7.254,21.335,6,19.83,6ZM1.636.913h5.3L9.118,3.6l.271.335h6.974c.346,0,.732.454.732,1.105V6H4.93A2.185,2.185,0,0,0,2.892,7.2L.9,11.78V2.018C.9,1.366,1.29.913,1.636.913ZM20.95,8.042l-2.76,6.364A1.208,1.208,0,0,1,17.07,15H2.17A1.251,1.251,0,0,1,1.1,14.508a.545.545,0,0,1-.055-.549L3.81,7.595A1.208,1.208,0,0,1,4.93,7h14.9a1.251,1.251,0,0,1,1.065.492A.544.544,0,0,1,20.95,8.042Z"/>
    </symbol>

    <symbol id="folder-opened" viewBox="0 0 22 16">
        <path d="M19.83,6H18V5.044a1.857,1.857,0,0,0-1.636-2.018H9.818L7.364,0H1.636A1.857,1.857,0,0,0,0,2.018V14l.016-.013A1.968,1.968,0,0,0,2.17,16h14.9a2.185,2.185,0,0,0,2.038-1.2l2.76-6.364C22.382,7.254,21.335,6,19.83,6ZM1.636.913h5.3L9.118,3.6l.271.335h6.974c.346,0,.732.454.732,1.105V6H4.93A2.185,2.185,0,0,0,2.892,7.2L.9,11.78V2.018C.9,1.366,1.29.913,1.636.913ZM20.95,8.042l-2.76,6.364A1.208,1.208,0,0,1,17.07,15H2.17A1.251,1.251,0,0,1,1.1,14.508a.545.545,0,0,1-.055-.549L3.81,7.595A1.208,1.208,0,0,1,4.93,7h14.9a1.251,1.251,0,0,1,1.065.492A.544.544,0,0,1,20.95,8.042Z"/>
    </symbol>

    <symbol id="folder" viewBox="0 0 22 16">
        <path d="M7.93,1a1,1,0,0,1,.832.445l1.406,2.109.3.445H20a1,1,0,0,1,1,1v9a1,1,0,0,1-1,1H2a1,1,0,0,1-1-1V2A1,1,0,0,1,2,1H7.93m0-1H2A2,2,0,0,0,0,2V14a2,2,0,0,0,2,2H20a2,2,0,0,0,2-2V5a2,2,0,0,0-2-2H11L9.594.891A2,2,0,0,0,7.93,0Z"/>
    </symbol>

    <!-- Preview window icons  -->

    <symbol id="preview-prev" viewBox="0 0 10 20">
        <path d="M9.664.254A1,1,0,0,0,8.251.337l-8.008,9a.936.936,0,0,0-.07.12.974.974,0,0,0-.1.173.966.966,0,0,0-.047.183.712.712,0,0,0,0,.376.966.966,0,0,0,.047.183.974.974,0,0,0,.1.173.936.936,0,0,0,.07.12l8.008,9a1,1,0,0,0,1.5-1.328L2.33,10,9.747,1.665A1,1,0,0,0,9.664.254Z"/>
    </symbol>

    <symbol id="preview-next" viewBox="0 0 10 20">
        <path d="M.336.254A1,1,0,0,1,1.749.337l8.008,9a.936.936,0,0,1,.07.12.912.912,0,0,1,0,1.088.936.936,0,0,1-.07.12l-8.008,9a1,1,0,0,1-1.5-1.328L7.67,10,.253,1.665A1,1,0,0,1,.336.254Z"/>
    </symbol>

    <symbol id="preview-dev" viewBox="0 0 20 20">
        <path d="M1.472,2.9a14.459,14.459,0,0,0,.151,1.742,16.6,16.6,0,0,1,.225,1.844c0,.759.258,1.54-1.848,1.592v1.945c2.105.05,1.848,1.01,1.848,1.718a18.384,18.384,0,0,1-.188,1.971c-.075.683-.169,1.792-.169,2.423A3.536,3.536,0,0,0,5.313,20H6V18H5.767c-1.162,0-1.541-1.2-1.541-2.307a13.18,13.18,0,0,1,.126-1.66,15.879,15.879,0,0,0,.474-1.89C4.851,10.223,4,9.368,3,9.065v-.05C4,8.711,4.851,8,4.826,6.083c0-.632-.533-2.269-.533-2.724C4.293,2.247,4.63,2,5.767,2H6V0H5.337C2.963,0,1.472.528,1.472,2.9Z"/><path d="M20,10.025V8.08c-2.105-.051-1.848-.9-1.848-1.657a17.723,17.723,0,0,1,.225-1.909A12.442,12.442,0,0,0,18.528,2.9c0-2.375-1.491-2.9-3.865-2.9H14V2h.233c1.137,0,1.474.247,1.474,1.36,0,.454-.533,2.157-.533,2.79C15.149,8.069,16,8.711,17,9.014v.05c-1,.3-1.851,1.093-1.826,3.013a14.689,14.689,0,0,0,.474,1.824,15.241,15.241,0,0,1,.126,1.791c0,1.111-.379,2.307-1.541,2.307H14v2h.688a3.536,3.536,0,0,0,3.822-3.864c0-.631-.094-1.609-.169-2.292a19.573,19.573,0,0,1-.188-2.036C18.152,11.1,17.895,10.075,20,10.025Z"/>
    </symbol>

    <symbol id="preview-reload" viewBox="0 0 20 16">
        <path d="M0,9.86C0,5.367,3.768,2,8.421,2a8.346,8.346,0,0,1,8.421,8.4H20l-4.211,5.418L11.579,10.4h3.158A6.176,6.176,0,0,0,8.421,4.033,6.1,6.1,0,0,0,2.105,10a6.159,6.159,0,0,0,6.316,6.031,6.454,6.454,0,0,0,2.695-.624l1.295,1.64A8.724,8.724,0,0,1,8.421,18,8.285,8.285,0,0,1,0,9.86Z" transform="translate(0 -2)"/>
    </symbol>


    <!-- Message icons  -->

    <symbol id="success" viewBox="0 0 48 48">
        <path d="M24,0A24,24,0,1,0,48,24,24,24,0,0,0,24,0ZM40.061,16.561l-18,18a1.5,1.5,0,0,1-2.121,0l-12-12a1.5,1.5,0,1,1,2.121-2.121L21,31.379,37.939,14.439a1.5,1.5,0,0,1,2.121,2.121Z"/>
    </symbol>

    <symbol id="warning" viewBox="0 0 48 48">
        <path d="M24,0A24,24,0,1,0,48,24,24,24,0,0,0,24,0Zm9.6,31.944a1.5,1.5,0,0,1-2.117,2.117l-7.945-7.944-7.945,7.944a1.5,1.5,0,1,1-2.117-2.117L21.421,24l-7.945-7.944a1.5,1.5,0,1,1,2.117-2.117l7.945,7.944,7.945-7.944A1.5,1.5,0,0,1,33.6,16.055L25.656,24Z"/>
    </symbol>

    <symbol id="info" viewBox="0 0 48 48">
        <path d="M24,0A24,24,0,1,0,48,24,24,24,0,0,0,24,0ZM22.007,14.643a2.424,2.424,0,0,1,3.288,0,2.134,2.134,0,0,1,0,3.13,2.411,2.411,0,0,1-3.288-.006,2.127,2.127,0,0,1,0-3.124ZM28,34H20V32.74h.883a1.334,1.334,0,0,0,1-.312,1.578,1.578,0,0,0,.293-1.084V24a1.365,1.365,0,0,0-.421-1.07A1.662,1.662,0,0,0,20.6,22.55H20V21.317l5.922-.257V31.832a.816.816,0,0,0,.291.67,1.394,1.394,0,0,0,.891.238H28Z"/>
    </symbol>

    <!-- Post listing icons  -->

    <symbol id="featured-post" viewBox="0 0 19 19">
        <g>
            <path d="M9.5,5l0.8,1.8c0.4,0.8,1.1,1.3,2,1.5l2.1,0.3l-1.6,1.7c-0.6,0.6-0.8,1.4-0.7,2.2l0.4,2.2l-1.7-0.9
        c-0.4-0.2-0.8-0.3-1.3-0.3c-0.4,0-0.9,0.1-1.3,0.3l-1.7,0.9l0.4-2.2c0.1-0.8-0.1-1.7-0.7-2.2L4.6,8.6l2.1-0.3
        c0.9-0.1,1.6-0.7,2-1.5L9.5,5 M9.5,1C9.3,1,9.1,1.1,9,1.3L6.8,5.9C6.7,6.1,6.6,6.2,6.4,6.3L1.5,7C1,7.1,0.8,7.7,1.2,8l3.6,3.7
        c0.1,0.1,0.2,0.3,0.2,0.5l-0.8,5.1C4,17.7,4.3,18,4.6,18c0.1,0,0.2,0,0.3-0.1l4.3-2.4c0.1,0,0.2-0.1,0.3-0.1s0.2,0,0.3,0.1l4.3,2.4
        c0.1,0.1,0.2,0.1,0.3,0.1c0.3,0,0.6-0.3,0.6-0.7l-0.8-5.1c0-0.2,0-0.4,0.2-0.5L17.8,8c0.3-0.3,0.1-0.9-0.3-1l-4.9-0.7
        c-0.2,0-0.4-0.2-0.4-0.3L10,1.3C9.9,1.1,9.7,1,9.5,1L9.5,1z"/>
        </g>
    </symbol>

    <symbol id="hidden-post" viewBox="0 0 19 19">
        <path d="M18.7,10L19,9.5L18.7,9C16.2,5.5,13,3.5,9.5,3.5c-1.5,0-2.9,0.4-4.3,1L1.8,1.1C1.6,1,1.3,1,1.2,1.1C1,1.3,1,1.6,1.2,1.8
    L4.4,5C2.9,6,1.5,7.3,0.3,9L0,9.5L0.3,10c2.4,3.5,5.7,5.5,9.2,5.5c1.5,0,2.9-0.4,4.3-1l3.4,3.5c0.1,0.1,0.2,0.1,0.3,0.1
    s0.2,0,0.3-0.1c0.2-0.2,0.2-0.5,0-0.6L14.6,14C16.1,13,17.5,11.7,18.7,10z M9.5,13.3c-2.1,0-3.8-1.7-3.8-3.8c0-0.9,0.3-1.7,0.8-2.4
    l1,1C7.2,8.5,7.1,9,7.1,9.5c0,1.3,1.1,2.4,2.4,2.4c0.5,0,1-0.2,1.4-0.4l1,1C11.2,13,10.4,13.3,9.5,13.3z M12.5,11.9l-1-1
    c0.3-0.4,0.4-0.9,0.4-1.4c0-0.3-0.1-0.5-0.1-0.8C11.7,9,11.3,9.3,11,9.3c-0.5,0-0.9-0.4-0.9-0.9c0-0.5,0.4-0.9,0.9-0.9
    C10.5,7.2,10,7.1,9.5,7.1c-0.5,0-1,0.2-1.4,0.4l-1-1C7.8,6,8.6,5.7,9.5,5.7c2.1,0,3.8,1.7,3.8,3.8C13.3,10.4,13,11.2,12.5,11.9z"/>
    </symbol>

    <symbol id="draft-post" viewBox="0 0 19 19">
        <path d="M8,13.9L3,15l1.1-5L11,3.2l0.8,0.8l-6.9,6.9l1.5,1.5l6.9-6.9L14.8,7L8,13.9z M14.1,1.6l1.5,1.5l-1.5,1.5l1.5,1.5l0.8-0.8
    c0.8-0.8,0.8-2.2,0-3.1l-0.8-0.8c-0.8-0.8-2.2-0.8-3.1,0l-0.8,0.8l0.8,0.8L14.1,1.6z M17.5,17H1.5C1.2,17,1,17.2,1,17.5
    S1.2,18,1.5,18h16.1c0.3,0,0.5-0.2,0.5-0.5S17.8,17,17.5,17z"/>
    </symbol>

    <symbol id="padlock" viewBox="0 0 16 16">
        <path d="M13.18,6H13V5c0-2.76-2.24-5-5-5S3,2.24,3,5v1C1.9,6,1,6.9,1,8v6c0,1.1,0.9,2,2,2h10c1.1,0,2-0.9,2-2V7.82
	C15,6.81,14.19,6,13.18,6z M8,12c-0.83,0-1.5-0.67-1.5-1.5S7.17,9,8,9s1.5,0.67,1.5,1.5S8.83,12,8,12z M11,6H5V5c0-1.65,1.35-3,3-3
	s3,1.35,3,3V6z"/>
    </symbol>

    <!-- Post editor Sidebar icons  -->

    <symbol id="sidebar-seo" viewBox="0 0 24 24">
        <path d="M20.7,19.3l-5.5-5.5c0.9-1.2,1.5-2.8,1.5-4.5c0-4.1-3.3-7.4-7.4-7.4S2,5.3,2,9.4s3.3,7.4,7.4,7.4c1.7,0,3.2-0.6,4.5-1.5
    l5.5,5.5c0.2,0.2,0.4,0.3,0.7,0.3c0.3,0,0.5-0.1,0.7-0.3C21.1,20.3,21.1,19.7,20.7,19.3z M9.4,14.8c-3,0-5.4-2.4-5.4-5.4
    S6.4,4,9.4,4s5.4,2.4,5.4,5.4S12.4,14.8,9.4,14.8z"/>
    </symbol>

    <symbol id="sidebar-options" viewBox="0 0 24 24">
        <path d="M14,12c0,1.1-0.9,2-2,2s-2-0.9-2-2c0-1.1,0.9-2,2-2S14,10.9,14,12z M12,7c1.1,0,2-0.9,2-2c0-1.1-0.9-2-2-2
    s-2,0.9-2,2C10,6.1,10.9,7,12,7z M12,17c-1.1,0-2,0.9-2,2c0,1.1,0.9,2,2,2s2-0.9,2-2C14,17.9,13.1,17,12,17z"/>
    </symbol>

    <symbol id="sidebar-tags" viewBox="0 0 24 24">
        <path d="M17.5,8.4c0,1-0.8,1.8-1.8,1.8s-1.8-0.8-1.8-1.8s0.8-1.8,1.8-1.8S17.5,7.4,17.5,8.4z M22,10.8
    c0,0.7-0.3,1.4-0.8,1.9l-8.6,8.6c-0.5,0.5-1.2,0.8-1.9,0.8c-0.7,0-1.4-0.3-1.9-0.8l-6.1-6.1c-1-1-1-2.7,0-3.7l8.6-8.6
    C11.9,2.3,12.5,2,13.2,2c0,0,0,0,0,0l6.1,0C20.8,2,22,3.2,22,4.7L22,10.8z M20.2,10.8l0-6.1c0-0.5-0.4-0.8-0.8-0.8l-6.1,0
    c0,0,0,0,0,0c-0.2,0-0.4,0.1-0.6,0.2l-8.6,8.6c-0.3,0.3-0.3,0.8,0,1.2l6.1,6.1c0.3,0.3,0.8,0.3,1.2,0l8.6-8.6
    C20.1,11.2,20.2,11,20.2,10.8z"/>
    </symbol>

    <symbol id="sidebar-status" viewBox="0 0 24 24">
        <path d="M13.9,16.4h0.6V17h-5v-0.6h0.6c0.3,0,0.5-0.1,0.6-0.2c0.1-0.1,0.2-0.3,0.2-0.6v-3.8c0-0.2-0.1-0.4-0.3-0.6
    c-0.2-0.1-0.4-0.2-0.7-0.2H9.5v-0.6l3.7-0.1v5.5c0,0.1,0.1,0.3,0.2,0.3C13.5,16.3,13.7,16.4,13.9,16.4z M12,9.2
    c0.3,0,0.6-0.1,0.9-0.3c0.2-0.2,0.4-0.5,0.4-0.8c0-0.3-0.1-0.6-0.4-0.8C12.6,7.1,12.3,7,12,7c-0.3,0-0.6,0.1-0.9,0.3
    c-0.2,0.2-0.4,0.5-0.4,0.8c0,0.3,0.1,0.6,0.4,0.8C11.4,9.1,11.7,9.2,12,9.2z M22,12c0,5.5-4.5,10-10,10S2,17.5,2,12
    C2,6.5,6.5,2,12,2S22,6.5,22,12z M20,12c0-4.4-3.6-8-8-8s-8,3.6-8,8c0,4.4,3.6,8,8,8S20,16.4,20,12z"/>
    </symbol>

    <symbol id="sidebar-image" viewBox="0 0 24 24">
        <path d="M20,10.8v5.6c0,0.3-0.3,0.6-0.6,0.6H4.6C4.3,17,4,16.7,4,16.4v-1.3c0-0.3,0.2-0.8,0.4-1.1l4.1-5.8
    C8.6,8.1,8.8,8,8.9,8c0.1,0,0.3,0,0.4,0.1l4.9,4.4c0.2,0.1,0.4,0.2,0.6,0.2c0.1,0,0.3,0,0.4-0.1l4.3-2.2c0.1,0,0.2-0.1,0.2-0.1
    C19.9,10.4,20,10.5,20,10.8z M24,6.6v10.9c0,2-1.7,3.6-3.7,3.6H3.7C1.7,21,0,19.4,0,17.4V6.6C0,4.6,1.7,3,3.7,3h16.6
    C22.3,3,24,4.6,24,6.6z M22,6.6C22,5.7,21.2,5,20.3,5H3.7C2.8,5,2,5.7,2,6.6v10.8C2,18.3,2.8,19,3.7,19h16.6c0.9,0,1.7-0.7,1.7-1.6
    V6.6z"/>
    </symbol>

    <symbol id="sidebar-close" viewBox="0 0 24 24">
        <polygon points="24,7.7 23.3,7 19,11.3 14.7,7 14,7.7 18.3,12 14,16.3 14.7,17 19,12.7 23.3,17 24,16.3 19.7,12 "/>
    </symbol>

    <symbol id="sidebar-arrow" viewBox="0 0 24 24">
        <path d="M23.9,8.1c-0.2-0.2-0.5-0.2-0.7,0l-6.6,6.7L9.9,8.1C9.7,8,9.3,8,9.1,8.1C9,8.3,9,8.7,9.1,8.9l7,7c0.1,0.1,0.2,0.1,0.4,0.1
    c0,0,0,0,0,0c0,0,0,0,0,0c0.1,0,0.3,0,0.4-0.1l7-7C24,8.7,24,8.3,23.9,8.1z"/>
    </symbol>

    <symbol id="sidebar-analysis" viewBox="0 0 24 24">
        <path d="M6,10.2v10.9C6,21.6,5.5,22,5,22s-1-0.4-1-0.9V10.2c0-0.5,0.5-0.9,1-0.9S6,9.7,6,10.2z M20,6c-0.5,0-1,0.4-1,0.9v3.8v6.6
    v3.8c0,0.5,0.5,0.9,1,0.9s1-0.4,1-0.9v-3.8v-6.6V6.9C21,6.4,20.5,6,20,6z M10,2C9.5,2,9,2.4,9,2.9v18.2c0,0.5,0.5,0.9,1,0.9
    s1-0.4,1-0.9V2.9C11,2.4,10.5,2,10,2z M15,14c-0.5,0-1,0.4-1,0.9v6.1c0,0.5,0.5,0.9,1,0.9s1-0.4,1-0.9v-6.1C16,14.4,15.5,14,15,14z"/>
    </symbol>

    <!-- Tools icons  -->

    <symbol id="backup" viewBox="0 0 24 24">
        <path class="st0" d="M17.6,21.5C17.6,21.5,17.6,21.5,17.6,21.5c-2.9,1.7-6.4,2-9.6,0.8c-0.5-0.2-0.8-0.8-0.6-1.3
    c0.2-0.5,0.8-0.8,1.3-0.6c2.6,1,5.5,0.7,7.9-0.7c4.3-2.6,5.7-8.1,3.1-12.4c-2.5-4.3-8.1-5.7-12.3-3.1c-3.2,1.9-4.8,5.6-4.3,9.1
    l3.4,0l-4,4.3c-3.1-5.2-1.4-12,3.8-15.1s12-1.4,15.1,3.8C24.6,11.6,22.9,18.4,17.6,21.5z M11,6c-0.6,0-1,0.4-1,1v5c0,0,0,0.2,0,0.2
    c0,0.1,0.1,0.2,0.1,0.3c0,0,0,0,0,0c0.1,0.2,0.3,0.3,0.5,0.4l2.8,1.9c0.2,0.1,0.4,0.2,0.6,0.2c0.3,0,0.6-0.1,0.8-0.4
    c0.3-0.4,0.2-1.1-0.3-1.4L12,11.5V7C12,6.4,11.6,6,11,6z"/>
    </symbol>

    <symbol id="code" viewBox="0 0 24 14">
        <path d="M7.447,9.993,3.23,12.018l4.217,2.025a.95.95,0,0,1,.45,1.29,1,1,0,0,1-.891.536,1.017,1.017,0,0,1-.439-.1L.518,12.845A.947.947,0,0,1,0,12.018a.935.935,0,0,1,.376-.735,1.7,1.7,0,0,1,.177-.128L6.567,8.267A1.007,1.007,0,0,1,7.9,8.7.95.95,0,0,1,7.447,9.993Zm16.177,1.291a1.7,1.7,0,0,0-.177-.128L17.433,8.267A1.007,1.007,0,0,0,16.1,8.7a.95.95,0,0,0,.45,1.29l4.217,2.025-4.217,2.025a.95.95,0,0,0-.45,1.29,1,1,0,0,0,.891.536,1.017,1.017,0,0,0,.439-.1l6.049-2.925A.947.947,0,0,0,24,12.018.935.935,0,0,0,23.624,11.284ZM14.589,5.05a1.01,1.01,0,0,0-1.266.608L9.094,17.732a.955.955,0,0,0,.631,1.219,1.035,1.035,0,0,0,.425.044.993.993,0,0,0,.84-.652L15.22,6.269A.955.955,0,0,0,14.589,5.05Z" transform="translate(0 -5)"/>
    </symbol>

    <symbol id="css" viewBox="0 0 11 24">
        <path class="cls-1" d="M6,15v4a3.009,3.009,0,0,0,3,3s3.146-.521,4,0a2.327,2.327,0,0,1,1,1s.042.087.118.237a1.266,1.266,0,0,0,.321.4,1.548,1.548,0,0,0,.477.268,1.788,1.788,0,0,0,1.168,0,1.548,1.548,0,0,0,.477-.268,1.265,1.265,0,0,0,.321-.4A1.07,1.07,0,0,0,17,22.75v-2.5a1.029,1.029,0,0,0-.014-.114c0-.046.014-.089.014-.136V15H6Z" transform="translate(-6)"/><path class="cls-1" d="M16.99,11.8a1.979,1.979,0,0,0-.08-.389q-.029-.094-.068-.183t-.084-.175q-.046-.085-.1-.165t-.115-.154q-.061-.074-.129-.142t-.142-.129q-.074-.061-.154-.115t-.165-.1q-.085-.046-.175-.084t-.184-.068q-.094-.029-.191-.049a1.96,1.96,0,0,0-.2-.03A1.989,1.989,0,0,0,15,10h-.875a4.016,4.016,0,0,1-.875,0c-.252-.179-.288-.827-.306-1.2A1.991,1.991,0,0,1,13,8a7.8,7.8,0,0,0,.347-.716c.115-.269.226-.565.323-.874a7.947,7.947,0,0,0,.238-.954A5.414,5.414,0,0,0,14,4.5a8.031,8.031,0,0,0-.051-.907,7.3,7.3,0,0,0-.146-.845,6.232,6.232,0,0,0-.231-.764,4.964,4.964,0,0,0-.305-.666A3.672,3.672,0,0,0,12.9.768a2.57,2.57,0,0,0-.425-.415A1.808,1.808,0,0,0,12,.091,1.434,1.434,0,0,0,11,.091a1.808,1.808,0,0,0-.469.262A2.573,2.573,0,0,0,10.1.768a3.672,3.672,0,0,0-.37.549,4.964,4.964,0,0,0-.305.666,6.253,6.253,0,0,0-.231.764,7.312,7.312,0,0,0-.146.845A8.046,8.046,0,0,0,9,4.5a5.414,5.414,0,0,0,.093.957,7.97,7.97,0,0,0,.238.954c.1.309.208.6.323.874A7.812,7.812,0,0,0,10,8a1.989,1.989,0,0,1,.056.8c-.018.372-.054,1.02-.306,1.2a4.016,4.016,0,0,1-.875,0H8a1.99,1.99,0,0,0-.2.01,1.96,1.96,0,0,0-.2.03q-.1.02-.191.049t-.184.068q-.09.038-.175.084t-.165.1q-.08.054-.154.115t-.142.129q-.068.068-.129.142t-.115.154q-.054.08-.1.165t-.084.175q-.038.09-.068.183a1.979,1.979,0,0,0-.08.389A2.009,2.009,0,0,0,6,12v2H17V12A1.991,1.991,0,0,0,16.99,11.8ZM12.561,4.561A1.5,1.5,0,1,1,13,3.5,1.5,1.5,0,0,1,12.561,4.561Z" transform="translate(-6)"/>
    </symbol>

    <symbol id="robots" viewBox="0 0 24 24">
        <path class="st0" d="M22,11v4c0,0.5-0.5,1-1,1s-1-0.5-1-1v-4c0-0.5,0.5-1,1-1S22,10.5,22,11z M3,10c-0.5,0-1,0.5-1,1v4
    c0,0.5,0.5,1,1,1s1-0.5,1-1v-4C4,10.5,3.5,10,3,10z M8,17.7v2.8C8,21.3,8.7,22,9.5,22s1.5-0.7,1.5-1.5v-1.6c0.3,0,0.7,0.1,1,0.1
    s0.7,0,1-0.1v1.6c0,0.8,0.7,1.5,1.5,1.5s1.5-0.7,1.5-1.5v-2.8c1.8-1.3,3-3.4,3-5.7c-5,0-9,0-14,0C5,14.4,6.2,16.5,8,17.7z M19,10
    c-5,0-9,0-14,0c0-3.9,3.1-7,7-7S19,6.1,19,10z M12,7c0-1.1-0.9-2-2-2S8,5.9,8,7c0,1.1,0.9,2,2,2S12,8.1,12,7z M16,7.5
    C16,6.7,15.3,6,14.5,6S13,6.7,13,7.5S13.7,9,14.5,9S16,8.3,16,7.5z"/>
    </symbol>

    <symbol id="importer" viewBox="0 0 24 24">
        <path d="M20,16h2v6H2V2h6v2H4v16h16V16z M13.4,12H20v-2h-4.6L22,3.4L20.6,2L14,8.6V4h-2v6v0.6V11v0.9V12h0.1H13.4z"/>
    </symbol>

    <symbol id="htaccess" viewBox="0 0 24 24">
        <path class="st0" d="M14,20c0,1.1-0.9,2-2,2s-2-0.9-2-2s0.9-2,2-2S14,18.9,14,20z M12,15c1.1,0,1.3-0.8,1.3-1.8L14,3.8
    c0-1-0.9-1.8-2-1.8s-2,0.8-2,1.8l0.7,9.5C10.7,14.2,10.9,15,12,15z"/>
    </symbol>

    <symbol id="log" viewBox="0 0 24 24">
        <path d="M20,6l-5-5v0l0,0h-3H7C6.2,1,5.4,1.3,4.9,1.9C4.3,2.4,4,3.2,4,4v8v8c0,0.8,0.3,1.6,0.9,2.1C5.4,22.7,6.2,23,7,23h5h5
    c0.8,0,1.6-0.3,2.1-0.9S20,20.8,20,20v-8L20,6L20,6L20,6z M18,12.1v8c0,0.3-0.1,0.5-0.3,0.7c-0.2,0.2-0.4,0.3-0.7,0.3h-5H7
    c-0.3,0-0.5-0.1-0.7-0.3S6,20.4,6,20.1v-8v-8c0-0.3,0.1-0.5,0.3-0.7S6.7,3.1,7,3.1h5h3V6h3V12.1z M8,8c0-0.6,0.4-1,1-1h3
    c0.6,0,1,0.4,1,1s-0.4,1-1,1H9C8.4,9,8,8.6,8,8z M15,15H9c-0.6,0-1,0.4-1,1s0.4,1,1,1h6c0.6,0,1-0.4,1-1S15.6,15,15,15z M9,11
    c-0.6,0-1,0.4-1,1s0.4,1,1,1h6c0.6,0,1-0.4,1-1s-0.4-1-1-1H9z"/>
    </symbol>

    <symbol id="file-manager" viewBox="0 0 24 24">
        <path d="M20.8,10H19V9c0-1.1-0.7-2-1.6-2h-6.5L8.4,4H2.6C1.7,4,1,4.9,1,6v12c0,0,0,0,0,0c-0.1,1,0.8,2,2.2,2h14.9
    c0.9,0,1.7-0.5,2-1.2l2.8-6.4C23.4,11.3,22.3,10,20.8,10z M2,6.1C2,5.4,2.4,5,2.7,5h5.2l2.2,2.7L10.4,8h6.9C17.6,8,18,8.4,18,9.1V10
    H6c-0.9,0-1.7,0.5-2,1.2l-2,4.5V6.1z"/>
    </symbol>


</svg>
