<svg xmlns="http://www.w3.org/2000/svg"> 
	
    <!-- Server settings  icons  -->
	<symbol id="ftp" viewBox="0 0 62 62"><path d="M6.455,16.118h25.891l-4.521-5.983c-1.028-1.356-2.561-2.135-4.205-2.135H6.388c-.386,0-.772.045-1.151.129-.346.079-.696.201-1.08.381-.329.159-.641.349-.926.568-.272.209-.527.447-.788.737-.225.259-.43.539-.601.824-.18.296-.333.616-.461.951-.125.336-.222.682-.285,1.036-.064.354-.097.713-.097,1.086v7.816c0-2.989,2.442-5.412,5.455-5.412Z" fill="#989ba5"/><path d="M56,16.118H6c-2.761,0-5,2.239-5,5v27.882c0,2.761,2.239,5,5,5h50c2.761,0,5-2.239,5-5v-27.882c0-2.761-2.239-5-5-5ZM31.005,44c-.552,0-1.005-.447-1.005-1s.443-1,.995-1h.01c.552,0,1,.447,1,1s-.448,1-1,1ZM35.214,40.13c-.195.199-.455.3-.714.3-.253,0-.505-.095-.7-.286-1.543-1.512-4.057-1.511-5.6,0-.395.388-1.028.378-1.414-.014-.386-.394-.38-1.028.015-1.414,2.315-2.269,6.083-2.269,8.4,0,.395.386.4,1.019.014,1.414ZM38.714,36.56c-.195.199-.455.3-.714.3-.253,0-.505-.095-.7-.286-3.474-3.404-9.127-3.403-12.6,0-.396.387-1.028.379-1.415-.014-.386-.394-.38-1.027.014-1.414,4.246-4.16,11.154-4.161,15.401,0,.395.387.4,1.019.014,1.414ZM41.745,32.489c-.197.221-.471.333-.745.334-.237,0-.476-.084-.667-.255-5.321-4.759-13.346-4.758-18.667,0-.411.366-1.044.333-1.412-.079-.369-.411-.333-1.043.079-1.411,6.08-5.437,15.252-5.438,21.334,0,.411.368.446,1,.078,1.411Z" fill="#c7c9ce"/>
    </symbol>

	<symbol id="sftp" viewBox="0 0 62 62"><path d="M6.455,16.118h25.891l-4.521-5.983c-1.028-1.356-2.561-2.135-4.205-2.135H6.388c-.386,0-.772.045-1.151.129-.346.079-.696.201-1.08.381-.329.159-.641.349-.926.568-.272.209-.527.447-.788.737-.225.259-.43.539-.601.824-.18.296-.333.616-.461.951-.125.336-.222.682-.285,1.036-.064.354-.097.713-.097,1.086v7.816c0-2.989,2.442-5.412,5.455-5.412Z" fill="#0072e4"/><path d="M33.694,31.25c0-1.792-1.433-3.25-3.194-3.25s-3.194,1.458-3.194,3.25v1.55h6.388v-1.55Z" fill="#2994ff"/><path d="M30.5,38.75c-.081,0-.147.067-.147.15,0,.164.295.164.295,0,0-.083-.066-.15-.147-.15Z" fill="#2994ff"/><path d="M36.052,34.8h-11.104c-.542,0-.983.448-.983,1v6.2c0,.552.441,1,.983,1h11.104c.542,0,.983-.448.983-1v-6.2c0-.552-.44-1-.983-1ZM30.5,40.75c-1.002,0-1.818-.83-1.818-1.85s.816-1.851,1.818-1.851,1.818.83,1.818,1.851-.816,1.85-1.818,1.85Z" fill="#2994ff"/><path d="M56,16.118H6c-2.761,0-5,2.239-5,5v27.882c0,2.761,2.239,5,5,5h50c2.761,0,5-2.239,5-5v-27.882c0-2.761-2.239-5-5-5ZM39,42c0,1.654-1.322,3-2.948,3h-11.104c-1.626,0-2.948-1.346-2.948-3v-6.2c0-1.654,1.322-3,2.948-3h.393v-1.55c0-2.895,2.314-5.25,5.159-5.25s5.159,2.355,5.159,5.25v1.55h.393c1.626,0,2.948,1.346,2.948,3v6.2Z" fill="#2994ff"/>
    </symbol>

	<symbol id="s3storage" viewBox="0 0 62 62"><path d="M54.333,14.983H6.667l4.528,40.182c.182,1.614,1.565,2.835,3.212,2.835h32.941c1.669,0,3.064-1.254,3.218-2.893l3.768-40.124Z" fill="#69a93c"/><polygon points="54.333 14.983 6.667 14.983 8.214 28.712 54.333 14.983" fill="#53862f"/><path d="M56.39,4H4.61c-.987,0-1.741.923-1.591,1.947l1.114,7.604c.121.824.796,1.433,1.591,1.433h49.551c.794,0,1.47-.608,1.591-1.433l1.114-7.604c.15-1.023-.604-1.947-1.591-1.947ZM31.5,12c-1.381,0-2.5-1.119-2.5-2.5s1.119-2.5,2.5-2.5,2.5,1.119,2.5,2.5-1.119,2.5-2.5,2.5Z" fill="#64a139"/>
	</symbol>

    <symbol id="googlecloud" viewBox="0 0 62 62"><path d="M39.438,20.218h1.8l5.129-5.184.252-2.201c-9.545-8.517-24.112-7.598-32.537,2.05-2.34,2.68-4.039,5.869-4.965,9.319.571-.237,1.204-.275,1.8-.109l10.257-1.71s.522-.873.792-.819c4.563-5.066,12.241-5.656,17.509-1.346h-.036Z" fill="#ea4335"/><path d="M53.672,24.202c-1.179-4.388-3.599-8.333-6.964-11.351l-7.198,7.276c3.039,2.511,4.771,6.293,4.697,10.26v1.292c3.538,0,6.406,2.899,6.406,6.476s-2.868,6.476-6.406,6.476h-12.812l-1.278,1.31v7.768l1.278,1.292h12.812c9.203.072,16.721-7.41,16.793-16.713.043-5.639-2.707-10.925-7.327-14.084Z" fill="#4285f4"/><path d="M18.564,54.927h12.812v-10.369h-12.812c-.913,0-1.815-.199-2.645-.582l-1.8.564-5.165,5.184-.45,1.819c2.896,2.211,6.43,3.399,10.059,3.384Z" fill="#34a853"/><path d="M18.564,21.291c-9.203.056-16.619,7.642-16.564,16.945.031,5.195,2.431,10.085,6.504,13.252l7.432-7.513c-3.224-1.473-4.657-5.309-3.2-8.568s5.251-4.708,8.476-3.235c1.421.649,2.559,1.799,3.2,3.235l7.432-7.513c-3.162-4.179-8.076-6.622-13.28-6.603Z" fill="#fbbc05"/>
    </symbol>
    
   <symbol id="githubpages" viewBox="0 0 62 62"><path d="M31.024,3C14.974,3,2,16.062,2,32.222c0,12.918,8.313,23.852,19.846,27.722,1.442.291,1.97-.629,1.97-1.402,0-.677-.048-3-.048-5.419-8.074,1.742-9.755-3.484-9.755-3.484-1.298-3.387-3.22-4.257-3.22-4.257-2.643-1.79.192-1.79.192-1.79,2.931.194,4.469,3,4.469,3,2.594,4.451,6.775,3.193,8.457,2.419.24-1.887,1.009-3.193,1.826-3.919-6.439-.677-13.214-3.193-13.214-14.418,0-3.193,1.153-5.806,2.979-7.837-.288-.726-1.298-3.726.289-7.741,0,0,2.451-.774,7.976,3,2.366-.64,4.806-.965,7.256-.968,2.451,0,4.949.339,7.256.968,5.526-3.774,7.977-3,7.977-3,1.586,4.016.576,7.016.288,7.741,1.874,2.032,2.979,4.644,2.979,7.837,0,11.225-6.775,13.692-13.263,14.418,1.057.919,1.97,2.661,1.97,5.419,0,3.919-.048,7.064-.048,8.031,0,.774.529,1.694,1.97,1.404,11.533-3.871,19.846-14.805,19.846-27.723.048-16.16-12.974-29.222-28.976-29.222Z" fill-rule="evenodd"/>
   </symbol>

	<symbol id="gitlab" viewBox="0 0 62 62"><g id="b"><path d="M60.017,25.559l-.083-.213-8.03-21.021c-.163-.412-.453-.761-.826-.998-.766-.477-1.747-.424-2.458.132-.343.279-.592.658-.713,1.085l-5.422,16.639h-21.955L15.108,4.545c-.118-.429-.367-.809-.713-1.088-.711-.556-1.692-.609-2.458-.132-.373.238-.662.587-.826.998L3.066,25.334l-.08.213c-2.375,6.224-.358,13.273,4.946,17.286l.028.022.074.052,12.233,9.189,6.052,4.594,3.686,2.792c.886.675,2.112.675,2.998,0l3.686-2.792,6.052-4.594,12.306-9.244.031-.025c5.291-4.014,7.304-11.05,4.94-17.268Z" fill="#e24329"/><path d="M60.017,25.559l-.083-.213c-3.913.806-7.6,2.468-10.798,4.868l-17.636,13.376c6.006,4.557,11.234,8.517,11.234,8.517l12.306-9.244.031-.025c5.299-4.014,7.315-11.058,4.946-17.28Z" fill="#fc6d26"/><path d="M20.266,52.108l6.052,4.594,3.686,2.792c.886.675,2.112.675,2.998,0l3.686-2.792,6.052-4.594s-5.235-3.972-11.24-8.517c-6.006,4.545-11.234,8.517-11.234,8.517Z" fill="#fca326"/><path d="M13.861,30.215c-3.195-2.405-6.882-4.072-10.795-4.881l-.08.213c-2.375,6.224-.358,13.273,4.946,17.286l.028.022.074.052,12.233,9.189s5.222-3.96,11.234-8.517l-17.639-13.364Z" fill="#fc6d26"/></g>
    </symbol>
    
    <symbol id="netlify" viewBox="0 0 70 62"><defs><clipPath id="b"><rect x="1" y="1" width="68" height="60" fill="none"/></clipPath></defs><g clip-path="url(#b)"><path d="M19.378,51.1h-.642l-3.205-3.214v-.644l4.9-4.913h3.394l.453.454v3.404l-4.9,4.913Z" fill="#05bdba"/><path d="M15.53,14.752v-.644l3.205-3.214h.642l4.9,4.913v3.404l-.453.454h-3.394l-4.9-4.913Z" fill="#05bdba"/><path d="M43.744,40.741h-4.663l-.389-.39v-10.945c0-1.947-.763-3.456-3.105-3.509-1.205-.032-2.584,0-4.058.058l-.221.227v14.164l-.389.39h-4.663l-.389-.39v-18.697l.389-.391h10.494c4.079,0,7.384,3.314,7.384,7.404v11.689l-.389.39Z" /><path d="M20.041,33.734H1.389l-.389-.391v-4.686l.389-.391h18.651l.389.391v4.686l-.389.391Z" fill="#05bdba"/><path d="M68.616,33.734h-18.651l-.389-.391v-4.686l.389-.391h18.651l.389.391v4.686l-.389.391Z" fill="#05bdba"/><path d="M32.313,15.417V1.391l.389-.391h4.673l.389.391v14.026l-.389.39h-4.673l-.389-.39Z" fill="#05bdba"/><path d="M32.313,60.61v-14.026l.389-.391h4.673l.389.391v14.026l-.389.39h-4.673l-.389-.39Z" fill="#05bdba"/></g>
</symbol>	
        
    <symbol id="zip" viewBox="0 0 62 62"><g id="b"><path d="M31.369,47.098h-1.477c-.816,0-1.477.655-1.477,1.463s.661,1.463,1.477,1.463h1.477c.816,0,1.477-.655,1.477-1.463s-.661-1.463-1.477-1.463Z" fill="#f7c300"/><path d="M35.8,1H11.431c-1.224,0-2.331.491-3.133,1.286s-1.298,1.892-1.298,3.104v51.22c0,1.212.496,2.31,1.298,3.104.802.794,1.909,1.286,3.133,1.286h39.138c1.224,0,2.331-.491,3.133-1.286.802-.794,1.298-1.892,1.298-3.104V17.098L35.8,1ZM33.585,52.086c0,.882-.661,1.596-1.477,1.596h-2.954c-.816,0-1.477-.715-1.477-1.596v-5.588c0-.882.661-1.596,1.477-1.596h2.954c.816,0,1.477.715,1.477,1.596v5.588ZM32.477,41.976h-3.692c-.612,0-1.108-.491-1.108-1.098s.496-1.098,1.108-1.098h3.692c.612,0,1.108.491,1.108,1.098s-.496,1.098-1.108,1.098ZM32.477,36.854h-3.692c-.612,0-1.108-.491-1.108-1.098s.496-1.098,1.108-1.098h3.692c.612,0,1.108.491,1.108,1.098s-.496,1.098-1.108,1.098ZM32.477,31.732h-3.692c-.612,0-1.108-.491-1.108-1.098s.496-1.098,1.108-1.098h3.692c.612,0,1.108.491,1.108,1.098s-.496,1.098-1.108,1.098ZM32.477,26.61h-3.692c-.612,0-1.108-.491-1.108-1.098s.496-1.098,1.108-1.098h3.692c.612,0,1.108.491,1.108,1.098s-.496,1.098-1.108,1.098Z" fill="#f7c300"/><polygon points="55 17.098 35.8 17.098 35.8 1 55 17.098" fill="#ffd84a"/><polygon points="35.8 17.098 55 17.098 55 33.195 35.8 17.098" fill="#dbac00"/></g>
    </symbol>

	<symbol id="deployment-others" viewBox="0 0 29 29">
	   <path d="M25,16v9.58A2.42,2.42,0,0,1,22.55,28H3.42a2.44,2.44,0,0,1-2.23-1.48A2.36,2.36,0,0,1,1,25.58V6.42a2.41,2.41,0,0,1,.71-1.71,2.45,2.45,0,0,1,.76-.52A2.37,2.37,0,0,1,3.42,4H13a1,1,0,0,1,0,2H3.26A.37.37,0,0,0,3,6.23a.43.43,0,0,0,0,.16V25.58a.43.43,0,0,0,0,.16.37.37,0,0,0,.23.23.43.43,0,0,0,.16,0H22.58a.39.39,0,0,0,.3-.12.42.42,0,0,0,.09-.14.43.43,0,0,0,0-.16V16a1,1,0,0,1,2,0ZM27.71,1.29A1,1,0,0,0,27,1H21.13a1,1,0,0,0,0,2h3.45l-8.79,8.79a1,1,0,0,0,0,1.41h0a1,1,0,0,0,1.41,0h0L26,4.42V7.87a1,1,0,1,0,2,0V2A1,1,0,0,0,27.71,1.29Z"/>
	</symbol>

    <symbol id="git" viewBox="0 0 108 62"><path d="M24.161,48.5c-2.976,0-5.537-.493-7.683-1.48-2.146-.987-3.806-2.427-4.981-4.322-1.175-1.895-1.825-4.205-1.95-6.929-.032-1.347-.047-2.779-.047-4.299s.015-2.967.047-4.346c.125-2.662.782-4.917,1.973-6.765,1.19-1.848,2.866-3.257,5.028-4.228,2.162-.97,4.699-1.456,7.613-1.456,2.35,0,4.433.29,6.25.869,1.816.58,3.344,1.355,4.582,2.326,1.237.971,2.177,2.036,2.819,3.194.641,1.159.979,2.302,1.01,3.43.031.282-.055.517-.258.705-.205.188-.446.282-.729.282h-6.86c-.345,0-.604-.054-.775-.165-.172-.109-.322-.274-.446-.493-.22-.47-.541-.963-.963-1.48-.423-.517-1.003-.963-1.739-1.339-.737-.376-1.7-.564-2.89-.564-1.785,0-3.188.47-4.206,1.409-1.019.94-1.574,2.443-1.668,4.51-.094,2.694-.094,5.419,0,8.174.094,2.193.673,3.775,1.739,4.745,1.064.971,2.474,1.456,4.229,1.456,1.19,0,2.247-.203,3.172-.611.924-.407,1.652-1.04,2.185-1.903.532-.861.799-1.964.799-3.312v-.893h-4.417c-.345,0-.635-.117-.87-.352-.235-.234-.352-.524-.352-.869v-3.477c0-.344.117-.634.352-.869s.524-.353.87-.353h11.841c.344,0,.627.118.846.353s.33.525.33.869v5.356c0,2.694-.61,4.996-1.833,6.906-1.222,1.911-2.953,3.375-5.193,4.393-2.24,1.018-4.848,1.527-7.824,1.527Z" fill="#f2441d"/><path d="M43.85,20.077c-.345,0-.627-.109-.846-.329-.22-.219-.33-.501-.33-.846v-4.181c0-.344.11-.634.33-.869.218-.235.501-.352.846-.352h5.592c.344,0,.635.117.869.352.235.235.353.525.353.869v4.181c0,.345-.118.627-.353.846-.235.219-.525.329-.869.329h-5.592ZM43.897,48.03c-.345,0-.627-.11-.846-.329s-.329-.501-.329-.846v-22.08c0-.344.11-.626.329-.846.219-.219.502-.329.846-.329h5.545c.312,0,.588.11.822.329.235.219.353.501.353.846v22.08c0,.346-.118.627-.353.846-.235.219-.51.329-.822.329h-5.545Z" fill="#f2441d"/><path d="M67.439,48.03c-2.005,0-3.736-.32-5.192-.963-1.457-.642-2.578-1.645-3.36-3.007-.783-1.362-1.175-3.124-1.175-5.285v-9.02h-3.665c-.345,0-.635-.11-.869-.329-.235-.219-.352-.501-.352-.845v-3.805c0-.344.117-.626.352-.846.235-.219.524-.329.869-.329h3.665v-7.752c0-.344.118-.626.353-.845.235-.219.509-.329.822-.329h5.451c.345,0,.627.11.846.329.218.219.329.501.329.845v7.752h5.874c.344,0,.626.11.846.329.218.219.329.501.329.846v3.805c0,.345-.11.627-.329.845-.22.219-.502.329-.846.329h-5.874v8.362c0,1.065.204,1.911.611,2.536.407.627,1.096.94,2.067.94h3.619c.344,0,.626.11.846.329.219.219.329.501.329.845v4.087c0,.346-.11.627-.329.846-.22.219-.502.329-.846.329h-4.37Z" fill="#f2441d"/><path d="M79.798,27.641c-.69,0-1.034-.344-1.034-1.034v-8.832h-2.444c-.69,0-1.034-.344-1.034-1.034v-.564c0-.689.344-1.034,1.034-1.034h7.613c.689,0,1.034.345,1.034,1.034v.564c0,.689-.345,1.034-1.034,1.034h-2.444v8.832c0,.689-.345,1.034-1.034,1.034h-.657ZM87.411,27.641c-.69,0-1.034-.344-1.034-1.034v-10.429c0-.689.344-1.034,1.034-1.034h.657c.407,0,.721.125.94.376.219.251.391.47.517.658l2.914,4.651,2.914-4.651c.125-.188.297-.407.517-.658.218-.25.532-.376.94-.376h.658c.688,0,1.033.345,1.033,1.034v10.429c0,.689-.345,1.034-1.033,1.034h-.658c-.69,0-1.034-.344-1.034-1.034v-6.061l-1.927,3.148c-.157.251-.313.47-.47.658-.157.188-.407.282-.752.282h-.377c-.313,0-.556-.094-.728-.282-.173-.188-.337-.407-.493-.658l-1.927-3.148v6.061c0,.689-.345,1.034-1.034,1.034h-.657Z" fill="#f2441d"/>
    </symbol>
</svg>

