<svg xmlns="http://www.w3.org/2000/svg"> 
	
    <!-- Server settings  icons  -->
    
	<symbol id="s3storage" viewBox="0 0 400 400">
		<path d="M103.57,359.069c-.443-.453-11.268-4.61-24.057-9.24l-23.254-8.415-.257-36.344c-.244-34.369-.164-36.307
		1.473-35.666.951.373,11.672,4.04,23.823,8.151,12.152,4.11,22.43,7.768,22.842,8.128.412.36.633,17.204.49,37.431-.14
		20.228-.618,36.407-1.06,35.955zm10.365-36.461l.257-37.15,24.057-8.213c13.232-4.516,24.173-8.231,24.315-8.255.142-.024.142
		16.26,0,36.188l-.258,36.231-22.584,8.127c-12.42,4.47-23.362,8.599-24.314,9.175-1.642.993-1.717-.85-1.473-36.103zM244.791
		305.9c-5.185-1.428-12.278-4.392-12.278-5.13,0-2.057,3.297-11.103,4.046-11.103.529,0,2.376.735,4.104,1.634,5.243,2.726,12.568
		4.262,20.379,4.275,13.744.021,22.041-6.644
		21.973-17.654-.063-10.367-3.76-14.187-21.136-21.845-13.336-5.876-17.867-8.9-22.12-14.76-11.18-15.407-3.11-36.816,16.22-43.034
		7.903-2.542,21.127-2.342,30.294.46,3.916,1.196,7.12,2.305,7.12,2.464,0,.93-3.322,10.143-3.885
		10.777-.373.42-2.225.113-4.116-.68-1.891-.795-6.352-1.954-9.912-2.577-15.109-2.644-26.28,4.165-26.27,16.013.007,7.716,5.346
		13.503,16.763,18.164,24.244,9.9,31.291,17.426,31.316,33.442.01,6.37-.45,8.846-2.379,12.828-4.085,8.432-9.413,12.994-18.916
		16.196-7.253,2.445-23.266,2.717-31.203.53zm79.04.159c-5.8-1.716-11.419-4.139-12.036-5.19-.272-.463.371-3.107
		1.429-5.876l1.923-5.035,5.867,2.382c21.731,8.82,40.13,1.532,40.13-15.898
		0-5.527-1.353-9.181-4.726-12.767-4.702-4.998-9.627-6.856-19.822-7.48l-9.328-.57-.292-5.035-.291-5.034,7.165-.656c10.28-.942
		15.764-3.026,19.813-7.53,4.38-4.87,5.317-9.501,3.103-15.326-2.084-5.483-5.113-7.92-11.682-9.397-6.184-1.39-13.743-.112-20.918
		3.538-5.2,2.646-5.453,2.514-7.402-3.85-1.041-3.4-.966-3.969.68-5.18,7.597-5.581,27.827-8.146,37.855-4.799,10.514,3.51,16.848
		12.167,16.766,22.915-.079,10.359-5,17.931-14.64,22.529l-3.306,1.576,5.722,2.729c6.63,3.161,13.265,9.924,15.039,15.326,2.015
		6.137.873,18.118-2.236,23.45-3.337,5.72-8.558,10.283-15.383,13.44-4.724,2.185-7.005,2.553-17.228
		2.782-7.643.17-13.335-.196-16.201-1.044zM85.997,272.475c-13.348-4.383-24.284-8.226-24.302-8.54-.033-.55,46.553-14.024
		48.585-14.052,2.391-.033,45.601,14.56,44.924,15.173-.413.374-10.694,3.99-22.845,8.034l-22.093
		7.354zm-64.84-23.124l-23.32-8.526v-72.461l13.5,4.76c7.427,2.618,18.473,6.414,24.549,8.437l11.046,3.676v36.428c0,28.542-.265
		36.404-1.227,36.32-.675-.06-11.721-3.945-24.547-8.634zm34.612-27.675v-36.417l4.665-1.64c2.565-.902,12.838-4.45,22.83-7.886
		9.99-3.436,18.943-6.563,19.895-6.95,1.637-.666,1.717,1.264,1.473,35.668l-.258,36.371-23.566,8.587c-12.96,4.723-23.897
		8.608-24.302,8.635-.405.027-.737-16.339-.737-36.368zm79.29,27.675l-23.319-8.526v-36.208l-.001-36.208,24.129,8.332c13.271
		4.583,24.318,8.333,24.548,8.333.23,0,.418,16.43.418,36.51,0,28.606-.265,36.485-1.227
		36.4-.675-.059-11.721-3.944-24.547-8.633zm34.613-27.675v-36.417l4.664-1.64c2.565-.902,12.838-4.45,22.83-7.886,9.99-3.436
		18.944-6.563,19.895-6.95,1.637-.666,1.717,1.264,1.473,35.668l-.257,36.371-23.566,8.587c-12.962,4.723-23.898,8.608-24.303
		8.635-.405.027-.736-16.339-.736-36.368zM27.538,171.933c-13.096-4.424-23.811-8.274-23.811-8.555,0-.282,10.807-3.572
		24.016-7.31l24.017-6.8,5.686,1.635c15.476,4.447,40.863,13.327,39.563,13.84-2.45.964-45.356,15.403-45.513
		15.316-.08-.045-10.861-3.701-23.958-8.126zm113.903,0c-13.097-4.424-23.812-8.274-23.812-8.555,0-.282,10.808-3.572
		24.016-7.31l24.017-6.8,5.686,1.635c15.388,4.421,40.865,13.325,39.563,13.826-3.755,1.447-45.005,15.402-45.312
		15.33-.19-.045-11.062-3.701-24.158-8.126zm51.55-23.174l-23.32-8.515V104.44c0-19.957.382-35.802.864-35.802.475
		0,11.522,3.598,24.548,7.996l23.684,7.996v36.407c0,28.514-.267,36.389-1.228
		36.322-.675-.048-11.721-3.918-24.548-8.601zm34.613-27.72V84.63l23.684-7.996c13.026-4.398,24.072-7.996,24.547-7.996.482,0,.865
		15.869.865,35.859v35.858l-23.87,8.545c-13.127,4.7-24.174,8.544-24.547,8.544-.374,0-.68-16.383-.68-36.407zm79.29
		27.72l-23.321-8.515V104.44c0-24.853.322-35.802,1.054-35.802.58,0,11.627,3.61,24.548,8.02l23.494,8.02v36.384c0,28.494-.266
		36.364-1.228,36.297-.675-.048-11.721-3.918-24.548-8.601zm34.612-27.687V84.698l24.548-8.328,24.548-8.329v72.315l-23.869
		8.545c-13.128,4.7-24.174,8.544-24.548,8.544-.373,0-.679-16.368-.679-36.373zM199.374
		71.286c-21.26-7.181-26.83-9.554-22.435-9.554,2.121,0,43.06-11.703,45.113-12.896,1.34-.779,2.62-.682,4.91.373,1.703.784,12.037
		4.256,22.964,7.715,10.927,3.458,19.875,6.517,19.884,6.797.015.489-45.195,15.858-46.156
		15.69-.258-.044-11.184-3.7-24.28-8.125zm113.902,0c-21.259-7.181-26.83-9.554-22.435-9.554,2.121,0,43.061-11.703,45.113-12.896
		1.34-.779,2.62-.682,4.91.373,1.703.784,12.037,4.256,22.964,7.715,10.927,3.458,19.875,6.517,19.884,6.797.016.489-45.195
		15.858-46.156,15.69-.258-.044-11.184-3.7-24.28-8.125z"/>
	</symbol>

    <symbol id="googlecloud" viewBox="0 0 200 48">
        <path d="M33.4,17.39c-0.74-2.65-2.26-5.03-4.37-6.86l-0.07,0.06l0.01-0.07C23,5.38,13.86,5.93,8.58,11.76
	c-1.47,1.62-2.53,3.55-3.11,5.63c0.06-0.02,0.12-0.02,0.18-0.04C2.83,19.19,0.98,22.32,1,25.87c0.02,3.14,1.52,6.09,4.08,8.01
	l0.01-0.01l-0.01,0.04c1.82,1.34,4.03,2.05,6.31,2.04L19.43,36l0,0h8.03c5.77,0.04,10.49-4.48,10.53-10.1
	C38.03,22.5,36.3,19.3,33.4,17.39z M27.47,29.74h-8.03l0,0l-8.05-0.04c-0.57,0-1.13-0.12-1.65-0.35l0,0
	c-2.02-0.89-2.92-3.21-2.01-5.18s3.29-2.84,5.32-1.95c0.89,0.39,1.6,1.09,2.01,1.95l4.66-4.54c-1.56-1.99-3.81-3.31-6.29-3.79
	c0.03-0.02,0.07-0.04,0.09-0.04c2.86-3.06,7.68-3.42,10.98-0.81h0.08c1.87,1.52,2.93,3.77,2.88,6.14v0.78
	c2.22,0,4.02,1.75,4.02,3.91C31.49,27.98,29.69,29.74,27.47,29.74z M111.84,18.92h-2.77V20h-0.1c-0.4-0.46-0.89-0.83-1.45-1.08
	c-0.64-0.31-1.34-0.47-2.05-0.46c-1.69,0-3.31,0.72-4.46,1.98c-1.25,1.26-1.94,2.99-1.91,4.78c-0.03,1.78,0.66,3.49,1.91,4.74
	c1.15,1.26,2.77,1.97,4.46,1.97c1.34,0.08,2.63-0.49,3.49-1.53h0.1v0.97c0.08,1.07-0.25,2.12-0.93,2.94
	c-0.68,0.71-1.63,1.08-2.6,1.02c-0.76,0.02-1.5-0.23-2.09-0.71c-0.55-0.45-0.98-1.03-1.26-1.69l-2.54,1.08
	c0.47,1.1,1.22,2.06,2.16,2.78c1.07,0.82,2.38,1.24,3.71,1.2c1.68,0.06,3.32-0.57,4.54-1.75c1.28-1.43,1.92-3.34,1.77-5.26V18.92z
	 M108.25,28.17c-0.63,0.74-1.56,1.15-2.52,1.13c-0.99,0.01-1.94-0.41-2.61-1.15c-0.74-0.78-1.14-1.82-1.12-2.9
	c-0.02-1.09,0.38-2.14,1.12-2.93c0.67-0.74,1.62-1.15,2.61-1.13c0.96-0.02,1.89,0.39,2.52,1.13c0.69,0.82,1.06,1.87,1.01,2.95
	C109.3,26.34,108.94,27.37,108.25,28.17z M86.54,20.41c-1.28,1.26-1.98,3-1.93,4.81c-0.05,1.81,0.65,3.55,1.93,4.81
	c2.64,2.57,6.81,2.57,9.45,0c1.28-1.26,1.98-3,1.93-4.81c0.05-1.81-0.65-3.55-1.93-4.81C93.35,17.84,89.18,17.84,86.54,20.41z
	 M93.9,28.14c-0.05,0.06-0.11,0.12-0.17,0.17c-1.46,1.38-3.74,1.31-5.11-0.17h-0.01c-0.75-0.78-1.15-1.83-1.13-2.92
	c-0.03-1.09,0.37-2.15,1.12-2.93c0.04-0.04,0.07-0.07,0.11-0.11c1.46-1.42,3.79-1.37,5.19,0.11c0.75,0.78,1.15,1.84,1.12,2.93
	C95.05,26.3,94.64,27.36,93.9,28.14z M81.47,20.41c-2.64-2.56-6.8-2.56-9.45,0c-1.28,1.26-1.98,3-1.93,4.81
	c-0.05,1.81,0.65,3.55,1.93,4.81c2.64,2.57,6.81,2.57,9.45,0h-0.01c1.28-1.26,1.99-3,1.94-4.81C83.44,23.41,82.74,21.67,81.47,20.41
	z M79.38,28.14c-0.05,0.06-0.11,0.12-0.17,0.17c-1.46,1.38-3.74,1.31-5.11-0.17h-0.01c-0.75-0.78-1.15-1.83-1.13-2.92
	c-0.03-1.09,0.37-2.15,1.12-2.93c0.04-0.04,0.07-0.07,0.11-0.11c1.46-1.42,3.79-1.37,5.19,0.11c0.75,0.78,1.15,1.84,1.12,2.93
	C80.53,26.3,80.12,27.36,79.38,28.14z M68.95,20.55c0.09,0.58,0.13,1.17,0.11,1.77c0.12,2.47-0.76,4.88-2.44,6.68
	c-1.87,1.97-4.48,3.05-7.17,2.95c-2.76,0.04-5.42-1.07-7.36-3.07c-2-1.91-3.12-4.59-3.09-7.38c-0.03-2.79,1.09-5.47,3.09-7.38
	c1.93-2.02,4.59-3.14,7.36-3.12c2.64-0.04,5.18,1,7.06,2.89l-1.99,2.05c-1.36-1.33-3.18-2.07-5.07-2.04
	c-1.98-0.02-3.88,0.8-5.24,2.26c-1.41,1.42-2.19,3.36-2.15,5.38c-0.02,1.99,0.76,3.91,2.15,5.31c2.87,2.9,7.5,2.96,10.44,0.12
	c0.87-0.97,1.41-2.21,1.53-3.52h-6.69v-2.9H68.95z M113.85,11.76h2.91v19.79h-2.91V11.76z M130.16,22.75
	c-0.18-0.46-0.4-0.9-0.66-1.32c-0.32-0.5-0.69-0.96-1.12-1.37c-0.49-0.49-1.07-0.87-1.71-1.13c-0.71-0.3-1.47-0.45-2.23-0.44
	c-1.68-0.04-3.3,0.65-4.46,1.89c-1.23,1.3-1.88,3.05-1.82,4.84c-0.05,1.79,0.64,3.53,1.88,4.8c1.23,1.28,2.93,1.98,4.7,1.94
	c1.19,0.02,2.35-0.31,3.36-0.95c0.84-0.53,1.57-1.23,2.14-2.06l-2.23-1.53c-0.69,1.16-1.93,1.87-3.27,1.87
	c-1.38,0.06-2.66-0.75-3.21-2.04l8.92-3.72L130.16,22.75z M121.02,25.01c-0.08-1.07,0.32-2.11,1.08-2.85
	c0.63-0.66,1.49-1.05,2.4-1.08c0.53-0.01,1.06,0.13,1.53,0.4c0.42,0.23,0.74,0.59,0.93,1.03L121.02,25.01z M151.29,27.05l1.61,1.63
	c-0.84,1.02-1.9,1.84-3.09,2.39c-1.29,0.6-2.69,0.9-4.1,0.88c-5.07,0.09-9.26-4.01-9.35-9.16c0-0.13,0-0.25,0-0.38
	c-0.12-5.15,3.9-9.42,8.97-9.54c0.12,0,0.25,0,0.37,0c2.54-0.08,4.97,1.02,6.61,2.99l-1.61,1.58c-1.21-1.54-3.06-2.4-5-2.32
	c-1.86-0.04-3.65,0.69-4.96,2.01c-1.37,1.4-2.1,3.31-2.02,5.27c-0.08,1.97,0.65,3.88,2.02,5.27c1.31,1.33,3.11,2.06,4.96,2.01
	C147.87,29.72,149.93,28.75,151.29,27.05z M154.9,13.26h2.31v18.28h-2.31V13.26z M160.98,20.54c-1.19,1.28-1.84,2.99-1.78,4.75
	c-0.05,1.76,0.59,3.47,1.78,4.75c2.52,2.54,6.58,2.54,9.1,0c1.19-1.28,1.84-2.99,1.78-4.75c0.05-1.76-0.59-3.47-1.78-4.75
	C167.56,18,163.5,18,160.98,20.54z M168.35,28.58c-0.05,0.05-0.1,0.1-0.15,0.15c-1.56,1.5-4.02,1.43-5.5-0.15l0.01-0.01
	c-0.82-0.88-1.25-2.06-1.2-3.27c-0.05-1.21,0.38-2.39,1.19-3.28c0.05-0.05,0.1-0.1,0.15-0.15c1.56-1.5,4.02-1.43,5.5,0.15
	c0.82,0.89,1.24,2.07,1.19,3.28C169.6,26.51,169.17,27.69,168.35,28.58z M182.35,19.05h2.31v12.5h-2.23v-1.73h-0.07
	c-0.4,0.66-0.96,1.2-1.63,1.56c-0.69,0.41-1.48,0.62-2.29,0.62c-1.32,0.09-2.61-0.43-3.5-1.43c-0.84-1.08-1.27-2.45-1.19-3.83v-7.7
	h2.31v7.27c0,2.33,1.01,3.5,3.04,3.5c0.92,0.03,1.79-0.39,2.34-1.13c0.6-0.77,0.92-1.72,0.9-2.71V19.05z M196.69,13.26v5.78
	l0.1,1.73h-0.1c-0.41-0.65-0.99-1.18-1.67-1.53c-0.78-0.42-1.64-0.63-2.52-0.61c-1.58-0.01-3.09,0.69-4.13,1.91
	c-1.16,1.3-1.78,2.99-1.73,4.74c-0.05,1.75,0.57,3.45,1.73,4.74c1.03,1.22,2.54,1.92,4.13,1.91c0.87,0.01,1.73-0.2,2.5-0.61
	c0.68-0.35,1.26-0.88,1.67-1.53h0.1v1.73H199V13.26H196.69z M195.65,28.59c-0.71,0.79-1.72,1.24-2.78,1.22
	c-1.07,0.02-2.09-0.44-2.8-1.25c-0.79-0.9-1.19-2.08-1.12-3.28c-0.07-1.2,0.33-2.38,1.12-3.28c0.08-0.09,0.16-0.17,0.25-0.25
	c1.54-1.42,3.92-1.31,5.32,0.25c0.78,0.91,1.18,2.09,1.12,3.29C196.84,26.5,196.44,27.68,195.65,28.59z"/>
    </symbol>
    
    <symbol id="githubpages" viewBox="0 0 147 48">
        <path d="M16.87,19.1v9.74c0,0.06-0.01,0.18-0.1,0.23c0,0-2.11,1.49-5.59,1.49c-4.2,0-9.19-1.3-9.19-10.02C2,11.81,6.36,10,10.6,10
	c3.69,0,5.14,0.82,5.38,0.99c0.09,0.06,0.11,0.16,0.11,0.23l-0.71,3.02c0,0.17-0.17,0.35-0.36,0.29c-0.59-0.18-1.51-0.56-3.66-0.56
	c-2.48,0-5.12,0.74-5.12,6.34c0,5.61,2.54,6.27,4.36,6.27c1.54,0,2.1-0.19,2.1-0.19v-3.88h-2.48c-0.16,0-0.3-0.13-0.3-0.3V19.1
	c0-0.16,0.13-0.3,0.3-0.3h6.36C16.74,18.8,16.87,18.93,16.87,19.1z M23.21,17.21c0-0.17-0.13-0.3-0.3-0.3h-3.57
	c-0.16,0-0.31,0.17-0.31,0.33c0,0,0,10.45,0,12.45c0,0.37,0.23,0.47,0.52,0.47c0,0,1.52,0,3.22,0c0.35,0,0.44-0.17,0.44-0.48
	c0-0.67,0-3.28,0-3.79C23.21,25.41,23.21,17.21,23.21,17.21z M49.32,10.74h-3.58c-0.16,0-0.3,0.13-0.3,0.3c0,0,0,6.95,0,6.95h-5.58
	v-6.95c0-0.17-0.13-0.3-0.3-0.3h-3.58c-0.16,0-0.3,0.13-0.3,0.3v18.83c0,0.17,0.13,0.3,0.3,0.3h3.58c0.16,0,0.3-0.13,0.3-0.3v-8.05
	h5.58c0,0-0.01,8.05-0.01,8.05c0,0.17,0.13,0.3,0.3,0.3h3.59c0.16,0,0.3-0.13,0.3-0.3V11.04C49.61,10.88,49.48,10.74,49.32,10.74z
	 M21.15,11.17c-1.27,0-2.31,1.05-2.31,2.34c0,1.29,1.03,2.34,2.31,2.34c1.28,0,2.31-1.05,2.31-2.34
	C23.46,12.22,22.43,11.17,21.15,11.17z M33.48,27.05c-0.16,0-0.56,0.06-0.97,0.06c-1.32,0-1.77-0.62-1.77-1.41c0-0.8,0-5.29,0-5.29
	h2.69c0.16,0,0.3-0.13,0.3-0.3v-2.9c0-0.17-0.13-0.3-0.3-0.3h-2.69c0,0,0-3.56,0-3.56c0-0.13-0.07-0.2-0.22-0.2h-3.66
	c-0.14,0-0.22,0.06-0.22,0.2v3.68c0,0-1.83,0.44-1.96,0.48c-0.12,0.04-0.21,0.15-0.21,0.29v2.31c0,0.17,0.13,0.3,0.3,0.3h1.88
	c0,0,0,2.42,0,5.57c0,4.14,2.89,4.55,4.84,4.55c0.89,0,1.96-0.29,2.13-0.35c0.11-0.04,0.17-0.15,0.17-0.27l0-2.55
	C33.78,27.18,33.64,27.05,33.48,27.05z M63.51,16.94h-3.55c-0.16,0-0.3,0.13-0.3,0.3v9.23c0,0-0.9,0.66-2.18,0.66
	c-1.28,0-1.62-0.58-1.62-1.84c0-1.26,0-8.05,0-8.05c0-0.17-0.13-0.3-0.3-0.3h-3.61c-0.16,0-0.3,0.13-0.3,0.3c0,0,0,4.91,0,8.66
	c0,3.75,2.08,4.66,4.93,4.66c2.34,0,4.23-1.3,4.23-1.3s0.09,0.68,0.13,0.77c0.04,0.08,0.15,0.16,0.26,0.16l2.29-0.01
	c0.16,0,0.3-0.13,0.3-0.3l0-12.64C63.81,17.07,63.67,16.94,63.51,16.94z M140.43,22.74c-2.49-0.21-2.96-0.81-2.96-1.95
	c0-1.28,0.55-2.24,3.12-2.24c1.74,0,2.75,0.26,3.76,0.6v-1.57c-1.14-0.5-2.52-0.65-3.74-0.65c-3.66,0-4.85,2.01-4.85,3.86
	c0,1.8,0.78,3.13,4.54,3.47c2.57,0.21,2.93,1.04,2.93,2.24c0,1.23-0.73,2.37-3.43,2.37c-1.84,0-3.09-0.31-3.89-0.6v1.56
	c0.83,0.34,2.62,0.65,3.87,0.65c3.95,0,5.22-2.01,5.22-4.02C145,24.33,144.12,23.08,140.43,22.74z M78.43,23.07
	c0,5.8-1.87,7.47-5.13,7.47c-2.78,0-4.25-1.4-4.25-1.4s-0.09,0.77-0.15,0.87c-0.06,0.1-0.15,0.16-0.26,0.16h-2.49
	c-0.16,0-0.3-0.14-0.3-0.3V11.04c0-0.17,0.13-0.3,0.3-0.3h3.59c0.16,0,0.3,0.13,0.3,0.3v6.37c0,0,1.37-0.9,3.39-0.9
	C75.44,16.51,78.42,17.27,78.43,23.07z M74.3,23.3c0-3.07-1.23-3.45-2.51-3.34c-1.01,0.09-1.84,0.6-1.84,0.6v5.96
	c0,0,0.84,0.56,2.07,0.6C73.74,27.17,74.3,26.53,74.3,23.3z M133.5,23.7v0.83h-8.57c0.1,2.27,0.7,4.33,3.63,4.33
	c1.87,0,3.01-0.18,4.28-0.73v1.56c-1.45,0.65-3.01,0.78-4.28,0.78c-4.39,0-5.45-3.02-5.45-6.78c0-3.75,1.06-6.78,5.45-6.78
	C132.98,16.92,133.5,19.95,133.5,23.7z M131.68,23.05c0-2.32-0.13-4.51-3.12-4.51c-3.01,0-3.56,2.16-3.63,4.51H131.68z
	 M122.19,32.57c0,3.18-3.17,4.43-6.75,4.43c-3.63,0-5.81-1.07-5.81-3.94c0-1.77,1.22-2.95,2.67-3.44v-0.03
	c-0.49-0.34-0.83-0.86-0.83-1.72c0-0.73,0.44-1.33,0.99-1.77c-1.56-0.86-2.08-2.45-2.08-4.28c0-2.69,1.14-4.9,5.06-4.9
	c0.8,0,1.48,0.1,2.08,0.26h4.41v0.99l-2.18,0.63c0.55,0.83,0.75,1.88,0.75,3.02c0,2.69-1.14,4.9-5.06,4.9
	c-0.65,0-1.22-0.05-1.72-0.16c-0.29,0.29-0.49,0.65-0.49,0.96c0,0.65,0.31,0.94,0.99,1.02l4.41,0.52
	C121.07,29.33,122.19,30.3,122.19,32.57z M115.44,25.14c3.04,0,3.38-1.59,3.38-3.31c0-1.72-0.34-3.31-3.38-3.31
	c-3.04,0-3.37,1.59-3.37,3.31C112.06,23.55,112.4,25.14,115.44,25.14z M120.47,32.57c0-1.33-0.62-1.85-2.21-2.03l-3.79-0.44
	c-1.71,0.39-3.17,1.2-3.17,2.87c0,1.93,1.45,2.48,4.13,2.48C118.04,35.44,120.47,34.78,120.47,32.57z M108.02,21.3v8.92H107
	l-0.39-1.04c-1.17,0.86-2.62,1.3-3.92,1.3c-3.4,0-4.54-2.01-4.54-4.2c0-2.22,1.22-3.86,4.62-4.07l3.43-0.21v-0.73
	c0-1.9-0.68-2.74-3.09-2.74c-1.74,0-2.88,0.31-3.89,0.65v-1.57c1.14-0.5,2.65-0.7,3.89-0.7C107,16.92,108.02,18.7,108.02,21.3z
	 M106.2,23.29l-3.56,0.34c-1.84,0.18-2.65,1.15-2.65,2.66c0,1.17,0.29,2.58,2.75,2.58c1.4,0,2.34-0.39,3.45-1.04V23.29z
	 M96.64,16.53c0,3.05-1.66,5.87-6.52,5.87h-4.18v7.82h0h-1.77V10.66h5.95C94.98,10.66,96.64,13.48,96.64,16.53z M94.72,16.53
	c0-1.88-0.7-4.22-4.36-4.22h-4.41v8.45h4.41C94.01,20.76,94.72,18.41,94.72,16.53z"/>
    </symbol>
    
    <symbol id="netlify" viewBox="0 0 102 48">
        <path d="M11.44,12.55c-0.02-0.02-0.03-0.02-0.02-0.05c0-0.02,0-0.03,0.02-0.05l7.23-7.44C18.67,5,18.69,5,18.7,5
	c0.02,0,0.02,0,0.03,0.02l3.11,3.19c0.02,0.02,0.02,0.05,0,0.06l-3.75,6.02c-0.02,0.02-0.03,0.03-0.05,0.03h-0.02
	c-0.2-0.06-0.4-0.09-0.59-0.09c-0.41,0-0.82,0.16-1.14,0.42c-0.02,0.02-0.02,0.02-0.03,0.02h-0.02
	C16.06,14.57,11.44,12.55,11.44,12.55z M23.91,19.67v-0.06v-0.08c0-0.09,0.02-0.19,0.03-0.26c0-0.03-0.02-0.05-0.03-0.06l-4.89-2.15
	h-0.02c-0.02,0-0.03,0.02-0.05,0.03c-0.33,0.53-0.9,0.84-1.5,0.84c-0.09,0-0.18-0.02-0.29-0.03h-0.02c-0.02,0-0.03,0.02-0.05,0.03
	l-4.03,6.46c-0.02,0.02-0.02,0.05,0,0.06c0.02,0.02,0.03,0.02,0.05,0.02h0.02l10.74-4.75C23.9,19.7,23.91,19.69,23.91,19.67z
	 M11.04,23.97h0.02c0.15-0.03,0.32-0.06,0.47-0.06c0.17,0,0.35,0.03,0.52,0.08h0.02c0.02,0,0.03-0.02,0.05-0.03l4.07-6.53
	c0.02-0.02,0.02-0.05,0-0.06c-0.32-0.34-0.5-0.79-0.5-1.28c0-0.14,0.02-0.28,0.05-0.42c0-0.03-0.02-0.05-0.03-0.06
	c-0.52-0.23-5.09-2.23-5.09-2.24h-0.02c-0.02,0-0.03,0-0.03,0.02l-3.87,3.98c-0.02,0.02-0.02,0.05,0,0.06L11,23.94
	C11.01,23.95,11.03,23.97,11.04,23.97z M13.63,25.93l8.74,1.87h0.02c0.02,0,0.03-0.02,0.05-0.03c0.26-0.47,0.71-0.78,1.23-0.81
	c0.03,0,0.05-0.02,0.05-0.05l0.94-5.99c0-0.02,0-0.05-0.03-0.05c-0.06-0.05-0.12-0.09-0.2-0.17c-0.02-0.02-0.03-0.02-0.03-0.02
	h-0.02l-10.8,4.78c-0.03,0.02-0.03,0.03-0.03,0.06c0.02,0.12,0.05,0.23,0.05,0.36C13.58,25.91,13.6,25.93,13.63,25.93z M9.69,25.04
	c0.09-0.19,0.23-0.36,0.36-0.51c0.02-0.02,0.02-0.05,0-0.06c-0.05-0.06-4.16-6.22-4.16-6.24c-0.02-0.02-0.02-0.02-0.05-0.03
	c-0.02,0-0.03,0-0.03,0.02l-4.8,4.92C1,23.14,1,23.16,1,23.17s0.02,0.03,0.05,0.03l8.6,1.87C9.66,25.07,9.68,25.06,9.69,25.04z
	 M26.65,18.44c0.02,0.02,0.02,0.02,0.03,0.02h0.02l3.49-1.54c0.02-0.02,0.03-0.03,0.03-0.05c0-0.02,0-0.03-0.02-0.05l-3.27-3.35
	c-0.02-0.02-0.03-0.02-0.03-0.02h-0.02c-0.02,0-0.03,0.02-0.03,0.05l-0.71,4.53c0.02,0.02,0.03,0.05,0.05,0.05
	C26.37,18.18,26.53,18.3,26.65,18.44z M18.94,15.05c0.17,0.26,0.27,0.58,0.3,0.89c0,0.02,0.02,0.03,0.03,0.05l5.2,2.29h0.02
	c0.02,0,0.03,0,0.03-0.02c0.15-0.12,0.33-0.22,0.53-0.28c0.02,0,0.03-0.02,0.03-0.05l0.85-5.46c0-0.02,0-0.03-0.02-0.05l-3.25-3.35
	c-0.02-0.02-0.02-0.02-0.03-0.02c-0.02,0-0.03,0.02-0.03,0.03l-3.66,5.88C18.93,15,18.93,15.04,18.94,15.05z M12.37,27.97h-0.02
	c-0.27,0.12-0.55,0.19-0.84,0.19c-0.23,0-0.44-0.03-0.67-0.11h-0.02c-0.02,0-0.03,0.02-0.05,0.03L8.6,31.59l-0.02,0.02
	c-0.02,0.02-0.02,0.05,0,0.06l10.06,10.32C18.66,42,18.67,42,18.67,42c0.02,0,0.03,0,0.03-0.02l1.76-1.82
	c0.02-0.02,0.02-0.05,0-0.06L12.41,28C12.4,27.98,12.38,27.97,12.37,27.97z M26.82,20.48H26.8c-0.02,0-0.03,0-0.05,0.02
	c-0.24,0.34-0.61,0.56-1.03,0.62c-0.02,0-0.05,0.02-0.05,0.05l-0.96,6.08c0,0.02,0,0.03,0.02,0.05c0.33,0.26,0.53,0.65,0.58,1.09
	c0,0.03,0.02,0.05,0.05,0.05l5.41,1.17h0.02c0.02,0,0.03,0,0.03-0.02l4.95-5.09c0.02-0.02,0.02-0.03,0.02-0.05
	c0-0.02,0-0.03-0.02-0.05L26.82,20.48z M36.69,23.47l-5.58-5.73c-0.02-0.02-0.03-0.02-0.03-0.02h-0.02l-3.78,1.66
	c-0.02,0.02-0.03,0.03-0.03,0.05c0,0.02,0.02,0.05,0.03,0.05l9.33,4.09h0.02c0.02,0,0.03,0,0.03-0.02l0.03-0.03
	C36.72,23.53,36.72,23.48,36.69,23.47z M25.05,29.49h-0.02c-0.02,0-0.03,0.02-0.05,0.02c-0.18,0.23-0.41,0.42-0.68,0.53
	c-0.02,0-0.03,0.03-0.03,0.05l-1.14,7.25c0,0.03,0.02,0.05,0.03,0.06h0.03c0.02,0,0.03,0,0.03-0.02l6.59-6.77
	c0.02-0.02,0.02-0.03,0.02-0.05c0-0.05-0.02-0.06-0.03-0.06L25.05,29.49z M23.17,30c-0.46-0.19-0.79-0.61-0.91-1.09
	c0-0.02-0.02-0.03-0.05-0.05l-8.81-1.88c0,0,0,0-0.02,0s-0.03,0.02-0.05,0.03c-0.05,0.08-0.08,0.14-0.12,0.2
	c-0.02,0.02-0.02,0.05,0,0.06l8.02,12.01c0.02,0.02,0.02,0.02,0.03,0.02c0.02,0,0.03,0,0.03-0.02l0.49-0.5
	c0-0.02,0.02-0.02,0.02-0.03l1.37-8.71C23.2,30.05,23.2,30.02,23.17,30z M9.25,26.15c0-0.03-0.02-0.05-0.05-0.05l-7.46-1.6
	c0,0,0,0-0.02,0c-0.02,0-0.03,0.02-0.05,0.03c-0.02,0.02,0,0.05,0.02,0.06l3.33,3.42c0.02,0.02,0.03,0.02,0.03,0.02h0.02l4.13-1.82
	C9.24,26.18,9.25,26.16,9.25,26.15z M9.92,27.39c-0.05-0.06-0.09-0.12-0.14-0.2c-0.02-0.02-0.03-0.03-0.05-0.03H9.72l-3.77,1.66
	c-0.02,0-0.03,0.02-0.03,0.03c0,0.02,0,0.03,0.02,0.05l1.84,1.88c0.02,0.02,0.03,0.02,0.03,0.02c0.02,0,0.03-0.02,0.05-0.03
	l2.08-3.35C9.93,27.42,9.93,27.41,9.92,27.39z M73.99,29.97h2.41V13.69h-2.41V29.97z M52.73,22.38v7.58h-2.41v-7.42
	c0-0.72-0.14-1.27-0.44-1.61c-0.3-0.36-0.78-0.53-1.45-0.53c-0.96,0-1.69,0.47-2.17,1.41v8.16h-2.41V18.49h2.26l0.08,1.33
	c0.8-1.02,1.84-1.53,3.13-1.53C51.57,18.29,52.7,19.66,52.73,22.38z M63.16,19.79c0.78,1,1.19,2.41,1.19,4.23v1.03h-7.02
	c0.08,0.95,0.36,1.7,0.89,2.25c0.51,0.55,1.18,0.83,1.96,0.83c1.1,0,2-0.48,2.7-1.44l1.3,1.33c-0.42,0.69-0.99,1.22-1.72,1.59
	c-0.72,0.38-1.54,0.56-2.43,0.56c-1.54,0-2.77-0.52-3.72-1.55c-0.95-1.03-1.43-2.41-1.43-4.11v-0.31c0-1.14,0.21-2.16,0.62-3.06
	c0.42-0.91,0.99-1.61,1.75-2.11c0.75-0.5,1.58-0.75,2.5-0.75C61.2,18.29,62.33,18.79,63.16,19.79z M61.95,23.16v-0.19
	c-0.06-0.86-0.27-1.52-0.65-1.95c-0.38-0.44-0.9-0.66-1.57-0.66c-0.66,0-1.21,0.23-1.61,0.73c-0.41,0.48-0.68,1.17-0.78,2.06h4.59
	H61.95z M70.66,28.04c0.27,0,0.56-0.03,0.84-0.11v2c-0.56,0.17-1.08,0.25-1.6,0.25c-1.85,0-2.79-1.09-2.79-3.28v-6.5h-1.76v-1.91
	h1.76v-2.78h2.41v2.78h1.9v1.91h-1.9v6.41c0,0.44,0.08,0.77,0.24,0.95C69.94,27.96,70.22,28.05,70.66,28.04z M80.13,29.97h2.41V18.5
	h-2.41V29.97z M98.42,18.5H101l-4.28,13.2c-0.66,1.92-1.78,2.89-3.34,2.89c-0.35,0-0.74-0.06-1.16-0.19v-2l0.45,0.03
	c0.6,0,1.07-0.13,1.37-0.36c0.32-0.23,0.56-0.63,0.74-1.19l0.35-0.98L91.34,18.5h2.61l2.27,7.78L98.42,18.5z M90.05,13.47
	c0.44,0,0.87,0.06,1.36,0.19l-0.06,2.02c-0.26-0.05-0.57-0.08-0.92-0.08c-1.16,0-1.73,0.63-1.73,1.89v1.02h2.18v1.91h-2.18v9.56
	h-2.41v-9.56h-1.64V18.5h1.64v-1.05c0-1.28,0.33-2.27,0.99-2.95S88.87,13.46,90.05,13.47z M80.13,13.46v2.25h2.41v-2.25H80.13z"/>
    </symbol>
    
    <symbol id="sftp" viewBox="0 0 79 48">
       <path d="M22.31,22.85C22.77,23.6,23,24.52,23,25.62c0,1-0.27,1.93-0.82,2.8c-0.55,0.87-1.32,1.52-2.33,1.94
	c-1,0.42-2.25,0.64-3.75,0.64c-2.18,0-3.85-0.51-5.01-1.52c-1.17-1.02-1.86-2.5-2.09-4.44l3.38-0.33c0.2,1.15,0.62,1.99,1.24,2.53
	c0.62,0.54,1.46,0.81,2.52,0.81c1.12,0,1.96-0.24,2.53-0.72c0.57-0.48,0.85-1.04,0.85-1.68c0-0.41-0.12-0.76-0.36-1.05
	c-0.24-0.29-0.66-0.54-1.25-0.75c-0.41-0.14-1.33-0.39-2.78-0.76c-1.86-0.47-3.17-1.04-3.92-1.72c-1.06-0.96-1.59-2.12-1.59-3.5
	c0-0.89,0.25-1.71,0.75-2.49c0.5-0.77,1.21-1.36,2.15-1.76c0.94-0.4,2.06-0.61,3.39-0.61c2.16,0,3.79,0.48,4.88,1.44
	s1.67,2.23,1.72,3.83l-3.48,0.15c-0.15-0.89-0.47-1.54-0.96-1.93s-1.22-0.59-2.2-0.59c-1.01,0-1.8,0.21-2.37,0.63
	c-0.37,0.27-0.55,0.63-0.55,1.08c0,0.41,0.17,0.76,0.52,1.06c0.44,0.37,1.5,0.76,3.19,1.16c1.69,0.4,2.94,0.82,3.75,1.25
	C21.22,21.52,21.85,22.11,22.31,22.85z M26,31h3.53v-7.65h7.31v-3.05h-7.31v-4.26H38V13H26V31z M41,16.05h5.23V31h3.56V16.05H55V13
	H41V16.05z M71,18.54c0,1.11-0.19,2.03-0.57,2.79c-0.38,0.75-0.86,1.34-1.44,1.77c-0.58,0.43-1.17,0.71-1.78,0.85
	c-0.82,0.17-2,0.26-3.55,0.26h-2.23V31H58V13h5.5c2.08,0,3.44,0.09,4.07,0.27c0.97,0.27,1.79,0.86,2.44,1.76
	C70.67,15.94,71,17.1,71,18.54z M67.47,18.59c0-0.65-0.18-1.19-0.54-1.62c-0.36-0.43-0.82-0.69-1.38-0.8
	c-0.41-0.08-1.23-0.12-2.46-0.12h-1.66v5.11h1.87c1.35,0,2.25-0.09,2.71-0.28c0.46-0.19,0.81-0.48,1.07-0.88
	C67.34,19.59,67.47,19.12,67.47,18.59z"/>
    </symbol>
        
    <symbol id="ftp" viewBox="0 0 79 48">
        <path d="M17,31h3.53v-7.65h7.31V20.3h-7.31v-4.26H29V13H17V31z M32,16.05h5.23V31h3.56V16.05H46V13H32V16.05z M62,18.54
	c0,1.11-0.19,2.03-0.57,2.79c-0.38,0.75-0.86,1.34-1.44,1.77s-1.17,0.71-1.78,0.85c-0.82,0.17-2,0.26-3.55,0.26h-2.23V31H49V13h5.5
	c2.08,0,3.44,0.09,4.07,0.27c0.97,0.27,1.79,0.86,2.44,1.76C61.67,15.94,62,17.1,62,18.54z M58.47,18.59c0-0.65-0.18-1.19-0.54-1.62
	s-0.82-0.69-1.38-0.8c-0.41-0.08-1.23-0.12-2.46-0.12h-1.66v5.11h1.87c1.35,0,2.25-0.09,2.71-0.28s0.81-0.48,1.07-0.88
	C58.34,19.59,58.47,19.12,58.47,18.59z"/>
    </symbol>
        
    <symbol id="zip" viewBox="0 0 48 48">
        <path d="M42,11.82V43.5c0,1.38-1.12,2.5-2.5,2.5h-29C9.12,46,8,44.88,8,43.5v-37C8,5.12,9.12,4,10.5,4h10
	C20.78,4,21,4.22,21,4.5S20.78,5,20.5,5h-10C9.67,5,9,5.67,9,6.5v37c0,0.83,0.67,1.5,1.5,1.5h29c0.82,0,1.5-0.67,1.5-1.5V12.54
	c0-0.53-0.21-1.04-0.59-1.41l-5.54-5.54C34.5,5.21,33.99,5,33.46,5H25v2.5C25,7.78,24.78,8,24.5,8H23v2h1.5c0.28,0,0.5,0.22,0.5,0.5
	v3c0,0.28-0.22,0.5-0.5,0.5H23v2h1.5c0.28,0,0.5,0.22,0.5,0.5v3c0,0.28-0.22,0.5-0.5,0.5H23v2h1.5c0.28,0,0.5,0.22,0.5,0.5v3
	c0,0.28-0.22,0.5-0.5,0.5H22v9h6v-9h-0.5c-0.28,0-0.5-0.22-0.5-0.5s0.22-0.5,0.5-0.5h1c0.28,0,0.5,0.22,0.5,0.5v10
	c0,0.28-0.22,0.5-0.5,0.5h-7c-0.28,0-0.5-0.22-0.5-0.5v-10c0-0.28,0.22-0.5,0.5-0.5H24v-2h-1.5c-0.28,0-0.5-0.22-0.5-0.5v-3
	c0-0.28,0.22-0.5,0.5-0.5H24v-2h-1.5c-0.28,0-0.5-0.22-0.5-0.5v-3c0-0.28,0.22-0.5,0.5-0.5H24v-2h-1.5c-0.28,0-0.5-0.22-0.5-0.5v-3
	C22,7.22,22.22,7,22.5,7H24V4.5C24,4.22,24.22,4,24.5,4h9.17c0.66,0,1.3,0.26,1.76,0.73l6.42,6.41c0.05,0.05,0.08,0.1,0.11,0.16
	C41.99,11.37,42,11.75,42,11.82z M25,31c-0.55,0-1,0.45-1,1s0.45,1,1,1s1-0.45,1-1S25.55,31,25,31z"/>
    </symbol>
        
    <symbol id="gitlab" viewBox="0 0 140 52"> 
         <polygon points="104.08,16.69 101.59,16.69 101.59,35.31 111.67,35.31 111.67,33.01 104.09,33.01 	"/>
         <path d="M118.69,20.75c-2.01,0-3.86,0.72-5.3,1.91l0.88,1.53c1.02-0.6,2.26-1.19,4.05-1.19
		c2.04,0,2.94,1.05,2.94,2.82v0.91c-0.4-0.09-1.22-0.14-1.73-0.14c-4.36,0-6.57,1.54-6.57,4.75c0,2.87,1.75,4.32,4.42,4.32
		c1.79,0,3.51-0.82,4.1-2.16l0.45,1.82h1.75v-9.53C123.7,22.77,122.4,20.75,118.69,20.75z M121.26,32.04
		c-0.62,0.65-1.67,1.31-3.09,1.31c-1.9,0-2.66-0.94-2.66-2.16c0-1.85,1.27-2.73,3.99-2.73c0.51,0,1.33,0.06,1.75,0.14V32.04z"/>
         <path d="M132.78,20.75c-2.23,0-3.42,1.52-3.42,1.52v-2.4l-0.01-3.18h-1.12h-1.31l0.01,18.17
		c1.22,0.51,2.89,0.8,4.7,0.8c4.64,0,6.88-2.99,6.88-8.13C138.5,23.46,136.43,20.75,132.78,20.75z M131.74,33.44
		c-0.93,0-1.75-0.11-2.38-0.4v-7.72v-0.9c0.85-0.71,1.9-1.22,3.23-1.22c2.41,0,3.34,1.71,3.34,4.46
		C135.92,31.59,134.42,33.44,131.74,33.44z"/>
         <path d="M77,18.71c2.21,0,3.62,0.74,4.56,1.48l1.07-1.86c-1.46-1.29-3.42-1.98-5.51-1.98c-5.29,0-9,3.24-9,9.78
		c0,6.85,4,9.53,8.58,9.53c2.29,0,4.25-0.54,5.52-1.08l-0.05-7.32v-0.86v-1.44h-6.79v2.3h4.33l0.05,5.56
		c-0.57,0.28-1.56,0.51-2.89,0.51c-3.68,0-6.14-2.33-6.14-7.22C70.72,21.12,73.27,18.71,77,18.71z"/>
         <path d="M94.52,16.69h-2.43l0.01,3.13v1.28v0.75v1.3v7.45v0.03c0,3.01,1.3,5.03,5.01,5.03
		c0.51,0,1.01-0.05,1.5-0.14v-2.2c-0.35,0.05-0.73,0.09-1.13,0.09c-2.04,0-2.94-1.05-2.94-2.81v-7.45h4.08V21.1h-4.08L94.52,16.69z"/>
         <rect x="85.91" y="21.1" width="2.43" height="14.22"/>
         <path id="path42" d="M85.91,19.13h2.43v-2.45h-2.43V19.13L85.91,19.13z"/>
         <g id="g44" transform="translate(0.464170, 0.676006)">
		 <path id="path46" fill="#FFFFFF" d="M57.12,29.06l-3.14-9.72L47.75,0.07c-0.32-0.99-1.72-0.99-2.04,0
			l-6.23,19.27H18.79L12.55,0.07c-0.32-0.99-1.72-0.99-2.04,0L4.28,19.33l-3.14,9.72c-0.29,0.89,0.03,1.86,0.78,2.41l27.21,19.86
			l27.21-19.86C57.1,30.91,57.41,29.94,57.12,29.06"/>
         </g>
         <g id="g56" transform="translate(24.893471, 1.012613)">
		<path id="path58"  fill-opacity="0.8" d="M4.7,50.99L-5.64,19h-14.5L4.7,50.99L4.7,50.99z"/>
	    </g>
         <g id="g64" transform="translate(0.077245, 0.223203)">
		<path id="path66"  fill-opacity="0.3" d="M4.67,19.79L4.67,19.79l-3.14,9.72
			c-0.29,0.89,0.03,1.86,0.78,2.41l27.21,19.86L4.67,19.79L4.67,19.79z"/>
         </g>
         <g id="g76" transform="translate(215.680133, 1.012613)">
		<path id="path78"  fill-opacity="0.8" d="M-186.08,50.99L-175.74,19h14.5L-186.08,50.99L-186.08,50.99z"/>
         </g>
         <g id="g80" transform="translate(214.902910, 0.223203)">
		<path id="path82" fill-opacity="0.3" d="M-160.46,19.79L-160.46,19.79l3.14,9.72
			c0.29,0.89-0.03,1.86-0.78,2.41l-27.21,19.86L-160.46,19.79L-160.46,19.79z"/>
         </g>
         <path d="M29.6,52L29.6,52l10.35-31.99H19.25L29.6,52L29.6,52z M4.75,20.01h14.5L13.02,0.74
		c-0.32-0.99-1.72-0.99-2.04,0L4.75,20.01L4.75,20.01z M54.44,20.01h-14.5l6.23-19.27c0.32-0.99,1.72-0.99,2.04,0L54.44,20.01
		L54.44,20.01z"/>
    </symbol>

	<symbol id="deployment-more" viewBox="0 0 120 44">
	   <path d="M22.58,35H3.42a2.43,2.43,0,0,1-2.23-1.48A2.32,2.32,0,0,1,1,32.58V13.42a2.32,2.32,0,0,1,.19-.94,2.38,2.38,0,0,1,.52-.77,2.45,2.45,0,0,1,.76-.52A2.41,2.41,0,0,1,3.42,11H13a1,1,0,0,1,0,2H3.42a.41.41,0,0,0-.16,0,.39.39,0,0,0-.23.23.41.41,0,0,0,0,.16V32.58a.41.41,0,0,0,0,.16.39.39,0,0,0,.23.23.41.41,0,0,0,.16,0H22.58a.39.39,0,0,0,.3-.12.42.42,0,0,0,.09-.14.41.41,0,0,0,0-.16V23a1,1,0,0,1,2,0v9.58a2.32,2.32,0,0,1-.19.94,2.38,2.38,0,0,1-.52.77,2.36,2.36,0,0,1-1.71.71ZM17.21,20.21l10.5-10.5a1,1,0,0,0-1.42-1.42l-10.5,10.5a1,1,0,0,0,0,1.42,1,1,0,0,0,1.42,0ZM28,9a1,1,0,0,0-1-1H21.13a1,1,0,0,0,0,2H27A1,1,0,0,0,28,9Zm0,5.87V9a1,1,0,0,0-2,0v5.87a1,1,0,0,0,2,0ZM47.94,28.38a4.38,4.38,0,0,0,2-1.89,7.08,7.08,0,0,0,.76-3.22c0-.61.05-1.2.05-1.76s0-1.15-.05-1.76a6.81,6.81,0,0,0-.79-3.2,4.73,4.73,0,0,0-2-1.91,6.71,6.71,0,0,0-3-.64,6.63,6.63,0,0,0-3,.64,4.6,4.6,0,0,0-2,1.91,7.18,7.18,0,0,0-.81,3.2c0,.61,0,1.2,0,1.76s0,1.15,0,1.76a7.48,7.48,0,0,0,.78,3.22,4.26,4.26,0,0,0,2,1.89,6.89,6.89,0,0,0,3.07.62A7,7,0,0,0,47.94,28.38Zm-5.7-2.11a4.31,4.31,0,0,1-1.12-3.1c0-.63,0-1.19,0-1.68s0-1,0-1.66a5.43,5.43,0,0,1,.56-2.33A3.09,3.09,0,0,1,43,16.19a4,4,0,0,1,1.85-.42,4.11,4.11,0,0,1,1.89.42,3.09,3.09,0,0,1,1.32,1.31,5.31,5.31,0,0,1,.53,2.33c0,.61,0,1.17,0,1.66s0,1.05,0,1.68a4.31,4.31,0,0,1-1.1,3.1,4.07,4.07,0,0,1-5.25,0Zm17,2.52a.46.46,0,0,0,.35-.13.48.48,0,0,0,.14-.35v-.75a.46.46,0,0,0-.14-.34.47.47,0,0,0-.35-.14H58a1.28,1.28,0,0,1-1.2-.56A3,3,0,0,1,56.44,25V19.62H59a.46.46,0,0,0,.49-.47v-.71a.48.48,0,0,0-.14-.35A.48.48,0,0,0,59,18h-2.6V14.48a.46.46,0,0,0-.14-.34A.48.48,0,0,0,56,14H55a.48.48,0,0,0-.48.48V18H52.84a.45.45,0,0,0-.48.48v.71a.47.47,0,0,0,.13.34.48.48,0,0,0,.35.13h1.64v5.51a5,5,0,0,0,.34,1.94,2.53,2.53,0,0,0,1.07,1.27,3.62,3.62,0,0,0,1.91.45Zm4.06,0a.45.45,0,0,0,.36-.13.48.48,0,0,0,.13-.35V22.54a3.11,3.11,0,0,1,.8-2.28,2.78,2.78,0,0,1,2.1-.82,2.61,2.61,0,0,1,2.1.82,3.35,3.35,0,0,1,.72,2.28v5.77a.45.45,0,0,0,.14.35.45.45,0,0,0,.34.13h1a.45.45,0,0,0,.36-.13.48.48,0,0,0,.13-.35V22.44A5.7,5.7,0,0,0,71,20a3.81,3.81,0,0,0-1.45-1.65,4.45,4.45,0,0,0-5.79,1V14.48a.45.45,0,0,0-.13-.34.46.46,0,0,0-.36-.14H62.26a.46.46,0,0,0-.34.14.42.42,0,0,0-.14.34V28.31a.45.45,0,0,0,.14.35.45.45,0,0,0,.34.13Zm17.55-.07A5.32,5.32,0,0,0,82.29,28a4,4,0,0,0,.9-.89,1.64,1.64,0,0,0,.34-.76.37.37,0,0,0-.12-.32.56.56,0,0,0-.35-.11h-1a.73.73,0,0,0-.34,0,1,1,0,0,0-.3.32,3.11,3.11,0,0,1-.42.43,3,3,0,0,1-2.08.74A2.46,2.46,0,0,1,77.41,27a2.87,2.87,0,0,1-1-1.2,4.42,4.42,0,0,1-.38-1.59V24h7.28a.49.49,0,0,0,.34-.12.45.45,0,0,0,.14-.36v-.35a6.79,6.79,0,0,0-.57-2.88,4.12,4.12,0,0,0-1.65-1.89,5.58,5.58,0,0,0-5.17-.07,4.32,4.32,0,0,0-1.67,1.72,6.1,6.1,0,0,0-.7,2.6c0,.18,0,.41,0,.69s0,.52,0,.7a5.49,5.49,0,0,0,1.41,3.62A4.6,4.6,0,0,0,78.92,29,6.1,6.1,0,0,0,80.86,28.72Zm-4.8-6.2a3.89,3.89,0,0,1,.34-1.67,2.66,2.66,0,0,1,2.52-1.58,2.77,2.77,0,0,1,1.56.43,2.8,2.8,0,0,1,1,1.15,3.89,3.89,0,0,1,.34,1.67v.06H76.06Zm11.8,6.27a.52.52,0,0,0,.36-.13.45.45,0,0,0,.15-.35V22.19a2.26,2.26,0,0,1,2.43-2.44h1.27a.44.44,0,0,0,.46-.46v-.85a.48.48,0,0,0-.13-.35.42.42,0,0,0-.33-.13h-.84a4.14,4.14,0,0,0-1.77.35,2.7,2.7,0,0,0-1.16,1.06v-.91a.49.49,0,0,0-.15-.36A.48.48,0,0,0,87.8,18h-1a.48.48,0,0,0-.35.14.52.52,0,0,0-.13.36v9.85a.45.45,0,0,0,.48.48Zm12.74-.22a3.46,3.46,0,0,0,1.51-1.15,2.76,2.76,0,0,0,.52-1.61,2.83,2.83,0,0,0-.34-1.39,2.9,2.9,0,0,0-1.14-1.07A7.37,7.37,0,0,0,99,22.63,15.21,15.21,0,0,1,97,22.08a1.88,1.88,0,0,1-.88-.56,1.12,1.12,0,0,1-.23-.71,1.37,1.37,0,0,1,.52-1.1A2.44,2.44,0,0,1,98,19.27a3.27,3.27,0,0,1,1.19.18,2.27,2.27,0,0,1,.73.45,4.92,4.92,0,0,1,.5.54.86.86,0,0,0,.18.14.36.36,0,0,0,.24.07h.88a.49.49,0,0,0,.34-.14.36.36,0,0,0,.12-.34,1.46,1.46,0,0,0-.27-.67,3.49,3.49,0,0,0-.76-.8A4.17,4.17,0,0,0,99.89,18,5.73,5.73,0,0,0,98,17.75a4.8,4.8,0,0,0-2.24.46,3.37,3.37,0,0,0-1.36,1.18A2.66,2.66,0,0,0,94,20.88a2.82,2.82,0,0,0,.31,1.34,2.75,2.75,0,0,0,1.06,1,7.63,7.63,0,0,0,2,.72,16.54,16.54,0,0,1,2,.52,2.44,2.44,0,0,1,1,.56,1.21,1.21,0,0,1,.29.84,1.31,1.31,0,0,1-.7,1.19,3.45,3.45,0,0,1-1.76.41,3.4,3.4,0,0,1-1.24-.19,2.7,2.7,0,0,1-.83-.48c-.22-.19-.42-.39-.61-.58a.59.59,0,0,0-.2-.18.53.53,0,0,0-.2,0h-.92a.54.54,0,0,0-.34.13.38.38,0,0,0-.15.35,1.69,1.69,0,0,0,.29.67,3.36,3.36,0,0,0,.79.83,4.61,4.61,0,0,0,1.37.71,7.25,7.25,0,0,0,4.49-.14Zm6.32.22a.45.45,0,0,0,.34-.13.48.48,0,0,0,.14-.35v-1.5a.48.48,0,0,0-.48-.48H105.4a.5.5,0,0,0-.35.14.45.45,0,0,0-.13.34v1.5a.48.48,0,0,0,.13.35.49.49,0,0,0,.35.13Zm5.3,0a.45.45,0,0,0,.34-.13.48.48,0,0,0,.14-.35v-1.5a.48.48,0,0,0-.48-.48H110.7a.46.46,0,0,0-.34.14.42.42,0,0,0-.14.34v1.5a.45.45,0,0,0,.14.35.45.45,0,0,0,.34.13Zm5.3,0a.45.45,0,0,0,.34-.13.45.45,0,0,0,.14-.35v-1.5a.42.42,0,0,0-.14-.34.46.46,0,0,0-.34-.14H116a.46.46,0,0,0-.34.14.42.42,0,0,0-.14.34v1.5a.45.45,0,0,0,.14.35.45.45,0,0,0,.34.13Z" />
	</symbol>

</svg>

