<svg xmlns="http://www.w3.org/2000/svg"> 

    <!-- Tools icons  -->

  <symbol id="backup" viewBox="0 0 62 62"><path d="M47.947,1H14.053c-3.343,0-6.053,2.239-6.053,5v50c0,2.761,2.71,5,6.053,5h33.895c3.343,0,6.053-2.239,6.053-5V6c0-2.761-2.71-5-6.053-5ZM15,7c1.105,0,2,.895,2,2s-.895,2-2,2-2-.896-2-2,.895-2,2-2ZM17.55,55.437c-.213.624-.691,1.109-1.345,1.368-.331.131-.691.196-1.059.196-.515,0-1.043-.126-1.523-.376-.821-.428-1.41-1.169-1.576-1.983-.138-.678.022-1.337.451-1.855l8.819-10.647c.118-.141.323-.179.484-.091.163.09.237.282.177.456l-4.429,12.934ZM47,56c-1.105,0-2-.896-2-2s.895-2,2-2,2,.895,2,2-.895,2-2,2ZM47,11c-1.105,0-2-.896-2-2s.895-2,2-2,2,.895,2,2-.895,2-2,2Z" fill="#9b9d9f"/><path d="M47.978,30.126c-.013-.252-.048-.497-.072-.746-.029-.303-.05-.607-.095-.909-.043-.286-.108-.565-.165-.847-.053-.261-.097-.524-.162-.783-.07-.278-.16-.548-.244-.821-.079-.259-.151-.519-.242-.774-.092-.255-.203-.501-.306-.751-.109-.264-.212-.53-.335-.789-.114-.24-.246-.468-.371-.702-.136-.255-.265-.513-.415-.763-.157-.26-.333-.506-.503-.756-.141-.208-.271-.421-.423-.625-.669-.899-1.425-1.731-2.257-2.482-.188-.17-.388-.319-.581-.479-.234-.193-.462-.392-.706-.573-.233-.173-.477-.325-.718-.484-.221-.147-.438-.301-.666-.438-.246-.147-.5-.273-.752-.407-.24-.127-.475-.261-.721-.377-.244-.115-.494-.21-.743-.312-.266-.11-.527-.226-.8-.323-.249-.088-.504-.157-.756-.233-.278-.084-.552-.176-.836-.247-.292-.073-.589-.121-.884-.178-.249-.048-.494-.107-.747-.144-.554-.081-1.112-.138-1.671-.164-.559-.027-1.12-.023-1.679.005-.254.013-.503.049-.754.073-.3.029-.601.049-.9.094-.289.043-.569.108-.853.166-.259.052-.52.096-.777.161-.279.07-.549.161-.822.245-.258.079-.518.15-.774.242-.255.092-.501.202-.751.306-.264.109-.53.212-.789.335-.24.114-.469.247-.703.372-.255.136-.513.265-.762.415-.259.156-.504.332-.754.501-.209.142-.423.272-.627.424-.889.662-1.714,1.407-2.458,2.228-.137.151-.255.313-.386.468-2.327,2.756-3.813,6.26-3.998,10.142-.099,2.084.198,4.089.801,5.963l-.017.004c.024.075.059.147.083.221.08.237.173.467.263.699.651,1.702,1.585,3.319,2.81,4.789.018.021.033.045.051.066v-.002c.088.103.173.208.256.313l1.936-2.357c.724-.88,1.975-1.12,2.972-.564.997.554,1.456,1.742,1.088,2.822l-1.293,3.808c.079.042.155.093.234.134l-.008.012c.074.039.155.067.23.104.349.174.703.332,1.061.48.186.078.371.156.561.227.349.13.703.243,1.058.35.207.062.412.129.622.184.373.097.75.171,1.128.242.197.037.389.083.588.114.578.088,1.159.15,1.742.178.003,0,.005,0,.008,0,.007,0,.014,0,.021,0,.552.026,1.106.023,1.658-.005.254-.013.502-.049.754-.072.301-.029.602-.049.901-.094.288-.043.569-.108.853-.166.26-.052.52-.096.777-.161.279-.07.549-.161.822-.244.259-.079.519-.151.774-.243.255-.092.501-.202.751-.306.264-.109.529-.212.789-.335.241-.114.47-.247.704-.372.255-.136.512-.264.761-.414.259-.156.504-.332.754-.501.209-.142.423-.272.627-.424.899-.669,1.73-1.425,2.481-2.257.172-.19.323-.392.485-.588.191-.232.388-.458.567-.699.174-.235.327-.481.487-.722.146-.22.299-.435.435-.662.148-.247.275-.502.409-.755.127-.238.259-.472.375-.717.116-.247.212-.5.316-.751.109-.263.224-.522.32-.791.09-.252.159-.51.236-.765.083-.275.174-.546.244-.827.074-.297.123-.598.181-.897.047-.245.105-.485.142-.734.163-1.109.216-2.232.159-3.352Z" fill="#434343"/><circle id="b" cx="31.001" cy="31" r="8.083" fill="none" stroke="#9b9d9f" stroke-width="4"/><circle cx="31.001" cy="31" r="1.115" fill="#fff"/>
  </symbol>
        
  <symbol id="regenerate-thumbnails" viewBox="0 0 62 62"><path d="M56,8H6c-2.761,0-5,2.239-5,5v36c0,2.761,2.239,5,5,5h50c2.761,0,5-2.239,5-5V13c0-2.761-2.239-5-5-5ZM17.312,28.52c-3.508,0-6.352-2.827-6.352-6.314s2.844-6.314,6.352-6.314,6.352,2.827,6.352,6.314-2.844,6.314-6.352,6.314Z" fill="#b3d9ff"/><path d="M44.864,22.42l-22.045,17.246c-.568.448-1.477.56-2.159.112l-6.364-3.808c-.568-.448-1.477-.448-2.045,0L1,44.033v4.967c0,2.761,2.239,5,5,5h50c2.761,0,5-2.239,5-5v-14.71l-13.75-11.871c-.682-.56-1.705-.56-2.386,0Z" fill="#1089ff"/>
  </symbol>

   <symbol id="code" viewBox="0 0 62 62"><path d="M1,16v33c0,2.761,2.239,5,5,5h50c2.761,0,5-2.239,5-5V16H1ZM23.707,38.293c.391.391.391,1.023,0,1.414-.195.195-.451.293-.707.293s-.512-.098-.707-.293l-5-5c-.391-.391-.391-1.023,0-1.414l5-5c.391-.391,1.023-.391,1.414,0s.391,1.023,0,1.414l-4.293,4.293,4.293,4.293ZM34.579,24.298l-6.25,19.999c-.134.429-.528.702-.954.702-.099,0-.2-.015-.299-.046-.527-.164-.821-.726-.656-1.252l6.25-20c.164-.527.728-.82,1.252-.656.527.165.821.726.656,1.253ZM43.707,34.707l-5,5c-.195.195-.451.293-.707.293s-.512-.098-.707-.293c-.391-.391-.391-1.023,0-1.414l4.293-4.293-4.293-4.293c-.391-.391-.391-1.023,0-1.414s1.023-.391,1.414,0l5,5c.391.391.391,1.023,0,1.414Z" fill="#ec6b2f"/><g id="b"><path d="M6,8h50c2.76,0,5,2.24,5,5v3H1v-3c0-2.76,2.24-5,5-5Z" fill="#dd4b25"/><rect x="5" y="11" width="10" height="2" rx="1" ry="1" fill="#ec6b2f"/></g>
  </symbol>

  <symbol id="css" viewBox="0 0 62 62"><g id="b"><path d="M28.68,26.85l.938.946c.389.392.386,1.025-.006,1.414-.195.193-.45.29-.704.29-.257,0-.515-.099-.71-.296l-.926-.934-5.782,5.83h14.64l1.189-1.199-7.32-7.38-1.319,1.33Z" fill="#366cea"/><path d="M26.999,41.656c.473.477,1.162.477,1.634,0l5.511-5.557h-12.656l5.51,5.557Z" fill="#366cea"/><path d="M39.817,40.656c-.105.144-.212.281-.315.416-.536.698-.866,1.155-.866,1.728,0,.662.529,1.2,1.181,1.2s1.182-.538,1.182-1.2c0-.571-.329-1.028-.867-1.728-.104-.135-.21-.272-.316-.416Z" fill="#366cea"/><path d="M1,16v33c0,2.761,2.239,5,5,5h50c2.761,0,5-2.239,5-5V16H1ZM27.817,44.021c-.831,0-1.626-.34-2.238-.956l-5.673-5.721c-1.206-1.24-1.206-3.248-.007-4.482l5.964-6.013-3.12-3.146c-.389-.392-.386-1.025.006-1.414.392-.388,1.027-.387,1.415.006l3.108,3.134,2.017-2.034c.188-.189.443-.296.71-.296s.523.106.71.296l8.729,8.8c.387.39.387,1.019,0,1.408l-9.383,9.46c-.612.616-1.406.956-2.238.956ZM39.817,46c-1.754,0-3.182-1.436-3.182-3.2,0-1.28.68-2.165,1.28-2.946.435-.564.81-1.053.918-1.636.088-.474.502-.817.984-.817s.896.344.984.817c.108.583.484,1.07.918,1.636.6.781,1.281,1.666,1.281,2.946,0,1.765-1.428,3.2-3.183,3.2Z" fill="#366cea"/><path d="M6,8h50c2.76,0,5,2.24,5,5v3H1v-3c0-2.76,2.24-5,5-5Z" fill="#254bdd"/><rect x="5" y="11" width="10" height="2" rx="1" ry="1" fill="#366cea"/></g>
   </symbol>

  <symbol id="importer" viewBox="0 0 62 62"><path d="M38.263,1H14.053c-3.343,0-6.053,2.239-6.053,5v50c0,2.761,2.71,5,6.053,5h33.895c3.343,0,6.053-2.239,6.053-5V16L38.263,1ZM27.952,41.755l-1.797,6.511c-.123.44-.225.762-.306.966-.081.204-.218.383-.412.538-.195.154-.468.231-.821.231-.334,0-.602-.075-.803-.224s-.341-.317-.419-.505c-.079-.187-.19-.507-.331-.96l-1.746-5.798-1.767,5.798c-.138.439-.246.755-.327.947-.082.191-.222.363-.424.515-.201.152-.469.228-.803.228-.269,0-.492-.045-.666-.135-.175-.09-.316-.218-.424-.383s-.196-.36-.265-.587c-.068-.227-.129-.436-.184-.63l-1.797-6.511c-.108-.378-.162-.666-.162-.864,0-.251.098-.462.294-.633.196-.172.439-.257.729-.257.398,0,.665.115.803.343s.258.561.361.996l1.413,5.646,1.583-5.284c.118-.405.223-.712.316-.924.093-.211.246-.393.457-.547.211-.154.499-.231.861-.231.368,0,.654.08.858.241.204.161.344.336.424.524.078.189.184.501.316.937l1.598,5.284,1.413-5.646c.068-.294.133-.525.195-.693.061-.167.166-.317.316-.449.149-.132.367-.198.651-.198s.527.085.725.254c.199.169.298.382.298.637,0,.181-.054.468-.162.864ZM37.116,49.584c-.083.128-.201.228-.354.303-.152.075-.324.112-.515.112-.206,0-.381-.039-.523-.115-.143-.077-.258-.172-.346-.287-.089-.115-.253-.336-.494-.666l-1.9-2.678-2.018,2.757c-.157.22-.269.373-.335.462-.067.088-.146.174-.239.257-.094.083-.204.149-.332.198-.127.049-.277.073-.448.073-.265,0-.485-.073-.659-.218-.175-.145-.261-.356-.261-.633,0-.326.179-.723.537-1.194l2.415-3.16-2.032-2.81c-.192-.273-.335-.507-.431-.703-.096-.195-.143-.383-.143-.564,0-.185.091-.35.276-.498.184-.148.409-.221.673-.221.304,0,.542.08.71.241.17.161.404.458.703.894l1.62,2.348,1.73-2.348c.143-.198.264-.367.365-.508.101-.141.197-.257.29-.35s.198-.162.313-.208c.115-.046.249-.069.401-.069.274,0,.499.073.673.221.175.148.262.322.262.524,0,.294-.19.695-.567,1.201l-2.128,2.85,2.29,3.16c.206.277.356.507.449.689.093.182.14.355.14.518,0,.154-.042.294-.125.422ZM47.363,49.594c-.091.125-.214.224-.372.297-.157.073-.339.109-.545.109-.246,0-.452-.052-.618-.155-.167-.103-.311-.234-.431-.392-.12-.158-.284-.392-.49-.699l-.876-1.306c-.314-.479-.595-.844-.843-1.095s-.499-.422-.755-.515c-.255-.092-.577-.138-.964-.138h-.766v3.107c0,.409-.101.71-.302.904-.202.194-.464.29-.788.29-.349,0-.619-.101-.81-.303-.191-.202-.287-.499-.287-.891v-7.441c0-.422.106-.728.316-.917.211-.189.552-.284,1.023-.284h3.556c.491,0,.911.019,1.259.056.349.037.663.113.943.228.339.128.638.31.898.547.26.237.457.514.593.828.135.314.202.647.202.999,0,.721-.227,1.297-.681,1.728-.454.431-1.142.736-2.065.917.388.185.758.458,1.112.818.354.36.669.745.946,1.151.278.406.494.774.648,1.102.155.327.232.553.232.676,0,.128-.045.254-.137.379Z" fill="#616161"/><path d="M45.092,42.949c0-.268-.076-.505-.228-.709-.152-.204-.363-.357-.633-.458-.255-.096-.758-.145-1.509-.145h-2.018v2.658h1.958c.525,0,.967-.04,1.325-.122.359-.082.632-.22.821-.416.19-.195.284-.465.284-.808Z" fill="#616161"/><polygon points="54 16 38.263 1 38.26 16 54 16" fill="#9e9e9e"/><polygon points="38.26 16 53.997 31 54 16 38.26 16" fill="#4D4D4D"/><g id="b"><line x1="18" y1="20" x2="30" y2="20" fill="none" stroke="#9e9e9e" stroke-linecap="round" stroke-linejoin="round" stroke-width="2"/><line x1="18" y1="23" x2="35" y2="23" fill="none" stroke="#9e9e9e" stroke-linecap="round" stroke-linejoin="round" stroke-width="2"/><line x1="18" y1="26" x2="35" y2="26" fill="none" stroke="#9e9e9e" stroke-linecap="round" stroke-linejoin="round" stroke-width="2"/></g>
  </symbol>

  <symbol id="htaccess" viewBox="0 0 24 24">
    <path class="st0" d="M14,20c0,1.1-0.9,2-2,2s-2-0.9-2-2s0.9-2,2-2S14,18.9,14,20z M12,15c1.1,0,1.3-0.8,1.3-1.8L14,3.8
    c0-1-0.9-1.8-2-1.8s-2,0.8-2,1.8l0.7,9.5C10.7,14.2,10.9,15,12,15z"/>
  </symbol>

  <symbol id="log" viewBox="0 0 62 62"><g id="b"><rect x="4" y="17.5" width="8" height="3" rx="1.5" ry="1.5" fill="#cea100"/><rect x="4" y="25.5" width="8" height="3" rx="1.5" ry="1.5" fill="#cea100"/><rect x="4" y="33.5" width="8" height="3" rx="1.5" ry="1.5" fill="#cea100"/><rect x="4" y="41.5" width="8" height="3" rx="1.5" ry="1.5" fill="#cea100"/></g><path d="M29.148,48.074c-.132.133-.229.298-.282.479l-.645,2.219,2.206-.647c.179-.052.343-.15.475-.283l10.521-10.57-1.757-1.765-10.518,10.566Z" fill="#f7c300"/><path d="M42.704,34.972c-.331,0-.643.129-.877.365l-.75.753,1.757,1.765.746-.749c.485-.488.485-1.281,0-1.769-.234-.236-.546-.365-.876-.365Z" fill="#f7c300"/><path d="M49,1H13c-2.761,0-5,2.239-5,5v10.5h2.833c1.381,0,2.5,1.119,2.5,2.5s-1.119,2.5-2.5,2.5h-2.833v3h2.833c1.381,0,2.5,1.119,2.5,2.5s-1.119,2.5-2.5,2.5h-2.833v3h2.833c1.381,0,2.5,1.119,2.5,2.5s-1.119,2.5-2.5,2.5h-2.833v3h2.833c1.381,0,2.5,1.119,2.5,2.5s-1.119,2.5-2.5,2.5h-2.833v10.5c0,2.761,2.239,5,5,5h36c2.761,0,5-2.239,5-5V6c0-2.761-2.239-5-5-5ZM30.988,52.049l-3.032.888c-.142.041-.287.063-.431.063-.253,0-.504-.065-.732-.19-.358-.197-.619-.521-.733-.914-.081-.284-.081-.577,0-.854l.886-3.049c.146-.502.417-.962.786-1.333l12.68-12.737c1.224-1.229,3.36-1.231,4.585,0,1.262,1.268,1.262,3.33,0,4.598l-12.678,12.737c-.369.371-.829.645-1.33.791ZM46,53h-9.501c-.553,0-1-.448-1-1.002s.447-1.002,1-1.002h9.501c.553,0,1,.448,1,1.002s-.447,1.002-1,1.002Z" fill="#f7c300"/>
  </symbol>

  <symbol id="file-manager" viewBox="0 0 62 62">
    <path d="M6.455,16.118h25.891l-4.521-5.983c-1.028-1.356-2.561-2.135-4.205-2.135H6.388c-.386,0-.772.045-1.151.129-.346.079-.696.201-1.08.381-.329.159-.641.349-.926.568-.272.209-.527.447-.788.737-.225.259-.43.539-.601.824-.18.296-.333.616-.461.951-.125.336-.222.682-.285,1.036-.064.354-.097.713-.097,1.086v7.816c0-2.989,2.442-5.412,5.455-5.412Z" fill="#989CA6"/><rect x="1" y="16.118" width="60" height="37.882" rx="5" ry="5" fill="#C7C9CE"/>
  </symbol>
        
  <symbol id="add" viewBox="0 0 62 44">
    <path d="M31,3c-10.49,0-19,8.51-19,19s8.51,19,19,19s19-8.51,19-19S41.49,3,31,3z M31,39c-9.37,0-17-7.63-17-17S21.63,5,31,5
	s17,7.63,17,17S40.37,39,31,39z M36.5,22c0,0.55-0.45,1-1,1H32v3.5c0,0.55-0.45,1-1,1s-1-0.45-1-1V23h-3.5c-0.55,0-1-0.45-1-1
	c0-0.55,0.45-1,1-1H30v-3.5c0-0.55,0.45-1,1-1s1,0.45,1,1V21h3.5C36.05,21,36.5,21.45,36.5,22z"/>
  </symbol>   
        
</svg>
