<svg xmlns="http://www.w3.org/2000/svg"> 

    <!-- Tools icons  -->

    <symbol id="backup" viewBox="0 0 62 44">
        <path d="M46.5,14.6c-1-2.3-2.3-4.3-4.1-6c-1.7-1.7-3.8-3.1-6-4.1c-4.7-2-10.1-2-14.8,0c-2.3,1-4.3,2.3-6,4.1
		c-1.7,1.7-3.1,3.8-4.1,6c-1,2.3-1.5,4.8-1.5,7.4c0,2.6,0.5,5.1,1.5,7.4l0.6,1.3l6.6-6.1c0.4-0.4,0.4-1,0-1.4c-0.4-0.4-1-0.4-1.4,0
		l-4.4,4.1C12.3,25.6,12,23.8,12,22c0-2.3,0.4-4.5,1.3-6.6c0.9-2,2.1-3.8,3.6-5.4c1.6-1.6,3.4-2.8,5.4-3.6c4.2-1.8,9-1.8,13.2,0
		c2,0.9,3.8,2.1,5.4,3.6c1.6,1.6,2.8,3.4,3.6,5.4c0.9,2.1,1.3,4.3,1.3,6.6c0,2.3-0.4,4.5-1.3,6.6c-0.9,2-2.1,3.8-3.6,5.4
		c-1.6,1.6-3.4,2.8-5.4,3.6c-4.2,1.8-9,1.8-13.2,0c-0.5-0.2-1.1,0-1.3,0.5c-0.2,0.5,0,1.1,0.5,1.3c2.3,1,4.8,1.5,7.4,1.5
		c2.6,0,5.1-0.5,7.4-1.5c2.3-1,4.3-2.3,6-4.1c1.7-1.7,3.1-3.8,4.1-6c1-2.3,1.5-4.8,1.5-7.4C48,19.4,47.5,16.9,46.5,14.6z"/>
        <path d="M29,14c-0.6,0-1,0.4-1,1v7c0,0.1,0,0.1,0,0.1c0,0.1,0,0.1,0,0.2c0,0.1,0.1,0.1,0.1,0.2c0,0.1,0.1,0.1,0.1,0.2
		c0,0.1,0.1,0.1,0.2,0.1c0,0,0.1,0.1,0.1,0.1l4.1,2.1c0.5,0.3,1.1,0.1,1.3-0.4c0.3-0.5,0.1-1.1-0.4-1.3L30,21.4V15
		C30,14.4,29.6,14,29,14z"/>
    </symbol>
        
    <symbol id="regenerate-thumbnails" viewBox="0 0 62 44">
        <path d="M35.5,20c1.93,0,3.5-1.57,3.5-3.5c0-1.93-1.57-3.5-3.5-3.5S32,14.57,32,16.5C32,18.43,33.57,20,35.5,20z M35.5,15
	c0.83,0,1.5,0.67,1.5,1.5S36.33,18,35.5,18S34,17.33,34,16.5S34.67,15,35.5,15z M49,6H13c-3.31,0-6,2.69-6,6v21c0,3.31,2.69,6,6,6
	h36c3.31,0,6-2.69,6-6V12C55,8.69,52.31,6,49,6z M9,12c0-2.21,1.79-4,4-4h36c2.21,0,4,1.79,4,4v15.45
	c-1.47-3.71-3.64-7.76-6.26-8.33c-3.83-0.83-6.13,2.93-8.15,6.26c-1.32,2.16-2.68,4.39-4.05,4.61c-1.21,0.18-1.98-0.82-3-2.37
	c-0.82-1.25-1.67-2.54-3.1-2.54c-1.81,0-2.86,1.34-3.69,2.42c-0.45,0.57-0.95,1.27-1.28,1.21c-0.23-0.01-1.16-0.32-3.24-3.69
	c-1.15-1.86-2.37-2.09-3.2-1.95c-3.41,0.57-5.86,9.07-6.78,12.84C9.48,35.15,9,34.13,9,33V12z M49,37H13
	c-0.33,0-0.64-0.05-0.94-0.12c1.32-5.59,3.71-11.6,5.28-11.86c0.44-0.06,0.96,0.7,1.17,1.03c1.96,3.17,3.4,4.56,4.84,4.63
	c1.38,0.09,2.22-1.02,2.97-1.98c0.77-1,1.34-1.65,2.11-1.65c0.35,0,0.98,0.95,1.43,1.64c1.01,1.54,2.4,3.64,4.98,3.25
	c2.29-0.35,3.83-2.87,5.46-5.54c1.76-2.89,3.57-5.88,6.02-5.34c2.37,0.51,5.25,7.52,6.62,12.54C52.64,35.52,51,37,49,37z"/>  
    </symbol>

    <symbol id="code" viewBox="0 0 62 44">      
        <path d="M56,20.8c0-0.1,0-0.1-0.1-0.2c0,0,0,0,0-0.1c0,0,0-0.1-0.1-0.1c0-0.1-0.1-0.1-0.1-0.2c0,0-0.1-0.1-0.2-0.1
		c0,0-0.1-0.1-0.1-0.1l-14-7c-0.5-0.2-1.1,0-1.3,0.4c-0.2,0.5,0,1.1,0.4,1.3L52.8,21l-12.2,6.1c-0.5,0.2-0.7,0.8-0.4,1.3
		c0.2,0.4,0.5,0.6,0.9,0.6c0.2,0,0.3,0,0.4-0.1l14-7c0,0,0,0,0,0c0.1-0.1,0.2-0.1,0.3-0.2c0,0,0,0,0-0.1c0,0,0.1-0.1,0.1-0.2
		c0,0,0,0,0-0.1c0-0.1,0-0.1,0.1-0.2c0-0.1,0-0.1,0-0.2C56,20.9,56,20.9,56,20.8z"/>
        <path d="M20.9,13.6c-0.2-0.5-0.8-0.7-1.3-0.4l-14,7c0,0-0.1,0-0.1,0.1c-0.1,0-0.1,0.1-0.2,0.1c0,0-0.1,0.1-0.1,0.2
		c0,0-0.1,0.1-0.1,0.1c0,0,0,0,0,0.1c0,0.1,0,0.1-0.1,0.2c0,0.1,0,0.1,0,0.2c0,0.1,0,0.1,0,0.2c0,0.1,0,0.1,0.1,0.2c0,0,0,0,0,0.1
		c0,0.1,0.1,0.1,0.1,0.2c0,0,0,0,0,0.1c0.1,0.1,0.2,0.2,0.3,0.2c0,0,0,0,0,0l14,7C19.7,29,19.8,29,20,29c0.4,0,0.7-0.2,0.9-0.6
		c0.2-0.5,0-1.1-0.4-1.3L8.2,21l12.2-6.1C20.9,14.6,21.1,14,20.9,13.6z"/>
        <path d="M35.4,6.1c-0.5-0.2-1.1,0.1-1.3,0.6l-11,29c-0.2,0.5,0.1,1.1,0.6,1.3c0.1,0,0.2,0.1,0.4,0.1c0.4,0,0.8-0.2,0.9-0.6l11-29
		C36.1,6.8,35.9,6.3,35.4,6.1z"/>
    </symbol>

    <symbol id="css" viewBox="0 0 62 44">
       <path d="M52,21.2v1.7c-2.8,0-4.2,1.4-4.2,4.2v3.5c0,2-0.5,3.6-1.6,4.8c-1,1.2-2.6,2.1-4.7,2.6L41,36.7c3-0.9,4.5-2.9,4.5-6v-3.6
	c0-2.7,1.2-4.4,3.5-5.1c-2.4-0.7-3.5-2.4-3.5-5.1v-3.4c0-3.4-1.5-5.5-4.5-6.3L41.5,6c2.1,0.5,3.7,1.4,4.7,2.6c1,1.2,1.5,2.8,1.5,4.8
	V17C47.8,19.8,49.2,21.2,52,21.2z M24.5,29c-0.8,0-1.5,0.7-1.5,1.5s0.7,1.5,1.5,1.5s1.5-0.7,1.5-1.5S25.3,29,24.5,29z M30.5,29
	c-0.8,0-1.5,0.7-1.5,1.5s0.7,1.5,1.5,1.5s1.5-0.7,1.5-1.5S31.3,29,30.5,29z M36.5,29c-0.8,0-1.5,0.7-1.5,1.5s0.7,1.5,1.5,1.5
	s1.5-0.7,1.5-1.5S37.3,29,36.5,29z M15.5,30.8v-3.6c0-2.7-1.2-4.4-3.5-5.1c2.4-0.7,3.5-2.4,3.5-5.1v-3.4c0-3.4,1.5-5.5,4.5-6.3
	L19.5,6c-2.1,0.5-3.7,1.4-4.7,2.6c-1,1.2-1.5,2.8-1.5,4.8V17c0,2.8-1.4,4.2-4.2,4.2v1.7c2.8,0,4.2,1.4,4.2,4.2v3.5
	c0,2,0.5,3.6,1.6,4.8c1,1.2,2.6,2.1,4.7,2.6l0.5-1.3C17,35.9,15.5,33.9,15.5,30.8z"/>
    </symbol>

    <symbol id="robots" viewBox="0 0 24 24">
        <path class="st0" d="M22,11v4c0,0.5-0.5,1-1,1s-1-0.5-1-1v-4c0-0.5,0.5-1,1-1S22,10.5,22,11z M3,10c-0.5,0-1,0.5-1,1v4
    c0,0.5,0.5,1,1,1s1-0.5,1-1v-4C4,10.5,3.5,10,3,10z M8,17.7v2.8C8,21.3,8.7,22,9.5,22s1.5-0.7,1.5-1.5v-1.6c0.3,0,0.7,0.1,1,0.1
    s0.7,0,1-0.1v1.6c0,0.8,0.7,1.5,1.5,1.5s1.5-0.7,1.5-1.5v-2.8c1.8-1.3,3-3.4,3-5.7c-5,0-9,0-14,0C5,14.4,6.2,16.5,8,17.7z M19,10
    c-5,0-9,0-14,0c0-3.9,3.1-7,7-7S19,6.1,19,10z M12,7c0-1.1-0.9-2-2-2S8,5.9,8,7c0,1.1,0.9,2,2,2S12,8.1,12,7z M16,7.5
    C16,6.7,15.3,6,14.5,6S13,6.7,13,7.5S13.7,9,14.5,9S16,8.3,16,7.5z"/>
    </symbol>

    <symbol id="importer" viewBox="0 0 62 44">
        <path d="M47,22.5V36c0,0.4-0.1,0.8-0.2,1.2c-0.2,0.4-0.4,0.7-0.6,1s-0.6,0.5-1,0.6C44.8,38.9,44.4,39,44,39H17
	c-0.4,0-0.8-0.1-1.2-0.2c-0.4-0.2-0.7-0.4-1-0.6c-0.3-0.3-0.5-0.6-0.6-1C14.1,36.8,14,36.4,14,36V9c0-0.4,0.1-0.8,0.2-1.2
	c0.2-0.4,0.4-0.7,0.6-1c0.3-0.3,0.6-0.5,1-0.6C16.2,6.1,16.6,6,17,6h13.5c0.6,0,1,0.4,1,1s-0.4,1-1,1H17c-0.1,0-0.3,0-0.4,0.1
	c-0.1,0-0.2,0.1-0.3,0.2c-0.1,0.1-0.2,0.2-0.2,0.3C16,8.7,16,8.9,16,9v27c0,0.1,0,0.3,0.1,0.4c0,0.1,0.1,0.2,0.2,0.3
	c0.1,0.1,0.2,0.2,0.3,0.2C16.7,37,16.9,37,17,37h27c0.1,0,0.3,0,0.4-0.1c0.1-0.1,0.2-0.1,0.3-0.2s0.2-0.2,0.2-0.3
	C45,36.3,45,36.1,45,36V22.5c0-0.6,0.4-1,1-1S47,21.9,47,22.5z M35.6,17.9C35.7,18,35.9,18,36,18h7c0.6,0,1-0.4,1-1s-0.4-1-1-1h-4.6
	l8.3-8.3c0.4-0.4,0.4-1,0-1.4s-1-0.4-1.4,0L37,14.6V10c0-0.6-0.4-1-1-1s-1,0.4-1,1v7c0,0.1,0,0.3,0.1,0.4
	C35.2,17.6,35.4,17.8,35.6,17.9z"/>
    </symbol>

    <symbol id="htaccess" viewBox="0 0 24 24">
        <path class="st0" d="M14,20c0,1.1-0.9,2-2,2s-2-0.9-2-2s0.9-2,2-2S14,18.9,14,20z M12,15c1.1,0,1.3-0.8,1.3-1.8L14,3.8
    c0-1-0.9-1.8-2-1.8s-2,0.8-2,1.8l0.7,9.5C10.7,14.2,10.9,15,12,15z"/>
    </symbol>

    <symbol id="log" viewBox="0 0 62 44">
        <path d="M38,8H19c-1.7,0-3,1.3-3,3v27c0,1.7,1.3,3,3,3h19c1.7,0,3-1.3,3-3V11C41,9.3,39.7,8,38,8z M39,38c0,0.6-0.4,1-1,1H19
	c-0.6,0-1-0.4-1-1V11c0-0.6,0.4-1,1-1h19c0.6,0,1,0.4,1,1V38z M46,5.9V33c0,0.6-0.4,1-1,1s-1-0.4-1-1V5.9C44,5.4,43.6,5,43.2,5H25
	c-0.6,0-1-0.4-1-1s0.4-1,1-1h18.2C44.7,3,46,4.3,46,5.9z M21,17c0-0.6,0.4-1,1-1h8.3c0.6,0,1,0.4,1,1c0,0.6-0.4,1-1,1H22
	C21.4,18,21,17.6,21,17z M35,23c0,0.6-0.4,1-1,1H22c-0.6,0-1-0.4-1-1c0-0.6,0.4-1,1-1h12C34.6,22,35,22.4,35,23z M35,29
	c0,0.6-0.4,1-1,1H22c-0.6,0-1-0.4-1-1c0-0.6,0.4-1,1-1h12C34.6,28,35,28.4,35,29z"/>
    </symbol>

    <symbol id="file-manager" viewBox="0 0 62 44">
        <path d="M49,37H12c-0.2,0-0.4,0-0.6-0.1c-0.2,0-0.4-0.1-0.6-0.2c-0.2-0.1-0.4-0.2-0.5-0.3c-0.2-0.1-0.3-0.2-0.4-0.4
		c-0.1-0.1-0.3-0.3-0.4-0.4c-0.1-0.2-0.2-0.3-0.3-0.5c-0.1-0.2-0.1-0.4-0.2-0.6C9,34.4,9,34.2,9,34V11c0-0.2,0-0.4,0.1-0.6
		c0-0.2,0.1-0.4,0.2-0.6c0.1-0.2,0.2-0.4,0.3-0.5C9.6,9.2,9.7,9,9.9,8.9c0.1-0.1,0.3-0.3,0.4-0.4c0.2-0.1,0.3-0.2,0.5-0.3
		c0.2-0.1,0.4-0.1,0.6-0.2C11.6,8,11.8,8,12,8h13c0.9,0,1.7,0.4,2.3,1.1l3.9,4.6c0.2,0.2,0.5,0.4,0.8,0.4H49c0.2,0,0.4,0,0.6,0.1
		c0.2,0,0.4,0.1,0.6,0.2c0.2,0.1,0.3,0.2,0.5,0.3c0.2,0.1,0.3,0.2,0.4,0.4c0.1,0.1,0.3,0.3,0.4,0.4c0.1,0.2,0.2,0.3,0.3,0.5
		c0.1,0.2,0.1,0.4,0.2,0.6c0,0.2,0.1,0.4,0.1,0.6v17c0,0.2,0,0.4-0.1,0.6c0,0.2-0.1,0.4-0.2,0.6c-0.1,0.2-0.2,0.3-0.3,0.5
		c-0.1,0.2-0.2,0.3-0.4,0.4c-0.1,0.1-0.3,0.3-0.4,0.4c-0.2,0.1-0.3,0.2-0.5,0.3c-0.2,0.1-0.4,0.1-0.6,0.2C49.4,37,49.2,37,49,37z
		 M11,27.2V34c0,0.1,0,0.1,0,0.2c0,0.1,0,0.1,0.1,0.2c0,0.1,0.1,0.1,0.1,0.2c0,0.1,0.1,0.1,0.1,0.1c0,0,0.1,0.1,0.1,0.1
		c0.1,0,0.1,0.1,0.2,0.1c0.1,0,0.1,0,0.2,0.1c0.1,0,0.1,0,0.2,0h37c0.1,0,0.1,0,0.2,0c0.1,0,0.1,0,0.2-0.1c0.1,0,0.1-0.1,0.2-0.1
		c0.1,0,0.1-0.1,0.1-0.1c0.1-0.1,0.1-0.1,0.1-0.1c0-0.1,0.1-0.1,0.1-0.2s0-0.1,0.1-0.2c0-0.1,0-0.1,0-0.2V17c0-0.1,0-0.1,0-0.2
		c0-0.1,0-0.1-0.1-0.2c0-0.1-0.1-0.1-0.1-0.2c0-0.1-0.1-0.1-0.1-0.1c0,0-0.1-0.1-0.2-0.1c-0.1,0-0.1-0.1-0.2-0.1
		c-0.1,0-0.1,0-0.2-0.1c-0.1,0-0.1,0-0.2,0H31.9c-0.9,0-1.7-0.4-2.3-1.1l-3.9-4.6C25.5,10.1,25.2,10,25,10H12c-0.1,0-0.1,0-0.2,0
		c-0.1,0-0.1,0-0.2,0.1c-0.1,0-0.1,0.1-0.2,0.1c-0.1,0-0.1,0.1-0.1,0.1c0,0-0.1,0.1-0.1,0.1c0,0.1-0.1,0.1-0.1,0.2
		c0,0.1,0,0.1-0.1,0.2c0,0.1,0,0.1,0,0.2V27.2z"/>
    </symbol>
        
    <symbol id="add" viewBox="0 0 62 44">
        <path d="M31,3c-10.49,0-19,8.51-19,19s8.51,19,19,19s19-8.51,19-19S41.49,3,31,3z M31,39c-9.37,0-17-7.63-17-17S21.63,5,31,5
	s17,7.63,17,17S40.37,39,31,39z M36.5,22c0,0.55-0.45,1-1,1H32v3.5c0,0.55-0.45,1-1,1s-1-0.45-1-1V23h-3.5c-0.55,0-1-0.45-1-1
	c0-0.55,0.45-1,1-1H30v-3.5c0-0.55,0.45-1,1-1s1,0.45,1,1V21h3.5C36.05,21,36.5,21.45,36.5,22z"/>
    </symbol>   
        
</svg>
