<svg xmlns="http://www.w3.org/2000/svg">

    <!-- Main block editor -->

    <symbol id="add" viewBox="0 0 12 12">
        <path d="M11,5H7V1A1,1,0,0,0,5,1V5H1A1,1,0,0,0,1,7H5v4a1,1,0,0,0,2,0V7h4a1,1,0,0,0,0-2Z"/>
    </symbol>

    <symbol id="headings" viewBox="0 0 10 14">
        <path d="M9,0A1,1,0,0,0,8,1V6H2V1A1,1,0,0,0,0,1V13a1,1,0,0,0,2,0V8H8v5a1,1,0,0,0,2,0V1A1,1,0,0,0,9,0Z" />
    </symbol>

    <symbol id="image" viewBox="0 0 18 14">
        <path d="M15,0H3A3,3,0,0,0,0,3v8a3,3,0,0,0,3,3H15a3,3,0,0,0,3-3V3A3,3,0,0,0,15,0ZM2,11V3A1,1,0,0,1,3,2H15a1,1,0,0,1,1,1V7.38L13.45,6.1h0a1,1,0,0,0-.38-.1h-.24l-.14,0a1,1,0,0,0-.34.19L5.63,12H3A1,1,0,0,1,2,11Zm13,1H8.7l4.45-3.81L16,9.62V11A1,1,0,0,1,15,12ZM5.5,7A1.5,1.5,0,1,1,7,5.5,1.5,1.5,0,0,1,5.5,7Z" />
    </symbol>

    <symbol id="gallery" viewBox="0 0 26 14">
        <path d="M7,5.5A1.5,1.5,0,1,1,5.5,4,1.5,1.5,0,0,1,7,5.5ZM18,3v8a3,3,0,0,1-3,3H3a3,3,0,0,1-3-3V3A3,3,0,0,1,3,0H15A3,3,0,0,1,18,3ZM16,9.62,13.15,8.19,8.7,12H15a1,1,0,0,0,1-1ZM16,3a1,1,0,0,0-1-1H3A1,1,0,0,0,2,3v8a1,1,0,0,0,1,1H5.63l6.72-5.76a1,1,0,0,1,.34-.19l.14,0h.24a1,1,0,0,1,.38.1h0L16,7.38ZM21.3.82a2.53,2.53,0,0,0-.83-.7,1,1,0,1,0-.94,1.76.72.72,0,0,1,.21.19,1.1,1.1,0,0,1,.18.34,1.56,1.56,0,0,1,.08.48v8.22a1.51,1.51,0,0,1-.08.48,1.28,1.28,0,0,1-.18.35.84.84,0,0,1-.21.18,1,1,0,1,0,.94,1.76,2.53,2.53,0,0,0,.83-.7,3.24,3.24,0,0,0,.52-.95A3.55,3.55,0,0,0,22,11.11V2.89a3.55,3.55,0,0,0-.18-1.12A3.24,3.24,0,0,0,21.3.82Zm4.52,1A3.24,3.24,0,0,0,25.3.82a2.53,2.53,0,0,0-.83-.7,1,1,0,0,0-.94,1.76.72.72,0,0,1,.21.19,1.1,1.1,0,0,1,.18.34,1.56,1.56,0,0,1,.08.48v8.22a1.51,1.51,0,0,1-.08.48,1.28,1.28,0,0,1-.18.35.84.84,0,0,1-.21.18,1,1,0,1,0,.94,1.76,2.53,2.53,0,0,0,.83-.7,3.24,3.24,0,0,0,.52-.95A3.55,3.55,0,0,0,26,11.11V2.89A3.55,3.55,0,0,0,25.82,1.77Z" />
    </symbol>

    <symbol id="unordered-list" viewBox="0 0 16 12">
        <path d="M15,0H5A1,1,0,0,0,5,2H15a1,1,0,0,0,0-2ZM1,0A1,1,0,1,0,2,1,1,1,0,0,0,1,0ZM15,5H5A1,1,0,0,0,5,7H15a1,1,0,0,0,0-2ZM1,5A1,1,0,1,0,2,6,1,1,0,0,0,1,5Zm14,5H5a1,1,0,0,0,0,2H15a1,1,0,0,0,0-2ZM1,10a1,1,0,1,0,1,1,1,1,0,0,0-1-1Z" />
    </symbol>

    <symbol id="quote" viewBox="0 0 14 12">
        <path d="M0,2.74A3,3,0,0,1,2.53,0c1.72-.11,2.94,2.16,3.3,3.63C6.67,7,4,9.82,3.8,10.07c-1,1.08-2.56,2.23-3,1.86a.79.79,0,0,1,0-.92c.26-.34,1.57-1,1.83-2.49a4.12,4.12,0,0,0-.74-3C.94,4.15,0,4.39,0,2.74ZM9.92,5.51a4.12,4.12,0,0,1,.74,3C10.4,10,9.09,10.67,8.83,11a.79.79,0,0,0,0,.92c.41.37,1.94-.78,3-1.86.24-.25,2.88-3.11,2-6.44C13.47,2.16,12.25-.11,10.53,0A3,3,0,0,0,8,2.74C8,4.39,8.94,4.15,9.92,5.51Z" />
    </symbol>

    <symbol id="code" viewBox="0 0 14 12">
        <path d="M2.41,6l1.3,1.29a1,1,0,0,1,.21.33A1,1,0,0,1,4,8v2a1,1,0,0,1,0,2H3a1,1,0,0,1-1-1V8.41L.29,6.71a1,1,0,0,1,0-1.42L2,3.59V1A1,1,0,0,1,3,0H4A1,1,0,0,1,4,2V4a1,1,0,0,1-.08.38,1,1,0,0,1-.21.33Zm11.3-.71L12,3.59V1a1,1,0,0,0-1-1H10a1,1,0,0,0,0,2V4a1,1,0,0,0,.08.38,1,1,0,0,0,.21.33L11.59,6l-1.3,1.29a1,1,0,0,0-.21.33A1,1,0,0,0,10,8v2a1,1,0,0,0,0,2h1a1,1,0,0,0,1-1V8.41l1.71-1.7A1,1,0,0,0,13.71,5.29Z" />
    </symbol>


    <symbol id="table" viewBox="0 0 18 14">
        <path d="M15,0H3A3,3,0,0,0,0,3v8a3,3,0,0,0,3,3H15a3,3,0,0,0,3-3V3A3,3,0,0,0,15,0Zm0,2a1,1,0,0,1,1,1V6H10V2ZM2,3A1,1,0,0,1,3,2H8V6H2Zm1,9a1,1,0,0,1-1-1V8H8v4Zm12,0H10V8h6v3A1,1,0,0,1,15,12Z" />
    </symbol>

    <symbol id="html" viewBox="0 0 18 12">
        <path d="M6.71,1.71,2.41,6l4.3,4.31a1,1,0,0,1,0,1.41,1,1,0,0,1-1.42,0l-5-5A1,1,0,0,1,0,6a1,1,0,0,1,.29-.71l5-5A1,1,0,0,1,6.71,1.71Zm11,3.57-5-5a1,1,0,0,0-1.42,1.42L15.59,6l-4.3,4.3a1,1,0,0,0,0,1.42,1,1,0,0,0,1.42,0l5-5a1,1,0,0,0,0-1.42Z" />
    </symbol>

    <symbol id="separator" viewBox="0 0 16 2">
        <path d="M15,2H1A1,1,0,0,1,1,0H15a1,1,0,0,1,0,2Z" />
    </symbol>

    <symbol id="readmore" viewBox="0 0 16 12">
        <path d="M16,4V8a1,1,0,0,1-2,0V7H2V8A1,1,0,0,1,0,8V4A1,1,0,0,1,2,4V5H14V4a1,1,0,0,1,2,0ZM5,2h6a1,1,0,0,0,0-2H5A1,1,0,0,0,5,2Zm6,8H5a1,1,0,0,0,0,2h6a1,1,0,0,0,0-2Z" />
    </symbol>

    <symbol id="video" viewBox="0 0 18 14">
        <path d="M15,0H3A3,3,0,0,0,0,3v8a3,3,0,0,0,3,3H15a3,3,0,0,0,3-3V3A3,3,0,0,0,15,0Zm1,11a1,1,0,0,1-1,1H3a1,1,0,0,1-1-1V3A1,1,0,0,1,3,2H15a1,1,0,0,1,1,1ZM12,7a1,1,0,0,1-.55.89l-4,2A1,1,0,0,1,7,10a1,1,0,0,1-.53-.15A1,1,0,0,1,6,9V5a1,1,0,0,1,1.45-.89l4,2A1,1,0,0,1,12,7Z" />
    </symbol>

    <symbol id="toc" viewBox="0 0 16 12">
        <path d="M15,2H5A1,1,0,0,1,5,0H15a1,1,0,0,1,0,2ZM1,0A1,1,0,1,0,2,1,1,1,0,0,0,1,0ZM15,5H8A1,1,0,0,0,8,7h7a1,1,0,0,0,0-2ZM4,5A1,1,0,1,0,5,6,1,1,0,0,0,4,5Zm11,5H11a1,1,0,0,0,0,2h4a1,1,0,0,0,0-2ZM7,10a1,1,0,1,0,1,1A1,1,0,0,0,7,10Z" />
    </symbol>

    <symbol id="menu" viewBox="0 0 15 3">
        <path d="M13.5,0A1.5,1.5,0,1,0,15,1.5,1.5,1.5,0,0,0,13.5,0Zm-6,0A1.5,1.5,0,1,0,9,1.5,1.5,1.5,0,0,0,7.5,0Zm-6,0A1.5,1.5,0,1,0,3,1.5,1.5,1.5,0,0,0,1.5,0Z" />
    </symbol>

    <symbol id="tab" viewBox="0 0 9 5">
        <path d="M7.4,2.5a.29.29,0,0,1,0,.09.18.18,0,0,1,0,.1l0,.07-.06.09-2,2A.51.51,0,0,1,4.93,5a.52.52,0,0,1-.35-.14.5.5,0,0,1,0-.71L5.71,3H.5a.5.5,0,0,1,0-1H5.71L4.57.85a.5.5,0,0,1,.72-.7l2,2,.06.09a.43.43,0,0,0,0,.07.18.18,0,0,1,0,.1A.29.29,0,0,1,7.4,2.5ZM8.5,0A.5.5,0,0,0,8,.5v4a.5.5,0,0,0,1,0V.5A.5.5,0,0,0,8.5,0Z" />
    </symbol>


    <!-- Inline editor: paragraph -->

    <symbol id="bold" viewBox="0 0 11 13">
        <path d="M5.67,13h-4a1.66,1.66,0,0,1-1.25-.39A1.64,1.64,0,0,1,0,11.39V1.61A1.69,1.69,0,0,1,.38.38,1.75,1.75,0,0,1,1.63,0H5.92A9.74,9.74,0,0,1,7.56.12,3.45,3.45,0,0,1,8.81.56a3.06,3.06,0,0,1,.83.7,3.13,3.13,0,0,1,.55.93,3.17,3.17,0,0,1,.19,1.07,3,3,0,0,1-2,2.86A3.18,3.18,0,0,1,11,9.29a3.52,3.52,0,0,1-.57,2A3.44,3.44,0,0,1,8.9,12.55a6,6,0,0,1-1.4.35A14,14,0,0,1,5.67,13Zm-3-11V5.34H5.14a4.85,4.85,0,0,0,1.55-.19,1.45,1.45,0,0,0,.83-.71,1.57,1.57,0,0,0,.23-.83A1.3,1.3,0,0,0,7,2.3,5.72,5.72,0,0,0,4.86,2ZM5.47,7.23H2.68V11H5.56c1.82,0,2.72-.64,2.72-1.92a1.56,1.56,0,0,0-.7-1.43A4,4,0,0,0,5.47,7.23Z"/>
    </symbol>

    <symbol id="italic" viewBox="0 0 10 13">
        <path d="M10,1A1,1,0,0,1,9,2H8.11l-4,9H5a1,1,0,0,1,0,2H1a1,1,0,0,1,0-2h.89l4-9H5A1,1,0,0,1,5,0H9A1,1,0,0,1,10,1Z" />
    </symbol>

    <symbol id="underline" viewBox="0 0 10 14">
        <path d="M10,1V6.32A4.87,4.87,0,0,1,5,11H4.77A4.84,4.84,0,0,1,0,6.36V1A1,1,0,0,1,2,1V6.32A2.85,2.85,0,0,0,5,9,2.88,2.88,0,0,0,8,6.27V1a1,1,0,0,1,2,0ZM9,12H1a1,1,0,0,0,0,2H9a1,1,0,0,0,0-2Z" />
    </symbol>

    <symbol id="strikethrough" viewBox="0 0 12 14">
        <path d="M12,6.5a.5.5,0,0,1-.5.5H9.45l.14.09a3.52,3.52,0,0,1,.61.61A3.71,3.71,0,0,1,11,10.43,3.75,3.75,0,0,1,9.6,12.91,4.91,4.91,0,0,1,6.5,14a5,5,0,0,1-3.11-1.1A3.79,3.79,0,0,1,2,10a1,1,0,1,1,2,0,1.8,1.8,0,0,0,.66,1.36,2.92,2.92,0,0,0,3.68,0A1.69,1.69,0,0,0,9,10.2a1.72,1.72,0,0,0-.36-1.26,1.48,1.48,0,0,0-.28-.28A3.15,3.15,0,0,0,6.48,8h0A5.16,5.16,0,0,1,3.55,7H.5a.5.5,0,0,1,0-1H2.63A3.69,3.69,0,0,1,2,4,3.8,3.8,0,0,1,3.39,1.1a4.92,4.92,0,0,1,6.21,0A1,1,0,1,1,8.34,2.65a2.92,2.92,0,0,0-3.68,0A1.79,1.79,0,0,0,4,4a1.77,1.77,0,0,0,.66,1.33A3.21,3.21,0,0,0,6.52,6h5A.5.5,0,0,1,12,6.5Z" />
    </symbol>

    <symbol id="link" viewBox="0 0 13 13">
        <path d="M6.23,11.09a1,1,0,0,1-.36,1.37,3.71,3.71,0,0,1-1.42.5,3.31,3.31,0,0,1-.55,0,3.87,3.87,0,0,1-2.35-.8A4,4,0,0,1,.52,11,4,4,0,0,1,0,9.59,3.84,3.84,0,0,1,.12,8.08,4,4,0,0,1,.78,6.66L2.05,5a3.73,3.73,0,0,1,1.16-1,3.71,3.71,0,0,1,1.42-.5,3.63,3.63,0,0,1,1.5.08,3.88,3.88,0,0,1,1.4.68,1,1,0,0,1,.18,1.4,1,1,0,0,1-1.4.19,1.89,1.89,0,0,0-.68-.34,1.74,1.74,0,0,0-.72,0,1.73,1.73,0,0,0-.69.24,2,2,0,0,0-.57.51L2.39,7.85A2,2,0,0,0,2,9.31a2,2,0,0,0,.24.72,1.89,1.89,0,0,0,.51.58,1.72,1.72,0,0,0,.68.33,1.75,1.75,0,0,0,.72,0,1.73,1.73,0,0,0,.69-.24A1,1,0,0,1,6.23,11.09ZM13,3.41A4,4,0,0,0,12.48,2a4,4,0,0,0-1-1.18,3.88,3.88,0,0,0-1.4-.68A3.86,3.86,0,0,0,7.13.54a1,1,0,1,0,1,1.72A1.89,1.89,0,0,1,8.83,2a1.93,1.93,0,0,1,.72,0,1.72,1.72,0,0,1,.68.33,1.89,1.89,0,0,1,.51.58,2,2,0,0,1,.24.71,1.94,1.94,0,0,1,0,.76,1.85,1.85,0,0,1-.33.71L9.35,6.86a2,2,0,0,1-.57.51,1.67,1.67,0,0,1-.69.24,1.74,1.74,0,0,1-.72,0,1.89,1.89,0,0,1-.68-.34A1,1,0,0,0,5.47,8.83a3.88,3.88,0,0,0,1.4.68,3.81,3.81,0,0,0,1,.12,3.31,3.31,0,0,0,.55,0A3.87,3.87,0,0,0,9.79,9.1a3.76,3.76,0,0,0,1.16-1l1.27-1.71a4,4,0,0,0,.66-1.42A3.83,3.83,0,0,0,13,3.41Z" />
    </symbol>

    <symbol id="unlink" viewBox="0 0 15 15">
        <path d="M6.23,13.09a1,1,0,0,1-.36,1.37,3.71,3.71,0,0,1-1.42.5,3.31,3.31,0,0,1-.55,0,3.87,3.87,0,0,1-2.35-.8A4,4,0,0,1,.52,13,4,4,0,0,1,0,11.59a3.84,3.84,0,0,1,.08-1.51A4,4,0,0,1,.78,8.66L2.05,7a3.73,3.73,0,0,1,1.16-1,3.71,3.71,0,0,1,1.42-.5,3.63,3.63,0,0,1,1.5.08,3.88,3.88,0,0,1,1.4.68,1,1,0,0,1,.18,1.4,1,1,0,0,1-1.4.19,1.89,1.89,0,0,0-.68-.34,1.74,1.74,0,0,0-.72,0,1.73,1.73,0,0,0-.69.24,1.82,1.82,0,0,0-.56.51L2.39,9.85A2,2,0,0,0,2,11.31a2,2,0,0,0,.24.72,1.89,1.89,0,0,0,.51.58,1.72,1.72,0,0,0,.68.33,1.75,1.75,0,0,0,.72,0,1.73,1.73,0,0,0,.69-.24A1,1,0,0,1,6.23,13.09ZM14.6,6.33a3.77,3.77,0,0,0-.94-1.2,4.2,4.2,0,0,0-1.29-.75A6,6,0,0,0,9.76,4a1,1,0,0,0-.92,1.07A1,1,0,0,0,9.91,6a4,4,0,0,1,1.74.24,2.53,2.53,0,0,1,.71.39,1.93,1.93,0,0,1,.45.58,1.83,1.83,0,0,1,.19.72,1.86,1.86,0,0,1-.53,1.39,2,2,0,0,1-.64.47A2.21,2.21,0,0,1,11,10l-2.2.13A2.06,2.06,0,0,1,8,10a2,2,0,0,1-.66-.37,2,2,0,0,1-.46-.59,1,1,0,0,0-1.78.9A3.88,3.88,0,0,0,6,11.17a4,4,0,0,0,1.33.76,4.24,4.24,0,0,0,1.32.21H9l2.2-.14a4.07,4.07,0,0,0,1.54-.39,4.14,4.14,0,0,0,1.24-.91A3.88,3.88,0,0,0,15,7.85,3.77,3.77,0,0,0,14.6,6.33ZM4.11,3.45A1,1,0,0,0,5,4a1,1,0,0,0,.45-.1,1,1,0,0,0,.44-1.35l-1-2a1,1,0,1,0-1.78.9Zm3.44.45A1,1,0,0,0,8,4a1,1,0,0,0,.89-.55l1-2A1,1,0,1,0,8.11.55l-1,2A1,1,0,0,0,7.55,3.9Z" />
    </symbol>

    <symbol id="marker" viewBox="0 0 16 13">
        <path d="M15.75,2.36,11,9.59,8.5,7.92,13.21.69a1.52,1.52,0,1,1,2.54,1.67ZM7.39,9.62,7,13l2.93-1.72-1.27-.83ZM4,11H1a1,1,0,0,0,0,2H4a1,1,0,0,0,0-2Z" />
    </symbol>

    <symbol id="align-left" viewBox="0 0 14 12">
        <path d="M0,1A1,1,0,0,1,1,0H13a1,1,0,0,1,0,2H1A1,1,0,0,1,0,1ZM1,7H9A1,1,0,0,0,9,5H1A1,1,0,0,0,1,7Zm12,3H1a1,1,0,0,0,0,2H13a1,1,0,0,0,0-2Z" />
    </symbol>

    <symbol id="align-right" viewBox="0 0 14 12">
        <path d="M14,11a1,1,0,0,1-1,1H1a1,1,0,0,1,0-2H13A1,1,0,0,1,14,11ZM13,5H5A1,1,0,0,0,5,7h8a1,1,0,0,0,0-2ZM1,2H13a1,1,0,0,0,0-2H1A1,1,0,0,0,1,2Z" />
    </symbol>

    <symbol id="align-center" viewBox="0 0 14 12">
        <path d="M0,1A1,1,0,0,1,1,0H13a1,1,0,0,1,0,2H1A1,1,0,0,1,0,1ZM4,5A1,1,0,0,0,4,7h6a1,1,0,0,0,0-2Zm9,5H1a1,1,0,0,0,0,2H13a1,1,0,0,0,0-2Z" />
    </symbol>
    
    <!-- Inline editor: paragraph -->

    <symbol id="paragraph" viewBox="0 0 14 14">
        <path d="M13,0H4.85C1.88.44-.29,2.92,0,5.54A5.35,5.35,0,0,0,4.86,10H5v3a1,1,0,1,0,2,0V2H9V13a1,1,0,0,0,2,0V2h2a1,1,0,0,0,0-2ZM2,5.3C1.82,3.78,3.17,2.33,5,2V8A3.38,3.38,0,0,1,2,5.3Z"/>
    </symbol>


    <!-- Inline editor: headings H1-H6 -->

    <symbol id="h1" viewBox="0 0 16 12">
        <path d="M9,1V11a1,1,0,0,1-2,0V7H2v4a1,1,0,0,1-2,0V1A1,1,0,0,1,2,1V5H7V1A1,1,0,0,1,9,1Zm7-.09a.71.71,0,0,0,0-.2,1.34,1.34,0,0,0-.07-.18s0-.06,0-.08a.23.23,0,0,0-.07-.07,1,1,0,0,0-.14-.15l-.16-.1L15.29.06l-.2,0L15,0l-.09,0a.71.71,0,0,0-.2,0l-.18.07-.08,0-3,2A1,1,0,0,0,12,4a.94.94,0,0,0,.55-.17l1.45-1V11a1,1,0,0,0,2,0V1A.29.29,0,0,0,16,.91Z" />
    </symbol>

    <symbol id="h2" viewBox="0 0 19 12">
        <path d="M9,1V11a1,1,0,0,1-2,0V7H2v4a1,1,0,0,1-2,0V1A1,1,0,0,1,2,1V5H7V1A1,1,0,0,1,9,1Zm9,9H14.12c.39-.43.77-.81,1.13-1.18s.86-.87,1.29-1.36l.29-.33c.91-1,2.16-2.39,1.64-4.34A3.75,3.75,0,0,0,15.71.07,4.19,4.19,0,0,0,11,3.29,1,1,0,1,0,13,3.82,2.22,2.22,0,0,1,15.29,2a1.78,1.78,0,0,1,1.24,1.28c.23.85-.3,1.5-1.18,2.48L15,6.14c-.41.46-.8.86-1.21,1.27a27.69,27.69,0,0,0-2.63,3A1,1,0,0,0,12,12h6a1,1,0,0,0,0-2Z" />
    </symbol>

    <symbol id="h3" viewBox="0 0 20 12">
        <path d="M9,1V11a1,1,0,0,1-2,0V7H2v4a1,1,0,0,1-2,0V1A1,1,0,0,1,2,1V5H7V1A1,1,0,0,1,9,1Zm9,5a3.2,3.2,0,0,0,1-2.06A3.88,3.88,0,0,0,15.32,0,4.11,4.11,0,0,0,11,3.14,1,1,0,0,0,13,3.62,2.1,2.1,0,0,1,15.14,2c.92.08,1.93.87,1.86,1.76A1.51,1.51,0,0,1,15.56,5L15.5,5a.85.85,0,0,0-.17.06,1.24,1.24,0,0,0-.2.1L15,5.26a.86.86,0,0,0-.18.2.2.2,0,0,0,0,.08.91.91,0,0,0-.1.29v.08a1.48,1.48,0,0,0,0,.21.45.45,0,0,0,0,.11.14.14,0,0,1,0,.06,1,1,0,0,0,.14.28l0,0a1.37,1.37,0,0,0,.22.2l.08,0a1.14,1.14,0,0,0,.26.09l.07,0a2,2,0,0,1,.84.31,1.31,1.31,0,0,1,.6.94,1.44,1.44,0,0,1-.5,1.13,2.35,2.35,0,0,1-1.36.63,2,2,0,0,1-1.35-.38A2.22,2.22,0,0,1,13,8.38,1,1,0,0,0,11,8.86a4.2,4.2,0,0,0,1.58,2.36A4,4,0,0,0,15,12a2.11,2.11,0,0,0,.35,0,4.3,4.3,0,0,0,2.55-1.17A3.34,3.34,0,0,0,19,8.06,3.2,3.2,0,0,0,18,6Z" />
    </symbol>

    <symbol id="h4" viewBox="0 0 20 12">
        <path d="M9,1V11a1,1,0,0,1-2,0V7H2v4a1,1,0,0,1-2,0V1A1,1,0,0,1,2,1V5H7V1A1,1,0,0,1,9,1ZM19,8H18V7a1,1,0,0,0-2,0V8H13.8l4.05-6.47A1,1,0,0,0,16.15.47l-5,8s0,0,0,.07a.64.64,0,0,0-.08.19,1.48,1.48,0,0,0,0,.19A.24.24,0,0,0,11,9s0,.07,0,.11a1.42,1.42,0,0,0,0,.2,1.24,1.24,0,0,0,.18.32,1,1,0,0,0,.15.14.6.6,0,0,0,.08.08l.09,0,.1,0A1,1,0,0,0,12,10h4v1a1,1,0,0,0,2,0V10h1a1,1,0,0,0,0-2Z" />
    </symbol>

    <symbol id="h5" viewBox="0 0 18 12">
        <path d="M9,1V11a1,1,0,0,1-2,0V7H2v4a1,1,0,0,1-2,0V1A1,1,0,0,1,2,1V5H7V1A1,1,0,0,1,9,1Zm8.69,5.45a3.93,3.93,0,0,0-.83-1.27,3.85,3.85,0,0,0-3.86-1V2h3a1,1,0,0,0,0-2H12a1,1,0,0,0-1,1V5.88h0a1,1,0,0,0,.3.71h0l.1.07a1,1,0,0,0,.22.14.88.88,0,0,0,.27.06l.11,0h0a1.07,1.07,0,0,0,.7-.3h0a1.88,1.88,0,0,1,.61-.43,1.9,1.9,0,0,1,1.48,0,2,2,0,0,1,1,1.06A2.13,2.13,0,0,1,16,8a2,2,0,0,1-.16.79,1.85,1.85,0,0,1-.41.63,2,2,0,0,1-.62.43,1.9,1.9,0,0,1-1.48,0,1.88,1.88,0,0,1-.61-.43,1,1,0,0,0-1.44,1.4,3.83,3.83,0,0,0,1.25.86,3.87,3.87,0,0,0,3.08,0,3.83,3.83,0,0,0,1.25-.86A4.09,4.09,0,0,0,18,8,3.9,3.9,0,0,0,17.69,6.45Z" />
    </symbol>

    <symbol id="h6" viewBox="0 0 18 12">
        <path d="M9,1V11a1,1,0,0,1-2,0V7H2v4a1,1,0,0,1-2,0V1A1,1,0,0,1,2,1V5H7V1A1,1,0,0,1,9,1Zm9,7a4,4,0,1,1-8,0,4,4,0,0,1,.62-2.12v0l3-5.35a1,1,0,0,1,1.75,1L13.93,4A3.93,3.93,0,0,1,18,8ZM16,8a2,2,0,1,0-3.41,1.41,2,2,0,0,0,2.82,0A2,2,0,0,0,16,8Z" />
    </symbol>


    <!-- Inline editor: lists -->

    <symbol id="ordered-list" viewBox="0 0 17 14">
        <path d="M5,2A1,1,0,0,1,6,1H16a1,1,0,0,1,0,2H6A1,1,0,0,1,5,2ZM16,6H6A1,1,0,0,0,6,8H16a1,1,0,0,0,0-2Zm0,5H6a1,1,0,0,0,0,2H16a1,1,0,0,0,0-2ZM2,3.2H1.33V0H0V.8H.67V3.2H0V4H2ZM0,9H3V8.2H.75V7.4H0ZM2.25,6.6H3V5.8H2.25Zm-1.5.8h1.5V6.6H.75ZM0,5v.8H2.25V5Zm0,9H2.25v-.8H0Zm3-.8v-.8H2.25v.8ZM.75,12.4h1.5v-.8H.75ZM0,10v.8H2.25V10Zm2.25,1.6H3v-.8H2.25Z" />
    </symbol>

    <symbol id="nesting" viewBox="0 0 17 12">
        <path d="M4,1A1,1,0,0,1,5,0H9A1,1,0,0,1,9,2H5A1,1,0,0,1,4,1Zm5,9H5a1,1,0,0,0,0,2H9a1,1,0,0,0,0-2ZM1,0A1,1,0,1,0,2,1,1,1,0,0,0,1,0ZM1,5A1,1,0,1,0,2,6,1,1,0,0,0,1,5Zm0,5a1,1,0,1,0,1,1A1,1,0,0,0,1,10ZM16.71,5.29l-3-3a1,1,0,0,0-1.42,1.42L13.59,5H5A1,1,0,0,0,5,7h8.59l-1.3,1.29a1,1,0,0,0,0,1.42,1,1,0,0,0,1.42,0l3-3A1,1,0,0,0,16.71,5.29Z" />
    </symbol>

    <symbol id="flattening" viewBox="0 0 17 12">
        <path d="M12,2H8A1,1,0,0,1,8,0h4a1,1,0,0,1,0,2ZM7,11a1,1,0,0,0,1,1h4a1,1,0,0,0,0-2H8A1,1,0,0,0,7,11ZM15,1a1,1,0,1,0,1-1A1,1,0,0,0,15,1Zm0,5a1,1,0,1,0,1-1A1,1,0,0,0,15,6Zm0,5a1,1,0,1,0,1-1A1,1,0,0,0,15,11ZM.29,6.71l3,3a1,1,0,0,0,1.42,0,1,1,0,0,0,0-1.42L3.41,7H12a1,1,0,0,0,0-2H3.41l1.3-1.29A1,1,0,0,0,3.29,2.29l-3,3A1,1,0,0,0,.29,6.71Z" />
    </symbol>


    <!-- Inline editor: separators -->

    <symbol id="long-line" viewBox="0 0 20 2">
        <path d="M23,0H1A1,1,0,0,0,1,2H23a1,1,0,0,0,0-2Z" />
    </symbol>

    <symbol id="shorter-line" viewBox="0 0 16 2">
        <path d="M15,0H1A1,1,0,0,0,1,2H15a1,1,0,0,0,0-2Z" />
    </symbol>

    <symbol id="short-line" viewBox="0 0 8 2">
        <path d="M7,0H1A1,1,0,0,0,1,2H7A1,1,0,0,0,7,0Z" />
    </symbol>

    <symbol id="dotted-line" viewBox="0 0 15 3">
        <path d="M13.5,0A1.5,1.5,0,1,0,15,1.5,1.5,1.5,0,0,0,13.5,0Zm-6,0A1.5,1.5,0,1,0,9,1.5,1.5,1.5,0,0,0,7.5,0Zm-6,0A1.5,1.5,0,1,0,3,1.5,1.5,1.5,0,0,0,1.5,0Z" />
    </symbol>

    <symbol id="dot" viewBox="0 0 3 3">
        <path d="M1.5,0A1.5,1.5,0,1,0,3,1.5,1.5,1.5,0,0,0,1.5,0Z" />
    </symbol>


    <!-- Inline editor: image, video, embed -->
    
    <symbol id="preview" viewBox="0 0 19 12">
        <path d="M19,6l-.3.5A14.93,14.93,0,0,1,15,10.3L12.7,8a4.55,4.55,0,0,0,.5-2A3.88,3.88,0,0,0,9.4,2.1,3.82,3.82,0,0,0,5.6,6,3.82,3.82,0,0,0,9.4,9.9,3.41,3.41,0,0,0,11.8,9l1.9,1.9A8.77,8.77,0,0,1,9.5,12C6,12,2.8,10,.3,6.5L0,6l.3-.5C2.8,2,6,0,9.5,0s6.7,2,9.2,5.5ZM7.5,6a2,2,0,1,0,2-2A2,2,0,0,0,7.5,6Z"/>
    </symbol>

    <symbol id="left" viewBox="0 0 14 13">
        <path d="M0,1A1,1,0,0,1,1,0H13a1,1,0,0,1,0,2H1A1,1,0,0,1,0,1ZM1,9H6A1,1,0,0,0,7,8V5A1,1,0,0,0,6,4H1A1,1,0,0,0,0,5V8A1,1,0,0,0,1,9ZM13,4H12a1,1,0,0,0,0,2h1a1,1,0,0,0,0-2Zm0,3H12a1,1,0,0,0,0,2h1a1,1,0,0,0,0-2Zm0,4H1a1,1,0,0,0,0,2H13a1,1,0,0,0,0-2Z" />
    </symbol>

    <symbol id="center" viewBox="0 0 14 13">
        <path d="M0,1A1,1,0,0,1,1,0H13a1,1,0,0,1,0,2H1A1,1,0,0,1,0,1ZM3,4A1,1,0,0,0,2,5V8A1,1,0,0,0,3,9h8a1,1,0,0,0,1-1V5a1,1,0,0,0-1-1Zm10,7H1a1,1,0,0,0,0,2H13a1,1,0,0,0,0-2Z" />
    </symbol>

    <symbol id="right" viewBox="0 0 14 13">
        <path d="M13,2H1A1,1,0,0,1,1,0H13a1,1,0,0,1,0,2Zm1,6V5a1,1,0,0,0-1-1H8A1,1,0,0,0,7,5V8A1,1,0,0,0,8,9h5A1,1,0,0,0,14,8ZM0,5A1,1,0,0,0,1,6H2A1,1,0,0,0,2,4H1A1,1,0,0,0,0,5ZM0,8A1,1,0,0,0,1,9H2A1,1,0,0,0,2,7H1A1,1,0,0,0,0,8Zm0,4a1,1,0,0,0,1,1H13a1,1,0,0,0,0-2H1A1,1,0,0,0,0,12Z" />
    </symbol>

    <symbol id="wide" viewBox="0 0 14 13">
        <path d="M2,1A1,1,0,0,1,3,0h8a1,1,0,0,1,0,2H3A1,1,0,0,1,2,1ZM13,4H1A1,1,0,0,0,0,5V8A1,1,0,0,0,1,9H13a1,1,0,0,0,1-1V5A1,1,0,0,0,13,4Zm-2,7H3a1,1,0,0,0,0,2h8a1,1,0,0,0,0-2Z" />
    </symbol>

    <symbol id="full" viewBox="0 0 14 13">
        <path d="M14,1V8a1,1,0,0,1-1,1H1A1,1,0,0,1,0,8V1A1,1,0,0,1,1,0H13A1,1,0,0,1,14,1ZM11,11H3a1,1,0,0,0,0,2h8a1,1,0,0,0,0-2Z" />
    </symbol>
    
    <symbol id="blank-image"  viewBox="0 0 180 148"><path d="M141,123.74a1,1,0,0,1-.21-2,5,5,0,0,0,3.85-5.94,1,1,0,0,1,2-.42,7,7,0,0,1-5.4,8.32A.69.69,0,0,1,141,123.74ZM44.63,144.28l12.07-2.57a1,1,0,1,0-.41-2l-12.08,2.57a1,1,0,0,0,.21,2Zm24.15-5.14,12.07-2.57a1,1,0,0,0-.42-2l-12.07,2.57a1,1,0,0,0,.21,2ZM92.92,134,105,131.42a1,1,0,1,0-.42-2L92.51,132a1,1,0,0,0,.2,2Zm24.15-5.14,12.07-2.57a1,1,0,0,0-.41-2l-12.08,2.57a1,1,0,0,0,.21,2A.76.76,0,0,0,117.07,128.85Zm-84.51,18a1,1,0,0,0-.42-2A5,5,0,0,1,26.21,141l-2,.42A7,7,0,0,0,31.1,147,7.31,7.31,0,0,0,32.56,146.85Zm-9.69-16.73a1,1,0,0,0,.77-1.19l-2.57-12.09a1,1,0,0,0-1.18-.77,1,1,0,0,0-.77,1.19l2.56,12.09a1,1,0,0,0,1,.79A.75.75,0,0,0,22.87,130.12Zm-5.13-24.18a1,1,0,0,0,.77-1.19l-2.57-12.1a1,1,0,0,0-1.18-.77A1,1,0,0,0,14,93.07l2.57,12.09a1,1,0,0,0,1,.8ZM12.61,81.75a1,1,0,0,0,.77-1.19L10.81,68.47a1,1,0,1,0-2,.42L11.42,81a1,1,0,0,0,1,.79A.75.75,0,0,0,12.61,81.75ZM7.47,57.57a1,1,0,0,0,.77-1.19L5.68,44.28a1,1,0,1,0-2,.42L6.29,56.79a1,1,0,0,0,1,.8ZM2.34,33.38a1,1,0,0,0,.77-1.19A5,5,0,0,1,7,26.25a1,1,0,0,0-.42-2,7,7,0,0,0-5.4,8.32,1,1,0,0,0,1,.79A.75.75,0,0,0,2.34,33.38ZM19,23.68l12.07-2.57a1,1,0,0,0,.77-1.19,1,1,0,0,0-1.18-.77L18.62,21.72a1,1,0,0,0,.21,2Zm24.14-5.14L55.26,16a1,1,0,0,0-.42-2L42.77,16.58a1,1,0,0,0,.21,2ZM67.33,13.4,79.4,10.83a1,1,0,0,0,.77-1.19A1,1,0,0,0,79,8.87L66.91,11.44a1,1,0,0,0,.21,2ZM91.48,8.26l12.07-2.57a1,1,0,1,0-.42-2L91.06,6.3a1,1,0,0,0-.77,1.18,1,1,0,0,0,1,.8Zm31.26-.51a1,1,0,0,0,.78-1.19,7,7,0,0,0-8.31-5.41,1,1,0,0,0,.41,2A5,5,0,0,1,121.56,7a1,1,0,0,0,1,.79Zm20.53,96.74a1,1,0,0,0,.78-1.19l-2.57-12.09a1,1,0,1,0-2,.41l2.57,12.09a1,1,0,0,0,1,.8ZM138.14,80.3a1,1,0,0,0,.77-1.19L136.35,67a1,1,0,1,0-2,.42L137,79.53a1,1,0,0,0,1,.79A.75.75,0,0,0,138.14,80.3ZM133,56.12a1,1,0,0,0,.77-1.19l-2.57-12.09a1,1,0,1,0-2,.41l2.56,12.1a1,1,0,0,0,1,.79Zm-5.13-24.19a1,1,0,0,0,.77-1.19l-2.57-12.09a1,1,0,0,0-2,.42l2.57,12.09a1,1,0,0,0,1,.79A.75.75,0,0,0,127.88,31.93ZM55.79,111.67,105.71,101a7.52,7.52,0,0,0,5.78-8.91l-10.61-50A7.5,7.5,0,0,0,92,36.33L42.05,47a7.53,7.53,0,0,0-5.78,8.92l10.61,50a7.54,7.54,0,0,0,7.33,6A7.79,7.79,0,0,0,55.79,111.67ZM96,39.9a4.49,4.49,0,0,1,2,2.85l10.62,50a4.52,4.52,0,0,1-3.47,5.35L55.16,108.73a4.5,4.5,0,0,1-5.34-3.48l-10.61-50a4.52,4.52,0,0,1,3.47-5.35L92.6,39.27a4.38,4.38,0,0,1,1-.1A4.47,4.47,0,0,1,96,39.9Zm3.7,46.25c-1.94-4.9-8.2-11.82-11.82-11.79-2,0-5,4.39-7.11,8.83-4.87-6-11.72-12.45-15.69-12.4-4.32.06-11.72,14.79-10.66,23.42.27,2.23,1.56,4.11,3.8,3.62l25.34-5.39h0l14.77-3.15C99.76,89,100.23,87.5,99.69,86.15Zm-13.15-31a7,7,0,1,0,8.31,5.39A7,7,0,0,0,86.54,55.15Zm74.13,54.7a7.06,7.06,0,0,0,3.05-4.6,1,1,0,0,0-.79-1.13,1,1,0,0,0-1.18.82,5.09,5.09,0,0,1-6,4,1,1,0,0,0-.41,2,7.21,7.21,0,0,0,1.45.15A7,7,0,0,0,160.67,109.85Zm5.21-15.35L168,84.06a1,1,0,1,0-2-.39l-2.1,10.44a1,1,0,0,0,.78,1.18l.2,0A1,1,0,0,0,165.88,94.5Zm4.2-20.88,2.09-10.44a1,1,0,1,0-2-.39l-2.1,10.44a1,1,0,0,0,.79,1.18l.2,0A1,1,0,0,0,170.08,73.62Zm4.19-20.88,2.1-10.44a1,1,0,0,0-.79-1.18,1,1,0,0,0-1.18.79l-2.09,10.44a1,1,0,0,0,.78,1.18l.2,0A1,1,0,0,0,174.27,52.74Zm4.59-22.86a7.17,7.17,0,0,0-5.56-8.41,1,1,0,0,0-1.18.78,1,1,0,0,0,.78,1.18,5.17,5.17,0,0,1,4,6.06l0,.08a1,1,0,0,0,.8,1.14l.18,0A1.05,1.05,0,0,0,178.86,29.88Zm-15.37-9.42a1,1,0,0,0-.78-1.19L152.3,17.12a1,1,0,0,0-1.19.78,1,1,0,0,0,.78,1.18l10.41,2.16.21,0A1,1,0,0,0,163.49,20.46Zm-20.83-4.31a1,1,0,0,0-.78-1.18l-10.41-2.16a1,1,0,0,0-.4,2l10.41,2.15.2,0A1,1,0,0,0,142.66,16.15Z"/>
    </symbol>
    
    <symbol id="blank-gallery" viewBox="0 0 280 148"><path d="M87.81,74.36c-2,0-5,4.39-7.11,8.83C75.84,77.24,69,70.74,65,70.79c-4.33.06-11.71,14.79-10.66,23.42.28,2.23,1.57,4.11,3.8,3.62l25.32-5.39h0l14.76-3.15c1.44-.3,1.91-1.79,1.37-3.14C97.68,81.25,91.43,74.33,87.81,74.36Zm1.26-5.66a7,7,0,1,0-8.31-5.4A7,7,0,0,0,89.07,68.7ZM176,73.64a7,7,0,1,0-5.38-8.31A7,7,0,0,0,176,73.64Zm-3.44,4.65c-1.8-.78-6.38,2-10.1,5.18-2-7.41-5.62-16.13-9.27-17.69-1.19-.52-3.19.09-5.45,1.39.35.3,3.35,24.3,3.75,23.76,0,0,9.76,2.12,9.76,2.12h0L176,96.18a2.17,2.17,0,0,0,2.52-2.31C178.77,88.6,175.87,79.73,172.56,78.29ZM274.87,64.82A5.16,5.16,0,0,1,276.05,72l-.05.06a1,1,0,0,0,.27,1.36.51.51,0,0,0,.16.09,1,1,0,0,0,1.25-.36,7.17,7.17,0,0,0-1.64-10,1,1,0,1,0-1.17,1.63Zm-29.41,52a1,1,0,0,0-1.4.24l-6.16,8.68a1,1,0,0,0,.23,1.4l.18.1a1,1,0,0,0,1.22-.34l6.16-8.68A1,1,0,0,0,245.46,116.82Zm24.89-33.35a1,1,0,0,0-.24-1.4,1,1,0,0,0-1.39.24L262.56,91a1,1,0,0,0,.23,1.39.75.75,0,0,0,.17.1,1,1,0,0,0,1.23-.33ZM111.41,92.13a7.52,7.52,0,0,1-5.77,8.91L55.75,111.67a7.72,7.72,0,0,1-1.58.17,7.52,7.52,0,0,1-7.32-6l-10.6-50A7.52,7.52,0,0,1,42,47L91.91,36.33a7.5,7.5,0,0,1,8.9,5.79Zm-2.93.62-10.6-50a4.5,4.5,0,0,0-2-2.85,4.44,4.44,0,0,0-2.44-.73,4.29,4.29,0,0,0-.94.1L42.65,49.9a4.52,4.52,0,0,0-3.47,5.35l10.61,50a4.49,4.49,0,0,0,2,2.85,4.44,4.44,0,0,0,3.38.63L105,98.1A4.52,4.52,0,0,0,108.48,92.75Zm124.43,41.73a1,1,0,0,0-1.41.28,5.08,5.08,0,0,1-7.1,1.19,1,1,0,1,0-1.17,1.63,6.6,6.6,0,0,0,1.26.72,7,7,0,0,0,4,.51,7.14,7.14,0,0,0,4.66-3A1,1,0,0,0,232.91,134.48Zm17.09-90-8.63-6.19a1,1,0,0,0-1.17,1.63l8.63,6.19.18.11a1,1,0,0,0,1-1.74Zm16.27,14.13a1,1,0,0,0,1-1.73l-8.63-6.2a1,1,0,1,0-1.17,1.63l8.63,6.2Zm-8.48,40.83a1,1,0,0,0-1.4.23l-6.16,8.69a1,1,0,0,0,.23,1.4l.17.1a1,1,0,0,0,1.23-.34l6.16-8.69A1,1,0,0,0,257.79,99.45Zm-61.27-51a7.45,7.45,0,0,0-4.73-3.25L141.88,34.66l-.56-.09a15.37,15.37,0,0,0,.93,3.24l48.91,10.35a4.51,4.51,0,0,1,.9.29,4.49,4.49,0,0,1,2.56,5l-10.67,50a4.52,4.52,0,0,1-5.34,3.48l-22.85-4.83c.07.29.16.57.26.86.28.81.61,1.62.86,2.45l21.1,4.46a7.52,7.52,0,0,0,8.9-5.8l10.67-50A7.45,7.45,0,0,0,196.52,48.47ZM80.38,134.6l-12.07,2.57a1,1,0,0,0,.21,2l.21,0,12.06-2.57a1,1,0,0,0-.41-2ZM31.09,21.11,19,23.68l-.21,0a1,1,0,0,1-.21-2l12.06-2.57a1,1,0,1,1,.42,2Zm-10,95.73a1,1,0,0,0-1.19-.77,1,1,0,0,0-.77,1.19l2.57,12.09a1,1,0,0,0,1,.79.78.78,0,0,0,.21,0,1,1,0,0,0,.77-1.19Zm11.06,28A5,5,0,0,1,26.19,141l-2,.42A7,7,0,0,0,31.08,147a7.31,7.31,0,0,0,1.46-.15,1,1,0,0,0-.42-2ZM15.93,92.65a1,1,0,1,0-1.95.42l2.56,12.09a1,1,0,0,0,1,.8l.21,0a1,1,0,0,0,.77-1.19ZM10.8,68.47a1,1,0,0,0-1.18-.77,1,1,0,0,0-.77,1.19L11.41,81a1,1,0,0,0,1,.79.75.75,0,0,0,.21,0,1,1,0,0,0,.77-1.19Zm93.71,61L92.44,132a1,1,0,0,0,.21,2l.21,0,12.06-2.57a1,1,0,0,0-.41-2ZM5.67,44.28a1,1,0,0,0-1.18-.77,1,1,0,0,0-.77,1.19L6.28,56.79a1,1,0,0,0,1,.8l.21,0a1,1,0,0,0,.77-1.19Zm50.58,95.46-12.07,2.57a1,1,0,0,0,.21,2l.21,0,12.07-2.57a1,1,0,0,0-.42-2ZM7,26.25a1,1,0,0,0,.77-1.19,1,1,0,0,0-1.18-.77,7,7,0,0,0-5.4,8.32,1,1,0,0,0,1,.79.75.75,0,0,0,.21,0,1,1,0,0,0,.77-1.19A5,5,0,0,1,7,26.25ZM67.08,13.42l.2,0,12.07-2.57a1,1,0,1,0-.42-2L66.87,11.44a1,1,0,0,0,.21,2ZM43,18.56l.2,0L55.22,16a1,1,0,1,0-.42-2L42.74,16.58a1,1,0,0,0,.21,2ZM91.2,8.28l.21,0,12.07-2.57a1,1,0,0,0,.77-1.19,1,1,0,0,0-1.19-.77L91,6.3a1,1,0,0,0,.2,2Zm39.92,34.56a1,1,0,1,0-2,.41l2.56,12.1a1,1,0,0,0,1,.79l.21,0a1,1,0,0,0,.77-1.19Zm5,24.23a1,1,0,1,0-2,.42l2.56,12.09a1,1,0,0,0,1,.8.76.76,0,0,0,.21,0,1,1,0,0,0,.77-1.19ZM126.6,31.16a1,1,0,0,0,1,.79.75.75,0,0,0,.21,0,1,1,0,0,0,.77-1.19L126,18.65a1,1,0,1,0-1.95.42Zm2,93.16-12.07,2.57a1,1,0,0,0,.21,2,.76.76,0,0,0,.21,0l12.06-2.57a1,1,0,0,0-.41-2Zm17.87-8.93a1,1,0,1,0-2,.42,5,5,0,0,1-3.85,5.94,1,1,0,0,0,.21,2,.76.76,0,0,0,.21,0A7,7,0,0,0,146.51,115.39Zm-31-112.27A5,5,0,0,1,121.47,7a1,1,0,0,0,1,.79l.21,0a1,1,0,0,0,.77-1.19,7,7,0,0,0-8.3-5.41,1,1,0,0,0,.41,2Zm25.73,88.6a1,1,0,0,0-2,.41l2.56,12.1a1,1,0,0,0,1,.79l.21,0a1,1,0,0,0,.77-1.19Zm1.34-87.06a1,1,0,1,1-.42,2S136,5.35,136,5.32a1,1,0,0,1,.61-1.9M165.24,135.5l-12.07-2.56a1,1,0,0,0-.62,1.89l.2.07,12.07,2.56a1,1,0,1,0,.42-2ZM178.19,14.25a.66.66,0,0,0,.2.06l12.07,2.57a1,1,0,0,0,1.18-.78,1,1,0,0,0-.77-1.18l-12.06-2.57a1,1,0,0,0-.62,1.9ZM154.06,9.12a.66.66,0,0,0,.2.06l12.07,2.57a1,1,0,0,0,.41-2L154.68,7.22a1,1,0,0,0-.62,1.9Zm48.26,10.26a1.52,1.52,0,0,0,.2.06L214.59,22a1,1,0,0,0,1.19-.77A1,1,0,0,0,215,20l-12.07-2.56a1,1,0,0,0-.62,1.9ZM224.75,67.2a1,1,0,0,0-2-.42l-2.57,12.09a1,1,0,0,0,.57,1.13.66.66,0,0,0,.2.06,1,1,0,0,0,1.19-.77Zm-5.29,24.17a1,1,0,1,0-2-.41l-2.57,12.09a1,1,0,0,0,.57,1.12l.2.07a1,1,0,0,0,1.18-.78Zm5.9-36.68a1,1,0,0,0,.57,1.13,1.52,1.52,0,0,0,.2.06,1,1,0,0,0,1.19-.77L229.89,43a1,1,0,0,0-2-.42Zm-36,85.94-12.07-2.57a1,1,0,0,0-1.18.78,1,1,0,0,0,.57,1.12l.2.07L189,142.59a1,1,0,0,0,.42-2Zm20-.88a1,1,0,0,0-.77-1.19,1,1,0,0,0-1.19.77,5,5,0,0,1-5.94,3.86,1,1,0,0,0-1.18.77,1,1,0,0,0,.57,1.13.66.66,0,0,0,.2.06A7,7,0,0,0,209.33,139.75ZM226.66,24.57a5,5,0,0,1,3.84,5.94,1,1,0,0,0,.58,1.12l.19.07a1,1,0,0,0,1.19-.77,7,7,0,0,0-5.39-8.32,1,1,0,0,0-.41,2ZM214.16,116a1,1,0,0,0-2-.42l-2.57,12.09a1,1,0,0,0,.57,1.13,1.52,1.52,0,0,0,.2.06,1,1,0,0,0,1.19-.77Z"/>
    </symbol>
    
     <symbol id="eraser" viewBox="0 0 14 14">
         <path d="M13.43,3.94l-3.37-3.37c-0.76-0.76-2-0.76-2.76,0L0.57,7.3c-0.76,0.76-0.76,2,0,2.76l3.37,3.37c0,0,0,0,0,0
	C4.32,13.81,4.82,14,5.32,14c0.5,0,1-0.19,1.38-0.57l6.73-6.73C14.19,5.94,14.19,4.7,13.43,3.94z M6.64,11.73
	c-0.37,0.36-0.96,0.36-1.32,0L2.27,8.69c-0.37-0.37-0.37-0.96,0-1.32L3.64,6L8,10.36L6.64,11.73z"/>
    </symbol>
    
    
    <!-- Inline editor: advanced options menu -->

    <symbol id="enter" viewBox="0 0 11 13">
        <path d="M11,1V8a1,1,0,0,1-1,1H3.41l2.3,2.29a1,1,0,0,1,0,1.42,1,1,0,0,1-1.42,0l-4-4a1,1,0,0,1,0-1.42l4-4A1,1,0,0,1,5.71,4.71L3.41,7H9V1a1,1,0,0,1,2,0Z"/>
    </symbol>

    <symbol id="down" viewBox="0 0 10 6">
         <path d="M.29,1.71l4,4a1,1,0,0,0,1.42,0l4-4a1,1,0,0,0,0-1.42,1,1,0,0,0-1.42,0L5,3.59,1.71.29A1,1,0,0,0,.29.29,1,1,0,0,0,.29,1.71Z" />       
    </symbol>

    <symbol id="up" viewBox="0 0 10 6">
        <path d="M9.71,4.29l-4-4a1,1,0,0,0-1.42,0l-4,4a1,1,0,0,0,0,1.42,1,1,0,0,0,1.42,0L5,2.41l3.29,3.3a1,1,0,0,0,1.42,0A1,1,0,0,0,9.71,4.29Z" />
    </symbol>

    <symbol id="trash" viewBox="0 0 11 12">
       <path d="M10,4.73v5.88A1.59,1.59,0,0,1,8.28,12H2.72A1.59,1.59,0,0,1,1,10.61V4.73A.83.83,0,0,1,1.9,4H9.1A.84.84,0,0,1,10,4.73ZM10,1H8A1,1,0,0,0,7,0H4A1,1,0,0,0,3,1H1A1,1,0,0,0,1,3h9a1,1,0,0,0,0-2Z"/>
    </symbol>
    
    <symbol id="open-trash" viewBox="0 0 11 14">
     <path d="M11,6.73v5.88A1.59,1.59,0,0,1,9.28,14H3.72A1.59,1.59,0,0,1,2,12.61V6.73A.83.83,0,0,1,2.9,6h7.2A.84.84,0,0,1,11,6.73ZM10.93.62A1.09,1.09,0,0,0,9.57.06l-2,.69A1.29,1.29,0,0,0,6.11.06l-3,1a1,1,0,0,0-.49,1.37l-2,.69A.93.93,0,0,0,.07,4.38a1.09,1.09,0,0,0,1.36.56l8.89-3.08A.93.93,0,0,0,10.93.62Z" transform="translate(-1 0)"  />
    </symbol>

    <symbol id="gear" viewBox="0 0 13 13">
       <path d="M11.92,6.5A1.68,1.68,0,0,1,13,4.94,6.31,6.31,0,0,0,12.19,3a1.76,1.76,0,0,1-.68.14,1.65,1.65,0,0,1-1.18-.49A1.68,1.68,0,0,1,10,.8,6.66,6.66,0,0,0,8.06,0,1.67,1.67,0,0,1,6.5,1.07,1.67,1.67,0,0,1,4.94,0,6.73,6.73,0,0,0,3,.8a1.68,1.68,0,0,1-.35,1.86,1.65,1.65,0,0,1-1.18.49A1.76,1.76,0,0,1,.8,3,6.84,6.84,0,0,0,0,4.94,1.67,1.67,0,0,1,1.07,6.5,1.67,1.67,0,0,1,0,8.06,6.31,6.31,0,0,0,.81,10a1.71,1.71,0,0,1,.67-.14,1.69,1.69,0,0,1,1.18.49A1.66,1.66,0,0,1,3,12.2a6.84,6.84,0,0,0,1.93.8,1.67,1.67,0,0,1,3.12,0A6.73,6.73,0,0,0,10,12.2a1.68,1.68,0,0,1,1.53-2.35,1.76,1.76,0,0,1,.68.14A6.84,6.84,0,0,0,13,8.06,1.67,1.67,0,0,1,11.92,6.5ZM6.53,9.2A2.71,2.71,0,1,1,9.24,6.49,2.71,2.71,0,0,1,6.53,9.2Z"/>
    </symbol>
    
    <symbol id="duplicate" viewBox="0 0 14 14">
       <path d="M10,6v6c0,1.1-0.9,2-2,2H2c-1.1,0-2-0.9-2-2V6c0-1.1,0.9-2,2-2h6C9.1,4,10,4.9,10,6z M12,0H6C4.9,0,4,0.9,4,2h2
	h6v6v2c1.1,0,2-0.9,2-2V2C14,0.9,13.1,0,12,0z"/>
    </symbol>
    
    <symbol id="cancel" viewBox="0 0 13 13">
       <path d="M7.91,6.5l4.8-4.79A1,1,0,1,0,11.29.29L6.5,5.09,1.71.29A1,1,0,0,0,.29,1.71L5.09,6.5.29,11.29a1,1,0,0,0,0,1.42,1,1,0,0,0,1.42,0L6.5,7.91l4.79,4.8a1,1,0,0,0,1.42,0,1,1,0,0,0,0-1.42Z"/>
    </symbol>
    
    <symbol id="save" viewBox="0 0 19 15">
       <path d="M18.65,1.24a1,1,0,0,0-1.41.11L6.74,13.66,1.57,10a1,1,0,0,0-1.39.25,1,1,0,0,0,.25,1.39l5.91,4.14.14.08.12,0a.81.81,0,0,0,.27.05h0a1.13,1.13,0,0,0,.44-.1l.13-.08a1,1,0,0,0,.19-.17l11.09-13A1,1,0,0,0,18.65,1.24Z" transform="translate(0 -1)"/>
    </symbol>   
    
    <symbol id="undo" viewBox="0 0 13 16">
       <path d="M12.86,8A6.61,6.61,0,0,0,6,3V0L0,5.49,6,11V8c1.14-.36,4.27.57,4.9,2,.83,1.89-.59,5.12-3.93,6A6.87,6.87,0,0,0,12.86,8Z"/>
    </symbol> 
</svg>
