<svg xmlns="http://www.w3.org/2000/svg">

    <!-- Main block editor -->

    <symbol id="menu-dots" viewBox="0 0 24 24" fill="none" stroke="currentColor" stroke-width="2" stroke-linecap="round" stroke-linejoin="round"><circle cx="8" cy="12" r="1"></circle><circle cx="8" cy="4" r="1"></circle><circle cx="8" cy="20" r="1"></circle><circle cx="16" cy="12" r="1"></circle><circle cx="16" cy="4" r="1"></circle><circle cx="16" cy="20" r="1"></circle>
    </symbol>

    <symbol id="add" viewBox="0 0 24 24" fill="none" stroke="currentColor" stroke-width="2" stroke-linecap="round" stroke-linejoin="round"><line x1="12" y1="5" x2="12" y2="19"></line><line x1="5" y1="12" x2="19" y2="12"></line>
    </symbol>

    <symbol id="headings" viewBox="0 0 24 24" fill="none" stroke="currentColor" stroke-width="2" stroke-linecap="round" stroke-linejoin="round"><path d="M6 12h12"></path><path d="M6 20V4"></path><path d="M18 20V4"></path>
    </symbol>

    <symbol id="image" viewBox="0 0 24 24" fill="none" stroke="currentColor" stroke-width="2" stroke-linecap="round" stroke-linejoin="round"><rect x="3" y="3" width="18" height="18" rx="2" ry="2"></rect><circle cx="9" cy="9" r="2"></circle><path d="m21 15-3.086-3.086a2 2 0 0 0-2.828 0L6 21"></path>
    </symbol>

    <symbol id="gallery" viewBox="0 0 34 24" fill="none" stroke="currentColor" stroke-width="2" stroke-linecap="round" stroke-linejoin="round">
    <rect width="18" height="18" rx="2" transform="translate(3 3)"/><circle cx="2" cy="2" r="2" transform="translate(7 7)"/><path d="M21,15l-3.086-3.086a2,2,0,0,0-2.828,0L6,21"/><path d="M0,18" transform="translate(26 3)"/><path d="M3,21a2,2,0,0,0,2-2V5A2,2,0,0,0,3,3" transform="translate(21)"/><path d="M3,21a2,2,0,0,0,2-2V5A2,2,0,0,0,3,3" transform="translate(26)"/>
    </symbol>

    <symbol id="unordered-list" viewBox="0 0 24 24" fill="none" stroke="currentColor" stroke-width="2" stroke-linecap="round" stroke-linejoin="round"><line x1="8" y1="6" x2="21" y2="6"></line><line x1="8" y1="12" x2="21" y2="12"></line><line x1="8" y1="18" x2="21" y2="18"></line><line x1="3" y1="6" x2="3.01" y2="6"></line><line x1="3" y1="12" x2="3.01" y2="12"></line><line x1="3" y1="18" x2="3.01" y2="18"></line>
    </symbol>

    <symbol id="quote" viewBox="0 0 24 24" fill="none" stroke="currentColor" stroke-width="2" stroke-linecap="round" stroke-linejoin="round"><path d="M3 21c3 0 7-1 7-8V5c0-1.25-.756-2.017-2-2H4c-1.25 0-2 .75-2 1.972V11c0 1.25.75 2 2 2 1 0 1 0 1 1v1c0 1-1 2-2 2s-1 .008-1 1.031V20c0 1 0 1 1 1z"></path><path d="M15 21c3 0 7-1 7-8V5c0-1.25-.757-2.017-2-2h-4c-1.25 0-2 .75-2 1.972V11c0 1.25.75 2 2 2h.75c0 2.25.25 4-2.75 4v3c0 1 0 1 1 1z"></path>
    </symbol>

    <symbol id="code" viewBox="0 0 24 24" fill="none" stroke="currentColor" stroke-width="2" stroke-linecap="round" stroke-linejoin="round"><path d="M8 3H7a2 2 0 0 0-2 2v5a2 2 0 0 1-2 2 2 2 0 0 1 2 2v5c0 1.1.9 2 2 2h1"></path><path d="M16 21h1a2 2 0 0 0 2-2v-5c0-1.1.9-2 2-2a2 2 0 0 1-2-2V5a2 2 0 0 0-2-2h-1"></path>
    </symbol>

    <symbol id="table" viewBox="0 0 18 14">
        <path d="M15,0H3A3,3,0,0,0,0,3v8a3,3,0,0,0,3,3H15a3,3,0,0,0,3-3V3A3,3,0,0,0,15,0Zm0,2a1,1,0,0,1,1,1V6H10V2ZM2,3A1,1,0,0,1,3,2H8V6H2Zm1,9a1,1,0,0,1-1-1V8H8v4Zm12,0H10V8h6v3A1,1,0,0,1,15,12Z" />
    </symbol>

    <symbol id="html" viewBox="0 0 24 24" fill="none" stroke="currentColor" stroke-width="2" stroke-linecap="round" stroke-linejoin="round"><polyline points="16 18 22 12 16 6"></polyline><polyline points="8 6 2 12 8 18"></polyline>
    </symbol>

    <symbol id="separator" viewBox="0 0 24 24" fill="none" stroke="currentColor" stroke-width="2" stroke-linecap="round" stroke-linejoin="round"><circle cx="12" cy="6" r="1"></circle><line x1="5" y1="12" x2="19" y2="12"></line><circle cx="12" cy="18" r="1"></circle>
    </symbol>

    <symbol id="readmore" viewBox="0 0 24 24" fill="none" stroke="currentColor" stroke-width="2" stroke-linecap="round" stroke-linejoin="round"><path d="M21 8V5a2 2 0 0 0-2-2H5a2 2 0 0 0-2 2v3"></path><path d="M21 16v3a2 2 0 0 1-2 2H5a2 2 0 0 1-2-2v-3"></path><path d="M4 12H2"></path><path d="M10 12H8"></path><path d="M16 12h-2"></path><path d="M22 12h-2"></path>
    </symbol>

    <symbol id="video" viewBox="0 0 24 24" fill="none" stroke="currentColor" stroke-width="2" stroke-linecap="round" stroke-linejoin="round"><path d="m22 8-6 4 6 4V8Z"></path><rect x="2" y="6" width="14" height="12" rx="2" ry="2"></rect>
    </symbol>

    <symbol id="toc" viewBox="0 0 24 24" fill="none" stroke="currentColor" stroke-width="2" stroke-linecap="round" stroke-linejoin="round"><path d="M18 6H5a2 2 0 0 0-2 2v3a2 2 0 0 0 2 2h13l4-3.5L18 6Z"></path><path d="M12 13v8"></path><path d="M12 3v3"></path>
    </symbol>

    <symbol id="tab" viewBox="0 0 9 5">
        <path d="M7.4,2.5a.29.29,0,0,1,0,.09.18.18,0,0,1,0,.1l0,.07-.06.09-2,2A.51.51,0,0,1,4.93,5a.52.52,0,0,1-.35-.14.5.5,0,0,1,0-.71L5.71,3H.5a.5.5,0,0,1,0-1H5.71L4.57.85a.5.5,0,0,1,.72-.7l2,2,.06.09a.43.43,0,0,0,0,.07.18.18,0,0,1,0,.1A.29.29,0,0,1,7.4,2.5ZM8.5,0A.5.5,0,0,0,8,.5v4a.5.5,0,0,0,1,0V.5A.5.5,0,0,0,8.5,0Z" />
    </symbol>


    <!-- Inline editor: paragraph -->

    <symbol id="bold" viewBox="0 0 24 24" fill="none" stroke="currentColor" stroke-width="2" stroke-linecap="round" stroke-linejoin="round"><path d="M6 4h8a4 4 0 0 1 4 4 4 4 0 0 1-4 4H6z"></path><path d="M6 12h9a4 4 0 0 1 4 4 4 4 0 0 1-4 4H6z"></path>
    </symbol>

    <symbol id="italic" viewBox="0 0 24 24" fill="none" stroke="currentColor" stroke-width="2" stroke-linecap="round" stroke-linejoin="round"><line x1="19" y1="4" x2="10" y2="4"></line><line x1="14" y1="20" x2="5" y2="20"></line><line x1="15" y1="4" x2="9" y2="20"></line>
    </symbol>

    <symbol id="underline" viewBox="0 0 24 24" fill="none" stroke="currentColor" stroke-width="2" stroke-linecap="round" stroke-linejoin="round"><path d="M6 4v6a6 6 0 0 0 12 0V4"></path><line x1="4" y1="20" x2="20" y2="20"></line>
    </symbol>

    <symbol id="strikethrough" viewBox="0 0 24 24" fill="none" stroke="currentColor" stroke-width="2" stroke-linecap="round" stroke-linejoin="round"><path d="M16 4H9a3 3 0 0 0-2.83 4"></path><path d="M14 12a4 4 0 0 1 0 8H6"></path><line x1="4" y1="12" x2="20" y2="12"></line>
    </symbol>

    <symbol id="link" viewBox="0 0 24 24" fill="none" stroke="currentColor" stroke-width="2" stroke-linecap="round" stroke-linejoin="round"><path d="M10 13a5 5 0 0 0 7.54.54l3-3a5 5 0 0 0-7.07-7.07l-1.72 1.71"></path><path d="M14 11a5 5 0 0 0-7.54-.54l-3 3a5 5 0 0 0 7.07 7.07l1.71-1.71"></path>
    </symbol>

    <symbol id="unlink" viewBox="0 0 24 24" fill="none" stroke="currentColor" stroke-width="2" stroke-linecap="round" stroke-linejoin="round"><path d="m18.84 12.25 1.72-1.71h-.02a5.004 5.004 0 0 0-.12-7.07 5.006 5.006 0 0 0-6.95 0l-1.72 1.71"></path><path d="m5.17 11.75-1.71 1.71a5.004 5.004 0 0 0 .12 7.07 5.006 5.006 0 0 0 6.95 0l1.71-1.71"></path><line x1="8" y1="2" x2="8" y2="5"></line><line x1="2" y1="8" x2="5" y2="8"></line><line x1="16" y1="19" x2="16" y2="22"></line><line x1="19" y1="16" x2="22" y2="16"></line>
    </symbol>

    <symbol id="marker" viewBox="0 0 24 24" fill="none" stroke="currentColor" stroke-width="2" stroke-linecap="round" stroke-linejoin="round"><path d="m9 11-6 6v3h9l3-3"></path><path d="m22 12-4.6 4.6a2 2 0 0 1-2.8 0l-5.2-5.2a2 2 0 0 1 0-2.8L14 4"></path>
    </symbol>

    <symbol id="align-left" viewBox="0 0 24 24" fill="none" stroke="currentColor" stroke-width="2" stroke-linecap="round" stroke-linejoin="round"><line x1="21" y1="6" x2="3" y2="6"></line><line x1="15" y1="12" x2="3" y2="12"></line><line x1="17" y1="18" x2="3" y2="18"></line>
    </symbol>

    <symbol id="align-center" viewBox="0 0 24 24" fill="none" stroke="currentColor" stroke-width="2" stroke-linecap="round" stroke-linejoin="round"><line x1="21" y1="6" x2="3" y2="6"></line><line x1="17" y1="12" x2="7" y2="12"></line><line x1="19" y1="18" x2="5" y2="18"></line>
    </symbol>

    <symbol id="align-right" viewBox="0 0 24 24" fill="none" stroke="currentColor" stroke-width="2" stroke-linecap="round" stroke-linejoin="round"><line x1="21" y1="6" x2="3" y2="6"></line><line x1="21" y1="12" x2="9" y2="12"></line><line x1="21" y1="18" x2="7" y2="18"></line>
    </symbol>
    
    <!-- Inline editor: paragraph -->

    <symbol id="paragraph" viewBox="0 0 24 24" fill="none" stroke="currentColor" stroke-width="2" stroke-linecap="round" stroke-linejoin="round"><path d="M13 4v16"></path><path d="M17 4v16"></path><path d="M19 4H9.5a4.5 4.5 0 0 0 0 9H13"></path>
    </symbol>


    <!-- Inline editor: headings H1-H6 -->

    <symbol id="h1" viewBox="0 0 24 24" fill="none" stroke="currentColor" stroke-width="2" stroke-linecap="round" stroke-linejoin="round"><path d="M4 12h8"></path><path d="M4 18V6"></path><path d="M12 18V6"></path><path d="m17 12 3-2v8"></path>
    </symbol>

    <symbol id="h2" viewBox="0 0 24 24" fill="none" stroke="currentColor" stroke-width="2" stroke-linecap="round" stroke-linejoin="round"><path d="M4 12h8"></path><path d="M4 18V6"></path><path d="M12 18V6"></path><path d="M21 18h-4c0-4 4-3 4-6 0-1.5-2-2.5-4-1"></path>
    </symbol>

    <symbol id="h3" viewBox="0 0 24 24" fill="none" stroke="currentColor" stroke-width="2" stroke-linecap="round" stroke-linejoin="round"><path d="M4 12h8"></path><path d="M4 18V6"></path><path d="M12 18V6"></path><path d="M17.5 10.5c1.7-1 3.5 0 3.5 1.5a2 2 0 0 1-2 2"></path><path d="M17 17.5c2 1.5 4 .3 4-1.5a2 2 0 0 0-2-2"></path>
    </symbol>

    <symbol id="h4" viewBox="0 0 24 24" fill="none" stroke="currentColor" stroke-width="2" stroke-linecap="round" stroke-linejoin="round"><path d="M4 12h8"></path><path d="M4 18V6"></path><path d="M12 18V6"></path><path d="M17 10v4h4"></path><path d="M21 10v8"></path>
    </symbol>

    <symbol id="h5" viewBox="0 0 24 24" fill="none" stroke="currentColor" stroke-width="2" stroke-linecap="round" stroke-linejoin="round"><path d="M4 12h8"></path><path d="M4 18V6"></path><path d="M12 18V6"></path><path d="M17 13v-3h4"></path><path d="M17 17.7c.4.2.8.3 1.3.3 1.5 0 2.7-1.1 2.7-2.5S19.8 13 18.3 13H17"></path>
    </symbol>

    <symbol id="h6" viewBox="0 0 24 24" fill="none" stroke="currentColor" stroke-width="2" stroke-linecap="round" stroke-linejoin="round"><path d="M4 12h8"></path><path d="M4 18V6"></path><path d="M12 18V6"></path><circle cx="19" cy="16" r="2"></circle><path d="M20 10c-2 2-3 3.5-3 6"></path>
    </symbol>


    <!-- Inline editor: lists -->

    <symbol id="ordered-list" viewBox="0 0 24 24" fill="none" stroke="currentColor" stroke-width="2" stroke-linecap="round" stroke-linejoin="round"><line x1="10" y1="6" x2="21" y2="6"></line><line x1="10" y1="12" x2="21" y2="12"></line><line x1="10" y1="18" x2="21" y2="18"></line><path d="M4 6h1v4"></path><path d="M4 10h2"></path><path d="M6 18H4c0-1 2-2 2-3s-1-1.5-2-1"></path>
    </symbol>

    <symbol id="nesting" viewBox="0 0 24 24" fill="none" stroke="currentColor" stroke-width="2" stroke-linecap="round" stroke-linejoin="round">
        <line x1="8" y1="6" x2="14" y2="6"/><line x1="8" y1="12" x2="21.005" y2="12"/><line x1="8" y1="18" x2="14" y2="18"/><line x1="3" y1="6" x2="3.01" y2="6"/><line x1="3" y1="12" x2="3.01" y2="12"/><line x1="3" y1="18" x2="3.01" y2="18"/><path d="m18.005,15l3-3-3-3"/>
    </symbol>

    <symbol id="flattening" viewBox="0 0 24 24" fill="none" stroke="currentColor" stroke-width="2" stroke-linecap="round" stroke-linejoin="round">
        <line x1="21.005" y1="18" x2="15.005" y2="18"/><line x1="17.005" y1="12" x2="4" y2="12"/><line x1="21.005" y1="6" x2="15.005" y2="6"/><line x1="11.005" y1="18" x2="10.995" y2="18"/><line x1="21.005" y1="12" x2="20.995" y2="12"/><line x1="11.005" y1="6" x2="10.995" y2="6"/><path d="m6,9l-3,3,3,3"/>
    </symbol>


    <!-- Inline editor: separators -->

    <symbol id="long-line" viewBox="0 0 24 24" fill="none" stroke="currentColor" stroke-width="2" stroke-linecap="round" stroke-linejoin="round">
       <line x1="1" y1="12" x2="23" y2="12"></line>
    </symbol>

    <symbol id="dotted-line" viewBox="0 0 24 24" fill="none" stroke="currentColor" stroke-width="2" stroke-linecap="round" stroke-linejoin="round">
     <circle cx="2" cy="12" r="1"></circle><circle cx="12" cy="12" r="1"></circle><circle cx="22" cy="12" r="1"></circle>
    </symbol>

    <symbol id="dot" viewBox="0 0 24 24" fill="none" stroke="currentColor" stroke-width="2" stroke-linecap="round" stroke-linejoin="round">
      <circle cx="12" cy="12" r="1"></circle>
    </symbol>


    <!-- Inline editor: image, video, embed -->
    
    <symbol id="preview" viewBox="0 0 19 12">
        <path d="M19,6l-.3.5A14.93,14.93,0,0,1,15,10.3L12.7,8a4.55,4.55,0,0,0,.5-2A3.88,3.88,0,0,0,9.4,2.1,3.82,3.82,0,0,0,5.6,6,3.82,3.82,0,0,0,9.4,9.9,3.41,3.41,0,0,0,11.8,9l1.9,1.9A8.77,8.77,0,0,1,9.5,12C6,12,2.8,10,.3,6.5L0,6l.3-.5C2.8,2,6,0,9.5,0s6.7,2,9.2,5.5ZM7.5,6a2,2,0,1,0,2-2A2,2,0,0,0,7.5,6Z"/>
    </symbol>

    <symbol id="left" viewBox="0 0 14 13">
        <path d="M0,1A1,1,0,0,1,1,0H13a1,1,0,0,1,0,2H1A1,1,0,0,1,0,1ZM1,9H6A1,1,0,0,0,7,8V5A1,1,0,0,0,6,4H1A1,1,0,0,0,0,5V8A1,1,0,0,0,1,9ZM13,4H12a1,1,0,0,0,0,2h1a1,1,0,0,0,0-2Zm0,3H12a1,1,0,0,0,0,2h1a1,1,0,0,0,0-2Zm0,4H1a1,1,0,0,0,0,2H13a1,1,0,0,0,0-2Z" />
    </symbol>

    <symbol id="center" viewBox="0 0 24 24" fill="none" stroke="currentColor" stroke-width="2" stroke-linecap="round" stroke-linejoin="round"><rect x="7" y="9" width="10" height="6" rx="2"></rect><path d="M22 20H2"></path><path d="M22 4H2"></path>
    </symbol>

    <symbol id="right" viewBox="0 0 14 13">
        <path d="M13,2H1A1,1,0,0,1,1,0H13a1,1,0,0,1,0,2Zm1,6V5a1,1,0,0,0-1-1H8A1,1,0,0,0,7,5V8A1,1,0,0,0,8,9h5A1,1,0,0,0,14,8ZM0,5A1,1,0,0,0,1,6H2A1,1,0,0,0,2,4H1A1,1,0,0,0,0,5ZM0,8A1,1,0,0,0,1,9H2A1,1,0,0,0,2,7H1A1,1,0,0,0,0,8Zm0,4a1,1,0,0,0,1,1H13a1,1,0,0,0,0-2H1A1,1,0,0,0,0,12Z" />
    </symbol>

    <symbol id="wide" viewBox="0 0 24 24" fill="none" stroke="currentColor" stroke-width="2" stroke-linecap="round" stroke-linejoin="round"><rect x="2" y="9" width="20" height="6" rx="2"></rect><path d="M16 20H8"></path><path d="M16 4H8"></path>
    </symbol>

    <symbol id="full" viewBox="0 0 24 24" fill="none" stroke="currentColor" stroke-width="2" stroke-linecap="round" stroke-linejoin="round">
     <rect x="2" y="4" width="20" height="11" rx="2"></rect><path d="M16 20H8"></path>
    </symbol>
    
    <symbol id="blank-image"  viewBox="0 0 180 148"><g><path d="M27.508,101.386l23.851-17.207c1.309-.944,3.057-1.009,4.433-.165l13.433,8.246c1.432.879,3.261.77,4.578-.274l46.558-36.91c1.516-1.202,3.675-1.147,5.127.131l28.98,25.498-.033,34.303c-.004,4.415-3.585,7.992-8,7.992H35.483c-4.424,0-8.008-3.591-8-8.015l.025-13.599Z" /><rect x="27.488" y="25" width="126.96" height="98" rx="8" ry="8"  opacity=".39"/><ellipse cx="59.99" cy="55.263" rx="13.496" ry="13.5" fill="var(--bg-secondary)"/></g><g><path d="M13.5,27.141c-.829,0-1.5-.671-1.5-1.5v-3.244c0-.127.003-.252.01-.376.007-.129.016-.252.028-.373.013-.13.029-.251.047-.372.021-.129.043-.251.068-.372.026-.123.054-.243.085-.363.031-.117.064-.233.1-.346.036-.113.075-.227.115-.338.045-.121.091-.237.141-.351.044-.104.094-.212.147-.321.056-.113.112-.223.172-.33.055-.099.116-.204.179-.306.06-.097.126-.198.194-.297.071-.103.14-.2.211-.292.068-.089.142-.182.217-.272.078-.093.156-.181.234-.267.076-.084.16-.169.243-.252.087-.087.179-.173.271-.255.091-.081.18-.157.271-.23.086-.071.179-.142.272-.212.105-.077.202-.145.302-.21.104-.069.204-.132.306-.193.104-.062.209-.123.317-.179.108-.057.213-.11.319-.16.108-.051.219-.101.33-.147.113-.047.226-.091.339-.132.116-.041.229-.079.343-.114.112-.036.237-.07.361-.101.115-.029.234-.056.354-.081.124-.025.247-.047.37-.066.125-.019.246-.033.368-.046.123-.014.253-.023.384-.03.133-.006.259-.01.386-.01h4.382c.829,0,1.5.671,1.5,1.5s-.671,1.5-1.5,1.5h-4.382c-.079,0-.158.002-.236.006-.066.004-.138.008-.21.016l-.245.031c-.068.01-.142.023-.216.038s-.149.032-.222.05c-.068.017-.135.035-.2.055l-.226.076c-.066.024-.136.052-.204.08-.063.026-.13.057-.196.088l-.201.101c-.059.032-.121.067-.182.104l-.185.117c-.056.037-.115.078-.173.12l-.337.275c-.045.041-.094.085-.141.131-.05.05-.101.101-.149.154l-.41.514c-.036.052-.074.11-.11.169-.041.065-.075.126-.109.188-.036.065-.067.125-.097.187s-.06.126-.088.192c-.029.068-.055.132-.079.196-.023.064-.048.135-.07.206l-.062.216c-.018.066-.034.136-.048.206-.015.071-.029.143-.04.215-.01.067-.02.143-.028.218-.007.07-.013.147-.017.226-.003.068-.006.145-.006.222v3.244c0,.829-.671,1.5-1.5,1.5Z" /><path d="M23.482,133h-3.596c-.127,0-.254-.004-.38-.01-.127-.006-.253-.017-.378-.028-.129-.013-.26-.029-.388-.05-.116-.017-.246-.039-.373-.065-.102-.021-.22-.048-.336-.076-.126-.032-.239-.064-.349-.097-.135-.041-.255-.082-.371-.124-.106-.038-.229-.085-.348-.136-.104-.045-.21-.092-.314-.141-.107-.051-.214-.104-.319-.16-.109-.058-.221-.121-.329-.187-.092-.055-.191-.117-.29-.182-.099-.065-.196-.134-.291-.203-.096-.069-.192-.146-.288-.222-.096-.079-.185-.154-.272-.232-.075-.066-.154-.141-.231-.215-.114-.111-.198-.199-.279-.287-.085-.095-.163-.183-.238-.272-.071-.083-.145-.177-.218-.272-.07-.093-.137-.186-.202-.278-.077-.111-.143-.213-.206-.316-.062-.099-.123-.204-.183-.312-.057-.104-.112-.209-.164-.315-.052-.106-.101-.214-.148-.322-.052-.122-.099-.238-.142-.356-.039-.106-.079-.219-.114-.333-.036-.117-.069-.23-.1-.345-.032-.119-.06-.241-.085-.363-.025-.12-.048-.243-.067-.364-.02-.13-.036-.255-.048-.38-.012-.115-.022-.241-.029-.365-.006-.133-.01-.259-.01-.384v-4.719c0-.828.671-1.5,1.5-1.5s1.5.672,1.5,1.5v4.719c0,.076.002.153.006.23.004.066.01.142.018.216.008.08.018.154.028.226.01.064.024.137.039.207s.03.14.048.208l.064.22c.021.065.045.135.07.204.025.069.051.131.077.192l.189.386c.033.06.066.118.102.176.04.064.078.123.117.181l.124.17c.043.057.087.111.132.165l.151.173c.04.043.088.094.137.143l.325.29c.047.038.101.081.155.12l.371.246c.064.039.121.071.179.102.068.036.134.07.2.102l.213.095c.062.026.122.05.183.071.082.029.15.053.217.073l.432.108c.083.018.15.028.219.039.084.013.155.021.226.028.076.008.153.015.23.019.078.004.157.006.236.006h3.596c.829,0,1.5.672,1.5,1.5s-.671,1.5-1.5,1.5Z" /><path d="M160.512,132.998h-4.382c-.828,0-1.5-.672-1.5-1.5s.672-1.5,1.5-1.5h4.382c.079,0,.158-.002.237-.006.071-.004.144-.009.216-.017.075-.009.15-.017.225-.028.085-.013.153-.024.221-.038.088-.018.156-.034.225-.051.086-.021.154-.04.221-.061l.206-.069c.077-.027.141-.054.203-.079.068-.028.137-.06.203-.091s.133-.065.197-.1c.059-.031.117-.064.174-.099l.196-.123c.059-.038.115-.079.172-.12l.334-.271c.058-.051.105-.097.152-.143l.282-.308c.057-.065.097-.117.136-.169l.134-.186c.04-.057.075-.111.109-.167l.11-.188c.033-.062.065-.124.097-.187l.092-.199c.023-.055.049-.116.07-.179l.136-.425c.021-.077.035-.143.049-.207.018-.081.029-.148.039-.215.014-.081.022-.15.028-.218.008-.074.015-.15.019-.225.004-.076.006-.152.006-.23v-3.243c0-.828.672-1.5,1.5-1.5s1.5.672,1.5,1.5v3.243c0,.127-.004.252-.01.376-.006.126-.017.251-.028.374-.014.13-.03.26-.051.387-.017.112-.04.24-.066.365-.022.112-.053.238-.086.363-.026.1-.06.213-.094.325-.042.132-.081.245-.122.355-.038.104-.085.223-.135.34-.05.114-.1.222-.151.328-.053.109-.108.217-.167.321-.057.104-.117.206-.179.307-.065.106-.134.212-.206.314-.064.093-.134.189-.205.282-.066.089-.146.188-.226.283-.061.073-.139.161-.217.247-.092.099-.171.181-.251.261-.096.095-.187.18-.279.262-.079.07-.167.146-.258.22-.097.078-.186.146-.277.215-.107.079-.205.147-.307.215-.1.065-.199.128-.301.188-.097.059-.206.121-.317.18-.105.056-.211.109-.318.16s-.219.1-.328.146c-.115.049-.233.095-.353.137-.098.036-.211.073-.323.109-.134.04-.257.074-.38.104-.104.027-.229.056-.355.081-.11.023-.237.045-.368.064-.106.017-.232.032-.358.045-.129.014-.26.024-.391.03-.127.006-.253.01-.381.01Z" /><path d="M166.102,28.613c-.828,0-1.5-.671-1.5-1.5v-4.718c0-.077-.002-.154-.006-.23-.004-.075-.01-.15-.018-.225l-.028-.218c-.009-.058-.022-.129-.037-.201-.018-.084-.034-.153-.052-.222l-.137-.428c-.019-.052-.044-.113-.069-.173l-.192-.392c-.033-.062-.068-.122-.105-.181l-.114-.174c-.04-.058-.081-.116-.124-.172l-.275-.328c-.051-.057-.094-.101-.137-.143-.058-.056-.108-.104-.16-.15-.06-.053-.112-.099-.167-.143-.055-.044-.108-.087-.165-.128l-.363-.241c-.061-.036-.122-.072-.185-.105-.064-.035-.131-.068-.197-.1l-.215-.096c-.064-.028-.131-.052-.196-.076-.058-.021-.124-.044-.19-.063-.08-.024-.149-.044-.221-.062l-.229-.052c-.07-.014-.145-.027-.219-.039-.068-.01-.146-.02-.226-.028-.071-.007-.15-.013-.229-.017-.071-.003-.151-.006-.229-.006h-3.597c-.828,0-1.5-.671-1.5-1.5s.672-1.5,1.5-1.5h3.597c.127,0,.254.003.38.01.132.007.256.016.378.028.128.013.251.029.372.047.133.02.256.042.378.067.119.024.234.05.35.079.124.031.244.065.36.101.11.033.231.074.35.116.122.045.241.09.354.138.105.045.211.092.314.141.107.051.213.105.318.16.107.057.214.118.317.179.102.061.201.124.301.189.102.067.195.134.288.201.103.075.197.149.291.226.094.076.186.154.274.234.083.073.171.156.256.24.086.083.176.176.263.272.068.074.145.161.221.25.082.1.151.187.221.277.077.101.147.198.215.296.065.095.129.193.191.292.069.114.13.218.188.324.057.104.111.208.163.314s.102.215.148.324c.051.115.098.232.142.352.041.118.079.225.113.333.035.111.068.227.1.342.035.136.063.256.088.379.023.106.045.228.065.35.02.132.035.251.048.372.014.138.023.263.029.387s.01.251.01.376v4.718c0,.829-.672,1.5-1.5,1.5Z" /></g>
    </symbol>
    
     <symbol id="blank-gallery" viewBox="0 0 180 148"><g><rect x="41" y="10.5" width="98" height="127" rx="8" ry="8" transform="translate(-8.107 136.857) rotate(-72.076)" opacity=".35"/></g><g><path d="M26.525,101.386l23.854-17.207c1.309-.944,3.057-1.009,4.433-.165l13.435,8.247c1.432.879,3.261.769,4.577-.274l46.564-36.911c1.516-1.202,3.674-1.146,5.127.131l28.984,25.498-.033,34.303c-.004,4.415-3.585,7.992-8,7.992H34.5c-4.424,0-8.008-3.591-8-8.015l.025-13.599Z" /><rect x="26.5" y="25" width="127" height="98" rx="8" ry="8"  opacity=".39"/><ellipse cx="58.702" cy="55.263" rx="13.496" ry="13.5" fill="var(--bg-secondary)"/></g><g><path d="M13.5,27c-.829,0-1.5-.671-1.5-1.5v-3.105c0-.126.003-.252.01-.376.007-.129.016-.251.028-.373.013-.13.029-.251.047-.372.021-.129.043-.251.068-.372.026-.123.054-.243.085-.363.031-.117.064-.233.1-.346.035-.112.075-.227.115-.338.045-.121.091-.237.141-.351.045-.104.095-.215.148-.324.054-.11.111-.22.17-.327.055-.099.116-.204.179-.306.06-.097.126-.198.194-.297.071-.103.14-.2.211-.292.068-.089.142-.182.217-.272.078-.093.156-.181.234-.267.076-.084.16-.169.243-.252.087-.087.179-.173.271-.255.091-.081.18-.157.271-.23.086-.071.179-.142.272-.212.105-.077.202-.145.302-.21.104-.069.204-.132.306-.193.104-.062.209-.123.317-.179.108-.057.213-.11.319-.16.108-.051.219-.101.33-.147.113-.047.226-.091.339-.132.116-.041.229-.079.343-.114.112-.036.237-.069.361-.101.115-.029.234-.056.354-.081.124-.025.247-.047.37-.066.123-.018.241-.033.361-.046.135-.015.262-.023.391-.03.133-.006.259-.01.386-.01h4.012c.829,0,1.5.671,1.5,1.5s-.671,1.5-1.5,1.5h-4.012c-.079,0-.158.002-.236.006-.068.004-.143.009-.217.017l-.238.03c-.068.01-.142.023-.216.038s-.149.032-.222.05c-.068.018-.135.035-.2.055l-.226.076c-.066.024-.136.052-.204.08-.063.026-.13.057-.196.088l-.201.101c-.059.032-.121.067-.182.104l-.185.117c-.056.037-.115.078-.173.12l-.337.275c-.045.041-.094.085-.141.131-.05.05-.101.101-.149.154l-.41.514c-.036.052-.074.11-.11.169-.041.065-.075.126-.109.188-.036.065-.067.125-.097.187-.031.063-.061.127-.088.192-.029.068-.055.132-.079.196-.023.064-.048.133-.07.203l-.063.218c-.018.066-.034.136-.048.206-.015.071-.029.143-.04.215-.01.067-.02.143-.028.218-.007.07-.013.148-.017.225-.003.068-.006.145-.006.223v3.105c0,.829-.671,1.5-1.5,1.5Z" /><path d="M24.5,133h-4.012c-.127,0-.253-.004-.379-.01-.127-.006-.253-.017-.378-.028-.13-.013-.261-.029-.389-.05-.114-.017-.243-.039-.37-.065-.104-.021-.221-.048-.337-.076-.127-.032-.241-.064-.351-.098-.132-.04-.252-.081-.369-.123-.106-.038-.229-.085-.348-.136-.104-.045-.21-.092-.314-.141-.106-.05-.211-.104-.316-.158-.114-.061-.224-.123-.331-.188-.09-.054-.19-.116-.29-.182-.098-.064-.193-.133-.288-.2-.101-.074-.197-.149-.291-.225-.096-.079-.185-.154-.272-.232-.083-.072-.168-.154-.251-.234-.094-.092-.178-.18-.259-.268-.085-.095-.163-.183-.238-.272-.071-.083-.145-.177-.218-.272-.07-.093-.137-.186-.202-.278-.077-.111-.143-.213-.206-.316-.062-.099-.123-.204-.183-.312-.055-.101-.111-.207-.164-.315-.053-.108-.104-.218-.151-.329-.049-.113-.095-.227-.137-.344s-.081-.228-.116-.339c-.036-.117-.069-.23-.1-.345-.032-.119-.06-.241-.085-.363-.025-.12-.048-.243-.067-.364-.019-.127-.036-.25-.048-.372-.013-.128-.022-.251-.029-.373-.006-.133-.01-.259-.01-.384v-5.105c0-.828.671-1.5,1.5-1.5s1.5.672,1.5,1.5v5.105c0,.076.002.153.006.23.004.068.01.146.018.224.007.067.017.144.028.218.01.064.024.137.039.207s.03.14.048.208l.136.43c.021.059.048.123.075.187.028.065.058.13.088.193.031.063.063.125.098.187.036.065.07.124.105.182.04.064.078.123.117.181l.124.17c.043.057.087.111.132.165l.151.173c.04.043.088.094.137.143l.325.29c.048.039.103.083.159.123l.364.241c.068.041.126.074.185.105l.411.194c.062.026.123.05.183.071.081.029.148.053.215.072l.435.109c.08.018.149.028.218.039.085.013.156.021.226.028.076.008.153.015.23.019.078.004.157.006.236.006h4.012c.829,0,1.5.672,1.5,1.5s-.671,1.5-1.5,1.5Z" /><path d="M160.512,133h-4.012c-.828,0-1.5-.672-1.5-1.5s.672-1.5,1.5-1.5h4.012c.079,0,.158-.002.237-.006.066-.004.135-.008.201-.016.09-.01.165-.018.239-.029.085-.013.153-.024.221-.038.093-.019.166-.036.238-.054.062-.016.136-.036.207-.058l.206-.069c.077-.027.141-.054.203-.079.068-.028.137-.06.203-.091s.133-.065.197-.1c.059-.031.117-.064.174-.099l.196-.123c.059-.038.115-.079.172-.12l.334-.271c.058-.051.105-.097.152-.143l.282-.308c.057-.065.097-.117.136-.169l.134-.186c.04-.057.075-.111.109-.167l.11-.188c.033-.062.065-.124.097-.187l.092-.199c.023-.055.049-.116.07-.179l.136-.425c.021-.077.035-.143.049-.207.018-.081.029-.148.039-.215.014-.081.022-.15.028-.218.008-.074.015-.15.019-.225.004-.076.006-.152.006-.229v-3.105c0-.828.672-1.5,1.5-1.5s1.5.672,1.5,1.5v3.105c0,.126-.004.251-.01.375-.006.126-.017.251-.028.374-.014.13-.03.26-.051.387-.017.112-.04.24-.066.365-.022.112-.053.238-.086.363-.026.1-.06.213-.094.325-.042.132-.081.245-.122.355-.038.104-.085.223-.135.34-.05.114-.1.222-.151.328-.053.109-.108.217-.167.321-.057.104-.117.206-.179.307-.065.106-.134.212-.206.314-.064.093-.134.189-.205.282-.066.089-.146.188-.226.283-.061.073-.139.161-.217.247-.092.099-.171.181-.251.261-.096.095-.187.18-.279.262-.079.07-.167.146-.258.22-.101.081-.192.152-.287.222-.098.072-.195.141-.297.208-.1.065-.199.128-.301.188-.097.059-.206.121-.317.18-.105.056-.211.109-.318.16s-.219.1-.328.146c-.115.049-.233.095-.353.137-.098.036-.211.073-.323.109-.129.039-.247.071-.365.102-.128.032-.248.06-.37.084-.11.023-.237.045-.368.064-.106.017-.232.032-.358.045-.12.015-.255.024-.391.03-.127.006-.253.01-.381.01Z" /><path d="M166.5,29c-.828,0-1.5-.671-1.5-1.5v-5.105c0-.077-.002-.154-.006-.23-.004-.075-.011-.15-.019-.225-.007-.068-.015-.137-.026-.204-.012-.082-.024-.149-.038-.215-.017-.08-.031-.144-.049-.208l-.136-.429c-.025-.074-.049-.131-.073-.187l-.192-.392c-.033-.062-.069-.122-.106-.181-.034-.056-.069-.11-.106-.164-.045-.065-.083-.12-.125-.173-.052-.069-.095-.123-.14-.177l-.149-.17c-.039-.043-.083-.089-.129-.134l-.327-.293c-.055-.044-.109-.087-.166-.128l-.362-.241c-.061-.036-.122-.072-.185-.105-.064-.035-.131-.068-.197-.1l-.216-.096c-.064-.028-.13-.052-.195-.076-.06-.021-.128-.044-.194-.065-.075-.022-.144-.042-.214-.06l-.23-.053c-.074-.015-.146-.027-.22-.039-.071-.011-.15-.021-.228-.029-.07-.007-.15-.013-.229-.017-.071-.003-.15-.006-.229-.006h-4.012c-.828,0-1.5-.671-1.5-1.5s.672-1.5,1.5-1.5h4.012c.128,0,.254.003.38.009.132.007.257.017.379.029.129.013.253.029.374.047.131.02.256.042.378.067.116.023.233.05.351.08.119.029.24.063.357.1.112.033.233.074.35.116.122.045.24.09.354.138.105.045.212.092.315.141.107.051.213.105.318.16.107.057.214.118.317.179.102.061.201.124.301.189.102.068.194.134.287.201.103.075.198.149.292.226.092.074.179.149.267.227.088.077.172.158.256.239.091.087.178.178.263.271.083.091.16.179.235.268.073.087.147.181.221.278.065.084.137.185.207.286.064.092.133.197.198.303.062.103.124.207.183.313.057.104.111.208.163.314s.102.215.148.324c.052.12.101.241.145.365.035.095.074.206.11.319.038.125.072.241.102.356.03.112.061.237.086.365.024.111.047.238.066.365.018.113.035.242.048.372.012.124.022.248.028.373s.01.251.01.376v5.105c0,.829-.672,1.5-1.5,1.5Z" /></g>
    </symbol>
    
     <symbol id="eraser" viewBox="0 0 24 24" fill="none" stroke="currentColor" stroke-width="2" stroke-linecap="round" stroke-linejoin="round"><path d="m7 21-4.3-4.3c-1-1-1-2.5 0-3.4l9.6-9.6c1-1 2.5-1 3.4 0l5.6 5.6c1 1 1 2.5 0 3.4L13 21"></path><path d="M22 21H7"></path><path d="m5 11 9 9"></path>
    </symbol>
    
    
    <!-- Inline editor: advanced options menu -->

    <symbol id="enter" viewBox="0 0 11 13">
        <path d="M11,1V8a1,1,0,0,1-1,1H3.41l2.3,2.29a1,1,0,0,1,0,1.42,1,1,0,0,1-1.42,0l-4-4a1,1,0,0,1,0-1.42l4-4A1,1,0,0,1,5.71,4.71L3.41,7H9V1a1,1,0,0,1,2,0Z"/>
    </symbol>

    <symbol id="down" viewBox="0 0 24 24" fill="none" stroke="currentColor" stroke-width="2" stroke-linecap="round" stroke-linejoin="round"><line x1="12" y1="5" x2="12" y2="19"></line><polyline points="19 12 12 19 5 12"></polyline>
    </symbol>

    <symbol id="up" viewBox="0 0 24 24" fill="none" stroke="currentColor" stroke-width="2" stroke-linecap="round" stroke-linejoin="round"><line x1="12" y1="19" x2="12" y2="5"></line><polyline points="5 12 12 5 19 12"></polyline>
    </symbol>

    <symbol id="trash" viewBox="0 0 24 24" fill="none" stroke="currentColor" stroke-width="2" stroke-linecap="round" stroke-linejoin="round"><path d="M3 6h18"></path><path d="M19 6v14c0 1-1 2-2 2H7c-1 0-2-1-2-2V6"></path><path d="M8 6V4c0-1 1-2 2-2h4c1 0 2 1 2 2v2"></path><line x1="10" y1="11" x2="10" y2="17"></line><line x1="14" y1="11" x2="14" y2="17"></line>
    </symbol>
    
    <symbol id="open-trash" viewBox="0 0 24 24" fill="none" stroke="currentColor" stroke-width="2" stroke-linecap="round" stroke-linejoin="round">
      <path d="M3,6H21" transform="matrix(0.966, -0.259, 0.259, 0.966, -0.626, 3.242)" />
      <path d="M19,6v9.625C19,16.313,18,17,17,17H7c-1,0-2-.687-2-1.375V6" transform="translate(0 5)" />
      <path d="M8,6V4a2.151,2.151,0,0,1,2-2h4a2.151,2.151,0,0,1,2,2V6" transform="matrix(0.966, -0.259, 0.259, 0.966, -0.626, 3.242)" />
      <line y2="6" transform="translate(10 11)" />
      <line y2="6" transform="translate(14 11)" />
    </symbol>

    <symbol id="gear" viewBox="0 0 24 24" fill="none" stroke="currentColor" stroke-width="2" stroke-linecap="round" stroke-linejoin="round"><path d="M12.22 2h-.44a2 2 0 0 0-2 2v.18a2 2 0 0 1-1 1.73l-.43.25a2 2 0 0 1-2 0l-.15-.08a2 2 0 0 0-2.73.73l-.22.38a2 2 0 0 0 .73 2.73l.15.1a2 2 0 0 1 1 1.72v.51a2 2 0 0 1-1 1.74l-.15.09a2 2 0 0 0-.73 2.73l.22.38a2 2 0 0 0 2.73.73l.15-.08a2 2 0 0 1 2 0l.43.25a2 2 0 0 1 1 1.73V20a2 2 0 0 0 2 2h.44a2 2 0 0 0 2-2v-.18a2 2 0 0 1 1-1.73l.43-.25a2 2 0 0 1 2 0l.15.08a2 2 0 0 0 2.73-.73l.22-.39a2 2 0 0 0-.73-2.73l-.15-.08a2 2 0 0 1-1-1.74v-.5a2 2 0 0 1 1-1.74l.15-.09a2 2 0 0 0 .73-2.73l-.22-.38a2 2 0 0 0-2.73-.73l-.15.08a2 2 0 0 1-2 0l-.43-.25a2 2 0 0 1-1-1.73V4a2 2 0 0 0-2-2z"></path><circle cx="12" cy="12" r="3"></circle>
    </symbol>
    
    <symbol id="duplicate" viewBox="0 0 24 24" fill="none" stroke="currentColor" stroke-width="2" stroke-linecap="round" stroke-linejoin="round"><rect x="9" y="9" width="13" height="13" rx="2" ry="2"></rect><path d="M5 15H4a2 2 0 0 1-2-2V4a2 2 0 0 1 2-2h9a2 2 0 0 1 2 2v1"></path>
    </symbol>

 <!-- Bulk edition pabel -->

    <symbol id="open-bulk-edition" viewBox="0 0 24 24" fill="none" stroke="currentColor" stroke-width="2" stroke-linecap="round" stroke-linejoin="round"><rect x="3" y="3" width="7" height="7"></rect><rect x="14" y="3" width="7" height="7"></rect><rect x="14" y="14" width="7" height="7"></rect><rect x="3" y="14" width="7" height="7"></rect>
    </symbol>
   

</svg>