<svg xmlns="http://www.w3.org/2000/svg"> 

    <!-- Website icons  -->

    <symbol id="web-pizza" viewBox="0 0 24 24" fill="none" stroke="currentColor" stroke-width="2" stroke-linecap="round" stroke-linejoin="round"><path d="M18 8h1a4 4 0 0 1 0 8h-1"></path><path d="M2 8h16v9a4 4 0 0 1-4 4H6a4 4 0 0 1-4-4V8z"></path><line x1="6" y1="1" x2="6" y2="4"></line><line x1="10" y1="1" x2="10" y2="4"></line><line x1="14" y1="1" x2="14" y2="4"></line>
    </symbol>

    <symbol id="web-ice-cream" viewBox="0 0 24 24" fill="none" stroke="currentColor" stroke-width="2" stroke-linecap="round" stroke-linejoin="round"><circle cx="12" cy="8" r="7"></circle><polyline points="8.21 13.89 7 23 12 20 17 23 15.79 13.88"></polyline>
    </symbol>

    <symbol id="web-school" viewBox="0 0 24 24" fill="none" stroke="currentColor" stroke-width="2" stroke-linecap="round" stroke-linejoin="round"><polyline points="21 8 21 21 3 21 3 8"></polyline><rect x="1" y="3" width="22" height="5"></rect><line x1="10" y1="12" x2="14" y2="12"></line>
    </symbol>

    <symbol id="web-leaf" viewBox="0 0 24 24" fill="none" stroke="currentColor" stroke-width="2" stroke-linecap="round" stroke-linejoin="round"><path d="M20 17.58A5 5 0 0 0 18 8h-1.26A8 8 0 1 0 4 16.25"></path><line x1="8" y1="16" x2="8.01" y2="16"></line><line x1="8" y1="20" x2="8.01" y2="20"></line><line x1="12" y1="18" x2="12.01" y2="18"></line><line x1="12" y1="22" x2="12.01" y2="22"></line><line x1="16" y1="16" x2="16.01" y2="16"></line><line x1="16" y1="20" x2="16.01" y2="20"></line>
    </symbol>

    <symbol id="web-bag" viewBox="0 0 24 24" fill="none" stroke="currentColor" stroke-width="2" stroke-linecap="round" stroke-linejoin="round"><path d="M6 2L3 6v14a2 2 0 0 0 2 2h14a2 2 0 0 0 2-2V6l-3-4z"></path><line x1="3" y1="6" x2="21" y2="6"></line><path d="M16 10a4 4 0 0 1-8 0"></path>
    </symbol>

    <symbol id="web-shirt" viewBox="0 0 24 24" fill="none" stroke="currentColor" stroke-width="2" stroke-linecap="round" stroke-linejoin="round"><path d="M21.44 11.05l-9.19 9.19a6 6 0 0 1-8.49-8.49l9.19-9.19a4 4 0 0 1 5.66 5.66l-9.2 9.19a2 2 0 0 1-2.83-2.83l8.49-8.48"></path>
    </symbol>

    <symbol id="web-note" viewBox="0 0 24 24" fill="none" stroke="currentColor" stroke-width="2" stroke-linecap="round" stroke-linejoin="round"><path d="M9 18V5l12-2v13"></path><circle cx="6" cy="18" r="3"></circle><circle cx="18" cy="16" r="3"></circle>
    </symbol>

    <symbol id="web-mic" viewBox="0 0 24 24" fill="none" stroke="currentColor" stroke-width="2" stroke-linecap="round" stroke-linejoin="round"><path d="M12 1a3 3 0 0 0-3 3v8a3 3 0 0 0 6 0V4a3 3 0 0 0-3-3z"></path><path d="M19 10v2a7 7 0 0 1-14 0v-2"></path><line x1="12" y1="19" x2="12" y2="23"></line><line x1="8" y1="23" x2="16" y2="23"></line>
    </symbol>

    <symbol id="web-headphone" viewBox="0 0 24 24" fill="none" stroke="currentColor" stroke-width="2" stroke-linecap="round" stroke-linejoin="round"><path d="M3 18v-6a9 9 0 0 1 18 0v6"></path><path d="M21 19a2 2 0 0 1-2 2h-1a2 2 0 0 1-2-2v-3a2 2 0 0 1 2-2h3zM3 19a2 2 0 0 0 2 2h1a2 2 0 0 0 2-2v-3a2 2 0 0 0-2-2H3z"></path>
    </symbol>

    <symbol id="web-american-football" viewBox="0 0 24 24" fill="none" stroke="currentColor" stroke-width="2" stroke-linecap="round" stroke-linejoin="round"><circle cx="12" cy="12" r="10"></circle><line x1="8" y1="15" x2="16" y2="15"></line><line x1="9" y1="9" x2="9.01" y2="9"></line><line x1="15" y1="9" x2="15.01" y2="9"></line>
    </symbol>

    <symbol id="web-racket" viewBox="0 0 24 24" fill="none" stroke="currentColor" stroke-width="2" stroke-linecap="round" stroke-linejoin="round"><ellipse cx="12" cy="5" rx="9" ry="3"></ellipse><path d="M21 12c0 1.66-4 3-9 3s-9-1.34-9-3"></path><path d="M3 5v14c0 1.66 4 3 9 3s9-1.34 9-3V5"></path>
    </symbol>

    <symbol id="web-car" viewBox="0 0 24 24" fill="none" stroke="currentColor" stroke-width="2" stroke-linecap="round" stroke-linejoin="round"><rect x="1" y="3" width="15" height="13"></rect><polygon points="16 8 20 8 23 11 23 16 16 16 16 8"></polygon><circle cx="5.5" cy="18.5" r="2.5"></circle><circle cx="18.5" cy="18.5" r="2.5"></circle>
    </symbol>

    <symbol id="web-camera" viewBox="0 0 24 24" fill="none" stroke="currentColor" stroke-width="2" stroke-linecap="round" stroke-linejoin="round"><path d="M23 19a2 2 0 0 1-2 2H3a2 2 0 0 1-2-2V8a2 2 0 0 1 2-2h4l2-3h6l2 3h4a2 2 0 0 1 2 2z"></path><circle cx="12" cy="13" r="4"></circle>
    </symbol>

    <symbol id="web-doc" viewBox="0 0 24 24" fill="none" stroke="currentColor" stroke-width="2" stroke-linecap="round" stroke-linejoin="round"><polyline points="6 9 6 2 18 2 18 9"></polyline><path d="M6 18H4a2 2 0 0 1-2-2v-5a2 2 0 0 1 2-2h16a2 2 0 0 1 2 2v5a2 2 0 0 1-2 2h-2"></path><rect x="6" y="14" width="12" height="8"></rect>
    </symbol>

    <symbol id="web-credit-card" viewBox="0 0 24 24" fill="none" stroke="currentColor" stroke-width="2" stroke-linecap="round" stroke-linejoin="round"><rect x="1" y="4" width="22" height="16" rx="2" ry="2"></rect><line x1="1" y1="10" x2="23" y2="10"></line>
    </symbol>

    <symbol id="web-gear" viewBox="0 0 24 24" fill="none" stroke="currentColor" stroke-width="2" stroke-linecap="round" stroke-linejoin="round"><path d="M14.7 6.3a1 1 0 0 0 0 1.4l1.6 1.6a1 1 0 0 0 1.4 0l3.77-3.77a6 6 0 0 1-7.94 7.94l-6.91 6.91a2.12 2.12 0 0 1-3-3l6.91-6.91a6 6 0 0 1 7.94-7.94l-3.76 3.76z"></path>
    </symbol>
    
    <symbol id="web-palette" viewBox="0 0 24 24" fill="none" stroke="currentColor" stroke-width="2" stroke-linecap="round" stroke-linejoin="round"><path d="M12 19l7-7 3 3-7 7-3-3z"></path><path d="M18 13l-1.5-7.5L2 2l3.5 14.5L13 18l5-5z"></path><path d="M2 2l7.586 7.586"></path><circle cx="11" cy="11" r="2"></circle>
    </symbol>
    
    <symbol id="web-boat" viewBox="0 0 24 24" fill="none" stroke="currentColor" stroke-width="2" stroke-linecap="round" stroke-linejoin="round"><circle cx="12" cy="5" r="3"></circle><line x1="12" y1="22" x2="12" y2="8"></line><path d="M5 12H2a10 10 0 0 0 20 0h-3"></path>
    </symbol>
    
    <symbol id="web-cut" viewBox="0 0 24 24" fill="none" stroke="currentColor" stroke-width="2" stroke-linecap="round" stroke-linejoin="round"><circle cx="6" cy="6" r="3"></circle><circle cx="6" cy="18" r="3"></circle><line x1="20" y1="4" x2="8.12" y2="15.88"></line><line x1="14.47" y1="14.48" x2="20" y2="20"></line><line x1="8.12" y1="8.12" x2="12" y2="12"></line>
    </symbol>
    
    <symbol id="web-film" viewBox="0 0 24 24" fill="none" stroke="currentColor" stroke-width="2" stroke-linecap="round" stroke-linejoin="round"><rect x="2" y="2" width="20" height="20" rx="2.18" ry="2.18"></rect><line x1="7" y1="2" x2="7" y2="22"></line><line x1="17" y1="2" x2="17" y2="22"></line><line x1="2" y1="12" x2="22" y2="12"></line><line x1="2" y1="7" x2="7" y2="7"></line><line x1="2" y1="17" x2="7" y2="17"></line><line x1="17" y1="17" x2="22" y2="17"></line><line x1="17" y1="7" x2="22" y2="7"></line>
    </symbol>
    
    <symbol id="web-flask" viewBox="0 0 24 24" fill="none" stroke="currentColor" stroke-width="2" stroke-linecap="round" stroke-linejoin="round"><path d="M14 14.76V3.5a2.5 2.5 0 0 0-5 0v11.26a4.5 4.5 0 1 0 5 0z"></path>
    </symbol>
    
    <symbol id="web-heart" viewBox="0 0 24 24" fill="none" stroke="currentColor" stroke-width="2" stroke-linecap="round" stroke-linejoin="round"><path d="M20.84 4.61a5.5 5.5 0 0 0-7.78 0L12 5.67l-1.06-1.06a5.5 5.5 0 0 0-7.78 7.78l1.06 1.06L12 21.23l7.78-7.78 1.06-1.06a5.5 5.5 0 0 0 0-7.78z"></path>
    </symbol>
    
    <symbol id="web-journal" viewBox="0 0 24 24" fill="none" stroke="currentColor" stroke-width="2" stroke-linecap="round" stroke-linejoin="round"><path d="M4 19.5A2.5 2.5 0 0 1 6.5 17H20"></path><path d="M6.5 2H20v20H6.5A2.5 2.5 0 0 1 4 19.5v-15A2.5 2.5 0 0 1 6.5 2z"></path>
    </symbol>
    
    <symbol id="web-rocket" viewBox="0 0 24 24" fill="none" stroke="currentColor" stroke-width="2" stroke-linecap="round" stroke-linejoin="round"><line x1="22" y1="2" x2="11" y2="13"></line><polygon points="22 2 15 22 11 13 2 9 22 2"></polygon>
    </symbol>
    
    <symbol id="web-glass" viewBox="0 0 24 24" fill="none" stroke="currentColor" stroke-width="2" stroke-linecap="round" stroke-linejoin="round"><circle cx="12" cy="12" r="10"></circle><polygon points="16.24 7.76 14.12 14.12 7.76 16.24 9.88 9.88 16.24 7.76"></polygon>
    </symbol>
    
    <symbol id="web-pie" viewBox="0 0 24 24" fill="none" stroke="currentColor" stroke-width="2" stroke-linecap="round" stroke-linejoin="round" class="feather feather-pie-chart"><path d="M21.21 15.89A10 10 0 1 1 8 2.83"></path><path d="M22 12A10 10 0 0 0 12 2v10z"></path>
    </symbol>
   
    <symbol id="web-paw" viewBox="0 0 24 24" fill="none" stroke="currentColor" stroke-width="2" stroke-linecap="round" stroke-linejoin="round" class="feather feather-crosshair"><circle cx="12" cy="12" r="10"></circle><line x1="22" y1="12" x2="18" y2="12"></line><line x1="6" y1="12" x2="2" y2="12"></line><line x1="12" y1="6" x2="12" y2="2"></line><line x1="12" y1="22" x2="12" y2="18"></line>
    </symbol>
        
    <symbol id="web-fire" viewBox="0 0 24 24" fill="none" stroke="currentColor" stroke-width="2" stroke-linecap="round" stroke-linejoin="round" class="feather feather-battery-charging"><path d="M5 18H3a2 2 0 0 1-2-2V8a2 2 0 0 1 2-2h3.19M15 6h2a2 2 0 0 1 2 2v8a2 2 0 0 1-2 2h-3.19"></path><line x1="23" y1="13" x2="23" y2="11"></line><polyline points="11 6 7 12 13 12 9 18"></polyline>                
    </symbol>
        
    <symbol id="web-planet" viewBox="0 0 24 24" fill="none" stroke="currentColor" stroke-width="2" stroke-linecap="round" stroke-linejoin="round"><polygon points="12 2 15.09 8.26 22 9.27 17 14.14 18.18 21.02 12 17.77 5.82 21.02 7 14.14 2 9.27 8.91 8.26 12 2"></polygon>
    </symbol>

    <symbol id="web-watch" viewBox="0 0 24 24" fill="none" stroke="currentColor" stroke-width="2" stroke-linecap="round" stroke-linejoin="round"><circle cx="12" cy="12" r="7"></circle><polyline points="12 9 12 12 13.5 13.5"></polyline><path d="M16.51 17.35l-.35 3.83a2 2 0 0 1-2 1.82H9.83a2 2 0 0 1-2-1.82l-.35-3.83m.01-10.7l.35-3.83A2 2 0 0 1 9.83 1h4.35a2 2 0 0 1 2 1.82l.35 3.83"></path>
    </symbol>
        
    <symbol id="web-idea" viewBox="0 0 24 24" fill="none" stroke="currentColor" stroke-width="2" stroke-linecap="round" stroke-linejoin="round"><rect x="2" y="3" width="20" height="14" rx="2" ry="2"></rect><line x1="8" y1="21" x2="16" y2="21"></line><line x1="12" y1="17" x2="12" y2="21"></line>
    </symbol>
        
    <symbol id="web-pulse" viewBox="0 0 24 24" fill="none" stroke="currentColor" stroke-width="2" stroke-linecap="round" stroke-linejoin="round"><polyline points="22 12 18 12 15 21 9 3 6 12 2 12"></polyline>
    </symbol>
    
    <symbol id="web-bell" viewBox="0 0 24 24" fill="none" stroke="currentColor" stroke-width="2" stroke-linecap="round" stroke-linejoin="round"><path d="M18 8A6 6 0 0 0 6 8c0 7-3 9-3 9h18s-3-2-3-9"></path><path d="M13.73 21a2 2 0 0 1-3.46 0"></path>
    </symbol>
    
    <symbol id="web-briefcase" viewBox="0 0 24 24" fill="none" stroke="currentColor" stroke-width="2" stroke-linecap="round" stroke-linejoin="round"><rect x="2" y="7" width="20" height="14" rx="2" ry="2"></rect><path d="M16 21V5a2 2 0 0 0-2-2h-4a2 2 0 0 0-2 2v16"></path>
    </symbol> 
    
    <symbol id="web-clipboard" viewBox="0 0 24 24" fill="none" stroke="currentColor" stroke-width="2" stroke-linecap="round" stroke-linejoin="round"><path d="M16 4h2a2 2 0 0 1 2 2v14a2 2 0 0 1-2 2H6a2 2 0 0 1-2-2V6a2 2 0 0 1 2-2h2"></path><rect x="8" y="2" width="8" height="4" rx="1" ry="1"></rect>
    </symbol>
    
    <symbol id="web-command" viewBox="0 0 24 24" fill="none" stroke="currentColor" stroke-width="2" stroke-linecap="round" stroke-linejoin="round"><path d="M18 3a3 3 0 0 0-3 3v12a3 3 0 0 0 3 3 3 3 0 0 0 3-3 3 3 0 0 0-3-3H6a3 3 0 0 0-3 3 3 3 0 0 0 3 3 3 3 0 0 0 3-3V6a3 3 0 0 0-3-3 3 3 0 0 0-3 3 3 3 0 0 0 3 3h12a3 3 0 0 0 3-3 3 3 0 0 0-3-3z"></path>
    </symbol>
    
    <symbol id="web-cpu" viewBox="0 0 24 24" fill="none" stroke="currentColor" stroke-width="2" stroke-linecap="round" stroke-linejoin="round"><rect x="4" y="4" width="16" height="16" rx="2" ry="2"></rect><rect x="9" y="9" width="6" height="6"></rect><line x1="9" y1="1" x2="9" y2="4"></line><line x1="15" y1="1" x2="15" y2="4"></line><line x1="9" y1="20" x2="9" y2="23"></line><line x1="15" y1="20" x2="15" y2="23"></line><line x1="20" y1="9" x2="23" y2="9"></line><line x1="20" y1="14" x2="23" y2="14"></line><line x1="1" y1="9" x2="4" y2="9"></line><line x1="1" y1="14" x2="4" y2="14"></line>
    </symbol>
    
    <symbol id="web-droplet" viewBox="0 0 24 24" fill="none" stroke="currentColor" stroke-width="2" stroke-linecap="round" stroke-linejoin="round"><path d="M12 2.69l5.66 5.66a8 8 0 1 1-11.31 0z"></path>
    </symbol>
    
    <symbol id="web-dollar-sign" viewBox="0 0 24 24" fill="none" stroke="currentColor" stroke-width="2" stroke-linecap="round" stroke-linejoin="round"><line x1="12" y1="1" x2="12" y2="23"></line><path d="M17 5H9.5a3.5 3.5 0 0 0 0 7h5a3.5 3.5 0 0 1 0 7H6"></path>
    </symbol>
    
    <symbol id="web-edit-2" viewBox="0 0 24 24" fill="none" stroke="currentColor" stroke-width="2" stroke-linecap="round" stroke-linejoin="round"><path d="M17 3a2.828 2.828 0 1 1 4 4L7.5 20.5 2 22l1.5-5.5L17 3z"></path>
    </symbol>
    
    <symbol id="web-eye" viewBox="0 0 24 24" fill="none" stroke="currentColor" stroke-width="2" stroke-linecap="round" stroke-linejoin="round"><path d="M1 12s4-8 11-8 11 8 11 8-4 8-11 8-11-8-11-8z"></path><circle cx="12" cy="12" r="3"></circle>
    </symbol>
    
    <symbol id="web-feather" viewBox="0 0 24 24" fill="none" stroke="currentColor" stroke-width="2" stroke-linecap="round" stroke-linejoin="round"><path d="M20.24 12.24a6 6 0 0 0-8.49-8.49L5 10.5V19h8.5z"></path><line x1="16" y1="8" x2="2" y2="22"></line><line x1="17.5" y1="15" x2="9" y2="15"></line>
    </symbol>
    
    <symbol id="web-file-text" viewBox="0 0 24 24" fill="none" stroke="currentColor" stroke-width="2" stroke-linecap="round" stroke-linejoin="round"><path d="M14 2H6a2 2 0 0 0-2 2v16a2 2 0 0 0 2 2h12a2 2 0 0 0 2-2V8z"></path><polyline points="14 2 14 8 20 8"></polyline><line x1="16" y1="13" x2="8" y2="13"></line><line x1="16" y1="17" x2="8" y2="17"></line><polyline points="10 9 9 9 8 9"></polyline>
    </symbol>
    
    <symbol id="web-flag" viewBox="0 0 24 24" fill="none" stroke="currentColor" stroke-width="2" stroke-linecap="round" stroke-linejoin="round"><path d="M4 15s1-1 4-1 5 2 8 2 4-1 4-1V3s-1 1-4 1-5-2-8-2-4 1-4 1z"></path><line x1="4" y1="22" x2="4" y2="15"></line>
    </symbol>
    
    <symbol id="web-home" viewBox="0 0 24 24" fill="none" stroke="currentColor" stroke-width="2" stroke-linecap="round" stroke-linejoin="round"><path d="M3 9l9-7 9 7v11a2 2 0 0 1-2 2H5a2 2 0 0 1-2-2z"></path><polyline points="9 22 9 12 15 12 15 22"></polyline>
    </symbol>
    
    <symbol id="web-image" viewBox="0 0 24 24" fill="none" stroke="currentColor" stroke-width="2" stroke-linecap="round" stroke-linejoin="round"><rect x="3" y="3" width="18" height="18" rx="2" ry="2"></rect><circle cx="8.5" cy="8.5" r="1.5"></circle><polyline points="21 15 16 10 5 21"></polyline>
    </symbol>
    
    <symbol id="web-moon" viewBox="0 0 24 24" fill="none" stroke="currentColor" stroke-width="2" stroke-linecap="round" stroke-linejoin="round"><path d="M21 12.79A9 9 0 1 1 11.21 3 7 7 0 0 0 21 12.79z"></path>
    </symbol>
    
    <symbol id="web-percent" viewBox="0 0 24 24" fill="none" stroke="currentColor" stroke-width="2" stroke-linecap="round" stroke-linejoin="round"><line x1="19" y1="5" x2="5" y2="19"></line><circle cx="6.5" cy="6.5" r="2.5"></circle><circle cx="17.5" cy="17.5" r="2.5"></circle>
    </symbol>
    
    <symbol id="web-power" viewBox="0 0 24 24" fill="none" stroke="currentColor" stroke-width="2" stroke-linecap="round" stroke-linejoin="round"><path d="M18.36 6.64a9 9 0 1 1-12.73 0"></path><line x1="12" y1="2" x2="12" y2="12"></line>
    </symbol>
    
     <symbol id="web-shield" viewBox="0 0 24 24" fill="none" stroke="currentColor" stroke-width="2" stroke-linecap="round" stroke-linejoin="round"><path d="M12 22s8-4 8-10V5l-8-3-8 3v7c0 6 8 10 8 10z"></path>
    </symbol>
    
     <symbol id="web-smartphone" viewBox="0 0 24 24" fill="none" stroke="currentColor" stroke-width="2" stroke-linecap="round" stroke-linejoin="round"><rect x="5" y="2" width="14" height="20" rx="2" ry="2"></rect><line x1="12" y1="18" x2="12.01" y2="18"></line>
    </symbol>
    
     <symbol id="web-speaker" viewBox="0 0 24 24" fill="none" stroke="currentColor" stroke-width="2" stroke-linecap="round" stroke-linejoin="round"><rect x="4" y="2" width="16" height="20" rx="2" ry="2"></rect><circle cx="12" cy="14" r="4"></circle><line x1="12" y1="6" x2="12.01" y2="6"></line>
    </symbol>
    
    <symbol id="web-sun" viewBox="0 0 24 24" fill="none" stroke="currentColor" stroke-width="2" stroke-linecap="round" stroke-linejoin="round"><circle cx="12" cy="12" r="5"></circle><line x1="12" y1="1" x2="12" y2="3"></line><line x1="12" y1="21" x2="12" y2="23"></line><line x1="4.22" y1="4.22" x2="5.64" y2="5.64"></line><line x1="18.36" y1="18.36" x2="19.78" y2="19.78"></line><line x1="1" y1="12" x2="3" y2="12"></line><line x1="21" y1="12" x2="23" y2="12"></line><line x1="4.22" y1="19.78" x2="5.64" y2="18.36"></line><line x1="18.36" y1="5.64" x2="19.78" y2="4.22"></line>
    </symbol>
    
    <symbol id="web-tv" viewBox="0 0 24 24" fill="none" stroke="currentColor" stroke-width="2" stroke-linecap="round" stroke-linejoin="round"><rect x="2" y="7" width="20" height="15" rx="2" ry="2"></rect><polyline points="17 2 12 7 7 2"></polyline>
    </symbol>
    
    <symbol id="web-umbrella" viewBox="0 0 24 24" fill="none" stroke="currentColor" stroke-width="2" stroke-linecap="round" stroke-linejoin="round"><path d="M23 12a11.05 11.05 0 0 0-22 0zm-5 7a3 3 0 0 1-6 0v-7"></path>
    </symbol>
    
    <symbol id="web-radio" viewBox="0 0 24 24" fill="none" stroke="currentColor" stroke-width="2" stroke-linecap="round" stroke-linejoin="round"><circle cx="12" cy="12" r="2"></circle><path d="M16.24 7.76a6 6 0 0 1 0 8.49m-8.48-.01a6 6 0 0 1 0-8.49m11.31-2.82a10 10 0 0 1 0 14.14m-14.14 0a10 10 0 0 1 0-14.14"></path>
    </symbol>
    
    <symbol id="web-layers" viewBox="0 0 24 24" fill="none" stroke="currentColor" stroke-width="2" stroke-linecap="round" stroke-linejoin="round"><polygon points="12 2 2 7 12 12 22 7 12 2"></polygon><polyline points="2 17 12 22 22 17"></polyline><polyline points="2 12 12 17 22 12"></polyline>
    </symbol>
    
</svg>
