<svg xmlns="http://www.w3.org/2000/svg"> 
	
    <!-- Server settings  icons  -->
    
	<symbol id="s3storage" viewBox="0 0 186 91"><g id="b"><ellipse cx="39.532" cy="13.879" rx="34.935" ry="7.759" fill="none" stroke="#69a93c" stroke-miterlimit="10" stroke-width="4"/><path d="M39.648,44.994c-2.501-.012-4.533-2.037-4.533-4.528s2.043-4.529,4.555-4.529,4.555,2.031,4.555,4.529c0,.412-.074.804-.178,1.184,9.606,12.308,17.947,18.877,23.814,21.521l6.64-42.574s-4.345,5.729-36.24,6.119c-26.703,0-33.697-6.119-33.697-6.119l9.668,59.936c.232,1.437,1.332,2.588,2.773,2.899l2.476.535c13.213,2.853,26.893,2.872,40.113.055l2.776-.592c1.452-.309,2.559-1.47,2.785-2.919l1.827-11.715c-8.015-3.087-17.724-11.489-27.335-23.801Z" fill="#69a93c"/><path d="M70.259,66.945c.498.124.976.219,1.434.285s.895.104,1.311.115.811-.005,1.183-.046.723-.108,1.052-.2.633-.207.915-.345.541-.299.775-.481.445-.386.63-.61.346-.468.481-.73.245-.544.328-.842.14-.614.17-.946.033-.679.008-1.041-.077-.738-.158-1.128-.19-.792-.329-1.207-.306-.841-.503-1.277-.425-.884-.683-1.339-.546-.921-.866-1.393-.671-.953-1.054-1.439-.798-.979-1.246-1.476" fill="none" stroke="#69a93c" stroke-linecap="round" stroke-miterlimit="10" stroke-width="5"/></g><g id="c"><path d="M124.346,64c-3.121,0-5.731-.459-7.827-1.374-2.098-.918-3.692-2.117-4.782-3.601-1.091-1.483-1.669-3.042-1.737-4.675,0-.299.101-.549.302-.749.202-.2.454-.301.756-.301h4.479c.436,0,.763.093.982.276.217.184.411.408.579.674.202.634.587,1.259,1.157,1.876s1.351,1.125,2.341,1.524c.989.401,2.24.6,3.75.6,2.416,0,4.219-.399,5.411-1.199,1.19-.801,1.787-1.883,1.787-3.25,0-.966-.32-1.742-.956-2.325-.638-.582-1.62-1.116-2.945-1.599-1.326-.483-3.078-.992-5.26-1.526-2.517-.6-4.623-1.324-6.317-2.175-1.695-.85-2.97-1.925-3.825-3.225-.856-1.3-1.284-2.95-1.284-4.95,0-1.933.528-3.65,1.586-5.15,1.057-1.5,2.566-2.683,4.529-3.55,1.963-.866,4.304-1.3,7.022-1.3,2.181,0,4.111.292,5.789.875,1.677.584,3.07,1.35,4.177,2.3,1.107.95,1.955,1.967,2.542,3.05.587,1.083.898,2.142.932,3.175,0,.268-.093.509-.278.725-.184.217-.444.325-.78.325h-4.681c-.268,0-.537-.067-.805-.2-.269-.133-.487-.382-.654-.75-.202-1.033-.856-1.917-1.963-2.65-1.107-.733-2.535-1.1-4.279-1.1-1.812,0-3.272.334-4.379,1-1.108.667-1.661,1.7-1.661,3.1,0,.934.276,1.708.831,2.325.553.617,1.442,1.159,2.668,1.625,1.225.467,2.844.967,4.857,1.5,2.852.634,5.185,1.367,6.996,2.2,1.813.833,3.138,1.892,3.976,3.175.839,1.284,1.259,2.908,1.259,4.875,0,2.2-.596,4.075-1.787,5.625s-2.861,2.743-5.009,3.575c-2.147.833-4.647,1.25-7.499,1.25Z"/><path d="M156.158,64c-2.349,0-4.379-.284-6.09-.849-1.711-.568-3.13-1.308-4.253-2.226-1.125-.916-1.972-1.917-2.543-3s-.873-2.158-.905-3.226c0-.299.109-.541.327-.724s.478-.275.78-.275h4.53c.335,0,.621.067.855.199.235.134.436.401.604.8.302.901.797,1.617,1.485,2.15.687.534,1.485.909,2.391,1.125.905.218,1.862.326,2.868.326,2.014,0,3.616-.476,4.807-1.425,1.191-.95,1.787-2.308,1.787-4.075s-.553-3.042-1.661-3.825c-1.107-.782-2.651-1.175-4.631-1.175h-5.184c-.37,0-.672-.108-.906-.326-.236-.216-.352-.508-.352-.875v-2.1c0-.333.076-.625.226-.875.152-.25.31-.458.478-.625l9.01-8.75h-14.395c-.37,0-.664-.116-.881-.35-.219-.233-.328-.516-.328-.85v-3.3c0-.367.109-.666.328-.9.217-.232.511-.35.881-.35h21.593c.369,0,.671.117.906.35.235.234.352.534.352.9v3c0,.3-.068.567-.202.8-.134.233-.286.433-.453.6l-8.709,8.9.604.05c2.047.167,3.868.625,5.461,1.375,1.593.75,2.836,1.842,3.726,3.275.888,1.434,1.333,3.235,1.333,5.401,0,2.267-.596,4.208-1.787,5.825-1.191,1.617-2.827,2.859-4.907,3.725-2.081.867-4.464,1.3-7.148,1.3Z"/></g>
	</symbol>

    <symbol id="googlecloud" viewBox="0 0 279 50"><path d="M180.695,38.24c-9.242.214-16.908-7.095-17.122-16.326-.007-.304-.006-.609.004-.913-.119-4.56,1.64-8.97,4.865-12.199,3.215-3.285,7.656-5.083,12.253-4.96,4.613-.114,9.029,1.864,12.013,5.38l-2.943,2.94c-2.188-2.763-5.543-4.346-9.07-4.28-3.427-.084-6.737,1.248-9.15,3.68-2.465,2.511-3.783,5.926-3.644,9.439-.151,3.527,1.169,6.959,3.644,9.479,2.408,2.44,5.721,3.773,9.15,3.68,3.898-.019,7.578-1.798,10.011-4.84l3.083,3c-1.561,1.864-3.526,3.348-5.746,4.34-2.304,1.056-4.813,1.596-7.348,1.58ZM201.457,4.582v32.938h-4.245V4.582h4.245ZM205.101,26.241c-.093-3.189,1.088-6.283,3.284-8.6,2.175-2.251,5.198-3.485,8.329-3.4,3.12-.089,6.132,1.146,8.289,3.4,2.218,2.304,3.41,5.405,3.304,8.6.118,3.196-1.076,6.302-3.304,8.6-2.151,2.262-5.167,3.499-8.289,3.4-3.133.095-6.16-1.14-8.329-3.4-2.195-2.317-3.377-5.411-3.284-8.6ZM209.346,26.241c-.097,2.163.665,4.277,2.122,5.88,2.73,2.894,7.292,3.029,10.189.302.104-.098.205-.198.302-.302,1.457-1.603,2.22-3.717,2.122-5.88.093-2.15-.67-4.25-2.122-5.84-2.665-2.894-7.174-3.082-10.071-.42-.146.134-.286.274-.42.42-1.453,1.59-2.216,3.689-2.122,5.84ZM251.732,37.52h-4.004v-3.14h-.2c-.716,1.174-1.741,2.129-2.963,2.76-1.27.719-2.705,1.098-4.165,1.1-2.368.153-4.689-.705-6.387-2.36-1.586-1.874-2.383-4.29-2.222-6.74v-14.139h4.225v13.879c-.321,2.731,1.636,5.206,4.37,5.526.404.047.812.045,1.216-.007,1.644.029,3.206-.711,4.225-2,1.142-1.374,1.747-3.115,1.702-4.9v-12.499h4.245l-.04,22.519ZM266.067,38.24c-2.916,0-5.687-1.271-7.588-3.48-2.103-2.336-3.247-5.378-3.203-8.52-.069-3.125,1.047-6.161,3.123-8.5,1.887-2.229,4.665-3.51,7.588-3.5,1.579-.027,3.141.337,4.545,1.06,1.286.633,2.379,1.6,3.163,2.8h.18l-.1-3.1V4.582h4.225v32.938h-4.004v-3.14h-.18c-.784,1.199-1.877,2.166-3.163,2.8-1.416.729-2.992,1.093-4.585,1.06ZM266.768,34.381c1.958.063,3.837-.769,5.106-2.26,1.4-1.629,2.118-3.735,2.002-5.88.097-2.13-.619-4.216-2.002-5.84-1.264-1.501-3.142-2.347-5.106-2.3-1.96-.03-3.831.813-5.106,2.3-1.383,1.623-2.099,3.71-2.002,5.84-.111,2.132.606,4.224,2.002,5.84,1.275,1.487,3.146,2.33,5.106,2.3Z" fill="#5f6368"/><g id="b"><path d="M20.001,38.24c-10.368.034-18.836-8.264-19.001-18.619C1.164,9.267,9.633.968,20.001,1.002c4.796-.08,9.422,1.773,12.834,5.14l-3.624,3.58c-2.471-2.377-5.78-3.684-9.21-3.64-7.398-.023-13.413,5.949-13.435,13.338,0,.067,0,.134,0,.201-.088,7.389,5.836,13.45,13.233,13.538.067,0,.134.001.201,0,3.538.145,6.972-1.214,9.45-3.74,1.634-1.76,2.616-4.025,2.783-6.42h-12.233v-5.06h17.219c.188,1.049.275,2.114.26,3.18.136,4.389-1.461,8.655-4.445,11.879-3.397,3.525-8.14,5.431-13.034,5.24Z" fill="#4285f4"/><path d="M64.108,26.241c.269,6.555-4.832,12.088-11.395,12.357-6.563.269-12.101-4.827-12.371-11.382-.013-.325-.013-.65,0-.975-.269-6.555,4.832-12.088,11.395-12.357,6.563-.269,12.101,4.827,12.371,11.382.013.325.013.65,0,.975ZM58.903,26.241c.35-3.684-2.355-6.953-6.043-7.303-3.688-.35-6.961,2.353-7.311,6.036-.04.421-.04.845,0,1.267-.35,3.684,2.355,6.953,6.043,7.303,3.688.35,6.961-2.353,7.311-6.036.04-.421.04-.845,0-1.267Z" fill="#ea4335"/><path d="M90.757,26.241c.269,6.555-4.832,12.088-11.395,12.357-6.563.269-12.101-4.827-12.371-11.382-.013-.325-.013-.65,0-.975-.269-6.555,4.832-12.088,11.395-12.357,6.563-.269,12.101,4.827,12.371,11.382.013.325.013.65,0,.975ZM85.552,26.241c.286-3.689-2.476-6.911-6.169-7.197-3.693-.286-6.919,2.473-7.205,6.162-.027.344-.027.69,0,1.035-.286,3.689,2.476,6.911,6.169,7.197,3.693.286,6.919-2.473,7.205-6.162.027-.344.027-.69,0-1.035Z" fill="#fbbc04"/><path d="M116.725,15.002v21.519c0,8.84-5.266,12.479-11.472,12.479-4.672.026-8.896-2.771-10.692-7.08l4.625-2c.953,2.507,3.323,4.196,6.007,4.28,4.004,0,6.447-2.46,6.447-7.04v-1.72h-.12c-1.621,1.827-3.963,2.851-6.407,2.8-6.635,0-12.013-5.372-12.013-11.999s5.378-11.999,12.013-11.999c2.434-.045,4.769.961,6.407,2.76h.18v-2h5.025ZM112.06,26.321c.303-3.732-2.481-7.003-6.217-7.305-.077-.006-.153-.011-.23-.015-3.846.138-6.851,3.364-6.712,7.206.001.038.003.076.005.114-.178,3.806,2.766,7.037,6.577,7.215.043.002.087.004.13.005,3.702-.131,6.596-3.235,6.465-6.933-.004-.102-.01-.204-.018-.306v.02Z" fill="#4285f4"/><path d="M125.995,2.282v35.238h-5.286V2.282h5.286Z" fill="#34a853"/><path d="M146.818,30.201l4.124,2.8c-2.236,3.334-5.993,5.33-10.011,5.32-6.424.092-11.706-5.035-11.798-11.452-.003-.182,0-.365.005-.547-.527-6.074,3.975-11.425,10.056-11.951,5.125-.444,9.879,2.704,11.467,7.592l.541,1.38-16.017,6.62c1.021,2.293,3.336,3.734,5.846,3.64,2.389-.054,4.578-1.341,5.786-3.4ZM134.184,25.881l10.772-4.44c-.881-1.627-2.639-2.583-4.485-2.44-3.634.162-6.449,3.236-6.287,6.866,0,.005,0,.009,0,.014Z" fill="#ea4335"/></g>
    </symbol>
    
   <symbol id="githubpages" viewBox="0 0 180 50">
	   <path d="M35.284,21.544h-14.958c-.386,0-.699.312-.699.697v7.292c0,.385.313.698.699.698h5.835v9.06s-1.31.445-4.932.445c-4.274,0-10.243-1.557-10.243-14.647s6.216-14.815,12.052-14.815c5.052,0,7.228.887,8.613,1.314.435.133.838-.299.838-.684l1.669-7.046c0-.18-.061-.397-.267-.544-.562-.4-3.994-2.314-12.661-2.314C11.243,1,1,5.236,1,25.601s11.727,23.399,21.609,23.399c8.182,0,13.146-3.487,13.146-3.487.204-.113.227-.398.227-.528v-22.743c0-.385-.313-.697-.699-.697Z"/><path d="M112.369,3.44c0-.388-.308-.701-.694-.701h-8.422c-.385,0-.698.313-.698.701,0,.002.002,16.23.002,16.23h-13.128V3.44c0-.388-.31-.701-.695-.701h-8.422c-.383,0-.696.313-.696.701v43.945c0,.388.312.703.696.703h8.422c.385,0,.695-.315.695-.703v-18.797h13.128s-.023,18.796-.023,18.797c0,.388.312.703.698.703h8.442c.386,0,.694-.315.695-.703V3.44Z"/><path d="M51.176,9.207c0-3.024-2.431-5.467-5.431-5.467s-5.43,2.444-5.43,5.467,2.433,5.471,5.43,5.471,5.431-2.45,5.431-5.471Z"/><path d="M50.574,38.115v-20.285c0-.385-.312-.7-.697-.7h-8.396c-.385,0-.73.396-.73.781v29.063c0,.854.534,1.108,1.224,1.108h7.564c.83,0,1.033-.406,1.033-1.122v-8.845Z"/><path d="M144.377,17.196h-8.358c-.383,0-.695.315-.695.703v21.548s-2.123,1.549-5.137,1.549-3.813-1.364-3.813-4.306v-18.791c0-.388-.311-.703-.695-.703h-8.482c-.383,0-.696.315-.696.703v20.214c0,8.739,4.885,10.878,11.604,10.878,5.513,0,9.957-3.037,9.957-3.037,0,0,.212,1.6.307,1.79.096.189.345.38.615.38l5.396-.024c.383,0,.696-.315.696-.702l-.003-29.5c0-.388-.312-.703-.697-.703Z"/><path d="M167.22,16.209c-4.747,0-7.975,2.112-7.975,2.112V3.44c0-.388-.311-.701-.695-.701h-8.446c-.384,0-.696.313-.696.701v43.945c0,.388.312.703.697.703h5.86c.264,0,.464-.136.611-.373.146-.236.356-2.026.356-2.026,0,0,3.453,3.264,9.991,3.264,7.675,0,12.077-3.882,12.077-17.428s-7.03-15.316-11.78-15.316ZM163.923,40.969c-2.899-.088-4.865-1.4-4.865-1.4v-13.917s1.94-1.185,4.32-1.397c3.01-.269,5.91.638,5.91,7.797,0,7.549-1.309,9.039-5.364,8.917Z"/><path d="M74.78,17.126h-6.318s-.009-8.321-.009-8.322c0-.315-.163-.472-.528-.472h-8.609c-.335,0-.514.147-.514.468v8.6s-4.315,1.039-4.606,1.122c-.29.084-.504.351-.504.67v5.404c0,.389.311.702.696.702h4.414v13.002c0,9.657,6.793,10.605,11.377,10.605,2.095,0,4.6-.671,5.014-.823.25-.092.396-.35.396-.63l.007-5.945c0-.388-.328-.702-.698-.702s-1.31.149-2.28.149c-3.103,0-4.155-1.439-4.155-3.301s0-12.356,0-12.356h6.318c.385,0,.697-.314.697-.702v-6.769c0-.388-.312-.7-.697-.7Z"/>
   </symbol>
    
    <symbol id="netlify" viewBox="0 0 304 125"><defs><clipPath id="b"><rect x="1" y="1" width="302" height="123" fill="none"/></clipPath></defs><g clip-path="url(#b)"><path d="M69.977,123.356v-31.072l.644-.644h7.772l.644.644v31.072l-.644.644h-7.772l-.644-.644Z" fill="#05bdba"/><path d="M69.977,32.716V1.644l.644-.644h7.772l.644.644v31.072l-.644.644h-7.772l-.644-.644Z" fill="#05bdba"/><path d="M43.23,101.512h-1.067l-5.345-5.343v-1.067l10.016-10.022,5.657.01.755.745v5.655l-10.016,10.022Z" fill="#05bdba"/><path d="M36.817,30.18v-1.077l5.345-5.333h1.067l10.016,10.012v5.645l-.755.765h-5.657l-10.016-10.012Z" fill="#05bdba"/><path d="M1.644,57.962h44.042l.644.644v7.778l-.644.644H1.644l-.644-.644v-7.778l.644-.644Z" fill="#05bdba"/><path d="M302.345,57.972l.644.644v7.768l-.644.644h-44.685l-.644-.644,3.231-7.768.644-.644h41.454Z" fill="#05bdba"/><path d="M89.083,78.69h-7.772l-.644-.644v-18.182c0-3.24-1.268-5.745-5.174-5.826-2.013-.05-4.309,0-6.765.101l-.373.372v23.525l-.644.644h-7.771l-.644-.644v-31.072l.644-.644h17.486c6.795,0,12.301,5.504,12.301,12.296v19.42l-.644.644v.01Z"/><path d="M126.723,65.086l-.644.644h-20.093l-.644.644c0,1.298,1.299,5.182,6.483,5.182,1.943,0,3.886-.644,4.54-1.942l.644-.644h7.772l.644.644c-.644,3.884-3.886,9.72-13.61,9.72-11.013,0-16.197-7.768-16.197-16.844s5.184-16.844,15.553-16.844,15.553,7.768,15.553,16.844v2.596ZM116.998,58.606c0-.644-.644-5.182-5.829-5.182s-5.829,4.538-5.829,5.182l.644.644h10.369l.644-.644Z"/><path d="M144.863,68.97c0,1.298.644,1.942,1.943,1.942h5.829l.644.644v6.48l-.644.644h-5.829c-5.829,0-11.014-2.596-11.014-9.72v-14.248l-.644-.644h-4.539l-.644-.644v-6.48l.644-.644h4.539l.644-.644v-5.826l.644-.644h7.772l.644.644v5.826l.644.644h7.128l.644.644v6.48l-.644.644h-7.128l-.644.644v14.248l.011.01Z"/><path d="M168.841,78.69h-7.771l-.645-.644v-44.052l.645-.644h7.771l.644.644v44.042l-.644.644v.01Z"/><path d="M186.337,41.118h-7.772l-.644-.644v-6.48l.644-.644h7.772l.644.644v6.48l-.644.644ZM186.337,78.69h-7.772l-.644-.644v-31.092l.644-.644h7.772l.644.644v31.092l-.644.644Z"/><path d="M216.799,33.994v6.48l-.644.644h-5.829c-1.299,0-1.943.644-1.943,1.942v2.596l.644.644h6.484l.644.644v6.48l-.644.644h-6.484l-.644.644v23.314l-.644.644h-7.772l-.644-.644v-23.314l-.644-.644h-4.539l-.645-.644v-6.48l.645-.644h4.539l.644-.644v-2.596c0-7.124,5.185-9.72,11.014-9.72h5.828l.645.644-.011.01Z"/><path d="M240.768,79.334c-2.598,6.48-5.185,10.364-14.254,10.364h-3.242l-.644-.644v-6.48l.644-.644h3.242c3.241,0,3.886-.644,4.539-2.586v-.644l-10.368-25.266v-6.48l.644-.644h5.829l.644.644,7.772,22.026h.644l7.772-22.026.644-.644h5.829l.644.644v6.48l-10.369,25.91.031-.01Z"/></g>
</symbol>	
    
    <symbol id="sftp" viewBox="0 0 79 48">
       <path d="M22.31,22.85C22.77,23.6,23,24.52,23,25.62c0,1-0.27,1.93-0.82,2.8c-0.55,0.87-1.32,1.52-2.33,1.94
	c-1,0.42-2.25,0.64-3.75,0.64c-2.18,0-3.85-0.51-5.01-1.52c-1.17-1.02-1.86-2.5-2.09-4.44l3.38-0.33c0.2,1.15,0.62,1.99,1.24,2.53
	c0.62,0.54,1.46,0.81,2.52,0.81c1.12,0,1.96-0.24,2.53-0.72c0.57-0.48,0.85-1.04,0.85-1.68c0-0.41-0.12-0.76-0.36-1.05
	c-0.24-0.29-0.66-0.54-1.25-0.75c-0.41-0.14-1.33-0.39-2.78-0.76c-1.86-0.47-3.17-1.04-3.92-1.72c-1.06-0.96-1.59-2.12-1.59-3.5
	c0-0.89,0.25-1.71,0.75-2.49c0.5-0.77,1.21-1.36,2.15-1.76c0.94-0.4,2.06-0.61,3.39-0.61c2.16,0,3.79,0.48,4.88,1.44
	s1.67,2.23,1.72,3.83l-3.48,0.15c-0.15-0.89-0.47-1.54-0.96-1.93s-1.22-0.59-2.2-0.59c-1.01,0-1.8,0.21-2.37,0.63
	c-0.37,0.27-0.55,0.63-0.55,1.08c0,0.41,0.17,0.76,0.52,1.06c0.44,0.37,1.5,0.76,3.19,1.16c1.69,0.4,2.94,0.82,3.75,1.25
	C21.22,21.52,21.85,22.11,22.31,22.85z M26,31h3.53v-7.65h7.31v-3.05h-7.31v-4.26H38V13H26V31z M41,16.05h5.23V31h3.56V16.05H55V13
	H41V16.05z M71,18.54c0,1.11-0.19,2.03-0.57,2.79c-0.38,0.75-0.86,1.34-1.44,1.77c-0.58,0.43-1.17,0.71-1.78,0.85
	c-0.82,0.17-2,0.26-3.55,0.26h-2.23V31H58V13h5.5c2.08,0,3.44,0.09,4.07,0.27c0.97,0.27,1.79,0.86,2.44,1.76
	C70.67,15.94,71,17.1,71,18.54z M67.47,18.59c0-0.65-0.18-1.19-0.54-1.62c-0.36-0.43-0.82-0.69-1.38-0.8
	c-0.41-0.08-1.23-0.12-2.46-0.12h-1.66v5.11h1.87c1.35,0,2.25-0.09,2.71-0.28c0.46-0.19,0.81-0.48,1.07-0.88
	C67.34,19.59,67.47,19.12,67.47,18.59z"/>
    </symbol>
        
    <symbol id="ftp" viewBox="0 0 79 48">
        <path d="M17,31h3.53v-7.65h7.31V20.3h-7.31v-4.26H29V13H17V31z M32,16.05h5.23V31h3.56V16.05H46V13H32V16.05z M62,18.54
	c0,1.11-0.19,2.03-0.57,2.79c-0.38,0.75-0.86,1.34-1.44,1.77s-1.17,0.71-1.78,0.85c-0.82,0.17-2,0.26-3.55,0.26h-2.23V31H49V13h5.5
	c2.08,0,3.44,0.09,4.07,0.27c0.97,0.27,1.79,0.86,2.44,1.76C61.67,15.94,62,17.1,62,18.54z M58.47,18.59c0-0.65-0.18-1.19-0.54-1.62
	s-0.82-0.69-1.38-0.8c-0.41-0.08-1.23-0.12-2.46-0.12h-1.66v5.11h1.87c1.35,0,2.25-0.09,2.71-0.28s0.81-0.48,1.07-0.88
	C58.34,19.59,58.47,19.12,58.47,18.59z"/>
    </symbol>
        
    <symbol id="zip" viewBox="0 0 186 91"><g id="b"><path d="M37,67h-2c-1.105,0-2,.895-2,2s.895,2,2,2h2c1.105,0,2-.895,2-2s-.895-2-2-2Z" fill="#f7c300"/><path d="M43,4H10c-1.657,0-3.157.672-4.243,1.757s-1.757,2.586-1.757,4.243v70c0,1.657.672,3.157,1.757,4.243,1.086,1.086,2.586,1.757,4.243,1.757h53c1.657,0,3.157-.672,4.243-1.757,1.086-1.086,1.757-2.586,1.757-4.243V26L43,4ZM40,73.818c0,1.205-.895,2.182-2,2.182h-4c-1.105,0-2-.977-2-2.182v-7.636c0-1.205.895-2.182,2-2.182h4c1.105,0,2,.977,2,2.182v7.636ZM38.5,60h-5c-.828,0-1.5-.672-1.5-1.5s.672-1.5,1.5-1.5h5c.828,0,1.5.672,1.5,1.5s-.672,1.5-1.5,1.5ZM38.5,53h-5c-.828,0-1.5-.672-1.5-1.5s.672-1.5,1.5-1.5h5c.828,0,1.5.672,1.5,1.5s-.672,1.5-1.5,1.5ZM38.5,46h-5c-.828,0-1.5-.672-1.5-1.5s.672-1.5,1.5-1.5h5c.828,0,1.5.672,1.5,1.5s-.672,1.5-1.5,1.5ZM38.5,39h-5c-.828,0-1.5-.672-1.5-1.5s.672-1.5,1.5-1.5h5c.828,0,1.5.672,1.5,1.5s-.672,1.5-1.5,1.5Z" fill="#f7c300"/><polygon points="69 26 43 26 43 4 69 26" fill="#ffd84a"/><polygon points="43 26 69 26 69 48 43 26" fill="#dbac00"/></g><g id="c"><path d="M110.4,51.268h-4.776c-.319,0-.59.113-.813.337s-.333.513-.333.864v4.762c0,.319.11.591.333.815.223.227.493.337.813.337h4.776c.316,0,.587-.111.813-.337.223-.224.333-.497.333-.815v-4.762c0-.351-.11-.64-.333-.864-.225-.224-.496-.337-.813-.337Z"/><path d="M136.717,53.385h-12.465l11.94-14.424c.19-.256.351-.497.477-.721s.19-.481.19-.769v-2.933c0-.32-.102-.593-.308-.817-.209-.224-.488-.337-.837-.337h-18.103c-.319,0-.59.113-.81.337-.225.224-.335.497-.335.817v2.693c0,.352.11.633.335.841.22.209.491.313.81.313h11.368l-12.227,14.568c-.161.192-.311.424-.453.696-.145.273-.217.553-.217.84v2.743c0,.319.105.591.311.815.207.227.485.337.837.337h19.486c.316,0,.587-.111.813-.337.223-.224.333-.497.333-.815v-2.694c0-.351-.11-.632-.333-.84-.225-.208-.496-.313-.813-.313Z"/><path d="M147.557,33.384h-3.964c-.319,0-.59.113-.813.337s-.335.497-.335.817v22.694c0,.319.113.591.335.815.223.227.493.337.813.337h3.964c.349,0,.628-.111.837-.337.207-.224.308-.497.308-.815v-22.694c0-.32-.102-.593-.308-.817-.209-.224-.488-.337-.837-.337Z"/><path d="M147.748,23.48h-4.345c-.351,0-.63.113-.837.336-.207.225-.311.498-.311.818v3.461c0,.354.105.634.311.842s.485.312.837.312h4.345c.351,0,.638-.104.861-.312s.333-.489.333-.842v-3.461c0-.32-.11-.593-.333-.818-.223-.223-.51-.336-.861-.336Z"/><path d="M178.747,44.202c-.064-1.667-.319-3.19-.764-4.568-.448-1.378-1.083-2.573-1.912-3.582-.826-1.01-1.861-1.786-3.103-2.331s-2.706-.818-4.396-.818c-1.845,0-3.39.337-4.632,1.01-1.242.674-2.245,1.523-3.009,2.548v-1.923c0-.32-.105-.593-.311-.817s-.485-.337-.834-.337h-3.773c-.319,0-.59.113-.813.337s-.335.497-.335.817v31.827c0,.321.113.594.335.818s.493.337.813.337h4.058c.351,0,.63-.113.837-.337s.311-.497.311-.818v-10.912c.764,1.026,1.751,1.849,2.961,2.476,1.21.624,2.674.937,4.393.937,1.69,0,3.154-.289,4.396-.864,1.242-.578,2.285-1.371,3.127-2.381.845-1.01,1.488-2.195,1.936-3.558.445-1.361.684-2.843.716-4.446.03-.578.048-1.153.048-1.73s-.019-1.138-.048-1.683ZM172.252,47.327c-.064,1.153-.263,2.211-.598,3.172s-.882,1.739-1.647,2.332-1.832.891-3.199.891c-1.274,0-2.309-.289-3.106-.867s-1.403-1.307-1.816-2.187c-.413-.883-.636-1.803-.668-2.764-.032-.61-.048-1.236-.048-1.876s.016-1.25.048-1.826c.062-.993.279-1.964.644-2.909.367-.945.955-1.722,1.767-2.332.813-.609,1.872-.914,3.178-.914,1.368,0,2.435.297,3.199.89.764.594,1.311,1.37,1.647,2.332.335.961.534,2.019.598,3.173.062.962.062,1.923,0,2.885Z"/></g>
    </symbol>
        
    <symbol id="gitlab" viewBox="0 0 224 50">
	    <path d="M90.631,19.083h7.288c-1.215-7.751-7.924-13.15-16.659-13.15-10.334,0-18.085,7.597-18.085,20.322,0,12.494,7.404,20.245,18.297,20.245,9.775,0,16.774-6.286,16.774-16.466v-4.743h-16.022v5.591h9.101c-.116,5.63-3.875,9.197-9.814,9.197-6.613,0-11.144-4.955-11.144-13.901,0-8.888,4.608-13.824,10.99-13.824,4.762,0,8.002,2.545,9.274,6.729Z"/><path d="M103.064,45.96h6.98v-29.615h-6.98v29.615ZM106.573,11.655c2.217,0,4.03-1.697,4.03-3.779,0-2.102-1.812-3.798-4.03-3.798-2.237,0-4.049,1.697-4.049,3.798,0,2.082,1.813,3.779,4.049,3.779Z"/><path d="M130.944,16.345h-5.842v-7.095h-6.98v7.095h-4.203v5.399h4.203v16.466c-.038,5.572,4.01,8.31,9.255,8.156,1.986-.058,3.355-.443,4.107-.694l-1.176-5.456c-.386.096-1.176.27-2.044.27-1.754,0-3.162-.617-3.162-3.432v-15.309h5.842v-5.399Z"/><path d="M136.346,45.96h24.545v-5.996h-17.391V6.473h-7.153v39.487Z"/><path d="M174.258,46.558c4.647,0,7.423-2.179,8.695-4.666h.231v4.068h6.71v-19.821c0-7.828-6.382-10.18-12.031-10.18-6.228,0-11.01,2.776-12.552,8.175l6.517.925c.694-2.024,2.66-3.76,6.073-3.76,3.239,0,5.013,1.658,5.013,4.57v.116c0,2.005-2.102,2.102-7.327,2.661-5.746.617-11.241,2.333-11.241,9.004,0,5.823,4.261,8.908,9.91,8.908ZM176.552,41.429c-2.911,0-4.994-1.33-4.994-3.895,0-2.68,2.333-3.798,5.457-4.242,1.832-.251,5.495-.713,6.401-1.446v3.49c0,3.297-2.661,6.093-6.864,6.093Z"/><path d="M195.043,45.96h6.864v-4.666h.405c1.099,2.159,3.394,5.186,8.484,5.186,6.98,0,12.205-5.533,12.205-15.29,0-9.872-5.379-15.232-12.224-15.232-5.225,0-7.404,3.143-8.464,5.283h-.289V6.473h-6.98v39.487ZM201.888,31.152c0-5.746,2.468-9.467,6.96-9.467,4.647,0,7.038,3.953,7.038,9.467,0,5.553-2.429,9.602-7.038,9.602-4.454,0-6.96-3.856-6.96-9.602Z"/><path d="M50.003,19.999l-.068-.179-6.784-17.699c-.136-.347-.379-.639-.697-.841-.316-.203-.687-.298-1.063-.278-.374.02-.733.157-1.027.39-.291.235-.501.554-.6.913l-4.58,14.018h-18.531L12.072,2.306c-.099-.359-.309-.678-.6-.913-.293-.233-.653-.37-1.027-.39-.376-.02-.747.076-1.063.278-.317.202-.561.494-.697.841L1.902,19.822l-.068.178c-2.01,5.243-.297,11.171,4.179,14.556.008.005.016.012.024.018l.06.045,10.333,7.736,5.111,3.869,3.11,2.352c.749.567,1.785.567,2.534,0l3.11-2.352,5.11-3.869,10.394-7.781c.009-.007.018-.014.027-.021,4.473-3.386,6.185-9.311,4.176-14.553Z" fill="#e24329"/><path d="M50.003,19.999l-.068-.179c-3.366.691-6.465,2.115-9.12,4.101-.043.032-8.066,6.099-14.897,11.263,5.072,3.835,9.487,7.169,9.487,7.169l10.394-7.781c.009-.007.018-.014.027-.021,4.473-3.386,6.185-9.311,4.176-14.553Z" fill="#fc6d26"/><path d="M16.43,42.354l5.111,3.869,3.11,2.352c.749.567,1.785.567,2.534,0l3.11-2.352,5.11-3.869s-4.415-3.334-9.487-7.169c-5.073,3.835-9.488,7.169-9.488,7.169Z" fill="#fca326"/><path d="M11.021,23.922c-2.653-1.985-5.752-3.41-9.118-4.1l-.068.178c-2.01,5.243-.297,11.171,4.179,14.556.008.005.016.012.024.018l.06.045,10.333,7.736s4.415-3.334,9.488-7.169c-6.831-5.164-14.855-11.232-14.898-11.263Z" fill="#fc6d26"/>
    </symbol>

	<symbol id="deployment-others" viewBox="0 0 29 29">
	   <path d="M25,16v9.58A2.42,2.42,0,0,1,22.55,28H3.42a2.44,2.44,0,0,1-2.23-1.48A2.36,2.36,0,0,1,1,25.58V6.42a2.41,2.41,0,0,1,.71-1.71,2.45,2.45,0,0,1,.76-.52A2.37,2.37,0,0,1,3.42,4H13a1,1,0,0,1,0,2H3.26A.37.37,0,0,0,3,6.23a.43.43,0,0,0,0,.16V25.58a.43.43,0,0,0,0,.16.37.37,0,0,0,.23.23.43.43,0,0,0,.16,0H22.58a.39.39,0,0,0,.3-.12.42.42,0,0,0,.09-.14.43.43,0,0,0,0-.16V16a1,1,0,0,1,2,0ZM27.71,1.29A1,1,0,0,0,27,1H21.13a1,1,0,0,0,0,2h3.45l-8.79,8.79a1,1,0,0,0,0,1.41h0a1,1,0,0,0,1.41,0h0L26,4.42V7.87a1,1,0,1,0,2,0V2A1,1,0,0,0,27.71,1.29Z"/>
	</symbol>

    <symbol id="git" viewBox="0 0 224 48">
      <path d="M11,33.2c-2,0-3.8-0.3-5.2-1c-1.5-0.7-2.6-1.7-3.4-3c-0.8-1.3-1.2-2.9-1.3-4.8c0-0.9,0-1.9,0-3s0-2,0-3
	c0.1-1.8,0.5-3.4,1.3-4.7c0.8-1.3,1.9-2.2,3.4-2.9c1.5-0.7,3.2-1,5.2-1c1.6,0,3,0.2,4.3,0.6c1.2,0.4,2.3,0.9,3.1,1.6
	c0.8,0.7,1.5,1.4,1.9,2.2c0.4,0.8,0.7,1.6,0.7,2.4c0,0.2,0,0.4-0.2,0.5c-0.1,0.1-0.3,0.2-0.5,0.2h-4.7c-0.2,0-0.4,0-0.5-0.1
	c-0.1-0.1-0.2-0.2-0.3-0.3c-0.1-0.3-0.4-0.7-0.7-1c-0.3-0.4-0.7-0.7-1.2-0.9c-0.5-0.3-1.2-0.4-2-0.4c-1.2,0-2.2,0.3-2.9,1
	C7.4,16.1,7,17.1,7,18.6c-0.1,1.9-0.1,3.7,0,5.6c0.1,1.5,0.5,2.6,1.2,3.3c0.7,0.7,1.7,1,2.9,1c0.8,0,1.5-0.1,2.2-0.4
	c0.6-0.3,1.1-0.7,1.5-1.3c0.4-0.6,0.5-1.4,0.5-2.3v-0.6h-3c-0.2,0-0.4-0.1-0.6-0.2c-0.2-0.2-0.2-0.4-0.2-0.6v-2.4
	c0-0.2,0.1-0.4,0.2-0.6c0.2-0.2,0.4-0.2,0.6-0.2h8.1c0.2,0,0.4,0.1,0.6,0.2c0.1,0.2,0.2,0.4,0.2,0.6v3.7c0,1.9-0.4,3.4-1.2,4.8
	c-0.8,1.3-2,2.3-3.5,3C14.8,32.8,13,33.2,11,33.2z M24.4,13.5c-0.2,0-0.4-0.1-0.6-0.2c-0.1-0.2-0.2-0.3-0.2-0.6V9.8
	c0-0.2,0.1-0.4,0.2-0.6C23.9,9.1,24.1,9,24.4,9h3.8c0.2,0,0.4,0.1,0.6,0.2C28.9,9.4,29,9.6,29,9.8v2.9c0,0.2-0.1,0.4-0.2,0.6
	c-0.2,0.2-0.4,0.2-0.6,0.2H24.4z M24.4,32.8c-0.2,0-0.4-0.1-0.6-0.2c-0.1-0.2-0.2-0.3-0.2-0.6V16.8c0-0.2,0.1-0.4,0.2-0.6
	C24,16,24.2,16,24.4,16h3.8c0.2,0,0.4,0.1,0.6,0.2c0.2,0.2,0.2,0.3,0.2,0.6V32c0,0.2-0.1,0.4-0.2,0.6c-0.2,0.2-0.3,0.2-0.6,0.2H24.4
	z M40.4,32.8c-1.4,0-2.5-0.2-3.5-0.7c-1-0.4-1.8-1.1-2.3-2.1c-0.5-0.9-0.8-2.2-0.8-3.6v-6.2h-2.5c-0.2,0-0.4-0.1-0.6-0.2
	c-0.2-0.2-0.2-0.3-0.2-0.6v-2.6c0-0.2,0.1-0.4,0.2-0.6c0.2-0.2,0.4-0.2,0.6-0.2h2.5v-5.4c0-0.2,0.1-0.4,0.2-0.6
	c0.2-0.2,0.3-0.2,0.6-0.2h3.7c0.2,0,0.4,0.1,0.6,0.2c0.1,0.2,0.2,0.3,0.2,0.6V16h4c0.2,0,0.4,0.1,0.6,0.2c0.1,0.2,0.2,0.3,0.2,0.6
	v2.6c0,0.2-0.1,0.4-0.2,0.6c-0.1,0.2-0.3,0.2-0.6,0.2h-4V26c0,0.7,0.1,1.3,0.4,1.8c0.3,0.4,0.7,0.6,1.4,0.6h2.5
	c0.2,0,0.4,0.1,0.6,0.2c0.1,0.2,0.2,0.3,0.2,0.6V32c0,0.2-0.1,0.4-0.2,0.6c-0.1,0.2-0.3,0.2-0.6,0.2H40.4z M48.8,18.8
	c-0.5,0-0.7-0.2-0.7-0.7V12h-1.7c-0.5,0-0.7-0.2-0.7-0.7v-0.4c0-0.5,0.2-0.7,0.7-0.7h5.2c0.5,0,0.7,0.2,0.7,0.7v0.4
	c0,0.5-0.2,0.7-0.7,0.7H50V18c0,0.5-0.2,0.7-0.7,0.7H48.8z M54,18.8c-0.5,0-0.7-0.2-0.7-0.7v-7.2c0-0.5,0.2-0.7,0.7-0.7h0.4
	c0.3,0,0.5,0.1,0.6,0.3c0.1,0.2,0.3,0.3,0.4,0.5l2,3.2l2-3.2c0.1-0.1,0.2-0.3,0.4-0.5c0.1-0.2,0.4-0.3,0.6-0.3h0.4
	c0.5,0,0.7,0.2,0.7,0.7V18c0,0.5-0.2,0.7-0.7,0.7h-0.4c-0.5,0-0.7-0.2-0.7-0.7v-4.2L58.4,16c-0.1,0.2-0.2,0.3-0.3,0.5
	c-0.1,0.1-0.3,0.2-0.5,0.2h-0.3c-0.2,0-0.4-0.1-0.5-0.2c-0.1-0.1-0.2-0.3-0.3-0.5l-1.3-2.2V18c0,0.5-0.2,0.7-0.7,0.7H54z M73.9,32.8
	c-0.2,0-0.4-0.1-0.5-0.2c-0.1-0.1-0.2-0.3-0.2-0.5V10.9c0-0.2,0.1-0.4,0.2-0.6c0.1-0.1,0.3-0.2,0.5-0.2h7.8c2.4,0,4.3,0.6,5.7,1.7
	c1.4,1.1,2.1,2.8,2.1,5.1c0,1.7-0.4,3-1.2,4.1c-0.8,1-1.9,1.8-3.3,2.2l4.9,8.6c0.1,0.1,0.1,0.2,0.1,0.4c0,0.2-0.1,0.3-0.2,0.5
	c-0.1,0.1-0.3,0.2-0.5,0.2h-1.5c-0.4,0-0.6-0.1-0.8-0.3c-0.2-0.2-0.3-0.4-0.4-0.6l-4.6-8.2h-5.6v8.4c0,0.2-0.1,0.4-0.2,0.5
	c-0.1,0.1-0.3,0.2-0.6,0.2H73.9z M76.3,21h5.3c1.6,0,2.8-0.3,3.6-1c0.8-0.7,1.2-1.7,1.2-3c0-1.3-0.4-2.3-1.2-3c-0.8-0.7-2-1-3.6-1
	h-5.3V21z M99.3,33.2c-2.2,0-3.9-0.7-5.2-2.1c-1.3-1.4-2-3.2-2.1-5.6c0-0.3,0-0.6,0-1.1c0-0.4,0-0.8,0-1.1c0.1-1.5,0.4-2.9,1.1-4
	c0.6-1.2,1.5-2,2.5-2.7c1.1-0.6,2.3-0.9,3.8-0.9c1.6,0,3,0.3,4.1,1c1.1,0.7,1.9,1.7,2.5,3c0.6,1.3,0.9,2.8,0.9,4.5v0.6
	c0,0.2-0.1,0.4-0.2,0.6c-0.1,0.1-0.3,0.2-0.5,0.2H94.9c0,0,0,0.1,0,0.1c0,0.1,0,0.1,0,0.2c0,0.9,0.2,1.7,0.6,2.5
	c0.3,0.8,0.8,1.4,1.5,1.9c0.6,0.5,1.4,0.7,2.3,0.7c0.8,0,1.4-0.1,1.9-0.4c0.5-0.2,0.9-0.5,1.2-0.8s0.5-0.5,0.6-0.7
	c0.2-0.3,0.3-0.4,0.4-0.5c0.1-0.1,0.3-0.1,0.5-0.1h1.5c0.2,0,0.4,0.1,0.5,0.2c0.1,0.1,0.2,0.3,0.2,0.5c0,0.3-0.2,0.7-0.5,1.2
	c-0.3,0.5-0.8,0.9-1.4,1.4c-0.6,0.5-1.3,0.8-2.2,1.1C101.4,33,100.4,33.2,99.3,33.2z M94.9,23.2h8.8v-0.1c0-1-0.2-1.8-0.5-2.6
	c-0.4-0.8-0.9-1.4-1.5-1.8c-0.7-0.4-1.4-0.7-2.4-0.7c-0.9,0-1.7,0.2-2.3,0.7c-0.6,0.4-1.1,1-1.5,1.8C95.1,21.2,94.9,22.1,94.9,23.2
	L94.9,23.2z M110.5,39c-0.2,0-0.4-0.1-0.5-0.2c-0.1-0.1-0.2-0.3-0.2-0.5V16.7c0-0.2,0.1-0.4,0.2-0.5c0.1-0.1,0.3-0.2,0.5-0.2h1.5
	c0.2,0,0.4,0.1,0.5,0.2c0.1,0.1,0.2,0.3,0.2,0.5v1.4c0.5-0.7,1.2-1.3,2-1.8c0.9-0.5,1.9-0.7,3.2-0.7c1.2,0,2.2,0.2,3.1,0.6
	c0.8,0.4,1.5,1,2.1,1.7c0.5,0.7,1,1.5,1.2,2.4c0.3,0.9,0.4,1.9,0.4,2.9c0,0.3,0,0.7,0,1.1s0,0.8,0,1.1c0,1-0.2,2-0.4,2.9
	c-0.3,0.9-0.7,1.7-1.2,2.4c-0.5,0.7-1.2,1.3-2.1,1.7c-0.8,0.4-1.9,0.6-3.1,0.6c-1.2,0-2.3-0.2-3.1-0.7c-0.8-0.5-1.5-1-2.1-1.7v7.5
	c0,0.2-0.1,0.4-0.2,0.5c-0.1,0.1-0.3,0.2-0.5,0.2H110.5z M117.3,30.5c1.1,0,2-0.2,2.6-0.7c0.6-0.5,1.1-1.1,1.4-1.9
	c0.3-0.8,0.4-1.6,0.5-2.5c0-0.6,0-1.3,0-1.9c0-0.9-0.2-1.8-0.5-2.5c-0.3-0.8-0.7-1.4-1.4-1.9c-0.6-0.5-1.5-0.7-2.6-0.7
	c-1,0-1.9,0.2-2.5,0.7c-0.7,0.5-1.1,1.1-1.4,1.9c-0.3,0.8-0.5,1.6-0.5,2.4c0,0.3,0,0.8,0,1.2c0,0.5,0,0.9,0,1.3
	c0,0.8,0.2,1.5,0.5,2.2c0.3,0.7,0.8,1.3,1.5,1.8C115.5,30.3,116.3,30.5,117.3,30.5z M134.8,33.2c-1.6,0-3-0.3-4.1-0.9
	c-1.1-0.6-1.9-1.5-2.5-2.6c-0.6-1.1-0.9-2.4-1-3.8c0-0.4,0-0.8,0-1.4c0-0.6,0-1,0-1.4c0.1-1.4,0.4-2.7,1-3.8c0.6-1.1,1.4-2,2.5-2.6
	c1.1-0.6,2.4-0.9,4-0.9c1.6,0,2.9,0.3,4,0.9c1.1,0.6,1.9,1.5,2.5,2.6c0.6,1.1,0.9,2.4,1,3.8c0,0.3,0,0.8,0,1.4c0,0.6,0,1,0,1.4
	c-0.1,1.4-0.4,2.7-1,3.8c-0.6,1.1-1.4,2-2.5,2.6C137.8,32.8,136.4,33.2,134.8,33.2z M134.8,30.7c1.3,0,2.4-0.4,3.2-1.3
	c0.8-0.9,1.2-2.1,1.3-3.7c0-0.3,0-0.7,0-1.2c0-0.5,0-0.9,0-1.2c-0.1-1.6-0.5-2.9-1.3-3.7c-0.8-0.9-1.8-1.3-3.2-1.3
	c-1.3,0-2.4,0.4-3.2,1.3c-0.8,0.9-1.2,2.1-1.3,3.7c0,0.3,0,0.7,0,1.2c0,0.5,0,0.9,0,1.2c0,1.6,0.5,2.9,1.3,3.7
	C132.4,30.2,133.5,30.7,134.8,30.7z M151.3,33.2c-1.2,0-2.2-0.2-3.1-0.5c-0.9-0.3-1.5-0.7-2.1-1.1c-0.5-0.4-0.9-0.9-1.2-1.3
	c-0.3-0.4-0.4-0.8-0.4-1c0-0.2,0.1-0.4,0.2-0.6c0.2-0.1,0.3-0.2,0.5-0.2h1.4c0.1,0,0.2,0,0.3,0c0.1,0,0.2,0.1,0.3,0.3
	c0.3,0.3,0.6,0.6,0.9,0.9c0.3,0.3,0.8,0.6,1.3,0.7c0.5,0.2,1.1,0.3,1.9,0.3c1.1,0,2-0.2,2.7-0.6c0.7-0.4,1.1-1,1.1-1.9
	c0-0.5-0.1-1-0.4-1.3c-0.3-0.3-0.8-0.6-1.5-0.9c-0.7-0.3-1.7-0.5-3-0.8c-1.3-0.3-2.3-0.7-3-1.1c-0.7-0.4-1.3-1-1.6-1.6
	c-0.3-0.6-0.5-1.3-0.5-2.1c0-0.8,0.2-1.6,0.7-2.3c0.5-0.7,1.2-1.4,2.1-1.8c0.9-0.5,2-0.7,3.4-0.7c1.1,0,2.1,0.1,2.8,0.4
	c0.8,0.3,1.4,0.6,1.9,1.1c0.5,0.4,0.9,0.8,1.2,1.2c0.3,0.4,0.4,0.8,0.4,1c0,0.2,0,0.4-0.2,0.5c-0.1,0.1-0.3,0.2-0.5,0.2h-1.3
	c-0.1,0-0.3,0-0.4-0.1c-0.1-0.1-0.2-0.1-0.3-0.2c-0.2-0.3-0.5-0.6-0.8-0.8c-0.3-0.3-0.7-0.5-1.1-0.7c-0.5-0.2-1.1-0.3-1.8-0.3
	c-1.1,0-1.9,0.2-2.4,0.7c-0.5,0.5-0.8,1-0.8,1.7c0,0.4,0.1,0.8,0.4,1.1c0.2,0.3,0.7,0.6,1.3,0.9c0.7,0.3,1.6,0.5,2.9,0.8
	c1.4,0.3,2.5,0.7,3.3,1.1c0.8,0.5,1.4,1,1.7,1.7c0.3,0.6,0.5,1.4,0.5,2.2c0,0.9-0.3,1.7-0.8,2.5c-0.5,0.8-1.3,1.4-2.3,1.8
	C154,32.9,152.8,33.2,151.3,33.2z M161.5,12.8c-0.2,0-0.4-0.1-0.5-0.2c-0.1-0.1-0.2-0.3-0.2-0.5v-1.8c0-0.2,0.1-0.4,0.2-0.5
	c0.1-0.1,0.3-0.2,0.5-0.2h2c0.2,0,0.4,0.1,0.5,0.2c0.1,0.1,0.2,0.3,0.2,0.5v1.8c0,0.2-0.1,0.4-0.2,0.5c-0.1,0.1-0.3,0.2-0.5,0.2
	H161.5z M161.8,32.8c-0.2,0-0.4-0.1-0.5-0.2c-0.1-0.1-0.2-0.3-0.2-0.5V16.7c0-0.2,0.1-0.4,0.2-0.5c0.1-0.1,0.3-0.2,0.5-0.2h1.5
	c0.2,0,0.4,0.1,0.5,0.2c0.1,0.1,0.2,0.3,0.2,0.5v15.4c0,0.2-0.1,0.4-0.2,0.5c-0.1,0.1-0.3,0.2-0.5,0.2H161.8z M174.5,32.8
	c-1.2,0-2.2-0.2-2.9-0.7c-0.7-0.5-1.3-1.1-1.6-2c-0.3-0.9-0.5-1.9-0.5-3v-8.6h-2.5c-0.2,0-0.4-0.1-0.5-0.2c-0.1-0.1-0.2-0.3-0.2-0.5
	v-1.1c0-0.2,0.1-0.4,0.2-0.5c0.1-0.1,0.3-0.2,0.5-0.2h2.5v-5.4c0-0.2,0.1-0.4,0.2-0.5c0.1-0.1,0.3-0.2,0.5-0.2h1.5
	c0.2,0,0.4,0.1,0.5,0.2c0.1,0.1,0.2,0.3,0.2,0.5V16h4c0.2,0,0.4,0.1,0.5,0.2c0.1,0.1,0.2,0.3,0.2,0.5v1.1c0,0.2-0.1,0.4-0.2,0.5
	c-0.1,0.1-0.3,0.2-0.5,0.2h-4v8.3c0,1,0.2,1.8,0.5,2.4c0.3,0.6,0.9,0.9,1.8,0.9h1.9c0.2,0,0.4,0.1,0.5,0.2c0.1,0.1,0.2,0.3,0.2,0.5
	v1.2c0,0.2-0.1,0.4-0.2,0.5c-0.1,0.1-0.3,0.2-0.5,0.2H174.5z M186.5,33.2c-1.6,0-3-0.3-4.1-0.9c-1.1-0.6-1.9-1.5-2.5-2.6
	c-0.6-1.1-0.9-2.4-1-3.8c0-0.4,0-0.8,0-1.4c0-0.6,0-1,0-1.4c0.1-1.4,0.4-2.7,1-3.8c0.6-1.1,1.4-2,2.5-2.6c1.1-0.6,2.4-0.9,4-0.9
	c1.6,0,2.9,0.3,4,0.9c1.1,0.6,1.9,1.5,2.5,2.6c0.6,1.1,0.9,2.4,1,3.8c0,0.3,0,0.8,0,1.4c0,0.6,0,1,0,1.4c-0.1,1.4-0.4,2.7-1,3.8
	c-0.6,1.1-1.4,2-2.5,2.6C189.4,32.8,188.1,33.2,186.5,33.2z M186.5,30.7c1.3,0,2.4-0.4,3.2-1.3c0.8-0.9,1.2-2.1,1.3-3.7
	c0-0.3,0-0.7,0-1.2c0-0.5,0-0.9,0-1.2c-0.1-1.6-0.5-2.9-1.3-3.7c-0.8-0.9-1.8-1.3-3.2-1.3c-1.3,0-2.4,0.4-3.2,1.3
	c-0.8,0.9-1.2,2.1-1.3,3.7c0,0.3,0,0.7,0,1.2c0,0.5,0,0.9,0,1.2c0,1.6,0.5,2.9,1.3,3.7C184.1,30.2,185.2,30.7,186.5,30.7z
	 M197.9,32.8c-0.2,0-0.4-0.1-0.5-0.2c-0.1-0.1-0.2-0.3-0.2-0.5V16.8c0-0.2,0.1-0.4,0.2-0.6c0.1-0.2,0.3-0.2,0.5-0.2h1.5
	c0.2,0,0.4,0.1,0.5,0.2c0.1,0.2,0.2,0.3,0.2,0.6v1.4c0.4-0.7,1-1.3,1.8-1.7c0.7-0.4,1.6-0.6,2.7-0.6h1.3c0.2,0,0.4,0.1,0.5,0.2
	c0.1,0.1,0.2,0.3,0.2,0.5V18c0,0.2-0.1,0.4-0.2,0.5s-0.3,0.2-0.5,0.2H204c-1.2,0-2.1,0.3-2.7,1c-0.7,0.7-1,1.6-1,2.8v9.5
	c0,0.2-0.1,0.4-0.2,0.5c-0.1,0.1-0.3,0.2-0.5,0.2H197.9z M211.5,39c-0.2,0-0.3-0.1-0.4-0.2c-0.1-0.1-0.2-0.3-0.2-0.5
	c0-0.1,0-0.2,0-0.3c0-0.1,0.1-0.2,0.1-0.3l2.5-5.9l-6.1-14.6c-0.1-0.3-0.2-0.4-0.2-0.6c0-0.2,0.1-0.4,0.2-0.5
	c0.1-0.1,0.3-0.2,0.5-0.2h1.6c0.2,0,0.4,0.1,0.5,0.2c0.1,0.1,0.2,0.2,0.3,0.4l4.9,11.8l5-11.8c0.1-0.2,0.2-0.3,0.3-0.4
	c0.1-0.1,0.3-0.2,0.5-0.2h1.5c0.2,0,0.4,0.1,0.5,0.2c0.1,0.1,0.2,0.3,0.2,0.5c0,0.1-0.1,0.3-0.2,0.6l-9.1,21.2
	c-0.1,0.2-0.2,0.3-0.3,0.4c-0.1,0.1-0.3,0.2-0.5,0.2H211.5z"/>
    </symbol>
</svg>

