<svg xmlns="http://www.w3.org/2000/svg"> 
	
    <!-- Server settings  icons  -->
	<symbol id="ftp" viewBox="0 0 62 62"><path d="M6.455,16.118h25.891l-4.521-5.983c-1.028-1.356-2.561-2.135-4.205-2.135H6.388c-.386,0-.772.045-1.151.129-.346.079-.696.201-1.08.381-.329.159-.641.349-.926.568-.272.209-.527.447-.788.737-.225.259-.43.539-.601.824-.18.296-.333.616-.461.951-.125.336-.222.682-.285,1.036-.064.354-.097.713-.097,1.086v7.816c0-2.989,2.442-5.412,5.455-5.412Z" fill="#989ba5"/><path d="M56,16.118H6c-2.761,0-5,2.239-5,5v27.882c0,2.761,2.239,5,5,5h50c2.761,0,5-2.239,5-5v-27.882c0-2.761-2.239-5-5-5ZM31.005,44c-.552,0-1.005-.447-1.005-1s.443-1,.995-1h.01c.552,0,1,.447,1,1s-.448,1-1,1ZM35.214,40.13c-.195.199-.455.3-.714.3-.253,0-.505-.095-.7-.286-1.543-1.512-4.057-1.511-5.6,0-.395.388-1.028.378-1.414-.014-.386-.394-.38-1.028.015-1.414,2.315-2.269,6.083-2.269,8.4,0,.395.386.4,1.019.014,1.414ZM38.714,36.56c-.195.199-.455.3-.714.3-.253,0-.505-.095-.7-.286-3.474-3.404-9.127-3.403-12.6,0-.396.387-1.028.379-1.415-.014-.386-.394-.38-1.027.014-1.414,4.246-4.16,11.154-4.161,15.401,0,.395.387.4,1.019.014,1.414ZM41.745,32.489c-.197.221-.471.333-.745.334-.237,0-.476-.084-.667-.255-5.321-4.759-13.346-4.758-18.667,0-.411.366-1.044.333-1.412-.079-.369-.411-.333-1.043.079-1.411,6.08-5.437,15.252-5.438,21.334,0,.411.368.446,1,.078,1.411Z" fill="#c7c9ce"/>
    </symbol>

	<symbol id="sftp" viewBox="0 0 62 62"><path d="M6.455,16.118h25.891l-4.521-5.983c-1.028-1.356-2.561-2.135-4.205-2.135H6.388c-.386,0-.772.045-1.151.129-.346.079-.696.201-1.08.381-.329.159-.641.349-.926.568-.272.209-.527.447-.788.737-.225.259-.43.539-.601.824-.18.296-.333.616-.461.951-.125.336-.222.682-.285,1.036-.064.354-.097.713-.097,1.086v7.816c0-2.989,2.442-5.412,5.455-5.412Z" fill="#0072e4"/><path d="M56,16.118H6c-2.761,0-5,2.239-5,5v27.882c0,2.761,2.239,5,5,5h50c2.761,0,5-2.239,5-5v-27.882c0-2.761-2.239-5-5-5Z" fill="#2994ff"/><circle cx="30.65" cy="38.9" r=".85" fill="none" stroke="#f9f9f9" stroke-linecap="round" stroke-linejoin="round" stroke-width="2"/><rect x="23" y="33.8" width="15.3" height="10.2" rx="2" ry="2" fill="none" stroke="#f9f9f9" stroke-linecap="round" stroke-linejoin="round" stroke-width="2"/><path d="M26.4,33.8v-2.55c0-2.347,1.903-4.25,4.25-4.25s4.25,1.903,4.25,4.25v2.55" fill="none" stroke="#f9f9f9" stroke-linecap="round" stroke-linejoin="round" stroke-width="2"/>
    </symbol>

	<symbol id="s3storage" viewBox="0 0 62 62"><path d="M56.39,4H4.61c-.987,0-1.741.923-1.591,1.947l1.114,7.604c.121.824.796,1.433,1.591,1.433h49.551c.794,0,1.47-.608,1.591-1.433l1.114-7.604c.15-1.024-.604-1.947-1.591-1.947Z" fill="#64a139"/><path d="M54.333,14.983H6.667l4.528,40.182c.182,1.614,1.565,2.835,3.212,2.835h32.941c1.669,0,3.064-1.254,3.218-2.893l3.768-40.124Z" fill="#69a93c"/><polygon points="54.333 14.983 6.667 14.983 8.214 28.712 54.333 14.983" fill="#53862f"/><circle cx="31.5" cy="9.5" r="2.5" fill="#fff"/>
	</symbol>

    <symbol id="googlecloud" viewBox="0 0 62 62"><path d="M39.438,20.218h1.8l5.129-5.184.252-2.201c-9.545-8.517-24.112-7.598-32.537,2.05-2.34,2.68-4.039,5.869-4.965,9.319.571-.237,1.204-.275,1.8-.109l10.257-1.71s.522-.873.792-.819c4.563-5.066,12.241-5.656,17.509-1.346h-.036Z" fill="#ea4335"/><path d="M53.672,24.202c-1.179-4.388-3.599-8.333-6.964-11.351l-7.198,7.276c3.039,2.511,4.771,6.293,4.697,10.26v1.292c3.538,0,6.406,2.899,6.406,6.476s-2.868,6.476-6.406,6.476h-12.812l-1.278,1.31v7.768l1.278,1.292h12.812c9.203.072,16.721-7.41,16.793-16.713.043-5.639-2.707-10.925-7.327-14.084Z" fill="#4285f4"/><path d="M18.564,54.927h12.812v-10.369h-12.812c-.913,0-1.815-.199-2.645-.582l-1.8.564-5.165,5.184-.45,1.819c2.896,2.211,6.43,3.399,10.059,3.384Z" fill="#34a853"/><path d="M18.564,21.291c-9.203.056-16.619,7.642-16.564,16.945.031,5.195,2.431,10.085,6.504,13.252l7.432-7.513c-3.224-1.473-4.657-5.309-3.2-8.568s5.251-4.708,8.476-3.235c1.421.649,2.559,1.799,3.2,3.235l7.432-7.513c-3.162-4.179-8.076-6.622-13.28-6.603Z" fill="#fbbc05"/>
    </symbol>
    
   <symbol id="githubpages" viewBox="0 0 62 62"><path d="M31.024,3C14.974,3,2,16.062,2,32.222c0,12.918,8.313,23.852,19.846,27.722,1.442.291,1.97-.629,1.97-1.402,0-.677-.048-3-.048-5.419-8.074,1.742-9.755-3.484-9.755-3.484-1.298-3.387-3.22-4.257-3.22-4.257-2.643-1.79.192-1.79.192-1.79,2.931.194,4.469,3,4.469,3,2.594,4.451,6.775,3.193,8.457,2.419.24-1.887,1.009-3.193,1.826-3.919-6.439-.677-13.214-3.193-13.214-14.418,0-3.193,1.153-5.806,2.979-7.837-.288-.726-1.298-3.726.289-7.741,0,0,2.451-.774,7.976,3,2.366-.64,4.806-.965,7.256-.968,2.451,0,4.949.339,7.256.968,5.526-3.774,7.977-3,7.977-3,1.586,4.016.576,7.016.288,7.741,1.874,2.032,2.979,4.644,2.979,7.837,0,11.225-6.775,13.692-13.263,14.418,1.057.919,1.97,2.661,1.97,5.419,0,3.919-.048,7.064-.048,8.031,0,.774.529,1.694,1.97,1.404,11.533-3.871,19.846-14.805,19.846-27.723.048-16.16-12.974-29.222-28.976-29.222Z" fill-rule="evenodd"/>
   </symbol>

	<symbol id="gitlab" viewBox="0 0 62 62"><g id="b"><path d="M60.017,25.559l-.083-.213-8.03-21.021c-.163-.412-.453-.761-.826-.998-.766-.477-1.747-.424-2.458.132-.343.279-.592.658-.713,1.085l-5.422,16.639h-21.955L15.108,4.545c-.118-.429-.367-.809-.713-1.088-.711-.556-1.692-.609-2.458-.132-.373.238-.662.587-.826.998L3.066,25.334l-.08.213c-2.375,6.224-.358,13.273,4.946,17.286l.028.022.074.052,12.233,9.189,6.052,4.594,3.686,2.792c.886.675,2.112.675,2.998,0l3.686-2.792,6.052-4.594,12.306-9.244.031-.025c5.291-4.014,7.304-11.05,4.94-17.268Z" fill="#e24329"/><path d="M60.017,25.559l-.083-.213c-3.913.806-7.6,2.468-10.798,4.868l-17.636,13.376c6.006,4.557,11.234,8.517,11.234,8.517l12.306-9.244.031-.025c5.299-4.014,7.315-11.058,4.946-17.28Z" fill="#fc6d26"/><path d="M20.266,52.108l6.052,4.594,3.686,2.792c.886.675,2.112.675,2.998,0l3.686-2.792,6.052-4.594s-5.235-3.972-11.24-8.517c-6.006,4.545-11.234,8.517-11.234,8.517Z" fill="#fca326"/><path d="M13.861,30.215c-3.195-2.405-6.882-4.072-10.795-4.881l-.08.213c-2.375,6.224-.358,13.273,4.946,17.286l.028.022.074.052,12.233,9.189s5.222-3.96,11.234-8.517l-17.639-13.364Z" fill="#fc6d26"/></g>
    </symbol>
    
    <symbol id="netlify" viewBox="0 0 70 62"><defs><clipPath id="b"><rect x="1" y="1" width="68" height="60" fill="none"/></clipPath></defs><g clip-path="url(#b)"><path d="M19.378,51.1h-.642l-3.205-3.214v-.644l4.9-4.913h3.394l.453.454v3.404l-4.9,4.913Z" fill="#05bdba"/><path d="M15.53,14.752v-.644l3.205-3.214h.642l4.9,4.913v3.404l-.453.454h-3.394l-4.9-4.913Z" fill="#05bdba"/><path d="M43.744,40.741h-4.663l-.389-.39v-10.945c0-1.947-.763-3.456-3.105-3.509-1.205-.032-2.584,0-4.058.058l-.221.227v14.164l-.389.39h-4.663l-.389-.39v-18.697l.389-.391h10.494c4.079,0,7.384,3.314,7.384,7.404v11.689l-.389.39Z" fill="#014847"/><path d="M20.041,33.734H1.389l-.389-.391v-4.686l.389-.391h18.651l.389.391v4.686l-.389.391Z" fill="#05bdba"/><path d="M68.616,33.734h-18.651l-.389-.391v-4.686l.389-.391h18.651l.389.391v4.686l-.389.391Z" fill="#05bdba"/><path d="M32.313,15.417V1.391l.389-.391h4.673l.389.391v14.026l-.389.39h-4.673l-.389-.39Z" fill="#05bdba"/><path d="M32.313,60.61v-14.026l.389-.391h4.673l.389.391v14.026l-.389.39h-4.673l-.389-.39Z" fill="#05bdba"/></g>
</symbol>	
        
    <symbol id="zip" viewBox="0 0 62 62"><g id="b"><path d="M31.369,47.098h-1.477c-.816,0-1.477.655-1.477,1.463s.661,1.463,1.477,1.463h1.477c.816,0,1.477-.655,1.477-1.463s-.661-1.463-1.477-1.463Z" fill="#f7c300"/><path d="M35.8,1H11.431c-1.224,0-2.331.491-3.133,1.286s-1.298,1.892-1.298,3.104v51.22c0,1.212.496,2.31,1.298,3.104.802.794,1.909,1.286,3.133,1.286h39.138c1.224,0,2.331-.491,3.133-1.286.802-.794,1.298-1.892,1.298-3.104V17.098L35.8,1ZM33.585,52.086c0,.882-.661,1.596-1.477,1.596h-2.954c-.816,0-1.477-.715-1.477-1.596v-5.588c0-.882.661-1.596,1.477-1.596h2.954c.816,0,1.477.715,1.477,1.596v5.588ZM32.477,41.976h-3.692c-.612,0-1.108-.491-1.108-1.098s.496-1.098,1.108-1.098h3.692c.612,0,1.108.491,1.108,1.098s-.496,1.098-1.108,1.098ZM32.477,36.854h-3.692c-.612,0-1.108-.491-1.108-1.098s.496-1.098,1.108-1.098h3.692c.612,0,1.108.491,1.108,1.098s-.496,1.098-1.108,1.098ZM32.477,31.732h-3.692c-.612,0-1.108-.491-1.108-1.098s.496-1.098,1.108-1.098h3.692c.612,0,1.108.491,1.108,1.098s-.496,1.098-1.108,1.098ZM32.477,26.61h-3.692c-.612,0-1.108-.491-1.108-1.098s.496-1.098,1.108-1.098h3.692c.612,0,1.108.491,1.108,1.098s-.496,1.098-1.108,1.098Z" fill="#f7c300"/><polygon points="55 17.098 35.8 17.098 35.8 1 55 17.098" fill="#ffd84a"/><polygon points="35.8 17.098 55 17.098 55 33.195 35.8 17.098" fill="#dbac00"/></g>
    </symbol>

	<symbol id="deployment-others" viewBox="0 0 29 29">
	   <path d="M25,16v9.58A2.42,2.42,0,0,1,22.55,28H3.42a2.44,2.44,0,0,1-2.23-1.48A2.36,2.36,0,0,1,1,25.58V6.42a2.41,2.41,0,0,1,.71-1.71,2.45,2.45,0,0,1,.76-.52A2.37,2.37,0,0,1,3.42,4H13a1,1,0,0,1,0,2H3.26A.37.37,0,0,0,3,6.23a.43.43,0,0,0,0,.16V25.58a.43.43,0,0,0,0,.16.37.37,0,0,0,.23.23.43.43,0,0,0,.16,0H22.58a.39.39,0,0,0,.3-.12.42.42,0,0,0,.09-.14.43.43,0,0,0,0-.16V16a1,1,0,0,1,2,0ZM27.71,1.29A1,1,0,0,0,27,1H21.13a1,1,0,0,0,0,2h3.45l-8.79,8.79a1,1,0,0,0,0,1.41h0a1,1,0,0,0,1.41,0h0L26,4.42V7.87a1,1,0,1,0,2,0V2A1,1,0,0,0,27.71,1.29Z"/>
	</symbol>

    <symbol id="git" viewBox="0 0 224 48">
      <path d="M11,33.2c-2,0-3.8-0.3-5.2-1c-1.5-0.7-2.6-1.7-3.4-3c-0.8-1.3-1.2-2.9-1.3-4.8c0-0.9,0-1.9,0-3s0-2,0-3
	c0.1-1.8,0.5-3.4,1.3-4.7c0.8-1.3,1.9-2.2,3.4-2.9c1.5-0.7,3.2-1,5.2-1c1.6,0,3,0.2,4.3,0.6c1.2,0.4,2.3,0.9,3.1,1.6
	c0.8,0.7,1.5,1.4,1.9,2.2c0.4,0.8,0.7,1.6,0.7,2.4c0,0.2,0,0.4-0.2,0.5c-0.1,0.1-0.3,0.2-0.5,0.2h-4.7c-0.2,0-0.4,0-0.5-0.1
	c-0.1-0.1-0.2-0.2-0.3-0.3c-0.1-0.3-0.4-0.7-0.7-1c-0.3-0.4-0.7-0.7-1.2-0.9c-0.5-0.3-1.2-0.4-2-0.4c-1.2,0-2.2,0.3-2.9,1
	C7.4,16.1,7,17.1,7,18.6c-0.1,1.9-0.1,3.7,0,5.6c0.1,1.5,0.5,2.6,1.2,3.3c0.7,0.7,1.7,1,2.9,1c0.8,0,1.5-0.1,2.2-0.4
	c0.6-0.3,1.1-0.7,1.5-1.3c0.4-0.6,0.5-1.4,0.5-2.3v-0.6h-3c-0.2,0-0.4-0.1-0.6-0.2c-0.2-0.2-0.2-0.4-0.2-0.6v-2.4
	c0-0.2,0.1-0.4,0.2-0.6c0.2-0.2,0.4-0.2,0.6-0.2h8.1c0.2,0,0.4,0.1,0.6,0.2c0.1,0.2,0.2,0.4,0.2,0.6v3.7c0,1.9-0.4,3.4-1.2,4.8
	c-0.8,1.3-2,2.3-3.5,3C14.8,32.8,13,33.2,11,33.2z M24.4,13.5c-0.2,0-0.4-0.1-0.6-0.2c-0.1-0.2-0.2-0.3-0.2-0.6V9.8
	c0-0.2,0.1-0.4,0.2-0.6C23.9,9.1,24.1,9,24.4,9h3.8c0.2,0,0.4,0.1,0.6,0.2C28.9,9.4,29,9.6,29,9.8v2.9c0,0.2-0.1,0.4-0.2,0.6
	c-0.2,0.2-0.4,0.2-0.6,0.2H24.4z M24.4,32.8c-0.2,0-0.4-0.1-0.6-0.2c-0.1-0.2-0.2-0.3-0.2-0.6V16.8c0-0.2,0.1-0.4,0.2-0.6
	C24,16,24.2,16,24.4,16h3.8c0.2,0,0.4,0.1,0.6,0.2c0.2,0.2,0.2,0.3,0.2,0.6V32c0,0.2-0.1,0.4-0.2,0.6c-0.2,0.2-0.3,0.2-0.6,0.2H24.4
	z M40.4,32.8c-1.4,0-2.5-0.2-3.5-0.7c-1-0.4-1.8-1.1-2.3-2.1c-0.5-0.9-0.8-2.2-0.8-3.6v-6.2h-2.5c-0.2,0-0.4-0.1-0.6-0.2
	c-0.2-0.2-0.2-0.3-0.2-0.6v-2.6c0-0.2,0.1-0.4,0.2-0.6c0.2-0.2,0.4-0.2,0.6-0.2h2.5v-5.4c0-0.2,0.1-0.4,0.2-0.6
	c0.2-0.2,0.3-0.2,0.6-0.2h3.7c0.2,0,0.4,0.1,0.6,0.2c0.1,0.2,0.2,0.3,0.2,0.6V16h4c0.2,0,0.4,0.1,0.6,0.2c0.1,0.2,0.2,0.3,0.2,0.6
	v2.6c0,0.2-0.1,0.4-0.2,0.6c-0.1,0.2-0.3,0.2-0.6,0.2h-4V26c0,0.7,0.1,1.3,0.4,1.8c0.3,0.4,0.7,0.6,1.4,0.6h2.5
	c0.2,0,0.4,0.1,0.6,0.2c0.1,0.2,0.2,0.3,0.2,0.6V32c0,0.2-0.1,0.4-0.2,0.6c-0.1,0.2-0.3,0.2-0.6,0.2H40.4z M48.8,18.8
	c-0.5,0-0.7-0.2-0.7-0.7V12h-1.7c-0.5,0-0.7-0.2-0.7-0.7v-0.4c0-0.5,0.2-0.7,0.7-0.7h5.2c0.5,0,0.7,0.2,0.7,0.7v0.4
	c0,0.5-0.2,0.7-0.7,0.7H50V18c0,0.5-0.2,0.7-0.7,0.7H48.8z M54,18.8c-0.5,0-0.7-0.2-0.7-0.7v-7.2c0-0.5,0.2-0.7,0.7-0.7h0.4
	c0.3,0,0.5,0.1,0.6,0.3c0.1,0.2,0.3,0.3,0.4,0.5l2,3.2l2-3.2c0.1-0.1,0.2-0.3,0.4-0.5c0.1-0.2,0.4-0.3,0.6-0.3h0.4
	c0.5,0,0.7,0.2,0.7,0.7V18c0,0.5-0.2,0.7-0.7,0.7h-0.4c-0.5,0-0.7-0.2-0.7-0.7v-4.2L58.4,16c-0.1,0.2-0.2,0.3-0.3,0.5
	c-0.1,0.1-0.3,0.2-0.5,0.2h-0.3c-0.2,0-0.4-0.1-0.5-0.2c-0.1-0.1-0.2-0.3-0.3-0.5l-1.3-2.2V18c0,0.5-0.2,0.7-0.7,0.7H54z M73.9,32.8
	c-0.2,0-0.4-0.1-0.5-0.2c-0.1-0.1-0.2-0.3-0.2-0.5V10.9c0-0.2,0.1-0.4,0.2-0.6c0.1-0.1,0.3-0.2,0.5-0.2h7.8c2.4,0,4.3,0.6,5.7,1.7
	c1.4,1.1,2.1,2.8,2.1,5.1c0,1.7-0.4,3-1.2,4.1c-0.8,1-1.9,1.8-3.3,2.2l4.9,8.6c0.1,0.1,0.1,0.2,0.1,0.4c0,0.2-0.1,0.3-0.2,0.5
	c-0.1,0.1-0.3,0.2-0.5,0.2h-1.5c-0.4,0-0.6-0.1-0.8-0.3c-0.2-0.2-0.3-0.4-0.4-0.6l-4.6-8.2h-5.6v8.4c0,0.2-0.1,0.4-0.2,0.5
	c-0.1,0.1-0.3,0.2-0.6,0.2H73.9z M76.3,21h5.3c1.6,0,2.8-0.3,3.6-1c0.8-0.7,1.2-1.7,1.2-3c0-1.3-0.4-2.3-1.2-3c-0.8-0.7-2-1-3.6-1
	h-5.3V21z M99.3,33.2c-2.2,0-3.9-0.7-5.2-2.1c-1.3-1.4-2-3.2-2.1-5.6c0-0.3,0-0.6,0-1.1c0-0.4,0-0.8,0-1.1c0.1-1.5,0.4-2.9,1.1-4
	c0.6-1.2,1.5-2,2.5-2.7c1.1-0.6,2.3-0.9,3.8-0.9c1.6,0,3,0.3,4.1,1c1.1,0.7,1.9,1.7,2.5,3c0.6,1.3,0.9,2.8,0.9,4.5v0.6
	c0,0.2-0.1,0.4-0.2,0.6c-0.1,0.1-0.3,0.2-0.5,0.2H94.9c0,0,0,0.1,0,0.1c0,0.1,0,0.1,0,0.2c0,0.9,0.2,1.7,0.6,2.5
	c0.3,0.8,0.8,1.4,1.5,1.9c0.6,0.5,1.4,0.7,2.3,0.7c0.8,0,1.4-0.1,1.9-0.4c0.5-0.2,0.9-0.5,1.2-0.8s0.5-0.5,0.6-0.7
	c0.2-0.3,0.3-0.4,0.4-0.5c0.1-0.1,0.3-0.1,0.5-0.1h1.5c0.2,0,0.4,0.1,0.5,0.2c0.1,0.1,0.2,0.3,0.2,0.5c0,0.3-0.2,0.7-0.5,1.2
	c-0.3,0.5-0.8,0.9-1.4,1.4c-0.6,0.5-1.3,0.8-2.2,1.1C101.4,33,100.4,33.2,99.3,33.2z M94.9,23.2h8.8v-0.1c0-1-0.2-1.8-0.5-2.6
	c-0.4-0.8-0.9-1.4-1.5-1.8c-0.7-0.4-1.4-0.7-2.4-0.7c-0.9,0-1.7,0.2-2.3,0.7c-0.6,0.4-1.1,1-1.5,1.8C95.1,21.2,94.9,22.1,94.9,23.2
	L94.9,23.2z M110.5,39c-0.2,0-0.4-0.1-0.5-0.2c-0.1-0.1-0.2-0.3-0.2-0.5V16.7c0-0.2,0.1-0.4,0.2-0.5c0.1-0.1,0.3-0.2,0.5-0.2h1.5
	c0.2,0,0.4,0.1,0.5,0.2c0.1,0.1,0.2,0.3,0.2,0.5v1.4c0.5-0.7,1.2-1.3,2-1.8c0.9-0.5,1.9-0.7,3.2-0.7c1.2,0,2.2,0.2,3.1,0.6
	c0.8,0.4,1.5,1,2.1,1.7c0.5,0.7,1,1.5,1.2,2.4c0.3,0.9,0.4,1.9,0.4,2.9c0,0.3,0,0.7,0,1.1s0,0.8,0,1.1c0,1-0.2,2-0.4,2.9
	c-0.3,0.9-0.7,1.7-1.2,2.4c-0.5,0.7-1.2,1.3-2.1,1.7c-0.8,0.4-1.9,0.6-3.1,0.6c-1.2,0-2.3-0.2-3.1-0.7c-0.8-0.5-1.5-1-2.1-1.7v7.5
	c0,0.2-0.1,0.4-0.2,0.5c-0.1,0.1-0.3,0.2-0.5,0.2H110.5z M117.3,30.5c1.1,0,2-0.2,2.6-0.7c0.6-0.5,1.1-1.1,1.4-1.9
	c0.3-0.8,0.4-1.6,0.5-2.5c0-0.6,0-1.3,0-1.9c0-0.9-0.2-1.8-0.5-2.5c-0.3-0.8-0.7-1.4-1.4-1.9c-0.6-0.5-1.5-0.7-2.6-0.7
	c-1,0-1.9,0.2-2.5,0.7c-0.7,0.5-1.1,1.1-1.4,1.9c-0.3,0.8-0.5,1.6-0.5,2.4c0,0.3,0,0.8,0,1.2c0,0.5,0,0.9,0,1.3
	c0,0.8,0.2,1.5,0.5,2.2c0.3,0.7,0.8,1.3,1.5,1.8C115.5,30.3,116.3,30.5,117.3,30.5z M134.8,33.2c-1.6,0-3-0.3-4.1-0.9
	c-1.1-0.6-1.9-1.5-2.5-2.6c-0.6-1.1-0.9-2.4-1-3.8c0-0.4,0-0.8,0-1.4c0-0.6,0-1,0-1.4c0.1-1.4,0.4-2.7,1-3.8c0.6-1.1,1.4-2,2.5-2.6
	c1.1-0.6,2.4-0.9,4-0.9c1.6,0,2.9,0.3,4,0.9c1.1,0.6,1.9,1.5,2.5,2.6c0.6,1.1,0.9,2.4,1,3.8c0,0.3,0,0.8,0,1.4c0,0.6,0,1,0,1.4
	c-0.1,1.4-0.4,2.7-1,3.8c-0.6,1.1-1.4,2-2.5,2.6C137.8,32.8,136.4,33.2,134.8,33.2z M134.8,30.7c1.3,0,2.4-0.4,3.2-1.3
	c0.8-0.9,1.2-2.1,1.3-3.7c0-0.3,0-0.7,0-1.2c0-0.5,0-0.9,0-1.2c-0.1-1.6-0.5-2.9-1.3-3.7c-0.8-0.9-1.8-1.3-3.2-1.3
	c-1.3,0-2.4,0.4-3.2,1.3c-0.8,0.9-1.2,2.1-1.3,3.7c0,0.3,0,0.7,0,1.2c0,0.5,0,0.9,0,1.2c0,1.6,0.5,2.9,1.3,3.7
	C132.4,30.2,133.5,30.7,134.8,30.7z M151.3,33.2c-1.2,0-2.2-0.2-3.1-0.5c-0.9-0.3-1.5-0.7-2.1-1.1c-0.5-0.4-0.9-0.9-1.2-1.3
	c-0.3-0.4-0.4-0.8-0.4-1c0-0.2,0.1-0.4,0.2-0.6c0.2-0.1,0.3-0.2,0.5-0.2h1.4c0.1,0,0.2,0,0.3,0c0.1,0,0.2,0.1,0.3,0.3
	c0.3,0.3,0.6,0.6,0.9,0.9c0.3,0.3,0.8,0.6,1.3,0.7c0.5,0.2,1.1,0.3,1.9,0.3c1.1,0,2-0.2,2.7-0.6c0.7-0.4,1.1-1,1.1-1.9
	c0-0.5-0.1-1-0.4-1.3c-0.3-0.3-0.8-0.6-1.5-0.9c-0.7-0.3-1.7-0.5-3-0.8c-1.3-0.3-2.3-0.7-3-1.1c-0.7-0.4-1.3-1-1.6-1.6
	c-0.3-0.6-0.5-1.3-0.5-2.1c0-0.8,0.2-1.6,0.7-2.3c0.5-0.7,1.2-1.4,2.1-1.8c0.9-0.5,2-0.7,3.4-0.7c1.1,0,2.1,0.1,2.8,0.4
	c0.8,0.3,1.4,0.6,1.9,1.1c0.5,0.4,0.9,0.8,1.2,1.2c0.3,0.4,0.4,0.8,0.4,1c0,0.2,0,0.4-0.2,0.5c-0.1,0.1-0.3,0.2-0.5,0.2h-1.3
	c-0.1,0-0.3,0-0.4-0.1c-0.1-0.1-0.2-0.1-0.3-0.2c-0.2-0.3-0.5-0.6-0.8-0.8c-0.3-0.3-0.7-0.5-1.1-0.7c-0.5-0.2-1.1-0.3-1.8-0.3
	c-1.1,0-1.9,0.2-2.4,0.7c-0.5,0.5-0.8,1-0.8,1.7c0,0.4,0.1,0.8,0.4,1.1c0.2,0.3,0.7,0.6,1.3,0.9c0.7,0.3,1.6,0.5,2.9,0.8
	c1.4,0.3,2.5,0.7,3.3,1.1c0.8,0.5,1.4,1,1.7,1.7c0.3,0.6,0.5,1.4,0.5,2.2c0,0.9-0.3,1.7-0.8,2.5c-0.5,0.8-1.3,1.4-2.3,1.8
	C154,32.9,152.8,33.2,151.3,33.2z M161.5,12.8c-0.2,0-0.4-0.1-0.5-0.2c-0.1-0.1-0.2-0.3-0.2-0.5v-1.8c0-0.2,0.1-0.4,0.2-0.5
	c0.1-0.1,0.3-0.2,0.5-0.2h2c0.2,0,0.4,0.1,0.5,0.2c0.1,0.1,0.2,0.3,0.2,0.5v1.8c0,0.2-0.1,0.4-0.2,0.5c-0.1,0.1-0.3,0.2-0.5,0.2
	H161.5z M161.8,32.8c-0.2,0-0.4-0.1-0.5-0.2c-0.1-0.1-0.2-0.3-0.2-0.5V16.7c0-0.2,0.1-0.4,0.2-0.5c0.1-0.1,0.3-0.2,0.5-0.2h1.5
	c0.2,0,0.4,0.1,0.5,0.2c0.1,0.1,0.2,0.3,0.2,0.5v15.4c0,0.2-0.1,0.4-0.2,0.5c-0.1,0.1-0.3,0.2-0.5,0.2H161.8z M174.5,32.8
	c-1.2,0-2.2-0.2-2.9-0.7c-0.7-0.5-1.3-1.1-1.6-2c-0.3-0.9-0.5-1.9-0.5-3v-8.6h-2.5c-0.2,0-0.4-0.1-0.5-0.2c-0.1-0.1-0.2-0.3-0.2-0.5
	v-1.1c0-0.2,0.1-0.4,0.2-0.5c0.1-0.1,0.3-0.2,0.5-0.2h2.5v-5.4c0-0.2,0.1-0.4,0.2-0.5c0.1-0.1,0.3-0.2,0.5-0.2h1.5
	c0.2,0,0.4,0.1,0.5,0.2c0.1,0.1,0.2,0.3,0.2,0.5V16h4c0.2,0,0.4,0.1,0.5,0.2c0.1,0.1,0.2,0.3,0.2,0.5v1.1c0,0.2-0.1,0.4-0.2,0.5
	c-0.1,0.1-0.3,0.2-0.5,0.2h-4v8.3c0,1,0.2,1.8,0.5,2.4c0.3,0.6,0.9,0.9,1.8,0.9h1.9c0.2,0,0.4,0.1,0.5,0.2c0.1,0.1,0.2,0.3,0.2,0.5
	v1.2c0,0.2-0.1,0.4-0.2,0.5c-0.1,0.1-0.3,0.2-0.5,0.2H174.5z M186.5,33.2c-1.6,0-3-0.3-4.1-0.9c-1.1-0.6-1.9-1.5-2.5-2.6
	c-0.6-1.1-0.9-2.4-1-3.8c0-0.4,0-0.8,0-1.4c0-0.6,0-1,0-1.4c0.1-1.4,0.4-2.7,1-3.8c0.6-1.1,1.4-2,2.5-2.6c1.1-0.6,2.4-0.9,4-0.9
	c1.6,0,2.9,0.3,4,0.9c1.1,0.6,1.9,1.5,2.5,2.6c0.6,1.1,0.9,2.4,1,3.8c0,0.3,0,0.8,0,1.4c0,0.6,0,1,0,1.4c-0.1,1.4-0.4,2.7-1,3.8
	c-0.6,1.1-1.4,2-2.5,2.6C189.4,32.8,188.1,33.2,186.5,33.2z M186.5,30.7c1.3,0,2.4-0.4,3.2-1.3c0.8-0.9,1.2-2.1,1.3-3.7
	c0-0.3,0-0.7,0-1.2c0-0.5,0-0.9,0-1.2c-0.1-1.6-0.5-2.9-1.3-3.7c-0.8-0.9-1.8-1.3-3.2-1.3c-1.3,0-2.4,0.4-3.2,1.3
	c-0.8,0.9-1.2,2.1-1.3,3.7c0,0.3,0,0.7,0,1.2c0,0.5,0,0.9,0,1.2c0,1.6,0.5,2.9,1.3,3.7C184.1,30.2,185.2,30.7,186.5,30.7z
	 M197.9,32.8c-0.2,0-0.4-0.1-0.5-0.2c-0.1-0.1-0.2-0.3-0.2-0.5V16.8c0-0.2,0.1-0.4,0.2-0.6c0.1-0.2,0.3-0.2,0.5-0.2h1.5
	c0.2,0,0.4,0.1,0.5,0.2c0.1,0.2,0.2,0.3,0.2,0.6v1.4c0.4-0.7,1-1.3,1.8-1.7c0.7-0.4,1.6-0.6,2.7-0.6h1.3c0.2,0,0.4,0.1,0.5,0.2
	c0.1,0.1,0.2,0.3,0.2,0.5V18c0,0.2-0.1,0.4-0.2,0.5s-0.3,0.2-0.5,0.2H204c-1.2,0-2.1,0.3-2.7,1c-0.7,0.7-1,1.6-1,2.8v9.5
	c0,0.2-0.1,0.4-0.2,0.5c-0.1,0.1-0.3,0.2-0.5,0.2H197.9z M211.5,39c-0.2,0-0.3-0.1-0.4-0.2c-0.1-0.1-0.2-0.3-0.2-0.5
	c0-0.1,0-0.2,0-0.3c0-0.1,0.1-0.2,0.1-0.3l2.5-5.9l-6.1-14.6c-0.1-0.3-0.2-0.4-0.2-0.6c0-0.2,0.1-0.4,0.2-0.5
	c0.1-0.1,0.3-0.2,0.5-0.2h1.6c0.2,0,0.4,0.1,0.5,0.2c0.1,0.1,0.2,0.2,0.3,0.4l4.9,11.8l5-11.8c0.1-0.2,0.2-0.3,0.3-0.4
	c0.1-0.1,0.3-0.2,0.5-0.2h1.5c0.2,0,0.4,0.1,0.5,0.2c0.1,0.1,0.2,0.3,0.2,0.5c0,0.1-0.1,0.3-0.2,0.6l-9.1,21.2
	c-0.1,0.2-0.2,0.3-0.3,0.4c-0.1,0.1-0.3,0.2-0.5,0.2H211.5z"/>
    </symbol>
</svg>

