<svg xmlns="http://www.w3.org/2000/svg">

    <!-- Menu icons -->

    <symbol id="posts" viewBox="0 0 20 20">
        <path class="st0" d="M16,7v10c0,1.1-0.9,2-2,2H3c-1.1,0-2-0.9-2-2V6c0-1.1,0.9-2,2-2h9c-1,0-2,2-3,2H3v11h11v-7C14,8,16,9,16,7z
     M8.3,9.4c-0.4,0.3-0.4,0.9-0.1,1.3c0.3,0.4,0.9,0.4,1.3,0.1l7-6.2C16,3.8,16,3.8,15.3,3.1L8.3,9.4z M18.8,1.3
    c-0.3-0.4-0.9-0.4-1.3-0.1l-0.7,0.6c0.6,0.7,0.6,0.7,1.2,1.4l0.7-0.6C19.1,2.3,19.1,1.7,18.8,1.3z"/>
    </symbol>

    <symbol id="tags" viewBox="0 0 22 22">
        <path d="M21.975,2.926a2.92,2.92,0,0,0-2.9-2.9L12.366,0h-.011a2.9,2.9,0,0,0-2.04.844L.842,10.316a2.9,2.9,0,0,0,.01,4.1l6.734,6.735A2.9,2.9,0,0,0,9.644,22a2.874,2.874,0,0,0,2.04-.842l9.472-9.473A2.9,2.9,0,0,0,22,9.635Zm-2.233,7.346L10.27,19.744A.9.9,0,0,1,9,19.734L2.267,13a.9.9,0,0,1-.01-1.27l9.472-9.473A.879.879,0,0,1,12.355,2h0l6.708.025a.914.914,0,0,1,.908.908L20,9.642A.879.879,0,0,1,19.742,10.271ZM17,7a2,2,0,1,1-2-2A2,2,0,0,1,17,7Z" />
    </symbol>

    <symbol id="menus" viewBox="0 0 20 20">
        <path d="M1,3c0-0.6,0.4-1,1-1h10c0.6,0,1,0.4,1,1c0,0.6-0.4,1-1,1H2C1.4,4,1,3.6,1,3z M18,16H2c-0.5,0-1,0.5-1,1
    s0.5,1,1,1h16c0.5,0,1-0.5,1-1S18.5,16,18,16z M2,11h6c0.5,0,1-0.5,1-1S8.5,9,8,9H2c-0.5,0-1,0.5-1,1S1.5,11,2,11z"/>
    </symbol>


    <symbol id="authors" viewBox="0 0 20 20">
     <path d="M17.2,7.4C17.7,7,18,6.3,18,5.5C18,4.1,16.9,3,15.5,3S13,4.1,13,5.5c0,0.7,0.3,1.3,0.7,1.8c-1,0.4-1.8,1.1-2.4,1.9
    c-0.2-0.2-0.5-0.3-0.8-0.4c0.9-0.8,1.4-2,1.4-3.3C12,3,10,1,7.5,1S3,3,3,5.5c0,1.3,0.5,2.4,1.4,3.3C1.8,10.1,0,12.8,0,15
    c0,3,3.4,4,7.5,4s7.5-1,7.5-4c0-0.3,0-0.7-0.1-1c0.1,0,0.3,0,0.4,0c2.6,0,4.7-0.6,4.7-2.6C20,10,18.8,8.2,17.2,7.4z M15.5,3.9
    c0.9,0,1.6,0.7,1.6,1.6s-0.7,1.6-1.6,1.6s-1.6-0.7-1.6-1.6S14.6,3.9,15.5,3.9z M5,5.5C5,4.1,6.1,3,7.5,3S10,4.1,10,5.5
    C10,6.9,8.9,8,7.5,8S5,6.9,5,5.5z M7.5,17C5.4,17,2,16.7,2,15c0-2,2.5-5,5.5-5s5.5,3,5.5,5C13,16.7,9.6,17,7.5,17z M15.3,13
    c-0.2,0-0.5,0-0.7,0c-0.5-1.2-1.3-2.3-2.4-3.2c0.7-1,1.8-1.8,3.1-1.8c2.1,0,3.8,2.1,3.8,3.5C19.1,12.7,17,13,15.3,13z"/>
    </symbol>

    <symbol id="server" viewBox="0 0 20 20">
        <path d="M17,1H3C1.9,1,1,1.9,1,3v5c0,1.1,0.9,2,2,2h14c1.1,0,2-0.9,2-2V3C19,1.9,18.1,1,17,1z M17,8H3V3h14V8z M17,12
    c0.7,0,1.3,0,2,0v5c0,1.1-0.9,2-2,2H3c-1.1,0-2-0.9-2-2v-5c0.7,0,1.3,0,2,0v5h14V12z M7.5,15C6.7,15,6,14.3,6,13.5S6.7,12,7.5,12
    S9,12.7,9,13.5S8.3,15,7.5,15z"/>
    </symbol>


    <symbol id="themes" viewBox="0 0 20 20">
        <path d="M4,10.2V2c0-0.5-0.5-1-1-1S2,1.5,2,2v8.2c-1.2,0.4-2,1.5-2,2.8s0.8,2.4,2,2.8V18c0,0.5,0.5,1,1,1s1-0.5,1-1v-2.2
    c1.2-0.4,2-1.5,2-2.8S5.2,10.6,4,10.2z M3,15c-1.1,0-2-0.9-2-2c0-1.1,0.9-2,2-2s2,0.9,2,2C5,14.1,4.1,15,3,15z M11,4.2V2
    c0-0.5-0.5-1-1-1S9,1.5,9,2v2.2C7.8,4.6,7,5.7,7,7s0.8,2.4,2,2.8V18c0,0.5,0.5,1,1,1s1-0.5,1-1V9.8c1.2-0.4,2-1.5,2-2.8
    S12.2,4.6,11,4.2z M10,9C8.9,9,8,8.1,8,7c0-1.1,0.9-2,2-2s2,0.9,2,2C12,8.1,11.1,9,10,9z M20,11c0-1.3-0.8-2.4-2-2.8V2
    c0-0.5-0.5-1-1-1s-1,0.5-1,1v6.2c-1.2,0.4-2,1.5-2,2.8s0.8,2.4,2,2.8V18c0,0.5,0.5,1,1,1s1-0.5,1-1v-4.2C19.2,13.4,20,12.3,20,11z
     M17,13c-0.3,0-0.7-0.1-0.9-0.2c0,0,0-0.1-0.1-0.1c0,0,0,0,0,0v0.1c-0.6-0.3-1-1-1-1.7c0-1.1,0.9-2,2-2s2,0.9,2,2
    C19,12.1,18.1,13,17,13z"/>
    </symbol>

    <symbol id="settings" viewBox="0 0 24 24">
        <path d="M24,13.942V10.058l-2.526-.634a9.738,9.738,0,0,0-.952-2.3l1.34-2.231L19.125,2.137,16.877,3.479a9.713,9.713,0,0,0-2.3-.953L13.942,0H10.058L9.424,2.525a9.686,9.686,0,0,0-2.3.953L4.874,2.137,2.139,4.893,3.478,7.124a9.688,9.688,0,0,0-.952,2.3L0,10.058v3.884l2.526.634a9.689,9.689,0,0,0,.953,2.3L2.138,19.125l2.756,2.737,2.231-1.34a9.738,9.738,0,0,0,2.3.952L10.058,24h3.884l.634-2.526a9.7,9.7,0,0,0,2.3-.952l2.233,1.34,2.755-2.737-1.342-2.248a9.735,9.735,0,0,0,.953-2.3ZM19.717,12.79l-.179.68a7.6,7.6,0,0,1-1.176,2.786l-.4.574,1.156,1.943-.346.34-1.939-1.162-.576.388a7.56,7.56,0,0,1-2.786,1.154l-.68.224L12.24,22h-.48l-.55-2.283-.68-.179a7.6,7.6,0,0,1-2.785-1.176l-.576-.4L5.231,19.119l-.343-.343,1.16-1.945-.387-.575a7.558,7.558,0,0,1-1.154-2.786l-.225-.68L2,12.24v-.48l2.282-.55.179-.68A7.6,7.6,0,0,1,5.638,7.744l.4-.576L4.881,5.231l.343-.343,1.945,1.16.575-.387a7.551,7.551,0,0,1,2.786-1.154l.68-.225L11.76,2h.48l.55,2.282.68.179a7.61,7.61,0,0,1,2.786,1.176l.574.4,1.943-1.154.34.346L17.95,7.167l.389.577a7.56,7.56,0,0,1,1.154,2.786l.224.68L22,11.76v.48ZM12,7.636A4.364,4.364,0,1,0,16.364,12,4.369,4.369,0,0,0,12,7.636Zm0,6.545A2.182,2.182,0,1,1,14.182,12,2.184,2.184,0,0,1,12,14.182Z" />
    </symbol>
    <symbol id="tools" viewBox="0 0 22 22">
        <path d="M8.028,10.524a4.864,4.864,0,0,1-6.6-.634A6,6,0,0,1,.117,4.813a.6.6,0,0,1,1-.294L5.238,8.381c1.689,1.7,4.19-3.143,3.377-4.19L4.5,1.128A.6.6,0,0,1,4.8.116a5.937,5.937,0,0,1,5.388,1.635C12.917,4.493,11.294,8.066,8.028,10.524ZM22,19.878a2.114,2.114,0,0,1-3.609,1.5l-8.666-8.7a3.051,3.051,0,0,0-2.392-.836,10.057,10.057,0,0,0,4.488-4.507,2.988,2.988,0,0,0,.9,2.338l8.666,8.7A2.123,2.123,0,0,1,22,19.878Zm-1.365-.751a1.054,1.054,0,0,0-1.5,0,1.066,1.066,0,0,0,0,1.5,1.055,1.055,0,0,0,1.5,0A1.066,1.066,0,0,0,20.635,19.127Z"/>
    </symbol>

    <symbol id="bell" viewBox="0 0 23 24">
        <path d="M22.735,18.321a11.9,11.9,0,0,1-2.885-7.13C19.851,1.941,15.309,0,11.5,0S3.15,1.964,3.15,11.323A11.324,11.324,0,0,1,.28,18.306,1,1,0,0,0,1,20H22a1,1,0,0,0,.734-1.679ZM3.024,18A12.444,12.444,0,0,0,5.15,11.323C5.15,2,9.93,2,11.5,2c4.273,0,6.35,3.006,6.35,9.191A12.9,12.9,0,0,0,20.008,18ZM9,22h4a2,2,0,0,1-4,0Z" />
    </symbol>

    <symbol id="add-site" viewBox="0 0 24 24">
        <path fill="#47AA6F" d="M13.1,10.9h3.3v2.2h-3.3v3.3h-2.2v-3.3H7.6v-2.2h3.3V7.6h2.2V10.9z M23,12c0,6.1-4.9,11-11,11S1,18.1,1,12
    S5.9,1,12,1S23,5.9,23,12z M21,12c0-5-4-9-9-9s-9,4-9,9c0,5,4,9,9,9S21,17,21,12z"/>
    </symbol>

    <symbol id="add-site-mono" viewBox="0 0 24 24">
        <path d="M13.1,10.9h3.3v2.2h-3.3v3.3h-2.2v-3.3H7.6v-2.2h3.3V7.6h2.2V10.9z M23,12c0,6.1-4.9,11-11,11S1,18.1,1,12
    S5.9,1,12,1S23,5.9,23,12z M21,12c0-5-4-9-9-9s-9,4-9,9c0,5,4,9,9,9S21,17,21,12z"/>
    </symbol>

     <symbol id="upload-file" viewBox="0 0 24 24">
        <path d="M11,19h2v2h-2V19z M12,4l-7,6.6L6.5,12L11,7.7V16h2V7.7l4.5,4.3l1.5-1.4L12,4z"/>
      </symbol>

    <!-- Buttons icons -->

    <symbol id="sync" viewBox="0 0 19 16">
        <path d="M19,8A8,8,0,0,1,3,8H0L4,2.67,8,8H5a6,6,0,1,0,6-6,5.934,5.934,0,0,0-2.56.58L7.21.95A8.007,8.007,0,0,1,19,8Z" />
    </symbol>

    <symbol id="plus" viewBox="0 0 20 20">
        <path d="M11,9h3v2H11v3H9V11H6V9H9V6h2Zm9,1A10,10,0,1,1,10,0,10,10,0,0,1,20,10Zm-2,0a8,8,0,1,0-8,8A8.009,8.009,0,0,0,18,10Z" />
    </symbol>

    <symbol id="trash" viewBox="0 0 16 16">
        <path d="M14,3c0,0.5-0.5,1-1,1H3C2.5,4,2,3.5,2,3s0.5-1,1-1h3c0-0.5,0.4-1,1-1h2c0.5,0,1,0.5,1,1h3C13.5,2,14,2.5,14,3z
     M12,5H4C3.4,5,3,5.4,3,6v8.1C3,15.1,3.9,16,4.9,16h6.2c1.1,0,1.9-0.9,1.9-1.9V6C13,5.5,12.5,5,12,5z"/>
    </symbol>
    
    <symbol id="duplicate" viewBox="0 0 16 16">
        <path d="M15,3v7c0,1.1-0.9,2-2,2V3H4c0-1.1,0.9-2,2-2h7C14.1,1,15,1.9,15,3z M8.93,5H2.07C0.93,5,0,5.93,0,7.07v6.86
	C0,15.07,0.93,16,2.07,16h6.86c1.14,0,2.07-0.93,2.07-2.07V7.07C11,5.93,10.07,5,8.93,5z"/>
    </symbol>
    
    <symbol id="more" viewBox="0 0 3 16">
       <path d="M0,3.5C0,2.67,0.67,2,1.5,2S3,2.67,3,3.5S2.33,5,1.5,5S0,4.33,0,3.5z M1.5,12C0.67,12,0,12.67,0,13.5
	C0,14.33,0.67,15,1.5,15S3,14.33,3,13.5C3,12.67,2.33,12,1.5,12z M1.5,7C0.67,7,0,7.67,0,8.5S0.67,10,1.5,10S3,9.33,3,8.5
	S2.33,7,1.5,7z"/>
    </symbol>
    
    <symbol id="delete" viewBox="0 0 16 16">
        <path d="M14.73,13.42c0.36,0.36,0.36,0.95,0,1.31s-0.95,0.36-1.31,0L9.5,10.81l-3.92,3.92c-0.36,0.36-0.95,0.36-1.31,0
	c-0.36-0.36-0.36-0.95,0-1.31L8.19,9.5L4.27,5.58c-0.36-0.36-0.36-0.95,0-1.31c0.36-0.36,0.95-0.36,1.31,0L9.5,8.19l3.92-3.92
	c0.36-0.36,0.95-0.36,1.31,0c0.36,0.36,0.36,0.95,0,1.31L10.81,9.5L14.73,13.42z"/>
    </symbol> 
    
    <symbol id="restore" viewBox="0 0 16 16">
        <path d="M8,3.14c-2.9,0.64-5.13,3.52-5,6.86H0l5.5,6l5.5-6H8c-0.36-2.23,0.56-4.27,2-4.9c1.89-0.83,5.12,0.58,6,3.92C15.42,4.93,11.49,2.36,8,3.14z"/>
    </symbol> 
    
    <symbol id="alert" viewBox="0 0 22 19">
        <path d="M22.6,19.4,13.5,4c-.8-1.4-2.2-1.4-3,0L1.4,19.4C.5,20.8,1.2,22,2.9,22H21.1C22.8,22,23.5,20.8,22.6,19.4ZM12,20a1.5,1.5,0,1,1,1.5-1.5A1.5,1.5,0,0,1,12,20Zm1.5-9.8-.9,5c-.3,1.6-.8,1.6-1.1,0l-.9-5c-.3-1.6.4-2.9,1.5-2.9S13.8,8.6,13.5,10.2Z" transform="translate(-1 -3)"/>
    </symbol>


    <!-- Other icons  -->

    <symbol id="blank-image" viewBox="0 0 68 48">
        <path d="M35,15c0-2.76,2.24-5,5-5s5,2.24,5,5s-2.24,5-5,5S35,17.76,35,15z M68,42c0,0.18-0.01,0.36-0.03,0.53L68,42.64l-0.04,0.06C67.61,45.69,65.08,48,62,48H6c-3.31,0-6-2.69-6-6V6c0-3.31,2.69-6,6-6h56c3.31,0,6,2.69,6,6V42z M5.31,45.93c1.09-5.01,4.63-19.61,9.04-20.28c1.29-0.19,2.5,0.72,3.57,2.73c2.32,4.31,4.13,6.52,5.4,6.59c0.89,0.04,1.73-1.14,2.59-2.4C27.05,30.89,28.34,29,30.5,29c1.57,0,2.6,1.79,3.69,3.69c1.36,2.37,2.78,4.81,5.2,4.38c2.39-0.42,4.37-4.15,6.47-8.09c2.88-5.41,5.86-10.99,10.73-9.79c3.91,0.97,7.37,9.8,9.41,16.29V6c0-2.21-1.79-4-4-4H6C3.79,2,2,3.79,2,6v36C2,43.97,3.44,45.6,5.31,45.93z"/>
    </symbol>

     <symbol id="gallery" viewBox="0 0 82 62">
       <path d="M45,29c0,2.76-2.24,5-5,5s-5-2.24-5-5s2.24-5,5-5S45,26.24,45,29z M78,10v36c0,3-2.2,5.48-5.08,5.92
	c-0.4,2.58-2.43,4.61-5.01,5C67.46,59.8,65,62,62,62H6c-3.31,0-6-2.69-6-6V20c0-3,2.21-5.48,5.08-5.92c0.4-2.57,2.42-4.6,5-5
	C10.52,6.2,13,4,16,4h56C75.31,4,78,6.69,78,10z M66,20c0-2.21-1.79-4-4-4H6c-2.21,0-4,1.79-4,4v36c0,1.97,1.44,3.6,3.31,3.93
	c1.09-5.01,4.63-19.61,9.04-20.28c1.29-0.19,2.5,0.72,3.57,2.73c2.32,4.31,4.13,6.52,5.4,6.59c0.89,0.04,1.73-1.14,2.59-2.4
	C27.05,44.89,28.34,43,30.5,43c1.57,0,2.6,1.79,3.69,3.69c1.36,2.37,2.78,4.81,5.2,4.38c2.39-0.42,4.37-4.15,6.47-8.09
	c2.88-5.41,5.86-10.99,10.73-9.79c3.91,0.97,7.37,9.8,9.41,16.29V20z M71,15c0-2.21-1.79-4-4-4H11c-1.86,0-3.4,1.28-3.85,3H62
	c3.31,0,6,2.69,6,6v34.86c1.72-0.45,3-2,3-3.86V15z M76,10c0-2.21-1.79-4-4-4H16c-1.86,0-3.4,1.28-3.85,3H67c3.31,0,6,2.69,6,6
	v34.86c1.72-0.45,3-2,3-3.86V10z"/>
    </symbol>

    <symbol id="magnifier" viewBox="0 0 24 23">
        <path d="M23.6,20.5l-6.8-6.8a9,9,0,1,0-1.9,2.3l6.7,6.7a1.5,1.5,0,0,0,2.1-2.1ZM9,16a7,7,0,1,1,7-7A7,7,0,0,1,9,16Z"/>
    </symbol>

    <symbol id="magnifier-small" viewBox="0 0 16 16">
        <path d="M14.81,13.14l-2.96-2.96c0,0-0.01,0-0.01,0C12.57,9.14,13,7.87,13,6.5C13,2.92,10.08,0,6.5,0S0,2.92,0,6.5S2.92,13,6.5,13
    c1.37,0,2.64-0.43,3.68-1.15c0,0,0,0.01,0,0.01l2.96,2.96c0.33,0.33,0.97,0.22,1.43-0.24C15.03,14.11,15.14,13.47,14.81,13.14z
     M6.5,11C4.02,11,2,8.98,2,6.5S4.02,2,6.5,2S11,4.02,11,6.5S8.98,11,6.5,11z"/>
    </symbol>


    <symbol id="switcher" viewBox="0 0 34 20"><rect fill="currentColor" y="2" width="30" height="16" rx="8" ry="8"/><circle cx="24" cy="10" r="10"/></symbol>


    <!-- Window icons  -->

    <symbol id="win-minimize" viewBox="0 0 10 1">
        <rect width="10" height="1"/>
    </symbol>

    <symbol id="win-expand" viewBox="0 0 10 10">
        <path d="M0,10H7V3H0ZM1,4H6V9H1Zm9-4V7H9V1H3V0Z"/>
    </symbol>

    <symbol id="win-maximize" viewBox="0 0 10 10">
        <path d="M9,1V9H1V1H9m1-1H0V10H10V0Z"/>
    </symbol>

    <symbol id="win-close" viewBox="0 0 10 10">
        <polygon points="10 0.66 9.34 0 5 4.34 0.66 0 0 0.66 4.34 5 0 9.34 0.66 10 5 5.66 9.34 10 10 9.34 5.66 5 10 0.66"/>
    </symbol>

    <symbol id="stats" viewBox="0 0 19 19">
        <path d="M3,7v10c0,0.5-0.5,1-1,1s-1-0.5-1-1V7c0-0.5,0.5-1,1-1S3,6.5,3,7z M7,1C6.5,1,6,1.5,6,2v15c0,0.5,0.5,1,1,1s1-0.5,1-1V2
    C8,1.5,7.5,1,7,1z M12,10c-0.5,0-1,0.5-1,1v6c0,0.5,0.5,1,1,1s1-0.5,1-1v-6C13,10.5,12.5,10,12,10z M17,6c-0.5,0-1,0.5-1,1v10
    c0,0.5,0.5,1,1,1s1-0.5,1-1V7C18,6.5,17.5,6,17,6z"/>
    </symbol>
    
    <symbol id="help" viewBox="0 0 20 20">
        <path d="M10,0A10,10,0,1,0,20,10,10,10,0,0,0,10,0Zm0,18a8,8,0,1,1,8-8A8,8,0,0,1,10,18Zm.75-4a1.15,1.15,0,0,1,.35.84,1.1,1.1,0,0,1-.36.87A1.24,1.24,0,0,1,9.9,16a1.31,1.31,0,0,1-.85-.31,1.1,1.1,0,0,1-.36-.88A1.15,1.15,0,0,1,9,14a1.17,1.17,0,0,1,.86-.34A1.15,1.15,0,0,1,10.75,14Zm2.77-8.39A2.8,2.8,0,0,1,14,7.16a2.34,2.34,0,0,1-.28,1.18,3.65,3.65,0,0,1-.65.88c-.26.24-.71.66-1.37,1.24a5.76,5.76,0,0,0-.43.43,2.62,2.62,0,0,0-.25.34,2,2,0,0,0-.12.31c0,.1-.07.29-.13.54a.89.89,0,0,1-.95.83,1,1,0,0,1-.7-.27,1.06,1.06,0,0,1-.29-.8A2.85,2.85,0,0,1,9,10.69a2.94,2.94,0,0,1,.55-.86A12.13,12.13,0,0,1,10.52,9c.34-.29.59-.52.74-.67a2.07,2.07,0,0,0,.38-.5,1.12,1.12,0,0,0,.16-.6,1.39,1.39,0,0,0-.48-1.07,1.72,1.72,0,0,0-1.22-.44,1.73,1.73,0,0,0-1.3.44,3.51,3.51,0,0,0-.7,1.3c-.19.6-.53.89-1,.89A1,1,0,0,1,6.31,8,.93.93,0,0,1,6,7.31a2.78,2.78,0,0,1,.49-1.52A3.7,3.7,0,0,1,7.91,4.51,4.51,4.51,0,0,1,10.1,4a4.71,4.71,0,0,1,2,.42A3.37,3.37,0,0,1,13.52,5.58Z"/>
    </symbol>

    <symbol id="on-live-preview" viewBox="0 0 19 19">
        <polygon class="st0" points="14,8 10,9 13,0 5,12 9,11 6,19 "/>
    </symbol>


    <symbol id="off-live-preview" viewBox="0 0 19 19">
       <polygon class="st0" points="14,8 10,9 13,0 5,12 9,11 6,19 "/>
    </symbol>



    <!-- Website icons  -->

    <symbol id="web-pizza" viewBox="0 0 26 26">
        <path d="M21.62,15.59l-6.65-1.08l2.36,6.37C19.37,19.77,20.93,17.87,21.62,15.59z M19,16c0.55,0,1,0.45,1,1c0,0.55-0.45,1-1,1
	s-1-0.45-1-1C18,16.45,18.45,16,19,16z M21.97,13.62C21.98,13.41,22,13.21,22,13c0-4.97-4.03-9-9-9s-9,4.03-9,9c0,4.97,4.03,9,9,9
	c0.89,0,1.75-0.13,2.57-0.38L12,12L21.97,13.62z M17,7.5c0.83,0,1.5,0.67,1.5,1.5s-0.67,1.5-1.5,1.5S15.5,9.83,15.5,9
	S16.17,7.5,17,7.5z M12,6c0.55,0,1,0.45,1,1c0,0.55-0.45,1-1,1s-1-0.45-1-1C11,6.45,11.45,6,12,6z M5,12c0-0.55,0.45-1,1-1
	s1,0.45,1,1c0,0.55-0.45,1-1,1S5,12.55,5,12z M8,18c-1.1,0-2-0.9-2-2c0-1.1,0.9-2,2-2s2,0.9,2,2C10,17.1,9.1,18,8,18z M8.5,11
	c0-0.83,0.67-1.5,1.5-1.5s1.5,0.67,1.5,1.5s-0.67,1.5-1.5,1.5S8.5,11.83,8.5,11z M13,19c0,0.55-0.45,1-1,1s-1-0.45-1-1
	c0-0.55,0.45-1,1-1S13,18.45,13,19z M25,13c0,0.37-0.02,0.74-0.06,1.1l-1.98-0.32C22.98,13.52,23,13.26,23,13c0-5.51-4.49-10-10-10
	S3,7.49,3,13c0,5.51,4.49,10,10,10c1.01,0,1.99-0.15,2.91-0.44l0.7,1.88C15.47,24.8,14.26,25,13,25C6.37,25,1,19.63,1,13
	C1,6.37,6.37,1,13,1S25,6.37,25,13z M22.61,15.75l1.98,0.32c-0.89,3.35-3.18,6.12-6.21,7.64l-0.7-1.89
	C20.05,20.57,21.85,18.38,22.61,15.75z"/>
    </symbol>

    <symbol id="web-ice-cream" viewBox="0 0 26 26">
        <path d="M11.3,22.25l-0.4,0.24c-0.06,0.04-0.15,0.01-0.18-0.06l-0.28-0.85c-0.03-0.1,0.08-0.19,0.18-0.13l0.68,0.41
	C11.44,21.95,11.44,22.15,11.3,22.25z M13.82,23.38l-1.18-0.71c-0.08-0.05-0.17-0.05-0.25,0l-1.17,0.7
	c-0.09,0.05-0.14,0.15-0.1,0.26l0.09,0.29c0,0,0.44,1.09,1.3,1.09c0.89,0,1.31-1.09,1.31-1.09l0.09-0.27
	C13.95,23.54,13.91,23.43,13.82,23.38z M10.05,15.64c0.02,0.03,0.04,0.05,0.07,0.07l2.27,1.37c0.08,0.05,0.17,0.05,0.25,0l2.27-1.37
	c0.15-0.09,0.15-0.3,0-0.39l-2.27-1.37c-0.08-0.05-0.17-0.05-0.25,0l-2.27,1.37C10.01,15.39,9.98,15.53,10.05,15.64z M11.06,13.7
	c0.18-0.11,0.14-0.37-0.07-0.42c-0.84-0.19-1.56-0.56-2.14-1.06c-0.09-0.08-0.23-0.09-0.32-0.01c-0.23,0.2-0.57,0.37-0.93,0.49
	c-0.06,0.02-0.09,0.09-0.07,0.14l0.55,1.65l0.22,0.67c0.02,0.07,0.11,0.1,0.18,0.06l0.41-0.25L11.06,13.7z M11.3,17.5l-2.27-1.37
	c-0.08-0.05-0.18-0.05-0.25,0L8.65,16.2l0.86,2.59c0.02,0.07,0.11,0.1,0.18,0.06l1.61-0.97C11.44,17.79,11.44,17.59,11.3,17.5z
	 M14.43,21.43l-0.7,0.42c-0.11,0.07-0.14,0.21-0.07,0.32c0.02,0.03,0.04,0.05,0.07,0.07l0.41,0.25c0.07,0.04,0.15,0.01,0.18-0.06v0
	l0.29-0.87C14.64,21.46,14.52,21.37,14.43,21.43z M16.33,16.17l-0.06-0.03c-0.08-0.05-0.17-0.05-0.25,0l-2.27,1.37
	c-0.17,0.09-0.17,0.3-0.01,0.39l1.62,0.98c0.06,0.04,0.15,0.01,0.18-0.06l0.84-2.5C16.39,16.25,16.37,16.19,16.33,16.17z
	 M16.18,12.22L16.18,12.22c-0.57,0.5-1.3,0.86-2.14,1.06c-0.21,0.05-0.25,0.31-0.07,0.42l2.16,1.29l0.44,0.26
	c0.06,0.04,0.15,0.01,0.18-0.06l0.24-0.71l0.58-1.73c-0.41-0.12-0.8-0.3-1.06-0.53C16.4,12.14,16.27,12.14,16.18,12.22z
	 M15.12,19.79l-2.49-1.48v0c-0.08-0.05-0.17-0.05-0.25,0l-2.47,1.46l-0.01,0.01c-0.06,0.05-0.06,0.14,0,0.18l0.04,0.03l2.44,1.45
	c0.08,0.05,0.17,0.05,0.25,0l2.46-1.46l0.02-0.02C15.18,19.91,15.18,19.83,15.12,19.79z M20.2,7.99c-0.16-0.15-0.43-0.15-0.6-0.01h0
	c-0.37,0.31-0.78,0.5-1.06,0.6c-0.11,0.04-0.21-0.08-0.14-0.17l0.24-0.33c0.36-0.5,0.5-1.11,0.4-1.7C18.53,3.33,15.8,1,12.51,1
	S6.5,3.35,5.98,6.41c-0.1,0.6,0.05,1.21,0.41,1.7l0.24,0.32C6.7,8.53,6.6,8.65,6.49,8.61C6.17,8.49,5.69,8.25,5.3,7.87
	C5.22,7.79,5.09,7.79,4.99,7.85C4.39,8.27,4,8.94,4,9.71c0,1.26,1.06,2.29,2.36,2.29c0.67,0,1.65-0.27,2.16-0.7
	c0.09-0.07,0.22-0.07,0.31,0.01c0.9,0.77,2.16,1.15,3.67,1.15s2.77-0.39,3.67-1.15c0.09-0.07,0.22-0.08,0.31-0.01
	c0.5,0.43,1.49,0.7,2.16,0.7c1.3,0,2.36-1.03,2.36-2.29C21,9.02,20.69,8.41,20.2,7.99z"/>
    </symbol>

    <symbol id="web-school" viewBox="0 0 26 26">
        <path d="M22,13.22v5.16c0,0.16-0.08,0.31-0.22,0.39l-7.14,4.18c-0.29,0.17-0.65-0.04-0.64-0.38v-5.17c0-0.16,0.08-0.31,0.22-0.39
	l7.14-4.18C21.64,12.66,22,12.87,22,13.22z M11.78,17l-7.14-4.12C4.36,12.72,4,12.93,4,13.27v5.1c0,0.16,0.08,0.3,0.22,0.39
	l7.14,4.18C11.64,23.11,12,22.9,12,22.55v-5.17C12,17.23,11.92,17.09,11.78,17z M24.79,9.18L13.42,2.11c-0.26-0.15-0.59-0.15-0.85,0
	L1.22,8.87c-0.29,0.17-0.29,0.59,0,0.76l11.36,6.43c0.26,0.15,0.59,0.15,0.85,0l10.08-5.88c0.28-0.17,0.37,0.04,0.5,0.38v8.37
	c-0.12,0.37,0.08,0.55,0.46,0.55c0.24,0,0.54-0.17,0.54-0.55V9.56C25,9.4,24.92,9.26,24.79,9.18z"/>
    </symbol>

    <symbol id="web-leaf" viewBox="0 0 26 26">
       <path d="M24.42,20.03c-2.99-0.46-3.21-0.67-3.21-0.67c0.9-4.24-1.29-8.66-4.4-11.21C12.66,4.76,6.36,7.23,1.46,2.07
	c-1.14-1.2-0.48,13.49,5.66,19.06c4.49,4.07,9.77,2.82,11.22,2.15c1.32-0.61,2.23-1.94,2.23-1.94c2.39,0.74,3.58,0.81,3.58,0.81
	C24.99,22.26,25.42,20.19,24.42,20.03L24.42,20.03z M19.12,20.46c-4.48-1.33-8.38-4.64-10.91-7.23C8,13.01,8.3,12.7,8.53,12.88
	c2.49,2.03,6.28,4.58,11.15,6.18C19.69,19.53,19.42,20.19,19.12,20.46z"/>
    </symbol>

    <symbol id="web-bag" viewBox="0 0 26 26">
        <path d="M2.85,24h20.31c1.02,0,1.85-0.82,1.85-1.83V12H1v10.17C1,23.18,1.82,24,2.85,24z M23.15,5.67h-0.46V5.21
	c0-0.25-0.21-0.46-0.46-0.46h-1.85c-0.25,0-0.46,0.21-0.46,0.46v0.46h-1.62V3.83c0-1.01-0.83-1.83-1.85-1.83H9.54
	C8.52,2,7.69,2.83,7.69,3.83v1.83H6.08V5.21c0-0.25-0.21-0.46-0.46-0.46H3.77c-0.25,0-0.46,0.21-0.46,0.46v0.46H2.85
	C1.82,5.67,1,6.49,1,7.5V10h24V7.5C25,6.49,24.18,5.67,23.15,5.67z M16.69,5.67H9.31v-1.6c0-0.25,0.21-0.46,0.46-0.46h6.46
	c0.25,0,0.46,0.21,0.46,0.46V5.67z"/>
    </symbol>

    <symbol id="web-shirt" viewBox="0 0 26 26">
        <path d="M24.94,8.44c-0.67-0.69-3.56-3.65-5.17-4.8C18.57,2.8,17.41,2,16.13,2C14.86,2,14.86,2.46,13,2.46S11.14,2,9.87,2
	C8.59,2,7.43,2.8,6.24,3.64c-1.61,1.15-4.5,4.1-5.17,4.8c-0.08,0.09-0.09,0.21-0.01,0.3l3.58,3.67c0.14,0.17,0.41,0.07,0.41-0.14
	V9.69c0-0.26,0.19-0.49,0.44-0.53c0.33-0.05,0.6,0.2,0.6,0.51v13.86C6.09,23.79,6.3,24,6.56,24h12.89c0.26,0,0.46-0.21,0.46-0.46
	V9.69c0-0.26,0.19-0.49,0.44-0.53c0.33-0.05,0.6,0.2,0.6,0.51v2.59c0,0.22,0.27,0.31,0.41,0.14l3.58-3.67
	C25.02,8.65,25.02,8.53,24.94,8.44z M13,6.53c-1.74,0-3.13-0.73-3.13-2.06c0-1.72,1.39-0.61,3.13-0.61c1.73,0,3.13-1.11,3.13,0.61
	C16.13,5.8,14.73,6.53,13,6.53z"/>

    </symbol>

    <symbol id="web-note" viewBox="0 0 26 26">
        <path d="M22.39,1.01C22.09,1.06,9.77,3.27,9.51,3.32C9.24,3.37,9,3.53,9,3.78v13.85c0,0-0.01,0.42-0.15,0.68
	c-0.19,0.34-0.53,0.59-1.01,0.73c-0.21,0.06-0.49,0.12-0.82,0.19C5.52,19.54,3,20.07,3,22.22c0,1.79,1.4,2.6,2.61,2.74
	C5.74,24.98,5.89,25,6.05,25c0.42,0,2.26-0.17,3.2-0.76c0.52-0.33,0.92-0.9,1.21-1.43c0.37-0.69,0.49-1.5,0.55-2.26V9.17
	c0-0.21,0.16-0.39,0.38-0.43l9.05-1.69C20.73,7,21,7.2,21,7.48V15v1c-0.1,0.38-0.44,0.36-0.92,0.51c-0.21,0.06-0.55,0.12-0.88,0.19
	c-1.51,0.31-4.02,0.84-4.02,2.98c0,1.94,1.59,2.72,2.61,2.79c0.41,0.02,0.7,0.02,1.21-0.05c0.51-0.07,1.47-0.32,2.28-0.75
	C22.4,21.07,23,20.12,23,18.88V1.46C22.99,1.2,22.76,0.94,22.39,1.01z"/>
    </symbol>

    <symbol id="web-mic" viewBox="0 0 26 26">
       <path d="M13.99,20.94c0,0.02,0.01,0.04,0.01,0.06v2h3c0.55,0,1,0.45,1,1s-0.45,1-1,1H9c-0.55,0-1-0.45-1-1s0.45-1,1-1h3v-2
	c0-0.02,0.01-0.04,0.01-0.06C7.51,20.45,4,16.64,4,12h2c0,3.86,3.14,7,7,7s7-3.14,7-7h2C22,16.64,18.49,20.45,13.99,20.94z M13,17
	c2.75,0,5-2.25,5-5h-4v-2h4V8h-4V6h4c0-2.75-2.25-5-5-5S8,3.25,8,6v6C8,14.75,10.25,17,13,17z"/>
    </symbol>

    <symbol id="web-headphone" viewBox="0 0 26 26">
       <path d="M25,13c0-6.63-5.37-12-12-12S1,6.37,1,13c0,2.73,0.92,5.23,2.46,7.25l0,0c0.55,0.75,3.1,3.74,3.84,4.69
	c0.06,0.08,0.17,0.09,0.25,0.02l1.89-1.67c0.88-0.66,1.07-1.91,0.42-2.8l-1.19-1.61c-0.66-0.88-1.91-1.07-2.8-0.42l-0.78,0.58
	C3.78,17.37,3,15.28,3,13C3,7.49,7.49,3,13,3s10,4.49,10,10c0,2.28-0.78,4.37-2.07,6.05l-0.78-0.58c-0.88-0.66-2.14-0.47-2.8,0.42
	l-1.19,1.61c-0.66,0.88-0.47,2.14,0.42,2.8l1.89,1.67c0.07,0.07,0.19,0.05,0.25-0.02c0.74-0.95,3.28-3.94,3.84-4.69l0,0
	C24.08,18.23,25,15.73,25,13z"/>
    </symbol>

    <symbol id="web-american-football" viewBox="0 0 26 26">
        <path d="M9.86,1.35L1.35,9.86c-0.58-3.81-0.3-7.19-0.18-8.28c0.02-0.21,0.2-0.39,0.41-0.41C2.16,1.1,3.38,1,4.97,1
	C6.38,1,8.08,1.08,9.86,1.35z M24.34,14.42l-9.91,9.91c-3.03-0.66-6.16-1.92-8.49-4.26c-2.34-2.34-3.6-5.46-4.26-8.49l9.91-9.91
	c3.03,0.66,6.16,1.92,8.49,4.26C22.41,8.26,23.68,11.39,24.34,14.42z M18.16,13.83c-0.16-0.2-0.4-0.29-0.66-0.27
	c-0.17,0.02-0.33,0.1-0.46,0.23l-1.11,1.11l-0.9-0.9l1.13-1.12c0.2-0.2,0.27-0.48,0.18-0.76c-0.01-0.04-0.03-0.08-0.05-0.11
	c-0.16-0.29-0.46-0.44-0.77-0.4c-0.17,0.02-0.32,0.1-0.44,0.23l-1.11,1.11l-0.9-0.9l1.13-1.13c0.2-0.2,0.27-0.48,0.18-0.76
	c-0.03-0.12-0.1-0.22-0.18-0.3c-0.17-0.17-0.41-0.25-0.65-0.21c-0.16,0.03-0.31,0.11-0.42,0.23L12,10.98l-0.9-0.9l1.13-1.12
	c0.2-0.2,0.27-0.48,0.18-0.76c-0.01-0.04-0.03-0.08-0.05-0.11c-0.16-0.29-0.46-0.44-0.77-0.4c-0.17,0.02-0.32,0.1-0.44,0.23
	l-1.11,1.11L9.19,8.17c-0.28-0.28-0.73-0.28-1.02,0c-0.28,0.28-0.28,0.73,0,1.02l0.85,0.85L7.9,11.16c-0.2,0.2-0.27,0.48-0.18,0.76
	c0.01,0.04,0.03,0.08,0.05,0.11c0.16,0.29,0.46,0.44,0.77,0.4c0.17-0.02,0.32-0.1,0.44-0.22l1.11-1.11l0.89,0.9l-1.13,1.12
	c-0.2,0.2-0.27,0.48-0.18,0.76c0.01,0.04,0.03,0.08,0.05,0.11c0.16,0.29,0.46,0.44,0.77,0.4c0.17-0.02,0.32-0.1,0.44-0.22l1.11-1.11
	l0.89,0.9l-1.13,1.12c-0.2,0.2-0.27,0.48-0.18,0.76c0.01,0.04,0.03,0.07,0.05,0.11c0.16,0.29,0.46,0.44,0.77,0.4
	c0.17-0.02,0.32-0.1,0.44-0.22L14,15.02l0.9,0.9l-1.13,1.12c-0.19,0.2-0.27,0.47-0.18,0.76c0.03,0.12,0.1,0.22,0.18,0.31
	c0.17,0.17,0.41,0.25,0.65,0.21c0.16-0.03,0.31-0.11,0.42-0.23l1.11-1.12l0.85,0.85c0.28,0.28,0.73,0.28,1.02,0
	c0.28-0.28,0.28-0.73,0-1.02l-0.85-0.85l1.11-1.11C18.36,14.58,18.39,14.11,18.16,13.83z M24.65,16.13l-8.51,8.52
	c1.79,0.27,3.49,0.35,4.89,0.35c1.59,0,2.82-0.1,3.39-0.17c0.21-0.02,0.39-0.2,0.41-0.41C24.95,23.33,25.22,19.95,24.65,16.13z"/>
    </symbol>

    <symbol id="web-racket" viewBox="0 0 26 26">
        <path d="M5.81,15.38l6.59,4.92c-1.02-0.12-2-0.43-2.92-0.91l-2.65,5.16c-0.38,0.49-1.08,0.59-1.58,0.22l-1.8-1.35
	c-0.5-0.37-0.6-1.07-0.22-1.57l4.27-3.95C6.78,17.17,6.21,16.31,5.81,15.38z M21.76,16.08c-1.57,2.06-3.7,3.42-5.92,3.98L5.1,12.04
	C5.04,9.76,5.76,7.36,7.33,5.3c3.38-4.44,9.34-5.63,13.33-2.66S25.13,11.63,21.76,16.08z M20,11c0-1.1-0.9-2-2-2s-2,0.9-2,2
	c0,1.1,0.9,2,2,2S20,12.1,20,11z"/>

    </symbol>

    <symbol id="web-car" viewBox="0 0 26 26">
        <path d="M25,20.19c0,1,0.13,1.81-0.31,1.81h-5.38C18.89,22,19,21.16,19,20.5C22,20.5,25,20.19,25,20.19z M1,20.19
	C1,21.25,0.98,22,1.37,22h5.31C7.08,22,7,21.17,7,20.5C4.01,20.5,1,20.19,1,20.19z M26,14.06v4.75c0,0.23-0.16,0.44-0.39,0.49
	c-0.93,0.21-3.89,0.64-12.61,0.64S1.32,19.51,0.39,19.3C0.16,19.25,0,19.04,0,18.81v-4.75c0-2.44,1.5-3.86,3-5.3
	C3.95,6.71,6.06,3,9.25,3h7.5c3.19,0,5.39,3.84,6.25,5.76C24.61,10.12,26,11.62,26,14.06z M5,8.88h16c0-0.62-1.34-4.38-3.88-4.38
	H8.88C6.69,4.5,5,8.25,5,8.88z M6,15.23c0-1.11-0.89-2-2-2c-1.11,0-2,0.89-2,2s0.89,2,2,2C5.11,17.23,6,16.33,6,15.23z M17.5,15.25
	c0-0.55-0.45-1-1-1h-7c-0.55,0-1,0.45-1,1c0,0.55,0.45,1,1,1h7C17.05,16.25,17.5,15.8,17.5,15.25z M24,15.25c0-1.11-0.89-2-2-2
	c-1.11,0-2,0.89-2,2c0,1.11,0.89,2,2,2C23.11,17.25,24,16.36,24,15.25z"/>
    </symbol>

    <symbol id="web-camera" viewBox="0 0 26 26">
       <path d="M16.89,14.32c0,2.21-1.74,3.99-3.89,3.99s-3.89-1.79-3.89-3.99c0-2.21,1.74-3.99,3.89-3.99S16.89,12.11,16.89,14.32z
	 M26,8.47v12.22C26,21.9,25.13,23,23.93,23H2.27C1.08,23,0,21.9,0,20.69V8.47c0-1.22,1.08-2.13,2.27-2.13h0.51V5.78
	c0-0.31,0.24-0.56,0.54-0.56h1.76c0.3,0,0.54,0.25,0.54,0.56v0.56H5.9c0.3,0,0.6-0.13,0.81-0.37C8.64,3.75,9.42,3,10.21,3H16
	c0.79,0,1.51,0.75,3.43,2.96c0.21,0.24,0.5,0.38,0.81,0.38h3.69C25.13,6.33,26,7.25,26,8.47z M18.78,14.6
	c0.16-3.49-2.65-6.37-6.05-6.21c-2.97,0.14-5.38,2.6-5.51,5.65c-0.16,3.49,2.65,6.37,6.05,6.21C16.24,20.11,18.65,17.65,18.78,14.6z
	 M20.38,9.46c0-0.5-0.39-0.9-0.88-0.9s-0.88,0.4-0.88,0.9c0,0.5,0.39,0.9,0.88,0.9S20.38,9.96,20.38,9.46z"/>
    </symbol>

    <symbol id="web-doc" viewBox="0 0 26 26">
        <path d="M15,5.85v-4.4C15,1.2,15.2,1,15.45,1c0.46,0,0.9,0.16,1.25,0.45l4.64,3.86C21.76,5.65,22,6.16,22,6.7
	C22,6.87,21.87,7,21.7,7h-5.54C15.52,7,15,6.48,15,5.85z M13,6V1H5.89C4.85,1,4,1.86,4,2.92v20.16C4,24.14,4.85,25,5.89,25h14.21
	c1.04,0,1.89-0.86,1.89-1.92V9h-6C14.53,9,13,7.49,13,6z"/>
    </symbol>

    <symbol id="web-credit-card" viewBox="0 0 26 26">
        <path d="M1,19.43c0,0.94,0.77,1.71,1.71,1.71h20.57c0.94,0,1.71-0.77,1.71-1.71v-8.57H1V19.43z M8.61,16.86h8.79
	c0.41,0,0.75,0.34,0.75,0.75c0,0.41-0.34,0.75-0.75,0.75H8.61c-0.41,0-0.75-0.34-0.75-0.75C7.86,17.19,8.19,16.86,8.61,16.86z
	 M4.75,16.86h0.64c0.41,0,0.75,0.34,0.75,0.75c0,0.41-0.34,0.75-0.75,0.75H4.75C4.34,18.36,4,18.02,4,17.61
	C4,17.19,4.34,16.86,4.75,16.86z M25,5.71v2.57H1V5.71C1,4.77,1.77,4,2.71,4h20.57C24.23,4,25,4.77,25,5.71z"/>

    </symbol>

    <symbol id="web-gear" viewBox="0 0 26 26">
       <path d="M23.02,13c0-1.31,0.82-2.43,1.98-2.88c-0.31-1.28-0.81-2.48-1.48-3.57c-0.4,0.17-0.83,0.27-1.26,0.27
	c-0.79,0-1.58-0.3-2.18-0.9c-0.93-0.93-1.14-2.3-0.64-3.44C18.36,1.81,17.16,1.31,15.88,1C15.44,2.16,14.31,2.98,13,2.98
	S10.56,2.16,10.12,1C8.84,1.31,7.64,1.81,6.55,2.48c0.51,1.13,0.29,2.51-0.64,3.44c-0.6,0.6-1.39,0.9-2.18,0.9
	c-0.43,0-0.86-0.09-1.26-0.27C1.81,7.64,1.31,8.84,1,10.12c1.16,0.44,1.98,1.56,1.98,2.88c0,1.31-0.82,2.43-1.97,2.88
	c0.31,1.28,0.81,2.48,1.48,3.57c0.4-0.17,0.82-0.26,1.25-0.26c0.79,0,1.57,0.3,2.18,0.9c0.93,0.92,1.14,2.3,0.64,3.43
	c1.09,0.67,2.29,1.17,3.57,1.48c0.44-1.16,1.56-1.97,2.88-1.97s2.43,0.82,2.88,1.97c1.28-0.31,2.48-0.81,3.57-1.48
	c-0.5-1.13-0.29-2.5,0.64-3.43c0.6-0.6,1.39-0.9,2.18-0.9c0.42,0,0.86,0.09,1.25,0.26c0.67-1.09,1.17-2.29,1.48-3.57
	C23.84,15.43,23.02,14.32,23.02,13L23.02,13z M13.06,17.99c-2.77,0-5-2.24-5-5s2.23-5,5-5s5,2.24,5,5S15.82,17.99,13.06,17.99z"/>
    </symbol>
    
    <symbol id="web-palette" viewBox="0 0 26 26">
        <path d="M23.88,18.74c-0.41-0.38-1.02-0.48-1.54-0.56c-0.72-0.12-0.99-0.25-1.41-0.62c-0.89-0.79-0.89-1.94,0-2.74l1.89-1.68
	c2.9-2.56,2.9-6.76,0-9.33C20.69,1.93,17.82,1,14.84,1c-3.48,0-7.12,1.27-9.92,3.76c-5.22,4.61-5.22,12.17,0,16.78
	c2.59,2.29,6.09,3.44,9.56,3.46h0.11c3.46,0,6.87-1.12,9.3-3.27C24.78,20.93,24.63,19.44,23.88,18.74L23.88,18.74z M4.5,10.5
	c0-1.11,0.89-2,2-2s2,0.89,2,2s-0.89,2-2,2S4.5,11.61,4.5,10.5z M7,18.38c-1.11,0-2-0.89-2-2s0.89-2,2-2s2,0.89,2,2
	S8.11,18.38,7,18.38z M11,8.31c-1.11,0-2-0.89-2-2s0.89-2,2-2s2,0.89,2,2S12.11,8.31,11,8.31z M15.5,22c-1.66,0-3-1.34-3-3
	s1.34-3,3-3c1.66,0,3,1.34,3,3S17.16,22,15.5,22z M17,9c-1.11,0-2-0.89-2-2s0.89-2,2-2s2,0.89,2,2S18.11,9,17,9z"/>
    </symbol>
    
    <symbol id="web-boat" viewBox="0 0 26 26">
        <path d="M22.47,25.89c-1.39-0.15-2.43-0.39-3.72-0.73c-1.32,0.61-4,0.84-5.77,0.84s-4.39-0.29-5.77-0.84
	c-1.27,0.33-2.33,0.56-3.68,0.72c-0.14,0.02-0.19-0.19-0.05-0.23c2.17-0.74,3.74-2.18,3.74-2.18c1.57,0.55,3.99,0.9,5.77,0.9
	s4.19-0.34,5.77-0.9c0,0,1.63,1.44,3.77,2.18C22.66,25.71,22.61,25.91,22.47,25.89z M25,14.91c0,0.14-0.03,0.28-0.08,0.4l-3.28,8.17
	c-1.65,0-3.4-1.32-3.4-1.32c-1.08,0.55-3.19,1.03-4.76,1.12c-0.17,0.01-0.33,0.01-0.48,0.01s-0.31,0-0.48-0.01
	c-1.57-0.09-3.68-0.58-4.76-1.12c0,0-1.75,1.32-3.4,1.32l-3.28-8.17C1.03,15.18,1,15.05,1,14.91c0-0.44,0.26-0.81,0.63-0.99
	L12.8,8.78c0.13-0.06,0.28-0.06,0.4,0l11.17,5.14C24.74,14.09,25,14.47,25,14.91z M11.08,14.1c0-0.73-0.32-1.32-0.72-1.32
	s-0.72,0.59-0.72,1.32s0.32,1.32,0.72,1.32S11.08,14.83,11.08,14.1z M16.36,14.1c0-0.73-0.32-1.32-0.72-1.32s-0.72,0.59-0.72,1.32
	s0.32,1.32,0.72,1.32S16.36,14.83,16.36,14.1z M4.1,11.83l1.52-0.7c0.07-0.03,0.12-0.1,0.14-0.17l0.97-5.14
	c0.15-0.64,0.44-0.96,0.97-0.96h10.63c0.53,0,0.79,0.3,0.97,0.96l0.97,5.14c0.01,0.08,0.07,0.14,0.14,0.17l1.52,0.7
	c0.18,0.08,0.37-0.07,0.34-0.26l-1.1-5.82V5.74c-0.34-1.6-1.05-2.82-2.39-2.82h-2.08l-0.12-0.48C16.35,1.59,15.58,1,14.7,1h-3.42
	c-0.88,0-1.64,0.59-1.86,1.45L9.3,2.92H7.24c-1.37,0-2.11,1.24-2.39,2.82l-1.09,5.82C3.72,11.76,3.92,11.91,4.1,11.83z"/>
    </symbol>
    
    <symbol id="web-cut" viewBox="0 0 26 26">
        <path d="M17.18,14.22c1.56-1.9,4.92-6.43,5.51-7.81c0.44-1.02,0.65-1.89,0.64-2.66c-0.01-1.03-0.37-1.69-1.12-2.34
	c-0.32-0.28-0.83-0.4-1.22-0.4L14,9.87l-0.61,0.77l-0.18,0.22l-0.01,0.01l-0.89,1.14c-0.01,0.01-0.01,0.02-0.02,0.02
	c-0.03,0.05-0.46,0.63-0.93,1.31c-0.18,0.27-0.37,0.55-0.55,0.81c-0.21,0.32-0.4,0.63-0.54,0.88c-0.22,0.41-0.45,0.83-0.65,1.24
	c-0.23,0.43-0.44,0.84-0.64,1.19c-0.62-0.42-1.34-0.64-2.1-0.64c-1.07,0-2.06,0.44-2.8,1.25C3.39,18.83,3,19.84,3,20.9
	c0,1.07,0.39,2.08,1.09,2.84c0.74,0.8,1.74,1.25,2.8,1.25c0.88,0,1.71-0.3,2.4-0.87c0.64-0.52,1.1-1.23,1.33-2.04
	c0.06-0.18,0.71-2,1.6-3.3c0.56-0.83,1.36-1.35,1.81-1.6l0.83-0.56C14.85,16.63,15.63,16.12,17.18,14.22z M6.91,22.52
	c-0.81,0-1.47-0.73-1.47-1.61c0-0.89,0.65-1.62,1.47-1.62c0.81,0,1.47,0.73,1.47,1.62C8.37,21.8,7.71,22.52,6.91,22.52z
	 M14.01,14.85c-0.54,0-0.98-0.42-0.98-0.92s0.44-0.92,0.98-0.92c0.54,0,0.98,0.42,0.98,0.92S14.55,14.85,14.01,14.85z M5.29,6.4
	C4.86,5.39,4.64,4.52,4.66,3.74c0.01-1.04,0.45-2,1.18-2.51C6.09,1.05,6.42,1,6.97,1l6.42,8.12l-2.84,3.8
	c-0.11,0.17-0.23,0.33-0.33,0.5c-0.06-0.05-0.11-0.1-0.15-0.16C7.9,10.45,5.82,7.62,5.29,6.4z M21.09,16.82
	c-0.75,0-1.47,0.22-2.1,0.64c-0.2-0.35-0.41-0.76-0.64-1.19c-0.21-0.4-0.42-0.81-0.64-1.2l-0.67,0.8l-2.23,1.91
	c0.32,0.27,0.65,0.6,0.94,1.01c0.89,1.3,1.53,3.13,1.59,3.3c0.23,0.81,0.69,1.52,1.33,2.04c0.69,0.57,1.52,0.87,2.4,0.87
	c2.16,0,3.91-1.83,3.91-4.09S23.25,16.82,21.09,16.82z M21.1,22.52c-0.81,0-1.47-0.73-1.47-1.62c0-0.89,0.65-1.61,1.47-1.61
	s1.47,0.73,1.47,1.61C22.57,21.8,21.91,22.52,21.1,22.52z"/>
    </symbol>
    
    <symbol id="web-film" viewBox="0 0 26 26">
        <path d="M24.14,3H1.86C0.84,3,0,3.87,0,4.92v17.17C0,23.14,0.84,24,1.86,24h22.27c1.03,0,1.86-0.87,1.86-1.92V4.92
	C26.01,3.87,25.16,3,24.14,3z M5,22.52C5,22.79,4.79,23,4.52,23H1.46C1.21,23,1,22.79,1,22.54v-3.07C1,19.21,1.21,19,1.46,19h3.07
	C4.79,19,5,19.21,5,19.46V22.52z M5,17.52C5,17.79,4.79,18,4.52,18H1.46C1.21,18,1,17.79,1,17.54v-3.06C1,14.21,1.21,14,1.48,14
	h3.06C4.79,14,5,14.21,5,14.46V17.52z M5,12.52C5,12.79,4.79,13,4.52,13H1.48C1.21,13,1,12.79,1,12.52V9.48C1,9.21,1.21,9,1.48,9
	h3.06C4.79,9,5,9.21,5,9.46V12.52z M5,7.52C5,7.79,4.79,8,4.52,8H1.46C1.21,8,1,7.79,1,7.54V4.48C1,4.21,1.21,4,1.48,4h3.06
	C4.79,4,5,4.21,5,4.46V7.52z M18.5,14h-10C8.22,14,8,13.78,8,13.5C8,13.22,8.22,13,8.5,13h10c0.28,0,0.5,0.22,0.5,0.5
	C19,13.78,18.78,14,18.5,14z M25,22.52c0,0.26-0.21,0.48-0.48,0.48h-3.06C21.21,23,21,22.79,21,22.54v-3.06
	c0-0.26,0.21-0.48,0.48-0.48h3.06c0.26,0,0.46,0.21,0.46,0.46V22.52z M25,17.52c0,0.26-0.21,0.48-0.48,0.48h-3.06
	C21.21,18,21,17.79,21,17.54v-3.06c0-0.26,0.21-0.48,0.48-0.48h3.06c0.26,0,0.46,0.21,0.46,0.46V17.52z M25,12.52
	c0,0.26-0.21,0.48-0.48,0.48h-3.06C21.21,13,21,12.79,21,12.54V9.48C21,9.21,21.21,9,21.48,9h3.06C24.79,9,25,9.21,25,9.46V12.52z
	 M25,7.52C25,7.79,24.79,8,24.52,8h-3.06C21.21,8,21,7.79,21,7.54V4.48C21,4.21,21.21,4,21.48,4h3.06C24.79,4,25,4.21,25,4.46V7.52z
	"/>
    </symbol>
    
    <symbol id="web-flask" viewBox="0 0 26 26">
        <path d="M24.3,18.68L17.02,7.46C17.01,7.41,17,7.37,16.98,7.33V2.85c0-0.13,0.1-0.24,0.23-0.23c0.42,0.01,0.77-0.3,0.77-0.69V1.69
	c0-0.38-0.34-0.69-0.75-0.69H8.75C8.34,1,8,1.31,8,1.69v0.23c0,0.39,0.35,0.7,0.77,0.69C8.9,2.61,9,2.72,9,2.85v4.48
	C8.99,7.37,8.97,7.41,8.96,7.46l-7.2,11.22C1.23,19.59,0.98,20.49,1,21.31C1.07,23.41,2.8,25,5.07,25h15.99
	c2.27,0,3.89-1.59,3.94-3.69C25.01,20.49,24.83,19.59,24.3,18.68z M7.79,15c-0.34,0-0.56-0.38-0.38-0.68l3.34-5.75
	C10.91,8.28,11,7.96,11,7.63V3.23c0-0.08-0.01-0.15-0.01-0.23H15c-0.01,0.07-0.01,0.15-0.01,0.23v4.41c0,0.33,0.09,0.65,0.25,0.93
	l3.34,5.75c0.18,0.3-0.04,0.68-0.38,0.68H7.79z"/>
    </symbol>
    
    <symbol id="web-heart" viewBox="0 0 26 26">
        <path d="M18.54,2h-0.06C16.19,2,14.17,3.21,13,4.99C11.83,3.21,9.81,2,7.52,2H7.46C3.89,2.03,1,4.93,1,8.5
	c0,2.13,0.93,5.15,2.76,7.63C7.23,20.86,13,25,13,25s5.77-4.14,9.24-8.87C24.07,13.64,25,10.62,25,8.5C25,4.93,22.11,2.03,18.54,2z"/>
    </symbol>
    
    <symbol id="web-journal" viewBox="0 0 26 26">
        <path d="M22,25c-0.01,0-0.99,0-1,0H4c-1.1,0-2-0.9-2-2V3c0-1.1,0.9-2,2-2h12v20H5c-0.55,0-1,0.45-1,1c0,0.55,0.45,1,1,1h17
	C23.28,23,23.28,24.98,22,25z M21,1h-2v20h2c1.1,0,2-0.9,2-2V3C23,1.9,22.1,1,21,1z"/>
    </symbol>
    
    <symbol id="web-rocket" viewBox="0 0 26 26">
        <path d="M24.87,1.33c-0.02-0.1-0.09-0.17-0.19-0.2C21.55,0.36,14.3,3.1,10.37,7.03C9.6,7.8,8.97,8.55,8.46,9.29
	C7.25,9.18,6.04,9.27,5,9.72c-2.91,1.28-3.76,4.63-4,6.07c-0.06,0.34,0.22,0.64,0.57,0.6l4.68-0.51c0.01,0.45,0.03,0.81,0.06,1.06
	c0.02,0.24,0.13,0.47,0.31,0.64l1.81,1.81c0.17,0.17,0.4,0.28,0.64,0.31c0.25,0.03,0.61,0.06,1.05,0.06l-0.51,4.68
	c-0.03,0.34,0.26,0.62,0.6,0.57c1.44-0.23,4.79-1.08,6.06-3.99c0.45-1.03,0.54-2.24,0.44-3.45c0.73-0.51,1.49-1.14,2.26-1.91
	C22.91,11.72,25.63,4.62,24.87,1.33z M15.46,10.56c-0.96-0.96-0.96-2.52,0-3.49c0.96-0.96,2.52-0.96,3.48,0s0.96,2.52,0,3.49
	C17.98,11.52,16.42,11.52,15.46,10.56z M8.64,20.36c-0.07,0.57-0.32,1.11-0.76,1.55c-1.04,1.04-4.9,1.14-4.9,1.14s0.1-3.86,1.14-4.9
	c0.43-0.43,0.99-0.69,1.55-0.76c0.18-0.02,0.29,0.2,0.16,0.33l-0.01,0.01c-0.24,0.24-0.37,0.67-0.46,1.14
	c-0.18,1.05,0.74,1.97,1.79,1.79c0.47-0.08,0.9-0.22,1.14-0.46C8.43,20.06,8.66,20.17,8.64,20.36z"/>
    </symbol>
    
    <symbol id="web-glass" viewBox="0 0 26 26">
        <path d="M16.16,13.8c0.46-0.36,0.89-0.7,1.25-1.07C19,11.13,19,9.69,19,8.63V8.37c0-2.06-1.21-5.49-1.73-6.86
	C17.15,1.2,16.88,1,16.55,1H9.54C9.19,1,8.91,1.21,8.79,1.52C8.25,2.92,7,6.4,7,8.51v0.27c0,1.08,0,2.55,1.64,4.18
	c0.38,0.38,0.82,0.72,1.3,1.09C11.04,14.91,12,15,12,16.87c0,2.01,0,4.01,0,6.02c0,0.03-0.01,0.1-0.09,0.11H9c-0.55,0-1,0.45-1,1
	c0,0.55,0.45,1,1,1h8c0.55,0,1-0.45,1-1c0-0.55-0.45-1-1-1h-2.89C14.05,23,14,22.95,14,22.89v-6.33C14,15.51,15.1,14.65,16.16,13.8z
	 M8.72,7c-0.05,0-0.08-0.03-0.1-0.04C8.61,6.94,8.58,6.91,8.6,6.86C8.91,5.3,9.51,3.3,9.92,2.07C9.96,2.05,9.99,2.03,10.03,2h5.94
	c0.04,0.03,0.07,0.05,0.11,0.07c0.41,1.23,1.01,3.23,1.33,4.78c0.01,0.05-0.01,0.08-0.02,0.1C17.37,6.98,17.34,7,17.28,7H8.72z"/>
    </symbol>
    
    <symbol id="web-pie" viewBox="0 0 26 26">
        <path d="M11.68,13.43l-9.69,2.56c-0.09,0.03-0.19-0.02-0.23-0.11C1.01,14.21,1,11.7,1,11.7C1,7.04,3.95,1.1,11.8,1
	C11.91,1,12,1.09,12,1.21v11.8C12,13.19,11.86,13.38,11.68,13.43z M14.21,3C14.1,3,14,3.08,14,3.2c0,1.42,0,9.81,0,11.59
	c0,0.2-0.13,0.36-0.32,0.41L3.16,17.77c-0.13,0.03-0.2,0.16-0.15,0.29C4.7,22.14,8.85,25.03,13.68,25C19.95,24.96,25,20.05,25,13.99
	C25,8.06,20.31,3.22,14.21,3z"/>
   
    <symbol id="web-paw" viewBox="0 0 26 26">
        <path d="M14.22,6.43c0.28-1.95,1.49-3.42,2.76-3.42H17V3c0.07,0,0.14,0.01,0.21,0.02c1.34,0.19,2.19,2.03,1.89,4.12
	c-0.28,1.95-1.49,3.42-2.76,3.42c-0.07,0-0.16-0.01-0.23-0.02C14.76,10.35,13.91,8.51,14.22,6.43z M9.93,10.56
	c0.07,0,0.16-0.01,0.23-0.02c1.35-0.19,2.19-2.03,1.89-4.11c-0.29-1.96-1.49-3.42-2.76-3.42c-0.08,0-0.16,0.01-0.23,0.02
	C7.71,3.22,6.87,5.06,7.17,7.14C7.46,9.09,8.67,10.56,9.93,10.56z M23.75,8.12C23.54,8.04,23.34,8,23.12,8h-0.02
	c-1.14,0.02-2.41,1.09-3.08,2.71c-0.8,1.94-0.43,3.93,0.83,4.44c0.2,0.08,0.41,0.12,0.63,0.12c1.14,0,2.43-1.08,3.11-2.71
	C25.38,10.62,25,8.63,23.75,8.12z M5.16,15.12c1.26-0.51,1.63-2.5,0.83-4.44C5.32,9.05,4.02,7.97,2.88,7.97
	c-0.22,0-0.43,0.04-0.63,0.12c-1.26,0.51-1.63,2.5-0.83,4.44c0.67,1.64,1.97,2.71,3.11,2.71C4.75,15.24,4.96,15.2,5.16,15.12z
	 M17.13,15.24c-1.6-2.48-2.3-3.41-4.13-3.41s-2.53,0.94-4.14,3.41c-1.37,2.11-4.15,2.29-4.84,4.08c-0.14,0.32-0.21,0.66-0.21,1.03
	c0,1.46,1.2,2.64,2.68,2.64c1.83,0,4.33-1.36,6.51-1.36c2.18,0,4.67,1.36,6.5,1.36c1.48,0,2.67-1.18,2.67-2.64
	c0-0.37-0.08-0.72-0.21-1.03C21.27,17.53,18.5,17.36,17.13,15.24z"/>
    </symbol>
        
    <symbol id="web-fire" viewBox="0 0 26 26">
        <path d="M10.38,1C12.09,8.77,3.94,8.61,4,16.43c0.05,6.4,6.99,8.57,8.53,8.57s7.96-1.36,8.45-8.57C21.4,10.29,16.15,4.43,10.38,1z
	 M14.77,21.46c-0.6,2.24-3.9,2.25-4.51,0.01c-0.09-0.32-0.14-0.66-0.14-1.01c0-2.37,2.4-5.09,2.4-5.09s2.38,2.73,2.38,5.09
	C14.9,20.81,14.86,21.14,14.77,21.46z"/>                
    </symbol>
        
    <symbol id="web-planet" viewBox="0 0 26 26">
        <path d="M9.42,4.79c1.72-0.78,3.71-1.01,5.69-0.51c4.44,1.11,7.19,5.43,6.35,9.81c-0.03,0.16-0.07,0.33-0.11,0.5
	c-0.28,1.08-0.62,1.98-1.25,2.83c-0.12,0.17-0.25,0.33-0.39,0.49c-0.3-0.15-0.61-0.32-0.93-0.5c-1.88-1.05-3.94-2.42-5.97-3.96
	c-2.58-1.96-4.93-4.08-6.65-6c0.12-0.17,0.25-0.33,0.39-0.49C7.37,5.99,8.27,5.31,9.42,4.79z M21.69,16.23
	c-0.22,0.58-0.4,0.92-0.4,0.92c0.98,1.11,1.32,1.79,1.71,2.45c0.13,0.22,0.4,0.69,0.05,0.65c-0.09-0.02-0.19-0.04-0.29-0.07
	c-1.14-0.28-2.74-0.99-4.52-1.97c-1.92-1.07-4.01-2.46-6.07-4.03c-2.74-2.08-5.22-4.34-7-6.36C4.35,6.9,3.69,6.03,3.26,5.3
	c-0.13-0.22-0.21-0.33-0.3-0.55C2.82,4.43,3.23,4.49,3.33,4.51c0.8,0.2,1.88,0.52,3.12,1.26c0,0,0.23-0.25,0.74-0.6
	C5.97,4.35,4.81,3.7,3.7,3.29c-1.24-0.46-2.2-0.36-2.54,0.2c-0.65,1.05,0.75,3.82,3.5,6.97C3.51,14.99,6.3,19.6,10.9,20.74
	c2.2,0.55,4.41,0.21,6.26-0.79c2.04,0.93,3.86,1.51,5.19,1.84c1.28,0.32,2.16,0.29,2.51-0.26C25.45,20.57,24.21,18.8,21.69,16.23z"/>
    </symbol>

    <symbol id="web-watch" viewBox="0 0 26 26">
        <path d="M17.95,6.75L17,1H9L8.05,6.75C6.2,8.2,5,10.45,5,13c0,2.55,1.2,4.8,3.05,6.25L9,25h8l0.95-5.75C19.8,17.8,21,15.55,21,13
	C21,10.45,19.8,8.2,17.95,6.75z M13,19c-3.3,0-6-2.7-6-6c0-3.3,2.7-6,6-6s6,2.7,6,6C19,16.3,16.3,19,13,19z"/>
    </symbol>
        
    <symbol id="web-idea" viewBox="0 0 26 26">
        <path d="M14.34,24.19c0,0.44-0.36,0.81-0.8,0.81h-2.07c-0.44,0-0.8-0.36-0.8-0.81c0-0.44,0.36-0.81,0.8-0.81h2.07
	C13.98,23.38,14.34,23.75,14.34,24.19z M21,9.13C21,4.63,16.97,1,12.5,1S4,4.64,4,9.13c0,1.79,0.76,3.24,1.73,4.62H5.72
	c0.63,0.87,1.23,1.02,1.81,2.02c0.84,1.45,1.04,2.35,1.07,3.21c0.02,0.5,0.43,0.88,0.92,0.88h0.51c0.13,0,0.23-0.1,0.23-0.23v-5.45
	c0-0.29-0.07-0.57-0.2-0.83l-1.21-2.42c-0.2-0.4,0.09-0.88,0.54-0.88c0.23,0,0.44,0.13,0.54,0.34l1.45,2.97
	c0.13,0.25,0.19,0.53,0.19,0.81v5.46c0,0.13,0.1,0.23,0.23,0.23h1.38c0.13,0,0.23-0.1,0.23-0.23v-5.46c0-0.28,0.06-0.56,0.19-0.81
	l1.46-2.98c0.1-0.2,0.3-0.32,0.52-0.32c0.43,0,0.71,0.46,0.52,0.84l-1.22,2.46c-0.13,0.26-0.2,0.54-0.2,0.82v5.45
	c0,0.13,0.1,0.23,0.23,0.23h0.57c0.49,0,0.89-0.38,0.92-0.87c0.05-0.89,0.27-1.86,1.06-3.23c0.58-1,1.18-1.15,1.81-2.02h-0.01
	C20.24,12.37,21,10.92,21,9.13z M14.68,20.85h-4.36c-0.44,0-0.8,0.36-0.8,0.81c0,0.44,0.36,0.81,0.8,0.81h4.36
	c0.44,0,0.8-0.36,0.8-0.81C15.49,21.21,15.12,20.85,14.68,20.85z"/>
    </symbol>
        
    <symbol id="web-pulse" viewBox="0 0 26 26">
        <path d="M26,16c0,1.66-1.34,3-3,3c-1.3,0-2.4-0.84-2.82-2H17c-0.41,0-0.78-0.25-0.93-0.63l-0.89-2.23l-2.21,8.12
	C12.85,22.7,12.45,23,12,23c-0.01,0-0.02,0-0.03,0c-0.46-0.01-0.85-0.34-0.95-0.79L7.96,7.64l-1.98,8.58C5.87,16.68,5.47,17,5,17H1
	c-0.55,0-1-0.45-1-1s0.45-1,1-1h3.2L7.03,2.77C7.13,2.32,7.53,2,8,2c0,0,0.01,0,0.01,0c0.47,0,0.87,0.33,0.97,0.79l3.15,14.95
	l1.91-7c0.11-0.41,0.48-0.71,0.91-0.74c0.42-0.03,0.83,0.23,0.99,0.63L17.68,15h2.51c0.41-1.16,1.51-2,2.82-2
	C24.66,13,26,14.34,26,16z"/>
    </symbol>   
        
    <!-- Folder icons  -->

    <symbol id="folder-opened" viewBox="0 0 22 16">
        <path d="M19.83,6H18V5.044a1.857,1.857,0,0,0-1.636-2.018H9.818L7.364,0H1.636A1.857,1.857,0,0,0,0,2.018V14l.016-.013A1.968,1.968,0,0,0,2.17,16h14.9a2.185,2.185,0,0,0,2.038-1.2l2.76-6.364C22.382,7.254,21.335,6,19.83,6ZM1.636.913h5.3L9.118,3.6l.271.335h6.974c.346,0,.732.454.732,1.105V6H4.93A2.185,2.185,0,0,0,2.892,7.2L.9,11.78V2.018C.9,1.366,1.29.913,1.636.913ZM20.95,8.042l-2.76,6.364A1.208,1.208,0,0,1,17.07,15H2.17A1.251,1.251,0,0,1,1.1,14.508a.545.545,0,0,1-.055-.549L3.81,7.595A1.208,1.208,0,0,1,4.93,7h14.9a1.251,1.251,0,0,1,1.065.492A.544.544,0,0,1,20.95,8.042Z"/>
    </symbol>

    <symbol id="folder-opened" viewBox="0 0 22 16">
        <path d="M19.83,6H18V5.044a1.857,1.857,0,0,0-1.636-2.018H9.818L7.364,0H1.636A1.857,1.857,0,0,0,0,2.018V14l.016-.013A1.968,1.968,0,0,0,2.17,16h14.9a2.185,2.185,0,0,0,2.038-1.2l2.76-6.364C22.382,7.254,21.335,6,19.83,6ZM1.636.913h5.3L9.118,3.6l.271.335h6.974c.346,0,.732.454.732,1.105V6H4.93A2.185,2.185,0,0,0,2.892,7.2L.9,11.78V2.018C.9,1.366,1.29.913,1.636.913ZM20.95,8.042l-2.76,6.364A1.208,1.208,0,0,1,17.07,15H2.17A1.251,1.251,0,0,1,1.1,14.508a.545.545,0,0,1-.055-.549L3.81,7.595A1.208,1.208,0,0,1,4.93,7h14.9a1.251,1.251,0,0,1,1.065.492A.544.544,0,0,1,20.95,8.042Z"/>
    </symbol>

    <symbol id="folder" viewBox="0 0 22 16">
        <path d="M7.93,1a1,1,0,0,1,.832.445l1.406,2.109.3.445H20a1,1,0,0,1,1,1v9a1,1,0,0,1-1,1H2a1,1,0,0,1-1-1V2A1,1,0,0,1,2,1H7.93m0-1H2A2,2,0,0,0,0,2V14a2,2,0,0,0,2,2H20a2,2,0,0,0,2-2V5a2,2,0,0,0-2-2H11L9.594.891A2,2,0,0,0,7.93,0Z"/>
    </symbol>

    <!-- Preview window icons  -->

    <symbol id="preview-prev" viewBox="0 0 10 20">
        <path d="M9.664.254A1,1,0,0,0,8.251.337l-8.008,9a.936.936,0,0,0-.07.12.974.974,0,0,0-.1.173.966.966,0,0,0-.047.183.712.712,0,0,0,0,.376.966.966,0,0,0,.047.183.974.974,0,0,0,.1.173.936.936,0,0,0,.07.12l8.008,9a1,1,0,0,0,1.5-1.328L2.33,10,9.747,1.665A1,1,0,0,0,9.664.254Z"/>
    </symbol>

    <symbol id="preview-next" viewBox="0 0 10 20">
        <path d="M.336.254A1,1,0,0,1,1.749.337l8.008,9a.936.936,0,0,1,.07.12.912.912,0,0,1,0,1.088.936.936,0,0,1-.07.12l-8.008,9a1,1,0,0,1-1.5-1.328L7.67,10,.253,1.665A1,1,0,0,1,.336.254Z"/>
    </symbol>

    <symbol id="preview-dev" viewBox="0 0 20 20">
        <path d="M1.472,2.9a14.459,14.459,0,0,0,.151,1.742,16.6,16.6,0,0,1,.225,1.844c0,.759.258,1.54-1.848,1.592v1.945c2.105.05,1.848,1.01,1.848,1.718a18.384,18.384,0,0,1-.188,1.971c-.075.683-.169,1.792-.169,2.423A3.536,3.536,0,0,0,5.313,20H6V18H5.767c-1.162,0-1.541-1.2-1.541-2.307a13.18,13.18,0,0,1,.126-1.66,15.879,15.879,0,0,0,.474-1.89C4.851,10.223,4,9.368,3,9.065v-.05C4,8.711,4.851,8,4.826,6.083c0-.632-.533-2.269-.533-2.724C4.293,2.247,4.63,2,5.767,2H6V0H5.337C2.963,0,1.472.528,1.472,2.9Z"/><path d="M20,10.025V8.08c-2.105-.051-1.848-.9-1.848-1.657a17.723,17.723,0,0,1,.225-1.909A12.442,12.442,0,0,0,18.528,2.9c0-2.375-1.491-2.9-3.865-2.9H14V2h.233c1.137,0,1.474.247,1.474,1.36,0,.454-.533,2.157-.533,2.79C15.149,8.069,16,8.711,17,9.014v.05c-1,.3-1.851,1.093-1.826,3.013a14.689,14.689,0,0,0,.474,1.824,15.241,15.241,0,0,1,.126,1.791c0,1.111-.379,2.307-1.541,2.307H14v2h.688a3.536,3.536,0,0,0,3.822-3.864c0-.631-.094-1.609-.169-2.292a19.573,19.573,0,0,1-.188-2.036C18.152,11.1,17.895,10.075,20,10.025Z"/>
    </symbol>

    <symbol id="preview-reload" viewBox="0 0 20 16">
        <path d="M0,9.86C0,5.367,3.768,2,8.421,2a8.346,8.346,0,0,1,8.421,8.4H20l-4.211,5.418L11.579,10.4h3.158A6.176,6.176,0,0,0,8.421,4.033,6.1,6.1,0,0,0,2.105,10a6.159,6.159,0,0,0,6.316,6.031,6.454,6.454,0,0,0,2.695-.624l1.295,1.64A8.724,8.724,0,0,1,8.421,18,8.285,8.285,0,0,1,0,9.86Z" transform="translate(0 -2)"/>
    </symbol>


    <!-- Message icons  -->

    <symbol id="success" viewBox="0 0 48 48">
        <path d="M24,1C11.3,1,1,11.3,1,24c0,12.7,10.3,23,23,23s23-10.3,23-23C47,11.3,36.7,1,24,1z M24,44
	C12.97,44,4,35.03,4,24C4,12.97,12.97,4,24,4s20,8.97,20,20C44,35.03,35.03,44,24,44z M34.91,15.59c0.78,0.8,0.79,2.1,0.01,2.91
	L21.59,32.39c-0.78,0.81-2.04,0.81-2.82,0.02l-5.67-5.79c-0.78-0.8-0.79-2.1-0.01-2.91c0.78-0.81,2.04-0.81,2.82-0.02l4.26,4.34
	l11.93-12.43C32.86,14.8,34.12,14.8,34.91,15.59z"/>
    </symbol>

    <symbol id="warning" viewBox="0 0 48 48">
        <path d="M26,34c0,1.1-0.9,2-2,2s-2-0.9-2-2c0-1.1,0.9-2,2-2S26,32.9,26,34z M47,24c0,12.7-10.3,23-23,23S1,36.7,1,24
	C1,11.3,11.3,1,24,1S47,11.3,47,24z M44,24c0-11.03-8.97-20-20-20S4,12.97,4,24c0,11.03,8.97,20,20,20S44,35.03,44,24z M24,10
	c-1.1,0-2,0.9-2,2v14c0,1.1,0.9,2,2,2s2-0.9,2-2V12C26,10.9,25.1,10,24,10z"/>
    </symbol>

    <symbol id="info" viewBox="0 0 48 48">
        <path d="M24,0A24,24,0,1,0,48,24,24,24,0,0,0,24,0ZM22.007,14.643a2.424,2.424,0,0,1,3.288,0,2.134,2.134,0,0,1,0,3.13,2.411,2.411,0,0,1-3.288-.006,2.127,2.127,0,0,1,0-3.124ZM28,34H20V32.74h.883a1.334,1.334,0,0,0,1-.312,1.578,1.578,0,0,0,.293-1.084V24a1.365,1.365,0,0,0-.421-1.07A1.662,1.662,0,0,0,20.6,22.55H20V21.317l5.922-.257V31.832a.816.816,0,0,0,.291.67,1.394,1.394,0,0,0,.891.238H28Z"/>
    </symbol>

    <!-- Post listing icons  -->

    <symbol id="featured-post" viewBox="0 0 19 19">
        <g>
            <path d="M9.5,5l0.8,1.8c0.4,0.8,1.1,1.3,2,1.5l2.1,0.3l-1.6,1.7c-0.6,0.6-0.8,1.4-0.7,2.2l0.4,2.2l-1.7-0.9
        c-0.4-0.2-0.8-0.3-1.3-0.3c-0.4,0-0.9,0.1-1.3,0.3l-1.7,0.9l0.4-2.2c0.1-0.8-0.1-1.7-0.7-2.2L4.6,8.6l2.1-0.3
        c0.9-0.1,1.6-0.7,2-1.5L9.5,5 M9.5,1C9.3,1,9.1,1.1,9,1.3L6.8,5.9C6.7,6.1,6.6,6.2,6.4,6.3L1.5,7C1,7.1,0.8,7.7,1.2,8l3.6,3.7
        c0.1,0.1,0.2,0.3,0.2,0.5l-0.8,5.1C4,17.7,4.3,18,4.6,18c0.1,0,0.2,0,0.3-0.1l4.3-2.4c0.1,0,0.2-0.1,0.3-0.1s0.2,0,0.3,0.1l4.3,2.4
        c0.1,0.1,0.2,0.1,0.3,0.1c0.3,0,0.6-0.3,0.6-0.7l-0.8-5.1c0-0.2,0-0.4,0.2-0.5L17.8,8c0.3-0.3,0.1-0.9-0.3-1l-4.9-0.7
        c-0.2,0-0.4-0.2-0.4-0.3L10,1.3C9.9,1.1,9.7,1,9.5,1L9.5,1z"/>
        </g>
    </symbol>

    <symbol id="hidden-post" viewBox="0 0 19 19">
        <path d="M18.7,10L19,9.5L18.7,9C16.2,5.5,13,3.5,9.5,3.5c-1.5,0-2.9,0.4-4.3,1L1.8,1.1C1.6,1,1.3,1,1.2,1.1C1,1.3,1,1.6,1.2,1.8
    L4.4,5C2.9,6,1.5,7.3,0.3,9L0,9.5L0.3,10c2.4,3.5,5.7,5.5,9.2,5.5c1.5,0,2.9-0.4,4.3-1l3.4,3.5c0.1,0.1,0.2,0.1,0.3,0.1
    s0.2,0,0.3-0.1c0.2-0.2,0.2-0.5,0-0.6L14.6,14C16.1,13,17.5,11.7,18.7,10z M9.5,13.3c-2.1,0-3.8-1.7-3.8-3.8c0-0.9,0.3-1.7,0.8-2.4
    l1,1C7.2,8.5,7.1,9,7.1,9.5c0,1.3,1.1,2.4,2.4,2.4c0.5,0,1-0.2,1.4-0.4l1,1C11.2,13,10.4,13.3,9.5,13.3z M12.5,11.9l-1-1
    c0.3-0.4,0.4-0.9,0.4-1.4c0-0.3-0.1-0.5-0.1-0.8C11.7,9,11.3,9.3,11,9.3c-0.5,0-0.9-0.4-0.9-0.9c0-0.5,0.4-0.9,0.9-0.9
    C10.5,7.2,10,7.1,9.5,7.1c-0.5,0-1,0.2-1.4,0.4l-1-1C7.8,6,8.6,5.7,9.5,5.7c2.1,0,3.8,1.7,3.8,3.8C13.3,10.4,13,11.2,12.5,11.9z"/>
    </symbol>

    <symbol id="draft-post" viewBox="0 0 19 19">
        <path d="M8,13.9L3,15l1.1-5L11,3.2l0.8,0.8l-6.9,6.9l1.5,1.5l6.9-6.9L14.8,7L8,13.9z M14.1,1.6l1.5,1.5l-1.5,1.5l1.5,1.5l0.8-0.8
    c0.8-0.8,0.8-2.2,0-3.1l-0.8-0.8c-0.8-0.8-2.2-0.8-3.1,0l-0.8,0.8l0.8,0.8L14.1,1.6z M17.5,17H1.5C1.2,17,1,17.2,1,17.5
    S1.2,18,1.5,18h16.1c0.3,0,0.5-0.2,0.5-0.5S17.8,17,17.5,17z"/>
    </symbol>
        
    <symbol id="excluded-post" viewBox="0 0 19 19">
        <path d="M10,2a8,8,0,1,0,8,8A8,8,0,0,0,10,2Zm0,14a6,6,0,1,1,6-6A6,6,0,0,1,10,16Zm4-6a1,1,0,0,1-1,1H7A1,1,0,0,1,7,9h6A1,1,0,0,1,14,10Z" />
    </symbol>

    <symbol id="padlock" viewBox="0 0 16 16">
        <path d="M13.18,6H13V5c0-2.76-2.24-5-5-5S3,2.24,3,5v1C1.9,6,1,6.9,1,8v6c0,1.1,0.9,2,2,2h10c1.1,0,2-0.9,2-2V7.82
	C15,6.81,14.19,6,13.18,6z M8,12c-0.83,0-1.5-0.67-1.5-1.5S7.17,9,8,9s1.5,0.67,1.5,1.5S8.83,12,8,12z M11,6H5V5c0-1.65,1.35-3,3-3
	s3,1.35,3,3V6z"/>
    </symbol>

    <!-- Post editor Sidebar icons  -->

    <symbol id="sidebar-seo" viewBox="0 0 24 24">
        <path d="M20.7,19.3l-5.5-5.5c0.9-1.2,1.5-2.8,1.5-4.5c0-4.1-3.3-7.4-7.4-7.4S2,5.3,2,9.4s3.3,7.4,7.4,7.4c1.7,0,3.2-0.6,4.5-1.5
    l5.5,5.5c0.2,0.2,0.4,0.3,0.7,0.3c0.3,0,0.5-0.1,0.7-0.3C21.1,20.3,21.1,19.7,20.7,19.3z M9.4,14.8c-3,0-5.4-2.4-5.4-5.4
    S6.4,4,9.4,4s5.4,2.4,5.4,5.4S12.4,14.8,9.4,14.8z"/>
    </symbol>

    <symbol id="sidebar-options" viewBox="0 0 24 24">
        <path d="M14,12c0,1.1-0.9,2-2,2s-2-0.9-2-2c0-1.1,0.9-2,2-2S14,10.9,14,12z M12,7c1.1,0,2-0.9,2-2c0-1.1-0.9-2-2-2
    s-2,0.9-2,2C10,6.1,10.9,7,12,7z M12,17c-1.1,0-2,0.9-2,2c0,1.1,0.9,2,2,2s2-0.9,2-2C14,17.9,13.1,17,12,17z"/>
    </symbol>

    <symbol id="sidebar-tags" viewBox="0 0 24 24">
        <path d="M17.5,8.4c0,1-0.8,1.8-1.8,1.8s-1.8-0.8-1.8-1.8s0.8-1.8,1.8-1.8S17.5,7.4,17.5,8.4z M22,10.8
    c0,0.7-0.3,1.4-0.8,1.9l-8.6,8.6c-0.5,0.5-1.2,0.8-1.9,0.8c-0.7,0-1.4-0.3-1.9-0.8l-6.1-6.1c-1-1-1-2.7,0-3.7l8.6-8.6
    C11.9,2.3,12.5,2,13.2,2c0,0,0,0,0,0l6.1,0C20.8,2,22,3.2,22,4.7L22,10.8z M20.2,10.8l0-6.1c0-0.5-0.4-0.8-0.8-0.8l-6.1,0
    c0,0,0,0,0,0c-0.2,0-0.4,0.1-0.6,0.2l-8.6,8.6c-0.3,0.3-0.3,0.8,0,1.2l6.1,6.1c0.3,0.3,0.8,0.3,1.2,0l8.6-8.6
    C20.1,11.2,20.2,11,20.2,10.8z"/>
    </symbol>

    <symbol id="sidebar-status" viewBox="0 0 24 24">
        <path d="M13.9,16.4h0.6V17h-5v-0.6h0.6c0.3,0,0.5-0.1,0.6-0.2c0.1-0.1,0.2-0.3,0.2-0.6v-3.8c0-0.2-0.1-0.4-0.3-0.6
    c-0.2-0.1-0.4-0.2-0.7-0.2H9.5v-0.6l3.7-0.1v5.5c0,0.1,0.1,0.3,0.2,0.3C13.5,16.3,13.7,16.4,13.9,16.4z M12,9.2
    c0.3,0,0.6-0.1,0.9-0.3c0.2-0.2,0.4-0.5,0.4-0.8c0-0.3-0.1-0.6-0.4-0.8C12.6,7.1,12.3,7,12,7c-0.3,0-0.6,0.1-0.9,0.3
    c-0.2,0.2-0.4,0.5-0.4,0.8c0,0.3,0.1,0.6,0.4,0.8C11.4,9.1,11.7,9.2,12,9.2z M22,12c0,5.5-4.5,10-10,10S2,17.5,2,12
    C2,6.5,6.5,2,12,2S22,6.5,22,12z M20,12c0-4.4-3.6-8-8-8s-8,3.6-8,8c0,4.4,3.6,8,8,8S20,16.4,20,12z"/>
    </symbol>

    <symbol id="sidebar-image" viewBox="0 0 24 24">
        <path d="M20,10.8v5.6c0,0.3-0.3,0.6-0.6,0.6H4.6C4.3,17,4,16.7,4,16.4v-1.3c0-0.3,0.2-0.8,0.4-1.1l4.1-5.8
    C8.6,8.1,8.8,8,8.9,8c0.1,0,0.3,0,0.4,0.1l4.9,4.4c0.2,0.1,0.4,0.2,0.6,0.2c0.1,0,0.3,0,0.4-0.1l4.3-2.2c0.1,0,0.2-0.1,0.2-0.1
    C19.9,10.4,20,10.5,20,10.8z M24,6.6v10.9c0,2-1.7,3.6-3.7,3.6H3.7C1.7,21,0,19.4,0,17.4V6.6C0,4.6,1.7,3,3.7,3h16.6
    C22.3,3,24,4.6,24,6.6z M22,6.6C22,5.7,21.2,5,20.3,5H3.7C2.8,5,2,5.7,2,6.6v10.8C2,18.3,2.8,19,3.7,19h16.6c0.9,0,1.7-0.7,1.7-1.6
    V6.6z"/>
    </symbol>

    <symbol id="sidebar-close" viewBox="0 0 24 24">
        <polygon points="24,7.7 23.3,7 19,11.3 14.7,7 14,7.7 18.3,12 14,16.3 14.7,17 19,12.7 23.3,17 24,16.3 19.7,12 "/>
    </symbol>

    <symbol id="sidebar-arrow" viewBox="0 0 24 24">
        <path d="M23.9,8.1c-0.2-0.2-0.5-0.2-0.7,0l-6.6,6.7L9.9,8.1C9.7,8,9.3,8,9.1,8.1C9,8.3,9,8.7,9.1,8.9l7,7c0.1,0.1,0.2,0.1,0.4,0.1
    c0,0,0,0,0,0c0,0,0,0,0,0c0.1,0,0.3,0,0.4-0.1l7-7C24,8.7,24,8.3,23.9,8.1z"/>
    </symbol>

    <symbol id="sidebar-analysis" viewBox="0 0 24 24">
        <path d="M6,10.2v10.9C6,21.6,5.5,22,5,22s-1-0.4-1-0.9V10.2c0-0.5,0.5-0.9,1-0.9S6,9.7,6,10.2z M20,6c-0.5,0-1,0.4-1,0.9v3.8v6.6
    v3.8c0,0.5,0.5,0.9,1,0.9s1-0.4,1-0.9v-3.8v-6.6V6.9C21,6.4,20.5,6,20,6z M10,2C9.5,2,9,2.4,9,2.9v18.2c0,0.5,0.5,0.9,1,0.9
    s1-0.4,1-0.9V2.9C11,2.4,10.5,2,10,2z M15,14c-0.5,0-1,0.4-1,0.9v6.1c0,0.5,0.5,0.9,1,0.9s1-0.4,1-0.9v-6.1C16,14.4,15.5,14,15,14z"/>
    </symbol>

    <!-- Tools icons  -->

    <symbol id="backup" viewBox="0 0 24 24">
        <path class="st0" d="M17.6,21.5C17.6,21.5,17.6,21.5,17.6,21.5c-2.9,1.7-6.4,2-9.6,0.8c-0.5-0.2-0.8-0.8-0.6-1.3
    c0.2-0.5,0.8-0.8,1.3-0.6c2.6,1,5.5,0.7,7.9-0.7c4.3-2.6,5.7-8.1,3.1-12.4c-2.5-4.3-8.1-5.7-12.3-3.1c-3.2,1.9-4.8,5.6-4.3,9.1
    l3.4,0l-4,4.3c-3.1-5.2-1.4-12,3.8-15.1s12-1.4,15.1,3.8C24.6,11.6,22.9,18.4,17.6,21.5z M11,6c-0.6,0-1,0.4-1,1v5c0,0,0,0.2,0,0.2
    c0,0.1,0.1,0.2,0.1,0.3c0,0,0,0,0,0c0.1,0.2,0.3,0.3,0.5,0.4l2.8,1.9c0.2,0.1,0.4,0.2,0.6,0.2c0.3,0,0.6-0.1,0.8-0.4
    c0.3-0.4,0.2-1.1-0.3-1.4L12,11.5V7C12,6.4,11.6,6,11,6z"/>
    </symbol>

    <symbol id="code" viewBox="0 0 24 14">
        <path d="M7.447,9.993,3.23,12.018l4.217,2.025a.95.95,0,0,1,.45,1.29,1,1,0,0,1-.891.536,1.017,1.017,0,0,1-.439-.1L.518,12.845A.947.947,0,0,1,0,12.018a.935.935,0,0,1,.376-.735,1.7,1.7,0,0,1,.177-.128L6.567,8.267A1.007,1.007,0,0,1,7.9,8.7.95.95,0,0,1,7.447,9.993Zm16.177,1.291a1.7,1.7,0,0,0-.177-.128L17.433,8.267A1.007,1.007,0,0,0,16.1,8.7a.95.95,0,0,0,.45,1.29l4.217,2.025-4.217,2.025a.95.95,0,0,0-.45,1.29,1,1,0,0,0,.891.536,1.017,1.017,0,0,0,.439-.1l6.049-2.925A.947.947,0,0,0,24,12.018.935.935,0,0,0,23.624,11.284ZM14.589,5.05a1.01,1.01,0,0,0-1.266.608L9.094,17.732a.955.955,0,0,0,.631,1.219,1.035,1.035,0,0,0,.425.044.993.993,0,0,0,.84-.652L15.22,6.269A.955.955,0,0,0,14.589,5.05Z" transform="translate(0 -5)"/>
    </symbol>

    <symbol id="css" viewBox="0 0 11 24">
        <path class="cls-1" d="M6,15v4a3.009,3.009,0,0,0,3,3s3.146-.521,4,0a2.327,2.327,0,0,1,1,1s.042.087.118.237a1.266,1.266,0,0,0,.321.4,1.548,1.548,0,0,0,.477.268,1.788,1.788,0,0,0,1.168,0,1.548,1.548,0,0,0,.477-.268,1.265,1.265,0,0,0,.321-.4A1.07,1.07,0,0,0,17,22.75v-2.5a1.029,1.029,0,0,0-.014-.114c0-.046.014-.089.014-.136V15H6Z" transform="translate(-6)"/><path class="cls-1" d="M16.99,11.8a1.979,1.979,0,0,0-.08-.389q-.029-.094-.068-.183t-.084-.175q-.046-.085-.1-.165t-.115-.154q-.061-.074-.129-.142t-.142-.129q-.074-.061-.154-.115t-.165-.1q-.085-.046-.175-.084t-.184-.068q-.094-.029-.191-.049a1.96,1.96,0,0,0-.2-.03A1.989,1.989,0,0,0,15,10h-.875a4.016,4.016,0,0,1-.875,0c-.252-.179-.288-.827-.306-1.2A1.991,1.991,0,0,1,13,8a7.8,7.8,0,0,0,.347-.716c.115-.269.226-.565.323-.874a7.947,7.947,0,0,0,.238-.954A5.414,5.414,0,0,0,14,4.5a8.031,8.031,0,0,0-.051-.907,7.3,7.3,0,0,0-.146-.845,6.232,6.232,0,0,0-.231-.764,4.964,4.964,0,0,0-.305-.666A3.672,3.672,0,0,0,12.9.768a2.57,2.57,0,0,0-.425-.415A1.808,1.808,0,0,0,12,.091,1.434,1.434,0,0,0,11,.091a1.808,1.808,0,0,0-.469.262A2.573,2.573,0,0,0,10.1.768a3.672,3.672,0,0,0-.37.549,4.964,4.964,0,0,0-.305.666,6.253,6.253,0,0,0-.231.764,7.312,7.312,0,0,0-.146.845A8.046,8.046,0,0,0,9,4.5a5.414,5.414,0,0,0,.093.957,7.97,7.97,0,0,0,.238.954c.1.309.208.6.323.874A7.812,7.812,0,0,0,10,8a1.989,1.989,0,0,1,.056.8c-.018.372-.054,1.02-.306,1.2a4.016,4.016,0,0,1-.875,0H8a1.99,1.99,0,0,0-.2.01,1.96,1.96,0,0,0-.2.03q-.1.02-.191.049t-.184.068q-.09.038-.175.084t-.165.1q-.08.054-.154.115t-.142.129q-.068.068-.129.142t-.115.154q-.054.08-.1.165t-.084.175q-.038.09-.068.183a1.979,1.979,0,0,0-.08.389A2.009,2.009,0,0,0,6,12v2H17V12A1.991,1.991,0,0,0,16.99,11.8ZM12.561,4.561A1.5,1.5,0,1,1,13,3.5,1.5,1.5,0,0,1,12.561,4.561Z" transform="translate(-6)"/>
    </symbol>

    <symbol id="robots" viewBox="0 0 24 24">
        <path class="st0" d="M22,11v4c0,0.5-0.5,1-1,1s-1-0.5-1-1v-4c0-0.5,0.5-1,1-1S22,10.5,22,11z M3,10c-0.5,0-1,0.5-1,1v4
    c0,0.5,0.5,1,1,1s1-0.5,1-1v-4C4,10.5,3.5,10,3,10z M8,17.7v2.8C8,21.3,8.7,22,9.5,22s1.5-0.7,1.5-1.5v-1.6c0.3,0,0.7,0.1,1,0.1
    s0.7,0,1-0.1v1.6c0,0.8,0.7,1.5,1.5,1.5s1.5-0.7,1.5-1.5v-2.8c1.8-1.3,3-3.4,3-5.7c-5,0-9,0-14,0C5,14.4,6.2,16.5,8,17.7z M19,10
    c-5,0-9,0-14,0c0-3.9,3.1-7,7-7S19,6.1,19,10z M12,7c0-1.1-0.9-2-2-2S8,5.9,8,7c0,1.1,0.9,2,2,2S12,8.1,12,7z M16,7.5
    C16,6.7,15.3,6,14.5,6S13,6.7,13,7.5S13.7,9,14.5,9S16,8.3,16,7.5z"/>
    </symbol>

    <symbol id="importer" viewBox="0 0 24 24">
        <path d="M20,16h2v6H2V2h6v2H4v16h16V16z M13.4,12H20v-2h-4.6L22,3.4L20.6,2L14,8.6V4h-2v6v0.6V11v0.9V12h0.1H13.4z"/>
    </symbol>

    <symbol id="htaccess" viewBox="0 0 24 24">
        <path class="st0" d="M14,20c0,1.1-0.9,2-2,2s-2-0.9-2-2s0.9-2,2-2S14,18.9,14,20z M12,15c1.1,0,1.3-0.8,1.3-1.8L14,3.8
    c0-1-0.9-1.8-2-1.8s-2,0.8-2,1.8l0.7,9.5C10.7,14.2,10.9,15,12,15z"/>
    </symbol>

    <symbol id="log" viewBox="0 0 24 24">
        <path d="M20,6l-5-5v0l0,0h-3H7C6.2,1,5.4,1.3,4.9,1.9C4.3,2.4,4,3.2,4,4v8v8c0,0.8,0.3,1.6,0.9,2.1C5.4,22.7,6.2,23,7,23h5h5
    c0.8,0,1.6-0.3,2.1-0.9S20,20.8,20,20v-8L20,6L20,6L20,6z M18,12.1v8c0,0.3-0.1,0.5-0.3,0.7c-0.2,0.2-0.4,0.3-0.7,0.3h-5H7
    c-0.3,0-0.5-0.1-0.7-0.3S6,20.4,6,20.1v-8v-8c0-0.3,0.1-0.5,0.3-0.7S6.7,3.1,7,3.1h5h3V6h3V12.1z M8,8c0-0.6,0.4-1,1-1h3
    c0.6,0,1,0.4,1,1s-0.4,1-1,1H9C8.4,9,8,8.6,8,8z M15,15H9c-0.6,0-1,0.4-1,1s0.4,1,1,1h6c0.6,0,1-0.4,1-1S15.6,15,15,15z M9,11
    c-0.6,0-1,0.4-1,1s0.4,1,1,1h6c0.6,0,1-0.4,1-1s-0.4-1-1-1H9z"/>
    </symbol>

    <symbol id="file-manager" viewBox="0 0 24 24">
        <path d="M20.8,10H19V9c0-1.1-0.7-2-1.6-2h-6.5L8.4,4H2.6C1.7,4,1,4.9,1,6v12c0,0,0,0,0,0c-0.1,1,0.8,2,2.2,2h14.9
    c0.9,0,1.7-0.5,2-1.2l2.8-6.4C23.4,11.3,22.3,10,20.8,10z M2,6.1C2,5.4,2.4,5,2.7,5h5.2l2.2,2.7L10.4,8h6.9C17.6,8,18,8.4,18,9.1V10
    H6c-0.9,0-1.7,0.5-2,1.2l-2,4.5V6.1z"/>
    </symbol>
        
    <!-- Server settings  icons  -->
        
    <symbol id="aws" viewBox="0 0 48 48">
        <path d="M14.9,13.34c-0.09-0.29-0.14-0.48-0.14-0.58c0-0.23,0.12-0.36,0.37-0.36h1.5c0.29,0,0.49,0.04,0.6,0.14
	c0.12,0.09,0.21,0.29,0.31,0.57l2.57,9.58l2.39-9.58c0.08-0.29,0.17-0.48,0.29-0.57c0.12-0.09,0.34-0.14,0.61-0.14h1.23
	c0.29,0,0.49,0.04,0.61,0.14c0.12,0.09,0.23,0.29,0.29,0.57l2.42,9.7l2.65-9.7c0.09-0.29,0.2-0.48,0.31-0.57
	c0.12-0.09,0.32-0.14,0.6-0.14h1.43c0.25,0,0.38,0.12,0.38,0.36c0,0.07-0.02,0.14-0.03,0.23c-0.02,0.09-0.05,0.2-0.11,0.36
	l-3.69,11.19c-0.09,0.29-0.2,0.48-0.32,0.57c-0.12,0.09-0.32,0.14-0.58,0.14h-1.32c-0.29,0-0.49-0.04-0.61-0.14
	c-0.12-0.1-0.23-0.29-0.29-0.58l-2.38-9.33l-2.36,9.32c-0.08,0.29-0.17,0.48-0.29,0.58s-0.34,0.14-0.61,0.14h-1.32
	c-0.28,0-0.46-0.04-0.58-0.14c-0.13-0.09-0.23-0.3-0.33-0.57L14.9,13.34z M34.98,24.79c0.4,0.22,0.99,0.41,1.76,0.58
	c0.77,0.17,1.56,0.26,2.36,0.26c0.78,0,1.51-0.1,2.21-0.33c0.66-0.19,1.22-0.45,1.7-0.81c0.48-0.34,0.84-0.78,1.12-1.27
	c0.26-0.49,0.4-1.06,0.4-1.68c0-0.76-0.23-1.44-0.71-2.03s-1.28-1.06-2.38-1.39l-2.18-0.65c-0.82-0.25-1.38-0.52-1.69-0.8
	s-0.46-0.62-0.46-1.03c0-0.59,0.24-1.01,0.72-1.29s1.17-0.41,2.04-0.41c1.09,0,2.07,0.19,2.94,0.57c0.26,0.11,0.46,0.17,0.58,0.17
	c0.23,0,0.35-0.16,0.35-0.46v-0.68c0-0.2-0.05-0.36-0.14-0.48c-0.09-0.13-0.25-0.24-0.46-0.36c-0.15-0.09-0.36-0.17-0.64-0.26
	c-0.27-0.09-0.56-0.16-0.87-0.23c-0.33-0.06-0.65-0.12-1-0.16C40.3,12.01,39.95,12,39.61,12c-0.67,0-1.32,0.08-1.93,0.25
	c-0.61,0.17-1.13,0.42-1.59,0.75c-0.46,0.32-0.82,0.73-1.1,1.19c-0.27,0.47-0.41,1-0.41,1.61c0,0.75,0.26,1.46,0.77,2.1
	c0.5,0.65,1.33,1.15,2.45,1.48l2.22,0.65c0.75,0.23,1.27,0.47,1.55,0.75c0.27,0.27,0.41,0.6,0.41,1.01c0,0.6-0.28,1.06-0.8,1.38
	c-0.52,0.32-1.27,0.48-2.24,0.48c-0.61,0-1.21-0.05-1.82-0.17c-0.6-0.12-1.17-0.29-1.69-0.51c-0.15-0.05-0.29-0.11-0.38-0.14
	c-0.1-0.03-0.19-0.04-0.28-0.04c-0.23,0-0.35,0.15-0.35,0.45v0.74c0,0.13,0.02,0.28,0.09,0.41C34.57,24.51,34.73,24.66,34.98,24.79z
	 M46.83,28.71c-0.55-0.65-5.27-1.2-8.15,0.73c-0.45,0.31-0.37,0.72,0.12,0.66c1.64-0.19,5.25-0.6,5.89,0.19
	c0.65,0.77-0.72,4.03-1.34,5.48c-0.18,0.44,0.22,0.62,0.63,0.28C46.68,33.88,47.38,29.37,46.83,28.71z M3.36,24.53
	c-0.75-0.7-1.13-1.62-1.13-2.78c0-1.23,0.46-2.23,1.39-2.98c0.93-0.75,2.18-1.13,3.75-1.13c0.52,0,1.06,0.04,1.62,0.12
	c0.56,0.08,1.15,0.19,1.76,0.32v-1.07c0-1.1-0.25-1.87-0.72-2.32c-0.49-0.45-1.32-0.67-2.5-0.67c-0.54,0-1.09,0.06-1.66,0.19
	c-0.57,0.13-1.12,0.29-1.66,0.49c-0.25,0.1-0.43,0.16-0.54,0.19c-0.11,0.03-0.18,0.04-0.25,0.04c-0.21,0-0.32-0.14-0.32-0.45v-0.71
	c0-0.23,0.03-0.41,0.11-0.51c0.08-0.1,0.21-0.2,0.43-0.3c0.54-0.26,1.18-0.48,1.93-0.65c0.75-0.19,1.55-0.28,2.39-0.28
	c1.82,0,3.16,0.39,4.02,1.17c0.84,0.78,1.27,1.97,1.27,3.56v4.69h0.07v0.02c0,0.54,0.06,0.97,0.17,1.29
	c0.12,0.32,0.28,0.67,0.49,1.04c0.08,0.12,0.11,0.23,0.11,0.33c0,0.14-0.09,0.29-0.29,0.43l-0.97,0.61
	c-0.14,0.09-0.28,0.13-0.4,0.13c-0.15,0-0.31-0.07-0.46-0.2c-0.21-0.22-0.4-0.45-0.55-0.68c-0.15-0.25-0.31-0.52-0.48-0.85
	c-1.2,1.33-2.7,2-4.51,2C5.14,25.57,4.12,25.22,3.36,24.53z M4.93,21.59c0,0.68,0.18,1.19,0.57,1.54c0.36,0.37,0.9,0.54,1.6,0.54
	c0.51,0,1.03-0.09,1.58-0.26c0.55-0.17,1.04-0.49,1.46-0.93c0.25-0.28,0.43-0.58,0.52-0.93s0.15-0.77,0.15-1.26v-0.61
	c-0.44-0.1-0.92-0.19-1.41-0.25s-0.97-0.09-1.44-0.09c-1.03,0-1.78,0.19-2.28,0.58C5.18,20.31,4.93,20.86,4.93,21.59z M41.86,31.47
	c-5.64,2.28-11.78,3.39-17.36,3.39c-8.28,0-16.28-2.18-22.77-5.78c-0.57-0.33-0.99,0.23-0.52,0.64C7.2,34.88,15.14,38,23.95,38
	c6.29,0,13.6-1.89,18.64-5.44C43.42,31.97,42.7,31.09,41.86,31.47z"/>
    </symbol>
    
    <symbol id="googlecloud" viewBox="0 0 200 48">
        <path d="M33.4,17.39c-0.74-2.65-2.26-5.03-4.37-6.86l-0.07,0.06l0.01-0.07C23,5.38,13.86,5.93,8.58,11.76
	c-1.47,1.62-2.53,3.55-3.11,5.63c0.06-0.02,0.12-0.02,0.18-0.04C2.83,19.19,0.98,22.32,1,25.87c0.02,3.14,1.52,6.09,4.08,8.01
	l0.01-0.01l-0.01,0.04c1.82,1.34,4.03,2.05,6.31,2.04L19.43,36l0,0h8.03c5.77,0.04,10.49-4.48,10.53-10.1
	C38.03,22.5,36.3,19.3,33.4,17.39z M27.47,29.74h-8.03l0,0l-8.05-0.04c-0.57,0-1.13-0.12-1.65-0.35l0,0
	c-2.02-0.89-2.92-3.21-2.01-5.18s3.29-2.84,5.32-1.95c0.89,0.39,1.6,1.09,2.01,1.95l4.66-4.54c-1.56-1.99-3.81-3.31-6.29-3.79
	c0.03-0.02,0.07-0.04,0.09-0.04c2.86-3.06,7.68-3.42,10.98-0.81h0.08c1.87,1.52,2.93,3.77,2.88,6.14v0.78
	c2.22,0,4.02,1.75,4.02,3.91C31.49,27.98,29.69,29.74,27.47,29.74z M111.84,18.92h-2.77V20h-0.1c-0.4-0.46-0.89-0.83-1.45-1.08
	c-0.64-0.31-1.34-0.47-2.05-0.46c-1.69,0-3.31,0.72-4.46,1.98c-1.25,1.26-1.94,2.99-1.91,4.78c-0.03,1.78,0.66,3.49,1.91,4.74
	c1.15,1.26,2.77,1.97,4.46,1.97c1.34,0.08,2.63-0.49,3.49-1.53h0.1v0.97c0.08,1.07-0.25,2.12-0.93,2.94
	c-0.68,0.71-1.63,1.08-2.6,1.02c-0.76,0.02-1.5-0.23-2.09-0.71c-0.55-0.45-0.98-1.03-1.26-1.69l-2.54,1.08
	c0.47,1.1,1.22,2.06,2.16,2.78c1.07,0.82,2.38,1.24,3.71,1.2c1.68,0.06,3.32-0.57,4.54-1.75c1.28-1.43,1.92-3.34,1.77-5.26V18.92z
	 M108.25,28.17c-0.63,0.74-1.56,1.15-2.52,1.13c-0.99,0.01-1.94-0.41-2.61-1.15c-0.74-0.78-1.14-1.82-1.12-2.9
	c-0.02-1.09,0.38-2.14,1.12-2.93c0.67-0.74,1.62-1.15,2.61-1.13c0.96-0.02,1.89,0.39,2.52,1.13c0.69,0.82,1.06,1.87,1.01,2.95
	C109.3,26.34,108.94,27.37,108.25,28.17z M86.54,20.41c-1.28,1.26-1.98,3-1.93,4.81c-0.05,1.81,0.65,3.55,1.93,4.81
	c2.64,2.57,6.81,2.57,9.45,0c1.28-1.26,1.98-3,1.93-4.81c0.05-1.81-0.65-3.55-1.93-4.81C93.35,17.84,89.18,17.84,86.54,20.41z
	 M93.9,28.14c-0.05,0.06-0.11,0.12-0.17,0.17c-1.46,1.38-3.74,1.31-5.11-0.17h-0.01c-0.75-0.78-1.15-1.83-1.13-2.92
	c-0.03-1.09,0.37-2.15,1.12-2.93c0.04-0.04,0.07-0.07,0.11-0.11c1.46-1.42,3.79-1.37,5.19,0.11c0.75,0.78,1.15,1.84,1.12,2.93
	C95.05,26.3,94.64,27.36,93.9,28.14z M81.47,20.41c-2.64-2.56-6.8-2.56-9.45,0c-1.28,1.26-1.98,3-1.93,4.81
	c-0.05,1.81,0.65,3.55,1.93,4.81c2.64,2.57,6.81,2.57,9.45,0h-0.01c1.28-1.26,1.99-3,1.94-4.81C83.44,23.41,82.74,21.67,81.47,20.41
	z M79.38,28.14c-0.05,0.06-0.11,0.12-0.17,0.17c-1.46,1.38-3.74,1.31-5.11-0.17h-0.01c-0.75-0.78-1.15-1.83-1.13-2.92
	c-0.03-1.09,0.37-2.15,1.12-2.93c0.04-0.04,0.07-0.07,0.11-0.11c1.46-1.42,3.79-1.37,5.19,0.11c0.75,0.78,1.15,1.84,1.12,2.93
	C80.53,26.3,80.12,27.36,79.38,28.14z M68.95,20.55c0.09,0.58,0.13,1.17,0.11,1.77c0.12,2.47-0.76,4.88-2.44,6.68
	c-1.87,1.97-4.48,3.05-7.17,2.95c-2.76,0.04-5.42-1.07-7.36-3.07c-2-1.91-3.12-4.59-3.09-7.38c-0.03-2.79,1.09-5.47,3.09-7.38
	c1.93-2.02,4.59-3.14,7.36-3.12c2.64-0.04,5.18,1,7.06,2.89l-1.99,2.05c-1.36-1.33-3.18-2.07-5.07-2.04
	c-1.98-0.02-3.88,0.8-5.24,2.26c-1.41,1.42-2.19,3.36-2.15,5.38c-0.02,1.99,0.76,3.91,2.15,5.31c2.87,2.9,7.5,2.96,10.44,0.12
	c0.87-0.97,1.41-2.21,1.53-3.52h-6.69v-2.9H68.95z M113.85,11.76h2.91v19.79h-2.91V11.76z M130.16,22.75
	c-0.18-0.46-0.4-0.9-0.66-1.32c-0.32-0.5-0.69-0.96-1.12-1.37c-0.49-0.49-1.07-0.87-1.71-1.13c-0.71-0.3-1.47-0.45-2.23-0.44
	c-1.68-0.04-3.3,0.65-4.46,1.89c-1.23,1.3-1.88,3.05-1.82,4.84c-0.05,1.79,0.64,3.53,1.88,4.8c1.23,1.28,2.93,1.98,4.7,1.94
	c1.19,0.02,2.35-0.31,3.36-0.95c0.84-0.53,1.57-1.23,2.14-2.06l-2.23-1.53c-0.69,1.16-1.93,1.87-3.27,1.87
	c-1.38,0.06-2.66-0.75-3.21-2.04l8.92-3.72L130.16,22.75z M121.02,25.01c-0.08-1.07,0.32-2.11,1.08-2.85
	c0.63-0.66,1.49-1.05,2.4-1.08c0.53-0.01,1.06,0.13,1.53,0.4c0.42,0.23,0.74,0.59,0.93,1.03L121.02,25.01z M151.29,27.05l1.61,1.63
	c-0.84,1.02-1.9,1.84-3.09,2.39c-1.29,0.6-2.69,0.9-4.1,0.88c-5.07,0.09-9.26-4.01-9.35-9.16c0-0.13,0-0.25,0-0.38
	c-0.12-5.15,3.9-9.42,8.97-9.54c0.12,0,0.25,0,0.37,0c2.54-0.08,4.97,1.02,6.61,2.99l-1.61,1.58c-1.21-1.54-3.06-2.4-5-2.32
	c-1.86-0.04-3.65,0.69-4.96,2.01c-1.37,1.4-2.1,3.31-2.02,5.27c-0.08,1.97,0.65,3.88,2.02,5.27c1.31,1.33,3.11,2.06,4.96,2.01
	C147.87,29.72,149.93,28.75,151.29,27.05z M154.9,13.26h2.31v18.28h-2.31V13.26z M160.98,20.54c-1.19,1.28-1.84,2.99-1.78,4.75
	c-0.05,1.76,0.59,3.47,1.78,4.75c2.52,2.54,6.58,2.54,9.1,0c1.19-1.28,1.84-2.99,1.78-4.75c0.05-1.76-0.59-3.47-1.78-4.75
	C167.56,18,163.5,18,160.98,20.54z M168.35,28.58c-0.05,0.05-0.1,0.1-0.15,0.15c-1.56,1.5-4.02,1.43-5.5-0.15l0.01-0.01
	c-0.82-0.88-1.25-2.06-1.2-3.27c-0.05-1.21,0.38-2.39,1.19-3.28c0.05-0.05,0.1-0.1,0.15-0.15c1.56-1.5,4.02-1.43,5.5,0.15
	c0.82,0.89,1.24,2.07,1.19,3.28C169.6,26.51,169.17,27.69,168.35,28.58z M182.35,19.05h2.31v12.5h-2.23v-1.73h-0.07
	c-0.4,0.66-0.96,1.2-1.63,1.56c-0.69,0.41-1.48,0.62-2.29,0.62c-1.32,0.09-2.61-0.43-3.5-1.43c-0.84-1.08-1.27-2.45-1.19-3.83v-7.7
	h2.31v7.27c0,2.33,1.01,3.5,3.04,3.5c0.92,0.03,1.79-0.39,2.34-1.13c0.6-0.77,0.92-1.72,0.9-2.71V19.05z M196.69,13.26v5.78
	l0.1,1.73h-0.1c-0.41-0.65-0.99-1.18-1.67-1.53c-0.78-0.42-1.64-0.63-2.52-0.61c-1.58-0.01-3.09,0.69-4.13,1.91
	c-1.16,1.3-1.78,2.99-1.73,4.74c-0.05,1.75,0.57,3.45,1.73,4.74c1.03,1.22,2.54,1.92,4.13,1.91c0.87,0.01,1.73-0.2,2.5-0.61
	c0.68-0.35,1.26-0.88,1.67-1.53h0.1v1.73H199V13.26H196.69z M195.65,28.59c-0.71,0.79-1.72,1.24-2.78,1.22
	c-1.07,0.02-2.09-0.44-2.8-1.25c-0.79-0.9-1.19-2.08-1.12-3.28c-0.07-1.2,0.33-2.38,1.12-3.28c0.08-0.09,0.16-0.17,0.25-0.25
	c1.54-1.42,3.92-1.31,5.32,0.25c0.78,0.91,1.18,2.09,1.12,3.29C196.84,26.5,196.44,27.68,195.65,28.59z"/>
    </symbol>
    
    <symbol id="githubpages" viewBox="0 0 147 48">
        <path d="M16.87,19.1v9.74c0,0.06-0.01,0.18-0.1,0.23c0,0-2.11,1.49-5.59,1.49c-4.2,0-9.19-1.3-9.19-10.02C2,11.81,6.36,10,10.6,10
	c3.69,0,5.14,0.82,5.38,0.99c0.09,0.06,0.11,0.16,0.11,0.23l-0.71,3.02c0,0.17-0.17,0.35-0.36,0.29c-0.59-0.18-1.51-0.56-3.66-0.56
	c-2.48,0-5.12,0.74-5.12,6.34c0,5.61,2.54,6.27,4.36,6.27c1.54,0,2.1-0.19,2.1-0.19v-3.88h-2.48c-0.16,0-0.3-0.13-0.3-0.3V19.1
	c0-0.16,0.13-0.3,0.3-0.3h6.36C16.74,18.8,16.87,18.93,16.87,19.1z M23.21,17.21c0-0.17-0.13-0.3-0.3-0.3h-3.57
	c-0.16,0-0.31,0.17-0.31,0.33c0,0,0,10.45,0,12.45c0,0.37,0.23,0.47,0.52,0.47c0,0,1.52,0,3.22,0c0.35,0,0.44-0.17,0.44-0.48
	c0-0.67,0-3.28,0-3.79C23.21,25.41,23.21,17.21,23.21,17.21z M49.32,10.74h-3.58c-0.16,0-0.3,0.13-0.3,0.3c0,0,0,6.95,0,6.95h-5.58
	v-6.95c0-0.17-0.13-0.3-0.3-0.3h-3.58c-0.16,0-0.3,0.13-0.3,0.3v18.83c0,0.17,0.13,0.3,0.3,0.3h3.58c0.16,0,0.3-0.13,0.3-0.3v-8.05
	h5.58c0,0-0.01,8.05-0.01,8.05c0,0.17,0.13,0.3,0.3,0.3h3.59c0.16,0,0.3-0.13,0.3-0.3V11.04C49.61,10.88,49.48,10.74,49.32,10.74z
	 M21.15,11.17c-1.27,0-2.31,1.05-2.31,2.34c0,1.29,1.03,2.34,2.31,2.34c1.28,0,2.31-1.05,2.31-2.34
	C23.46,12.22,22.43,11.17,21.15,11.17z M33.48,27.05c-0.16,0-0.56,0.06-0.97,0.06c-1.32,0-1.77-0.62-1.77-1.41c0-0.8,0-5.29,0-5.29
	h2.69c0.16,0,0.3-0.13,0.3-0.3v-2.9c0-0.17-0.13-0.3-0.3-0.3h-2.69c0,0,0-3.56,0-3.56c0-0.13-0.07-0.2-0.22-0.2h-3.66
	c-0.14,0-0.22,0.06-0.22,0.2v3.68c0,0-1.83,0.44-1.96,0.48c-0.12,0.04-0.21,0.15-0.21,0.29v2.31c0,0.17,0.13,0.3,0.3,0.3h1.88
	c0,0,0,2.42,0,5.57c0,4.14,2.89,4.55,4.84,4.55c0.89,0,1.96-0.29,2.13-0.35c0.11-0.04,0.17-0.15,0.17-0.27l0-2.55
	C33.78,27.18,33.64,27.05,33.48,27.05z M63.51,16.94h-3.55c-0.16,0-0.3,0.13-0.3,0.3v9.23c0,0-0.9,0.66-2.18,0.66
	c-1.28,0-1.62-0.58-1.62-1.84c0-1.26,0-8.05,0-8.05c0-0.17-0.13-0.3-0.3-0.3h-3.61c-0.16,0-0.3,0.13-0.3,0.3c0,0,0,4.91,0,8.66
	c0,3.75,2.08,4.66,4.93,4.66c2.34,0,4.23-1.3,4.23-1.3s0.09,0.68,0.13,0.77c0.04,0.08,0.15,0.16,0.26,0.16l2.29-0.01
	c0.16,0,0.3-0.13,0.3-0.3l0-12.64C63.81,17.07,63.67,16.94,63.51,16.94z M140.43,22.74c-2.49-0.21-2.96-0.81-2.96-1.95
	c0-1.28,0.55-2.24,3.12-2.24c1.74,0,2.75,0.26,3.76,0.6v-1.57c-1.14-0.5-2.52-0.65-3.74-0.65c-3.66,0-4.85,2.01-4.85,3.86
	c0,1.8,0.78,3.13,4.54,3.47c2.57,0.21,2.93,1.04,2.93,2.24c0,1.23-0.73,2.37-3.43,2.37c-1.84,0-3.09-0.31-3.89-0.6v1.56
	c0.83,0.34,2.62,0.65,3.87,0.65c3.95,0,5.22-2.01,5.22-4.02C145,24.33,144.12,23.08,140.43,22.74z M78.43,23.07
	c0,5.8-1.87,7.47-5.13,7.47c-2.78,0-4.25-1.4-4.25-1.4s-0.09,0.77-0.15,0.87c-0.06,0.1-0.15,0.16-0.26,0.16h-2.49
	c-0.16,0-0.3-0.14-0.3-0.3V11.04c0-0.17,0.13-0.3,0.3-0.3h3.59c0.16,0,0.3,0.13,0.3,0.3v6.37c0,0,1.37-0.9,3.39-0.9
	C75.44,16.51,78.42,17.27,78.43,23.07z M74.3,23.3c0-3.07-1.23-3.45-2.51-3.34c-1.01,0.09-1.84,0.6-1.84,0.6v5.96
	c0,0,0.84,0.56,2.07,0.6C73.74,27.17,74.3,26.53,74.3,23.3z M133.5,23.7v0.83h-8.57c0.1,2.27,0.7,4.33,3.63,4.33
	c1.87,0,3.01-0.18,4.28-0.73v1.56c-1.45,0.65-3.01,0.78-4.28,0.78c-4.39,0-5.45-3.02-5.45-6.78c0-3.75,1.06-6.78,5.45-6.78
	C132.98,16.92,133.5,19.95,133.5,23.7z M131.68,23.05c0-2.32-0.13-4.51-3.12-4.51c-3.01,0-3.56,2.16-3.63,4.51H131.68z
	 M122.19,32.57c0,3.18-3.17,4.43-6.75,4.43c-3.63,0-5.81-1.07-5.81-3.94c0-1.77,1.22-2.95,2.67-3.44v-0.03
	c-0.49-0.34-0.83-0.86-0.83-1.72c0-0.73,0.44-1.33,0.99-1.77c-1.56-0.86-2.08-2.45-2.08-4.28c0-2.69,1.14-4.9,5.06-4.9
	c0.8,0,1.48,0.1,2.08,0.26h4.41v0.99l-2.18,0.63c0.55,0.83,0.75,1.88,0.75,3.02c0,2.69-1.14,4.9-5.06,4.9
	c-0.65,0-1.22-0.05-1.72-0.16c-0.29,0.29-0.49,0.65-0.49,0.96c0,0.65,0.31,0.94,0.99,1.02l4.41,0.52
	C121.07,29.33,122.19,30.3,122.19,32.57z M115.44,25.14c3.04,0,3.38-1.59,3.38-3.31c0-1.72-0.34-3.31-3.38-3.31
	c-3.04,0-3.37,1.59-3.37,3.31C112.06,23.55,112.4,25.14,115.44,25.14z M120.47,32.57c0-1.33-0.62-1.85-2.21-2.03l-3.79-0.44
	c-1.71,0.39-3.17,1.2-3.17,2.87c0,1.93,1.45,2.48,4.13,2.48C118.04,35.44,120.47,34.78,120.47,32.57z M108.02,21.3v8.92H107
	l-0.39-1.04c-1.17,0.86-2.62,1.3-3.92,1.3c-3.4,0-4.54-2.01-4.54-4.2c0-2.22,1.22-3.86,4.62-4.07l3.43-0.21v-0.73
	c0-1.9-0.68-2.74-3.09-2.74c-1.74,0-2.88,0.31-3.89,0.65v-1.57c1.14-0.5,2.65-0.7,3.89-0.7C107,16.92,108.02,18.7,108.02,21.3z
	 M106.2,23.29l-3.56,0.34c-1.84,0.18-2.65,1.15-2.65,2.66c0,1.17,0.29,2.58,2.75,2.58c1.4,0,2.34-0.39,3.45-1.04V23.29z
	 M96.64,16.53c0,3.05-1.66,5.87-6.52,5.87h-4.18v7.82h0h-1.77V10.66h5.95C94.98,10.66,96.64,13.48,96.64,16.53z M94.72,16.53
	c0-1.88-0.7-4.22-4.36-4.22h-4.41v8.45h4.41C94.01,20.76,94.72,18.41,94.72,16.53z"/>
    </symbol>
    
    <symbol id="netlify" viewBox="0 0 102 48">
        <path d="M11.44,12.55c-0.02-0.02-0.03-0.02-0.02-0.05c0-0.02,0-0.03,0.02-0.05l7.23-7.44C18.67,5,18.69,5,18.7,5
	c0.02,0,0.02,0,0.03,0.02l3.11,3.19c0.02,0.02,0.02,0.05,0,0.06l-3.75,6.02c-0.02,0.02-0.03,0.03-0.05,0.03h-0.02
	c-0.2-0.06-0.4-0.09-0.59-0.09c-0.41,0-0.82,0.16-1.14,0.42c-0.02,0.02-0.02,0.02-0.03,0.02h-0.02
	C16.06,14.57,11.44,12.55,11.44,12.55z M23.91,19.67v-0.06v-0.08c0-0.09,0.02-0.19,0.03-0.26c0-0.03-0.02-0.05-0.03-0.06l-4.89-2.15
	h-0.02c-0.02,0-0.03,0.02-0.05,0.03c-0.33,0.53-0.9,0.84-1.5,0.84c-0.09,0-0.18-0.02-0.29-0.03h-0.02c-0.02,0-0.03,0.02-0.05,0.03
	l-4.03,6.46c-0.02,0.02-0.02,0.05,0,0.06c0.02,0.02,0.03,0.02,0.05,0.02h0.02l10.74-4.75C23.9,19.7,23.91,19.69,23.91,19.67z
	 M11.04,23.97h0.02c0.15-0.03,0.32-0.06,0.47-0.06c0.17,0,0.35,0.03,0.52,0.08h0.02c0.02,0,0.03-0.02,0.05-0.03l4.07-6.53
	c0.02-0.02,0.02-0.05,0-0.06c-0.32-0.34-0.5-0.79-0.5-1.28c0-0.14,0.02-0.28,0.05-0.42c0-0.03-0.02-0.05-0.03-0.06
	c-0.52-0.23-5.09-2.23-5.09-2.24h-0.02c-0.02,0-0.03,0-0.03,0.02l-3.87,3.98c-0.02,0.02-0.02,0.05,0,0.06L11,23.94
	C11.01,23.95,11.03,23.97,11.04,23.97z M13.63,25.93l8.74,1.87h0.02c0.02,0,0.03-0.02,0.05-0.03c0.26-0.47,0.71-0.78,1.23-0.81
	c0.03,0,0.05-0.02,0.05-0.05l0.94-5.99c0-0.02,0-0.05-0.03-0.05c-0.06-0.05-0.12-0.09-0.2-0.17c-0.02-0.02-0.03-0.02-0.03-0.02
	h-0.02l-10.8,4.78c-0.03,0.02-0.03,0.03-0.03,0.06c0.02,0.12,0.05,0.23,0.05,0.36C13.58,25.91,13.6,25.93,13.63,25.93z M9.69,25.04
	c0.09-0.19,0.23-0.36,0.36-0.51c0.02-0.02,0.02-0.05,0-0.06c-0.05-0.06-4.16-6.22-4.16-6.24c-0.02-0.02-0.02-0.02-0.05-0.03
	c-0.02,0-0.03,0-0.03,0.02l-4.8,4.92C1,23.14,1,23.16,1,23.17s0.02,0.03,0.05,0.03l8.6,1.87C9.66,25.07,9.68,25.06,9.69,25.04z
	 M26.65,18.44c0.02,0.02,0.02,0.02,0.03,0.02h0.02l3.49-1.54c0.02-0.02,0.03-0.03,0.03-0.05c0-0.02,0-0.03-0.02-0.05l-3.27-3.35
	c-0.02-0.02-0.03-0.02-0.03-0.02h-0.02c-0.02,0-0.03,0.02-0.03,0.05l-0.71,4.53c0.02,0.02,0.03,0.05,0.05,0.05
	C26.37,18.18,26.53,18.3,26.65,18.44z M18.94,15.05c0.17,0.26,0.27,0.58,0.3,0.89c0,0.02,0.02,0.03,0.03,0.05l5.2,2.29h0.02
	c0.02,0,0.03,0,0.03-0.02c0.15-0.12,0.33-0.22,0.53-0.28c0.02,0,0.03-0.02,0.03-0.05l0.85-5.46c0-0.02,0-0.03-0.02-0.05l-3.25-3.35
	c-0.02-0.02-0.02-0.02-0.03-0.02c-0.02,0-0.03,0.02-0.03,0.03l-3.66,5.88C18.93,15,18.93,15.04,18.94,15.05z M12.37,27.97h-0.02
	c-0.27,0.12-0.55,0.19-0.84,0.19c-0.23,0-0.44-0.03-0.67-0.11h-0.02c-0.02,0-0.03,0.02-0.05,0.03L8.6,31.59l-0.02,0.02
	c-0.02,0.02-0.02,0.05,0,0.06l10.06,10.32C18.66,42,18.67,42,18.67,42c0.02,0,0.03,0,0.03-0.02l1.76-1.82
	c0.02-0.02,0.02-0.05,0-0.06L12.41,28C12.4,27.98,12.38,27.97,12.37,27.97z M26.82,20.48H26.8c-0.02,0-0.03,0-0.05,0.02
	c-0.24,0.34-0.61,0.56-1.03,0.62c-0.02,0-0.05,0.02-0.05,0.05l-0.96,6.08c0,0.02,0,0.03,0.02,0.05c0.33,0.26,0.53,0.65,0.58,1.09
	c0,0.03,0.02,0.05,0.05,0.05l5.41,1.17h0.02c0.02,0,0.03,0,0.03-0.02l4.95-5.09c0.02-0.02,0.02-0.03,0.02-0.05
	c0-0.02,0-0.03-0.02-0.05L26.82,20.48z M36.69,23.47l-5.58-5.73c-0.02-0.02-0.03-0.02-0.03-0.02h-0.02l-3.78,1.66
	c-0.02,0.02-0.03,0.03-0.03,0.05c0,0.02,0.02,0.05,0.03,0.05l9.33,4.09h0.02c0.02,0,0.03,0,0.03-0.02l0.03-0.03
	C36.72,23.53,36.72,23.48,36.69,23.47z M25.05,29.49h-0.02c-0.02,0-0.03,0.02-0.05,0.02c-0.18,0.23-0.41,0.42-0.68,0.53
	c-0.02,0-0.03,0.03-0.03,0.05l-1.14,7.25c0,0.03,0.02,0.05,0.03,0.06h0.03c0.02,0,0.03,0,0.03-0.02l6.59-6.77
	c0.02-0.02,0.02-0.03,0.02-0.05c0-0.05-0.02-0.06-0.03-0.06L25.05,29.49z M23.17,30c-0.46-0.19-0.79-0.61-0.91-1.09
	c0-0.02-0.02-0.03-0.05-0.05l-8.81-1.88c0,0,0,0-0.02,0s-0.03,0.02-0.05,0.03c-0.05,0.08-0.08,0.14-0.12,0.2
	c-0.02,0.02-0.02,0.05,0,0.06l8.02,12.01c0.02,0.02,0.02,0.02,0.03,0.02c0.02,0,0.03,0,0.03-0.02l0.49-0.5
	c0-0.02,0.02-0.02,0.02-0.03l1.37-8.71C23.2,30.05,23.2,30.02,23.17,30z M9.25,26.15c0-0.03-0.02-0.05-0.05-0.05l-7.46-1.6
	c0,0,0,0-0.02,0c-0.02,0-0.03,0.02-0.05,0.03c-0.02,0.02,0,0.05,0.02,0.06l3.33,3.42c0.02,0.02,0.03,0.02,0.03,0.02h0.02l4.13-1.82
	C9.24,26.18,9.25,26.16,9.25,26.15z M9.92,27.39c-0.05-0.06-0.09-0.12-0.14-0.2c-0.02-0.02-0.03-0.03-0.05-0.03H9.72l-3.77,1.66
	c-0.02,0-0.03,0.02-0.03,0.03c0,0.02,0,0.03,0.02,0.05l1.84,1.88c0.02,0.02,0.03,0.02,0.03,0.02c0.02,0,0.03-0.02,0.05-0.03
	l2.08-3.35C9.93,27.42,9.93,27.41,9.92,27.39z M73.99,29.97h2.41V13.69h-2.41V29.97z M52.73,22.38v7.58h-2.41v-7.42
	c0-0.72-0.14-1.27-0.44-1.61c-0.3-0.36-0.78-0.53-1.45-0.53c-0.96,0-1.69,0.47-2.17,1.41v8.16h-2.41V18.49h2.26l0.08,1.33
	c0.8-1.02,1.84-1.53,3.13-1.53C51.57,18.29,52.7,19.66,52.73,22.38z M63.16,19.79c0.78,1,1.19,2.41,1.19,4.23v1.03h-7.02
	c0.08,0.95,0.36,1.7,0.89,2.25c0.51,0.55,1.18,0.83,1.96,0.83c1.1,0,2-0.48,2.7-1.44l1.3,1.33c-0.42,0.69-0.99,1.22-1.72,1.59
	c-0.72,0.38-1.54,0.56-2.43,0.56c-1.54,0-2.77-0.52-3.72-1.55c-0.95-1.03-1.43-2.41-1.43-4.11v-0.31c0-1.14,0.21-2.16,0.62-3.06
	c0.42-0.91,0.99-1.61,1.75-2.11c0.75-0.5,1.58-0.75,2.5-0.75C61.2,18.29,62.33,18.79,63.16,19.79z M61.95,23.16v-0.19
	c-0.06-0.86-0.27-1.52-0.65-1.95c-0.38-0.44-0.9-0.66-1.57-0.66c-0.66,0-1.21,0.23-1.61,0.73c-0.41,0.48-0.68,1.17-0.78,2.06h4.59
	H61.95z M70.66,28.04c0.27,0,0.56-0.03,0.84-0.11v2c-0.56,0.17-1.08,0.25-1.6,0.25c-1.85,0-2.79-1.09-2.79-3.28v-6.5h-1.76v-1.91
	h1.76v-2.78h2.41v2.78h1.9v1.91h-1.9v6.41c0,0.44,0.08,0.77,0.24,0.95C69.94,27.96,70.22,28.05,70.66,28.04z M80.13,29.97h2.41V18.5
	h-2.41V29.97z M98.42,18.5H101l-4.28,13.2c-0.66,1.92-1.78,2.89-3.34,2.89c-0.35,0-0.74-0.06-1.16-0.19v-2l0.45,0.03
	c0.6,0,1.07-0.13,1.37-0.36c0.32-0.23,0.56-0.63,0.74-1.19l0.35-0.98L91.34,18.5h2.61l2.27,7.78L98.42,18.5z M90.05,13.47
	c0.44,0,0.87,0.06,1.36,0.19l-0.06,2.02c-0.26-0.05-0.57-0.08-0.92-0.08c-1.16,0-1.73,0.63-1.73,1.89v1.02h2.18v1.91h-2.18v9.56
	h-2.41v-9.56h-1.64V18.5h1.64v-1.05c0-1.28,0.33-2.27,0.99-2.95S88.87,13.46,90.05,13.47z M80.13,13.46v2.25h2.41v-2.25H80.13z"/>
    </symbol>
    
    <symbol id="sftp" viewBox="0 0 79 48">
       <path d="M22.31,22.85C22.77,23.6,23,24.52,23,25.62c0,1-0.27,1.93-0.82,2.8c-0.55,0.87-1.32,1.52-2.33,1.94
	c-1,0.42-2.25,0.64-3.75,0.64c-2.18,0-3.85-0.51-5.01-1.52c-1.17-1.02-1.86-2.5-2.09-4.44l3.38-0.33c0.2,1.15,0.62,1.99,1.24,2.53
	c0.62,0.54,1.46,0.81,2.52,0.81c1.12,0,1.96-0.24,2.53-0.72c0.57-0.48,0.85-1.04,0.85-1.68c0-0.41-0.12-0.76-0.36-1.05
	c-0.24-0.29-0.66-0.54-1.25-0.75c-0.41-0.14-1.33-0.39-2.78-0.76c-1.86-0.47-3.17-1.04-3.92-1.72c-1.06-0.96-1.59-2.12-1.59-3.5
	c0-0.89,0.25-1.71,0.75-2.49c0.5-0.77,1.21-1.36,2.15-1.76c0.94-0.4,2.06-0.61,3.39-0.61c2.16,0,3.79,0.48,4.88,1.44
	s1.67,2.23,1.72,3.83l-3.48,0.15c-0.15-0.89-0.47-1.54-0.96-1.93s-1.22-0.59-2.2-0.59c-1.01,0-1.8,0.21-2.37,0.63
	c-0.37,0.27-0.55,0.63-0.55,1.08c0,0.41,0.17,0.76,0.52,1.06c0.44,0.37,1.5,0.76,3.19,1.16c1.69,0.4,2.94,0.82,3.75,1.25
	C21.22,21.52,21.85,22.11,22.31,22.85z M26,31h3.53v-7.65h7.31v-3.05h-7.31v-4.26H38V13H26V31z M41,16.05h5.23V31h3.56V16.05H55V13
	H41V16.05z M71,18.54c0,1.11-0.19,2.03-0.57,2.79c-0.38,0.75-0.86,1.34-1.44,1.77c-0.58,0.43-1.17,0.71-1.78,0.85
	c-0.82,0.17-2,0.26-3.55,0.26h-2.23V31H58V13h5.5c2.08,0,3.44,0.09,4.07,0.27c0.97,0.27,1.79,0.86,2.44,1.76
	C70.67,15.94,71,17.1,71,18.54z M67.47,18.59c0-0.65-0.18-1.19-0.54-1.62c-0.36-0.43-0.82-0.69-1.38-0.8
	c-0.41-0.08-1.23-0.12-2.46-0.12h-1.66v5.11h1.87c1.35,0,2.25-0.09,2.71-0.28c0.46-0.19,0.81-0.48,1.07-0.88
	C67.34,19.59,67.47,19.12,67.47,18.59z"/>
    </symbol>
        
    <symbol id="ftp" viewBox="0 0 79 48">
        <path d="M17,31h3.53v-7.65h7.31V20.3h-7.31v-4.26H29V13H17V31z M32,16.05h5.23V31h3.56V16.05H46V13H32V16.05z M62,18.54
	c0,1.11-0.19,2.03-0.57,2.79c-0.38,0.75-0.86,1.34-1.44,1.77s-1.17,0.71-1.78,0.85c-0.82,0.17-2,0.26-3.55,0.26h-2.23V31H49V13h5.5
	c2.08,0,3.44,0.09,4.07,0.27c0.97,0.27,1.79,0.86,2.44,1.76C61.67,15.94,62,17.1,62,18.54z M58.47,18.59c0-0.65-0.18-1.19-0.54-1.62
	s-0.82-0.69-1.38-0.8c-0.41-0.08-1.23-0.12-2.46-0.12h-1.66v5.11h1.87c1.35,0,2.25-0.09,2.71-0.28s0.81-0.48,1.07-0.88
	C58.34,19.59,58.47,19.12,58.47,18.59z"/>
    </symbol>
        
    <symbol id="zip" viewBox="0 0 48 48">
        <path d="M42,11.82V43.5c0,1.38-1.12,2.5-2.5,2.5h-29C9.12,46,8,44.88,8,43.5v-37C8,5.12,9.12,4,10.5,4h10
	C20.78,4,21,4.22,21,4.5S20.78,5,20.5,5h-10C9.67,5,9,5.67,9,6.5v37c0,0.83,0.67,1.5,1.5,1.5h29c0.82,0,1.5-0.67,1.5-1.5V12.54
	c0-0.53-0.21-1.04-0.59-1.41l-5.54-5.54C34.5,5.21,33.99,5,33.46,5H25v2.5C25,7.78,24.78,8,24.5,8H23v2h1.5c0.28,0,0.5,0.22,0.5,0.5
	v3c0,0.28-0.22,0.5-0.5,0.5H23v2h1.5c0.28,0,0.5,0.22,0.5,0.5v3c0,0.28-0.22,0.5-0.5,0.5H23v2h1.5c0.28,0,0.5,0.22,0.5,0.5v3
	c0,0.28-0.22,0.5-0.5,0.5H22v9h6v-9h-0.5c-0.28,0-0.5-0.22-0.5-0.5s0.22-0.5,0.5-0.5h1c0.28,0,0.5,0.22,0.5,0.5v10
	c0,0.28-0.22,0.5-0.5,0.5h-7c-0.28,0-0.5-0.22-0.5-0.5v-10c0-0.28,0.22-0.5,0.5-0.5H24v-2h-1.5c-0.28,0-0.5-0.22-0.5-0.5v-3
	c0-0.28,0.22-0.5,0.5-0.5H24v-2h-1.5c-0.28,0-0.5-0.22-0.5-0.5v-3c0-0.28,0.22-0.5,0.5-0.5H24v-2h-1.5c-0.28,0-0.5-0.22-0.5-0.5v-3
	C22,7.22,22.22,7,22.5,7H24V4.5C24,4.22,24.22,4,24.5,4h9.17c0.66,0,1.3,0.26,1.76,0.73l6.42,6.41c0.05,0.05,0.08,0.1,0.11,0.16
	C41.99,11.37,42,11.75,42,11.82z M25,31c-0.55,0-1,0.45-1,1s0.45,1,1,1s1-0.45,1-1S25.55,31,25,31z"/>
    </symbol>
        
    <symbol id="gitlab" viewBox="0 0 140 52"> 
         <polygon points="104.08,16.69 101.59,16.69 101.59,35.31 111.67,35.31 111.67,33.01 104.09,33.01 	"/>
         <path d="M118.69,20.75c-2.01,0-3.86,0.72-5.3,1.91l0.88,1.53c1.02-0.6,2.26-1.19,4.05-1.19
		c2.04,0,2.94,1.05,2.94,2.82v0.91c-0.4-0.09-1.22-0.14-1.73-0.14c-4.36,0-6.57,1.54-6.57,4.75c0,2.87,1.75,4.32,4.42,4.32
		c1.79,0,3.51-0.82,4.1-2.16l0.45,1.82h1.75v-9.53C123.7,22.77,122.4,20.75,118.69,20.75z M121.26,32.04
		c-0.62,0.65-1.67,1.31-3.09,1.31c-1.9,0-2.66-0.94-2.66-2.16c0-1.85,1.27-2.73,3.99-2.73c0.51,0,1.33,0.06,1.75,0.14V32.04z"/>
         <path d="M132.78,20.75c-2.23,0-3.42,1.52-3.42,1.52v-2.4l-0.01-3.18h-1.12h-1.31l0.01,18.17
		c1.22,0.51,2.89,0.8,4.7,0.8c4.64,0,6.88-2.99,6.88-8.13C138.5,23.46,136.43,20.75,132.78,20.75z M131.74,33.44
		c-0.93,0-1.75-0.11-2.38-0.4v-7.72v-0.9c0.85-0.71,1.9-1.22,3.23-1.22c2.41,0,3.34,1.71,3.34,4.46
		C135.92,31.59,134.42,33.44,131.74,33.44z"/>
         <path d="M77,18.71c2.21,0,3.62,0.74,4.56,1.48l1.07-1.86c-1.46-1.29-3.42-1.98-5.51-1.98c-5.29,0-9,3.24-9,9.78
		c0,6.85,4,9.53,8.58,9.53c2.29,0,4.25-0.54,5.52-1.08l-0.05-7.32v-0.86v-1.44h-6.79v2.3h4.33l0.05,5.56
		c-0.57,0.28-1.56,0.51-2.89,0.51c-3.68,0-6.14-2.33-6.14-7.22C70.72,21.12,73.27,18.71,77,18.71z"/>
         <path d="M94.52,16.69h-2.43l0.01,3.13v1.28v0.75v1.3v7.45v0.03c0,3.01,1.3,5.03,5.01,5.03
		c0.51,0,1.01-0.05,1.5-0.14v-2.2c-0.35,0.05-0.73,0.09-1.13,0.09c-2.04,0-2.94-1.05-2.94-2.81v-7.45h4.08V21.1h-4.08L94.52,16.69z"/>
         <rect x="85.91" y="21.1" width="2.43" height="14.22"/>
         <path id="path42" d="M85.91,19.13h2.43v-2.45h-2.43V19.13L85.91,19.13z"/>
         <g id="g44" transform="translate(0.464170, 0.676006)">
		 <path id="path46" fill="#FFFFFF" d="M57.12,29.06l-3.14-9.72L47.75,0.07c-0.32-0.99-1.72-0.99-2.04,0
			l-6.23,19.27H18.79L12.55,0.07c-0.32-0.99-1.72-0.99-2.04,0L4.28,19.33l-3.14,9.72c-0.29,0.89,0.03,1.86,0.78,2.41l27.21,19.86
			l27.21-19.86C57.1,30.91,57.41,29.94,57.12,29.06"/>
         </g>
         <g id="g56" transform="translate(24.893471, 1.012613)">
		<path id="path58"  fill-opacity="0.8" d="M4.7,50.99L-5.64,19h-14.5L4.7,50.99L4.7,50.99z"/>
	    </g>
         <g id="g64" transform="translate(0.077245, 0.223203)">
		<path id="path66"  fill-opacity="0.3" d="M4.67,19.79L4.67,19.79l-3.14,9.72
			c-0.29,0.89,0.03,1.86,0.78,2.41l27.21,19.86L4.67,19.79L4.67,19.79z"/>
         </g>
         <g id="g76" transform="translate(215.680133, 1.012613)">
		<path id="path78"  fill-opacity="0.8" d="M-186.08,50.99L-175.74,19h14.5L-186.08,50.99L-186.08,50.99z"/>
         </g>
         <g id="g80" transform="translate(214.902910, 0.223203)">
		<path id="path82" fill-opacity="0.3" d="M-160.46,19.79L-160.46,19.79l3.14,9.72
			c0.29,0.89-0.03,1.86-0.78,2.41l-27.21,19.86L-160.46,19.79L-160.46,19.79z"/>
         </g>
         <path d="M29.6,52L29.6,52l10.35-31.99H19.25L29.6,52L29.6,52z M4.75,20.01h14.5L13.02,0.74
		c-0.32-0.99-1.72-0.99-2.04,0L4.75,20.01L4.75,20.01z M54.44,20.01h-14.5l6.23-19.27c0.32-0.99,1.72-0.99,2.04,0L54.44,20.01
		L54.44,20.01z"/>
    </symbol>
    
    <!-- Search icons  (rememebr to add stroke color via CSS e.g. stroke: #000;-->

    <symbol id="close" viewBox="0 0 24 24"> 
         <line fill="none" stroke-linecap="round" stroke-miterlimit="10" x1="8" y1="16" x2="16" y2="8"/>
         <line fill="none" stroke-linecap="round" stroke-miterlimit="10" x1="16" y1="16" x2="8" y2="8"/>
    </symbol>
        
    <symbol id="arrow-down" viewBox="0 0 24 24"> 
         <line fill="none" stroke-linecap="round" stroke-miterlimit="10" x1="6" y1="9" x2="12" y2="15"/>
         <line fill="none" stroke-linecap="round" stroke-miterlimit="10" x1="18" y1="9" x2="12" y2="15"/>
    </symbol>
        
    <symbol id="arrow-up" viewBox="0 0 24 24"> 
         <line fill="none" stroke-linecap="round" stroke-miterlimit="10" x1="6" y1="15" x2="12" y2="9"/>
         <line fill="none" stroke-linecap="round" stroke-miterlimit="10" x1="18" y1="15" x2="12" y2="9"/>
    </symbol>
        
</svg>
