<svg xmlns="http://www.w3.org/2000/svg"> 
	
    <symbol id="markdown" viewBox="0 0 20 20">
        <path d="M6,10l4-4M2,6v8m8-8v8m6-8v8M2,6l4,4m8,2,2,2m0,0,2-2" fill="none" stroke="currentColor" stroke-linecap="round" stroke-linejoin="round" stroke-width="1.5"/>
    </symbol> 

    <symbol id="wysiwyg" viewBox="0 0 20 20">
        <path d="M4,6V4H16V6M7,16h6M10,4V16M8,10h4" fill="none" stroke="currentColor" stroke-linecap="round" stroke-linejoin="round" stroke-width="1.5"/>
    </symbol> 

    <symbol id="block" viewBox="0 0 20 20">
        <path d="M3,3H8V8H3Zm8,0V8h5V3Zm0,13h5V11H11ZM3,16H8V11H3Z" fill="none" stroke="currentColor" stroke-linecap="round" stroke-linejoin="round" stroke-width="1.5"/>
    </symbol>

    <symbol id="quick-preview" viewBox="0 0 20 20">
       <polygon points="14 8.58 9.56 9.53 12.89 1 4 12.37 8.44 11.42 5.11 19 14 8.58" fill="currentColor" />
    </symbol>

    <symbol id="full-preview-browser" viewBox="0 0 20 20">
      <path d="M3.44,7H13.56A1.35,1.35,0,0,1,15,8.22v8.56A1.35,1.35,0,0,1,13.56,18H3.44A1.35,1.35,0,0,1,2,16.78V8.22A1.35,1.35,0,0,1,3.44,7ZM6,4.22a1.12,1.12,0,0,1,.42-.86,1.6,1.6,0,0,1,1-.36H17.56a1.6,1.6,0,0,1,1,.36,1.12,1.12,0,0,1,.42.86v8.56a1.12,1.12,0,0,1-.42.86,1.6,1.6,0,0,1-1,.36" fill="none" stroke="currentColor" stroke-linecap="round" stroke-linejoin="round" stroke-width="1.5"/>
    </symbol>

    <symbol id="full-preview-monitor" viewBox="0 0 20 20">
       <path d="M3.56,3H16.44A1.56,1.56,0,0,1,18,4.56v7.88A1.56,1.56,0,0,1,16.44,14H3.56A1.56,1.56,0,0,1,2,12.44V4.56A1.56,1.56,0,0,1,3.56,3ZM7,17h6m-3-3v3" fill="none" stroke="currentColor" stroke-linecap="round" stroke-linejoin="round" stroke-width="1.5"/>
    </symbol>

    <symbol id="full-render-monitor" viewBox="0 0 20 20">
       <path d="M3.56,3H16.44A1.56,1.56,0,0,1,18,4.56v7.88A1.56,1.56,0,0,1,16.44,14H3.56A1.56,1.56,0,0,1,2,12.44V4.56A1.56,1.56,0,0,1,3.56,3ZM7,17h6m-3-3v3" fill="none" stroke="currentColor" stroke-linecap="round" stroke-linejoin="round" stroke-width="1.5"/>
       <line x1="19" y1="17" x2="1" y2="1" fill="none" stroke="currentColor" stroke-linecap="round" stroke-linejoin="round" stroke-width="1.5"/>
    </symbol>

    <symbol id="quick-render" viewBox="0 0 20 20">
       <polygon points="14 8.58 9.56 9.53 12.89 1 4 12.37 8.44 11.42 5.11 19 14 8.58" fill="currentColor" />
       <line x1="19" y1="18" x2="1" y2="1" fill="none" stroke="currentColor" stroke-linecap="round" stroke-linejoin="round" stroke-width="1.5"/>
    </symbol>
    
    <!-- Menu icons -->
    
    <symbol id="posts" viewBox="0 0 24 24" fill="none" stroke="currentColor" stroke-width="2" stroke-linecap="round" stroke-linejoin="round"><path d="M12 20h9"></path><path d="M16.5 3.5a2.121 2.121 0 0 1 3 3L7 19l-4 1 1-4L16.5 3.5z"></path>
    </symbol>

    <symbol id="pages" viewBox="0 0 24 24" fill="none" stroke="currentColor" stroke-width="2" stroke-linecap="round" stroke-linejoin="round"><path d="M14 2H6a2 2 0 0 0-2 2v16a2 2 0 0 0 2 2h12a2 2 0 0 0 2-2V8z"></path><polyline points="14 2 14 8 20 8"></polyline><line x1="16" y1="13" x2="8" y2="13"></line><line x1="16" y1="17" x2="8" y2="17"></line><polyline points="10 9 9 9 8 9"></polyline>
    </symbol>

    <symbol id="tags" viewBox="0 0 24 24" fill="none" stroke="currentColor" stroke-width="2" stroke-linecap="round" stroke-linejoin="round"><path d="M20.59 13.41l-7.17 7.17a2 2 0 0 1-2.83 0L2 12V2h10l8.59 8.59a2 2 0 0 1 0 2.82z"></path><line x1="7" y1="7" x2="7.01" y2="7"></line>
    </symbol>

    <symbol id="menus" viewBox="0 0 24 24" fill="none" stroke="currentColor" stroke-width="2" stroke-linecap="round" stroke-linejoin="round"><line x1="3" y1="12" x2="21" y2="12"></line><line x1="3" y1="6" x2="21" y2="6"></line><line x1="3" y1="18" x2="21" y2="18"></line>
    </symbol>

    <symbol id="authors" viewBox="0 0 24 24" fill="none" stroke="currentColor" stroke-width="2" stroke-linecap="round" stroke-linejoin="round"><path d="M17 21v-2a4 4 0 0 0-4-4H5a4 4 0 0 0-4 4v2"></path><circle cx="9" cy="7" r="4"></circle><path d="M23 21v-2a4 4 0 0 0-3-3.87"></path><path d="M16 3.13a4 4 0 0 1 0 7.75"></path>
    </symbol>

    <symbol id="server" viewBox="0 0 24 24" fill="none" stroke="currentColor" stroke-width="2" stroke-linecap="round" stroke-linejoin="round"><rect x="2" y="2" width="20" height="8" rx="2" ry="2"></rect><rect x="2" y="14" width="20" height="8" rx="2" ry="2"></rect><line x1="6" y1="6" x2="6.01" y2="6"></line><line x1="6" y1="18" x2="6.01" y2="18"></line>
    </symbol>

    <symbol id="themes" viewBox="0 0 24 24" fill="none" stroke="currentColor" stroke-width="2" stroke-linecap="round" stroke-linejoin="round"><line x1="4" y1="21" x2="4" y2="14"></line><line x1="4" y1="10" x2="4" y2="3"></line><line x1="12" y1="21" x2="12" y2="12"></line><line x1="12" y1="8" x2="12" y2="3"></line><line x1="20" y1="21" x2="20" y2="16"></line><line x1="20" y1="12" x2="20" y2="3"></line><line x1="1" y1="14" x2="7" y2="14"></line><line x1="9" y1="8" x2="15" y2="8"></line><line x1="17" y1="16" x2="23" y2="16"></line>
    </symbol>

    <symbol id="settings" viewBox="0 0 24 24" fill="none" stroke="currentColor" stroke-width="2" stroke-linecap="round" stroke-linejoin="round"><circle cx="12" cy="12" r="3"></circle><path d="M19.4 15a1.65 1.65 0 0 0 .33 1.82l.06.06a2 2 0 0 1 0 2.83 2 2 0 0 1-2.83 0l-.06-.06a1.65 1.65 0 0 0-1.82-.33 1.65 1.65 0 0 0-1 1.51V21a2 2 0 0 1-2 2 2 2 0 0 1-2-2v-.09A1.65 1.65 0 0 0 9 19.4a1.65 1.65 0 0 0-1.82.33l-.06.06a2 2 0 0 1-2.83 0 2 2 0 0 1 0-2.83l.06-.06a1.65 1.65 0 0 0 .33-1.82 1.65 1.65 0 0 0-1.51-1H3a2 2 0 0 1-2-2 2 2 0 0 1 2-2h.09A1.65 1.65 0 0 0 4.6 9a1.65 1.65 0 0 0-.33-1.82l-.06-.06a2 2 0 0 1 0-2.83 2 2 0 0 1 2.83 0l.06.06a1.65 1.65 0 0 0 1.82.33H9a1.65 1.65 0 0 0 1-1.51V3a2 2 0 0 1 2-2 2 2 0 0 1 2 2v.09a1.65 1.65 0 0 0 1 1.51 1.65 1.65 0 0 0 1.82-.33l.06-.06a2 2 0 0 1 2.83 0 2 2 0 0 1 0 2.83l-.06.06a1.65 1.65 0 0 0-.33 1.82V9a1.65 1.65 0 0 0 1.51 1H21a2 2 0 0 1 2 2 2 2 0 0 1-2 2h-.09a1.65 1.65 0 0 0-1.51 1z"></path>
    </symbol>

    <symbol id="tools" viewBox="0 0 24 24" fill="none" stroke="currentColor" stroke-width="2" stroke-linecap="round" stroke-linejoin="round"><path d="M14.7 6.3a1 1 0 0 0 0 1.4l1.6 1.6a1 1 0 0 0 1.4 0l3.77-3.77a6 6 0 0 1-7.94 7.94l-6.91 6.91a2.12 2.12 0 0 1-3-3l6.91-6.91a6 6 0 0 1 7.94-7.94l-3.76 3.76z"></path>
    </symbol>

    <symbol id="bell" viewBox="0 0 23 24">
        <path d="M22.735,18.321a11.9,11.9,0,0,1-2.885-7.13C19.851,1.941,15.309,0,11.5,0S3.15,1.964,3.15,11.323A11.324,11.324,0,0,1,.28,18.306,1,1,0,0,0,1,20H22a1,1,0,0,0,.734-1.679ZM3.024,18A12.444,12.444,0,0,0,5.15,11.323C5.15,2,9.93,2,11.5,2c4.273,0,6.35,3.006,6.35,9.191A12.9,12.9,0,0,0,20.008,18ZM9,22h4a2,2,0,0,1-4,0Z" />
    </symbol>

    <symbol id="add-site" viewBox="0 0 24 24">
        <path fill="#47AA6F" d="M13.1,10.9h3.3v2.2h-3.3v3.3h-2.2v-3.3H7.6v-2.2h3.3V7.6h2.2V10.9z M23,12c0,6.1-4.9,11-11,11S1,18.1,1,12
    S5.9,1,12,1S23,5.9,23,12z M21,12c0-5-4-9-9-9s-9,4-9,9c0,5,4,9,9,9S21,17,21,12z"/>
    </symbol>

    <symbol id="add-site-mono" viewBox="0 0 24 24">
        <path d="M13.1,10.9h3.3v2.2h-3.3v3.3h-2.2v-3.3H7.6v-2.2h3.3V7.6h2.2V10.9z M23,12c0,6.1-4.9,11-11,11S1,18.1,1,12
    S5.9,1,12,1S23,5.9,23,12z M21,12c0-5-4-9-9-9s-9,4-9,9c0,5,4,9,9,9S21,17,21,12z"/>
    </symbol>

     <symbol id="upload-file" viewBox="0 0 24 24">
        <path d="M11,19h2v2h-2V19z M12,4l-7,6.6L6.5,12L11,7.7V16h2V7.7l4.5,4.3l1.5-1.4L12,4z"/>
     </symbol>

    <symbol id="move-up" viewBox="0 0 24 24" fill="none" stroke="currentColor" stroke-width="2" stroke-linecap="round" stroke-linejoin="round">
       <line x1="12" y1="19" x2="12" y2="5"></line>
       <polyline points="5 12 12 5 19 12"></polyline>
    </symbol>

    <symbol id="move-down" viewBox="0 0 24 24" fill="none" stroke="currentColor" stroke-width="2" stroke-linecap="round" stroke-linejoin="round">
       <line x1="12" y1="5" x2="12" y2="19"></line>
       <polyline points="19 12 12 19 5 12"></polyline>
    </symbol>

    <!-- Buttons icons -->

    <symbol id="sync" viewBox="0 0 19 16">
        <path d="M19,8A8,8,0,0,1,3,8H0L4,2.67,8,8H5a6,6,0,1,0,6-6,5.934,5.934,0,0,0-2.56.58L7.21.95A8.007,8.007,0,0,1,19,8Z" />
    </symbol>

    <symbol id="plus" viewBox="0 0 20 20">
        <path d="M11,9h3v2H11v3H9V11H6V9H9V6h2Zm9,1A10,10,0,1,1,10,0,10,10,0,0,1,20,10Zm-2,0a8,8,0,1,0-8,8A8.009,8.009,0,0,0,18,10Z" />
    </symbol>

    <symbol id="trash" viewBox="0 0 16 16">
        <path d="M14.3,2.91H11.5V2.18A2.14,2.14,0,0,0,9.4,0H6.6A2.14,2.14,0,0,0,4.5,2.18v.73H1.7a.73.73,0,0,0,0,1.45h.7v9.46A2.14,2.14,0,0,0,4.5,16h7a2.14,2.14,0,0,0,2.1-2.18V4.36h.7a.73.73,0,0,0,0-1.45ZM5.9,2.18a.72.72,0,0,1,.7-.73H9.4a.72.72,0,0,1,.7.73v.73H5.9Zm6.3,11.64a.71.71,0,0,1-.7.72h-7a.71.71,0,0,1-.7-.72V4.36h8.4ZM7.3,7.27v4.37a.7.7,0,1,1-1.4,0V7.27a.7.7,0,1,1,1.4,0Zm2.8,0v4.37a.7.7,0,1,1-1.4,0V7.27a.7.7,0,1,1,1.4,0Z"/>
    </symbol>
    
    <symbol id="duplicate" viewBox="0 0 16 16">
        <path d="M13.88,16H7.27a2.12,2.12,0,0,1-2.13-2.12V7.27A2.13,2.13,0,0,1,7.27,5.14h6.61A2.12,2.12,0,0,1,16,7.27v6.61A2.12,2.12,0,0,1,13.88,16ZM7.27,6.45a.81.81,0,0,0-.82.82v6.61a.81.81,0,0,0,.82.81h6.61a.81.81,0,0,0,.81-.81V7.27a.81.81,0,0,0-.81-.82ZM3.51,10.2a.65.65,0,0,0-.65-.65H2.12a.81.81,0,0,1-.81-.82V2.12a.81.81,0,0,1,.81-.81H8.73a.82.82,0,0,1,.82.81v.74a.65.65,0,0,0,.65.65.66.66,0,0,0,.66-.65V2.12A2.13,2.13,0,0,0,8.73,0H2.12A2.12,2.12,0,0,0,0,2.12V8.73a2.13,2.13,0,0,0,2.12,2.13h.74A.66.66,0,0,0,3.51,10.2Z"/>
    </symbol>
    
    <symbol id="more" viewBox="0 0 3 16">
       <path d="M0,3.5C0,2.67,0.67,2,1.5,2S3,2.67,3,3.5S2.33,5,1.5,5S0,4.33,0,3.5z M1.5,12C0.67,12,0,12.67,0,13.5
	C0,14.33,0.67,15,1.5,15S3,14.33,3,13.5C3,12.67,2.33,12,1.5,12z M1.5,7C0.67,7,0,7.67,0,8.5S0.67,10,1.5,10S3,9.33,3,8.5
	S2.33,7,1.5,7z"/>
    </symbol>

    <symbol id="edit" viewBox="0 0 20 20">
       <path d="M14.83,19H3.44A2.44,2.44,0,0,1,1,16.56V5.17A2.45,2.45,0,0,1,3.44,2.72h5.7a.82.82,0,0,1,.81.82.81.81,0,0,1-.81.81H3.44a.82.82,0,0,0-.81.82V16.56a.81.81,0,0,0,.81.81H14.83a.82.82,0,0,0,.82-.81v-5.7a.81.81,0,1,1,1.62,0v5.7A2.44,2.44,0,0,1,14.83,19Z"/><path d="M6.7,14.12a.84.84,0,0,1-.58-.24.81.81,0,0,1-.21-.77l.81-3.26a1,1,0,0,1,.21-.38l7.74-7.73a2.54,2.54,0,0,1,3.59,3.59l-7.73,7.74a1,1,0,0,1-.38.21l-3.26.81A.63.63,0,0,1,6.7,14.12Zm1.54-3.66-.43,1.73,1.73-.44,7.57-7.57a.91.91,0,0,0-1.29-1.29h0Zm7-8.14h0Z"/>
    </symbol>

    <symbol id="delete" viewBox="0 0 16 16">
        <path d="M14.73,13.42c0.36,0.36,0.36,0.95,0,1.31s-0.95,0.36-1.31,0L9.5,10.81l-3.92,3.92c-0.36,0.36-0.95,0.36-1.31,0
	c-0.36-0.36-0.36-0.95,0-1.31L8.19,9.5L4.27,5.58c-0.36-0.36-0.36-0.95,0-1.31c0.36-0.36,0.95-0.36,1.31,0L9.5,8.19l3.92-3.92
	c0.36-0.36,0.95-0.36,1.31,0c0.36,0.36,0.36,0.95,0,1.31L10.81,9.5L14.73,13.42z"/>
    </symbol> 
    
    <symbol id="restore" viewBox="0 0 16 16">
        <path d="M8,3.14c-2.9,0.64-5.13,3.52-5,6.86H0l5.5,6l5.5-6H8c-0.36-2.23,0.56-4.27,2-4.9c1.89-0.83,5.12,0.58,6,3.92C15.42,4.93,11.49,2.36,8,3.14z"/>
    </symbol> 
    
    <symbol id="alert" viewBox="0 0 48 48">
         <path d="M26,34c0,1.1-0.9,2-2,2s-2-0.9-2-2c0-1.1,0.9-2,2-2S26,32.9,26,34z M47,24c0,12.7-10.3,23-23,23S1,36.7,1,24
	C1,11.3,11.3,1,24,1S47,11.3,47,24z M44,24c0-11.03-8.97-20-20-20S4,12.97,4,24c0,11.03,8.97,20,20,20S44,35.03,44,24z M24,10
	c-1.1,0-2,0.9-2,2v14c0,1.1,0.9,2,2,2s2-0.9,2-2V12C26,10.9,25.1,10,24,10z"/>
    </symbol>

    <symbol id="source-code"  viewBox="0 0 31 20">
       <path d="M23,15a1,1,0,0,1-.55-1.83L27.2,10,22.45,6.83a1,1,0,0,1,1.1-1.66l6,4a1,1,0,0,1,0,1.66l-6,4A.94.94,0,0,1,23,15ZM9.87,14.5a1,1,0,0,0-.37-1.37L4,10,9.5,6.87a1,1,0,0,0-1-1.74l-7,4a1,1,0,0,0,0,1.74l7,4a1,1,0,0,0,1.37-.37Zm3,2.95,7-14a1,1,0,0,0-1.78-.9l-7,14a1,1,0,0,0,.44,1.34A.93.93,0,0,0,12,18,1,1,0,0,0,12.89,17.45Z"/>
    </symbol>
    <symbol id="refresh" viewBox="0 0 24 24" fill="none" stroke="currentColor" stroke-width="2" stroke-linecap="round" stroke-linejoin="round"><path d="M3 2v6h6"></path><path d="M21 12A9 9 0 0 0 6 5.3L3 8"></path><path d="M21 22v-6h-6"></path><path d="M3 12a9 9 0 0 0 15 6.7l3-2.7"></path></symbol>

    <!-- Other icons  -->

    <symbol id="blank-image"  viewBox="0 0 180 148"><g><path d="M27.508,101.386l23.851-17.207c1.309-.944,3.057-1.009,4.433-.165l13.433,8.246c1.432.879,3.261.77,4.578-.274l46.558-36.91c1.516-1.202,3.675-1.147,5.127.131l28.98,25.498-.033,34.303c-.004,4.415-3.585,7.992-8,7.992H35.483c-4.424,0-8.008-3.591-8-8.015l.025-13.599Z" /><rect x="27.488" y="25" width="126.96" height="98" rx="8" ry="8"  opacity=".39"/><ellipse cx="59.99" cy="55.263" rx="13.496" ry="13.5" fill="var(--bg-secondary)"/></g><g><path d="M13.5,27.141c-.829,0-1.5-.671-1.5-1.5v-3.244c0-.127.003-.252.01-.376.007-.129.016-.252.028-.373.013-.13.029-.251.047-.372.021-.129.043-.251.068-.372.026-.123.054-.243.085-.363.031-.117.064-.233.1-.346.036-.113.075-.227.115-.338.045-.121.091-.237.141-.351.044-.104.094-.212.147-.321.056-.113.112-.223.172-.33.055-.099.116-.204.179-.306.06-.097.126-.198.194-.297.071-.103.14-.2.211-.292.068-.089.142-.182.217-.272.078-.093.156-.181.234-.267.076-.084.16-.169.243-.252.087-.087.179-.173.271-.255.091-.081.18-.157.271-.23.086-.071.179-.142.272-.212.105-.077.202-.145.302-.21.104-.069.204-.132.306-.193.104-.062.209-.123.317-.179.108-.057.213-.11.319-.16.108-.051.219-.101.33-.147.113-.047.226-.091.339-.132.116-.041.229-.079.343-.114.112-.036.237-.07.361-.101.115-.029.234-.056.354-.081.124-.025.247-.047.37-.066.125-.019.246-.033.368-.046.123-.014.253-.023.384-.03.133-.006.259-.01.386-.01h4.382c.829,0,1.5.671,1.5,1.5s-.671,1.5-1.5,1.5h-4.382c-.079,0-.158.002-.236.006-.066.004-.138.008-.21.016l-.245.031c-.068.01-.142.023-.216.038s-.149.032-.222.05c-.068.017-.135.035-.2.055l-.226.076c-.066.024-.136.052-.204.08-.063.026-.13.057-.196.088l-.201.101c-.059.032-.121.067-.182.104l-.185.117c-.056.037-.115.078-.173.12l-.337.275c-.045.041-.094.085-.141.131-.05.05-.101.101-.149.154l-.41.514c-.036.052-.074.11-.11.169-.041.065-.075.126-.109.188-.036.065-.067.125-.097.187s-.06.126-.088.192c-.029.068-.055.132-.079.196-.023.064-.048.135-.07.206l-.062.216c-.018.066-.034.136-.048.206-.015.071-.029.143-.04.215-.01.067-.02.143-.028.218-.007.07-.013.147-.017.226-.003.068-.006.145-.006.222v3.244c0,.829-.671,1.5-1.5,1.5Z" /><path d="M23.482,133h-3.596c-.127,0-.254-.004-.38-.01-.127-.006-.253-.017-.378-.028-.129-.013-.26-.029-.388-.05-.116-.017-.246-.039-.373-.065-.102-.021-.22-.048-.336-.076-.126-.032-.239-.064-.349-.097-.135-.041-.255-.082-.371-.124-.106-.038-.229-.085-.348-.136-.104-.045-.21-.092-.314-.141-.107-.051-.214-.104-.319-.16-.109-.058-.221-.121-.329-.187-.092-.055-.191-.117-.29-.182-.099-.065-.196-.134-.291-.203-.096-.069-.192-.146-.288-.222-.096-.079-.185-.154-.272-.232-.075-.066-.154-.141-.231-.215-.114-.111-.198-.199-.279-.287-.085-.095-.163-.183-.238-.272-.071-.083-.145-.177-.218-.272-.07-.093-.137-.186-.202-.278-.077-.111-.143-.213-.206-.316-.062-.099-.123-.204-.183-.312-.057-.104-.112-.209-.164-.315-.052-.106-.101-.214-.148-.322-.052-.122-.099-.238-.142-.356-.039-.106-.079-.219-.114-.333-.036-.117-.069-.23-.1-.345-.032-.119-.06-.241-.085-.363-.025-.12-.048-.243-.067-.364-.02-.13-.036-.255-.048-.38-.012-.115-.022-.241-.029-.365-.006-.133-.01-.259-.01-.384v-4.719c0-.828.671-1.5,1.5-1.5s1.5.672,1.5,1.5v4.719c0,.076.002.153.006.23.004.066.01.142.018.216.008.08.018.154.028.226.01.064.024.137.039.207s.03.14.048.208l.064.22c.021.065.045.135.07.204.025.069.051.131.077.192l.189.386c.033.06.066.118.102.176.04.064.078.123.117.181l.124.17c.043.057.087.111.132.165l.151.173c.04.043.088.094.137.143l.325.29c.047.038.101.081.155.12l.371.246c.064.039.121.071.179.102.068.036.134.07.2.102l.213.095c.062.026.122.05.183.071.082.029.15.053.217.073l.432.108c.083.018.15.028.219.039.084.013.155.021.226.028.076.008.153.015.23.019.078.004.157.006.236.006h3.596c.829,0,1.5.672,1.5,1.5s-.671,1.5-1.5,1.5Z" /><path d="M160.512,132.998h-4.382c-.828,0-1.5-.672-1.5-1.5s.672-1.5,1.5-1.5h4.382c.079,0,.158-.002.237-.006.071-.004.144-.009.216-.017.075-.009.15-.017.225-.028.085-.013.153-.024.221-.038.088-.018.156-.034.225-.051.086-.021.154-.04.221-.061l.206-.069c.077-.027.141-.054.203-.079.068-.028.137-.06.203-.091s.133-.065.197-.1c.059-.031.117-.064.174-.099l.196-.123c.059-.038.115-.079.172-.12l.334-.271c.058-.051.105-.097.152-.143l.282-.308c.057-.065.097-.117.136-.169l.134-.186c.04-.057.075-.111.109-.167l.11-.188c.033-.062.065-.124.097-.187l.092-.199c.023-.055.049-.116.07-.179l.136-.425c.021-.077.035-.143.049-.207.018-.081.029-.148.039-.215.014-.081.022-.15.028-.218.008-.074.015-.15.019-.225.004-.076.006-.152.006-.23v-3.243c0-.828.672-1.5,1.5-1.5s1.5.672,1.5,1.5v3.243c0,.127-.004.252-.01.376-.006.126-.017.251-.028.374-.014.13-.03.26-.051.387-.017.112-.04.24-.066.365-.022.112-.053.238-.086.363-.026.1-.06.213-.094.325-.042.132-.081.245-.122.355-.038.104-.085.223-.135.34-.05.114-.1.222-.151.328-.053.109-.108.217-.167.321-.057.104-.117.206-.179.307-.065.106-.134.212-.206.314-.064.093-.134.189-.205.282-.066.089-.146.188-.226.283-.061.073-.139.161-.217.247-.092.099-.171.181-.251.261-.096.095-.187.18-.279.262-.079.07-.167.146-.258.22-.097.078-.186.146-.277.215-.107.079-.205.147-.307.215-.1.065-.199.128-.301.188-.097.059-.206.121-.317.18-.105.056-.211.109-.318.16s-.219.1-.328.146c-.115.049-.233.095-.353.137-.098.036-.211.073-.323.109-.134.04-.257.074-.38.104-.104.027-.229.056-.355.081-.11.023-.237.045-.368.064-.106.017-.232.032-.358.045-.129.014-.26.024-.391.03-.127.006-.253.01-.381.01Z" /><path d="M166.102,28.613c-.828,0-1.5-.671-1.5-1.5v-4.718c0-.077-.002-.154-.006-.23-.004-.075-.01-.15-.018-.225l-.028-.218c-.009-.058-.022-.129-.037-.201-.018-.084-.034-.153-.052-.222l-.137-.428c-.019-.052-.044-.113-.069-.173l-.192-.392c-.033-.062-.068-.122-.105-.181l-.114-.174c-.04-.058-.081-.116-.124-.172l-.275-.328c-.051-.057-.094-.101-.137-.143-.058-.056-.108-.104-.16-.15-.06-.053-.112-.099-.167-.143-.055-.044-.108-.087-.165-.128l-.363-.241c-.061-.036-.122-.072-.185-.105-.064-.035-.131-.068-.197-.1l-.215-.096c-.064-.028-.131-.052-.196-.076-.058-.021-.124-.044-.19-.063-.08-.024-.149-.044-.221-.062l-.229-.052c-.07-.014-.145-.027-.219-.039-.068-.01-.146-.02-.226-.028-.071-.007-.15-.013-.229-.017-.071-.003-.151-.006-.229-.006h-3.597c-.828,0-1.5-.671-1.5-1.5s.672-1.5,1.5-1.5h3.597c.127,0,.254.003.38.01.132.007.256.016.378.028.128.013.251.029.372.047.133.02.256.042.378.067.119.024.234.05.35.079.124.031.244.065.36.101.11.033.231.074.35.116.122.045.241.09.354.138.105.045.211.092.314.141.107.051.213.105.318.16.107.057.214.118.317.179.102.061.201.124.301.189.102.067.195.134.288.201.103.075.197.149.291.226.094.076.186.154.274.234.083.073.171.156.256.24.086.083.176.176.263.272.068.074.145.161.221.25.082.1.151.187.221.277.077.101.147.198.215.296.065.095.129.193.191.292.069.114.13.218.188.324.057.104.111.208.163.314s.102.215.148.324c.051.115.098.232.142.352.041.118.079.225.113.333.035.111.068.227.1.342.035.136.063.256.088.379.023.106.045.228.065.35.02.132.035.251.048.372.014.138.023.263.029.387s.01.251.01.376v4.718c0,.829-.672,1.5-1.5,1.5Z" /></g>
    </symbol>

     <symbol id="gallery" viewBox="0 0 180 148"><g><rect x="41" y="10.5" width="98" height="127" rx="8" ry="8" transform="translate(-8.107 136.857) rotate(-72.076)" opacity=".35"/></g><g><path d="M26.525,101.386l23.854-17.207c1.309-.944,3.057-1.009,4.433-.165l13.435,8.247c1.432.879,3.261.769,4.577-.274l46.564-36.911c1.516-1.202,3.674-1.146,5.127.131l28.984,25.498-.033,34.303c-.004,4.415-3.585,7.992-8,7.992H34.5c-4.424,0-8.008-3.591-8-8.015l.025-13.599Z" /><rect x="26.5" y="25" width="127" height="98" rx="8" ry="8"  opacity=".39"/><ellipse cx="58.702" cy="55.263" rx="13.496" ry="13.5" fill="var(--bg-secondary)"/></g><g><path d="M13.5,27c-.829,0-1.5-.671-1.5-1.5v-3.105c0-.126.003-.252.01-.376.007-.129.016-.251.028-.373.013-.13.029-.251.047-.372.021-.129.043-.251.068-.372.026-.123.054-.243.085-.363.031-.117.064-.233.1-.346.035-.112.075-.227.115-.338.045-.121.091-.237.141-.351.045-.104.095-.215.148-.324.054-.11.111-.22.17-.327.055-.099.116-.204.179-.306.06-.097.126-.198.194-.297.071-.103.14-.2.211-.292.068-.089.142-.182.217-.272.078-.093.156-.181.234-.267.076-.084.16-.169.243-.252.087-.087.179-.173.271-.255.091-.081.18-.157.271-.23.086-.071.179-.142.272-.212.105-.077.202-.145.302-.21.104-.069.204-.132.306-.193.104-.062.209-.123.317-.179.108-.057.213-.11.319-.16.108-.051.219-.101.33-.147.113-.047.226-.091.339-.132.116-.041.229-.079.343-.114.112-.036.237-.069.361-.101.115-.029.234-.056.354-.081.124-.025.247-.047.37-.066.123-.018.241-.033.361-.046.135-.015.262-.023.391-.03.133-.006.259-.01.386-.01h4.012c.829,0,1.5.671,1.5,1.5s-.671,1.5-1.5,1.5h-4.012c-.079,0-.158.002-.236.006-.068.004-.143.009-.217.017l-.238.03c-.068.01-.142.023-.216.038s-.149.032-.222.05c-.068.018-.135.035-.2.055l-.226.076c-.066.024-.136.052-.204.08-.063.026-.13.057-.196.088l-.201.101c-.059.032-.121.067-.182.104l-.185.117c-.056.037-.115.078-.173.12l-.337.275c-.045.041-.094.085-.141.131-.05.05-.101.101-.149.154l-.41.514c-.036.052-.074.11-.11.169-.041.065-.075.126-.109.188-.036.065-.067.125-.097.187-.031.063-.061.127-.088.192-.029.068-.055.132-.079.196-.023.064-.048.133-.07.203l-.063.218c-.018.066-.034.136-.048.206-.015.071-.029.143-.04.215-.01.067-.02.143-.028.218-.007.07-.013.148-.017.225-.003.068-.006.145-.006.223v3.105c0,.829-.671,1.5-1.5,1.5Z" /><path d="M24.5,133h-4.012c-.127,0-.253-.004-.379-.01-.127-.006-.253-.017-.378-.028-.13-.013-.261-.029-.389-.05-.114-.017-.243-.039-.37-.065-.104-.021-.221-.048-.337-.076-.127-.032-.241-.064-.351-.098-.132-.04-.252-.081-.369-.123-.106-.038-.229-.085-.348-.136-.104-.045-.21-.092-.314-.141-.106-.05-.211-.104-.316-.158-.114-.061-.224-.123-.331-.188-.09-.054-.19-.116-.29-.182-.098-.064-.193-.133-.288-.2-.101-.074-.197-.149-.291-.225-.096-.079-.185-.154-.272-.232-.083-.072-.168-.154-.251-.234-.094-.092-.178-.18-.259-.268-.085-.095-.163-.183-.238-.272-.071-.083-.145-.177-.218-.272-.07-.093-.137-.186-.202-.278-.077-.111-.143-.213-.206-.316-.062-.099-.123-.204-.183-.312-.055-.101-.111-.207-.164-.315-.053-.108-.104-.218-.151-.329-.049-.113-.095-.227-.137-.344s-.081-.228-.116-.339c-.036-.117-.069-.23-.1-.345-.032-.119-.06-.241-.085-.363-.025-.12-.048-.243-.067-.364-.019-.127-.036-.25-.048-.372-.013-.128-.022-.251-.029-.373-.006-.133-.01-.259-.01-.384v-5.105c0-.828.671-1.5,1.5-1.5s1.5.672,1.5,1.5v5.105c0,.076.002.153.006.23.004.068.01.146.018.224.007.067.017.144.028.218.01.064.024.137.039.207s.03.14.048.208l.136.43c.021.059.048.123.075.187.028.065.058.13.088.193.031.063.063.125.098.187.036.065.07.124.105.182.04.064.078.123.117.181l.124.17c.043.057.087.111.132.165l.151.173c.04.043.088.094.137.143l.325.29c.048.039.103.083.159.123l.364.241c.068.041.126.074.185.105l.411.194c.062.026.123.05.183.071.081.029.148.053.215.072l.435.109c.08.018.149.028.218.039.085.013.156.021.226.028.076.008.153.015.23.019.078.004.157.006.236.006h4.012c.829,0,1.5.672,1.5,1.5s-.671,1.5-1.5,1.5Z" /><path d="M160.512,133h-4.012c-.828,0-1.5-.672-1.5-1.5s.672-1.5,1.5-1.5h4.012c.079,0,.158-.002.237-.006.066-.004.135-.008.201-.016.09-.01.165-.018.239-.029.085-.013.153-.024.221-.038.093-.019.166-.036.238-.054.062-.016.136-.036.207-.058l.206-.069c.077-.027.141-.054.203-.079.068-.028.137-.06.203-.091s.133-.065.197-.1c.059-.031.117-.064.174-.099l.196-.123c.059-.038.115-.079.172-.12l.334-.271c.058-.051.105-.097.152-.143l.282-.308c.057-.065.097-.117.136-.169l.134-.186c.04-.057.075-.111.109-.167l.11-.188c.033-.062.065-.124.097-.187l.092-.199c.023-.055.049-.116.07-.179l.136-.425c.021-.077.035-.143.049-.207.018-.081.029-.148.039-.215.014-.081.022-.15.028-.218.008-.074.015-.15.019-.225.004-.076.006-.152.006-.229v-3.105c0-.828.672-1.5,1.5-1.5s1.5.672,1.5,1.5v3.105c0,.126-.004.251-.01.375-.006.126-.017.251-.028.374-.014.13-.03.26-.051.387-.017.112-.04.24-.066.365-.022.112-.053.238-.086.363-.026.1-.06.213-.094.325-.042.132-.081.245-.122.355-.038.104-.085.223-.135.34-.05.114-.1.222-.151.328-.053.109-.108.217-.167.321-.057.104-.117.206-.179.307-.065.106-.134.212-.206.314-.064.093-.134.189-.205.282-.066.089-.146.188-.226.283-.061.073-.139.161-.217.247-.092.099-.171.181-.251.261-.096.095-.187.18-.279.262-.079.07-.167.146-.258.22-.101.081-.192.152-.287.222-.098.072-.195.141-.297.208-.1.065-.199.128-.301.188-.097.059-.206.121-.317.18-.105.056-.211.109-.318.16s-.219.1-.328.146c-.115.049-.233.095-.353.137-.098.036-.211.073-.323.109-.129.039-.247.071-.365.102-.128.032-.248.06-.37.084-.11.023-.237.045-.368.064-.106.017-.232.032-.358.045-.12.015-.255.024-.391.03-.127.006-.253.01-.381.01Z" /><path d="M166.5,29c-.828,0-1.5-.671-1.5-1.5v-5.105c0-.077-.002-.154-.006-.23-.004-.075-.011-.15-.019-.225-.007-.068-.015-.137-.026-.204-.012-.082-.024-.149-.038-.215-.017-.08-.031-.144-.049-.208l-.136-.429c-.025-.074-.049-.131-.073-.187l-.192-.392c-.033-.062-.069-.122-.106-.181-.034-.056-.069-.11-.106-.164-.045-.065-.083-.12-.125-.173-.052-.069-.095-.123-.14-.177l-.149-.17c-.039-.043-.083-.089-.129-.134l-.327-.293c-.055-.044-.109-.087-.166-.128l-.362-.241c-.061-.036-.122-.072-.185-.105-.064-.035-.131-.068-.197-.1l-.216-.096c-.064-.028-.13-.052-.195-.076-.06-.021-.128-.044-.194-.065-.075-.022-.144-.042-.214-.06l-.23-.053c-.074-.015-.146-.027-.22-.039-.071-.011-.15-.021-.228-.029-.07-.007-.15-.013-.229-.017-.071-.003-.15-.006-.229-.006h-4.012c-.828,0-1.5-.671-1.5-1.5s.672-1.5,1.5-1.5h4.012c.128,0,.254.003.38.009.132.007.257.017.379.029.129.013.253.029.374.047.131.02.256.042.378.067.116.023.233.05.351.08.119.029.24.063.357.1.112.033.233.074.35.116.122.045.24.09.354.138.105.045.212.092.315.141.107.051.213.105.318.16.107.057.214.118.317.179.102.061.201.124.301.189.102.068.194.134.287.201.103.075.198.149.292.226.092.074.179.149.267.227.088.077.172.158.256.239.091.087.178.178.263.271.083.091.16.179.235.268.073.087.147.181.221.278.065.084.137.185.207.286.064.092.133.197.198.303.062.103.124.207.183.313.057.104.111.208.163.314s.102.215.148.324c.052.12.101.241.145.365.035.095.074.206.11.319.038.125.072.241.102.356.03.112.061.237.086.365.024.111.047.238.066.365.018.113.035.242.048.372.012.124.022.248.028.373s.01.251.01.376v5.105c0,.829-.672,1.5-1.5,1.5Z" /></g>
    </symbol>

    <symbol id="magnifier" viewBox="0 0 24 23">
        <path d="M23.6,20.5l-6.8-6.8a9,9,0,1,0-1.9,2.3l6.7,6.7a1.5,1.5,0,0,0,2.1-2.1ZM9,16a7,7,0,1,1,7-7A7,7,0,0,1,9,16Z"/>
    </symbol>

    <symbol id="magnifier-small" viewBox="0 0 16 16">
        <path d="M14.81,13.14l-2.96-2.96c0,0-0.01,0-0.01,0C12.57,9.14,13,7.87,13,6.5C13,2.92,10.08,0,6.5,0S0,2.92,0,6.5S2.92,13,6.5,13
    c1.37,0,2.64-0.43,3.68-1.15c0,0,0,0.01,0,0.01l2.96,2.96c0.33,0.33,0.97,0.22,1.43-0.24C15.03,14.11,15.14,13.47,14.81,13.14z
     M6.5,11C4.02,11,2,8.98,2,6.5S4.02,2,6.5,2S11,4.02,11,6.5S8.98,11,6.5,11z"/>
    </symbol>

    <symbol id="switcher" viewBox="0 0 34 20">
       <rect fill="currentColor" y="2" width="30" height="16" rx="8" ry="8"/><circle cx="24" cy="10" r="10"/>
    </symbol>

    <symbol id="minimize" viewBox="0 0 24 24" fill="none" stroke="currentColor" stroke-width="2" stroke-linecap="round" stroke-linejoin="round">
       <path d="M8 3v3a2 2 0 0 1-2 2H3m18 0h-3a2 2 0 0 1-2-2V3m0 18v-3a2 2 0 0 1 2-2h3M3 16h3a2 2 0 0 1 2 2v3" />
    </symbol>

    <symbol id="external-link" viewBox="0 0 24 24" fill="none" stroke="currentColor" stroke-width="2" stroke-linecap="round" stroke-linejoin="round">
        <path d="M18 13v6a2 2 0 0 1-2 2H5a2 2 0 0 1-2-2V8a2 2 0 0 1 2-2h6"></path>
        <polyline points="15 3 21 3 21 9"></polyline>
        <line x1="10" y1="14" x2="21" y2="3"></line>
    </symbol>

    <!-- Window icons  -->

    <symbol id="win-minimize" viewBox="0 0 10 1">
        <rect width="10" height="1"/>
    </symbol>

    <symbol id="win-expand" viewBox="0 0 10 10">
        <path d="M0,10H7V3H0ZM1,4H6V9H1Zm9-4V7H9V1H3V0Z"/>
    </symbol>

    <symbol id="win-maximize" viewBox="0 0 10 10">
        <path d="M9,1V9H1V1H9m1-1H0V10H10V0Z"/>
    </symbol>

    <symbol id="win-close" viewBox="0 0 10 10">
        <polygon points="10 0.66 9.34 0 5 4.34 0.66 0 0 0.66 4.34 5 0 9.34 0.66 10 5 5.66 9.34 10 10 9.34 5.66 5 10 0.66"/>
    </symbol>

    <symbol id="stats" viewBox="0 0 19 19">
        <path d="M3,7v10c0,0.5-0.5,1-1,1s-1-0.5-1-1V7c0-0.5,0.5-1,1-1S3,6.5,3,7z M7,1C6.5,1,6,1.5,6,2v15c0,0.5,0.5,1,1,1s1-0.5,1-1V2
    C8,1.5,7.5,1,7,1z M12,10c-0.5,0-1,0.5-1,1v6c0,0.5,0.5,1,1,1s1-0.5,1-1v-6C13,10.5,12.5,10,12,10z M17,6c-0.5,0-1,0.5-1,1v10
    c0,0.5,0.5,1,1,1s1-0.5,1-1V7C18,6.5,17.5,6,17,6z"/>
    </symbol>
    
    <symbol id="help" viewBox="0 0 20 20">
        <path d="M10,0A10,10,0,1,0,20,10,10,10,0,0,0,10,0Zm0,18a8,8,0,1,1,8-8A8,8,0,0,1,10,18Zm.75-4a1.15,1.15,0,0,1,.35.84,1.1,1.1,0,0,1-.36.87A1.24,1.24,0,0,1,9.9,16a1.31,1.31,0,0,1-.85-.31,1.1,1.1,0,0,1-.36-.88A1.15,1.15,0,0,1,9,14a1.17,1.17,0,0,1,.86-.34A1.15,1.15,0,0,1,10.75,14Zm2.77-8.39A2.8,2.8,0,0,1,14,7.16a2.34,2.34,0,0,1-.28,1.18,3.65,3.65,0,0,1-.65.88c-.26.24-.71.66-1.37,1.24a5.76,5.76,0,0,0-.43.43,2.62,2.62,0,0,0-.25.34,2,2,0,0,0-.12.31c0,.1-.07.29-.13.54a.89.89,0,0,1-.95.83,1,1,0,0,1-.7-.27,1.06,1.06,0,0,1-.29-.8A2.85,2.85,0,0,1,9,10.69a2.94,2.94,0,0,1,.55-.86A12.13,12.13,0,0,1,10.52,9c.34-.29.59-.52.74-.67a2.07,2.07,0,0,0,.38-.5,1.12,1.12,0,0,0,.16-.6,1.39,1.39,0,0,0-.48-1.07,1.72,1.72,0,0,0-1.22-.44,1.73,1.73,0,0,0-1.3.44,3.51,3.51,0,0,0-.7,1.3c-.19.6-.53.89-1,.89A1,1,0,0,1,6.31,8,.93.93,0,0,1,6,7.31a2.78,2.78,0,0,1,.49-1.52A3.7,3.7,0,0,1,7.91,4.51,4.51,4.51,0,0,1,10.1,4a4.71,4.71,0,0,1,2,.42A3.37,3.37,0,0,1,13.52,5.58Z"/>
    </symbol>

    <symbol id="on-live-preview" viewBox="0 0 19 19">
        <polygon class="st0" points="14,8 10,9 13,0 5,12 9,11 6,19 "/>
    </symbol>


    <symbol id="off-live-preview" viewBox="0 0 19 19">
       <polygon class="st0" points="14,8 10,9 13,0 5,12 9,11 6,19 "/>
    </symbol>

    <!-- Folder icons  -->

    <symbol id="folder-opened" viewBox="0 0 22 16">
        <path d="M19.83,6H18V5.044a1.857,1.857,0,0,0-1.636-2.018H9.818L7.364,0H1.636A1.857,1.857,0,0,0,0,2.018V14l.016-.013A1.968,1.968,0,0,0,2.17,16h14.9a2.185,2.185,0,0,0,2.038-1.2l2.76-6.364C22.382,7.254,21.335,6,19.83,6ZM1.636.913h5.3L9.118,3.6l.271.335h6.974c.346,0,.732.454.732,1.105V6H4.93A2.185,2.185,0,0,0,2.892,7.2L.9,11.78V2.018C.9,1.366,1.29.913,1.636.913ZM20.95,8.042l-2.76,6.364A1.208,1.208,0,0,1,17.07,15H2.17A1.251,1.251,0,0,1,1.1,14.508a.545.545,0,0,1-.055-.549L3.81,7.595A1.208,1.208,0,0,1,4.93,7h14.9a1.251,1.251,0,0,1,1.065.492A.544.544,0,0,1,20.95,8.042Z"/>
    </symbol>

    <symbol id="folder-opened" viewBox="0 0 22 16">
        <path d="M19.83,6H18V5.044a1.857,1.857,0,0,0-1.636-2.018H9.818L7.364,0H1.636A1.857,1.857,0,0,0,0,2.018V14l.016-.013A1.968,1.968,0,0,0,2.17,16h14.9a2.185,2.185,0,0,0,2.038-1.2l2.76-6.364C22.382,7.254,21.335,6,19.83,6ZM1.636.913h5.3L9.118,3.6l.271.335h6.974c.346,0,.732.454.732,1.105V6H4.93A2.185,2.185,0,0,0,2.892,7.2L.9,11.78V2.018C.9,1.366,1.29.913,1.636.913ZM20.95,8.042l-2.76,6.364A1.208,1.208,0,0,1,17.07,15H2.17A1.251,1.251,0,0,1,1.1,14.508a.545.545,0,0,1-.055-.549L3.81,7.595A1.208,1.208,0,0,1,4.93,7h14.9a1.251,1.251,0,0,1,1.065.492A.544.544,0,0,1,20.95,8.042Z"/>
    </symbol>

    <symbol id="folder" viewBox="0 0 22 16">
        <path d="M7.93,1a1,1,0,0,1,.832.445l1.406,2.109.3.445H20a1,1,0,0,1,1,1v9a1,1,0,0,1-1,1H2a1,1,0,0,1-1-1V2A1,1,0,0,1,2,1H7.93m0-1H2A2,2,0,0,0,0,2V14a2,2,0,0,0,2,2H20a2,2,0,0,0,2-2V5a2,2,0,0,0-2-2H11L9.594.891A2,2,0,0,0,7.93,0Z"/>
    </symbol>

    <!-- Preview window icons  -->

    <symbol id="preview-prev" viewBox="0 0 10 20">
        <path d="M9.664.254A1,1,0,0,0,8.251.337l-8.008,9a.936.936,0,0,0-.07.12.974.974,0,0,0-.1.173.966.966,0,0,0-.047.183.712.712,0,0,0,0,.376.966.966,0,0,0,.047.183.974.974,0,0,0,.1.173.936.936,0,0,0,.07.12l8.008,9a1,1,0,0,0,1.5-1.328L2.33,10,9.747,1.665A1,1,0,0,0,9.664.254Z"/>
    </symbol>

    <symbol id="preview-next" viewBox="0 0 10 20">
        <path d="M.336.254A1,1,0,0,1,1.749.337l8.008,9a.936.936,0,0,1,.07.12.912.912,0,0,1,0,1.088.936.936,0,0,1-.07.12l-8.008,9a1,1,0,0,1-1.5-1.328L7.67,10,.253,1.665A1,1,0,0,1,.336.254Z"/>
    </symbol>

    <symbol id="preview-dev" viewBox="0 0 20 20">
        <path d="M1.472,2.9a14.459,14.459,0,0,0,.151,1.742,16.6,16.6,0,0,1,.225,1.844c0,.759.258,1.54-1.848,1.592v1.945c2.105.05,1.848,1.01,1.848,1.718a18.384,18.384,0,0,1-.188,1.971c-.075.683-.169,1.792-.169,2.423A3.536,3.536,0,0,0,5.313,20H6V18H5.767c-1.162,0-1.541-1.2-1.541-2.307a13.18,13.18,0,0,1,.126-1.66,15.879,15.879,0,0,0,.474-1.89C4.851,10.223,4,9.368,3,9.065v-.05C4,8.711,4.851,8,4.826,6.083c0-.632-.533-2.269-.533-2.724C4.293,2.247,4.63,2,5.767,2H6V0H5.337C2.963,0,1.472.528,1.472,2.9Z"/><path d="M20,10.025V8.08c-2.105-.051-1.848-.9-1.848-1.657a17.723,17.723,0,0,1,.225-1.909A12.442,12.442,0,0,0,18.528,2.9c0-2.375-1.491-2.9-3.865-2.9H14V2h.233c1.137,0,1.474.247,1.474,1.36,0,.454-.533,2.157-.533,2.79C15.149,8.069,16,8.711,17,9.014v.05c-1,.3-1.851,1.093-1.826,3.013a14.689,14.689,0,0,0,.474,1.824,15.241,15.241,0,0,1,.126,1.791c0,1.111-.379,2.307-1.541,2.307H14v2h.688a3.536,3.536,0,0,0,3.822-3.864c0-.631-.094-1.609-.169-2.292a19.573,19.573,0,0,1-.188-2.036C18.152,11.1,17.895,10.075,20,10.025Z"/>
    </symbol>

    <symbol id="preview-reload" viewBox="0 0 20 16">
        <path d="M0,9.86C0,5.367,3.768,2,8.421,2a8.346,8.346,0,0,1,8.421,8.4H20l-4.211,5.418L11.579,10.4h3.158A6.176,6.176,0,0,0,8.421,4.033,6.1,6.1,0,0,0,2.105,10a6.159,6.159,0,0,0,6.316,6.031,6.454,6.454,0,0,0,2.695-.624l1.295,1.64A8.724,8.724,0,0,1,8.421,18,8.285,8.285,0,0,1,0,9.86Z" transform="translate(0 -2)"/>
    </symbol>


    <!-- Message icons  -->

    <symbol id="success" viewBox="0 0 24 24">
       <path d="M11.979,23c-2.134,0-4.223-.624-6.044-1.828-2.451-1.621-4.124-4.1-4.71-6.979C.013,8.25,3.863,2.429,9.806,1.218c2.632-.537,5.366-.093,7.694,1.251.479.276.643.888.366,1.366-.277.478-.89.642-1.366.366-1.904-1.099-4.14-1.462-6.294-1.023-4.863.991-8.013,5.753-7.022,10.616.48,2.355,1.849,4.383,3.854,5.709,2.005,1.327,4.408,1.791,6.762,1.312,4.863-.991,8.013-5.753,7.022-10.616-.11-.541.238-1.069.78-1.18.54-.109,1.069.239,1.179.78,1.211,5.943-2.639,11.763-8.582,12.974-.739.151-1.482.226-2.22.226ZM12.707,14.707l10-10c.391-.391.391-1.023,0-1.414s-1.023-.391-1.414,0l-9.293,9.293-2.293-2.293c-.391-.391-1.023-.391-1.414,0s-.391,1.023,0,1.414l3,3c.195.195.451.293.707.293s.512-.098.707-.293Z"/>
    </symbol>

    <symbol id="warning" viewBox="0 0 24 24">
        <path d="M15.312,23h-6.624c-.801,0-1.555-.312-2.121-.879l-4.688-4.688c-.567-.566-.879-1.32-.879-2.121v-6.624c0-.801.312-1.555.879-2.121L6.567,1.879c.566-.567,1.32-.879,2.121-.879h6.624c.801,0,1.555.312,2.121.879l4.688,4.688c.566.566.879,1.32.879,2.121v6.624c0,.801-.312,1.555-.879,2.121l-4.688,4.688c-.566.566-1.32.879-2.121.879ZM8.688,3c-.263,0-.521.107-.707.293L3.293,7.981c-.186.187-.293.444-.293.707v6.624c0,.267.104.518.293.707h0l4.688,4.688c.187.187.444.293.707.293h6.624c.267,0,.518-.104.707-.293l4.688-4.688c.188-.189.293-.44.293-.707v-6.624c0-.263-.106-.521-.293-.707l-4.688-4.688c-.189-.189-.44-.293-.707-.293h-6.624ZM13.414,12l2.293-2.293c.391-.391.391-1.023,0-1.414s-1.023-.391-1.414,0l-2.293,2.293-2.293-2.293c-.391-.391-1.023-.391-1.414,0s-.391,1.023,0,1.414l2.293,2.293-2.293,2.293c-.391.391-.391,1.023,0,1.414.195.195.451.293.707.293s.512-.098.707-.293l2.293-2.293,2.293,2.293c.195.195.451.293.707.293s.512-.098.707-.293c.391-.391.391-1.023,0-1.414l-2.293-2.293Z"/>
    </symbol>

    <symbol id="info" viewBox="0 0 24 24">
     <path d="M2,23c-.261,0-.517-.103-.707-.293-.269-.269-.362-.668-.24-1.028l1.869-5.512c-1.274-2.774-1.211-6.01.189-8.739C5.626,2.521,11.667.576,16.571,3.095c2.377,1.219,4.137,3.291,4.955,5.833s.598,5.252-.621,7.628c-1.219,2.377-3.291,4.137-5.833,4.955-2.407.776-4.96.618-7.24-.432l-5.511,1.868c-.105.035-.213.053-.321.053ZM12.021,3.993c-2.907,0-5.715,1.588-7.131,4.348-1.173,2.287-1.173,5.017,0,7.303.124.24.144.521.058.777l-1.35,3.981,3.982-1.35c.254-.086.536-.067.777.058,1.901.976,4.068,1.151,6.103.497,2.034-.655,3.691-2.062,4.667-3.964s1.151-4.069.497-6.103c-.655-2.034-2.062-3.691-3.964-4.667-1.165-.598-2.411-.881-3.639-.881ZM9.01,12c0-.552-.448-1-1-1h-.01c-.552,0-.995.448-.995,1s.453,1,1.005,1,1-.448,1-1ZM13.01,12c0-.552-.448-1-1-1h-.01c-.552,0-.995.448-.995,1s.453,1,1.005,1,1-.448,1-1ZM17.01,12c0-.552-.447-1-1-1h-.01c-.553,0-.995.448-.995,1s.452,1,1.005,1,1-.448,1-1Z"/>
    </symbol>

    <!-- Post listing icons  -->

    <symbol id="featured-post" viewBox="0 0 24 24" fill="none" stroke="currentColor" stroke-width="2" stroke-linecap="round" stroke-linejoin="round">
       <path d="M11.525 2.295a.53.53 0 0 1 .95 0l2.31 4.679a2.123 2.123 0 0 0 1.595 1.16l5.166.756a.53.53 0 0 1 .294.904l-3.736 3.638a2.123 2.123 0 0 0-.611 1.878l.882 5.14a.53.53 0 0 1-.771.56l-4.618-2.428a2.122 2.122 0 0 0-1.973 0L6.396 21.01a.53.53 0 0 1-.77-.56l.881-5.139a2.122 2.122 0 0 0-.611-1.879L2.16 9.795a.53.53 0 0 1 .294-.906l5.165-.755a2.122 2.122 0 0 0 1.597-1.16z"/>
    </symbol>

    <symbol id="unfeatured-post" viewBox="0 0 24 24" fill="none" stroke="currentColor" stroke-width="2" stroke-linecap="round" stroke-linejoin="round">
      <path d="M8.34 8.34 2 9.27l5 4.87L5.82 21 12 17.77 18.18 21l-.59-3.43"/>
      <path d="M18.42 12.76 22 9.27l-6.91-1L12 2l-1.44 2.91"/>
      <line x1="2" x2="22" y1="2" y2="22"/>
    </symbol>

    <symbol id="hidden-post" viewBox="0 0 24 24" fill="none" stroke="currentColor" stroke-width="2" stroke-linecap="round" stroke-linejoin="round">
       <path d="M10.733 5.076a10.744 10.744 0 0 1 11.205 6.575 1 1 0 0 1 0 .696 10.747 10.747 0 0 1-1.444 2.49"/>
       <path d="M14.084 14.158a3 3 0 0 1-4.242-4.242"/>
       <path d="M17.479 17.499a10.75 10.75 0 0 1-15.417-5.151 1 1 0 0 1 0-.696 10.75 10.75 0 0 1 4.446-5.143"/>
       <path d="m2 2 20 20"/>
    </symbol>

    <symbol id="unhidden-post" viewBox="0 0 24 24" fill="none" stroke="currentColor" stroke-width="2" stroke-linecap="round" stroke-linejoin="round">
       <path d="M2.062 12.348a1 1 0 0 1 0-.696 10.75 10.75 0 0 1 19.876 0 1 1 0 0 1 0 .696 10.75 10.75 0 0 1-19.876 0"/>
       <circle cx="12" cy="12" r="3"/>
    </symbol>

    <symbol id="publish-post" viewBox="0 0 24 24" fill="none" stroke="currentColor" stroke-width="2" stroke-linecap="round" stroke-linejoin="round">
       <path d="M21.174 6.812a1 1 0 0 0-3.986-3.987L3.842 16.174a2 2 0 0 0-.5.83l-1.321 4.352a.5.5 0 0 0 .623.622l4.353-1.32a2 2 0 0 0 .83-.497z"/>
       <path d="m15 5 4 4"/>
    </symbol>

    <symbol id="draft-post" viewBox="0 0 24 24" fill="none" stroke="currentColor" stroke-width="2" stroke-linecap="round" stroke-linejoin="round">
       <path d="m10 10-6.157 6.162a2 2 0 0 0-.5.833l-1.322 4.36a.5.5 0 0 0 .622.624l4.358-1.323a2 2 0 0 0 .83-.5L14 13.982"/>
       <path d="m12.829 7.172 4.359-4.346a1 1 0 1 1 3.986 3.986l-4.353 4.353"/>
       <path d="m15 5 4 4"/>
       <path d="m2 2 20 20"/>
    </symbol>
    
    <symbol id="excluded-post" viewBox="0 0 24 24" fill="none" stroke="currentColor" stroke-width="2" stroke-linecap="round" stroke-linejoin="round">
       <circle cx="12" cy="12" r="10"/>
       <path d="M8 12h8"/>
    </symbol>

    <symbol id="included-post" viewBox="0 0 24 24" fill="none" stroke="currentColor" stroke-width="2" stroke-linecap="round" stroke-linejoin="round">
       <circle cx="12" cy="12" r="10"/>
       <path d="M8 12h8"/>
       <path d="M12 8v8"/>
    </symbol>

    <symbol id="convert-to-page" viewBox="0 0 24 24" fill="none" stroke="currentColor" stroke-width="2" stroke-linecap="round" stroke-linejoin="round">
       <path d="M4 22h14a2 2 0 0 0 2-2V7l-5-5H6a2 2 0 0 0-2 2v4"/>
       <path d="M14 2v4a2 2 0 0 0 2 2h4"/>
       <path d="M2 15h10"/>
       <path d="m9 18 3-3-3-3"/>
    </symbol>

    <symbol id="padlock" viewBox="0 0 24 24" fill="none" stroke="currentColor" stroke-width="2" stroke-linecap="round" stroke-linejoin="round">
       <rect x="3" y="11" width="18" height="11" rx="2" ry="2"></rect>
       <path d="M7 11V7a5 5 0 0 1 10 0v4"></path>
    </symbol>

    <symbol id="convert-to-page" viewBox="0 0 24 24" fill="none" stroke="currentColor" stroke-width="2" stroke-linecap="round" stroke-linejoin="round">
       <path d="M4 22h14a2 2 0 0 0 2-2V7l-5-5H6a2 2 0 0 0-2 2v4"/>
       <path d="M14 2v4a2 2 0 0 0 2 2h4"/>
       <path d="M2 15h10"/>
       <path d="m9 18 3-3-3-3"/>
    </symbol>

    <!-- Post editor Sidebar icons  -->

    <symbol id="sidebar-seo" viewBox="0 0 24 24" fill="none" stroke="currentColor" stroke-width="2" stroke-linecap="round" stroke-linejoin="round" class="lucide lucide-search"><circle cx="11" cy="11" r="8"/><path d="m21 21-4.3-4.3"/>
    </symbol>

    <symbol id="sidebar-options" viewBox="0 0 24 24" fill="none" stroke="currentColor" stroke-width="2" stroke-linecap="round" stroke-linejoin="round" class="lucide lucide-settings-2"><path d="M20 7h-9"/><path d="M14 17H5"/><circle cx="17" cy="17" r="3"/><circle cx="7" cy="7" r="3"/>
    </symbol>

    <symbol id="sidebar-tags" viewBox="0 0 24 24" fill="none" stroke="currentColor" stroke-width="2" stroke-linecap="round" stroke-linejoin="round" class="lucide lucide-tag"><path d="M12.586 2.586A2 2 0 0 0 11.172 2H4a2 2 0 0 0-2 2v7.172a2 2 0 0 0 .586 1.414l8.704 8.704a2.426 2.426 0 0 0 3.42 0l6.58-6.58a2.426 2.426 0 0 0 0-3.42z"/><circle cx="7.5" cy="7.5" r=".5" fill="currentColor"/>
    </symbol>

    <symbol id="sidebar-status" viewBox="0 0 24 24" fill="none" stroke="currentColor" stroke-width="2" stroke-linecap="round" stroke-linejoin="round" class="lucide lucide-info"><circle cx="12" cy="12" r="10"/><path d="M12 16v-4"/><path d="M12 8h.01"/>
    </symbol>

    <symbol id="sidebar-image" viewBox="0 0 24 24" fill="none" stroke="currentColor" stroke-width="2" stroke-linecap="round" stroke-linejoin="round" class="lucide lucide-camera"><path d="M14.5 4h-5L7 7H4a2 2 0 0 0-2 2v9a2 2 0 0 0 2 2h16a2 2 0 0 0 2-2V9a2 2 0 0 0-2-2h-3l-2.5-3z"/><circle cx="12" cy="13" r="3"/>
    </symbol>

    <symbol id="sidebar-close" viewBox="0 0 24 24">
        <polygon points="24,7.7 23.3,7 19,11.3 14.7,7 14,7.7 18.3,12 14,16.3 14.7,17 19,12.7 23.3,17 24,16.3 19.7,12 "/>
    </symbol>

    <symbol id="sidebar-arrow" viewBox="0 0 24 24">
        <path d="M23.9,8.1c-0.2-0.2-0.5-0.2-0.7,0l-6.6,6.7L9.9,8.1C9.7,8,9.3,8,9.1,8.1C9,8.3,9,8.7,9.1,8.9l7,7c0.1,0.1,0.2,0.1,0.4,0.1
    c0,0,0,0,0,0c0,0,0,0,0,0c0.1,0,0.3,0,0.4-0.1l7-7C24,8.7,24,8.3,23.9,8.1z"/>
    </symbol>

    <symbol id="sidebar-analysis" viewBox="0 0 24 24">
        <path d="M6,10.2v10.9C6,21.6,5.5,22,5,22s-1-0.4-1-0.9V10.2c0-0.5,0.5-0.9,1-0.9S6,9.7,6,10.2z M20,6c-0.5,0-1,0.4-1,0.9v3.8v6.6
    v3.8c0,0.5,0.5,0.9,1,0.9s1-0.4,1-0.9v-3.8v-6.6V6.9C21,6.4,20.5,6,20,6z M10,2C9.5,2,9,2.4,9,2.9v18.2c0,0.5,0.5,0.9,1,0.9
    s1-0.4,1-0.9V2.9C11,2.4,10.5,2,10,2z M15,14c-0.5,0-1,0.4-1,0.9v6.1c0,0.5,0.5,0.9,1,0.9s1-0.4,1-0.9v-6.1C16,14.4,15.5,14,15,14z"/>
    </symbol>

    <!-- Tools icons  -->

    <symbol id="backup" viewBox="0 0 62 44">
        <path d="M46.5,14.6c-1-2.3-2.3-4.3-4.1-6c-1.7-1.7-3.8-3.1-6-4.1c-4.7-2-10.1-2-14.8,0c-2.3,1-4.3,2.3-6,4.1
		c-1.7,1.7-3.1,3.8-4.1,6c-1,2.3-1.5,4.8-1.5,7.4c0,2.6,0.5,5.1,1.5,7.4l0.6,1.3l6.6-6.1c0.4-0.4,0.4-1,0-1.4c-0.4-0.4-1-0.4-1.4,0
		l-4.4,4.1C12.3,25.6,12,23.8,12,22c0-2.3,0.4-4.5,1.3-6.6c0.9-2,2.1-3.8,3.6-5.4c1.6-1.6,3.4-2.8,5.4-3.6c4.2-1.8,9-1.8,13.2,0
		c2,0.9,3.8,2.1,5.4,3.6c1.6,1.6,2.8,3.4,3.6,5.4c0.9,2.1,1.3,4.3,1.3,6.6c0,2.3-0.4,4.5-1.3,6.6c-0.9,2-2.1,3.8-3.6,5.4
		c-1.6,1.6-3.4,2.8-5.4,3.6c-4.2,1.8-9,1.8-13.2,0c-0.5-0.2-1.1,0-1.3,0.5c-0.2,0.5,0,1.1,0.5,1.3c2.3,1,4.8,1.5,7.4,1.5
		c2.6,0,5.1-0.5,7.4-1.5c2.3-1,4.3-2.3,6-4.1c1.7-1.7,3.1-3.8,4.1-6c1-2.3,1.5-4.8,1.5-7.4C48,19.4,47.5,16.9,46.5,14.6z"/>
        <path d="M29,14c-0.6,0-1,0.4-1,1v7c0,0.1,0,0.1,0,0.1c0,0.1,0,0.1,0,0.2c0,0.1,0.1,0.1,0.1,0.2c0,0.1,0.1,0.1,0.1,0.2
		c0,0.1,0.1,0.1,0.2,0.1c0,0,0.1,0.1,0.1,0.1l4.1,2.1c0.5,0.3,1.1,0.1,1.3-0.4c0.3-0.5,0.1-1.1-0.4-1.3L30,21.4V15
		C30,14.4,29.6,14,29,14z"/>
    </symbol>
        
    <symbol id="regenerate-thumbnails" viewBox="0 0 62 44">
        <path d="M35.5,20c1.93,0,3.5-1.57,3.5-3.5c0-1.93-1.57-3.5-3.5-3.5S32,14.57,32,16.5C32,18.43,33.57,20,35.5,20z M35.5,15
	c0.83,0,1.5,0.67,1.5,1.5S36.33,18,35.5,18S34,17.33,34,16.5S34.67,15,35.5,15z M49,6H13c-3.31,0-6,2.69-6,6v21c0,3.31,2.69,6,6,6
	h36c3.31,0,6-2.69,6-6V12C55,8.69,52.31,6,49,6z M9,12c0-2.21,1.79-4,4-4h36c2.21,0,4,1.79,4,4v15.45
	c-1.47-3.71-3.64-7.76-6.26-8.33c-3.83-0.83-6.13,2.93-8.15,6.26c-1.32,2.16-2.68,4.39-4.05,4.61c-1.21,0.18-1.98-0.82-3-2.37
	c-0.82-1.25-1.67-2.54-3.1-2.54c-1.81,0-2.86,1.34-3.69,2.42c-0.45,0.57-0.95,1.27-1.28,1.21c-0.23-0.01-1.16-0.32-3.24-3.69
	c-1.15-1.86-2.37-2.09-3.2-1.95c-3.41,0.57-5.86,9.07-6.78,12.84C9.48,35.15,9,34.13,9,33V12z M49,37H13
	c-0.33,0-0.64-0.05-0.94-0.12c1.32-5.59,3.71-11.6,5.28-11.86c0.44-0.06,0.96,0.7,1.17,1.03c1.96,3.17,3.4,4.56,4.84,4.63
	c1.38,0.09,2.22-1.02,2.97-1.98c0.77-1,1.34-1.65,2.11-1.65c0.35,0,0.98,0.95,1.43,1.64c1.01,1.54,2.4,3.64,4.98,3.25
	c2.29-0.35,3.83-2.87,5.46-5.54c1.76-2.89,3.57-5.88,6.02-5.34c2.37,0.51,5.25,7.52,6.62,12.54C52.64,35.52,51,37,49,37z"/>  
    </symbol>

    <symbol id="code" viewBox="0 0 62 44">      
        <path d="M56,20.8c0-0.1,0-0.1-0.1-0.2c0,0,0,0,0-0.1c0,0,0-0.1-0.1-0.1c0-0.1-0.1-0.1-0.1-0.2c0,0-0.1-0.1-0.2-0.1
		c0,0-0.1-0.1-0.1-0.1l-14-7c-0.5-0.2-1.1,0-1.3,0.4c-0.2,0.5,0,1.1,0.4,1.3L52.8,21l-12.2,6.1c-0.5,0.2-0.7,0.8-0.4,1.3
		c0.2,0.4,0.5,0.6,0.9,0.6c0.2,0,0.3,0,0.4-0.1l14-7c0,0,0,0,0,0c0.1-0.1,0.2-0.1,0.3-0.2c0,0,0,0,0-0.1c0,0,0.1-0.1,0.1-0.2
		c0,0,0,0,0-0.1c0-0.1,0-0.1,0.1-0.2c0-0.1,0-0.1,0-0.2C56,20.9,56,20.9,56,20.8z"/>
        <path d="M20.9,13.6c-0.2-0.5-0.8-0.7-1.3-0.4l-14,7c0,0-0.1,0-0.1,0.1c-0.1,0-0.1,0.1-0.2,0.1c0,0-0.1,0.1-0.1,0.2
		c0,0-0.1,0.1-0.1,0.1c0,0,0,0,0,0.1c0,0.1,0,0.1-0.1,0.2c0,0.1,0,0.1,0,0.2c0,0.1,0,0.1,0,0.2c0,0.1,0,0.1,0.1,0.2c0,0,0,0,0,0.1
		c0,0.1,0.1,0.1,0.1,0.2c0,0,0,0,0,0.1c0.1,0.1,0.2,0.2,0.3,0.2c0,0,0,0,0,0l14,7C19.7,29,19.8,29,20,29c0.4,0,0.7-0.2,0.9-0.6
		c0.2-0.5,0-1.1-0.4-1.3L8.2,21l12.2-6.1C20.9,14.6,21.1,14,20.9,13.6z"/>
        <path d="M35.4,6.1c-0.5-0.2-1.1,0.1-1.3,0.6l-11,29c-0.2,0.5,0.1,1.1,0.6,1.3c0.1,0,0.2,0.1,0.4,0.1c0.4,0,0.8-0.2,0.9-0.6l11-29
		C36.1,6.8,35.9,6.3,35.4,6.1z"/>
    </symbol>

    <symbol id="css" viewBox="0 0 62 44">
       <path d="M52,21.2v1.7c-2.8,0-4.2,1.4-4.2,4.2v3.5c0,2-0.5,3.6-1.6,4.8c-1,1.2-2.6,2.1-4.7,2.6L41,36.7c3-0.9,4.5-2.9,4.5-6v-3.6
	c0-2.7,1.2-4.4,3.5-5.1c-2.4-0.7-3.5-2.4-3.5-5.1v-3.4c0-3.4-1.5-5.5-4.5-6.3L41.5,6c2.1,0.5,3.7,1.4,4.7,2.6c1,1.2,1.5,2.8,1.5,4.8
	V17C47.8,19.8,49.2,21.2,52,21.2z M24.5,29c-0.8,0-1.5,0.7-1.5,1.5s0.7,1.5,1.5,1.5s1.5-0.7,1.5-1.5S25.3,29,24.5,29z M30.5,29
	c-0.8,0-1.5,0.7-1.5,1.5s0.7,1.5,1.5,1.5s1.5-0.7,1.5-1.5S31.3,29,30.5,29z M36.5,29c-0.8,0-1.5,0.7-1.5,1.5s0.7,1.5,1.5,1.5
	s1.5-0.7,1.5-1.5S37.3,29,36.5,29z M15.5,30.8v-3.6c0-2.7-1.2-4.4-3.5-5.1c2.4-0.7,3.5-2.4,3.5-5.1v-3.4c0-3.4,1.5-5.5,4.5-6.3
	L19.5,6c-2.1,0.5-3.7,1.4-4.7,2.6c-1,1.2-1.5,2.8-1.5,4.8V17c0,2.8-1.4,4.2-4.2,4.2v1.7c2.8,0,4.2,1.4,4.2,4.2v3.5
	c0,2,0.5,3.6,1.6,4.8c1,1.2,2.6,2.1,4.7,2.6l0.5-1.3C17,35.9,15.5,33.9,15.5,30.8z"/>
    </symbol>

    <symbol id="robots" viewBox="0 0 24 24">
        <path class="st0" d="M22,11v4c0,0.5-0.5,1-1,1s-1-0.5-1-1v-4c0-0.5,0.5-1,1-1S22,10.5,22,11z M3,10c-0.5,0-1,0.5-1,1v4
    c0,0.5,0.5,1,1,1s1-0.5,1-1v-4C4,10.5,3.5,10,3,10z M8,17.7v2.8C8,21.3,8.7,22,9.5,22s1.5-0.7,1.5-1.5v-1.6c0.3,0,0.7,0.1,1,0.1
    s0.7,0,1-0.1v1.6c0,0.8,0.7,1.5,1.5,1.5s1.5-0.7,1.5-1.5v-2.8c1.8-1.3,3-3.4,3-5.7c-5,0-9,0-14,0C5,14.4,6.2,16.5,8,17.7z M19,10
    c-5,0-9,0-14,0c0-3.9,3.1-7,7-7S19,6.1,19,10z M12,7c0-1.1-0.9-2-2-2S8,5.9,8,7c0,1.1,0.9,2,2,2S12,8.1,12,7z M16,7.5
    C16,6.7,15.3,6,14.5,6S13,6.7,13,7.5S13.7,9,14.5,9S16,8.3,16,7.5z"/>
    </symbol>

    <symbol id="importer" viewBox="0 0 62 44">
        <path d="M47,22.5V36c0,0.4-0.1,0.8-0.2,1.2c-0.2,0.4-0.4,0.7-0.6,1s-0.6,0.5-1,0.6C44.8,38.9,44.4,39,44,39H17
	c-0.4,0-0.8-0.1-1.2-0.2c-0.4-0.2-0.7-0.4-1-0.6c-0.3-0.3-0.5-0.6-0.6-1C14.1,36.8,14,36.4,14,36V9c0-0.4,0.1-0.8,0.2-1.2
	c0.2-0.4,0.4-0.7,0.6-1c0.3-0.3,0.6-0.5,1-0.6C16.2,6.1,16.6,6,17,6h13.5c0.6,0,1,0.4,1,1s-0.4,1-1,1H17c-0.1,0-0.3,0-0.4,0.1
	c-0.1,0-0.2,0.1-0.3,0.2c-0.1,0.1-0.2,0.2-0.2,0.3C16,8.7,16,8.9,16,9v27c0,0.1,0,0.3,0.1,0.4c0,0.1,0.1,0.2,0.2,0.3
	c0.1,0.1,0.2,0.2,0.3,0.2C16.7,37,16.9,37,17,37h27c0.1,0,0.3,0,0.4-0.1c0.1-0.1,0.2-0.1,0.3-0.2s0.2-0.2,0.2-0.3
	C45,36.3,45,36.1,45,36V22.5c0-0.6,0.4-1,1-1S47,21.9,47,22.5z M35.6,17.9C35.7,18,35.9,18,36,18h7c0.6,0,1-0.4,1-1s-0.4-1-1-1h-4.6
	l8.3-8.3c0.4-0.4,0.4-1,0-1.4s-1-0.4-1.4,0L37,14.6V10c0-0.6-0.4-1-1-1s-1,0.4-1,1v7c0,0.1,0,0.3,0.1,0.4
	C35.2,17.6,35.4,17.8,35.6,17.9z"/>
    </symbol>

    <symbol id="htaccess" viewBox="0 0 24 24">
        <path class="st0" d="M14,20c0,1.1-0.9,2-2,2s-2-0.9-2-2s0.9-2,2-2S14,18.9,14,20z M12,15c1.1,0,1.3-0.8,1.3-1.8L14,3.8
    c0-1-0.9-1.8-2-1.8s-2,0.8-2,1.8l0.7,9.5C10.7,14.2,10.9,15,12,15z"/>
    </symbol>

    <symbol id="log" viewBox="0 0 62 44">
        <path d="M38,8H19c-1.7,0-3,1.3-3,3v27c0,1.7,1.3,3,3,3h19c1.7,0,3-1.3,3-3V11C41,9.3,39.7,8,38,8z M39,38c0,0.6-0.4,1-1,1H19
	c-0.6,0-1-0.4-1-1V11c0-0.6,0.4-1,1-1h19c0.6,0,1,0.4,1,1V38z M46,5.9V33c0,0.6-0.4,1-1,1s-1-0.4-1-1V5.9C44,5.4,43.6,5,43.2,5H25
	c-0.6,0-1-0.4-1-1s0.4-1,1-1h18.2C44.7,3,46,4.3,46,5.9z M21,17c0-0.6,0.4-1,1-1h8.3c0.6,0,1,0.4,1,1c0,0.6-0.4,1-1,1H22
	C21.4,18,21,17.6,21,17z M35,23c0,0.6-0.4,1-1,1H22c-0.6,0-1-0.4-1-1c0-0.6,0.4-1,1-1h12C34.6,22,35,22.4,35,23z M35,29
	c0,0.6-0.4,1-1,1H22c-0.6,0-1-0.4-1-1c0-0.6,0.4-1,1-1h12C34.6,28,35,28.4,35,29z"/>
    </symbol>

    <symbol id="file-manager" viewBox="0 0 62 44">
        <path d="M49,37H12c-0.2,0-0.4,0-0.6-0.1c-0.2,0-0.4-0.1-0.6-0.2c-0.2-0.1-0.4-0.2-0.5-0.3c-0.2-0.1-0.3-0.2-0.4-0.4
		c-0.1-0.1-0.3-0.3-0.4-0.4c-0.1-0.2-0.2-0.3-0.3-0.5c-0.1-0.2-0.1-0.4-0.2-0.6C9,34.4,9,34.2,9,34V11c0-0.2,0-0.4,0.1-0.6
		c0-0.2,0.1-0.4,0.2-0.6c0.1-0.2,0.2-0.4,0.3-0.5C9.6,9.2,9.7,9,9.9,8.9c0.1-0.1,0.3-0.3,0.4-0.4c0.2-0.1,0.3-0.2,0.5-0.3
		c0.2-0.1,0.4-0.1,0.6-0.2C11.6,8,11.8,8,12,8h13c0.9,0,1.7,0.4,2.3,1.1l3.9,4.6c0.2,0.2,0.5,0.4,0.8,0.4H49c0.2,0,0.4,0,0.6,0.1
		c0.2,0,0.4,0.1,0.6,0.2c0.2,0.1,0.3,0.2,0.5,0.3c0.2,0.1,0.3,0.2,0.4,0.4c0.1,0.1,0.3,0.3,0.4,0.4c0.1,0.2,0.2,0.3,0.3,0.5
		c0.1,0.2,0.1,0.4,0.2,0.6c0,0.2,0.1,0.4,0.1,0.6v17c0,0.2,0,0.4-0.1,0.6c0,0.2-0.1,0.4-0.2,0.6c-0.1,0.2-0.2,0.3-0.3,0.5
		c-0.1,0.2-0.2,0.3-0.4,0.4c-0.1,0.1-0.3,0.3-0.4,0.4c-0.2,0.1-0.3,0.2-0.5,0.3c-0.2,0.1-0.4,0.1-0.6,0.2C49.4,37,49.2,37,49,37z
		 M11,27.2V34c0,0.1,0,0.1,0,0.2c0,0.1,0,0.1,0.1,0.2c0,0.1,0.1,0.1,0.1,0.2c0,0.1,0.1,0.1,0.1,0.1c0,0,0.1,0.1,0.1,0.1
		c0.1,0,0.1,0.1,0.2,0.1c0.1,0,0.1,0,0.2,0.1c0.1,0,0.1,0,0.2,0h37c0.1,0,0.1,0,0.2,0c0.1,0,0.1,0,0.2-0.1c0.1,0,0.1-0.1,0.2-0.1
		c0.1,0,0.1-0.1,0.1-0.1c0.1-0.1,0.1-0.1,0.1-0.1c0-0.1,0.1-0.1,0.1-0.2s0-0.1,0.1-0.2c0-0.1,0-0.1,0-0.2V17c0-0.1,0-0.1,0-0.2
		c0-0.1,0-0.1-0.1-0.2c0-0.1-0.1-0.1-0.1-0.2c0-0.1-0.1-0.1-0.1-0.1c0,0-0.1-0.1-0.2-0.1c-0.1,0-0.1-0.1-0.2-0.1
		c-0.1,0-0.1,0-0.2-0.1c-0.1,0-0.1,0-0.2,0H31.9c-0.9,0-1.7-0.4-2.3-1.1l-3.9-4.6C25.5,10.1,25.2,10,25,10H12c-0.1,0-0.1,0-0.2,0
		c-0.1,0-0.1,0-0.2,0.1c-0.1,0-0.1,0.1-0.2,0.1c-0.1,0-0.1,0.1-0.1,0.1c0,0-0.1,0.1-0.1,0.1c0,0.1-0.1,0.1-0.1,0.2
		c0,0.1,0,0.1-0.1,0.2c0,0.1,0,0.1,0,0.2V27.2z"/>
    </symbol>
        
    <symbol id="add" viewBox="0 0 62 44">
        <path d="M31,3c-10.49,0-19,8.51-19,19s8.51,19,19,19s19-8.51,19-19S41.49,3,31,3z M31,39c-9.37,0-17-7.63-17-17S21.63,5,31,5
	s17,7.63,17,17S40.37,39,31,39z M36.5,22c0,0.55-0.45,1-1,1H32v3.5c0,0.55-0.45,1-1,1s-1-0.45-1-1V23h-3.5c-0.55,0-1-0.45-1-1
	c0-0.55,0.45-1,1-1H30v-3.5c0-0.55,0.45-1,1-1s1,0.45,1,1V21h3.5C36.05,21,36.5,21.45,36.5,22z"/>
    </symbol>   
    
    <!-- Search icons  (rememebr to add stroke color via CSS e.g. stroke: #000;-->

    <symbol id="close" viewBox="0 0 24 24"> 
         <line fill="none" stroke-linecap="round" stroke-miterlimit="10" x1="8" y1="16" x2="16" y2="8"/>
         <line fill="none" stroke-linecap="round" stroke-miterlimit="10" x1="16" y1="16" x2="8" y2="8"/>
    </symbol>
        
    <symbol id="arrow-down" viewBox="0 0 24 24"> 
         <line fill="none" stroke-linecap="round" stroke-miterlimit="10" x1="6" y1="9" x2="12" y2="15"/>
         <line fill="none" stroke-linecap="round" stroke-miterlimit="10" x1="18" y1="9" x2="12" y2="15"/>
    </symbol>
        
    <symbol id="arrow-up" viewBox="0 0 24 24"> 
         <line fill="none" stroke-linecap="round" stroke-miterlimit="10" x1="6" y1="15" x2="12" y2="9"/>
         <line fill="none" stroke-linecap="round" stroke-miterlimit="10" x1="18" y1="15" x2="12" y2="9"/>
    </symbol>

    <symbol id="arrow-left" viewBox="0 0 24 24">
       <path d="M10.21,12l4.64-4.65a.49.49,0,0,0-.7-.7l-5,5a.48.48,0,0,0,0,.7l5,5a.48.48,0,0,0,.7,0,.48.48,0,0,0,0-.7Z"/>
    </symbol>
        
</svg>
