<svg xmlns="http://www.w3.org/2000/svg"> 
	
    <!-- Server settings  icons  -->
    
	<symbol id="s3storage" viewBox="0 0 400 400">
		<path d="M103.57,359.069c-.443-.453-11.268-4.61-24.057-9.24l-23.254-8.415-.257-36.344c-.244-34.369-.164-36.307
		1.473-35.666.951.373,11.672,4.04,23.823,8.151,12.152,4.11,22.43,7.768,22.842,8.128.412.36.633,17.204.49,37.431-.14
		20.228-.618,36.407-1.06,35.955zm10.365-36.461l.257-37.15,24.057-8.213c13.232-4.516,24.173-8.231,24.315-8.255.142-.024.142
		16.26,0,36.188l-.258,36.231-22.584,8.127c-12.42,4.47-23.362,8.599-24.314,9.175-1.642.993-1.717-.85-1.473-36.103zM244.791
		305.9c-5.185-1.428-12.278-4.392-12.278-5.13,0-2.057,3.297-11.103,4.046-11.103.529,0,2.376.735,4.104,1.634,5.243,2.726,12.568
		4.262,20.379,4.275,13.744.021,22.041-6.644
		21.973-17.654-.063-10.367-3.76-14.187-21.136-21.845-13.336-5.876-17.867-8.9-22.12-14.76-11.18-15.407-3.11-36.816,16.22-43.034
		7.903-2.542,21.127-2.342,30.294.46,3.916,1.196,7.12,2.305,7.12,2.464,0,.93-3.322,10.143-3.885
		10.777-.373.42-2.225.113-4.116-.68-1.891-.795-6.352-1.954-9.912-2.577-15.109-2.644-26.28,4.165-26.27,16.013.007,7.716,5.346
		13.503,16.763,18.164,24.244,9.9,31.291,17.426,31.316,33.442.01,6.37-.45,8.846-2.379,12.828-4.085,8.432-9.413,12.994-18.916
		16.196-7.253,2.445-23.266,2.717-31.203.53zm79.04.159c-5.8-1.716-11.419-4.139-12.036-5.19-.272-.463.371-3.107
		1.429-5.876l1.923-5.035,5.867,2.382c21.731,8.82,40.13,1.532,40.13-15.898
		0-5.527-1.353-9.181-4.726-12.767-4.702-4.998-9.627-6.856-19.822-7.48l-9.328-.57-.292-5.035-.291-5.034,7.165-.656c10.28-.942
		15.764-3.026,19.813-7.53,4.38-4.87,5.317-9.501,3.103-15.326-2.084-5.483-5.113-7.92-11.682-9.397-6.184-1.39-13.743-.112-20.918
		3.538-5.2,2.646-5.453,2.514-7.402-3.85-1.041-3.4-.966-3.969.68-5.18,7.597-5.581,27.827-8.146,37.855-4.799,10.514,3.51,16.848
		12.167,16.766,22.915-.079,10.359-5,17.931-14.64,22.529l-3.306,1.576,5.722,2.729c6.63,3.161,13.265,9.924,15.039,15.326,2.015
		6.137.873,18.118-2.236,23.45-3.337,5.72-8.558,10.283-15.383,13.44-4.724,2.185-7.005,2.553-17.228
		2.782-7.643.17-13.335-.196-16.201-1.044zM85.997,272.475c-13.348-4.383-24.284-8.226-24.302-8.54-.033-.55,46.553-14.024
		48.585-14.052,2.391-.033,45.601,14.56,44.924,15.173-.413.374-10.694,3.99-22.845,8.034l-22.093
		7.354zm-64.84-23.124l-23.32-8.526v-72.461l13.5,4.76c7.427,2.618,18.473,6.414,24.549,8.437l11.046,3.676v36.428c0,28.542-.265
		36.404-1.227,36.32-.675-.06-11.721-3.945-24.547-8.634zm34.612-27.675v-36.417l4.665-1.64c2.565-.902,12.838-4.45,22.83-7.886
		9.99-3.436,18.943-6.563,19.895-6.95,1.637-.666,1.717,1.264,1.473,35.668l-.258,36.371-23.566,8.587c-12.96,4.723-23.897
		8.608-24.302,8.635-.405.027-.737-16.339-.737-36.368zm79.29,27.675l-23.319-8.526v-36.208l-.001-36.208,24.129,8.332c13.271
		4.583,24.318,8.333,24.548,8.333.23,0,.418,16.43.418,36.51,0,28.606-.265,36.485-1.227
		36.4-.675-.059-11.721-3.944-24.547-8.633zm34.613-27.675v-36.417l4.664-1.64c2.565-.902,12.838-4.45,22.83-7.886,9.99-3.436
		18.944-6.563,19.895-6.95,1.637-.666,1.717,1.264,1.473,35.668l-.257,36.371-23.566,8.587c-12.962,4.723-23.898,8.608-24.303
		8.635-.405.027-.736-16.339-.736-36.368zM27.538,171.933c-13.096-4.424-23.811-8.274-23.811-8.555,0-.282,10.807-3.572
		24.016-7.31l24.017-6.8,5.686,1.635c15.476,4.447,40.863,13.327,39.563,13.84-2.45.964-45.356,15.403-45.513
		15.316-.08-.045-10.861-3.701-23.958-8.126zm113.903,0c-13.097-4.424-23.812-8.274-23.812-8.555,0-.282,10.808-3.572
		24.016-7.31l24.017-6.8,5.686,1.635c15.388,4.421,40.865,13.325,39.563,13.826-3.755,1.447-45.005,15.402-45.312
		15.33-.19-.045-11.062-3.701-24.158-8.126zm51.55-23.174l-23.32-8.515V104.44c0-19.957.382-35.802.864-35.802.475
		0,11.522,3.598,24.548,7.996l23.684,7.996v36.407c0,28.514-.267,36.389-1.228
		36.322-.675-.048-11.721-3.918-24.548-8.601zm34.613-27.72V84.63l23.684-7.996c13.026-4.398,24.072-7.996,24.547-7.996.482,0,.865
		15.869.865,35.859v35.858l-23.87,8.545c-13.127,4.7-24.174,8.544-24.547,8.544-.374,0-.68-16.383-.68-36.407zm79.29
		27.72l-23.321-8.515V104.44c0-24.853.322-35.802,1.054-35.802.58,0,11.627,3.61,24.548,8.02l23.494,8.02v36.384c0,28.494-.266
		36.364-1.228,36.297-.675-.048-11.721-3.918-24.548-8.601zm34.612-27.687V84.698l24.548-8.328,24.548-8.329v72.315l-23.869
		8.545c-13.128,4.7-24.174,8.544-24.548,8.544-.373,0-.679-16.368-.679-36.373zM199.374
		71.286c-21.26-7.181-26.83-9.554-22.435-9.554,2.121,0,43.06-11.703,45.113-12.896,1.34-.779,2.62-.682,4.91.373,1.703.784,12.037
		4.256,22.964,7.715,10.927,3.458,19.875,6.517,19.884,6.797.015.489-45.195,15.858-46.156
		15.69-.258-.044-11.184-3.7-24.28-8.125zm113.902,0c-21.259-7.181-26.83-9.554-22.435-9.554,2.121,0,43.061-11.703,45.113-12.896
		1.34-.779,2.62-.682,4.91.373,1.703.784,12.037,4.256,22.964,7.715,10.927,3.458,19.875,6.517,19.884,6.797.016.489-45.195
		15.858-46.156,15.69-.258-.044-11.184-3.7-24.28-8.125z"/>
	</symbol>

    <symbol id="googlecloud" viewBox="0 0 200 48">
        <path d="M33.4,17.39c-0.74-2.65-2.26-5.03-4.37-6.86l-0.07,0.06l0.01-0.07C23,5.38,13.86,5.93,8.58,11.76
	c-1.47,1.62-2.53,3.55-3.11,5.63c0.06-0.02,0.12-0.02,0.18-0.04C2.83,19.19,0.98,22.32,1,25.87c0.02,3.14,1.52,6.09,4.08,8.01
	l0.01-0.01l-0.01,0.04c1.82,1.34,4.03,2.05,6.31,2.04L19.43,36l0,0h8.03c5.77,0.04,10.49-4.48,10.53-10.1
	C38.03,22.5,36.3,19.3,33.4,17.39z M27.47,29.74h-8.03l0,0l-8.05-0.04c-0.57,0-1.13-0.12-1.65-0.35l0,0
	c-2.02-0.89-2.92-3.21-2.01-5.18s3.29-2.84,5.32-1.95c0.89,0.39,1.6,1.09,2.01,1.95l4.66-4.54c-1.56-1.99-3.81-3.31-6.29-3.79
	c0.03-0.02,0.07-0.04,0.09-0.04c2.86-3.06,7.68-3.42,10.98-0.81h0.08c1.87,1.52,2.93,3.77,2.88,6.14v0.78
	c2.22,0,4.02,1.75,4.02,3.91C31.49,27.98,29.69,29.74,27.47,29.74z M111.84,18.92h-2.77V20h-0.1c-0.4-0.46-0.89-0.83-1.45-1.08
	c-0.64-0.31-1.34-0.47-2.05-0.46c-1.69,0-3.31,0.72-4.46,1.98c-1.25,1.26-1.94,2.99-1.91,4.78c-0.03,1.78,0.66,3.49,1.91,4.74
	c1.15,1.26,2.77,1.97,4.46,1.97c1.34,0.08,2.63-0.49,3.49-1.53h0.1v0.97c0.08,1.07-0.25,2.12-0.93,2.94
	c-0.68,0.71-1.63,1.08-2.6,1.02c-0.76,0.02-1.5-0.23-2.09-0.71c-0.55-0.45-0.98-1.03-1.26-1.69l-2.54,1.08
	c0.47,1.1,1.22,2.06,2.16,2.78c1.07,0.82,2.38,1.24,3.71,1.2c1.68,0.06,3.32-0.57,4.54-1.75c1.28-1.43,1.92-3.34,1.77-5.26V18.92z
	 M108.25,28.17c-0.63,0.74-1.56,1.15-2.52,1.13c-0.99,0.01-1.94-0.41-2.61-1.15c-0.74-0.78-1.14-1.82-1.12-2.9
	c-0.02-1.09,0.38-2.14,1.12-2.93c0.67-0.74,1.62-1.15,2.61-1.13c0.96-0.02,1.89,0.39,2.52,1.13c0.69,0.82,1.06,1.87,1.01,2.95
	C109.3,26.34,108.94,27.37,108.25,28.17z M86.54,20.41c-1.28,1.26-1.98,3-1.93,4.81c-0.05,1.81,0.65,3.55,1.93,4.81
	c2.64,2.57,6.81,2.57,9.45,0c1.28-1.26,1.98-3,1.93-4.81c0.05-1.81-0.65-3.55-1.93-4.81C93.35,17.84,89.18,17.84,86.54,20.41z
	 M93.9,28.14c-0.05,0.06-0.11,0.12-0.17,0.17c-1.46,1.38-3.74,1.31-5.11-0.17h-0.01c-0.75-0.78-1.15-1.83-1.13-2.92
	c-0.03-1.09,0.37-2.15,1.12-2.93c0.04-0.04,0.07-0.07,0.11-0.11c1.46-1.42,3.79-1.37,5.19,0.11c0.75,0.78,1.15,1.84,1.12,2.93
	C95.05,26.3,94.64,27.36,93.9,28.14z M81.47,20.41c-2.64-2.56-6.8-2.56-9.45,0c-1.28,1.26-1.98,3-1.93,4.81
	c-0.05,1.81,0.65,3.55,1.93,4.81c2.64,2.57,6.81,2.57,9.45,0h-0.01c1.28-1.26,1.99-3,1.94-4.81C83.44,23.41,82.74,21.67,81.47,20.41
	z M79.38,28.14c-0.05,0.06-0.11,0.12-0.17,0.17c-1.46,1.38-3.74,1.31-5.11-0.17h-0.01c-0.75-0.78-1.15-1.83-1.13-2.92
	c-0.03-1.09,0.37-2.15,1.12-2.93c0.04-0.04,0.07-0.07,0.11-0.11c1.46-1.42,3.79-1.37,5.19,0.11c0.75,0.78,1.15,1.84,1.12,2.93
	C80.53,26.3,80.12,27.36,79.38,28.14z M68.95,20.55c0.09,0.58,0.13,1.17,0.11,1.77c0.12,2.47-0.76,4.88-2.44,6.68
	c-1.87,1.97-4.48,3.05-7.17,2.95c-2.76,0.04-5.42-1.07-7.36-3.07c-2-1.91-3.12-4.59-3.09-7.38c-0.03-2.79,1.09-5.47,3.09-7.38
	c1.93-2.02,4.59-3.14,7.36-3.12c2.64-0.04,5.18,1,7.06,2.89l-1.99,2.05c-1.36-1.33-3.18-2.07-5.07-2.04
	c-1.98-0.02-3.88,0.8-5.24,2.26c-1.41,1.42-2.19,3.36-2.15,5.38c-0.02,1.99,0.76,3.91,2.15,5.31c2.87,2.9,7.5,2.96,10.44,0.12
	c0.87-0.97,1.41-2.21,1.53-3.52h-6.69v-2.9H68.95z M113.85,11.76h2.91v19.79h-2.91V11.76z M130.16,22.75
	c-0.18-0.46-0.4-0.9-0.66-1.32c-0.32-0.5-0.69-0.96-1.12-1.37c-0.49-0.49-1.07-0.87-1.71-1.13c-0.71-0.3-1.47-0.45-2.23-0.44
	c-1.68-0.04-3.3,0.65-4.46,1.89c-1.23,1.3-1.88,3.05-1.82,4.84c-0.05,1.79,0.64,3.53,1.88,4.8c1.23,1.28,2.93,1.98,4.7,1.94
	c1.19,0.02,2.35-0.31,3.36-0.95c0.84-0.53,1.57-1.23,2.14-2.06l-2.23-1.53c-0.69,1.16-1.93,1.87-3.27,1.87
	c-1.38,0.06-2.66-0.75-3.21-2.04l8.92-3.72L130.16,22.75z M121.02,25.01c-0.08-1.07,0.32-2.11,1.08-2.85
	c0.63-0.66,1.49-1.05,2.4-1.08c0.53-0.01,1.06,0.13,1.53,0.4c0.42,0.23,0.74,0.59,0.93,1.03L121.02,25.01z M151.29,27.05l1.61,1.63
	c-0.84,1.02-1.9,1.84-3.09,2.39c-1.29,0.6-2.69,0.9-4.1,0.88c-5.07,0.09-9.26-4.01-9.35-9.16c0-0.13,0-0.25,0-0.38
	c-0.12-5.15,3.9-9.42,8.97-9.54c0.12,0,0.25,0,0.37,0c2.54-0.08,4.97,1.02,6.61,2.99l-1.61,1.58c-1.21-1.54-3.06-2.4-5-2.32
	c-1.86-0.04-3.65,0.69-4.96,2.01c-1.37,1.4-2.1,3.31-2.02,5.27c-0.08,1.97,0.65,3.88,2.02,5.27c1.31,1.33,3.11,2.06,4.96,2.01
	C147.87,29.72,149.93,28.75,151.29,27.05z M154.9,13.26h2.31v18.28h-2.31V13.26z M160.98,20.54c-1.19,1.28-1.84,2.99-1.78,4.75
	c-0.05,1.76,0.59,3.47,1.78,4.75c2.52,2.54,6.58,2.54,9.1,0c1.19-1.28,1.84-2.99,1.78-4.75c0.05-1.76-0.59-3.47-1.78-4.75
	C167.56,18,163.5,18,160.98,20.54z M168.35,28.58c-0.05,0.05-0.1,0.1-0.15,0.15c-1.56,1.5-4.02,1.43-5.5-0.15l0.01-0.01
	c-0.82-0.88-1.25-2.06-1.2-3.27c-0.05-1.21,0.38-2.39,1.19-3.28c0.05-0.05,0.1-0.1,0.15-0.15c1.56-1.5,4.02-1.43,5.5,0.15
	c0.82,0.89,1.24,2.07,1.19,3.28C169.6,26.51,169.17,27.69,168.35,28.58z M182.35,19.05h2.31v12.5h-2.23v-1.73h-0.07
	c-0.4,0.66-0.96,1.2-1.63,1.56c-0.69,0.41-1.48,0.62-2.29,0.62c-1.32,0.09-2.61-0.43-3.5-1.43c-0.84-1.08-1.27-2.45-1.19-3.83v-7.7
	h2.31v7.27c0,2.33,1.01,3.5,3.04,3.5c0.92,0.03,1.79-0.39,2.34-1.13c0.6-0.77,0.92-1.72,0.9-2.71V19.05z M196.69,13.26v5.78
	l0.1,1.73h-0.1c-0.41-0.65-0.99-1.18-1.67-1.53c-0.78-0.42-1.64-0.63-2.52-0.61c-1.58-0.01-3.09,0.69-4.13,1.91
	c-1.16,1.3-1.78,2.99-1.73,4.74c-0.05,1.75,0.57,3.45,1.73,4.74c1.03,1.22,2.54,1.92,4.13,1.91c0.87,0.01,1.73-0.2,2.5-0.61
	c0.68-0.35,1.26-0.88,1.67-1.53h0.1v1.73H199V13.26H196.69z M195.65,28.59c-0.71,0.79-1.72,1.24-2.78,1.22
	c-1.07,0.02-2.09-0.44-2.8-1.25c-0.79-0.9-1.19-2.08-1.12-3.28c-0.07-1.2,0.33-2.38,1.12-3.28c0.08-0.09,0.16-0.17,0.25-0.25
	c1.54-1.42,3.92-1.31,5.32,0.25c0.78,0.91,1.18,2.09,1.12,3.29C196.84,26.5,196.44,27.68,195.65,28.59z"/>
    </symbol>
    
    <symbol id="githubpages" viewBox="0 0 81 48"><path d="M16.989,22.295v9.948c0,.061-.01,.184-.101,.235,0,0-2.125,1.522-5.631,1.522-4.231,0-9.257-1.328-9.257-10.234,.01-8.917,4.402-10.766,8.673-10.766,3.717,0,5.178,.838,5.419,1.011,.091,.061,.111,.163,.111,.235l-.715,3.085c0,.174-.171,.357-.363,.296-.594-.184-1.521-.572-3.687-.572-2.498,0-5.158,.756-5.158,6.476s2.559,6.404,4.392,6.404c1.551,0,2.115-.194,2.115-.194v-3.963h-2.498c-.161,0-.302-.133-.302-.306v-3.177c0-.163,.131-.306,.302-.306h6.407c.161,0,.292,.133,.292,.306Zm6.386-1.93c0-.174-.131-.306-.302-.306h-3.596c-.161,0-.312,.174-.312,.337v12.716c0,.378,.232,.48,.524,.48h3.244c.353,0,.443-.174,.443-.49v-3.871c0-.49,0-8.866,0-8.866Zm26.301-6.608h-3.606c-.161,0-.302,.133-.302,.306v7.099h-5.621v-7.099c0-.174-.131-.306-.302-.306h-3.606c-.161,0-.302,.133-.302,.306v19.233c0,.174,.131,.306,.302,.306h3.606c.161,0,.302-.133,.302-.306v-8.222h5.621l-.01,8.222c0,.174,.131,.306,.302,.306h3.616c.161,0,.302-.133,.302-.306V14.062c-.01-.163-.141-.306-.302-.306Zm-28.376,.439c-1.279,0-2.327,1.072-2.327,2.39s1.038,2.39,2.327,2.39,2.327-1.072,2.327-2.39-1.038-2.39-2.327-2.39Zm12.42,16.22c-.161,0-.564,.061-.977,.061-1.33,0-1.783-.633-1.783-1.44v-5.403h2.71c.161,0,.302-.133,.302-.306v-2.962c0-.174-.131-.306-.302-.306h-2.71v-3.636c0-.133-.071-.204-.222-.204h-3.687c-.141,0-.222,.061-.222,.204v3.759s-1.843,.449-1.974,.49c-.121,.041-.212,.153-.212,.296v2.359c0,.174,.131,.306,.302,.306h1.894v5.689c0,4.229,2.911,4.647,4.875,4.647,.897,0,1.974-.296,2.146-.357,.111-.041,.171-.153,.171-.276v-2.605c-.01-.184-.151-.317-.312-.317Zm30.25-10.326h-3.576c-.161,0-.302,.133-.302,.306v9.428s-.907,.674-2.196,.674-1.632-.592-1.632-1.879v-8.222c0-.174-.131-.306-.302-.306h-3.636c-.161,0-.302,.133-.302,.306v8.845c0,3.83,2.095,4.76,4.966,4.76,2.357,0,4.261-1.328,4.261-1.328,0,0,.091,.695,.131,.786,.04,.082,.151,.163,.262,.163l2.307-.01c.161,0,.302-.133,.302-.306v-12.911c.02-.174-.121-.306-.282-.306Zm15.029,6.261c0,5.924-1.884,7.63-5.168,7.63-2.8,0-4.281-1.43-4.281-1.43,0,0-.091,.786-.151,.889-.06,.102-.151,.163-.262,.163h-2.508c-.161,0-.302-.143-.302-.306V14.062c0-.174,.131-.306,.302-.306h3.616c.161,0,.302,.133,.302,.306v6.506s1.38-.919,3.415-.919,5.027,.776,5.037,6.7Zm-4.16,.235c0-3.136-1.239-3.524-2.528-3.411-1.017,.092-1.853,.613-1.853,.613v6.088s.846,.572,2.085,.613c1.733,.051,2.297-.603,2.297-3.902Z"/>
    </symbol>
    
    <symbol id="netlify" viewBox="0 0 255.991 104.311"><path d="m65.604,76.868l.546.546v26.351l-.546.546h-6.588l-.546-.546v-26.351l.546-.546h6.588ZM59.017,0l-.546.546v26.351l.546.546h6.588l.546-.546V.546l-.546-.546h-6.588Zm-20.164,71.305l-8.491,8.499v.905l4.531,4.531h.904l8.491-8.499v-4.796l-.64-.631-4.796-.009Zm-3.959-51.994l-4.531,4.523v.913l8.491,8.491h4.796l.64-.648v-4.787l-8.491-8.491h-.904Zm3.533,36.139v-6.596l-.546-.546H.546l-.546.546v6.596l.546.546h37.333l.546-.546Zm217.019-7.134h-35.14l-.546.546-2.739,6.588.546.546h37.879l.546-.546v-6.588l-.546-.546Z" /><path d="m74.667,65.886h-6.588l-.546-.546v-15.42c0-2.748-1.075-4.872-4.386-4.941-1.707-.043-3.652,0-5.734.085l-.316.316v19.951l-.546.546h-6.588l-.546-.546v-26.351l.546-.546h14.822c5.76,0,10.428,4.668,10.428,10.428v16.469l-.546.546v.009Zm31.906-11.537l-.546.546h-17.033l-.546.546c0,1.101,1.101,4.395,5.495,4.395,1.647,0,3.294-.546,3.849-1.647l.546-.546h6.588l.546.546c-.546,3.294-3.294,8.243-11.537,8.243-9.335,0-13.73-6.588-13.73-14.285s4.395-14.285,13.184-14.285,13.184,6.588,13.184,14.285v2.202Zm-8.243-5.496c0-.546-.546-4.395-4.941-4.395s-4.941,3.849-4.941,4.395l.546.546h8.789l.546-.546Zm23.62,8.789c0,1.101.546,1.647,1.647,1.647h4.941l.546.546v5.495l-.546.546h-4.941c-4.941,0-9.336-2.202-9.336-8.243v-12.083l-.546-.546h-3.848l-.546-.546v-5.495l.546-.546h3.848l.546-.546v-4.941l.546-.546h6.588l.546.546v4.941l.546.546h6.042l.546.546v5.495l-.546.546h-6.042l-.546.546v12.083l.009.008Zm20.326,8.243h-6.588l-.546-.546V27.981l.546-.546h6.588l.546.546v37.35l-.546.546v.009Zm14.831-31.864h-6.588l-.546-.546v-5.495l.546-.546h6.588l.546.546v5.495l-.546.546Zm0,31.864h-6.588l-.546-.546v-26.368l.546-.546h6.588l.546.546v26.368l-.546.546Zm25.822-37.905v5.495l-.546.546h-4.941c-1.101,0-1.647.546-1.647,1.647v2.202l.546.546h5.496l.546.546v5.495l-.546.546h-5.496l-.546.546v19.772l-.546.546h-6.588l-.546-.546v-19.772l-.546-.546h-3.849l-.546-.546v-5.495l.546-.546h3.849l.546-.546v-2.202c0-6.042,4.395-8.243,9.336-8.243h4.94l.547.546-.009.009Zm20.318,38.451c-2.202,5.495-4.395,8.789-12.083,8.789h-2.748l-.546-.546v-5.495l.546-.546h2.748c2.747,0,3.294-.546,3.848-2.193v-.546l-8.789-21.427v-5.496l.546-.546h4.941l.546.546,6.588,18.68h.546l6.588-18.68.546-.546h4.941l.546.546v5.496l-8.79,21.973.026-.008Z"/>
</symbol>	
    
    <symbol id="sftp" viewBox="0 0 79 48">
       <path d="M22.31,22.85C22.77,23.6,23,24.52,23,25.62c0,1-0.27,1.93-0.82,2.8c-0.55,0.87-1.32,1.52-2.33,1.94
	c-1,0.42-2.25,0.64-3.75,0.64c-2.18,0-3.85-0.51-5.01-1.52c-1.17-1.02-1.86-2.5-2.09-4.44l3.38-0.33c0.2,1.15,0.62,1.99,1.24,2.53
	c0.62,0.54,1.46,0.81,2.52,0.81c1.12,0,1.96-0.24,2.53-0.72c0.57-0.48,0.85-1.04,0.85-1.68c0-0.41-0.12-0.76-0.36-1.05
	c-0.24-0.29-0.66-0.54-1.25-0.75c-0.41-0.14-1.33-0.39-2.78-0.76c-1.86-0.47-3.17-1.04-3.92-1.72c-1.06-0.96-1.59-2.12-1.59-3.5
	c0-0.89,0.25-1.71,0.75-2.49c0.5-0.77,1.21-1.36,2.15-1.76c0.94-0.4,2.06-0.61,3.39-0.61c2.16,0,3.79,0.48,4.88,1.44
	s1.67,2.23,1.72,3.83l-3.48,0.15c-0.15-0.89-0.47-1.54-0.96-1.93s-1.22-0.59-2.2-0.59c-1.01,0-1.8,0.21-2.37,0.63
	c-0.37,0.27-0.55,0.63-0.55,1.08c0,0.41,0.17,0.76,0.52,1.06c0.44,0.37,1.5,0.76,3.19,1.16c1.69,0.4,2.94,0.82,3.75,1.25
	C21.22,21.52,21.85,22.11,22.31,22.85z M26,31h3.53v-7.65h7.31v-3.05h-7.31v-4.26H38V13H26V31z M41,16.05h5.23V31h3.56V16.05H55V13
	H41V16.05z M71,18.54c0,1.11-0.19,2.03-0.57,2.79c-0.38,0.75-0.86,1.34-1.44,1.77c-0.58,0.43-1.17,0.71-1.78,0.85
	c-0.82,0.17-2,0.26-3.55,0.26h-2.23V31H58V13h5.5c2.08,0,3.44,0.09,4.07,0.27c0.97,0.27,1.79,0.86,2.44,1.76
	C70.67,15.94,71,17.1,71,18.54z M67.47,18.59c0-0.65-0.18-1.19-0.54-1.62c-0.36-0.43-0.82-0.69-1.38-0.8
	c-0.41-0.08-1.23-0.12-2.46-0.12h-1.66v5.11h1.87c1.35,0,2.25-0.09,2.71-0.28c0.46-0.19,0.81-0.48,1.07-0.88
	C67.34,19.59,67.47,19.12,67.47,18.59z"/>
    </symbol>
        
    <symbol id="ftp" viewBox="0 0 79 48">
        <path d="M17,31h3.53v-7.65h7.31V20.3h-7.31v-4.26H29V13H17V31z M32,16.05h5.23V31h3.56V16.05H46V13H32V16.05z M62,18.54
	c0,1.11-0.19,2.03-0.57,2.79c-0.38,0.75-0.86,1.34-1.44,1.77s-1.17,0.71-1.78,0.85c-0.82,0.17-2,0.26-3.55,0.26h-2.23V31H49V13h5.5
	c2.08,0,3.44,0.09,4.07,0.27c0.97,0.27,1.79,0.86,2.44,1.76C61.67,15.94,62,17.1,62,18.54z M58.47,18.59c0-0.65-0.18-1.19-0.54-1.62
	s-0.82-0.69-1.38-0.8c-0.41-0.08-1.23-0.12-2.46-0.12h-1.66v5.11h1.87c1.35,0,2.25-0.09,2.71-0.28s0.81-0.48,1.07-0.88
	C58.34,19.59,58.47,19.12,58.47,18.59z"/>
    </symbol>
        
    <symbol id="zip" viewBox="0 0 77 48">
      <path d="M51.272,31.747c-.339,.005-.665-.132-.9-.378-.245-.24-.379-.571-.372-.914-.007-.34,.128-.669,.372-.906,.235-.245,.561-.382,.9-.377,.336-.002,.658,.134,.891,.377,.247,.236,.385,.564,.382,.906,0,.229-.061,.454-.179,.65-.114,.192-.273,.352-.463,.468-.19,.116-.408,.176-.631,.174Zm3.154-.131v-1.349l4.58-5.839v-.075h-4.423v-1.763h6.99v1.452l-4.357,5.736v.075h4.509v1.763h-7.299Zm9.098,0v-9.026h2.1v9.026h-2.1Zm1.056-10.301c-.319,.005-.628-.117-.857-.34-.23-.209-.36-.506-.357-.817-.003-.311,.127-.608,.357-.817,.228-.222,.536-.345,.855-.34,.319-.005,.628,.117,.857,.34,.23,.209,.359,.506,.356,.817,.003,.311-.126,.608-.356,.817-.228,.221-.534,.342-.851,.337l-.004,.003Zm3.027,13.686v-12.41h2.059v1.49h.125c.127-.249,.279-.483,.455-.7,.219-.267,.491-.486,.8-.642,.401-.193,.842-.284,1.287-.267,.658-.008,1.303,.177,1.857,.532,.581,.386,1.039,.931,1.32,1.569,.348,.802,.514,1.67,.488,2.543,.024,.867-.139,1.729-.479,2.526-.277,.643-.731,1.194-1.309,1.588-.556,.365-1.209,.555-1.874,.546-.437,.015-.871-.073-1.268-.258-.31-.151-.585-.364-.809-.626-.182-.215-.34-.45-.469-.7h-.087v4.809h-2.096Zm2.054-7.901c-.01,.522,.073,1.042,.245,1.535,.138,.403,.386,.76,.717,1.029,.325,.249,.726,.379,1.135,.367,.418,.013,.828-.121,1.158-.379,.328-.275,.574-.635,.71-1.041,.167-.486,.247-.997,.237-1.511,.007-.506-.074-1.009-.24-1.487-.133-.4-.375-.755-.7-1.024-.334-.255-.745-.386-1.165-.372-.41-.013-.812,.113-1.142,.358-.327,.261-.572,.61-.708,1.006-.172,.488-.255,1.002-.246,1.519h-.001Z" /><path d="M38,9.565V44.265c.003,1.506-1.215,2.73-2.721,2.735H3.721c-1.507-.005-2.725-1.231-2.721-2.738V3.738c-.004-1.507,1.214-2.733,2.721-2.738H14.6c.304,0,.55,.246,.55,.55s-.246,.55-.55,.55H3.721c-.903,.001-1.634,.734-1.633,1.637,0,0,0,0,0,.001V44.262c-.002,.903,.729,1.636,1.632,1.638h31.559c.903-.006,1.633-.74,1.632-1.643V10.353c.002-.58-.229-1.136-.642-1.544l-6.028-6.068c-.404-.413-.958-.644-1.535-.641h-9.206v2.733c.004,.299-.235,.544-.534,.548-.003,0-.007,0-.01,0h-1.632v2.19h1.632c.299-.002,.542,.239,.544,.538,0,.003,0,.007,0,.01v3.281c.004,.299-.235,.544-.534,.548-.003,0-.007,0-.01,0h-1.632v2.19h1.632c.299-.002,.542,.239,.544,.538,0,.003,0,.007,0,.01v3.286c.004,.299-.235,.544-.534,.548-.003,0-.007,0-.01,0h-1.632v2.19h1.632c.299-.002,.542,.239,.544,.538,0,.003,0,.007,0,.01v3.286c.004,.299-.235,.544-.534,.548-.003,0-.007,0-.01,0h-2.721v9.857h6.529v-9.849h-.544c-.304,0-.55-.246-.55-.55s.246-.55,.55-.55h1.088c.299-.002,.542,.239,.544,.538,0,.003,0,.007,0,.01v10.952c.004,.299-.235,.544-.534,.548-.003,0-.007,0-.01,0h-7.617c-.299,.002-.542-.239-.544-.538,0-.003,0-.007,0-.01v-10.952c-.004-.299,.235-.544,.534-.548,.003,0,.007,0,.01,0h2.721v-2.19h-1.633c-.299,.002-.542-.239-.544-.538,0-.003,0-.007,0-.01v-3.286c-.004-.299,.235-.544,.534-.548,.003,0,.007,0,.01,0h1.632v-2.19h-1.632c-.299,.002-.542-.239-.544-.538,0-.003,0-.007,0-.01v-3.29c-.004-.299,.235-.544,.534-.548,.003,0,.007,0,.01,0h1.632v-2.19h-1.632s-.544-.241-.544-.548v-3.281c-.004-.299,.235-.544,.534-.548,.003,0,.007,0,.01,0h1.632V1.548c-.004-.299,.235-.544,.534-.548,.004,0,.007,0,.011,0h9.979c.72-.002,1.41,.286,1.915,.8l6.986,7.02c.05,.051,.09,.11,.12,.175,.031,.188,.046,.379,.044,.57ZM19.5,30.571c-.607-.007-1.105,.48-1.112,1.088-.007,.607,.48,1.105,1.088,1.112,.607,.007,1.105-.48,1.112-1.088,0-.004,0-.008,0-.012,.003-.604-.484-1.096-1.088-1.1Z"/>
    </symbol>
        
    <symbol id="gitlab" viewBox="0 0 140 52"> 
		<g id="b"><path d="M56.715,22.303h4.531c-.756-4.844-4.927-8.218-10.356-8.218-6.423,0-11.243,4.748-11.243,12.7,0,7.81,4.603,12.654,11.374,12.654,6.077,0,10.427-3.93,10.427-10.292v-2.964h-9.96v3.494h5.657c-.072,3.52-2.409,5.748-6.101,5.748-4.11,0-6.926-3.096-6.926-8.688,0-5.556,2.864-8.64,6.831-8.64,2.96,0,4.985,1.59,5.765,4.206Z" /><path d="M64.445,39.101h4.338V20.601h-4.338v18.5Zm2.188-21.44c1.379,0,2.504-1.062,2.504-2.362s-1.126-2.374-2.504-2.374-2.516,1.06-2.516,2.374,1.118,2.362,2.508,2.362h.008Z" /><path d="M81.775,20.601h-3.632v-4.444h-4.338v4.444h-2.612v3.374h2.612v10.292c-.024,3.482,2.494,5.2,5.753,5.098,.868-.017,1.729-.164,2.554-.434l-.732-3.412c-.415,.108-.841,.165-1.269,.17-1.092,0-1.967-.386-1.967-2.146v-9.578h3.632v-3.364Z" /><path d="M85.133,39.101h15.257v-3.748h-10.809V14.421h-4.448v24.68Z" /><path d="M108.701,39.475c2.888,0,4.613-1.362,5.405-2.916h.143v2.542h4.177v-12.388c0-4.892-3.966-6.362-7.479-6.362-3.871,0-6.843,1.734-7.802,5.108l4.052,.58c.43-1.266,1.653-2.35,3.779-2.35,2.015,0,3.117,1.036,3.117,2.856v.072c0,1.252-1.307,1.314-4.555,1.662-3.571,.386-6.986,1.458-6.986,5.628-.012,3.64,2.636,5.568,6.149,5.568Zm1.426-3.2c-1.81,0-3.105-.832-3.105-2.434,0-1.676,1.45-2.374,3.382-2.652,1.14-.156,3.417-.446,3.978-.902v2.18c.012,2.054-1.643,3.802-4.255,3.802v.006Z" /><path d="M121.62,39.101h4.267v-2.916h.251c.684,1.35,2.111,3.242,5.275,3.242,4.338,0,7.587-3.46,7.587-9.556,0-6.17-3.344-9.52-7.599-9.52-3.248,0-4.603,1.964-5.263,3.302h-.183V14.421h-4.334v24.68Zm4.255-9.254c0-3.6,1.534-5.918,4.326-5.918,2.888,0,4.376,2.47,4.376,5.918s-1.51,6-4.376,6c-2.769,0-4.326-2.41-4.326-6h0Z" /><path d="M31.469,22.875l-.042-.112-4.217-11.06c-.085-.217-.237-.401-.434-.526-.518-.333-1.207-.182-1.539,.339-.059,.093-.104,.194-.134,.301l-2.847,8.762H10.729l-2.847-8.762c-.168-.596-.785-.942-1.378-.773-.104,.03-.203,.074-.295,.133-.196,.125-.348,.309-.434,.526L1.561,22.765l-.044,.11c-1.247,3.276-.187,6.986,2.598,9.098l.016,.012,.036,.028,6.415,4.834,3.183,2.418,1.933,1.47c.466,.354,1.109,.354,1.575,0l1.933-1.47,3.183-2.418,6.461-4.862,.018-.014c2.785-2.111,3.845-5.82,2.6-9.096Z" /><path d="M31.469,22.875l-.042-.112c-2.055,.424-3.991,1.299-5.669,2.564l-9.26,7.04,5.896,4.48,6.461-4.862,.018-.014c2.784-2.112,3.842-5.821,2.596-9.096Z" /><path d="M10.582,36.847l3.183,2.418,1.933,1.47c.466,.354,1.109,.354,1.575,0l1.933-1.47,3.183-2.418-5.896-4.48-5.912,4.48Z" /><path d="M7.229,25.327c-1.678-1.264-3.613-2.139-5.667-2.562l-.044,.11c-1.247,3.276-.187,6.986,2.598,9.098l.016,.012,.036,.028,6.415,4.834,5.9-4.48-9.254-7.04Z" /></g>
    </symbol>

	<symbol id="deployment-others" viewBox="0 0 29 29">
	   <path d="M25,16v9.58A2.42,2.42,0,0,1,22.55,28H3.42a2.44,2.44,0,0,1-2.23-1.48A2.36,2.36,0,0,1,1,25.58V6.42a2.41,2.41,0,0,1,.71-1.71,2.45,2.45,0,0,1,.76-.52A2.37,2.37,0,0,1,3.42,4H13a1,1,0,0,1,0,2H3.26A.37.37,0,0,0,3,6.23a.43.43,0,0,0,0,.16V25.58a.43.43,0,0,0,0,.16.37.37,0,0,0,.23.23.43.43,0,0,0,.16,0H22.58a.39.39,0,0,0,.3-.12.42.42,0,0,0,.09-.14.43.43,0,0,0,0-.16V16a1,1,0,0,1,2,0ZM27.71,1.29A1,1,0,0,0,27,1H21.13a1,1,0,0,0,0,2h3.45l-8.79,8.79a1,1,0,0,0,0,1.41h0a1,1,0,0,0,1.41,0h0L26,4.42V7.87a1,1,0,1,0,2,0V2A1,1,0,0,0,27.71,1.29Z"/>
	</symbol>

</svg>

