<svg id="tags" xmlns="http://www.w3.org/2000/svg" viewBox="0 0 688 572" enable-background="new 0 0 688 572"><style>.st2{fill:#fff}.st2,.st3,.st4,.st5{fill-rule:evenodd;clip-rule:evenodd}.st3{stroke:#deedfc;stroke-width:3;stroke-miterlimit:10;fill:#fff}.st4,.st5{fill:#dfe8f7}.st5{fill:#5ca4ef}</style><defs><filter id="shadow-3" filterUnits="userSpaceOnUse"><feOffset result="offset" dx="9.429" dy="-5.665" in="SourceAlpha"/><feGaussianBlur result="blur" stdDeviation="4.583"/><feFlood result="flood" flood-color="#3d6c9d" flood-opacity=".14"/><feComposite result="composite" operator="in" in2="blur"/><feBlend result="blend" in="SourceGraphic"/></filter><filter id="shadow-2" filterUnits="userSpaceOnUse"><feOffset result="offset" dx="9.119" dy="6.151" in="SourceAlpha"/><feGaussianBlur result="blur" stdDeviation="4.583"/><feFlood result="flood" flood-color="#3d6c9d" flood-opacity=".14"/><feComposite result="composite" operator="in" in2="blur"/><feBlend result="blend" in="SourceGraphic"/></filter><filter id="shadow-1" filterUnits="userSpaceOnUse"><feOffset result="offset" dx="12.496" dy="-3.583" in="SourceAlpha"/><feGaussianBlur result="blur" stdDeviation="4.796"/><feFlood result="flood" flood-color="#3d6c9d" flood-opacity=".14"/><feComposite result="composite" operator="in" in2="blur"/><feBlend result="blend" in="SourceGraphic"/></filter><filter id="shadow-4" filterUnits="userSpaceOnUse"><feOffset result="offset" dx="9.119" dy="6.151" in="SourceAlpha"/><feGaussianBlur result="blur" stdDeviation="4.583"/><feFlood result="flood" flood-color="#3d6c9d" flood-opacity=".14"/><feComposite result="composite" operator="in" in2="blur"/><feBlend result="blend" in="SourceGraphic"/></filter></defs><g id="background_1_"><g id="bg"><linearGradient id="Ellipse_2_copy_1_" gradientUnits="userSpaceOnUse" x1="68.575" y1="355.894" x2="670.994" y2="489.397"><stop offset=".003" stop-color="#fcfdff"/><stop offset=".483" stop-color="#e6f2ff"/></linearGradient><path id="Ellipse_2_copy" d="M599.6 334.9c10.3 2.6 19.1 6.3 25.9 11.7 3.4 2.7 6.4 5.8 8.8 9.4 1.2 1.8 2.3 3.7 3.2 5.7 1 2.1 1.8 4.2 2.5 6.4 1.5 4.7 2.4 9.6 2.7 14.6.2 2.6.3 5.3.2 8.1 0 2.8-.2 5.6-.4 8.5-1.2 12.2-3.8 24.3-7.6 36-1.9 6-4 11.9-6.4 17.5-1.1 2.8-2.4 5.5-3.6 8.1-.6 1.3-1.2 2.6-1.9 3.9s-1.3 2.5-1.9 3.8c-4.6 9-10.4 17.3-17.1 24.8-.8.8-1.5 1.6-2.3 2.4s-1.6 1.5-2.4 2.2c-1.5 1.4-3.1 2.7-4.8 3.9-.8.6-1.6 1.2-2.4 1.7s-1.7 1.1-2.5 1.6c-1.7 1-3.4 1.8-5.1 2.6-3.4 1.5-7.1 2.6-10.8 3.3-1.9.3-3.8.6-5.7.7-1 .1-1.9.1-2.9.1h-3c-31-.8-78.6-22.5-131.1-36.1-52.4-14.1-103.4-24-140.9-20-40.4-.6-68.2 12.2-96.7 25-28.4 13.3-58.2 27.3-85.3 30.5-6.2.9-12.5 1.1-18.8.6-.7-.1-1.4-.2-2.1-.2s-1.4-.2-2.1-.3c-1.4-.2-2.7-.5-3.9-.8-2.4-.6-4.8-1.4-7.1-2.4-8.6-3.9-13.7-10.8-14.2-19.7-.2-2.2-.1-4.4.2-6.6.1-.6.2-1.1.3-1.7s.2-1.2.3-1.7c.2-1.2.5-2.3.9-3.5 1.5-4.8 3.4-9.5 5.6-14.1 4.4-9.2 9.5-17.8 11-26.8.4-2.3.5-4.7.4-7-.1-1.2-.2-2.4-.4-3.6-.2-1.2-.5-2.5-.8-3.8-1.8-5.9-4.3-11.5-7.5-16.7-.2-.4-.4-.8-.7-1.2s-.5-.8-.7-1.2c-.5-.8-1-1.6-1.5-2.3-1-1.6-2.1-3.2-3.2-4.8s-2.2-3.3-3.4-5c-.6-.8-1.2-1.7-1.8-2.6s-1.2-1.7-1.8-2.6c-4.9-6.9-10.1-14.2-14.7-21.1-4.4-6.4-8.3-13.1-11.7-20-.7-1.5-1.4-3-1.9-4.5s-1-2.8-1.4-4.2c-.7-2.4-1.1-4.8-1-7.3-.1-4 1.9-7.7 5.3-9.7 2-1.1 4.1-1.9 6.4-2.3.6-.1 1.3-.2 1.9-.3.7-.1 1.4-.2 2.1-.2 1.4-.1 3-.2 4.6-.2 25.8-.1 66.2 10.8 97.3 12.4 4 .3 8 .4 11.9.5s7.7 0 11.4-.2c7.2-.3 14.3-1.3 21.3-2.7 13-2.7 25.5-7.8 36.7-15 22-13.5 37.8-33.1 59.4-41.5 5.2-2.3 10.8-3.9 16.4-4.8 2.9-.5 5.8-.8 8.8-.9.8 0 1.5-.1 2.3-.1h2.3c1.5 0 3.1.1 4.6.1 3.1.2 6.3.5 9.5 1s6.5 1.1 9.8 1.8c1.7.4 3.3.8 5 1.2 1.7.4 3.4.9 5.1 1.4 3.4 1 6.9 2.2 10.5 3.4 28.9 10 62.8 26.4 105.2 38.6 10.6 3.1 21.6 5.9 32.8 8.4 5.7 1.2 11.4 2.4 17.1 3.5 2.9.5 5.8 1.1 8.7 1.6 1.5.3 2.9.5 4.4.8l4.4.7c23.6 3.8 47.9 6 68.3 11.2z" fill-rule="evenodd" clip-rule="evenodd" fill="url(#Ellipse_2_copy_1_)"/><linearGradient id="SVGID_1_" gradientUnits="userSpaceOnUse" x1="68.982" y1="410.285" x2="462.134" y2="410.285"><stop offset="0" stop-color="#e6f3ff"/><stop offset=".512" stop-color="#ebf6ff" stop-opacity="0"/></linearGradient><path d="M286.6 355c50 1.3 95.7 4.1 127.4 17.5 31.9 12.7 49.7 35.9 48 60.7v.5l-.1.5c0 .3-.1.7-.1 1-.1.7-.2 1.3-.4 2-.3 1.3-.6 2.5-1.1 3.7-.8 2.3-2.1 4.3-3.7 6.2-3.1 3.5-7.7 5.8-13.9 7.1-12.3 2.5-31.6.7-56.9-1.2-25.1-2.1-56-4.1-86.6-3.6-15.3.2-30.4.9-44.6 2.1-7.1.6-14 1.3-20.6 2-3.3.4-6.5.8-9.7 1.2-3.1.4-6.2.8-9.2 1.2-22.1 2.8-41.6 6.1-58.9 8-8.1 1-16.2 1.5-24.3 1.7-7.1.1-14.2-.4-21.3-1.6-12.7-2.5-23.9-7.7-31.8-14.5-3.9-3.4-7.1-7-8.8-10.9-.4-1-.7-1.9-.9-3-.1-.5-.2-1-.2-1.5v-1.6c.2-2.4.9-4.8 2.1-6.9 9.8-19.5 46.1-41.3 83.7-53.3 39-12.8 80.1-16.3 131.9-17.3z" fill-rule="evenodd" clip-rule="evenodd" fill="url(#SVGID_1_)"/></g><g id="lines"><path id="Rectangle_4_copy_3" class="st2" d="M107.3 434.8l139.2-32.2 5.5 11.6-144.7 20.6z"/><path id="Rectangle_4_copy_3-2" class="st2" d="M409.4 416.1l784.9 34.2 26.6 31.7-811.5-65.9z"/><path id="Rectangle_4_copy_5" class="st2" d="M496.9 438l785.4 20.7 24.8 61.6L496.9 438z"/></g></g><g id="tag3"><path id="bg_2_" filter="url(#shadow-3)" class="st3" d="M469.5 406l-99.6-5.8c-5.5-.3-9.7-5.1-9.4-10.6l9.4-160.2c.3-5.5 5.1-9.7 10.6-9.4l99.6 5.8c5.5.3 9.7 5.1 9.4 10.6l-9.4 160.2c-.4 5.5-5.1 9.7-10.6 9.4z"/><path class="st4" d="M455.1 310.5l-64.2-3.8c-.7 0-1.3.5-1.3 1.2s.5 1.3 1.2 1.3L455 313c.7 0 1.3-.5 1.3-1.2.1-.7-.4-1.3-1.2-1.3zM439.7 327.5l-49.4-2.9c-.7 0-1.3.5-1.3 1.2s.5 1.3 1.2 1.3l49.4 2.9c.7 0 1.3-.5 1.3-1.2.1-.6-.5-1.3-1.2-1.3zM423.5 344.5l-34.7-2c-.7 0-1.3.5-1.3 1.2s.5 1.3 1.2 1.3l34.7 2c.7 0 1.3-.5 1.3-1.2.1-.7-.5-1.3-1.2-1.3z"/><ellipse transform="rotate(-45.025 427.022 256.01)" class="st5" cx="427" cy="256" rx="8" ry="8"/><ellipse transform="rotate(-45.025 427.022 256.01)" class="st2" cx="427" cy="256" rx="4.5" ry="4.5"/><path id="line_3_" class="st4" d="M427.5 256c.8 0 1.5-.7 1.5-1.5v-189c0-.8-.7-1.5-1.5-1.5s-1.5.7-1.5 1.5v189c0 .8.7 1.5 1.5 1.5z"/></g><g id="tag2_1_"><path filter="url(#shadow-2)" class="st5" d="M332.7 399.5L268 379.4c-5.3-1.6-8.2-7.2-6.6-12.5L294.8 259c1.6-5.3 7.2-8.2 12.5-6.6l64.7 20.1c5.3 1.6 8.2 7.2 6.6 12.5l-33.4 108c-1.6 5.2-7.2 8.2-12.5 6.5z"/><circle class="st2" cx="330" cy="293" r="7"/><path id="line_2_" class="st4" d="M330 293c.8 0 1.5-.7 1.5-1.5v-189c0-.8-.7-1.5-1.5-1.5s-1.5.7-1.5 1.5v189c0 .8.7 1.5 1.5 1.5z"/></g><g id="tag1_1_"><path filter="url(#shadow-1)" id="bg_1_" class="st3" d="M298.4 426.4l-115.7 22.9c-5.4 1.1-10.7-2.4-11.8-7.9l-37.3-188.1c-1.1-5.4 2.4-10.7 7.9-11.8l115.7-22.9c5.4-1.1 10.7 2.4 11.8 7.9l37.3 188.1c1.1 5.5-2.4 10.7-7.9 11.8z"/><path class="st4" d="M253.6 322.6L181 337c-.8.2-1.3.9-1.2 1.8.2.8.9 1.3 1.8 1.2l72.6-14.4c.8-.2 1.3-.9 1.2-1.8-.2-.8-1-1.4-1.8-1.2zM241.5 346.4l-55.9 11.1c-.8.2-1.3.9-1.2 1.8.2.8.9 1.3 1.8 1.2l55.9-11.1c.8-.2 1.3-.9 1.2-1.8-.2-.8-1-1.4-1.8-1.2zM228.4 370.4l-39.2 7.8c-.8.2-1.3.9-1.2 1.8.2.8.9 1.3 1.8 1.2l39.2-7.8c.8-.2 1.3-.9 1.2-1.8-.2-.9-1-1.4-1.8-1.2z"/><circle class="st5" cx="207" cy="272" r="8.5"/><ellipse class="st2" cx="207" cy="272" rx="4.5" ry="4.5"/><path id="line_1_" class="st4" d="M207 272c.8 0 1.5-.7 1.5-1.5v-189c0-.8-.7-1.5-1.5-1.5s-1.5.7-1.5 1.5v189c0 .8.7 1.5 1.5 1.5z"/></g><g id="tag4"><path filter="url(#shadow-4)" class="st5" d="M579.9 380.4l-77.2 16.4c-5.5 1.2-11-2.3-12.2-7.7l-28.3-127.6c-1.2-5.4 2.3-10.7 7.8-11.9l77.2-16.4c5.5-1.2 11 2.3 12.2 7.7l28.3 127.6c1.3 5.4-2.2 10.7-7.8 11.9z"/><circle class="st2" cx="516" cy="274" r="8"/><path class="st2" d="M550.4 301.8l-54 11.7c-.8.2-1.3 1-1.2 1.8.2.8 1 1.3 1.8 1.1l54-11.7c.8-.2 1.3-1 1.2-1.8-.2-.7-1-1.3-1.8-1.1zM538.7 325.9l-37.3 8.1c-.8.2-1.3 1-1.2 1.8.2.8 1 1.3 1.8 1.1l37.3-8.1c.8-.2 1.3-1 1.2-1.8-.2-.8-1-1.3-1.8-1.1z"/><path id="line_4_" class="st4" d="M516.5 274c.8 0 1.5-.7 1.5-1.5v-189c0-.8-.7-1.5-1.5-1.5s-1.5.7-1.5 1.5v189c0 .8.7 1.5 1.5 1.5z"/></g></svg>