<?xml version="1.0" encoding="utf-8"?>
<!-- Generator: Adobe Illustrator 21.0.0, SVG Export Plug-In . SVG Version: 6.00 Build 0)  -->
<svg version="1.1" id="Layer_1" xmlns="http://www.w3.org/2000/svg" xmlns:xlink="http://www.w3.org/1999/xlink" x="0px" y="0px"
	 viewBox="0 0 258 284" enable-background="new 0 0 258 284" xml:space="preserve">
<g>
	<g>
		<path fill="none" d="M78.7,77.4c-2.1,0-4,0.6-5.7,1.8c-2.2,1.5-3.7,3.8-4.1,6.5c-0.5,2.6,0.1,5.3,1.7,7.5c1.9,2.7,4.9,4.3,8.2,4.3
			c2.1,0,4-0.6,5.7-1.8c2.2-1.5,3.7-3.8,4.1-6.5c0.5-2.6-0.1-5.3-1.7-7.5C85.1,79,82,77.4,78.7,77.4z"/>
		<g>
			<path fill="none" d="M78.7,77.4c-2.1,0-4,0.6-5.7,1.8c-2.2,1.5-3.7,3.8-4.1,6.5c-0.5,2.6,0.1,5.3,1.7,7.5
				c1.9,2.7,4.9,4.3,8.2,4.3c2.1,0,4-0.6,5.7-1.8c2.2-1.5,3.7-3.8,4.1-6.5c0.5-2.6-0.1-5.3-1.7-7.5C85.1,79,82,77.4,78.7,77.4z"/>
			<path fill="none" d="M206.3,150.8L170.7,100L128,39.1L69.5,21.8L44.9,39L20.3,56.2l-3.8,60.9l42.7,60.9l35.6,50.8l34.5,49.2
				l27.1-19l28.7-20.1l28.7-20.1l27.1-19L206.3,150.8z M85.6,97.2c-2.1,1.5-4.5,2.2-6.9,2.2c-3.8,0-7.5-1.8-9.9-5.1
				c-3.8-5.4-2.5-12.9,3-16.7c2.1-1.5,4.5-2.2,6.9-2.2c3.8,0,7.5,1.8,9.9,5.1C92.4,85.9,91.1,93.4,85.6,97.2z M93.1,156.8l-1.1-1.6
				l46.7-32.7l1.1,1.6L93.1,156.8z M105.2,174l46.7-32.7l1.1,1.6l-46.7,32.7L105.2,174z M120.1,195.3l-1.1-1.6l27.9-19.5l1.1,1.6
				L120.1,195.3z M133.9,215l-1.1-1.6l46.7-32.7l1.1,1.6L133.9,215z"/>
			<path fill="#CBCDD4" d="M78.7,75.4c-2.4,0-4.8,0.7-6.9,2.2c-5.4,3.8-6.8,11.3-3,16.7c2.3,3.3,6.1,5.1,9.9,5.1
				c2.4,0,4.8-0.7,6.9-2.2c5.4-3.8,6.8-11.3,3-16.7C86.3,77.1,82.5,75.4,78.7,75.4z M88.6,89.1c-0.5,2.6-1.9,4.9-4.1,6.5
				c-1.7,1.2-3.7,1.8-5.7,1.8c-3.3,0-6.3-1.6-8.2-4.3c-1.5-2.2-2.1-4.8-1.7-7.5c0.5-2.6,1.9-4.9,4.1-6.5c1.7-1.2,3.7-1.8,5.7-1.8
				c3.3,0,6.3,1.6,8.2,4.3C88.5,83.8,89.1,86.5,88.6,89.1z"/>
			<path fill="#CBCDD4" d="M207.9,149.7l-35.6-50.8l-43.1-61.5L69.1,19.6L43.7,37.3L18.3,55.1l-3.9,62.6l43.1,61.5l35.6,50.8
				l35.6,50.8l28.7-20.1l28.7-20.1l28.7-20.1l28.7-20.1L207.9,149.7z M213.7,219L185,239.1l-28.7,20.1l-27.1,19l-34.5-49.2
				l-35.6-50.8l-42.7-60.9l3.8-60.9L44.9,39l24.6-17.2L128,39.1l42.7,60.9l35.6,50.8l34.5,49.2L213.7,219z"/>
			
				<rect x="100.6" y="157.4" transform="matrix(0.8191 -0.5736 0.5736 0.8191 -67.5291 102.728)" fill="#CBCDD4" width="57.1" height="2"/>
			
				<rect x="87.4" y="138.6" transform="matrix(0.8191 -0.5736 0.5736 0.8191 -59.0969 91.7379)" fill="#CBCDD4" width="57.1" height="2"/>
			
				<rect x="116.5" y="183.7" transform="matrix(0.8191 -0.5736 0.5736 0.8191 -81.8213 109.9775)" fill="#CBCDD4" width="34" height="2"/>
			
				<rect x="128.2" y="196.8" transform="matrix(0.8194 -0.5732 0.5732 0.8194 -85.0882 125.5329)" fill="#CBCDD4" width="57.1" height="2"/>
		</g>
	</g>
	<path fill="#42A5F5" d="M142,6.2c-7.1-3.9-15.4-4-23.9-1.2c-5,1.7-10.1,4.5-14.8,8.2c0.5,0.4,0.9,1,1.2,1.6
		c4.6-3.6,9.4-6.3,14.3-7.9c8.2-2.8,15.9-2.4,22.3,1.1c16.8,9.2,19.4,37.5,5.7,63c-8,14.9-20.4,26.4-33.1,30.7
		c-8.2,2.8-15.9,2.4-22.3-1.1c-5.4-3-9.3-7.9-11.7-14c-0.7,0.2-1.4,0.2-2.1,0.1c2.5,6.9,6.8,12.4,12.8,15.7c7.1,3.9,15.4,4,23.9,1.2
		c12.8-4.3,25.7-15.7,34.3-31.7C162.7,45.3,159.8,15.9,142,6.2z"/>
</g>
</svg>
