<?xml version="1.0" encoding="utf-8"?>
<!-- Generator: Adobe Illustrator 21.0.0, SVG Export Plug-In . SVG Version: 6.00 Build 0)  -->
<svg version="1.1" id="Layer_1" xmlns="http://www.w3.org/2000/svg" xmlns:xlink="http://www.w3.org/1999/xlink" x="0px" y="0px"
	 viewBox="0 0 258 284" enable-background="new 0 0 258 284" xml:space="preserve">
<g>
	<g>
		<path fill="#CBCDD4" d="M41,72c-6.1,0-11,4.9-11,11s4.9,11,11,11s11-4.9,11-11S47.1,72,41,72z M41,92c-5,0-9-4-9-9s4-9,9-9
			s9,4,9,9S46,92,41,92z"/>
		<path fill="#CBCDD4" d="M42,68.7V18h-2v50.7c0.3,0,0.7-0.1,1-0.1S41.7,68.6,42,68.7z"/>
		<path fill="#CBCDD4" d="M40,97.3V266h2V97.3c-0.3,0-0.7,0.1-1,0.1S40.3,97.4,40,97.3z"/>
	</g>
	<g>
		<path fill="#42A5F5" d="M130,179.7V18h-2v161.7c0.3,0,0.7-0.1,1-0.1S129.7,179.6,130,179.7z"/>
		<path fill="#42A5F5" d="M128,208.3V266h2v-57.7c-0.3,0-0.7,0.1-1,0.1S128.3,208.4,128,208.3z"/>
		<path fill="#42A5F5" d="M129,183c-6.1,0-11,4.9-11,11s4.9,11,11,11s11-4.9,11-11S135.1,183,129,183z M129,203c-5,0-9-4-9-9
			s4-9,9-9c5,0,9,4,9,9S134,203,129,203z"/>
	</g>
	<g>
		<path fill="#CBCDD4" d="M218,134.7V18h-2v116.7c0.3,0,0.7-0.1,1-0.1S217.7,134.6,218,134.7z"/>
		<path fill="#CBCDD4" d="M216,163.3V266h2V163.3c-0.3,0-0.7,0.1-1,0.1S216.3,163.4,216,163.3z"/>
		<path fill="#CBCDD4" d="M217,138c-6.1,0-11,4.9-11,11s4.9,11,11,11s11-4.9,11-11S223.1,138,217,138z M217,158c-5,0-9-4-9-9
			s4-9,9-9s9,4,9,9S222,158,217,158z"/>
	</g>
</g>
</svg>
