<svg id="Layer_1" data-name="Layer 1" xmlns="http://www.w3.org/2000/svg" viewBox="0 0 570.999 289.932"><defs><style>.cls-1{opacity:0.35;}.cls-2{fill:#4e5360;}.cls-11,.cls-3{fill:#b6bcc6;}.cls-4{fill:#727989;}.cls-5{opacity:0.45;}.cls-6{fill:#ec407a;}.cls-7{fill:#ff8f00;}.cls-8{fill:#66ad77;}.cls-9{fill:#f7fcff;fill-rule:evenodd;}.cls-10{opacity:0.55;}.cls-11{stroke:#b6bcc6;stroke-miterlimit:10;}.cls-12{fill:#edeef1;}</style></defs><title>Untitled-9</title><g class="cls-1"><path class="cls-2" d="M393.186 176.265l174.93 28.6-2.143-.35"/><path class="cls-3" d="M392.8 178.624l136 22.238 39.138 6.4a2.4 2.4 0 1 0 .766-4.717l-2.35-.384a2.4 2.4 0 1 0-.767 4.718l2.35.384.767-4.717-136.46-22.314-38.675-6.323a2.4 2.4 0 1 0-.767 4.717z"/><path class="cls-4" d="M429.27 93.793l-.136-.022zM429.5 93.83l-.1-.015zM429.5 93.83l100.6 16.45 28.7 4.693c1.174.192 1.558-2.166.382-2.36L458.422 96.14l-28.536-4.666c-1.175-.192-1.558 2.167-.387 2.36zM429.407 93.815l-.138-.023zM444.985 108.468l-.13-.02zM445.123 108.49l-.138-.022zM445.22 108.507l-.1-.016zM552.757 122.46l-106.963-17.49c-1.175-.193-1.75 3.345-.575 3.537L552.18 126c1.176.19 1.75-3.35.575-3.54zM418.53 179.2l-.315-.05zM419.237 179.315l-.173-.028zM419.064 179.286l-.535-.087z"/><path class="cls-4" d="M560.852 121.47c.313-1.4-1.34-1.97-2.253-1.287a.852.852 0 0 0-.758.686l-.733 4.51q-7.89 35.7-13.97 71.774l-96.19-15.73-27.33-4.468c-2.35-.384-2.734 1.974-.383 2.36l97.538 15.948 25.966 4.246-.182 1.078a1.41 1.41 0 0 0 2.78.455c.072-.426.147-.852.218-1.278a1.52 1.52 0 0 0 .33-1.944q2.254-13.38 4.75-26.718c.626.3 1.484-.15 1.7-1.5l.18-1.105v-.02l.008-.054 5.635-34.69q1.325-6.133 2.692-12.264zM557.86 120.765l.016-.106zM557.876 120.66l.04-.25zM557.842 120.87l.017-.1z"/></g><g class="cls-5"><path class="cls-3" d="M20.68 225.248l-.147.04zM21.426 225.042l-.088.024zM21.338 225.066l-.658.182zM21.97 224.89l-.544.15zM22.006 224.88l-.037.01zM19.965 225.445l-.11.03zM20.533 225.288l-.295.08zM314.406 134.1l-.15.04-.317.09-.385.105-1.05.29-.64.177-.1.03L84.94 197.5l-65.483 18.093c-5.29 1.462-2.74 10.75 2.55 9.288l229.755-63.48 62.547-17.28 2.158-.6.34-.095.146-.04a4.827 4.827 0 1 0-2.548-9.285zM19.855 225.475l-.13.036zM20.238 225.37l-.274.076z"/><path class="cls-4" d="M5.613 66.672c-.728-2.654-6.02-1.192-5.29 1.462l42.25 153.92c1.094 3.98 6.384 2.52 5.292-1.462zM.308 68.08l-.055-.2zM.078 67.24l-.08-.27zM.323 68.133l-.015-.053zM.253 67.88l-.175-.64zM19.054 65.813l-1.01.28zM19.568 65.67l169.348-46.786 48.89-13.507c2.644-.73 1.187-6.038-1.458-5.308L65.823 47.18 18.11 60.364c-3.967 1.096-2.51 6.404 1.458 5.307zM19.475 65.7l-.174.048zM19.568 65.67l-.094.027zM19.3 65.745l-.248.068zM55 75.867l.087-.024zM54.86 75.906l.14-.04zM232.188 21.2L53.63 70.536c-2.644.73-1.187 6.038 1.458 5.308L233.645 26.51c2.645-.73 1.188-6.037-1.457-5.31zM54.48 76.01l.38-.1zM53.98 76.15l.308-.086zM54.288 76.064l.192-.053zM63.6 206.25l-.38.1zM63.032 206.41l-.307.084zM63.832 206.188l-.088.024zM274.362 143.74l-165.288 45.665-46.334 12.8a2.064 2.064 0 0 0 1.093 3.98l164.84-45.54 46.783-12.927a2.064 2.064 0 0 0-1.094-3.98zM63.745 206.212l-.14.04zM63.225 206.356l-.192.053z"/><path class="cls-6" d="M26.946 74.81l-.23.062zM27.1 74.765l-.158.044zM26.418 69.89c-2.645.73-1.353 5.438 1.293 4.708 0 .002 1.353-5.44-1.292-4.71zM27.48 74.66l-.377.1zM27.623 74.622l-.14.04zM27.71 74.6l-.088.024z"/><path class="cls-7" d="M34.1 72.834l-.38.1zM34.236 72.794l-.14.04zM33.717 72.938l-.157.044zM33.56 72.98l-.23.064zM34.324 72.77l-.088.024zM33.03 68.062c-2.644.73-1.352 5.44 1.294 4.71 0-.002 1.352-5.44-1.293-4.71z"/><path class="cls-8" d="M41.353 70.828l-.68.188zM41.745 70.72l-.393.108zM40.67 71.017l-.14.04zM42.26 70.578l-.095.026zM41.992 70.652l-.247.068zM40.967 65.87c-3.968 1.1-2.675 5.8 1.293 4.708 0 0 .03-5.078-1.293-4.71zM42.166 70.6l-.174.048z"/></g><path class="cls-9" d="M449 19v-1h-9v1h-16v-1h-37v-1h-30v2h-2v1h-1v1h-2v2h-8v-1h-24v-1h-19v-1h-10v-1h-8v-1h-2v-1h-4v-1h-5v-1h-5v-1h-4v-1h-4v-1h-2v-1H134.998V37.278l-8.28.203.49 19.948.218-.005.03 1.2.217-.006.03 1.2.218-.006.03 1.2.218-.005.03 1.2.218-.006.03 1.198.15-.004.03 1.16.053-.002.028 1.098.053-.002.028 1.098h.053l.028 1.097h.054l.027 1.097H129l.027 1.097.044-.066.027 1.03h.037l.027 1h.014l.026 1h.015l.025 1h.014l.026 1h.014l.027 2h.014l.028 1h.014l.027 1h.013l.027 1h.014l.026 1h.015l.026 1h.016l.026 1h.014l.027 1h.014l.027 1h.014l.027 1h.014l.026 1h.014l.027 1h.014l.027 2h.015l.026 1h.015l.026 1h.014l.027 1h.02l.027 1h.02l.026 1h.02l.027 1h.02l.026 1h.02l.026 1h.02l.027 1h.02l.025 1h.02l.027 1h.02l.026 2h.02l.026 1h.02l.027 1h.02l.027 1h.02l.027 1h.02l.026 1h.02l.026 1h.02l.027 1h.02l.026 1h.02l.026 1h.02l.026 1h.02l.026 1h.02l.027 1h.02l.026 2h.02l.027 1h.02l.02.608-.073-.085.026 1.027-.13-.018.026 1.06-.13-.003.025 1.067-.13.002.027 1.07-.13.002.025 1.07-.13.004.026 1.072-.127.003.027 1.078-.12.003.027 1.077-.12.003.026 1.076-.12.003.027 1.075-.12.003.026 1.076-.12.003.027 1.076-.12.003.026 1.077-.12.002.026 1.077-.12.003.027 1.076-.12.004.025 1.076-.12.003.027 1.076-.12.002.026 1.076-.12.003.027 1.078-.12.002.026 1.077-.12.003.028 1.076-.12.003.026 1.075-.12.003.026 1.076-.12.003.027 1.076-.12.003.026 1.077-.12.003.027 1.076-.12.003.026 1.076-.12.004.027 1.076-.12.003.026 1.076-.12.002.026 1.076-.12.003.026 1.078-.12.002.027 1.077-.12.003.025 1.076-.12.003.026 1.075-.12.003.028 1.076-.12.003.026 1.076-.12.003.027 1.077-.12.002.027 1.078-.118.002.026 1.082-.11.003.026 1.08-.11.004.027 1.08-.11.004.026 1.08-.11.004.026 1.08-.11.004.027 1.08-.12.003.026 1.077-.138.003.026 1.078-.14.004.028 1.078-.14.003.028 1.078-.14.004.028 1.078-.14.004.028 1.08-.145.004.027 1.085-.152.004.027 1.083-.152.004.026 1.085-.152.004.027 1.084-.15.004.025 1.085-.152.002.027 1.085-.152.004.026 1.086-.152.003.027 1.084-.154.004.027 1.09-.166.005.027 1.095-.172.004.027 1.094-.173.005.027 1.1-.183.005.028 1.102-.187.005.028 1.102-.187.004.028 1.102-.187.005.028 1.1-.187.006.028 1.103-.186.004.027 1.102-.188.004.03 1.173-.333.008.03 1.256-.5.014.076 3.03.41 16.77 8.718-.215-.02-.776.712-.018-.023-.91.448-.01-.024-1.025.22-.005-.025-1.025.222-.005-.025-1.025.22-.005-.025-1.025.22-.006-.024-1.024.22-.006-.025-1.025.22-.006-.024-1.028.214-.005-.025-1.036.196-.005-.025-1.038.198-.004-.025-1.042.146-.003V223H448.997v-1h1V19h-1z"/><g class="cls-10"><path class="cls-11" d="M108.593 212.407h389v10h-389z"/><path class="cls-4" d="M139 30v197c0 3.86 6 3.867 6 0V30c0-4-6-4-6 0zM441 31a1.5 1.5 0 0 0 0-3H162a1.5 1.5 0 0 0 0 3h279zM201 50c-4 0-4 6 0 6h229c4 0 4-6 0-6zM440 209H169c-4 0-4 6 0 6h271c4 0 4-6 0-6z"/><path class="cls-4" d="M441.75 44.3q-5.134 86.236-5.442 172.66c-.014 3.86 5.986 3.865 6 0q.307-86.39 5.442-172.66c.23-3.852-5.77-3.84-6 0z"/><path class="cls-4" d="M440 44v104c0 4 6 4 6 0V44c0-4-6-4-6 0z"/><path class="cls-6" d="M169 46.322s4-6 0-6-4 6 0 6z"/><path class="cls-7" d="M178 46.322s4-6 0-6-4 6 0 6z"/><path class="cls-8" d="M187 46.322s4-6 0-6-4 6 0 6z"/></g><path class="cls-12" d="M410.722 252.823c0-3.342.168-13.073-.322-13.116q-117.538-10.34-235.66-9.952l.05 1.946c-.068 3.652-.37 11.234.293 11.957 2.848 3.106 5.636 6.268 8.446 9.41-.57-.635.01-5.043-.015-6.013-.017-.682.132-2.054.17-3.054h1.156c.036 3 .2 8.955.342 8.953 4.593-.063 9.186-.2 13.78-.257q40.434-.37 80.88.83-18.48.96-36.963 1.857c-.173.008.077 11.36.278 11.36q3.8.035 7.6.08c.075 3.325.375 8.37.385 8.37 16.535.007 33.07.074 49.6.117a23.2 23.2 0 0 0 .25 3.807l32.52 1.7a38.775 38.775 0 0 0 .263 4.383q4.826.187 9.652.4a23.012 23.012 0 0 1 .166 4.332c7.728-1.063 15.44-2.164 23.142-3.4.4-.064-.217-12.73-.313-12.734-1.144-.047-2.29-.082-3.433-.124a30.014 30.014 0 0 0-.24-3.715l-4.462-.2c-.014-.558-.03-1.12-.048-1.674 2.573.022 5.147.055 7.72.073.01 0 .026-3.852-.026-7.19q13.99-.67 27.977-1.36c.046 0 .06-3.01.018-6.01q8.41.178 16.82.34z"/></svg>