<?xml version="1.0" encoding="utf-8"?>
<!-- Generator: Adobe Illustrator 24.0.1, SVG Export Plug-In . SVG Version: 6.00 Build 0)  -->
<svg version="1.1" id="Layer_2" xmlns="http://www.w3.org/2000/svg" xmlns:xlink="http://www.w3.org/1999/xlink" x="0px" y="0px"
	 viewBox="0 0 572 572" style="enable-background:new 0 0 572 572;" xml:space="preserve">
<style type="text/css">
	.st0{fill:none;stroke:#DEEDFC;stroke-width:3;stroke-linecap:round;stroke-miterlimit:10;}
	.st1{fill:#DFE8F7;}
	.st2{fill:#5CA4EF;}
	.st3{fill:#FFFFFF;}
</style>
     <defs>
        <filter id="dropshadow" filterUnits="userSpaceOnUse">
            <feOffset result="offset" dx="1.15" dy="10.94" in="SourceAlpha" />
            <feGaussianBlur result="blur" stdDeviation="4.583" />
            <feFlood result="flood" flood-color="#3d6c9d" flood-opacity=".14" />
            <feComposite result="composite" operator="in" in2="blur" />
            <feBlend result="blend" in="SourceGraphic" />
        </filter>
    </defs>
<path class="st0" d="M493,524H77c-5.52,0-10-4.48-10-10V133c0-5.52,4.48-10,10-10h416c5.52,0,10,4.48,10,10v381
	C503,519.52,498.52,524,493,524z"/>
<path class="st1" d="M405,163H135c-1.1,0-2-0.9-2-2l0,0c0-1.1,0.9-2,2-2h270c1.1,0,2,0.9,2,2l0,0C407,162.1,406.1,163,405,163z"/>
<path class="st1" d="M405,251H135c-1.1,0-2-0.9-2-2l0,0c0-1.1,0.9-2,2-2h270c1.1,0,2,0.9,2,2l0,0C407,250.1,406.1,251,405,251z"/>
<path class="st1" d="M299.5,208h-165c-1.1,0-2-0.9-2-2l0,0c0-1.1,0.9-2,2-2h165c1.1,0,2,0.9,2,2l0,0
	C301.5,207.1,300.6,208,299.5,208z"/>
<path class="st1" d="M299.5,274h-165c-1.1,0-2-0.9-2-2l0,0c0-1.1,0.9-2,2-2h165c1.1,0,2,0.9,2,2l0,0
	C301.5,273.1,300.6,274,299.5,274z"/>
<path class="st1" d="M446.5,336h-165c-1.1,0-2-0.9-2-2l0,0c0-1.1,0.9-2,2-2h165c1.1,0,2,0.9,2,2l0,0
	C448.5,335.1,447.6,336,446.5,336z"/>
<path class="st1" d="M447,359H321c-1.1,0-2-0.9-2-2l0,0c0-1.1,0.9-2,2-2h126c1.1,0,2,0.9,2,2l0,0C449,358.1,448.1,359,447,359z"/>
<path class="st1" d="M447,382H321c-1.1,0-2-0.9-2-2l0,0c0-1.1,0.9-2,2-2h126c1.1,0,2,0.9,2,2l0,0C449,381.1,448.1,382,447,382z"/>
<path class="st1" d="M241,185H135c-1.1,0-2-0.9-2-2l0,0c0-1.1,0.9-2,2-2h106c1.1,0,2,0.9,2,2l0,0C243,184.1,242.1,185,241,185z"/>
<path class="st1" d="M405,441H135c-1.1,0-2-0.9-2-2l0,0c0-1.1,0.9-2,2-2h270c1.1,0,2,0.9,2,2l0,0C407,440.1,406.1,441,405,441z"/>
<path class="st1" d="M299.5,486h-165c-1.1,0-2-0.9-2-2l0,0c0-1.1,0.9-2,2-2h165c1.1,0,2,0.9,2,2l0,0
	C301.5,485.1,300.6,486,299.5,486z"/>
<path class="st1" d="M241,463H135c-1.1,0-2-0.9-2-2l0,0c0-1.1,0.9-2,2-2h106c1.1,0,2,0.9,2,2l0,0C243,462.1,242.1,463,241,463z"/>
<path class="st1" d="M184.46,343.88c0-4.03,3.26-7.29,7.28-7.29s7.28,3.26,7.28,7.29s-3.26,7.29-7.28,7.29
	S184.46,347.9,184.46,343.88z M232.5,383.25c0,0.26-0.02,0.52-0.04,0.78l0.04,0.16l-0.07,0.09c-0.51,4.35-4.19,7.72-8.67,7.72
	h-81.53c-4.82,0-8.74-3.92-8.74-8.75v-52.5c0-4.83,3.91-8.75,8.74-8.75h81.53c4.82,0,8.74,3.92,8.74,8.75V383.25z M141.24,388.98
	c1.58-7.3,6.73-28.6,13.16-29.57c1.88-0.28,3.64,1.06,5.2,3.98c3.37,6.28,6.02,9.51,7.86,9.6c1.3,0.06,2.53-1.67,3.77-3.5
	c1.65-2.44,3.52-5.2,6.67-5.2c2.29,0,3.78,2.61,5.37,5.37c1.98,3.45,4.05,7.01,7.57,6.39c3.48-0.62,6.37-6.05,9.42-11.8
	c4.19-7.89,8.53-16.03,15.62-14.28c5.69,1.42,10.72,14.29,13.7,23.76v-43c0-3.22-2.61-5.83-5.82-5.83h-81.53
	c-3.21,0-5.82,2.62-5.82,5.83v52.5C136.41,386.12,138.5,388.5,141.24,388.98z"/>
<g>
	<path filter="url(#dropshadow)" class="st2" d="M248.62,202H21c-4.42,0-8,3.58-8,8v31.62c0,5.18,4.2,9.38,9.38,9.38h155.61H178l15,18l1.24-18h54.38
		c5.18,0,9.38-4.2,9.38-9.38v-30.25C258,206.2,253.8,202,248.62,202z"/>
	<g>
		<path class="st3" d="M52.5,224.5h-10c-1.1,0-2,0.9-2,2v0c0,1.1,0.9,2,2,2h10c1.1,0,2-0.9,2-2v0C54.5,225.4,53.6,224.5,52.5,224.5z
			"/>
		<path class="st3" d="M71.5,224.5h-10c-1.1,0-2,0.9-2,2v0c0,1.1,0.9,2,2,2h10c1.1,0,2-0.9,2-2v0C73.5,225.4,72.6,224.5,71.5,224.5z
			"/>
		<path class="st3" d="M90.5,224.5h-10c-1.1,0-2,0.9-2,2v0c0,1.1,0.9,2,2,2h10c1.1,0,2-0.9,2-2v0C92.5,225.4,91.6,224.5,90.5,224.5z
			"/>
		<path class="st3" d="M109.5,224.5h-10c-1.1,0-2,0.9-2,2v0c0,1.1,0.9,2,2,2h10c1.1,0,2-0.9,2-2v0
			C111.5,225.4,110.6,224.5,109.5,224.5z"/>
		<path class="st3" d="M168.5,224.5h-50c-1.11,0-2,0.9-2,2v0c0,1.1,0.9,2,2,2h50c1.11,0,2-0.9,2-2v0
			C170.5,225.4,169.6,224.5,168.5,224.5z"/>
		<path class="st3" d="M227.5,224.5h-50c-1.11,0-2,0.9-2,2v0c0,1.1,0.9,2,2,2h50c1.11,0,2-0.9,2-2v0
			C229.5,225.4,228.6,224.5,227.5,224.5z"/>
	</g>
</g>
</svg>
