<?xml version="1.0" encoding="utf-8"?>
<!-- Generator: Adobe Illustrator 23.0.6, SVG Export Plug-In . SVG Version: 6.00 Build 0)  -->
<svg version="1.1" id="Layer_2" xmlns="http://www.w3.org/2000/svg" xmlns:xlink="http://www.w3.org/1999/xlink" x="0px" y="0px" viewBox="0 0 572 572" style="enable-background:new 0 0 572 572;" xml:space="preserve">
    <style type="text/css">
        .st0 {
            fill: none;
            stroke: #DEEDFC;
            stroke-width: 3;
            stroke-linecap: round;
            stroke-miterlimit: 10;
        }

        .st1 {
            fill: #DFE8F7;
        }

        .st2 {
            fill: #ECF5FE;
        }

        .st3 {
            fill: #5CA4EF;
            filter: url(#dropshadow);
        }

    </style>
    <defs>
        <filter id="dropshadow" filterUnits="userSpaceOnUse">
            <feOffset result="offset" dx="1.15" dy="10.94" in="SourceAlpha" />
            <feGaussianBlur result="blur" stdDeviation="4.583" />
            <feFlood result="flood" flood-color="#3d6c9d" flood-opacity="0.14" />
            <feComposite result="composite" operator="in" in2="blur" />
            <feBlend result="blend" in="SourceGraphic" />
        </filter>
    </defs>
    <path class="st0" d="M530.5,524.5h-416c-5.5,0-10-4.5-10-10v-381c0-5.5,4.5-10,10-10h416c5.5,0,10,4.5,10,10v381
	C540.5,520,536,524.5,530.5,524.5z" />
    <path class="st1" d="M442,163H172c-1.1,0-2-0.9-2-2l0,0c0-1.1,0.9-2,2-2h270c1.1,0,2,0.9,2,2l0,0C444,162.1,443.1,163,442,163z" />
    <path class="st1" d="M442,251H172c-1.1,0-2-0.9-2-2l0,0c0-1.1,0.9-2,2-2h270c1.1,0,2,0.9,2,2l0,0C444,250.1,443.1,251,442,251z" />
    <path class="st1" d="M337,208H172c-1.1,0-2-0.9-2-2l0,0c0-1.1,0.9-2,2-2h165c1.1,0,2,0.9,2,2l0,0C339,207.1,338.1,208,337,208z" />
    <path class="st1" d="M337,274H172c-1.1,0-2-0.9-2-2l0,0c0-1.1,0.9-2,2-2h165c1.1,0,2,0.9,2,2l0,0C339,273.1,338.1,274,337,274z" />
    <path class="st1" d="M484,336H319c-1.1,0-2-0.9-2-2l0,0c0-1.1,0.9-2,2-2h165c1.1,0,2,0.9,2,2l0,0C486,335.1,485.1,336,484,336z" />
    <path class="st1" d="M484,359H358c-1.1,0-2-0.9-2-2l0,0c0-1.1,0.9-2,2-2h126c1.1,0,2,0.9,2,2l0,0C486,358.1,485.1,359,484,359z" />
    <path class="st1" d="M484,382H358c-1.1,0-2-0.9-2-2l0,0c0-1.1,0.9-2,2-2h126c1.1,0,2,0.9,2,2l0,0C486,381.1,485.1,382,484,382z" />
    <path class="st1" d="M278,185H172c-1.1,0-2-0.9-2-2l0,0c0-1.1,0.9-2,2-2h106c1.1,0,2,0.9,2,2l0,0C280,184.1,279.1,185,278,185z" />
    <path class="st1" d="M442,441H172c-1.1,0-2-0.9-2-2l0,0c0-1.1,0.9-2,2-2h270c1.1,0,2,0.9,2,2l0,0C444,440.1,443.1,441,442,441z" />
    <path class="st1" d="M337,486H172c-1.1,0-2-0.9-2-2l0,0c0-1.1,0.9-2,2-2h165c1.1,0,2,0.9,2,2l0,0C339,485.1,338.1,486,337,486z" />
    <path class="st1" d="M278,463H172c-1.1,0-2-0.9-2-2l0,0c0-1.1,0.9-2,2-2h106c1.1,0,2,0.9,2,2l0,0C280,462.1,279.1,463,278,463z" />
    <path class="st1" d="M222,343.9c0-4,3.3-7.3,7.3-7.3s7.3,3.3,7.3,7.3s-3.3,7.3-7.3,7.3S222,347.9,222,343.9z M270,383.2
	c0,0.3,0,0.5,0,0.8l0,0.2l-0.1,0.1c-0.5,4.3-4.2,7.7-8.7,7.7h-81.5c-4.8,0-8.7-3.9-8.7-8.8v-52.5c0-4.8,3.9-8.8,8.7-8.8h81.5
	c4.8,0,8.7,3.9,8.7,8.8V383.2z M178.7,389c1.6-7.3,6.7-28.6,13.2-29.6c1.9-0.3,3.6,1.1,5.2,4c3.4,6.3,6,9.5,7.9,9.6
	c1.3,0.1,2.5-1.7,3.8-3.5c1.6-2.4,3.5-5.2,6.7-5.2c2.3,0,3.8,2.6,5.4,5.4c2,3.5,4,7,7.6,6.4c3.5-0.6,6.4-6,9.4-11.8
	c4.2-7.9,8.5-16,15.6-14.3c5.7,1.4,10.7,14.3,13.7,23.8v-43c0-3.2-2.6-5.8-5.8-5.8h-81.5c-3.2,0-5.8,2.6-5.8,5.8v52.5
	C173.9,386.1,176,388.5,178.7,389z" />
    <path class="st2" d="M45.8,453h22.5c6.5,0,12.3-4.3,13.5-10.6c1.3-7-2.2-13.1-9.4-15c0-0.2,0-0.3,0-0.5c0-10.5-8.6-18.9-19.3-18.9
	c-7.8,0-14.5,4.5-17.5,11.1c-1.5-1-3.4-1.6-5.4-1.6c-5.3,0-10.8,4.3-10.9,9.5c-5,2.1-7.2,6.8-7.2,12.4c0,7.3,5.9,13.3,13.3,13.6v0
	H45.8" />
    <path class="st2" d="M485.9,98h23.7v0c8.5-0.4,15.4-7.2,15.4-15.7c0-6.5-2.6-12-8.4-14.4c-0.1-6-6.4-10.9-12.6-10.9
	c-2.3,0-4.4,0.7-6.2,1.9c-3.5-7.5-11.3-12.8-20.3-12.8c-12.3,0-22.3,9.8-22.3,21.9c0,0.2,0,0.4,0,0.6c-8.4,2.2-12.4,9.2-10.9,17.3
	c1.3,7.2,8.1,12.2,15.6,12.2H485.9" />
    <g>
        <path class="st3" d="M286.1,203H58.5c-4.4,0-8,3.6-8,8v31.6c0,5.2,4.2,9.4,9.4,9.4h155.6h0l15,18l1.2-18h54.4
		c5.2,0,9.4-4.2,9.4-9.4v-30.2C295.5,207.2,291.3,203,286.1,203z" />
        <g>
            <path class="st1" d="M90.6,226h-10c-1.1,0-2,0.9-2,2v0c0,1.1,0.9,2,2,2h10c1.1,0,2-0.9,2-2v0C92.6,226.9,91.7,226,90.6,226z" />
            <path class="st1" d="M109.6,226h-10c-1.1,0-2,0.9-2,2v0c0,1.1,0.9,2,2,2h10c1.1,0,2-0.9,2-2v0C111.6,226.9,110.7,226,109.6,226z" />
            <path class="st1" d="M128.6,226h-10c-1.1,0-2,0.9-2,2v0c0,1.1,0.9,2,2,2h10c1.1,0,2-0.9,2-2v0C130.6,226.9,129.7,226,128.6,226z" />
            <path class="st1" d="M147.6,226h-10c-1.1,0-2,0.9-2,2v0c0,1.1,0.9,2,2,2h10c1.1,0,2-0.9,2-2v0C149.6,226.9,148.7,226,147.6,226z" />
            <path class="st1" d="M206.6,226h-50c-1.1,0-2,0.9-2,2v0c0,1.1,0.9,2,2,2h50c1.1,0,2-0.9,2-2v0C208.6,226.9,207.7,226,206.6,226z" />
            <path class="st1" d="M265.4,226h-50c-1.1,0-2,0.9-2,2v0c0,1.1,0.9,2,2,2h50c1.1,0,2-0.9,2-2v0C267.4,226.9,266.5,226,265.4,226z" />
        </g>
    </g>
</svg>
