<svg id="Layer_2" xmlns="http://www.w3.org/2000/svg" viewBox="0 0 572 572" enable-background="new 0 0 572 572"><style>.st1{fill:#dfe8f7}.st2{fill:#ecf5fe}</style><defs><filter id="dropshadow" filterUnits="userSpaceOnUse"><feOffset result="offset" dx="1.15" dy="10.94" in="SourceAlpha"/><feGaussianBlur result="blur" stdDeviation="4.583"/><feFlood result="flood" flood-color="#3d6c9d" flood-opacity=".14"/><feComposite result="composite" operator="in" in2="blur"/><feBlend result="blend" in="SourceGraphic"/></filter></defs><path d="M530.5 524.5h-416c-5.5 0-10-4.5-10-10v-381c0-5.5 4.5-10 10-10h416c5.5 0 10 4.5 10 10v381c0 5.5-4.5 10-10 10z" fill="none" stroke="#deedfc" stroke-width="3" stroke-linecap="round" stroke-miterlimit="10"/><path class="st1" d="M442 163H172c-1.1 0-2-.9-2-2s.9-2 2-2h270c1.1 0 2 .9 2 2s-.9 2-2 2zM442 251H172c-1.1 0-2-.9-2-2s.9-2 2-2h270c1.1 0 2 .9 2 2s-.9 2-2 2zM337 208H172c-1.1 0-2-.9-2-2s.9-2 2-2h165c1.1 0 2 .9 2 2s-.9 2-2 2zM337 274H172c-1.1 0-2-.9-2-2s.9-2 2-2h165c1.1 0 2 .9 2 2s-.9 2-2 2zM484 336H319c-1.1 0-2-.9-2-2s.9-2 2-2h165c1.1 0 2 .9 2 2s-.9 2-2 2zM484 359H358c-1.1 0-2-.9-2-2s.9-2 2-2h126c1.1 0 2 .9 2 2s-.9 2-2 2zM484 382H358c-1.1 0-2-.9-2-2s.9-2 2-2h126c1.1 0 2 .9 2 2s-.9 2-2 2zM278 185H172c-1.1 0-2-.9-2-2s.9-2 2-2h106c1.1 0 2 .9 2 2s-.9 2-2 2zM442 441H172c-1.1 0-2-.9-2-2s.9-2 2-2h270c1.1 0 2 .9 2 2s-.9 2-2 2zM337 486H172c-1.1 0-2-.9-2-2s.9-2 2-2h165c1.1 0 2 .9 2 2s-.9 2-2 2zM278 463H172c-1.1 0-2-.9-2-2s.9-2 2-2h106c1.1 0 2 .9 2 2s-.9 2-2 2zM222 343.9c0-4 3.3-7.3 7.3-7.3s7.3 3.3 7.3 7.3-3.3 7.3-7.3 7.3-7.3-3.3-7.3-7.3zm48 39.3v1l-.1.1c-.5 4.3-4.2 7.7-8.7 7.7h-81.5c-4.8 0-8.7-3.9-8.7-8.8v-52.5c0-4.8 3.9-8.8 8.7-8.8h81.5c4.8 0 8.7 3.9 8.7 8.8v52.5zm-91.3 5.8c1.6-7.3 6.7-28.6 13.2-29.6 1.9-.3 3.6 1.1 5.2 4 3.4 6.3 6 9.5 7.9 9.6 1.3.1 2.5-1.7 3.8-3.5 1.6-2.4 3.5-5.2 6.7-5.2 2.3 0 3.8 2.6 5.4 5.4 2 3.5 4 7 7.6 6.4 3.5-.6 6.4-6 9.4-11.8 4.2-7.9 8.5-16 15.6-14.3 5.7 1.4 10.7 14.3 13.7 23.8v-43c0-3.2-2.6-5.8-5.8-5.8h-81.5c-3.2 0-5.8 2.6-5.8 5.8v52.5c-.2 2.8 1.9 5.2 4.6 5.7z"/><path class="st2" d="M45.8 453h22.5c6.5 0 12.3-4.3 13.5-10.6 1.3-7-2.2-13.1-9.4-15v-.5c0-10.5-8.6-18.9-19.3-18.9-7.8 0-14.5 4.5-17.5 11.1-1.5-1-3.4-1.6-5.4-1.6-5.3 0-10.8 4.3-10.9 9.5-5 2.1-7.2 6.8-7.2 12.4 0 7.3 5.9 13.3 13.3 13.6h20.4M485.9 98h23.7c8.5-.4 15.4-7.2 15.4-15.7 0-6.5-2.6-12-8.4-14.4-.1-6-6.4-10.9-12.6-10.9-2.3 0-4.4.7-6.2 1.9-3.5-7.5-11.3-12.8-20.3-12.8-12.3 0-22.3 9.8-22.3 21.9v.6c-8.4 2.2-12.4 9.2-10.9 17.3 1.3 7.2 8.1 12.2 15.6 12.2h26"/><path d="M286.1 203H58.5c-4.4 0-8 3.6-8 8v31.6c0 5.2 4.2 9.4 9.4 9.4h155.6l15 18 1.2-18h54.4c5.2 0 9.4-4.2 9.4-9.4v-30.2c0-5.2-4.2-9.4-9.4-9.4z" fill="#5ca4ef" filter="url(#dropshadow)"/><path class="st1" d="M90.6 226h-10c-1.1 0-2 .9-2 2s.9 2 2 2h10c1.1 0 2-.9 2-2s-.9-2-2-2zM109.6 226h-10c-1.1 0-2 .9-2 2s.9 2 2 2h10c1.1 0 2-.9 2-2s-.9-2-2-2zM128.6 226h-10c-1.1 0-2 .9-2 2s.9 2 2 2h10c1.1 0 2-.9 2-2s-.9-2-2-2zM147.6 226h-10c-1.1 0-2 .9-2 2s.9 2 2 2h10c1.1 0 2-.9 2-2s-.9-2-2-2zM206.6 226h-50c-1.1 0-2 .9-2 2s.9 2 2 2h50c1.1 0 2-.9 2-2s-.9-2-2-2zM265.4 226h-50c-1.1 0-2 .9-2 2s.9 2 2 2h50c1.1 0 2-.9 2-2s-.9-2-2-2z"/></svg>