<?xml version="1.0" encoding="utf-8"?>
<!-- Generator: Adobe Illustrator 22.0.1, SVG Export Plug-In . SVG Version: 6.00 Build 0)  -->
<svg version="1.1" id="Layer_1" xmlns="http://www.w3.org/2000/svg" xmlns:xlink="http://www.w3.org/1999/xlink" x="0px" y="0px"
	 viewBox="0 0 264 88" style="enable-background:new 0 0 264 88;" xml:space="preserve">
<title>default-skin 2</title>
<g>
	<g>
		<path id="Shape" d="M67,59v3.6c-6.3,0.8-9.2,5.5-10,9.4c2.2-2.7,5.6-4.9,10-4.9v3.5l6-5.7L67,59z"/>
		<g>
			<path id="Shape_1_" d="M13,29v-5h2v3h3v2H13z M13,15h5v2h-3v3h-2V15z M31,15v5h-2v-3h-3v-2H31z M31,29h-5v-2h3v-3h2V29z"/>
		</g>
		<g>
			<path d="M62,24v5h-2v-3h-3v-2H62z M62,20h-5v-2h3v-3h2V20z M70,20v-5h2v3h3v2H70z M70,24h5v2h-3v3h-2V24z"/>
		</g>
		<path d="M20.6,66L15,60.4l1.4-1.4l5.6,5.6l5.6-5.6l1.4,1.4L23.4,66l5.6,5.6L27.6,73L22,67.4L16.4,73L15,71.6L20.6,66z"/>
		<g>
			<g id="Rectangle-11">
				<path d="M161,28.6l-3.3-3.3l-1.4,1.4l3.3,3.3L161,28.6z"/>
			</g>
			<g id="Oval-1">
				<path d="M152.4,27.7c-3.5,0-6.4-2.9-6.4-6.4s2.9-6.4,6.4-6.4c3.5,0,6.4,2.9,6.4,6.4S155.9,27.7,152.4,27.7z M152.4,16.5
					c-2.7,0-4.8,2.2-4.8,4.8s2.2,4.8,4.8,4.8c2.7,0,4.8-2.2,4.8-4.8S155,16.5,152.4,16.5z"/>
			</g>
			<g>
				<path d="M149.8,20.9h5.1v1h-5.1V20.9z"/>
			</g>
		</g>
		<g>
			<g>
				<path d="M117,28.6l-1.4,1.4l-3.3-3.3l1.4-1.4L117,28.6z"/>
			</g>
			<g>
				<path d="M108.4,27.7c-3.5,0-6.4-2.9-6.4-6.4s2.9-6.4,6.4-6.4c3.5,0,6.4,2.9,6.4,6.4S111.9,27.7,108.4,27.7z M108.4,16.5
					c-2.7,0-4.8,2.2-4.8,4.8s2.2,4.8,4.8,4.8c2.7,0,4.8-2.2,4.8-4.8S111,16.5,108.4,16.5z"/>
			</g>
			<g>
				<path d="M105.8,20.9h5.1v1h-5.1V20.9z"/>
			</g>
			<g>
				<path d="M108.9,18.8l-0.1,5.1l-1,0l0.1-5.1L108.9,18.8z"/>
			</g>
		</g>
	</g>
</g>
<path d="M154.7,64.3l-5.3-5.3l5.3-5.3c0.4-0.4,0.4-1,0-1.4c-0.4-0.4-1-0.4-1.4,0l-6,6c-0.4,0.4-0.4,1,0,1.4l6,6
	c0.2,0.2,0.4,0.3,0.7,0.3s0.5-0.1,0.7-0.3C155.1,65.3,155.1,64.7,154.7,64.3z"/>
<path d="M109.3,64.3l5.3-5.3l-5.3-5.3c-0.4-0.4-0.4-1,0-1.4c0.4-0.4,1-0.4,1.4,0l6,6c0.4,0.4,0.4,1,0,1.4l-6,6
	c-0.2,0.2-0.4,0.3-0.7,0.3c-0.3,0-0.5-0.1-0.7-0.3C108.9,65.3,108.9,64.7,109.3,64.3z"/>
</svg>
